<svg id="svg" version="1.1" xmlns="http://www.w3.org/2000/svg" xmlns:xlink="http://www.w3.org/1999/xlink" width="400" height="400" viewBox="0, 0, 400,400"><g id="svgg"><path id="path0" d="M186.200 72.589 C 142.580 78.696,122.065 138.229,152.738 169.697 C 157.751 174.840,170.141 182.800,173.134 182.800 C 173.396 182.800,173.923 182.971,174.305 183.181 C 175.217 183.681,179.301 184.992,181.700 185.555 C 186.582 186.699,188.953 187.142,195.200 188.077 C 199.724 188.753,221.699 188.756,226.600 188.080 C 239.537 186.296,243.921 185.422,253.200 182.772 C 256.659 181.785,259.186 180.894,264.117 178.922 C 266.051 178.148,267.989 177.609,268.424 177.722 C 268.859 177.836,269.468 177.675,269.778 177.364 C 270.089 177.054,270.626 176.800,270.971 176.800 C 271.317 176.800,271.600 176.620,271.600 176.400 C 271.600 176.180,271.945 176.000,272.367 176.000 C 272.788 176.000,273.193 175.865,273.267 175.700 C 273.340 175.535,274.525 174.872,275.900 174.226 C 277.275 173.581,278.400 172.906,278.400 172.726 C 278.400 172.547,278.720 172.400,279.112 172.400 C 279.503 172.400,280.083 172.040,280.400 171.600 C 280.717 171.160,281.180 170.800,281.429 170.800 C 281.678 170.800,282.446 170.260,283.137 169.600 C 283.828 168.940,284.562 168.400,284.769 168.400 C 285.525 168.400,291.600 161.999,291.600 161.203 C 291.600 160.761,291.780 160.400,292.000 160.400 C 292.577 160.400,292.493 157.240,291.900 156.620 C 291.625 156.333,291.135 155.716,290.812 155.249 C 290.325 154.547,289.817 154.400,287.877 154.400 L 285.531 154.400 282.066 157.943 C 275.778 164.372,266.551 169.567,254.400 173.520 C 243.393 177.100,236.482 178.478,221.932 179.996 C 216.968 180.514,203.916 180.517,199.564 180.001 C 191.023 178.989,189.707 178.775,184.500 177.555 C 168.714 173.853,157.006 165.215,151.220 153.000 C 148.969 148.248,148.814 147.769,147.141 140.400 C 145.100 131.409,147.329 117.425,152.403 107.379 C 171.212 70.143,223.196 72.161,228.412 110.329 C 232.319 138.921,192.166 153.993,181.651 127.881 C 180.470 124.949,181.361 119.876,183.418 117.818 C 186.730 114.506,196.000 114.780,196.000 118.190 C 196.000 120.792,200.629 122.056,202.860 120.063 C 207.747 115.697,199.345 106.800,190.336 106.800 C 172.644 106.800,166.676 127.357,180.351 141.189 C 194.983 155.987,223.670 150.158,233.216 130.447 C 234.982 126.800,235.194 126.193,236.420 121.261 C 237.759 115.873,236.605 104.875,234.022 98.400 C 226.840 80.400,206.978 69.680,186.200 72.589 M191.476 207.058 C 191.079 207.454,191.134 232.888,191.531 232.642 C 191.714 232.530,191.782 233.411,191.683 234.601 C 191.585 235.790,191.711 248.067,191.964 261.882 C 192.218 275.697,192.432 292.670,192.440 299.600 C 192.449 306.530,192.619 313.387,192.817 314.837 C 193.016 316.287,193.192 326.007,193.207 336.437 C 193.238 357.994,193.443 360.400,195.246 360.400 C 195.855 360.400,196.464 360.580,196.600 360.800 C 196.745 361.035,199.071 361.200,202.224 361.200 C 205.541 361.200,207.600 361.047,207.600 360.800 C 207.600 360.580,208.590 360.400,209.800 360.400 L 212.000 360.400 212.000 354.424 C 212.000 350.871,211.838 348.347,211.600 348.200 C 211.351 348.046,211.200 344.337,211.200 338.400 C 211.200 332.463,211.049 328.754,210.800 328.600 C 210.551 328.446,210.400 324.729,210.400 318.776 C 210.400 312.659,210.256 309.200,210.000 309.200 C 209.744 309.200,209.600 305.675,209.600 299.424 C 209.600 294.047,209.447 289.553,209.261 289.438 C 209.075 289.322,208.805 283.417,208.663 276.314 C 208.520 269.211,208.228 259.530,208.014 254.800 C 207.801 250.070,207.605 243.050,207.580 239.200 C 207.555 235.350,207.371 231.480,207.170 230.600 C 206.969 229.720,206.732 224.860,206.643 219.800 C 206.554 214.740,206.328 209.790,206.141 208.800 L 205.800 207.000 198.776 206.891 C 194.912 206.831,191.627 206.906,191.476 207.058 " stroke="none" fill="#f2f4f4" fill-rule="evenodd"></path><path id="path1" d="M192.800 39.200 C 192.800 39.433,191.467 39.600,189.600 39.600 C 187.733 39.600,186.400 39.767,186.400 40.000 C 186.400 40.222,185.333 40.400,184.000 40.400 C 182.667 40.400,181.600 40.578,181.600 40.800 C 181.600 41.020,180.790 41.200,179.800 41.200 C 178.800 41.200,178.000 41.388,178.000 41.624 C 178.000 41.857,177.852 41.955,177.670 41.843 C 177.489 41.731,176.324 41.876,175.082 42.165 C 173.839 42.453,172.728 42.594,172.611 42.478 C 172.495 42.362,172.400 42.477,172.400 42.733 C 172.400 42.990,171.958 43.200,171.419 43.200 C 170.879 43.200,169.934 43.402,169.319 43.650 C 168.703 43.897,167.840 44.235,167.400 44.400 C 166.960 44.565,166.097 44.903,165.481 45.150 C 164.866 45.398,164.011 45.600,163.581 45.600 C 163.152 45.600,162.800 45.780,162.800 46.000 C 162.800 46.220,162.350 46.400,161.800 46.400 C 161.250 46.400,160.800 46.580,160.800 46.800 C 160.800 47.020,160.440 47.200,160.000 47.200 C 159.560 47.200,159.200 47.380,159.200 47.600 C 159.200 47.820,158.840 48.000,158.400 48.000 C 157.960 48.000,157.600 48.180,157.600 48.400 C 157.600 48.620,157.240 48.800,156.800 48.800 C 156.360 48.800,156.000 48.980,156.000 49.200 C 156.000 49.420,155.640 49.600,155.200 49.600 C 154.760 49.600,154.400 49.780,154.400 50.000 C 154.400 50.220,154.040 50.400,153.600 50.400 C 153.160 50.400,152.800 50.580,152.800 50.800 C 152.800 51.020,152.440 51.200,152.000 51.200 C 151.560 51.200,151.200 51.380,151.200 51.600 C 151.200 51.820,150.840 52.000,150.400 52.000 C 149.960 52.000,149.600 52.180,149.600 52.400 C 149.600 52.620,149.364 52.800,149.075 52.800 C 148.787 52.800,148.164 53.160,147.692 53.600 C 147.220 54.040,146.556 54.400,146.217 54.400 C 145.878 54.400,145.600 54.580,145.600 54.800 C 145.600 55.020,145.330 55.200,145.000 55.200 C 144.670 55.200,144.400 55.380,144.400 55.600 C 144.400 55.820,144.130 56.000,143.800 56.000 C 143.470 56.000,143.200 56.180,143.200 56.400 C 143.200 56.620,142.970 56.800,142.688 56.800 C 142.407 56.800,141.917 57.160,141.600 57.600 C 141.283 58.040,140.748 58.403,140.412 58.406 C 140.075 58.410,139.191 58.950,138.446 59.606 C 137.701 60.263,136.950 60.800,136.777 60.800 C 136.604 60.800,135.258 61.970,133.785 63.400 C 132.312 64.830,130.940 66.000,130.735 66.000 C 130.185 66.000,128.409 67.875,128.691 68.158 C 128.824 68.291,128.623 68.400,128.243 68.400 C 127.863 68.400,127.664 68.580,127.800 68.800 C 127.936 69.020,127.865 69.200,127.643 69.200 C 127.420 69.200,126.653 70.055,125.938 71.100 C 125.223 72.145,123.954 73.661,123.119 74.469 C 122.283 75.276,121.600 76.059,121.600 76.208 C 121.600 76.357,121.060 76.983,120.400 77.600 C 119.740 78.217,119.200 79.009,119.200 79.360 C 119.200 79.712,119.050 80.000,118.868 80.000 C 118.685 80.000,118.280 80.495,117.968 81.100 C 117.655 81.705,117.085 82.549,116.700 82.975 C 116.315 83.402,116.000 83.987,116.000 84.275 C 116.000 84.564,115.820 84.800,115.600 84.800 C 115.380 84.800,115.200 85.120,115.200 85.512 C 115.200 85.903,114.840 86.483,114.400 86.800 C 113.960 87.117,113.600 87.697,113.600 88.088 C 113.600 88.480,113.420 88.800,113.200 88.800 C 112.980 88.800,112.800 89.036,112.800 89.325 C 112.800 89.614,112.440 90.595,112.000 91.506 C 111.560 92.416,111.200 93.350,111.200 93.581 C 111.200 93.811,111.020 94.000,110.800 94.000 C 110.580 94.000,110.400 94.330,110.400 94.733 C 110.400 95.137,110.281 95.586,110.135 95.732 C 109.681 96.185,108.400 100.122,108.400 101.061 C 108.400 101.551,108.220 102.064,108.000 102.200 C 107.780 102.336,107.600 103.067,107.600 103.824 C 107.600 104.581,107.420 105.200,107.200 105.200 C 106.980 105.200,106.800 105.920,106.800 106.800 C 106.800 107.680,106.637 108.400,106.439 108.400 C 106.058 108.400,105.708 110.683,105.352 115.500 C 105.233 117.095,104.971 118.400,104.768 118.400 C 104.555 118.400,104.400 122.269,104.400 127.624 C 104.400 133.671,104.538 136.762,104.800 136.600 C 105.053 136.444,105.200 137.463,105.200 139.376 C 105.200 141.125,105.369 142.400,105.600 142.400 C 105.820 142.400,106.000 143.300,106.000 144.400 C 106.000 145.500,106.180 146.400,106.400 146.400 C 106.620 146.400,106.800 147.120,106.800 148.000 C 106.800 148.880,106.960 149.600,107.156 149.600 C 107.352 149.600,107.605 150.185,107.719 150.900 C 107.833 151.615,108.129 152.920,108.379 153.800 C 108.990 155.959,109.021 156.054,109.494 157.200 C 109.720 157.750,109.827 158.335,109.729 158.500 C 109.632 158.665,109.743 158.800,109.976 158.800 C 110.209 158.800,110.400 159.160,110.400 159.600 C 110.400 160.040,110.580 160.400,110.800 160.400 C 111.020 160.400,111.200 160.749,111.200 161.175 C 111.200 162.014,113.522 166.515,114.067 166.733 C 114.250 166.807,114.400 167.212,114.400 167.633 C 114.400 168.055,114.580 168.400,114.800 168.400 C 115.020 168.400,115.200 168.760,115.200 169.200 C 115.200 169.640,115.380 170.000,115.600 170.000 C 115.820 170.000,116.000 170.270,116.000 170.600 C 116.000 170.930,116.150 171.200,116.332 171.200 C 116.515 171.200,116.920 171.695,117.232 172.300 C 117.545 172.905,118.295 173.877,118.900 174.460 C 119.505 175.044,120.000 175.722,120.000 175.967 C 120.000 176.564,130.322 187.200,130.902 187.200 C 131.086 187.200,131.699 187.662,132.263 188.227 C 132.828 188.792,133.675 189.425,134.145 189.633 C 134.615 189.841,135.540 190.356,136.200 190.777 C 136.860 191.197,137.633 191.555,137.917 191.571 C 138.201 191.587,138.820 191.960,139.292 192.400 C 139.764 192.840,140.387 193.200,140.675 193.200 C 140.964 193.200,141.200 193.380,141.200 193.600 C 141.200 193.820,141.560 194.000,142.000 194.000 C 142.440 194.000,142.800 194.180,142.800 194.400 C 142.800 194.620,143.160 194.800,143.600 194.800 C 144.040 194.800,144.400 194.980,144.400 195.200 C 144.400 195.420,144.760 195.600,145.200 195.600 C 145.640 195.600,146.000 195.780,146.000 196.000 C 146.000 196.220,146.450 196.400,147.000 196.400 C 147.550 196.400,148.000 196.580,148.000 196.800 C 148.000 197.020,148.360 197.200,148.800 197.200 C 149.240 197.200,149.600 197.380,149.600 197.600 C 149.600 197.820,149.960 198.000,150.400 198.000 C 150.840 198.000,151.200 198.180,151.200 198.400 C 151.200 198.620,151.740 198.800,152.400 198.800 C 153.060 198.800,153.600 198.980,153.600 199.200 C 153.600 199.420,154.140 199.600,154.800 199.600 C 155.460 199.600,156.000 199.780,156.000 200.000 C 156.000 200.220,156.450 200.400,157.000 200.400 C 157.550 200.400,158.000 200.580,158.000 200.800 C 158.000 201.020,158.529 201.200,159.176 201.200 C 159.823 201.200,160.464 201.380,160.600 201.600 C 160.736 201.820,161.287 202.000,161.824 202.000 C 162.361 202.000,162.800 202.180,162.800 202.400 C 162.800 202.620,163.520 202.800,164.400 202.800 C 165.280 202.800,166.000 202.960,166.000 203.156 C 166.000 203.506,167.337 203.820,170.700 204.259 C 171.635 204.381,172.400 204.625,172.400 204.802 C 172.400 204.978,173.255 205.224,174.300 205.347 C 179.982 206.019,181.438 206.237,181.812 206.476 C 182.039 206.620,183.479 206.778,185.012 206.826 C 186.545 206.874,187.980 207.019,188.200 207.147 C 188.890 207.550,191.171 207.571,191.414 207.177 C 191.722 206.679,205.479 206.681,205.787 207.180 C 205.916 207.388,206.602 207.457,207.311 207.332 C 208.531 207.117,212.309 206.666,217.200 206.152 C 218.410 206.025,219.587 205.768,219.815 205.582 C 220.044 205.395,220.989 205.198,221.915 205.143 C 222.842 205.088,223.600 204.899,223.600 204.722 C 223.600 204.545,224.140 204.400,224.800 204.400 C 225.460 204.400,226.000 204.258,226.000 204.085 C 226.000 203.912,226.582 203.726,227.293 203.672 C 228.005 203.617,228.761 203.399,228.973 203.187 C 229.186 202.974,229.763 202.800,230.256 202.800 C 230.749 202.800,231.264 202.620,231.400 202.400 C 231.536 202.180,232.177 202.000,232.824 202.000 C 233.471 202.000,234.000 201.820,234.000 201.600 C 234.000 201.380,234.349 201.200,234.776 201.200 C 235.203 201.200,235.664 201.020,235.800 200.800 C 235.936 200.580,236.487 200.400,237.024 200.400 C 237.561 200.400,238.000 200.220,238.000 200.000 C 238.000 199.780,238.360 199.600,238.800 199.600 C 239.240 199.600,239.600 199.420,239.600 199.200 C 239.600 198.980,239.870 198.800,240.200 198.800 C 240.530 198.800,240.800 198.620,240.800 198.400 C 240.800 198.180,241.160 198.000,241.600 198.000 C 242.040 198.000,242.400 197.820,242.400 197.600 C 242.400 197.380,242.760 197.200,243.200 197.200 C 243.640 197.200,244.000 197.020,244.000 196.800 C 244.000 196.580,244.360 196.400,244.800 196.400 C 245.240 196.400,245.600 196.220,245.600 196.000 C 245.600 195.780,245.960 195.600,246.400 195.600 C 246.840 195.600,247.200 195.420,247.200 195.200 C 247.200 194.980,247.436 194.800,247.725 194.800 C 248.013 194.800,248.636 194.440,249.108 194.000 C 249.580 193.560,250.244 193.200,250.583 193.200 C 250.922 193.200,251.200 193.032,251.200 192.827 C 251.200 192.622,251.538 192.347,251.951 192.216 C 252.364 192.084,253.219 191.533,253.851 190.989 C 254.483 190.446,255.194 190.001,255.430 190.000 C 255.667 190.000,256.283 189.550,256.800 189.000 C 257.317 188.450,257.900 188.000,258.096 188.000 C 258.292 188.000,259.329 187.100,260.400 186.000 C 261.471 184.900,262.540 184.000,262.774 184.000 C 263.008 184.000,263.200 183.820,263.200 183.600 C 263.200 183.380,263.345 183.200,263.522 183.200 C 264.019 183.200,269.135 178.069,268.887 177.820 C 268.464 177.397,267.287 177.606,265.408 178.438 C 263.166 179.429,257.503 181.539,255.800 182.017 C 255.140 182.203,253.250 182.742,251.600 183.217 C 248.168 184.205,247.549 184.351,241.000 185.722 C 236.405 186.684,234.691 186.964,226.600 188.080 C 221.699 188.756,199.724 188.753,195.200 188.077 C 188.953 187.142,186.582 186.699,181.700 185.555 C 179.301 184.992,175.217 183.681,174.305 183.181 C 173.923 182.971,173.396 182.800,173.134 182.800 C 172.028 182.800,162.732 177.890,159.573 175.638 C 119.652 147.173,138.983 77.673,188.300 72.355 C 214.724 69.506,236.816 88.485,236.846 114.061 C 236.851 119.155,236.695 120.422,235.548 124.600 C 229.073 148.181,196.842 157.868,180.351 141.189 C 166.676 127.357,172.644 106.800,190.336 106.800 C 199.345 106.800,207.747 115.697,202.860 120.063 C 200.629 122.056,196.000 120.792,196.000 118.190 C 196.000 114.780,186.730 114.506,183.418 117.818 C 181.361 119.876,180.470 124.949,181.651 127.881 C 186.121 138.982,197.451 143.798,209.800 139.845 C 237.862 130.862,233.451 89.668,203.600 81.946 C 183.220 76.673,162.785 86.825,152.403 107.379 C 149.632 112.865,148.863 115.087,147.342 122.000 C 146.523 125.728,146.398 137.125,147.141 140.400 C 148.814 147.769,148.969 148.248,151.220 153.000 C 157.006 165.215,168.714 173.853,184.500 177.555 C 189.707 178.775,191.023 178.989,199.564 180.001 C 220.662 182.502,251.787 176.768,269.599 167.100 C 276.476 163.367,284.990 156.185,286.799 152.591 C 287.129 151.936,287.491 151.310,287.605 151.200 C 287.861 150.951,289.793 147.139,289.820 146.828 C 289.831 146.703,290.236 145.755,290.720 144.722 C 291.204 143.689,291.600 142.384,291.600 141.822 C 291.600 141.260,291.780 140.800,292.000 140.800 C 292.220 140.800,292.400 140.350,292.400 139.800 C 292.400 139.250,292.580 138.800,292.800 138.800 C 293.020 138.800,293.200 138.080,293.200 137.200 C 293.200 136.320,293.380 135.600,293.600 135.600 C 293.820 135.600,294.000 134.801,294.000 133.824 C 294.000 132.847,294.180 131.936,294.400 131.800 C 294.620 131.664,294.800 130.483,294.800 129.176 C 294.800 127.869,294.966 126.800,295.170 126.800 C 295.382 126.800,295.558 123.396,295.583 118.800 C 295.612 113.528,295.486 110.800,295.214 110.800 C 294.968 110.800,294.800 109.662,294.800 108.000 C 294.800 106.400,294.629 105.200,294.400 105.200 C 294.180 105.200,294.000 104.300,294.000 103.200 C 294.000 102.100,293.820 101.200,293.600 101.200 C 293.380 101.200,293.200 100.480,293.200 99.600 C 293.200 98.720,293.020 98.000,292.800 98.000 C 292.580 98.000,292.400 97.460,292.400 96.800 C 292.400 96.140,292.263 95.600,292.095 95.600 C 291.927 95.600,291.576 94.702,291.315 93.603 C 290.877 91.761,290.068 89.615,289.166 87.905 C 288.965 87.523,288.800 86.938,288.800 86.605 C 288.800 86.272,288.620 86.000,288.400 86.000 C 288.180 86.000,288.000 85.674,288.000 85.275 C 288.000 84.877,287.640 84.164,287.200 83.692 C 286.760 83.220,286.400 82.556,286.400 82.217 C 286.400 81.878,286.220 81.600,286.000 81.600 C 285.780 81.600,285.600 81.280,285.600 80.888 C 285.600 80.497,285.240 79.917,284.800 79.600 C 284.360 79.283,284.000 78.743,284.000 78.400 C 284.000 78.057,283.640 77.517,283.200 77.200 C 282.760 76.883,282.400 76.433,282.400 76.200 C 282.400 75.967,282.040 75.517,281.600 75.200 C 281.160 74.883,280.800 74.409,280.800 74.147 C 280.800 73.884,279.720 72.573,278.400 71.232 C 277.080 69.892,276.000 68.643,276.000 68.457 C 276.000 67.867,270.491 62.683,266.800 59.800 C 265.810 59.027,264.783 58.216,264.517 57.997 C 264.251 57.779,263.845 57.600,263.613 57.600 C 263.382 57.600,262.628 57.060,261.937 56.400 C 261.246 55.740,260.438 55.200,260.141 55.200 C 259.843 55.200,259.600 55.020,259.600 54.800 C 259.600 54.580,259.280 54.400,258.888 54.400 C 258.497 54.400,257.917 54.040,257.600 53.600 C 257.283 53.160,256.793 52.800,256.512 52.800 C 256.230 52.800,256.000 52.620,256.000 52.400 C 256.000 52.180,255.640 52.000,255.200 52.000 C 254.760 52.000,254.400 51.820,254.400 51.600 C 254.400 51.380,254.145 51.200,253.833 51.200 C 253.522 51.200,253.207 51.065,253.133 50.900 C 252.913 50.405,247.946 48.000,247.144 48.000 C 246.735 48.000,246.400 47.820,246.400 47.600 C 246.400 47.380,246.040 47.200,245.600 47.200 C 245.160 47.200,244.800 47.020,244.800 46.800 C 244.800 46.580,244.451 46.400,244.024 46.400 C 243.597 46.400,243.136 46.220,243.000 46.000 C 242.864 45.780,242.401 45.600,241.971 45.600 C 241.541 45.600,240.787 45.392,240.295 45.138 C 238.374 44.144,237.984 44.000,237.229 44.000 C 236.799 44.000,236.336 43.820,236.200 43.600 C 236.064 43.380,235.524 43.200,235.000 43.200 C 234.476 43.200,233.960 43.059,233.854 42.887 C 233.748 42.715,233.100 42.532,232.414 42.480 C 231.728 42.428,230.410 42.121,229.484 41.798 C 228.558 41.476,227.035 41.209,226.100 41.206 C 225.165 41.203,224.400 41.020,224.400 40.800 C 224.400 40.580,223.410 40.400,222.200 40.400 C 220.990 40.400,220.000 40.220,220.000 40.000 C 220.000 39.767,218.667 39.600,216.800 39.600 C 214.933 39.600,213.600 39.433,213.600 39.200 C 213.600 38.944,209.867 38.800,203.200 38.800 C 196.533 38.800,192.800 38.944,192.800 39.200 " stroke="none" fill="#fc9c84" fill-rule="evenodd"></path></g></svg>