<svg id="svg" version="1.1" xmlns="http://www.w3.org/2000/svg" xmlns:xlink="http://www.w3.org/1999/xlink" width="400" height="400" viewBox="0, 0, 400,400"><g id="svgg"><path id="path0" d="M292.443 57.376 C 289.114 58.269,288.804 59.097,288.802 67.100 C 288.801 70.895,288.642 74.000,288.448 74.000 C 288.255 74.000,288.067 77.639,288.031 82.087 C 287.995 86.535,287.827 90.270,287.658 90.387 C 287.490 90.504,287.302 93.117,287.241 96.192 C 287.179 99.268,286.965 102.091,286.765 102.466 C 286.564 102.841,286.400 105.219,286.400 107.750 C 286.400 110.387,286.229 112.458,286.000 112.600 C 285.780 112.736,285.600 114.262,285.600 115.990 C 285.600 117.719,285.429 119.193,285.220 119.267 C 285.011 119.340,284.808 121.155,284.769 123.300 C 284.730 125.445,284.541 127.200,284.349 127.200 C 284.157 127.200,284.000 128.539,284.000 130.176 C 284.000 131.813,283.820 133.264,283.600 133.400 C 283.380 133.536,283.200 134.976,283.200 136.600 C 283.200 138.224,283.051 139.645,282.869 139.757 C 282.687 139.870,282.497 140.995,282.446 142.257 C 282.332 145.075,282.372 145.011,280.738 144.951 C 280.002 144.925,279.208 145.054,278.974 145.239 C 278.740 145.424,276.640 145.623,274.308 145.681 C 271.976 145.739,270.130 145.886,270.205 146.008 C 270.280 146.129,270.039 146.247,269.671 146.269 C 265.602 146.516,264.800 146.617,264.800 146.887 C 264.800 147.059,264.068 147.200,263.174 147.200 C 262.279 147.200,261.228 147.371,260.837 147.580 C 260.447 147.789,259.379 148.004,258.464 148.058 C 257.549 148.112,256.800 148.301,256.800 148.478 C 256.800 148.655,256.080 148.800,255.200 148.800 C 254.320 148.800,253.600 148.980,253.600 149.200 C 253.600 149.420,253.238 149.600,252.795 149.600 C 252.017 149.600,251.631 149.742,249.705 150.738 C 249.213 150.992,248.448 151.200,248.005 151.200 C 247.562 151.200,247.200 151.380,247.200 151.600 C 247.200 151.820,246.930 152.000,246.600 152.000 C 246.270 152.000,246.000 152.180,246.000 152.400 C 246.000 152.620,245.668 152.800,245.262 152.800 C 244.856 152.800,244.198 153.160,243.800 153.600 C 243.402 154.040,242.874 154.400,242.626 154.400 C 242.379 154.400,241.917 154.760,241.600 155.200 C 241.283 155.640,240.838 156.004,240.612 156.009 C 239.745 156.029,232.283 163.087,232.595 163.592 C 232.736 163.819,232.570 164.113,232.228 164.245 C 231.885 164.376,231.704 164.645,231.826 164.842 C 231.948 165.039,231.722 165.203,231.324 165.206 C 230.856 165.210,230.765 165.317,231.066 165.509 C 231.417 165.732,231.407 165.976,231.026 166.496 C 230.748 166.877,230.404 167.070,230.260 166.927 C 230.117 166.784,230.000 167.021,230.000 167.453 C 230.000 167.886,229.784 168.456,229.520 168.720 C 229.256 168.984,229.194 169.200,229.382 169.200 C 229.570 169.200,229.408 169.550,229.021 169.977 C 228.634 170.404,228.402 170.989,228.505 171.277 C 228.608 171.565,228.502 172.160,228.270 172.600 C 228.039 173.040,227.804 174.193,227.749 175.161 C 227.694 176.130,227.481 177.030,227.277 177.161 C 226.811 177.460,226.986 183.646,227.521 185.800 C 227.739 186.680,228.055 188.030,228.222 188.800 C 228.389 189.570,228.689 190.308,228.889 190.440 C 229.090 190.572,229.296 190.968,229.347 191.321 C 229.399 191.673,229.775 192.330,230.183 192.781 C 230.629 193.274,230.733 193.600,230.443 193.600 C 230.179 193.600,230.780 194.429,231.779 195.442 C 232.778 196.455,233.525 197.400,233.440 197.542 C 233.354 197.684,233.535 198.032,233.842 198.316 C 234.297 198.737,234.400 198.737,234.401 198.316 C 234.402 198.032,234.760 198.385,235.196 199.100 C 235.632 199.815,236.261 200.400,236.594 200.400 C 236.927 200.400,237.200 200.591,237.200 200.824 C 237.200 201.057,237.381 201.135,237.603 200.998 C 237.824 200.861,238.113 201.030,238.245 201.372 C 238.376 201.715,238.633 201.904,238.814 201.791 C 238.996 201.679,239.260 201.773,239.400 202.000 C 239.540 202.227,239.823 202.309,240.028 202.183 C 240.232 202.056,240.400 202.143,240.400 202.376 C 240.400 202.609,240.760 202.800,241.200 202.800 C 241.640 202.800,242.000 202.960,242.000 203.156 C 242.000 203.351,242.225 203.503,242.500 203.493 C 243.964 203.438,244.819 203.645,244.600 204.000 C 244.446 204.249,245.236 204.400,246.696 204.400 C 248.017 204.400,249.275 204.618,249.579 204.900 C 250.014 205.304,250.056 205.293,249.797 204.838 C 249.560 204.423,249.623 204.367,250.038 204.625 C 250.757 205.071,252.475 205.135,253.024 204.736 C 253.257 204.567,254.568 204.395,255.937 204.354 C 257.307 204.313,258.522 204.127,258.637 203.940 C 258.753 203.753,259.295 203.600,259.843 203.600 C 260.391 203.600,261.584 203.240,262.494 202.800 C 263.405 202.360,264.364 202.000,264.626 202.000 C 264.888 202.000,265.321 201.736,265.589 201.413 C 265.857 201.090,266.194 200.839,266.338 200.856 C 266.930 200.925,268.400 200.281,268.400 199.953 C 268.400 199.759,268.760 199.600,269.200 199.600 C 269.640 199.600,270.000 199.420,270.000 199.200 C 270.000 198.980,270.315 198.797,270.700 198.794 C 271.298 198.789,271.313 198.731,270.800 198.400 C 270.287 198.069,270.302 198.011,270.900 198.006 C 272.018 197.996,272.131 197.920,273.538 196.218 C 274.274 195.328,275.669 193.844,276.638 192.919 C 277.607 191.995,278.400 191.089,278.400 190.907 C 278.400 190.725,278.760 190.317,279.200 190.000 C 279.640 189.683,280.000 189.143,280.000 188.800 C 280.000 188.457,280.360 187.917,280.800 187.600 C 281.240 187.283,281.600 186.703,281.600 186.312 C 281.600 185.920,281.780 185.600,282.000 185.600 C 282.220 185.600,282.400 185.150,282.400 184.600 C 282.400 184.050,282.580 183.600,282.800 183.600 C 283.020 183.600,283.200 183.229,283.200 182.776 C 283.200 182.249,283.369 182.057,283.668 182.242 C 283.985 182.438,284.052 182.311,283.875 181.850 C 283.724 181.457,283.827 181.088,284.120 180.975 C 284.399 180.868,284.668 180.290,284.717 179.690 C 284.766 179.091,284.985 178.540,285.203 178.467 C 285.422 178.393,285.600 177.808,285.600 177.167 C 285.600 176.525,285.780 176.000,286.000 176.000 C 286.220 176.000,286.400 175.628,286.400 175.174 C 286.400 174.719,286.581 174.009,286.803 173.595 C 287.024 173.181,287.243 172.383,287.290 171.821 C 287.336 171.260,287.530 170.800,287.721 170.800 C 287.911 170.800,287.988 170.575,287.891 170.300 C 287.794 170.025,287.876 169.364,288.074 168.831 C 288.271 168.298,288.528 167.038,288.644 166.031 C 288.760 165.024,289.023 164.029,289.228 163.820 C 289.432 163.611,289.600 162.587,289.600 161.544 C 289.600 160.501,289.792 159.528,290.028 159.383 C 290.263 159.237,290.411 158.372,290.356 157.459 C 290.302 156.547,290.447 155.440,290.679 155.000 C 290.911 154.560,291.077 153.329,291.048 152.264 C 291.018 151.199,291.100 150.262,291.231 150.181 C 291.361 150.101,291.508 148.902,291.557 147.517 C 291.606 146.133,291.816 144.829,292.023 144.620 C 292.230 144.411,292.400 143.016,292.400 141.520 C 292.400 139.973,292.573 138.800,292.800 138.800 C 293.033 138.800,293.200 137.467,293.200 135.600 C 293.200 133.733,293.367 132.400,293.600 132.400 C 293.837 132.400,294.000 130.933,294.000 128.800 C 294.000 126.667,294.163 125.200,294.400 125.200 C 294.637 125.200,294.800 123.741,294.800 121.624 C 294.800 119.657,294.980 117.936,295.200 117.800 C 295.425 117.661,295.600 115.729,295.600 113.376 C 295.600 111.028,295.765 109.200,295.977 109.200 C 296.339 109.200,296.495 106.806,297.016 93.200 C 297.147 89.790,297.411 86.943,297.604 86.874 C 297.796 86.805,297.968 82.316,297.986 76.899 C 298.020 66.402,298.024 66.373,299.213 67.115 C 299.640 67.382,300.249 67.600,300.566 67.600 C 300.883 67.600,301.381 67.825,301.671 68.100 C 301.962 68.375,302.675 68.845,303.256 69.144 C 303.837 69.443,304.544 70.122,304.828 70.652 C 305.204 71.355,305.430 71.478,305.666 71.108 C 305.882 70.766,305.990 70.902,305.994 71.524 C 305.997 72.036,306.178 72.337,306.400 72.200 C 306.620 72.064,306.800 72.263,306.800 72.643 C 306.800 73.023,306.909 73.224,307.042 73.091 C 307.418 72.715,308.896 74.430,309.992 76.514 C 310.537 77.551,311.133 78.400,311.315 78.400 C 311.498 78.400,311.543 78.569,311.415 78.776 C 311.287 78.983,311.546 79.748,311.990 80.476 C 312.434 81.204,312.798 82.115,312.799 82.500 C 312.799 82.885,312.980 83.200,313.200 83.200 C 313.420 83.200,313.600 83.470,313.600 83.800 C 313.600 84.130,313.780 84.400,314.000 84.400 C 314.220 84.400,314.400 84.942,314.400 85.605 C 314.400 86.268,314.580 87.168,314.800 87.605 C 315.020 88.042,315.380 88.758,315.600 89.195 C 315.820 89.632,316.000 90.337,316.000 90.761 C 316.000 91.186,316.178 91.593,316.397 91.667 C 316.615 91.740,316.834 92.295,316.884 92.900 C 316.934 93.505,317.115 94.000,317.287 94.000 C 317.459 94.000,317.600 94.540,317.600 95.200 C 317.600 95.860,317.780 96.400,318.000 96.400 C 318.220 96.400,318.400 96.839,318.400 97.376 C 318.400 97.913,318.580 98.464,318.800 98.600 C 319.020 98.736,319.204 99.242,319.209 99.724 C 319.214 100.206,319.570 101.050,320.000 101.600 C 320.430 102.150,320.786 102.800,320.791 103.044 C 320.803 103.640,323.321 108.565,323.700 108.733 C 323.865 108.807,324.000 109.077,324.000 109.333 C 324.001 109.738,324.557 110.515,326.408 112.700 C 326.641 112.975,326.689 113.213,326.516 113.228 C 326.342 113.244,326.528 113.386,326.930 113.544 C 327.331 113.702,327.676 114.004,327.697 114.216 C 327.765 114.909,331.196 118.272,332.614 119.035 C 333.376 119.446,334.000 120.011,334.000 120.291 C 334.000 120.571,334.360 120.800,334.800 120.800 C 335.240 120.800,335.600 120.991,335.600 121.224 C 335.600 121.457,335.792 121.529,336.027 121.384 C 336.261 121.239,336.666 121.400,336.927 121.743 C 337.734 122.805,339.720 123.651,340.079 123.086 C 340.288 122.757,340.390 122.839,340.394 123.343 C 340.398 123.821,340.604 124.007,340.971 123.867 C 341.285 123.746,341.746 123.894,341.997 124.196 C 342.247 124.497,342.805 124.676,343.236 124.593 C 343.668 124.510,343.916 124.612,343.787 124.821 C 343.654 125.036,344.264 125.200,345.200 125.200 C 346.106 125.200,346.750 125.357,346.632 125.548 C 346.513 125.740,347.313 125.883,348.408 125.866 C 349.504 125.849,350.400 125.692,350.400 125.518 C 350.400 125.343,350.593 125.200,350.829 125.200 C 351.346 125.200,351.975 124.568,352.905 123.114 C 353.675 121.910,353.830 120.400,353.182 120.400 C 352.953 120.400,352.794 120.175,352.830 119.900 C 352.983 118.722,352.773 117.570,352.442 117.774 C 352.245 117.896,351.981 117.726,351.854 117.398 C 351.716 117.037,351.104 116.798,350.313 116.794 C 349.318 116.789,349.145 116.694,349.600 116.400 C 350.069 116.097,349.966 116.011,349.124 116.006 C 348.532 116.003,347.930 115.810,347.787 115.579 C 347.644 115.347,347.318 115.233,347.063 115.324 C 346.523 115.518,344.335 114.492,343.906 113.844 C 343.706 113.541,343.610 113.571,343.606 113.936 C 343.602 114.280,343.173 114.111,342.402 113.463 C 341.743 112.909,340.841 112.340,340.396 112.199 C 339.945 112.055,339.708 111.749,339.860 111.503 C 340.034 111.221,339.893 111.155,339.466 111.319 C 339.012 111.494,338.800 111.367,338.800 110.921 C 338.800 110.561,338.688 110.379,338.551 110.515 C 338.415 110.652,337.626 110.060,336.800 109.200 C 335.974 108.340,335.185 107.748,335.049 107.885 C 334.912 108.021,334.800 107.873,334.800 107.555 C 334.800 107.237,334.440 106.717,334.000 106.400 C 333.560 106.083,333.200 105.569,333.200 105.259 C 333.200 104.948,332.885 104.401,332.500 104.043 C 331.599 103.204,330.800 101.777,330.800 101.005 C 330.800 100.672,330.620 100.400,330.400 100.400 C 330.180 100.400,330.000 100.029,330.000 99.576 C 330.000 99.123,329.820 98.864,329.600 99.000 C 329.373 99.140,329.200 98.804,329.200 98.224 C 329.200 97.661,329.020 97.200,328.800 97.200 C 328.580 97.200,328.400 96.750,328.400 96.200 C 328.400 95.650,328.259 95.200,328.087 95.200 C 327.915 95.200,327.526 94.345,327.222 93.300 C 326.918 92.255,326.474 91.268,326.235 91.106 C 325.956 90.918,326.015 90.808,326.400 90.800 C 326.848 90.791,326.874 90.708,326.502 90.471 C 326.228 90.298,325.965 89.683,325.917 89.106 C 325.869 88.530,325.688 88.145,325.515 88.252 C 325.342 88.360,325.200 87.837,325.200 87.090 C 325.200 86.344,325.065 85.598,324.900 85.433 C 324.616 85.150,324.571 85.004,324.450 83.976 C 324.423 83.743,324.245 83.648,324.056 83.765 C 323.867 83.882,323.764 83.507,323.827 82.931 C 323.891 82.355,323.665 81.460,323.325 80.942 C 322.986 80.424,322.864 79.997,323.054 79.994 C 323.244 79.991,323.220 79.856,323.000 79.694 C 322.474 79.308,320.751 75.922,321.231 76.219 C 321.434 76.345,321.600 76.257,321.600 76.024 C 321.600 75.791,321.454 75.600,321.275 75.600 C 321.096 75.600,320.705 74.977,320.407 74.217 C 320.108 73.456,319.613 72.737,319.307 72.619 C 319.000 72.502,318.861 72.224,318.998 72.003 C 319.135 71.781,319.057 71.600,318.824 71.600 C 318.591 71.600,318.400 71.322,318.400 70.982 C 318.400 70.642,317.964 69.928,317.431 69.395 C 316.898 68.862,316.345 68.057,316.202 67.607 C 316.059 67.157,315.775 66.892,315.571 67.018 C 315.367 67.144,315.200 66.967,315.200 66.624 C 315.200 66.281,314.930 66.000,314.600 66.000 C 314.270 66.000,314.000 65.838,314.000 65.641 C 314.000 65.127,310.246 61.426,309.567 61.270 C 309.255 61.199,308.940 60.972,308.866 60.768 C 308.792 60.563,308.567 60.497,308.366 60.621 C 308.165 60.745,308.000 60.646,308.000 60.400 C 308.000 60.154,307.832 60.056,307.627 60.183 C 307.422 60.310,306.972 60.010,306.627 59.518 C 306.282 59.025,306.000 58.788,306.000 58.991 C 306.000 59.194,305.784 59.144,305.520 58.880 C 305.256 58.616,304.615 58.400,304.096 58.400 C 303.577 58.400,303.246 58.249,303.360 58.064 C 303.474 57.880,302.901 57.703,302.087 57.673 C 301.272 57.642,300.544 57.433,300.470 57.209 C 300.287 56.660,294.673 56.777,292.443 57.376 " stroke="none" fill="#9cbcdc" fill-rule="evenodd"></path><path id="path1" d="M171.600 190.863 C 171.600 191.048,171.251 191.200,170.824 191.200 C 170.397 191.200,169.936 191.380,169.800 191.600 C 169.664 191.820,169.203 192.000,168.776 192.000 C 168.349 192.000,168.000 192.191,168.000 192.424 C 168.000 192.657,167.853 192.756,167.673 192.645 C 167.493 192.534,166.458 192.877,165.373 193.409 C 164.288 193.940,163.247 194.381,163.060 194.387 C 162.874 194.394,162.154 194.652,161.460 194.960 C 160.767 195.268,159.615 195.761,158.900 196.057 C 158.185 196.353,157.600 196.701,157.600 196.831 C 157.600 196.961,157.330 197.097,157.000 197.133 C 156.670 197.170,156.130 197.230,155.800 197.267 C 155.470 197.303,155.200 197.483,155.200 197.667 C 155.200 197.850,154.840 198.000,154.400 198.000 C 153.960 198.000,153.600 198.180,153.600 198.400 C 153.600 198.620,153.240 198.800,152.800 198.800 C 152.360 198.800,152.000 198.980,152.000 199.200 C 152.000 199.420,151.460 199.600,150.800 199.600 C 150.140 199.600,149.600 199.780,149.600 200.000 C 149.600 200.220,149.240 200.400,148.800 200.400 C 148.360 200.400,148.000 200.580,148.000 200.800 C 148.000 201.020,147.640 201.200,147.200 201.200 C 146.760 201.200,146.400 201.380,146.400 201.600 C 146.400 201.820,146.128 202.000,145.795 202.000 C 145.462 202.000,144.877 202.168,144.495 202.374 C 144.113 202.579,143.215 202.983,142.500 203.271 C 141.785 203.560,141.200 203.931,141.200 204.098 C 141.200 204.264,140.795 204.406,140.300 204.413 C 139.805 204.420,139.058 204.684,138.641 205.000 C 138.224 205.316,137.729 205.480,137.541 205.364 C 137.353 205.248,137.200 205.343,137.200 205.576 C 137.200 205.809,136.840 206.000,136.400 206.000 C 135.960 206.000,135.600 206.180,135.600 206.400 C 135.600 206.620,135.240 206.800,134.800 206.800 C 134.360 206.800,134.000 206.980,134.000 207.200 C 134.000 207.420,133.550 207.600,133.000 207.600 C 132.450 207.600,132.000 207.780,132.000 208.000 C 132.000 208.220,131.746 208.400,131.435 208.400 C 130.871 208.400,124.819 210.842,123.505 211.599 C 123.123 211.820,122.538 212.000,122.205 212.000 C 121.872 212.000,121.600 212.180,121.600 212.400 C 121.600 212.620,121.150 212.800,120.600 212.800 C 120.050 212.800,119.600 212.980,119.600 213.200 C 119.600 213.420,119.240 213.600,118.800 213.600 C 118.360 213.600,118.000 213.780,118.000 214.000 C 118.000 214.220,117.565 214.400,117.033 214.400 C 116.502 214.400,116.007 214.575,115.933 214.788 C 115.860 215.002,115.400 215.237,114.910 215.311 C 114.421 215.385,113.896 215.571,113.744 215.723 C 113.591 215.875,113.137 216.000,112.733 216.000 C 112.330 216.000,112.000 216.136,112.000 216.302 C 112.000 216.469,111.415 216.840,110.700 217.129 C 109.985 217.417,109.087 217.821,108.705 218.026 C 108.323 218.232,107.738 218.400,107.405 218.400 C 107.072 218.400,106.800 218.580,106.800 218.800 C 106.800 219.020,106.361 219.200,105.824 219.200 C 105.287 219.200,104.736 219.380,104.600 219.600 C 104.464 219.820,104.003 220.000,103.576 220.000 C 103.149 220.000,102.800 220.180,102.800 220.400 C 102.800 220.620,102.440 220.800,102.000 220.800 C 101.560 220.800,101.200 220.980,101.200 221.200 C 101.200 221.420,100.761 221.600,100.224 221.600 C 99.687 221.600,99.136 221.780,99.000 222.000 C 98.864 222.220,98.403 222.400,97.976 222.400 C 97.549 222.400,97.200 222.580,97.200 222.800 C 97.200 223.020,96.649 223.200,95.976 223.200 C 95.263 223.200,94.856 223.367,95.000 223.600 C 95.136 223.820,94.887 224.000,94.447 224.000 C 94.007 224.000,93.536 224.180,93.400 224.400 C 93.264 224.620,92.724 224.800,92.200 224.800 C 91.676 224.800,91.134 224.983,90.996 225.207 C 90.858 225.430,90.590 225.517,90.400 225.400 C 90.210 225.283,89.942 225.370,89.804 225.593 C 89.666 225.817,89.135 226.000,88.625 226.000 C 88.115 226.000,87.467 226.278,87.185 226.618 C 86.903 226.958,86.453 227.153,86.186 227.050 C 85.919 226.948,85.468 227.299,85.183 227.832 C 84.898 228.364,84.515 228.800,84.332 228.800 C 83.850 228.800,83.915 239.501,84.400 239.800 C 84.630 239.942,84.800 242.063,84.800 244.800 C 84.800 247.537,84.970 249.658,85.200 249.800 C 85.433 249.944,85.600 252.204,85.600 255.224 C 85.600 258.408,85.754 260.400,86.000 260.400 C 86.243 260.400,86.400 262.192,86.400 264.976 C 86.400 267.596,86.571 269.658,86.800 269.800 C 87.030 269.942,87.200 272.063,87.200 274.800 C 87.200 277.537,87.370 279.658,87.600 279.800 C 87.830 279.942,88.000 282.063,88.000 284.800 C 88.000 287.537,88.170 289.658,88.400 289.800 C 88.632 289.943,88.800 292.145,88.800 295.047 C 88.800 298.279,88.941 299.960,89.200 299.800 C 89.450 299.645,89.600 300.474,89.600 302.010 C 89.600 303.361,89.465 304.402,89.300 304.323 C 89.135 304.243,88.235 303.826,87.300 303.395 C 86.365 302.964,85.600 302.474,85.600 302.306 C 85.600 302.138,85.060 302.000,84.400 302.000 C 83.740 302.000,83.200 301.820,83.200 301.600 C 83.200 301.380,82.570 301.200,81.800 301.200 C 81.030 301.200,80.400 301.020,80.400 300.800 C 80.400 300.552,78.259 300.400,74.776 300.400 C 71.129 300.400,69.240 300.541,69.400 300.800 C 69.549 301.042,69.004 301.200,68.024 301.200 C 67.131 301.200,66.400 301.380,66.400 301.600 C 66.400 301.820,65.950 302.000,65.400 302.000 C 64.850 302.000,64.399 302.135,64.397 302.300 C 64.393 302.659,62.456 303.600,61.720 303.600 C 61.434 303.600,61.200 303.780,61.200 304.000 C 61.200 304.220,60.930 304.400,60.600 304.400 C 60.270 304.400,60.000 304.580,60.000 304.800 C 60.000 305.020,59.730 305.200,59.400 305.200 C 59.070 305.200,58.800 305.380,58.800 305.600 C 58.800 305.820,58.606 306.000,58.369 306.000 C 58.131 306.000,57.231 306.735,56.369 307.633 C 55.506 308.531,54.800 309.136,54.800 308.978 C 54.800 308.819,54.284 309.339,53.654 310.132 C 53.024 310.925,52.394 311.460,52.254 311.321 C 52.114 311.181,52.000 311.417,52.000 311.845 C 52.000 312.273,51.640 312.883,51.200 313.200 C 50.760 313.517,50.400 314.097,50.400 314.488 C 50.400 314.880,50.220 315.200,50.000 315.200 C 49.780 315.200,49.599 315.515,49.599 315.900 C 49.598 316.285,49.238 317.189,48.799 317.910 C 48.359 318.630,48.000 319.719,48.000 320.330 C 48.000 320.940,47.837 321.611,47.639 321.820 C 46.444 323.077,46.454 336.292,47.650 337.031 C 47.843 337.150,48.000 337.681,48.000 338.211 C 48.000 338.742,48.360 339.817,48.800 340.600 C 49.240 341.383,49.600 342.289,49.600 342.612 C 49.600 342.935,49.780 343.200,50.000 343.200 C 50.220 343.200,50.400 343.560,50.400 344.000 C 50.400 344.440,50.580 344.800,50.800 344.800 C 51.020 344.800,51.200 345.052,51.200 345.359 C 51.200 346.083,56.977 352.000,57.684 352.000 C 57.981 352.000,58.483 352.360,58.800 352.800 C 59.117 353.240,59.579 353.600,59.827 353.600 C 60.074 353.600,60.890 353.912,61.639 354.293 C 63.591 355.288,65.663 355.987,66.676 355.994 C 67.158 355.997,67.655 356.165,67.779 356.367 C 68.073 356.841,78.331 356.836,78.624 356.361 C 78.747 356.162,79.467 356.000,80.224 356.000 C 80.981 356.000,81.600 355.859,81.600 355.687 C 81.600 355.515,82.087 355.334,82.682 355.285 C 83.278 355.236,83.944 355.016,84.162 354.798 C 84.381 354.579,84.884 354.400,85.280 354.400 C 85.676 354.400,86.000 354.220,86.000 354.000 C 86.000 353.780,86.332 353.600,86.738 353.600 C 87.144 353.600,87.802 353.240,88.200 352.800 C 88.598 352.360,89.093 352.000,89.301 352.000 C 89.920 352.000,95.600 346.049,95.600 345.400 C 95.600 345.070,95.780 344.800,96.000 344.800 C 96.220 344.800,96.400 344.519,96.400 344.176 C 96.400 343.833,96.580 343.664,96.800 343.800 C 97.020 343.936,97.200 343.677,97.200 343.224 C 97.200 342.771,97.380 342.400,97.600 342.400 C 97.820 342.400,98.000 341.950,98.000 341.400 C 98.000 340.850,98.141 340.400,98.313 340.400 C 98.485 340.400,98.666 339.913,98.715 339.318 C 98.764 338.722,98.984 338.056,99.202 337.838 C 99.421 337.619,99.600 336.846,99.600 336.120 C 99.600 335.394,99.780 334.800,100.000 334.800 C 100.532 334.800,100.549 313.319,100.017 313.133 C 99.805 313.059,99.608 310.728,99.575 307.900 C 99.542 305.095,99.354 302.800,99.157 302.800 C 98.961 302.800,98.800 300.550,98.800 297.800 C 98.800 294.733,98.645 292.800,98.400 292.800 C 98.154 292.800,98.000 290.800,98.000 287.600 C 98.000 284.400,97.846 282.400,97.600 282.400 C 97.356 282.400,97.200 280.541,97.200 277.624 C 97.200 274.871,97.031 272.742,96.800 272.600 C 96.569 272.458,96.400 270.329,96.400 267.576 L 96.400 262.800 97.376 262.800 C 97.913 262.800,98.464 262.620,98.600 262.400 C 98.736 262.180,99.207 262.000,99.647 262.000 C 100.087 262.000,100.336 261.820,100.200 261.600 C 100.055 261.366,100.470 261.200,101.200 261.200 C 101.930 261.200,102.345 261.034,102.200 260.800 C 102.060 260.574,102.388 260.400,102.953 260.400 C 103.503 260.400,104.064 260.220,104.200 260.000 C 104.336 259.780,104.797 259.600,105.224 259.600 C 105.651 259.600,106.000 259.420,106.000 259.200 C 106.000 258.980,106.362 258.800,106.805 258.800 C 107.248 258.800,107.923 258.621,108.305 258.403 C 109.448 257.750,113.200 256.394,113.200 256.634 C 113.200 256.757,113.485 256.573,113.832 256.225 C 114.180 255.877,114.630 255.695,114.832 255.820 C 115.035 255.945,115.200 255.896,115.200 255.711 C 115.200 255.526,116.055 255.126,117.100 254.822 C 118.145 254.518,119.090 254.164,119.200 254.035 C 119.654 253.502,121.243 252.800,121.995 252.800 C 122.438 252.800,122.800 252.620,122.800 252.400 C 122.800 252.180,123.160 252.000,123.600 252.000 C 124.040 252.000,124.400 251.820,124.400 251.600 C 124.400 251.380,124.760 251.200,125.200 251.200 C 125.640 251.200,126.000 251.059,126.000 250.887 C 126.000 250.715,126.855 250.326,127.900 250.022 C 128.945 249.718,129.890 249.364,130.000 249.235 C 130.399 248.766,132.004 248.000,132.585 248.000 C 132.913 248.000,133.770 247.641,134.490 247.201 C 135.211 246.762,136.115 246.402,136.500 246.401 C 136.885 246.401,137.200 246.220,137.200 246.000 C 137.200 245.780,137.560 245.600,138.000 245.600 C 138.440 245.600,138.800 245.420,138.800 245.200 C 138.800 244.980,139.261 244.800,139.824 244.800 C 140.404 244.800,140.740 244.627,140.600 244.400 C 140.464 244.180,140.713 244.000,141.153 244.000 C 141.593 244.000,142.064 243.820,142.200 243.600 C 142.336 243.380,142.797 243.200,143.224 243.200 C 143.651 243.200,144.000 243.020,144.000 242.800 C 144.000 242.580,144.360 242.400,144.800 242.400 C 145.240 242.400,145.600 242.243,145.600 242.050 C 145.600 241.749,147.506 241.171,148.257 241.244 C 148.397 241.257,148.621 241.107,148.755 240.909 C 148.890 240.712,150.080 240.128,151.400 239.613 C 152.720 239.097,153.971 238.523,154.180 238.338 C 154.389 238.152,154.869 238.000,155.247 238.000 C 155.624 238.000,155.993 237.865,156.067 237.700 C 156.261 237.262,159.912 235.467,160.607 235.467 C 160.933 235.467,161.200 235.317,161.200 235.133 C 161.200 234.950,161.560 234.800,162.000 234.800 C 162.440 234.800,162.801 234.665,162.803 234.500 C 162.807 234.141,164.744 233.200,165.480 233.200 C 165.766 233.200,166.000 233.020,166.000 232.800 C 166.000 232.580,166.360 232.400,166.800 232.400 C 167.240 232.400,167.600 232.220,167.600 232.000 C 167.600 231.780,167.960 231.600,168.400 231.600 C 168.840 231.600,169.200 231.420,169.200 231.200 C 169.200 230.980,169.560 230.800,170.000 230.800 C 170.440 230.800,170.800 230.620,170.800 230.400 C 170.800 230.180,171.119 230.000,171.509 230.000 C 172.502 230.000,173.200 233.267,173.200 237.912 C 173.200 240.104,173.362 241.600,173.600 241.600 C 173.843 241.600,174.000 243.392,174.000 246.176 C 174.000 248.693,174.152 250.846,174.337 250.961 C 174.522 251.075,174.815 254.191,174.989 257.885 C 175.330 265.156,175.399 266.172,175.881 271.000 C 176.317 275.376,176.146 276.950,175.272 276.579 C 170.539 274.573,157.050 274.144,154.228 275.910 C 153.993 276.057,153.620 276.215,153.400 276.260 C 152.132 276.521,148.837 277.903,149.027 278.094 C 149.152 278.218,148.612 278.532,147.827 278.791 C 147.042 279.050,146.392 279.383,146.381 279.531 C 146.371 279.679,145.473 280.430,144.386 281.200 C 143.298 281.970,142.407 282.729,142.404 282.887 C 142.402 283.044,141.770 283.803,141.000 284.573 C 140.230 285.343,139.600 286.210,139.600 286.498 C 139.600 286.787,139.240 287.283,138.800 287.600 C 138.360 287.917,138.000 288.486,138.000 288.865 C 138.000 289.243,137.820 289.664,137.600 289.800 C 137.380 289.936,137.200 290.487,137.200 291.024 C 137.200 291.561,137.020 292.000,136.800 292.000 C 136.580 292.000,136.400 292.529,136.400 293.176 C 136.400 293.823,136.220 294.464,136.000 294.600 C 135.763 294.746,135.600 297.196,135.600 300.600 C 135.600 304.004,135.763 306.454,136.000 306.600 C 136.220 306.736,136.400 307.467,136.400 308.224 C 136.400 308.981,136.580 309.600,136.800 309.600 C 137.020 309.600,137.200 310.039,137.200 310.576 C 137.200 311.113,137.380 311.664,137.600 311.800 C 137.820 311.936,138.000 312.397,138.000 312.824 C 138.000 313.251,138.180 313.600,138.400 313.600 C 138.620 313.600,138.800 313.971,138.800 314.424 C 138.800 314.877,138.980 315.136,139.200 315.000 C 139.420 314.864,139.600 315.033,139.600 315.376 C 139.600 315.719,139.780 316.000,140.000 316.000 C 140.220 316.000,140.400 316.276,140.400 316.614 C 140.400 316.952,140.805 317.674,141.300 318.218 C 143.889 321.065,145.733 322.788,146.426 323.008 C 146.852 323.143,147.200 323.410,147.200 323.600 C 147.200 323.959,148.774 324.618,149.300 324.479 C 149.465 324.436,149.600 324.580,149.600 324.800 C 149.600 325.020,150.140 325.200,150.800 325.200 C 151.460 325.200,152.000 325.380,152.000 325.600 C 152.000 325.820,152.540 326.000,153.200 326.000 C 153.860 326.000,154.400 326.180,154.400 326.400 C 154.400 326.649,156.733 326.800,160.600 326.800 C 164.467 326.800,166.800 326.649,166.800 326.400 C 166.800 326.180,167.312 326.000,167.939 326.000 C 168.565 326.000,169.653 325.713,170.356 325.362 C 171.059 325.011,171.852 324.685,172.117 324.638 C 173.307 324.424,174.400 323.915,174.400 323.573 C 174.400 323.368,174.593 323.200,174.828 323.200 C 175.918 323.200,182.400 317.785,182.400 316.874 C 182.400 316.707,182.933 315.947,183.584 315.185 C 184.235 314.423,184.775 313.485,184.784 313.100 C 184.793 312.715,184.980 312.400,185.200 312.400 C 185.420 312.400,185.600 311.950,185.600 311.400 C 185.600 310.850,185.780 310.400,186.000 310.400 C 186.220 310.400,186.400 309.860,186.400 309.200 C 186.400 308.540,186.580 308.000,186.800 308.000 C 187.020 308.000,187.200 307.226,187.200 306.280 C 187.200 305.334,187.393 304.367,187.629 304.131 C 188.232 303.528,187.439 281.769,186.785 280.982 C 186.584 280.739,186.397 278.619,186.370 276.271 C 186.343 273.922,186.169 272.000,185.984 272.000 C 185.800 272.000,185.549 269.975,185.428 267.500 C 184.863 255.965,184.725 254.175,184.375 253.820 C 184.169 253.611,184.000 251.417,184.000 248.944 C 184.000 246.377,183.828 244.341,183.600 244.200 C 183.371 244.059,183.200 242.007,183.200 239.410 C 183.200 236.888,183.030 234.807,182.819 234.733 C 182.609 234.660,182.408 232.575,182.372 230.100 C 182.336 227.625,182.148 225.600,181.954 225.600 C 181.759 225.600,181.600 223.620,181.600 221.200 C 181.600 218.533,181.442 216.800,181.200 216.800 C 180.956 216.800,180.800 214.960,180.800 212.080 C 180.800 209.484,180.632 207.189,180.426 206.980 C 180.220 206.771,179.955 204.800,179.838 202.600 C 179.483 195.970,179.152 192.800,178.814 192.800 C 178.638 192.800,178.399 192.440,178.284 192.000 C 178.169 191.560,177.788 191.200,177.437 191.200 C 177.087 191.200,176.800 191.010,176.800 190.779 C 176.800 190.519,175.807 190.390,174.200 190.442 C 172.770 190.488,171.600 190.678,171.600 190.863 " stroke="none" fill="#fc9c84" fill-rule="evenodd"></path><path id="path2" d="M196.015 43.782 C 195.749 44.103,195.637 44.536,195.766 44.745 C 195.901 44.964,195.633 45.029,195.133 44.898 C 194.436 44.716,194.317 44.806,194.528 45.356 C 194.701 45.808,194.638 45.947,194.342 45.764 C 194.033 45.573,193.951 45.884,194.080 46.761 C 194.182 47.462,194.089 48.145,193.872 48.279 C 193.634 48.426,193.605 48.315,193.800 48.000 C 194.011 47.659,193.967 47.573,193.675 47.754 C 193.428 47.907,193.250 48.670,193.279 49.451 C 193.308 50.232,193.148 50.990,192.923 51.136 C 192.698 51.281,192.574 51.760,192.649 52.200 C 192.795 53.062,192.074 55.200,191.637 55.200 C 191.490 55.200,191.346 55.517,191.317 55.904 C 191.214 57.278,190.991 57.806,190.300 58.323 C 189.915 58.610,189.603 59.060,189.606 59.323 C 189.610 59.611,189.766 59.562,190.000 59.200 C 190.213 58.870,190.391 58.803,190.394 59.051 C 190.403 59.691,189.390 60.451,188.999 60.097 C 188.819 59.933,188.792 60.010,188.940 60.268 C 189.087 60.525,188.945 60.998,188.623 61.319 C 188.302 61.641,187.924 62.362,187.784 62.923 C 187.643 63.483,187.274 64.039,186.964 64.159 C 186.654 64.278,186.400 64.732,186.400 65.168 C 186.400 65.604,186.085 66.137,185.700 66.352 C 185.315 66.567,185.045 66.846,185.100 66.972 C 185.432 67.729,185.092 68.400,184.376 68.400 C 183.923 68.400,183.664 68.580,183.800 68.800 C 183.937 69.022,183.636 69.203,183.124 69.206 C 182.442 69.211,182.345 69.304,182.751 69.561 C 183.535 70.058,182.935 70.800,181.749 70.800 C 180.924 70.800,180.792 70.944,181.003 71.610 C 181.145 72.056,181.112 72.394,180.930 72.363 C 179.449 72.105,177.978 73.609,178.774 74.568 C 179.004 74.846,179.080 75.186,178.943 75.324 C 178.525 75.741,178.380 78.740,178.765 78.979 C 178.963 79.101,179.031 78.841,178.916 78.401 C 178.801 77.960,178.811 77.600,178.938 77.600 C 179.065 77.600,179.363 78.320,179.600 79.200 C 179.853 80.140,180.272 80.800,180.615 80.800 C 180.937 80.800,181.203 81.025,181.206 81.300 C 181.211 81.661,181.310 81.646,181.562 81.247 C 181.837 80.813,181.971 80.879,182.185 81.553 C 182.335 82.025,182.626 82.308,182.832 82.180 C 183.037 82.053,183.313 82.230,183.445 82.572 C 183.576 82.915,183.826 83.108,183.999 83.000 C 184.173 82.893,184.429 83.260,184.568 83.815 C 184.707 84.370,185.266 85.211,185.811 85.684 C 186.355 86.157,186.800 86.882,186.800 87.296 C 186.800 87.709,186.980 87.936,187.200 87.800 C 187.420 87.664,187.600 87.821,187.600 88.148 C 187.600 88.475,187.876 89.019,188.214 89.357 C 188.552 89.695,188.822 90.068,188.814 90.186 C 188.758 91.025,188.852 91.215,189.210 90.994 C 189.435 90.855,189.594 90.889,189.563 91.070 C 189.394 92.041,189.668 92.800,190.187 92.800 C 190.521 92.800,190.684 93.037,190.564 93.348 C 190.449 93.650,190.639 94.006,190.987 94.140 C 191.431 94.310,191.546 94.675,191.374 95.360 C 191.203 96.044,191.438 96.793,192.157 97.850 C 192.722 98.682,193.047 99.461,192.879 99.581 C 192.494 99.857,192.506 100.639,192.900 101.033 C 193.065 101.198,193.200 102.010,193.200 102.838 C 193.200 103.666,193.435 104.581,193.722 104.871 C 194.444 105.602,194.857 106.800,194.387 106.800 C 194.174 106.800,194.000 106.999,194.000 107.243 C 194.000 107.486,194.279 107.578,194.621 107.447 C 194.976 107.311,195.137 107.378,194.998 107.604 C 194.863 107.821,195.014 108.371,195.333 108.825 C 195.651 109.280,195.810 110.045,195.686 110.526 C 195.479 111.333,195.518 111.354,196.207 110.800 C 196.639 110.453,196.827 110.411,196.653 110.700 C 196.452 111.035,196.624 111.200,197.176 111.200 C 197.629 111.200,198.000 111.404,198.000 111.654 C 198.000 112.295,201.556 111.764,202.403 110.997 C 202.767 110.668,203.214 110.534,203.397 110.699 C 203.579 110.865,203.611 110.795,203.469 110.545 C 203.326 110.295,203.460 109.882,203.767 109.627 C 204.074 109.372,204.277 108.722,204.218 108.182 C 204.156 107.615,204.317 107.200,204.600 107.200 C 204.923 107.200,205.037 106.721,204.934 105.791 C 204.824 104.793,204.957 104.315,205.390 104.149 C 205.725 104.020,205.997 103.619,205.994 103.257 C 205.989 102.687,205.937 102.679,205.600 103.200 C 205.367 103.561,205.210 103.610,205.206 103.324 C 205.203 103.062,205.356 102.751,205.546 102.633 C 205.737 102.515,205.826 101.920,205.745 101.310 C 205.663 100.699,205.702 100.425,205.831 100.700 C 206.244 101.577,206.679 101.237,206.600 100.100 C 206.557 99.495,206.789 98.689,207.115 98.309 C 207.441 97.929,207.758 97.209,207.819 96.709 C 207.881 96.209,208.249 95.080,208.639 94.200 C 209.028 93.320,209.306 92.375,209.256 92.100 C 209.206 91.825,209.422 91.600,209.736 91.600 C 210.301 91.600,210.735 90.670,211.010 88.870 C 211.177 87.774,211.958 86.727,212.403 87.002 C 212.575 87.108,212.816 86.936,212.938 86.618 C 213.092 86.216,212.953 86.104,212.480 86.251 C 212.003 86.398,212.039 86.309,212.600 85.956 C 214.023 85.059,214.458 84.491,213.896 84.264 C 213.623 84.153,213.850 84.046,214.400 84.025 C 214.950 84.005,215.220 83.856,215.000 83.694 C 214.510 83.334,214.245 82.257,214.719 82.550 C 215.060 82.760,216.166 81.701,216.285 81.049 C 216.321 80.857,216.766 80.486,217.275 80.226 C 217.784 79.966,218.176 79.454,218.146 79.089 C 218.117 78.723,218.414 78.322,218.807 78.198 C 219.199 78.073,219.634 77.520,219.772 76.969 C 219.910 76.418,220.198 76.075,220.412 76.207 C 220.625 76.339,220.800 76.177,220.800 75.847 C 220.800 75.517,220.617 75.134,220.393 74.996 C 220.170 74.858,220.116 74.535,220.275 74.279 C 220.837 73.369,220.675 72.400,219.960 72.400 C 219.572 72.400,219.146 72.059,219.014 71.643 C 218.882 71.227,218.242 70.666,217.592 70.397 C 216.942 70.127,216.509 69.748,216.629 69.554 C 216.749 69.359,216.672 69.200,216.457 69.200 C 216.242 69.200,215.963 69.425,215.837 69.700 C 215.711 69.975,215.708 69.795,215.831 69.300 C 216.008 68.585,215.884 68.400,215.227 68.400 C 214.772 68.400,214.400 68.209,214.400 67.976 C 214.400 67.743,214.220 67.664,214.000 67.800 C 213.780 67.936,213.600 67.756,213.600 67.400 C 213.600 67.044,213.440 66.851,213.245 66.972 C 212.771 67.265,211.970 66.257,211.896 65.276 C 211.857 64.761,211.634 64.566,211.253 64.712 C 210.911 64.843,210.775 64.764,210.925 64.521 C 211.066 64.293,210.794 63.768,210.322 63.353 C 209.739 62.843,209.559 62.793,209.761 63.200 C 209.925 63.530,209.776 63.451,209.430 63.024 C 209.083 62.596,208.800 62.011,208.800 61.724 C 208.800 61.436,208.575 61.197,208.300 61.194 C 207.967 61.190,208.000 61.058,208.400 60.800 C 208.800 60.542,208.833 60.410,208.500 60.406 C 208.225 60.403,208.000 60.170,208.000 59.889 C 208.000 59.608,207.644 59.073,207.208 58.700 C 206.773 58.327,206.513 57.770,206.631 57.463 C 206.749 57.155,206.569 56.797,206.230 56.667 C 205.891 56.537,205.713 56.172,205.834 55.856 C 205.955 55.540,205.862 55.162,205.627 55.017 C 205.392 54.872,205.200 54.308,205.200 53.764 C 205.200 53.220,204.956 52.681,204.657 52.567 C 204.301 52.430,204.167 51.885,204.267 50.979 C 204.380 49.955,204.265 49.600,203.822 49.600 C 203.470 49.600,203.315 49.366,203.443 49.031 C 203.563 48.718,203.461 48.088,203.217 47.631 C 202.921 47.078,202.910 46.800,203.186 46.800 C 203.414 46.800,203.600 46.519,203.600 46.176 C 203.600 45.833,203.421 45.664,203.202 45.799 C 202.983 45.934,202.596 45.591,202.343 45.035 C 202.090 44.480,201.729 44.120,201.542 44.236 C 201.354 44.352,201.200 44.246,201.200 44.000 C 201.200 43.754,201.056 43.642,200.881 43.750 C 200.705 43.858,200.315 43.795,200.014 43.609 C 199.711 43.422,199.040 43.433,198.511 43.634 C 197.887 43.871,197.640 43.859,197.801 43.599 C 198.191 42.967,196.551 43.136,196.015 43.782 M123.750 115.151 C 123.128 115.728,122.555 116.140,122.476 116.067 C 122.398 115.993,122.213 116.067,122.067 116.231 C 121.920 116.394,122.048 116.384,122.352 116.208 C 122.732 115.988,122.841 116.062,122.702 116.444 C 122.591 116.750,122.285 116.951,122.021 116.890 C 121.671 116.810,121.587 117.580,121.709 119.747 C 121.813 121.613,121.695 123.048,121.391 123.617 C 121.125 124.115,120.987 124.827,121.084 125.201 C 121.182 125.575,120.965 126.178,120.602 126.540 C 120.240 126.903,120.136 127.200,120.371 127.200 C 120.607 127.200,120.800 127.470,120.800 127.800 C 120.800 128.130,120.601 128.400,120.357 128.400 C 120.114 128.400,120.017 128.668,120.143 128.995 C 120.272 129.331,120.168 129.549,119.904 129.495 C 119.647 129.443,119.406 129.625,119.368 129.900 C 119.331 130.175,119.278 130.591,119.250 130.824 C 119.222 131.057,119.020 131.136,118.800 131.000 C 118.580 130.864,118.378 130.943,118.350 131.176 C 118.288 131.702,118.132 132.336,118.000 132.600 C 117.945 132.710,117.878 132.960,117.850 133.155 C 117.822 133.350,117.350 133.884,116.800 134.342 C 116.108 134.917,115.985 135.180,116.400 135.196 C 116.730 135.208,116.421 135.503,115.714 135.852 C 115.007 136.201,114.467 136.602,114.514 136.743 C 114.561 136.884,114.420 137.056,114.200 137.124 C 113.980 137.192,113.679 137.576,113.530 137.977 C 113.382 138.378,112.705 138.952,112.026 139.253 C 111.338 139.557,110.875 140.019,110.981 140.296 C 111.090 140.579,110.739 140.900,110.162 141.045 C 109.524 141.206,109.230 141.501,109.364 141.849 C 109.480 142.152,109.446 142.400,109.287 142.400 C 109.129 142.400,109.026 143.105,109.058 143.967 C 109.121 145.654,110.275 148.000,111.043 148.000 C 111.302 148.000,111.624 148.285,111.757 148.633 C 111.891 148.982,112.214 149.195,112.475 149.108 C 112.982 148.939,114.400 150.158,114.400 150.763 C 114.400 150.962,114.735 151.037,115.145 150.930 C 115.609 150.809,115.989 150.995,116.154 151.424 C 116.385 152.026,116.328 152.045,115.709 151.578 C 115.060 151.089,115.052 151.101,115.611 151.719 C 115.948 152.090,116.700 152.434,117.283 152.482 C 117.865 152.530,118.255 152.712,118.148 152.885 C 118.040 153.058,118.188 153.203,118.476 153.206 C 118.857 153.211,118.836 153.318,118.400 153.600 C 117.964 153.882,117.943 153.989,118.324 153.994 C 118.612 153.997,118.744 154.167,118.618 154.371 C 118.492 154.575,118.775 154.865,119.247 155.015 C 119.921 155.229,119.987 155.363,119.553 155.638 C 119.157 155.888,119.305 155.989,120.076 155.994 C 121.187 156.000,122.095 156.835,121.285 157.105 C 120.697 157.301,121.571 158.800,122.273 158.800 C 122.538 158.800,122.685 159.156,122.602 159.592 C 122.513 160.052,122.648 160.345,122.925 160.292 C 123.186 160.241,123.355 160.425,123.300 160.700 C 123.245 160.975,123.380 161.200,123.600 161.200 C 123.820 161.200,124.000 161.571,124.000 162.024 C 124.000 162.477,124.180 162.736,124.400 162.600 C 124.731 162.395,124.924 163.487,124.764 164.664 C 124.744 164.809,125.014 165.088,125.364 165.284 C 125.714 165.480,126.000 165.821,126.000 166.043 C 126.000 166.266,125.837 166.346,125.637 166.223 C 125.438 166.100,125.368 166.357,125.483 166.795 C 125.597 167.233,125.851 167.492,126.047 167.371 C 126.245 167.249,126.305 167.770,126.183 168.539 C 126.002 169.678,126.128 170.044,126.881 170.572 C 127.386 170.926,127.801 171.437,127.802 171.708 C 127.803 171.978,128.163 172.226,128.602 172.257 C 130.111 172.366,130.198 172.413,129.600 172.799 C 129.169 173.077,129.430 173.152,130.532 173.065 C 131.374 172.999,132.226 172.687,132.425 172.372 C 132.638 172.036,132.790 171.991,132.794 172.263 C 132.797 172.530,133.143 172.635,133.616 172.512 C 134.065 172.394,134.341 172.208,134.230 172.097 C 134.119 171.986,134.221 171.534,134.457 171.093 C 134.799 170.455,134.955 170.403,135.225 170.841 C 135.475 171.245,135.569 171.153,135.582 170.495 C 135.627 168.237,135.669 167.995,135.981 168.188 C 136.164 168.301,136.279 167.143,136.237 165.614 C 136.171 163.216,136.240 162.901,136.746 163.317 C 137.250 163.733,137.264 163.675,136.851 162.900 C 136.588 162.405,136.542 162.000,136.751 162.000 C 136.959 162.000,137.081 161.685,137.021 161.300 C 136.962 160.915,137.102 160.478,137.333 160.329 C 137.563 160.181,137.783 159.461,137.822 158.729 C 137.926 156.731,138.021 156.524,138.432 157.400 C 138.708 157.986,138.746 157.785,138.576 156.646 C 138.377 155.315,138.438 155.129,139.004 155.346 C 139.559 155.559,139.635 155.379,139.481 154.231 C 139.346 153.230,139.434 152.915,139.808 153.058 C 140.089 153.166,140.455 153.034,140.621 152.765 C 140.815 152.453,140.757 152.379,140.462 152.562 C 139.599 153.095,139.986 151.656,141.000 150.562 C 141.550 149.969,142.027 149.284,142.061 149.042 C 142.094 148.799,142.164 148.420,142.215 148.200 C 142.266 147.980,142.328 147.585,142.354 147.323 C 142.379 147.060,142.930 146.532,143.578 146.149 C 144.226 145.766,144.666 145.306,144.555 145.127 C 144.444 144.947,144.654 144.800,145.023 144.800 C 145.496 144.800,145.632 144.565,145.484 144.000 C 145.348 143.480,145.472 143.200,145.837 143.200 C 146.491 143.200,146.629 140.989,146.000 140.600 C 145.780 140.464,145.600 140.023,145.600 139.619 C 145.600 139.216,145.304 138.772,144.943 138.633 C 144.581 138.495,144.386 138.280,144.510 138.157 C 144.935 137.731,143.480 136.469,142.730 136.614 C 142.317 136.693,142.085 136.586,142.215 136.376 C 142.466 135.969,141.427 134.707,141.105 135.029 C 141.000 135.134,140.663 134.910,140.357 134.533 C 139.998 134.091,139.976 133.952,140.295 134.144 C 140.635 134.348,140.714 134.241,140.546 133.804 C 140.411 133.453,140.205 133.262,140.086 133.380 C 139.968 133.498,139.618 133.233,139.309 132.791 C 138.999 132.348,138.578 132.090,138.373 132.217 C 138.168 132.344,138.000 132.066,138.000 131.600 C 138.000 131.134,137.820 130.864,137.600 131.000 C 137.380 131.136,137.200 130.967,137.200 130.624 C 137.200 130.281,137.020 130.000,136.800 130.000 C 136.580 130.000,136.400 129.719,136.400 129.376 C 136.400 129.033,136.250 128.845,136.068 128.958 C 135.885 129.071,135.494 128.549,135.199 127.799 C 134.905 127.048,134.424 126.341,134.132 126.229 C 133.839 126.117,133.600 125.749,133.600 125.413 C 133.600 125.076,133.390 124.800,133.133 124.800 C 132.877 124.800,132.780 124.686,132.919 124.547 C 133.058 124.408,132.960 123.913,132.701 123.447 C 132.442 122.981,132.268 122.465,132.315 122.300 C 132.362 122.135,132.192 122.045,131.937 122.100 C 131.633 122.165,131.483 121.543,131.502 120.298 C 131.519 119.243,131.369 118.496,131.166 118.621 C 130.965 118.745,130.800 118.487,130.800 118.047 C 130.800 117.607,130.620 117.136,130.400 117.000 C 130.180 116.864,130.000 116.481,130.000 116.148 C 130.000 115.309,129.154 114.578,128.200 114.592 C 127.760 114.599,126.833 114.492,126.141 114.354 C 125.129 114.152,124.659 114.309,123.750 115.151 M267.310 251.820 C 266.977 252.176,266.983 252.433,267.330 252.809 C 267.690 253.198,267.689 253.255,267.328 253.052 C 266.810 252.761,266.224 253.457,266.192 254.400 C 266.181 254.730,265.973 255.360,265.731 255.800 C 265.224 256.722,265.146 258.800,265.619 258.800 C 265.795 258.800,265.683 259.313,265.370 259.940 C 265.057 260.568,264.763 261.545,264.716 262.112 C 264.669 262.678,264.476 263.047,264.288 262.931 C 264.100 262.815,263.847 263.098,263.726 263.560 C 263.606 264.022,263.303 264.403,263.053 264.406 C 262.804 264.409,262.870 264.587,263.200 264.800 C 263.694 265.119,263.700 265.189,263.233 265.194 C 262.922 265.197,262.788 265.322,262.937 265.470 C 263.086 265.619,262.837 266.134,262.385 266.616 C 261.933 267.097,261.617 267.740,261.682 268.045 C 261.752 268.373,261.502 268.575,261.073 268.540 C 260.642 268.504,260.423 268.683,260.535 268.976 C 260.781 269.617,260.173 270.600,259.531 270.600 C 259.256 270.600,258.620 271.212,258.116 271.959 C 257.612 272.707,257.200 273.104,257.200 272.841 C 257.200 272.578,256.738 272.825,256.174 273.389 C 255.610 273.954,254.993 274.319,254.803 274.202 C 254.613 274.084,254.343 274.351,254.202 274.794 C 254.061 275.237,253.797 275.600,253.616 275.600 C 253.434 275.600,253.178 275.879,253.047 276.221 C 252.911 276.577,252.978 276.737,253.205 276.597 C 253.422 276.463,253.600 276.543,253.600 276.776 C 253.600 277.009,253.446 277.200,253.257 277.200 C 253.069 277.200,252.914 278.001,252.914 278.981 C 252.914 279.960,253.024 280.749,253.157 280.734 C 253.932 280.643,254.388 280.859,254.300 281.276 C 254.245 281.537,255.027 282.212,256.038 282.776 C 257.059 283.345,257.799 284.022,257.704 284.300 C 257.603 284.597,257.760 284.713,258.090 284.587 C 258.733 284.340,260.525 285.741,260.105 286.162 C 259.951 286.316,260.165 286.312,260.582 286.152 C 261.187 285.919,261.286 285.999,261.074 286.551 C 260.928 286.931,260.961 287.148,261.146 287.034 C 261.660 286.716,262.828 287.723,262.975 288.611 C 263.047 289.045,263.301 289.357,263.539 289.305 C 263.787 289.250,263.863 289.491,263.718 289.870 C 263.547 290.314,263.618 290.436,263.932 290.242 C 264.216 290.067,264.400 290.208,264.400 290.600 C 264.400 290.956,264.580 291.136,264.800 291.000 C 265.160 290.778,265.373 291.303,265.247 292.100 C 265.221 292.265,265.425 292.355,265.700 292.300 C 265.975 292.245,266.150 292.501,266.089 292.870 C 266.029 293.238,266.191 293.671,266.451 293.832 C 266.768 294.027,266.817 293.951,266.600 293.600 C 266.396 293.270,266.433 293.173,266.701 293.339 C 266.934 293.483,267.031 293.961,266.916 294.400 C 266.799 294.847,266.904 295.200,267.153 295.200 C 267.399 295.200,267.600 295.524,267.600 295.920 C 267.600 296.316,267.825 296.882,268.100 297.179 C 268.500 297.610,268.500 297.661,268.100 297.435 C 267.825 297.280,267.600 297.343,267.600 297.576 C 267.600 297.809,267.780 298.000,268.000 298.000 C 268.220 298.000,268.400 298.324,268.400 298.720 C 268.400 299.116,268.571 299.611,268.781 299.821 C 268.990 300.030,269.207 300.876,269.263 301.701 C 269.318 302.525,269.507 303.200,269.682 303.200 C 269.857 303.200,270.000 303.481,270.000 303.824 C 270.000 304.167,269.820 304.336,269.600 304.200 C 269.380 304.064,269.200 304.143,269.200 304.376 C 269.200 304.609,269.367 304.800,269.572 304.800 C 269.777 304.800,270.002 305.205,270.072 305.700 C 270.156 306.285,270.454 306.579,270.927 306.540 C 271.326 306.507,271.553 306.580,271.430 306.703 C 271.074 307.059,272.049 308.017,272.490 307.744 C 272.710 307.609,273.030 307.724,273.201 308.001 C 273.568 308.596,276.400 308.204,276.400 307.558 C 276.400 307.335,276.571 307.258,276.780 307.388 C 277.236 307.669,278.090 306.223,277.698 305.831 C 277.548 305.681,277.734 305.676,278.112 305.822 C 278.547 305.988,278.819 305.886,278.851 305.543 C 278.879 305.244,278.945 304.591,278.997 304.090 C 279.049 303.590,278.927 303.079,278.726 302.955 C 278.522 302.828,278.590 302.446,278.881 302.088 C 279.169 301.731,279.199 301.567,278.947 301.718 C 278.648 301.897,278.510 301.595,278.541 300.829 C 278.567 300.191,278.712 299.745,278.862 299.838 C 279.012 299.931,279.121 299.330,279.103 298.504 C 279.041 295.592,279.198 294.352,279.600 294.600 C 279.839 294.747,280.000 294.263,280.000 293.400 C 280.000 292.408,280.145 292.043,280.462 292.238 C 280.718 292.396,280.816 292.350,280.682 292.133 C 280.550 291.918,280.691 291.261,280.997 290.671 C 281.302 290.082,281.428 289.595,281.276 289.588 C 281.124 289.581,281.315 289.392,281.700 289.168 C 282.085 288.944,282.400 288.499,282.400 288.180 C 282.400 287.861,282.625 287.597,282.900 287.594 C 283.285 287.589,283.281 287.512,282.881 287.259 C 282.473 287.000,282.511 286.809,283.058 286.365 C 283.664 285.873,283.710 285.878,283.418 286.400 C 283.233 286.730,283.478 286.593,283.962 286.095 C 284.445 285.597,284.731 285.012,284.597 284.795 C 284.463 284.578,284.654 284.400,285.023 284.400 C 285.519 284.400,285.634 284.165,285.467 283.500 C 285.243 282.613,285.249 282.611,285.874 283.400 C 286.434 284.107,286.478 284.114,286.253 283.464 C 285.896 282.436,286.455 281.641,286.841 282.627 C 287.130 283.364,287.145 283.361,287.172 282.568 C 287.187 282.108,287.648 281.495,288.200 281.200 C 288.750 280.906,289.200 280.371,289.200 280.012 C 289.200 279.654,289.411 279.149,289.669 278.891 C 290.256 278.304,290.369 276.434,289.812 276.529 C 289.585 276.568,289.414 276.195,289.432 275.700 C 289.450 275.184,289.227 274.800,288.908 274.800 C 288.603 274.800,288.456 274.633,288.582 274.429 C 288.709 274.224,288.404 273.999,287.906 273.929 C 287.408 273.858,287.032 273.620,287.071 273.400 C 287.174 272.827,285.959 271.578,285.547 271.833 C 285.356 271.951,285.200 271.767,285.200 271.424 C 285.200 271.081,284.962 270.800,284.672 270.800 C 284.382 270.800,283.753 270.350,283.275 269.800 C 282.797 269.250,282.224 268.800,282.003 268.800 C 281.781 268.800,281.600 268.434,281.600 267.987 C 281.600 267.541,281.315 267.066,280.968 266.932 C 280.594 266.789,280.414 266.391,280.527 265.959 C 280.632 265.556,280.601 265.243,280.459 265.261 C 279.424 265.396,279.016 265.177,279.600 264.800 C 280.108 264.472,280.089 264.411,279.473 264.406 C 278.915 264.401,278.809 264.203,279.016 263.550 C 279.197 262.978,279.141 262.789,278.843 262.974 C 278.460 263.210,278.301 262.728,278.436 261.736 C 278.456 261.591,278.186 261.312,277.836 261.116 C 277.486 260.920,277.200 260.489,277.200 260.157 C 277.200 259.802,277.009 259.671,276.738 259.838 C 276.446 260.019,276.385 259.948,276.573 259.644 C 276.736 259.381,276.628 258.868,276.334 258.506 C 275.897 257.966,275.896 257.904,276.330 258.165 C 276.934 258.529,276.109 256.825,275.448 256.344 C 275.254 256.203,275.043 255.422,274.978 254.608 C 274.839 252.850,274.509 252.407,273.941 253.212 C 273.590 253.707,273.558 253.695,273.735 253.138 C 274.259 251.493,268.684 250.349,267.310 251.820 " stroke="none" fill="#fccc84" fill-rule="evenodd"></path><path id="path3" d="M189.781 58.725 C 189.951 59.026,189.769 59.624,189.354 60.125 C 188.646 60.981,188.651 60.980,189.599 60.104 C 190.408 59.358,190.479 59.125,190.026 58.704 C 189.587 58.297,189.540 58.301,189.781 58.725 M184.493 67.600 C 184.083 68.256,184.093 68.400,184.550 68.400 C 184.856 68.400,185.201 68.040,185.316 67.600 C 185.431 67.160,185.405 66.800,185.259 66.800 C 185.112 66.800,184.768 67.160,184.493 67.600 M219.772 76.969 C 219.634 77.520,219.176 78.081,218.754 78.214 C 218.333 78.348,218.099 78.636,218.234 78.855 C 218.531 79.336,220.000 78.103,220.000 77.371 C 220.000 77.094,220.216 76.795,220.480 76.707 C 220.845 76.585,220.848 76.477,220.492 76.257 C 220.197 76.075,219.930 76.339,219.772 76.969 M216.217 80.772 C 215.829 81.400,216.567 81.552,217.116 80.958 C 217.539 80.500,217.526 80.400,217.039 80.400 C 216.714 80.400,216.344 80.568,216.217 80.772 M211.727 87.300 C 211.523 87.575,211.136 88.340,210.867 89.000 L 210.378 90.200 211.162 89.206 C 211.593 88.659,211.869 88.136,211.776 88.043 C 211.683 87.950,211.807 87.632,212.052 87.337 C 212.297 87.042,212.408 86.800,212.298 86.800 C 212.188 86.800,211.931 87.025,211.727 87.300 M192.019 98.200 C 192.009 98.794,192.723 99.810,192.974 99.559 C 193.094 99.440,192.929 98.995,192.609 98.571 C 192.288 98.147,192.022 97.980,192.019 98.200 M125.200 114.055 C 125.200 114.195,125.721 114.386,126.359 114.479 C 127.148 114.595,127.458 114.496,127.333 114.169 C 127.147 113.684,125.201 113.580,125.200 114.055 M123.024 115.013 C 122.596 115.336,122.416 115.606,122.624 115.613 C 122.831 115.620,122.674 115.872,122.276 116.174 C 121.847 116.499,121.717 116.825,121.956 116.973 C 122.178 117.110,122.578 116.812,122.845 116.311 C 123.112 115.810,123.616 115.181,123.965 114.913 C 124.314 114.645,124.420 114.425,124.200 114.425 C 123.980 114.425,123.451 114.690,123.024 115.013 M143.295 146.266 C 142.442 146.610,141.863 148.000,142.573 148.000 C 142.944 148.000,143.086 147.769,142.945 147.400 C 142.799 147.020,142.950 146.800,143.357 146.800 C 143.711 146.800,144.000 146.620,144.000 146.400 C 144.000 146.180,143.955 146.014,143.900 146.032 C 143.845 146.049,143.573 146.155,143.295 146.266 M140.288 151.333 C 139.842 152.466,139.915 153.045,140.438 152.522 C 140.678 152.282,140.808 151.751,140.726 151.342 C 140.582 150.626,140.566 150.626,140.288 151.333 M117.219 153.023 C 117.482 153.340,117.991 153.586,118.349 153.568 C 118.767 153.548,118.820 153.464,118.498 153.334 C 118.221 153.223,118.074 153.004,118.170 152.849 C 118.266 152.693,117.983 152.539,117.542 152.506 C 116.886 152.456,116.827 152.551,117.219 153.023 M120.505 156.676 C 120.877 157.048,121.293 157.240,121.431 157.103 C 121.824 156.709,121.220 156.000,120.491 156.000 C 119.880 156.000,119.881 156.053,120.505 156.676 M136.681 162.666 C 136.827 163.047,136.772 163.230,136.551 163.093 C 136.339 162.962,136.139 163.248,136.106 163.728 C 136.048 164.579,136.061 164.581,136.623 163.824 C 137.285 162.933,137.381 162.000,136.813 162.000 C 136.599 162.000,136.540 162.300,136.681 162.666 M279.700 265.232 C 280.085 265.456,280.414 265.946,280.432 266.320 C 280.452 266.758,280.537 266.817,280.669 266.487 C 280.909 265.891,280.111 264.794,279.451 264.812 C 279.203 264.819,279.315 265.008,279.700 265.232 M281.600 268.095 C 281.600 268.436,281.896 268.828,282.257 268.967 C 283.242 269.345,283.304 269.018,282.402 268.202 C 281.724 267.588,281.600 267.572,281.600 268.095 M259.833 269.857 C 259.452 270.850,259.872 270.986,260.382 270.034 C 260.627 269.575,260.661 269.200,260.457 269.200 C 260.253 269.200,259.972 269.496,259.833 269.857 M286.146 282.598 C 286.019 282.926,285.727 283.079,285.496 282.936 C 285.257 282.788,285.195 282.867,285.351 283.121 C 285.709 283.700,286.800 283.276,286.800 282.557 C 286.800 281.823,286.434 281.846,286.146 282.598 M261.381 287.177 C 263.161 289.004,263.417 289.152,262.800 288.000 C 262.565 287.560,262.204 287.200,261.998 287.200 C 261.793 287.200,261.726 286.885,261.850 286.500 C 262.040 285.909,262.008 285.894,261.644 286.400 C 261.401 286.738,261.210 286.800,261.206 286.543 C 261.203 286.291,260.885 285.966,260.500 285.819 C 260.115 285.673,260.512 286.284,261.381 287.177 M278.574 301.189 C 278.609 303.271,279.099 303.660,279.127 301.627 C 279.140 300.741,279.014 299.932,278.848 299.830 C 278.683 299.727,278.559 300.339,278.574 301.189 " stroke="none" fill="#fccc8c" fill-rule="evenodd"></path><path id="path4" d="M232.370 196.547 C 233.452 197.723,233.666 197.838,233.380 197.091 C 233.272 196.812,232.783 196.338,232.292 196.039 C 231.441 195.520,231.445 195.544,232.370 196.547 " stroke="none" fill="#b0b8e0" fill-rule="evenodd"></path></g></svg>