<?xml version="1.0" encoding="UTF-8"?>
<svg version="1.1" xmlns="http://www.w3.org/2000/svg" width="512" height="512">
<path d="M0 0 C7.84362523 5.80666353 13.41613442 14.63308538 15.9453125 24.05859375 C16.45502839 27.70708647 16.67846788 31.35044968 16.87890625 35.02734375 C16.92208984 35.76791016 16.96527344 36.50847656 17.00976562 37.27148438 C17.11511057 39.08575839 17.21618941 40.90027925 17.31640625 42.71484375 C17.91066406 42.2559375 18.50492188 41.79703125 19.1171875 41.32421875 C30.60448977 32.82039934 42.99466937 29.06722116 57.2421875 31.140625 C68.49041782 33.51865554 76.83638302 38.93258327 83.6640625 48.17578125 C90.63346996 58.88527262 92.48195877 70.14831635 90.31640625 82.71484375 C89.34010322 85.967501 88.01030587 88.77766524 86.31640625 91.71484375 C85.89359375 92.46378906 85.47078125 93.21273437 85.03515625 93.984375 C78.45102309 104.72016991 68.38612711 112.41982923 56.10546875 115.52734375 C53.51100098 116.00755372 50.93730668 116.41560709 48.31640625 116.71484375 C49.40308594 117.42447266 49.40308594 117.42447266 50.51171875 118.1484375 C59.44413536 124.25821046 64.86575914 130.00420304 67.31640625 140.71484375 C68.99806484 156.56973656 66.39301917 169.52638691 56.4921875 182.3359375 C49.57557642 189.89826451 40.27683092 194.01880128 30.19140625 195.02734375 C22.13203885 194.37739477 14.97469137 191.51113582 9.31640625 185.71484375 C7.84568451 183.76463907 6.58344047 181.81032343 5.31640625 179.71484375 C5.12046875 180.52566406 4.92453125 181.33648437 4.72265625 182.171875 C1.74502147 193.19682445 -3.82390366 203.39304246 -13.68359375 209.71484375 C-25.36178601 215.82010951 -38.14724827 218.10747331 -51.12109375 214.58984375 C-62.60855617 210.37712409 -71.23033869 203.32184775 -76.55859375 192.21484375 C-80.25346624 183.24513646 -80.97828341 175.3904876 -80.68359375 165.71484375 C-81.30234375 166.29492188 -81.30234375 166.29492188 -81.93359375 166.88671875 C-91.14198471 175.19071417 -100.6993176 178.25656376 -113.1171875 178.01953125 C-122.94107873 177.18025029 -130.19811629 173.07638369 -136.68359375 165.71484375 C-143.07460803 156.84731144 -145.78793906 146.55609278 -144.68359375 135.71484375 C-142.95102683 125.45992062 -137.00810574 116.82928336 -129.05859375 110.24609375 C-124.31733827 107.18923167 -119.01063018 105.47950718 -113.68359375 103.71484375 C-112.56210938 103.33972656 -111.440625 102.96460938 -110.28515625 102.578125 C-108.99738281 102.15080078 -108.99738281 102.15080078 -107.68359375 101.71484375 C-108.77027344 100.97041016 -108.77027344 100.97041016 -109.87890625 100.2109375 C-119.15208804 93.69498177 -127.54596691 86.43145877 -129.68359375 74.71484375 C-130.54341371 61.1550601 -129.36418282 50.65261364 -120.15625 39.9375 C-114.77558181 34.16639783 -108.30133034 30.03787349 -100.27734375 29.4765625 C-88.04433098 29.14309874 -77.95159439 31.04158112 -68.68359375 39.71484375 C-68.35359375 40.37484375 -68.02359375 41.03484375 -67.68359375 41.71484375 C-67.6578125 40.68746094 -67.63203125 39.66007812 -67.60546875 38.6015625 C-67.09835227 24.54184328 -64.04176779 12.82444756 -53.58203125 2.67578125 C-38.01670918 -10.24948619 -16.81857485 -10.76494071 0 0 Z " fill="#FBAFA3" transform="translate(299.68359375,51.28515625)"/>
<path d="M0 0 C1.134375 0.144375 2.26875 0.28875 3.4375 0.4375 C5.68696156 3.81169234 5.64260546 4.34110445 5.25 8.1875 C5.14300781 9.24453125 5.03601563 10.3015625 4.92578125 11.390625 C4.20582155 17.53981513 3.38574965 23.67820732 2.54223633 29.81152344 C-3.73557558 76.07911629 1.87263405 124.15893482 12.4375 169.4375 C12.7675 169.7675 13.0975 170.0975 13.4375 170.4375 C13.68806152 169.70974365 13.93862305 168.9819873 14.19677734 168.23217773 C21.89956658 145.97443551 30.51103446 124.34030365 41.4375 103.4375 C41.94796875 102.4475 42.4584375 101.4575 42.984375 100.4375 C52.23309753 82.93454124 65.60927923 61.93295163 85.4375 55.4375 C97.85352181 51.81268826 111.4145538 52.22594095 123.19921875 57.7265625 C132.0545573 62.67708061 137.08706597 68.89490256 140.4375 78.4375 C143.98953276 92.94163376 138.78917889 106.97482444 131.62939453 119.47949219 C111.03972103 153.30357688 74.12573857 174.61832077 36.5 183.8125 C29.53036467 185.4212541 22.59153751 186.18866391 15.4375 186.4375 C15.128125 187.241875 14.81875 188.04625 14.5 188.875 C13.4375 191.4375 13.4375 191.4375 12.4375 192.4375 C9.5625 192.75 9.5625 192.75 6.4375 192.4375 C6.03595703 191.78523437 5.63441406 191.13296875 5.22070312 190.4609375 C3.50072494 188.08114405 3.50072494 188.08114405 0.03710938 187.86328125 C-1.38087584 187.80648435 -2.79977086 187.77015367 -4.21875 187.75 C-5.36750107 187.70864677 -5.36750107 187.70864677 -6.53945923 187.66645813 C-8.18753545 187.60727616 -9.83590171 187.55577432 -11.48443604 187.51113892 C-15.83311219 187.38692485 -20.17794219 187.18586796 -24.5234375 186.98046875 C-25.82352249 186.91946236 -25.82352249 186.91946236 -27.14987183 186.85722351 C-67.82068872 184.81720143 -124.20883453 173.34153513 -153.5625 142.4375 C-160.65326269 134.2831229 -165.48815741 123.75946495 -164.8828125 112.7421875 C-162.64017931 96.60616823 -155.69569311 85.06040874 -143.25 74.625 C-130.49575531 65.23645877 -114.46257489 62.86927308 -99.03515625 64.90234375 C-66.05597054 70.75069882 -42.19788889 92.31617848 -22.5625 118.4375 C-21.85222656 119.36433594 -21.14195312 120.29117188 -20.41015625 121.24609375 C-16.53743161 126.40717035 -13.10874713 131.74222426 -9.8203125 137.28515625 C-9.4085376 137.9754895 -8.9967627 138.66582275 -8.57250977 139.3770752 C-7.56734956 141.06279742 -6.56466769 142.74999701 -5.5625 144.4375 C-5.70349121 143.48834717 -5.84448242 142.53919434 -5.98974609 141.5612793 C-12.2074172 99.4509164 -14.5918027 58.90122713 -8.625 16.5625 C-8.46741211 15.40903076 -8.30982422 14.25556152 -8.14746094 13.06713867 C-7.98665039 11.99568604 -7.82583984 10.9242334 -7.66015625 9.8203125 C-7.52101807 8.87559082 -7.38187988 7.93086914 -7.23852539 6.95751953 C-6.00342854 2.35344959 -4.80738578 0.59038071 0 0 Z " fill="#91B398" transform="translate(251.5625,280.5625)"/>
<path d="M0 0 C4.3183198 3.59859983 8.63357956 7.83441571 10.625 13.1875 C11.81981671 26.55277529 10.23313284 36.58856634 1.4765625 47.15234375 C-5.98790889 55.35696315 -14.7232807 60.386052 -25.91796875 61.55859375 C-37.06089602 61.76162672 -45.4596959 59.64259277 -54.25 52.625 C-60.86740116 46.18840215 -64.67720829 38.78373763 -64.9375 29.5 C-64.39145527 19.54061901 -61.39637849 12.3712225 -54.375 5.1875 C-51.51501422 2.90448526 -48.5454088 1.0075495 -45.375 -0.8125 C-44.446875 -1.39 -43.51875 -1.9675 -42.5625 -2.5625 C-28.43109357 -8.10422801 -13.26596405 -7.12431403 0 0 Z " fill="#FDCE87" transform="translate(297.375,131.8125)"/>
</svg>
