<svg id="svg" version="1.1" xmlns="http://www.w3.org/2000/svg" xmlns:xlink="http://www.w3.org/1999/xlink" width="400" height="400" viewBox="0, 0, 400,400"><g id="svgg"><path id="path0" d="M193.813 23.621 C 193.954 23.849,192.615 24.000,190.447 24.000 C 188.467 24.000,186.751 24.156,186.633 24.347 C 186.515 24.538,185.109 24.805,183.509 24.940 C 180.394 25.205,175.606 26.054,173.000 26.805 C 172.120 27.058,170.860 27.353,170.200 27.460 C 169.540 27.567,168.640 27.797,168.200 27.972 C 166.564 28.621,164.523 29.200,163.872 29.200 C 163.502 29.200,163.200 29.380,163.200 29.600 C 163.200 29.820,162.761 30.000,162.224 30.000 C 161.687 30.000,161.136 30.180,161.000 30.400 C 160.864 30.620,160.418 30.800,160.010 30.800 C 159.601 30.800,159.207 30.978,159.133 31.197 C 159.060 31.415,158.505 31.634,157.900 31.684 C 157.295 31.734,156.800 31.871,156.800 31.990 C 156.800 32.108,156.215 32.440,155.500 32.729 C 154.785 33.017,153.887 33.421,153.505 33.626 C 153.123 33.832,152.448 34.000,152.005 34.000 C 151.562 34.000,151.200 34.180,151.200 34.400 C 151.200 34.620,150.840 34.800,150.400 34.800 C 149.960 34.800,149.600 34.980,149.600 35.200 C 149.600 35.420,149.240 35.600,148.800 35.600 C 148.360 35.600,147.999 35.735,147.997 35.900 C 147.993 36.259,146.056 37.200,145.320 37.200 C 145.034 37.200,144.800 37.380,144.800 37.600 C 144.800 37.820,144.530 38.000,144.200 38.000 C 143.870 38.000,143.600 38.180,143.600 38.400 C 143.600 38.620,143.240 38.800,142.800 38.800 C 142.360 38.800,142.000 38.980,142.000 39.200 C 142.000 39.420,141.640 39.600,141.200 39.600 C 140.760 39.600,140.400 39.780,140.400 40.000 C 140.400 40.220,140.040 40.400,139.600 40.400 C 139.160 40.400,138.800 40.580,138.800 40.800 C 138.800 41.020,138.440 41.200,138.000 41.200 C 137.560 41.200,137.200 41.359,137.200 41.553 C 137.200 41.748,136.885 42.014,136.500 42.146 C 136.115 42.278,134.900 42.925,133.800 43.584 C 132.700 44.244,131.170 45.151,130.400 45.601 C 127.002 47.586,125.954 48.267,124.717 49.293 C 123.993 49.894,123.215 50.389,122.988 50.393 C 122.762 50.397,122.317 50.760,122.000 51.200 C 121.683 51.640,121.143 52.000,120.800 52.000 C 120.457 52.000,119.917 52.360,119.600 52.800 C 119.283 53.240,118.838 53.605,118.612 53.611 C 118.385 53.618,117.397 54.338,116.414 55.211 C 115.432 56.085,114.437 56.800,114.203 56.800 C 113.968 56.800,113.512 57.174,113.188 57.631 C 112.865 58.089,111.701 59.124,110.602 59.931 C 108.473 61.496,98.584 71.192,99.096 71.212 C 99.263 71.219,99.085 71.408,98.700 71.632 C 98.315 71.856,98.000 72.219,98.000 72.438 C 98.000 72.657,97.563 73.273,97.029 73.807 C 96.495 74.341,95.736 75.323,95.343 75.989 C 94.949 76.655,94.486 77.200,94.314 77.200 C 94.141 77.200,94.000 77.384,94.000 77.608 C 94.000 77.832,93.550 78.729,93.000 79.600 C 92.450 80.471,92.000 81.458,92.000 81.792 C 92.000 82.126,91.820 82.400,91.600 82.400 C 91.380 82.400,91.200 82.760,91.200 83.200 C 91.200 83.640,91.020 84.000,90.800 84.000 C 90.580 84.000,90.400 84.360,90.400 84.800 C 90.400 85.240,90.220 85.600,90.000 85.600 C 89.780 85.600,89.600 85.960,89.600 86.400 C 89.600 86.840,89.420 87.200,89.200 87.200 C 88.980 87.200,88.800 87.560,88.800 88.000 C 88.800 88.440,88.620 88.800,88.400 88.800 C 88.180 88.800,88.000 89.160,88.000 89.600 C 88.000 90.040,87.820 90.400,87.600 90.400 C 87.380 90.400,87.200 90.760,87.200 91.200 C 87.200 91.640,87.020 92.000,86.800 92.000 C 86.580 92.000,86.400 92.362,86.400 92.805 C 86.400 93.248,86.220 93.968,86.000 94.405 C 85.116 96.162,84.912 96.676,84.380 98.500 C 84.075 99.545,83.685 100.400,83.513 100.400 C 83.341 100.400,83.200 100.929,83.200 101.576 C 83.200 102.223,83.020 102.864,82.800 103.000 C 82.580 103.136,82.400 103.687,82.400 104.224 C 82.400 104.761,82.220 105.200,82.000 105.200 C 81.780 105.200,81.600 105.740,81.600 106.400 C 81.600 107.060,81.458 107.600,81.285 107.600 C 81.112 107.600,80.926 108.182,80.872 108.893 C 80.817 109.605,80.599 110.361,80.387 110.573 C 80.174 110.786,80.000 111.554,80.000 112.280 C 80.000 113.006,79.820 113.600,79.600 113.600 C 79.380 113.600,79.200 113.957,79.200 114.394 C 79.200 115.427,78.405 118.803,77.953 119.695 C 77.759 120.077,77.600 121.082,77.600 121.928 C 77.600 122.774,77.480 123.587,77.332 123.734 C 77.185 123.882,77.000 124.587,76.922 125.301 C 76.709 127.226,76.603 127.757,76.340 128.200 C 76.209 128.420,75.958 130.130,75.781 132.000 C 75.605 133.870,75.376 136.120,75.272 137.000 C 74.727 141.642,75.120 159.300,75.793 160.389 C 75.904 160.568,76.081 161.408,76.187 162.257 C 76.490 164.678,78.389 170.648,79.922 174.000 C 80.375 174.990,80.974 176.475,81.253 177.300 C 81.532 178.125,81.905 178.800,82.080 178.800 C 82.256 178.800,82.400 179.235,82.400 179.767 C 82.400 180.298,82.535 180.793,82.700 180.867 C 82.865 180.940,83.433 181.855,83.963 182.900 C 84.492 183.945,85.077 184.800,85.263 184.800 C 85.448 184.800,85.600 185.160,85.600 185.600 C 85.600 186.040,85.780 186.400,86.000 186.400 C 86.220 186.400,86.400 186.670,86.400 187.000 C 86.400 187.330,86.580 187.600,86.800 187.600 C 87.020 187.600,87.200 187.870,87.200 188.200 C 87.200 188.530,87.380 188.800,87.600 188.800 C 87.820 188.800,88.000 189.070,88.000 189.400 C 88.000 189.730,88.180 190.000,88.400 190.000 C 88.620 190.000,88.800 190.270,88.800 190.600 C 88.800 190.930,88.980 191.200,89.200 191.200 C 89.420 191.200,89.600 191.430,89.600 191.712 C 89.600 191.993,89.960 192.483,90.400 192.800 C 90.840 193.117,91.200 193.573,91.200 193.813 C 91.200 194.053,91.515 194.598,91.900 195.025 C 92.285 195.451,93.132 196.583,93.782 197.539 C 95.773 200.470,104.361 208.782,105.412 208.795 C 105.638 208.798,106.083 209.160,106.400 209.600 C 106.717 210.040,107.257 210.400,107.600 210.400 C 107.943 210.400,108.483 210.760,108.800 211.200 C 109.117 211.640,109.707 212.000,110.112 212.000 C 110.516 212.000,110.749 212.160,110.628 212.355 C 110.508 212.550,110.768 212.803,111.206 212.918 C 112.131 213.159,111.916 214.203,110.872 214.536 C 109.411 215.003,107.812 216.183,104.747 219.057 C 103.322 220.393,102.000 222.085,102.000 222.573 C 102.000 222.892,101.820 223.264,101.600 223.400 C 101.078 223.722,101.078 229.478,101.600 229.800 C 101.820 229.936,102.000 230.397,102.000 230.824 C 102.000 231.251,102.180 231.600,102.400 231.600 C 102.620 231.600,102.800 231.861,102.800 232.181 C 102.800 232.937,108.663 238.800,109.419 238.800 C 109.739 238.800,110.000 238.941,110.000 239.113 C 110.000 240.127,118.989 241.527,119.356 240.570 C 119.498 240.201,120.180 239.998,121.287 239.993 C 125.309 239.977,133.766 238.065,142.400 235.220 C 154.516 231.228,169.412 229.342,185.800 229.725 C 190.860 229.843,196.800 230.132,199.000 230.366 C 201.200 230.599,204.620 230.967,206.600 231.182 C 227.174 233.419,241.543 232.892,260.800 229.194 C 268.308 227.752,268.099 227.740,275.400 230.011 C 276.940 230.490,280.049 231.372,282.309 231.970 C 284.569 232.568,286.630 233.270,286.889 233.529 C 287.451 234.091,291.677 234.163,292.221 233.619 C 292.430 233.410,293.276 233.193,294.101 233.137 C 294.925 233.082,295.600 232.893,295.600 232.718 C 295.600 232.543,295.960 232.400,296.400 232.400 C 296.840 232.400,297.200 232.220,297.200 232.000 C 297.200 231.780,297.472 231.600,297.804 231.600 C 298.310 231.600,299.959 230.321,301.345 228.854 C 303.207 226.881,303.600 226.353,303.600 225.818 C 303.600 225.478,303.736 225.200,303.903 225.200 C 305.748 225.200,305.455 217.280,303.500 214.296 C 303.115 213.709,302.800 213.090,302.800 212.922 C 302.800 212.478,297.632 207.600,297.162 207.600 C 296.945 207.600,296.403 207.261,295.958 206.847 C 295.154 206.098,295.185 206.057,300.775 200.440 C 303.869 197.330,306.400 194.637,306.400 194.454 C 306.400 194.272,306.715 193.752,307.100 193.299 C 307.485 192.845,308.070 192.068,308.400 191.571 C 308.730 191.075,309.315 190.338,309.700 189.934 C 310.085 189.530,310.400 189.020,310.400 188.800 C 310.400 188.580,310.580 188.400,310.800 188.400 C 311.020 188.400,311.200 188.130,311.200 187.800 C 311.200 187.470,311.380 187.200,311.600 187.200 C 311.820 187.200,312.000 186.840,312.000 186.400 C 312.000 185.960,312.180 185.600,312.400 185.600 C 312.620 185.600,312.800 185.330,312.800 185.000 C 312.800 184.670,312.980 184.400,313.200 184.400 C 313.420 184.400,313.600 184.130,313.600 183.800 C 313.600 183.470,313.780 183.200,314.000 183.200 C 314.220 183.200,314.400 182.840,314.400 182.400 C 314.400 181.960,314.580 181.600,314.800 181.600 C 315.020 181.600,315.200 181.240,315.200 180.800 C 315.200 180.360,315.380 180.000,315.600 180.000 C 315.820 180.000,316.000 179.640,316.000 179.200 C 316.000 178.760,316.180 178.400,316.400 178.400 C 316.620 178.400,316.800 178.135,316.800 177.812 C 316.800 177.489,317.160 176.583,317.600 175.800 C 318.040 175.017,318.400 174.111,318.400 173.788 C 318.400 173.465,318.547 173.200,318.728 173.200 C 318.908 173.200,319.304 172.289,319.607 171.175 C 319.910 170.061,320.303 169.060,320.479 168.951 C 320.656 168.842,320.800 168.313,320.800 167.776 C 320.800 167.239,320.941 166.800,321.113 166.800 C 321.285 166.800,321.466 166.313,321.515 165.718 C 321.564 165.122,321.784 164.456,322.002 164.238 C 322.221 164.019,322.400 163.257,322.400 162.544 C 322.400 161.831,322.561 161.148,322.758 161.026 C 323.076 160.830,323.302 159.785,323.760 156.400 C 323.834 155.850,324.015 154.770,324.162 154.000 C 324.930 149.972,325.537 132.553,324.955 131.231 C 324.802 130.884,324.642 129.880,324.599 129.000 C 324.556 128.120,324.388 126.500,324.227 125.400 C 324.066 124.300,323.872 122.950,323.797 122.400 C 323.722 121.850,323.461 120.880,323.219 120.245 C 322.976 119.609,322.857 119.009,322.955 118.912 C 323.052 118.814,322.884 118.142,322.582 117.418 C 322.279 116.694,322.145 115.989,322.283 115.851 C 322.420 115.713,322.323 115.600,322.067 115.600 C 321.800 115.600,321.600 115.000,321.600 114.200 C 321.600 113.430,321.420 112.800,321.200 112.800 C 320.980 112.800,320.800 112.271,320.800 111.624 C 320.800 110.977,320.620 110.336,320.400 110.200 C 320.180 110.064,320.000 109.423,320.000 108.776 C 320.000 108.129,319.820 107.600,319.600 107.600 C 319.380 107.600,319.200 107.148,319.200 106.595 C 319.200 106.042,319.038 105.277,318.839 104.895 C 318.640 104.513,318.260 103.390,317.993 102.400 C 317.727 101.410,317.361 100.240,317.181 99.800 C 317.000 99.360,316.624 98.280,316.345 97.400 C 316.065 96.520,315.693 95.629,315.518 95.420 C 315.343 95.211,315.200 94.626,315.200 94.120 C 315.200 93.614,315.020 93.200,314.800 93.200 C 314.580 93.200,314.400 92.750,314.400 92.200 C 314.400 91.650,314.220 91.200,314.000 91.200 C 313.780 91.200,313.600 90.660,313.600 90.000 C 313.600 89.340,313.420 88.800,313.200 88.800 C 312.980 88.800,312.800 88.440,312.800 88.000 C 312.800 87.560,312.620 87.200,312.400 87.200 C 312.180 87.200,312.000 86.649,312.000 85.976 C 312.000 85.263,311.833 84.856,311.600 85.000 C 311.380 85.136,311.200 84.984,311.200 84.661 C 311.200 84.339,310.861 83.384,310.447 82.538 C 309.725 81.062,308.829 79.096,307.431 75.917 C 307.072 75.101,306.603 74.326,306.389 74.193 C 306.175 74.061,306.000 73.603,306.000 73.176 C 306.000 72.749,305.841 72.400,305.647 72.400 C 305.452 72.400,305.193 72.085,305.071 71.700 C 304.854 71.013,303.595 68.794,303.199 68.400 C 303.089 68.290,302.744 67.705,302.432 67.100 C 302.120 66.495,301.715 66.000,301.532 66.000 C 301.350 66.000,301.200 65.730,301.200 65.400 C 301.200 65.070,301.041 64.800,300.846 64.800 C 300.651 64.800,300.192 64.169,299.826 63.399 C 299.461 62.628,298.720 61.556,298.181 61.017 C 297.641 60.478,297.200 59.926,297.200 59.792 C 297.200 59.658,296.300 58.671,295.200 57.600 C 294.100 56.529,293.200 55.462,293.200 55.229 C 293.200 54.997,292.840 54.582,292.400 54.307 C 291.960 54.032,291.600 53.654,291.600 53.467 C 291.600 53.280,290.753 52.378,289.717 51.463 C 288.682 50.549,286.940 48.947,285.846 47.905 C 284.752 46.862,283.773 46.094,283.669 46.197 C 283.566 46.301,283.193 46.058,282.841 45.658 C 281.918 44.611,278.101 42.000,277.492 42.000 C 277.209 42.000,276.717 41.640,276.400 41.200 C 276.083 40.760,275.503 40.400,275.112 40.400 C 274.720 40.400,274.400 40.220,274.400 40.000 C 274.400 39.780,274.130 39.600,273.800 39.600 C 273.470 39.600,273.200 39.420,273.200 39.200 C 273.200 38.980,272.930 38.800,272.600 38.800 C 272.270 38.800,272.000 38.654,272.000 38.475 C 272.000 38.296,271.370 37.902,270.600 37.600 C 269.830 37.298,269.200 36.904,269.200 36.725 C 269.200 36.546,269.065 36.440,268.900 36.489 C 268.505 36.607,266.000 35.471,266.000 35.175 C 266.000 35.048,265.100 34.700,264.000 34.400 C 262.900 34.100,262.000 33.708,262.000 33.528 C 262.000 33.347,261.651 33.200,261.224 33.200 C 260.797 33.200,260.336 33.020,260.200 32.800 C 260.064 32.580,259.513 32.400,258.976 32.400 C 258.439 32.400,258.000 32.220,258.000 32.000 C 258.000 31.780,257.550 31.600,257.000 31.600 C 256.450 31.600,256.000 31.420,256.000 31.200 C 256.000 30.980,255.550 30.800,255.000 30.800 C 254.450 30.800,254.000 30.620,254.000 30.400 C 254.000 30.180,253.471 30.000,252.824 30.000 C 252.177 30.000,251.536 29.820,251.400 29.600 C 251.264 29.380,250.623 29.200,249.976 29.200 C 249.329 29.200,248.800 29.059,248.800 28.887 C 248.800 28.715,248.313 28.534,247.718 28.485 C 247.122 28.436,246.456 28.216,246.238 27.998 C 246.019 27.779,245.257 27.600,244.544 27.600 C 243.831 27.600,243.148 27.439,243.026 27.242 C 242.905 27.045,242.129 26.789,241.303 26.671 C 239.698 26.444,238.539 26.243,235.468 25.659 C 234.406 25.457,233.191 25.382,232.768 25.492 C 232.346 25.603,232.000 25.492,232.000 25.247 C 232.000 24.964,231.048 24.800,229.400 24.800 C 227.933 24.800,226.800 24.626,226.800 24.400 C 226.800 24.165,225.408 24.000,223.424 24.000 C 221.551 24.000,219.934 23.818,219.794 23.590 C 219.629 23.323,215.018 23.191,206.560 23.211 C 198.486 23.230,193.667 23.385,193.813 23.621 M125.439 105.817 C 127.251 106.943,127.375 108.277,126.246 114.486 C 123.149 131.517,122.759 156.387,125.458 164.745 C 127.792 171.973,136.324 169.371,138.049 160.905 C 138.828 157.083,138.184 153.845,134.809 144.624 C 132.285 137.728,139.365 134.627,142.383 141.307 C 148.248 154.292,148.013 165.303,141.728 172.041 C 132.919 181.486,119.424 177.771,116.873 165.200 C 115.360 157.744,114.798 134.382,115.935 126.200 C 117.684 113.610,118.550 108.856,119.398 107.200 C 120.474 105.098,123.258 104.461,125.439 105.817 " stroke="none" fill="#fcaca3" fill-rule="evenodd"></path><path id="path1" d="M265.957 228.177 C 265.859 228.274,264.704 228.536,263.390 228.760 C 262.075 228.983,259.920 229.364,258.600 229.607 C 240.896 232.854,226.083 233.303,206.600 231.183 C 204.620 230.967,201.200 230.599,199.000 230.366 C 196.800 230.132,190.860 229.843,185.800 229.725 C 169.412 229.342,154.516 231.228,142.400 235.220 C 133.878 238.028,126.742 239.627,120.600 240.106 C 119.377 240.202,118.380 244.000,119.578 244.000 C 119.810 244.000,120.000 244.720,120.000 245.600 C 120.000 246.480,120.180 247.200,120.400 247.200 C 120.620 247.200,120.800 247.740,120.800 248.400 C 120.800 249.060,120.980 249.600,121.200 249.600 C 121.420 249.600,121.600 250.230,121.600 251.000 C 121.600 251.770,121.780 252.400,122.000 252.400 C 122.220 252.400,122.400 253.030,122.400 253.800 C 122.400 254.570,122.580 255.200,122.800 255.200 C 123.020 255.200,123.200 255.729,123.200 256.376 C 123.200 257.023,123.380 257.664,123.600 257.800 C 123.820 257.936,124.000 258.476,124.000 259.000 C 124.000 259.524,124.180 260.064,124.400 260.200 C 124.620 260.336,124.800 260.966,124.800 261.600 C 124.800 262.234,124.980 262.864,125.200 263.000 C 125.420 263.136,125.600 263.557,125.600 263.935 C 125.600 264.630,127.330 270.326,127.989 271.800 C 128.186 272.240,128.576 273.320,128.855 274.200 C 129.135 275.080,129.507 275.971,129.682 276.180 C 129.857 276.389,130.000 276.974,130.000 277.480 C 130.000 277.986,130.180 278.400,130.400 278.400 C 130.620 278.400,130.800 278.940,130.800 279.600 C 130.800 280.260,130.951 280.800,131.136 280.800 C 131.321 280.800,131.712 281.565,132.006 282.500 C 132.299 283.435,132.688 284.371,132.870 284.580 C 133.051 284.789,133.200 285.279,133.200 285.668 C 133.200 286.057,133.560 287.017,134.000 287.800 C 134.440 288.583,134.800 289.579,134.800 290.012 C 134.800 290.445,134.980 290.800,135.200 290.800 C 135.420 290.800,135.600 291.160,135.600 291.600 C 135.600 292.040,135.780 292.400,136.000 292.400 C 136.220 292.400,136.400 292.940,136.400 293.600 C 136.400 294.260,136.580 294.800,136.800 294.800 C 137.020 294.800,137.200 295.160,137.200 295.600 C 137.200 296.040,137.380 296.400,137.600 296.400 C 137.820 296.400,138.000 296.839,138.000 297.376 C 138.000 297.913,138.180 298.464,138.400 298.600 C 138.620 298.736,138.800 299.197,138.800 299.624 C 138.800 300.051,138.980 300.400,139.200 300.400 C 139.420 300.400,139.600 300.760,139.600 301.200 C 139.600 301.640,139.780 302.000,140.000 302.000 C 140.220 302.000,140.400 302.450,140.400 303.000 C 140.400 303.550,140.580 304.000,140.800 304.000 C 141.020 304.000,141.200 304.236,141.200 304.525 C 141.200 304.814,141.650 305.983,142.200 307.123 C 142.750 308.263,143.200 309.360,143.200 309.560 C 143.200 309.761,143.549 310.616,143.976 311.462 C 144.402 312.308,145.519 314.620,146.456 316.600 C 147.394 318.580,148.305 320.260,148.481 320.333 C 148.656 320.407,148.800 320.797,148.800 321.200 C 148.800 321.603,148.949 321.993,149.132 322.067 C 149.415 322.180,150.951 324.969,152.565 328.297 C 152.804 328.790,153.135 329.195,153.300 329.197 C 153.465 329.199,153.600 329.560,153.600 330.000 C 153.600 330.440,153.780 330.800,154.000 330.800 C 154.220 330.800,154.400 331.078,154.400 331.417 C 154.400 331.756,154.760 332.420,155.200 332.892 C 155.640 333.364,156.000 333.987,156.000 334.275 C 156.000 334.564,156.180 334.800,156.400 334.800 C 156.620 334.800,156.800 335.160,156.800 335.600 C 156.800 336.040,156.980 336.400,157.200 336.400 C 157.420 336.400,157.600 336.670,157.600 337.000 C 157.600 337.330,157.735 337.602,157.900 337.605 C 158.065 337.607,158.544 338.327,158.964 339.205 C 159.385 340.082,159.880 340.800,160.064 340.800 C 160.249 340.800,160.400 341.036,160.400 341.325 C 160.400 341.613,160.760 342.236,161.200 342.708 C 161.640 343.180,162.000 343.778,162.000 344.036 C 162.000 344.295,162.316 344.797,162.703 345.153 C 163.089 345.509,163.660 346.295,163.970 346.900 C 164.281 347.505,164.685 348.000,164.868 348.000 C 165.050 348.000,165.200 348.178,165.200 348.395 C 165.200 348.767,165.960 349.815,167.100 351.016 C 167.375 351.306,167.600 351.736,167.600 351.971 C 167.600 352.207,167.780 352.400,168.000 352.400 C 168.220 352.400,168.400 352.586,168.400 352.813 C 168.400 353.041,168.985 353.837,169.700 354.584 C 170.415 355.330,172.440 357.504,174.200 359.415 C 178.917 364.537,180.986 366.595,182.472 367.639 C 183.202 368.153,184.032 368.798,184.315 369.073 C 184.598 369.347,185.363 369.887,186.015 370.272 C 186.667 370.657,187.200 371.114,187.200 371.286 C 187.200 371.459,187.560 371.600,188.000 371.600 C 188.440 371.600,188.800 371.748,188.800 371.930 C 188.800 372.111,189.925 372.754,191.300 373.359 C 192.675 373.963,194.113 374.625,194.495 374.829 C 194.877 375.033,195.516 375.200,195.915 375.200 C 196.314 375.200,196.811 375.371,197.021 375.581 C 197.230 375.790,198.076 376.007,198.901 376.063 C 199.725 376.118,200.400 376.307,200.400 376.482 C 200.400 376.955,211.106 376.875,211.400 376.400 C 211.536 376.180,212.267 376.000,213.024 376.000 C 213.781 376.000,214.400 375.820,214.400 375.600 C 214.400 375.380,214.762 375.200,215.205 375.200 C 215.648 375.200,216.323 375.040,216.705 374.844 C 217.087 374.648,218.300 374.073,219.400 373.566 C 220.500 373.059,221.805 372.288,222.300 371.852 C 222.795 371.417,223.200 371.209,223.200 371.391 C 223.200 371.573,223.536 371.335,223.947 370.861 C 224.358 370.388,224.881 370.000,225.109 370.000 C 225.771 370.000,236.435 359.104,238.200 356.625 C 239.080 355.389,240.205 353.888,240.700 353.289 C 241.194 352.690,241.599 351.975,241.600 351.700 C 241.600 351.425,241.780 351.200,242.000 351.200 C 242.220 351.200,242.400 350.840,242.400 350.400 C 242.400 349.960,242.550 349.600,242.732 349.600 C 242.915 349.600,243.319 349.105,243.630 348.500 C 243.940 347.895,244.511 347.109,244.897 346.753 C 245.284 346.397,245.600 345.812,245.600 345.453 C 245.600 345.094,245.780 344.800,246.000 344.800 C 246.220 344.800,246.400 344.564,246.400 344.275 C 246.400 343.987,246.760 343.364,247.200 342.892 C 247.640 342.420,248.000 341.756,248.000 341.417 C 248.000 341.078,248.136 340.800,248.302 340.800 C 248.469 340.800,248.859 340.215,249.170 339.500 C 249.481 338.785,249.840 338.110,249.968 338.000 C 250.383 337.642,254.918 328.998,255.005 328.400 C 255.021 328.290,255.309 327.660,255.645 327.000 C 255.981 326.340,256.690 324.675,257.221 323.300 C 257.752 321.925,258.324 320.800,258.493 320.800 C 258.662 320.800,258.800 320.451,258.800 320.024 C 258.800 319.597,258.980 319.136,259.200 319.000 C 259.420 318.864,259.600 318.313,259.600 317.776 C 259.600 317.239,259.780 316.800,260.000 316.800 C 260.220 316.800,260.400 316.440,260.400 316.000 C 260.400 315.560,260.580 315.200,260.800 315.200 C 261.020 315.200,261.200 314.660,261.200 314.000 C 261.200 313.340,261.380 312.800,261.600 312.800 C 261.820 312.800,262.000 312.440,262.000 312.000 C 262.000 311.560,262.180 311.200,262.400 311.200 C 262.620 311.200,262.800 310.851,262.800 310.424 C 262.800 309.997,262.980 309.536,263.200 309.400 C 263.420 309.264,263.600 308.713,263.600 308.176 C 263.600 307.639,263.780 307.200,264.000 307.200 C 264.220 307.200,264.400 306.750,264.400 306.200 C 264.400 305.650,264.580 305.200,264.800 305.200 C 265.020 305.200,265.200 304.750,265.200 304.200 C 265.200 303.650,265.380 303.200,265.600 303.200 C 265.820 303.200,266.000 302.750,266.000 302.200 C 266.000 301.650,266.180 301.200,266.400 301.200 C 266.620 301.200,266.800 300.851,266.800 300.424 C 266.800 299.997,266.980 299.536,267.200 299.400 C 267.420 299.264,267.600 298.724,267.600 298.200 C 267.600 297.676,267.780 297.136,268.000 297.000 C 268.220 296.864,268.400 296.313,268.400 295.776 C 268.400 295.239,268.580 294.800,268.800 294.800 C 269.020 294.800,269.200 294.260,269.200 293.600 C 269.200 292.940,269.380 292.400,269.600 292.400 C 269.820 292.400,270.000 291.961,270.000 291.424 C 270.000 290.887,270.180 290.336,270.400 290.200 C 270.620 290.064,270.800 289.549,270.800 289.056 C 270.800 288.563,270.949 287.989,271.130 287.780 C 271.312 287.571,271.696 286.590,271.983 285.600 C 272.270 284.610,272.834 282.826,273.237 281.637 C 273.639 280.447,273.883 279.334,273.778 279.164 C 273.673 278.994,273.770 278.742,273.993 278.604 C 274.217 278.466,274.400 277.924,274.400 277.400 C 274.400 276.876,274.580 276.336,274.800 276.200 C 275.020 276.064,275.200 275.423,275.200 274.776 C 275.200 274.129,275.380 273.600,275.600 273.600 C 275.820 273.600,276.000 273.060,276.000 272.400 C 276.000 271.740,276.180 271.200,276.400 271.200 C 276.620 271.200,276.800 270.570,276.800 269.800 C 276.800 269.030,276.980 268.400,277.200 268.400 C 277.420 268.400,277.600 267.860,277.600 267.200 C 277.600 266.540,277.780 266.000,278.000 266.000 C 278.220 266.000,278.400 265.460,278.400 264.800 C 278.400 264.140,278.580 263.600,278.800 263.600 C 279.020 263.600,279.200 262.880,279.200 262.000 C 279.200 261.120,279.380 260.400,279.600 260.400 C 279.820 260.400,280.000 259.860,280.000 259.200 C 280.000 258.540,280.180 258.000,280.400 258.000 C 280.620 258.000,280.800 257.381,280.800 256.624 C 280.800 255.867,280.980 255.136,281.200 255.000 C 281.420 254.864,281.600 254.234,281.600 253.600 C 281.600 252.966,281.780 252.336,282.000 252.200 C 282.220 252.064,282.400 251.434,282.400 250.800 C 282.400 250.166,282.580 249.536,282.800 249.400 C 283.020 249.264,283.200 248.544,283.200 247.800 C 283.200 247.056,283.380 246.336,283.600 246.200 C 283.820 246.064,284.000 245.333,284.000 244.576 C 284.000 243.819,284.160 243.200,284.356 243.200 C 284.552 243.200,284.809 242.615,284.927 241.900 C 285.046 241.185,285.346 239.790,285.596 238.800 C 285.845 237.810,286.151 236.460,286.275 235.800 C 286.399 235.140,286.667 234.391,286.870 234.136 C 287.402 233.466,286.748 233.160,282.200 231.948 C 280.000 231.362,276.940 230.490,275.400 230.011 C 269.884 228.294,266.497 227.637,265.957 228.177 M180.957 246.784 C 181.513 246.995,184.809 249.783,188.283 252.979 C 191.758 256.175,194.816 258.792,195.080 258.795 C 195.816 258.803,199.668 253.164,201.931 248.768 C 203.163 246.375,206.323 245.714,208.356 247.424 C 210.988 249.639,210.514 251.329,204.859 259.886 L 201.631 264.772 205.515 268.022 C 214.653 275.665,228.167 285.664,228.952 285.363 C 229.550 285.133,232.665 280.099,237.608 271.374 C 240.029 267.100,240.772 266.421,243.045 266.409 C 246.814 266.389,247.919 269.936,245.495 274.268 C 242.523 279.579,241.666 281.036,238.889 285.510 L 235.978 290.200 237.199 291.238 C 237.871 291.808,240.401 293.409,242.823 294.795 C 248.960 298.308,250.103 299.894,248.596 302.808 C 246.820 306.241,243.137 305.315,233.893 299.110 C 231.286 297.360,231.351 297.351,229.767 299.679 C 225.549 305.878,216.318 317.907,210.453 324.845 L 209.232 326.291 210.116 327.077 C 211.357 328.180,222.186 335.670,224.600 337.094 C 229.960 340.256,232.471 342.121,233.077 343.392 C 234.686 346.766,231.088 350.238,227.658 348.621 C 225.067 347.400,213.847 340.083,206.921 335.097 L 203.642 332.737 195.921 340.577 C 187.137 349.496,186.291 349.952,183.569 347.231 C 180.973 344.634,181.410 343.772,189.608 335.326 C 195.752 328.996,196.741 327.810,196.308 327.289 C 196.029 326.953,194.091 325.290,192.000 323.593 C 186.363 319.017,180.908 314.190,174.298 307.925 L 168.397 302.332 165.750 304.757 C 162.652 307.596,161.123 308.095,159.110 306.923 C 156.072 305.155,156.426 302.058,160.049 298.720 C 162.938 296.057,163.175 296.869,157.746 290.826 C 152.972 285.513,152.510 282.679,156.136 280.950 C 158.672 279.741,159.446 280.239,165.383 286.900 C 166.902 288.605,168.341 290.000,168.579 290.000 C 169.229 290.000,179.322 278.952,187.200 269.618 C 190.442 265.777,190.373 266.095,188.366 264.288 C 181.817 258.392,176.945 253.742,176.198 252.676 C 174.845 250.744,176.245 247.120,178.514 246.681 C 179.001 246.586,179.523 246.484,179.674 246.454 C 179.825 246.425,180.402 246.573,180.957 246.784 M195.150 272.875 C 194.138 274.299,187.370 282.245,184.651 285.200 C 183.740 286.190,181.026 289.148,178.620 291.774 L 174.246 296.548 178.223 300.296 C 187.336 308.883,201.577 321.200,202.393 321.200 C 202.898 321.200,211.030 311.281,215.839 304.800 C 224.711 292.840,224.620 292.997,223.223 292.057 C 219.776 289.739,210.341 282.583,204.302 277.707 C 195.951 270.965,196.354 271.178,195.150 272.875 " stroke="none" fill="#fccb83" fill-rule="evenodd"></path><path id="path2" d="M178.514 246.681 C 176.245 247.120,174.845 250.744,176.198 252.676 C 176.945 253.742,181.817 258.392,188.366 264.288 C 190.373 266.095,190.442 265.777,187.200 269.618 C 179.322 278.952,169.229 290.000,168.579 290.000 C 168.341 290.000,166.902 288.605,165.383 286.900 C 159.446 280.239,158.672 279.741,156.136 280.950 C 152.510 282.679,152.972 285.513,157.746 290.826 C 163.175 296.869,162.938 296.057,160.049 298.720 C 156.426 302.058,156.072 305.155,159.110 306.923 C 161.123 308.095,162.652 307.596,165.750 304.757 L 168.397 302.332 174.298 307.925 C 180.908 314.190,186.363 319.017,192.000 323.593 C 194.091 325.290,196.029 326.953,196.308 327.289 C 196.741 327.810,195.752 328.996,189.608 335.326 C 181.410 343.772,180.973 344.634,183.569 347.231 C 186.291 349.952,187.137 349.496,195.921 340.577 L 203.642 332.737 206.921 335.097 C 213.847 340.083,225.067 347.400,227.658 348.621 C 231.088 350.238,234.686 346.766,233.077 343.392 C 232.471 342.121,229.960 340.256,224.600 337.094 C 222.186 335.670,211.357 328.180,210.116 327.077 L 209.232 326.291 210.453 324.845 C 216.318 317.907,225.549 305.878,229.767 299.679 C 231.351 297.351,231.286 297.360,233.893 299.110 C 243.137 305.315,246.820 306.241,248.596 302.808 C 250.103 299.894,248.960 298.308,242.823 294.795 C 240.401 293.409,237.871 291.808,237.199 291.238 L 235.978 290.200 238.889 285.510 C 241.666 281.036,242.523 279.579,245.495 274.268 C 247.919 269.936,246.814 266.389,243.045 266.409 C 240.772 266.421,240.029 267.100,237.608 271.374 C 232.665 280.099,229.550 285.133,228.952 285.363 C 228.167 285.664,214.653 275.665,205.515 268.022 L 201.631 264.772 204.859 259.886 C 210.514 251.329,210.988 249.639,208.356 247.424 C 206.323 245.714,203.163 246.375,201.931 248.768 C 199.668 253.164,195.816 258.803,195.080 258.795 C 194.816 258.792,191.758 256.175,188.283 252.979 C 182.693 247.836,180.622 246.266,179.674 246.454 C 179.523 246.484,179.001 246.586,178.514 246.681 M204.302 277.707 C 210.341 282.583,219.776 289.739,223.223 292.057 C 224.620 292.997,224.711 292.840,215.839 304.800 C 211.030 311.281,202.898 321.200,202.393 321.200 C 201.577 321.200,187.336 308.883,178.223 300.296 L 174.246 296.548 178.620 291.774 C 181.026 289.148,183.740 286.190,184.651 285.200 C 187.370 282.245,194.138 274.299,195.150 272.875 C 196.354 271.178,195.951 270.965,204.302 277.707 " stroke="none" fill="#f4ad5d" fill-rule="evenodd"></path><path id="path3" d="M121.233 105.512 C 118.842 106.755,118.392 108.511,115.935 126.200 C 114.798 134.382,115.360 157.744,116.873 165.200 C 119.424 177.771,132.919 181.486,141.728 172.041 C 148.013 165.303,148.248 154.292,142.383 141.307 C 139.365 134.627,132.285 137.728,134.809 144.624 C 138.184 153.845,138.828 157.083,138.049 160.905 C 136.324 169.371,127.792 171.973,125.458 164.745 C 122.759 156.387,123.149 131.517,126.246 114.486 C 127.132 109.612,127.211 108.592,126.781 107.555 C 125.867 105.347,123.340 104.417,121.233 105.512 " stroke="none" fill="#fcfafa" fill-rule="evenodd"></path></g></svg>