<?xml version="1.0" encoding="UTF-8"?>
<svg version="1.1" xmlns="http://www.w3.org/2000/svg" width="512" height="512">
<path d="M0 0 C3.403125 0.639375 6.80625 1.27875 10.3125 1.9375 C11.38153564 2.13722412 12.45057129 2.33694824 13.55200195 2.54272461 C14.39722412 2.70264893 15.24244629 2.86257324 16.11328125 3.02734375 C16.97735596 3.18968506 17.84143066 3.35202637 18.73168945 3.51928711 C21 4 21 4 24 5 C23.88930176 5.54825439 23.77860352 6.09650879 23.66455078 6.66137695 C21.69527665 16.42680449 19.72692001 26.18817906 18 36 C18.4532666 35.57178955 18.9065332 35.1435791 19.37353516 34.70239258 C21.45566464 32.73729331 23.54031037 30.77488297 25.625 28.8125 C26.33785156 28.13896484 27.05070313 27.46542969 27.78515625 26.77148438 C31.75439797 23.03894055 35.77065976 19.43550509 40 16 C46.99881643 18.97449698 52.55656212 26.01101852 57 32 C55.63917829 35.07884863 54.13251195 37.07086911 51.6640625 39.34765625 C51.01179687 39.95287109 50.35953125 40.55808594 49.6875 41.18164062 C49.006875 41.80232422 48.32625 42.42300781 47.625 43.0625 C46.95210937 43.68705078 46.27921875 44.31160156 45.5859375 44.95507812 C42.4904422 47.80988039 39.40119228 50.51062667 36 53 C36.6297876 52.90912109 37.2595752 52.81824219 37.90844727 52.72460938 C40.79243446 52.31136238 43.67743163 51.90562709 46.5625 51.5 C47.55314453 51.35691406 48.54378906 51.21382812 49.56445312 51.06640625 C54.76467588 50.34079377 59.74952418 49.82326589 65 50 C66.60850387 55.14315734 67.52795025 60.08852151 68.125 65.4375 C68.25455078 66.53481445 68.25455078 66.53481445 68.38671875 67.65429688 C68.59628393 69.43560094 68.79887868 71.21772281 69 73 C59.35625389 74.85694726 49.72018539 76.58524699 40 78 C42.91962687 80.32080544 45.86213316 82.0481472 49.203125 83.69921875 C50.1828125 84.18583984 51.1625 84.67246094 52.171875 85.17382812 C53.18765625 85.67333984 54.2034375 86.17285156 55.25 86.6875 C56.28125 87.19861328 57.3125 87.70972656 58.375 88.23632812 C60.91489782 89.49451825 63.45658991 90.74892921 66 92 C64.4719611 97.09882455 62.28963144 101.65665659 59.875 106.375 C59.50246094 107.11105469 59.12992188 107.84710938 58.74609375 108.60546875 C57.8343878 110.40550358 56.91770068 112.20301402 56 114 C47.55173524 110.5598057 39.25672033 106.87533164 31 103 C31.35304199 103.55461914 31.70608398 104.10923828 32.06982422 104.68066406 C33.67353771 107.20251803 35.27429567 109.72623505 36.875 112.25 C37.43058594 113.12269531 37.98617187 113.99539062 38.55859375 114.89453125 C39.09355469 115.73886719 39.62851562 116.58320313 40.1796875 117.453125 C40.67194824 118.22817383 41.16420898 119.00322266 41.67138672 119.80175781 C42.89533537 121.82682832 43.97643877 123.8679347 45 126 C44.34 126.99 43.68 127.98 43 129 C43.49991455 129.91604004 43.9998291 130.83208008 44.51489258 131.77587891 C49.24445165 140.50327679 53.6287273 149.31254585 57.6875 158.375 C57.98335999 159.03395264 58.27921997 159.69290527 58.58404541 160.37182617 C86.82459448 223.45655691 104.94357143 289.97896368 121.29336548 356.9519043 C122.940194 363.69541975 124.60555678 370.43324659 126.31303406 377.16166687 C127.19329051 380.63918834 128.0580149 384.12042712 128.91830444 387.60293579 C129.29566731 389.11743567 129.67927169 390.63039924 130.07022095 392.14144897 C133.01836127 403.5665465 135.80725553 417.32263423 131.0625 428.625 C122.93506755 441.9594226 106.53113722 445.17327491 92.41479492 448.69067383 C70.7218762 453.80796929 48.24252446 457.49854231 26 459 C25.25186035 459.05494629 24.5037207 459.10989258 23.73291016 459.16650391 C-19.42307003 462.26277423 -81.70395728 464.78321623 -119 439 C-119.58394531 438.60039062 -120.16789063 438.20078125 -120.76953125 437.7890625 C-125.73408573 434.04365178 -129.05096994 428.84709018 -131 423 C-133.332473 404.81261557 -126.12786011 385.26215474 -120.91796875 368.11328125 C-120.52527427 366.81330296 -120.13259484 365.51332013 -119.7399292 364.21333313 C-115.44772387 350.04673886 -110.95652539 335.94332012 -106.44127655 321.84655762 C-105.73413017 319.63793391 -105.02795709 317.42900119 -104.32208252 315.2199707 C-83.91688625 251.36266474 -63.34635144 187.54980437 -42 124 C-43.98 125.65 -45.96 127.3 -48 129 C-52.09991955 124.99592273 -56.1542531 120.94190998 -60.0625 116.75 C-60.65160156 116.12609375 -61.24070312 115.5021875 -61.84765625 114.859375 C-63 113 -63 113 -62.7902832 111.10668945 C-61.81198632 108.49880444 -60.56257813 107.30512698 -58.5078125 105.43359375 C-57.80269531 104.78326172 -57.09757812 104.13292969 -56.37109375 103.46289062 C-55.25927734 102.46032227 -55.25927734 102.46032227 -54.125 101.4375 C-52.66905652 100.10309838 -51.21331958 98.76847137 -49.7578125 97.43359375 C-49.1095752 96.84634521 -48.46133789 96.25909668 -47.79345703 95.65405273 C-46.15257777 94.140718 -44.56559957 92.59067575 -43 91 C-43.77190674 91.12117188 -44.54381348 91.24234375 -45.33911133 91.3671875 C-48.8298773 91.91381049 -52.32117709 92.45694609 -55.8125 93 C-57.02744141 93.19078125 -58.24238281 93.3815625 -59.49414062 93.578125 C-60.65751953 93.75859375 -61.82089844 93.9390625 -63.01953125 94.125 C-64.09307861 94.29257813 -65.16662598 94.46015625 -66.27270508 94.6328125 C-69 95 -69 95 -72 95 C-72.50612064 92.1259578 -73.00506541 89.25097127 -73.5 86.375 C-73.64308594 85.56675781 -73.78617188 84.75851563 -73.93359375 83.92578125 C-74.13662109 82.73662109 -74.13662109 82.73662109 -74.34375 81.5234375 C-74.46943359 80.80075684 -74.59511719 80.07807617 -74.72460938 79.33349609 C-75.05035721 76.57330302 -75 73.77934839 -75 71 C-65.1 69.35 -55.2 67.7 -45 66 C-53.50623942 61.84577743 -53.50623942 61.84577743 -62.02319336 57.71362305 C-63.07643799 57.19324463 -64.12968262 56.67286621 -65.21484375 56.13671875 C-66.29886475 55.60780029 -67.38288574 55.07888184 -68.49975586 54.53393555 C-71 53 -71 53 -72 50 C-71.28735352 47.9152832 -71.28735352 47.9152832 -70.12890625 45.55078125 C-69.71962891 44.70322266 -69.31035156 43.85566406 -68.88867188 42.98242188 C-68.45103516 42.10134766 -68.01339844 41.22027344 -67.5625 40.3125 C-66.9118457 38.97348633 -66.9118457 38.97348633 -66.24804688 37.60742188 C-65.17408871 35.40049686 -64.091161 33.19845687 -63 31 C-56.85586646 31.47969149 -51.99657854 34.27709515 -46.625 37.0625 C-45.69816406 37.53494141 -44.77132812 38.00738281 -43.81640625 38.49414062 C-41.54046409 39.65557502 -39.26861227 40.82433067 -37 42 C-37.42933838 41.34926514 -37.85867676 40.69853027 -38.30102539 40.02807617 C-40.23223323 37.088095 -42.14748668 34.13805264 -44.0625 31.1875 C-44.73861328 30.16333984 -45.41472656 29.13917969 -46.11132812 28.08398438 C-46.74619141 27.10107422 -47.38105469 26.11816406 -48.03515625 25.10546875 C-48.6269165 24.19949951 -49.21867676 23.29353027 -49.82836914 22.36010742 C-51 20 -51 20 -50 17 C-48.37353516 15.6496582 -48.37353516 15.6496582 -46.2890625 14.30078125 C-45.53882813 13.81416016 -44.78859375 13.32753906 -44.015625 12.82617188 C-43.22671875 12.32666016 -42.4378125 11.82714844 -41.625 11.3125 C-40.45324219 10.54583008 -40.45324219 10.54583008 -39.2578125 9.76367188 C-33.38869534 6 -33.38869534 6 -30 6 C-28.37768555 8.04443359 -28.37768555 8.04443359 -26.63671875 10.8984375 C-25.99669922 11.93613281 -25.35667969 12.97382812 -24.69726562 14.04296875 C-24.03404297 15.14253906 -23.37082031 16.24210937 -22.6875 17.375 C-22.03587891 18.43589844 -21.38425781 19.49679688 -20.71289062 20.58984375 C-16.76385164 27.03322067 -12.88825014 33.51958309 -9 40 C-6.03 26.8 -3.06 13.6 0 0 Z " fill="#FDCE87" transform="translate(255,26)"/>
<path d="M0 0 C3.403125 0.639375 6.80625 1.27875 10.3125 1.9375 C11.38153564 2.13722412 12.45057129 2.33694824 13.55200195 2.54272461 C14.39722412 2.70264893 15.24244629 2.86257324 16.11328125 3.02734375 C16.97735596 3.18968506 17.84143066 3.35202637 18.73168945 3.51928711 C21 4 21 4 24 5 C23.88930176 5.54825439 23.77860352 6.09650879 23.66455078 6.66137695 C21.69527665 16.42680449 19.72692001 26.18817906 18 36 C18.4532666 35.57178955 18.9065332 35.1435791 19.37353516 34.70239258 C21.45566464 32.73729331 23.54031037 30.77488297 25.625 28.8125 C26.33785156 28.13896484 27.05070313 27.46542969 27.78515625 26.77148438 C31.75439797 23.03894055 35.77065976 19.43550509 40 16 C46.99881643 18.97449698 52.55656212 26.01101852 57 32 C55.63917829 35.07884863 54.13251195 37.07086911 51.6640625 39.34765625 C51.01179687 39.95287109 50.35953125 40.55808594 49.6875 41.18164062 C49.006875 41.80232422 48.32625 42.42300781 47.625 43.0625 C46.95210937 43.68705078 46.27921875 44.31160156 45.5859375 44.95507812 C42.4904422 47.80988039 39.40119228 50.51062667 36 53 C36.6297876 52.90912109 37.2595752 52.81824219 37.90844727 52.72460938 C40.79243446 52.31136238 43.67743163 51.90562709 46.5625 51.5 C47.55314453 51.35691406 48.54378906 51.21382812 49.56445312 51.06640625 C54.76467588 50.34079377 59.74952418 49.82326589 65 50 C66.60850387 55.14315734 67.52795025 60.08852151 68.125 65.4375 C68.25455078 66.53481445 68.25455078 66.53481445 68.38671875 67.65429688 C68.59628393 69.43560094 68.79887868 71.21772281 69 73 C59.35625389 74.85694726 49.72018539 76.58524699 40 78 C42.91962687 80.32080544 45.86213316 82.0481472 49.203125 83.69921875 C50.1828125 84.18583984 51.1625 84.67246094 52.171875 85.17382812 C53.18765625 85.67333984 54.2034375 86.17285156 55.25 86.6875 C56.28125 87.19861328 57.3125 87.70972656 58.375 88.23632812 C60.91489782 89.49451825 63.45658991 90.74892921 66 92 C64.4719611 97.09882455 62.28963144 101.65665659 59.875 106.375 C59.50246094 107.11105469 59.12992188 107.84710938 58.74609375 108.60546875 C57.8343878 110.40550358 56.91770068 112.20301402 56 114 C47.55173524 110.5598057 39.25672033 106.87533164 31 103 C31.35304199 103.55461914 31.70608398 104.10923828 32.06982422 104.68066406 C33.67353771 107.20251803 35.27429567 109.72623505 36.875 112.25 C37.43058594 113.12269531 37.98617187 113.99539062 38.55859375 114.89453125 C39.09355469 115.73886719 39.62851562 116.58320313 40.1796875 117.453125 C40.67194824 118.22817383 41.16420898 119.00322266 41.67138672 119.80175781 C42.89533537 121.82682832 43.97643877 123.8679347 45 126 C44.34 126.99 43.68 127.98 43 129 C43.49991455 129.91604004 43.9998291 130.83208008 44.51489258 131.77587891 C49.24467511 140.50368914 53.62405195 149.31430275 57.6875 158.375 C57.97937195 159.02198853 58.2712439 159.66897705 58.57196045 160.33557129 C65.62010726 175.99484904 71.89196663 191.95461432 78 208 C78.42506836 209.07314453 78.85013672 210.14628906 79.28808594 211.25195312 C79.66481445 212.22583984 80.04154297 213.19972656 80.4296875 214.203125 C80.9244458 215.45851074 80.9244458 215.45851074 81.42919922 216.73925781 C82.08511974 219.33712951 82.06616493 220.54899506 81 223 C79.4597168 224.51708984 79.4597168 224.51708984 77.44921875 225.9609375 C76.69850098 226.50758057 75.9477832 227.05422363 75.17431641 227.61743164 C74.35366699 228.1974292 73.53301758 228.77742676 72.6875 229.375 C71.83591309 229.98786865 70.98432617 230.6007373 70.10693359 231.23217773 C67.41212934 233.16553565 64.70620087 235.08263933 62 237 C60.34205286 238.19085643 58.68448993 239.38224799 57.02734375 240.57421875 C45.33940539 248.92591131 33.31813441 256.61524778 21 264 C20.07767578 264.55655273 19.15535156 265.11310547 18.20507812 265.68652344 C-16.5978537 286.62322196 -53.05807834 303.59732332 -91 318 C-92.63799561 318.62455078 -92.63799561 318.62455078 -94.30908203 319.26171875 C-95.29118652 319.62910156 -96.27329102 319.99648438 -97.28515625 320.375 C-98.13086182 320.69210937 -98.97656738 321.00921875 -99.84790039 321.3359375 C-102 322 -102 322 -105 322 C-104.44278771 314.2446014 -102.00411442 307.20206523 -99.58203125 299.85546875 C-99.12793028 298.46028285 -98.67447393 297.064887 -98.22161865 295.66929626 C-97.01089264 291.94407834 -95.79142358 288.22177781 -94.57024002 284.49997711 C-93.29866328 280.61936896 -92.03533382 276.73607814 -90.77124023 272.85302734 C-88.76511952 266.69376737 -86.75465773 260.53594394 -84.74023438 254.37939453 C-82.47024705 247.44159608 -80.20814594 240.50127342 -77.953125 233.55859375 C-75.47121121 225.91894217 -72.98415509 218.2809922 -70.49267578 210.64445496 C-68.71795828 205.2040069 -66.94631343 199.76256671 -65.1763916 194.32055664 C-57.54254713 170.84933335 -49.85341927 147.39876707 -42 124 C-43.98 125.65 -45.96 127.3 -48 129 C-52.09991955 124.99592273 -56.1542531 120.94190998 -60.0625 116.75 C-60.65160156 116.12609375 -61.24070313 115.5021875 -61.84765625 114.859375 C-63 113 -63 113 -62.7902832 111.10668945 C-61.81198632 108.49880444 -60.56257813 107.30512698 -58.5078125 105.43359375 C-57.80269531 104.78326172 -57.09757812 104.13292969 -56.37109375 103.46289062 C-55.25927734 102.46032227 -55.25927734 102.46032227 -54.125 101.4375 C-52.66905652 100.10309838 -51.21331958 98.76847137 -49.7578125 97.43359375 C-49.1095752 96.84634521 -48.46133789 96.25909668 -47.79345703 95.65405273 C-46.15257777 94.140718 -44.56559957 92.59067575 -43 91 C-44.15786011 91.18175781 -44.15786011 91.18175781 -45.33911133 91.3671875 C-48.8298773 91.91381049 -52.32117709 92.45694609 -55.8125 93 C-57.02744141 93.19078125 -58.24238281 93.3815625 -59.49414062 93.578125 C-61.23920898 93.84882813 -61.23920898 93.84882813 -63.01953125 94.125 C-64.09307861 94.29257813 -65.16662598 94.46015625 -66.27270508 94.6328125 C-69 95 -69 95 -72 95 C-72.50612064 92.1259578 -73.00506541 89.25097127 -73.5 86.375 C-73.64308594 85.56675781 -73.78617188 84.75851563 -73.93359375 83.92578125 C-74.06894531 83.13300781 -74.20429688 82.34023437 -74.34375 81.5234375 C-74.46943359 80.80075684 -74.59511719 80.07807617 -74.72460938 79.33349609 C-75.05035721 76.57330302 -75 73.77934839 -75 71 C-65.1 69.35 -55.2 67.7 -45 66 C-53.50623942 61.84577743 -53.50623942 61.84577743 -62.02319336 57.71362305 C-63.6030603 56.93305542 -63.6030603 56.93305542 -65.21484375 56.13671875 C-66.29886475 55.60780029 -67.38288574 55.07888184 -68.49975586 54.53393555 C-71 53 -71 53 -72 50 C-71.28735352 47.9152832 -71.28735352 47.9152832 -70.12890625 45.55078125 C-69.71962891 44.70322266 -69.31035156 43.85566406 -68.88867188 42.98242188 C-68.45103516 42.10134766 -68.01339844 41.22027344 -67.5625 40.3125 C-66.9118457 38.97348633 -66.9118457 38.97348633 -66.24804688 37.60742188 C-65.17408871 35.40049686 -64.091161 33.19845687 -63 31 C-56.85586646 31.47969149 -51.99657854 34.27709515 -46.625 37.0625 C-45.69816406 37.53494141 -44.77132812 38.00738281 -43.81640625 38.49414062 C-41.54046409 39.65557502 -39.26861227 40.82433067 -37 42 C-37.42933838 41.34926514 -37.85867676 40.69853027 -38.30102539 40.02807617 C-40.23223323 37.088095 -42.14748668 34.13805264 -44.0625 31.1875 C-44.73861328 30.16333984 -45.41472656 29.13917969 -46.11132812 28.08398438 C-47.06362305 26.60961914 -47.06362305 26.60961914 -48.03515625 25.10546875 C-48.92279663 23.74651489 -48.92279663 23.74651489 -49.82836914 22.36010742 C-51 20 -51 20 -50 17 C-48.37353516 15.6496582 -48.37353516 15.6496582 -46.2890625 14.30078125 C-45.53882813 13.81416016 -44.78859375 13.32753906 -44.015625 12.82617188 C-43.22671875 12.32666016 -42.4378125 11.82714844 -41.625 11.3125 C-40.45324219 10.54583008 -40.45324219 10.54583008 -39.2578125 9.76367188 C-33.38869534 6 -33.38869534 6 -30 6 C-28.37768555 8.04443359 -28.37768555 8.04443359 -26.63671875 10.8984375 C-25.99669922 11.93613281 -25.35667969 12.97382812 -24.69726562 14.04296875 C-24.03404297 15.14253906 -23.37082031 16.24210937 -22.6875 17.375 C-22.03587891 18.43589844 -21.38425781 19.49679688 -20.71289062 20.58984375 C-16.76385164 27.03322067 -12.88825014 33.51958309 -9 40 C-6.03 26.8 -3.06 13.6 0 0 Z " fill="#FDCE87" transform="translate(255,26)"/>
<path d="M0 0 C1.8891618 5.73764098 3.77279052 11.47706195 5.65185547 17.21801758 C6.28845048 19.16054271 6.92641611 21.10261934 7.56591797 23.04418945 C9.75196578 29.68323387 11.90108132 36.33287138 14 43 C14.31062378 43.98615295 14.62124756 44.97230591 14.94128418 45.98834229 C15.8413768 48.87889469 16.7177698 51.77549938 17.5859375 54.67578125 C17.86039703 55.55558151 18.13485657 56.43538177 18.41763306 57.34184265 C18.77623917 58.56735588 18.77623917 58.56735588 19.14208984 59.81762695 C19.35699066 60.53126907 19.57189148 61.24491119 19.79330444 61.98017883 C20.06100147 64.59610409 19.39918502 65.80648617 18 68 C15.85546875 69.97265625 15.85546875 69.97265625 13.1875 72.0625 C12.19492187 72.85140625 11.20234375 73.6403125 10.1796875 74.453125 C9.39416504 75.07670898 9.39416504 75.07670898 8.59277344 75.71289062 C6.48771331 77.41397539 4.44275065 79.17968744 2.39477539 80.94873047 C-5.44099278 87.70241061 -13.63939379 93.91332186 -22 100 C-22.68078613 100.4964502 -23.36157227 100.99290039 -24.06298828 101.50439453 C-41.010183 113.80523003 -58.75936613 124.73290023 -77 135 C-77.88187988 135.50112305 -78.76375977 136.00224609 -79.67236328 136.51855469 C-115.34703204 156.71176342 -153.59399285 171.81847863 -193 183 C-194.44052734 183.41016357 -194.44052734 183.41016357 -195.91015625 183.82861328 C-198.60311507 184.58751278 -201.29960565 185.33054012 -204 186.0625 C-204.79019531 186.2790625 -205.58039063 186.495625 -206.39453125 186.71875 C-211.75929179 188.12035411 -211.75929179 188.12035411 -214 187 C-210.19666068 168.33154451 -205.33827399 150.23097632 -199.6416626 132.05072021 C-198.72680457 129.12688164 -197.81865218 126.20096958 -196.90982056 123.2752533 C-194.29032378 114.84477105 -191.65173176 106.42039672 -189 98 C-188.505 98.99 -188.505 98.99 -188 100 C-125.24439279 77.73701715 -66.40265932 47.75253013 -12.8828125 7.94140625 C-12.19364746 7.43053467 -11.50448242 6.91966309 -10.79443359 6.39331055 C-9.45793915 5.40075514 -8.12477315 4.40369798 -6.79541016 3.40161133 C-2.22170111 0 -2.22170111 0 0 0 Z " fill="#91B397" transform="translate(338,248)"/>
<path d="M0 0 C3.403125 0.639375 6.80625 1.27875 10.3125 1.9375 C11.38153564 2.13722412 12.45057129 2.33694824 13.55200195 2.54272461 C14.39722412 2.70264893 15.24244629 2.86257324 16.11328125 3.02734375 C16.97735596 3.18968506 17.84143066 3.35202637 18.73168945 3.51928711 C21 4 21 4 24 5 C23.88930176 5.54825439 23.77860352 6.09650879 23.66455078 6.66137695 C21.69527665 16.42680449 19.72692001 26.18817906 18 36 C18.4532666 35.57178955 18.9065332 35.1435791 19.37353516 34.70239258 C21.45566464 32.73729331 23.54031037 30.77488297 25.625 28.8125 C26.33785156 28.13896484 27.05070312 27.46542969 27.78515625 26.77148438 C31.75439797 23.03894055 35.77065976 19.43550509 40 16 C46.99881643 18.97449698 52.55656212 26.01101852 57 32 C55.63917829 35.07884863 54.13251195 37.07086911 51.6640625 39.34765625 C51.01179688 39.95287109 50.35953125 40.55808594 49.6875 41.18164062 C49.006875 41.80232422 48.32625 42.42300781 47.625 43.0625 C46.95210938 43.68705078 46.27921875 44.31160156 45.5859375 44.95507812 C42.4904422 47.80988039 39.40119228 50.51062667 36 53 C36.6297876 52.90912109 37.2595752 52.81824219 37.90844727 52.72460938 C40.79243446 52.31136238 43.67743163 51.90562709 46.5625 51.5 C47.55314453 51.35691406 48.54378906 51.21382812 49.56445312 51.06640625 C54.76467588 50.34079377 59.74952418 49.82326589 65 50 C66.60850387 55.14315734 67.52795025 60.08852151 68.125 65.4375 C68.25455078 66.53481445 68.25455078 66.53481445 68.38671875 67.65429688 C68.59628393 69.43560094 68.79887868 71.21772281 69 73 C59.35625389 74.85694726 49.72018539 76.58524699 40 78 C42.91962687 80.32080544 45.86213316 82.0481472 49.203125 83.69921875 C50.67265625 84.42915039 50.67265625 84.42915039 52.171875 85.17382812 C53.18765625 85.67333984 54.2034375 86.17285156 55.25 86.6875 C56.28125 87.19861328 57.3125 87.70972656 58.375 88.23632812 C60.91489782 89.49451825 63.45658991 90.74892921 66 92 C64.4719611 97.09882455 62.28963144 101.65665659 59.875 106.375 C59.50246094 107.11105469 59.12992188 107.84710938 58.74609375 108.60546875 C57.8343878 110.40550358 56.91770068 112.20301402 56 114 C47.55173524 110.5598057 39.25672033 106.87533164 31 103 C31.35304199 103.55461914 31.70608398 104.10923828 32.06982422 104.68066406 C33.67353771 107.20251803 35.27429567 109.72623505 36.875 112.25 C37.70837891 113.55904297 37.70837891 113.55904297 38.55859375 114.89453125 C39.09355469 115.73886719 39.62851562 116.58320313 40.1796875 117.453125 C40.67194824 118.22817383 41.16420898 119.00322266 41.67138672 119.80175781 C42.89533537 121.82682832 43.97643877 123.8679347 45 126 C44.32324219 126.39832031 43.64648438 126.79664063 42.94921875 127.20703125 C40.77782594 128.52712304 38.64437622 129.87049957 36.51953125 131.26171875 C35.60977539 131.85629883 35.60977539 131.85629883 34.68164062 132.46289062 C33.42197257 133.28819038 32.16419351 134.11637968 30.90820312 134.94726562 C26.22132851 138 26.22132851 138 24 138 C22.81420898 136.38623047 22.81420898 136.38623047 21.49609375 134.1171875 C21.0067334 133.28550049 20.51737305 132.45381348 20.01318359 131.59692383 C19.49320801 130.69868896 18.97323242 129.8004541 18.4375 128.875 C17.35708333 127.04201611 16.27503958 125.20999034 15.19140625 123.37890625 C14.65402832 122.46898926 14.11665039 121.55907227 13.56298828 120.62158203 C11.3921451 116.98045207 9.15689723 113.38487255 6.875 109.8125 C6.17117188 108.70519531 5.46734375 107.59789062 4.7421875 106.45703125 C3.2334425 103.92049232 3.2334425 103.92049232 1 103 C0.896875 104.17691406 0.79375 105.35382813 0.6875 106.56640625 C-0.00320999 112.77428389 -1.29799281 118.85153041 -2.58398438 124.95922852 C-3.00405228 126.95676973 -3.41651185 128.95577941 -3.828125 130.95507812 C-5.86675613 140.73351227 -5.86675613 140.73351227 -7 143 C-14.52592433 142.3622098 -21.67098882 140.80110167 -29 139 C-28.33257039 131.94632283 -27.02431131 125.27775368 -25.37304688 118.3984375 C-24.46974193 114.52051297 -23.7510778 111.01487424 -24 107 C-26.39724312 109.22765452 -28.79253447 111.45739721 -31.1875 113.6875 C-31.86103516 114.31333984 -32.53457031 114.93917969 -33.22851562 115.58398438 C-36.11333396 118.27179073 -38.96554262 120.96514938 -41.73828125 123.76953125 C-43.72856497 125.73231537 -45.71811756 127.39423088 -48 129 C-52.09991955 124.99592273 -56.1542531 120.94190998 -60.0625 116.75 C-60.65160156 116.12609375 -61.24070313 115.5021875 -61.84765625 114.859375 C-63 113 -63 113 -62.7902832 111.10668945 C-61.81198632 108.49880444 -60.56257813 107.30512698 -58.5078125 105.43359375 C-57.80269531 104.78326172 -57.09757812 104.13292969 -56.37109375 103.46289062 C-55.25927734 102.46032227 -55.25927734 102.46032227 -54.125 101.4375 C-52.66905652 100.10309838 -51.21331958 98.76847137 -49.7578125 97.43359375 C-49.1095752 96.84634521 -48.46133789 96.25909668 -47.79345703 95.65405273 C-46.15257777 94.140718 -44.56559957 92.59067575 -43 91 C-43.77190674 91.12117188 -44.54381348 91.24234375 -45.33911133 91.3671875 C-48.8298773 91.91381049 -52.32117709 92.45694609 -55.8125 93 C-57.02744141 93.19078125 -58.24238281 93.3815625 -59.49414062 93.578125 C-60.65751953 93.75859375 -61.82089844 93.9390625 -63.01953125 94.125 C-64.09307861 94.29257813 -65.16662598 94.46015625 -66.27270508 94.6328125 C-69 95 -69 95 -72 95 C-72.50612064 92.1259578 -73.00506541 89.25097127 -73.5 86.375 C-73.64308594 85.56675781 -73.78617188 84.75851563 -73.93359375 83.92578125 C-74.13662109 82.73662109 -74.13662109 82.73662109 -74.34375 81.5234375 C-74.46943359 80.80075684 -74.59511719 80.07807617 -74.72460938 79.33349609 C-75.05035721 76.57330302 -75 73.77934839 -75 71 C-65.1 69.35 -55.2 67.7 -45 66 C-53.50623942 61.84577743 -53.50623942 61.84577743 -62.02319336 57.71362305 C-63.07643799 57.19324463 -64.12968262 56.67286621 -65.21484375 56.13671875 C-66.29886475 55.60780029 -67.38288574 55.07888184 -68.49975586 54.53393555 C-71 53 -71 53 -72 50 C-71.28735352 47.9152832 -71.28735352 47.9152832 -70.12890625 45.55078125 C-69.51499023 44.27944336 -69.51499023 44.27944336 -68.88867188 42.98242188 C-68.2322168 41.66081055 -68.2322168 41.66081055 -67.5625 40.3125 C-66.9118457 38.97348633 -66.9118457 38.97348633 -66.24804688 37.60742188 C-65.17408871 35.40049686 -64.091161 33.19845687 -63 31 C-56.85586646 31.47969149 -51.99657854 34.27709515 -46.625 37.0625 C-45.69816406 37.53494141 -44.77132812 38.00738281 -43.81640625 38.49414062 C-41.54046409 39.65557502 -39.26861227 40.82433067 -37 42 C-37.42933838 41.34926514 -37.85867676 40.69853027 -38.30102539 40.02807617 C-40.23223323 37.088095 -42.14748668 34.13805264 -44.0625 31.1875 C-44.73861328 30.16333984 -45.41472656 29.13917969 -46.11132812 28.08398438 C-46.74619141 27.10107422 -47.38105469 26.11816406 -48.03515625 25.10546875 C-48.6269165 24.19949951 -49.21867676 23.29353027 -49.82836914 22.36010742 C-51 20 -51 20 -50 17 C-48.37353516 15.6496582 -48.37353516 15.6496582 -46.2890625 14.30078125 C-45.53882813 13.81416016 -44.78859375 13.32753906 -44.015625 12.82617188 C-43.22671875 12.32666016 -42.4378125 11.82714844 -41.625 11.3125 C-40.45324219 10.54583008 -40.45324219 10.54583008 -39.2578125 9.76367188 C-33.38869534 6 -33.38869534 6 -30 6 C-28.37768555 8.04443359 -28.37768555 8.04443359 -26.63671875 10.8984375 C-25.99669922 11.93613281 -25.35667969 12.97382812 -24.69726562 14.04296875 C-24.03404297 15.14253906 -23.37082031 16.24210937 -22.6875 17.375 C-22.03587891 18.43589844 -21.38425781 19.49679688 -20.71289062 20.58984375 C-16.76385164 27.03322067 -12.88825014 33.51958309 -9 40 C-6.03 26.8 -3.06 13.6 0 0 Z " fill="#FD9A83" transform="translate(255,26)"/>
<path d="M0 0 C1.64493412 3.01995449 2.59668419 5.89860418 3.42041016 9.2331543 C3.68052887 10.27912277 3.94064758 11.32509125 4.20864868 12.40275574 C4.61970352 14.09637993 4.61970352 14.09637993 5.0390625 15.82421875 C5.32478119 16.99902298 5.61049988 18.17382721 5.90487671 19.38423157 C6.50792656 21.87758655 7.10791272 24.37168421 7.70507812 26.86645508 C8.61168771 30.63220522 9.54383378 34.39103888 10.4765625 38.15039062 C18.05637869 69.3653493 18.05637869 69.3653493 13.0625 81.625 C4.93506755 94.9594226 -11.46886278 98.17327491 -25.58520508 101.69067383 C-47.2781238 106.80796929 -69.75747554 110.49854231 -92 112 C-93.12220947 112.08241943 -93.12220947 112.08241943 -94.26708984 112.16650391 C-131.42287582 114.83228411 -168.43713399 111.85667712 -205 105 C-201.17480631 103.0082576 -197.23798123 101.75533438 -193.125 100.5 C-169.97476368 93.27126105 -147.3041466 85.57432268 -125 76 C-124.07477539 75.60425781 -123.14955078 75.20851563 -122.19628906 74.80078125 C-110.63903465 69.82279442 -99.4421177 64.2939422 -88.38427734 58.29150391 C-85.99800712 56.99892051 -83.6031567 55.72342231 -81.20703125 54.44921875 C-52.38173541 38.99842063 -25.45242008 20.49925163 0 0 Z " fill="#91B397" transform="translate(373,373)"/>
<path d="M0 0 C3.83923008 1.27974336 4.3107763 2.65462929 6.3984375 6.06640625 C7.04296875 7.10990234 7.6875 8.15339844 8.3515625 9.22851562 C9.01929688 10.32873047 9.68703125 11.42894531 10.375 12.5625 C11.365 14.1722168 11.365 14.1722168 12.375 15.81445312 C13.66429649 17.91148617 14.94925969 20.01119069 16.22949219 22.11376953 C17.78317296 24.64653485 19.37254291 27.15136183 20.9765625 29.65234375 C23 33 23 33 23 35 C23.46897705 34.6918335 23.9379541 34.38366699 24.42114258 34.06616211 C26.54480303 32.67920138 28.67835654 31.3082697 30.8125 29.9375 C31.55048828 29.45216797 32.28847656 28.96683594 33.04882812 28.46679688 C34.11713867 27.78520508 34.11713867 27.78520508 35.20703125 27.08984375 C36.18893433 26.45357056 36.18893433 26.45357056 37.19067383 25.80444336 C39 25 39 25 42 26 C43.36656128 28.13013875 44.54101441 30.19201471 45.6875 32.4375 C46.02910156 33.09113525 46.37070312 33.74477051 46.72265625 34.41821289 C50.84801819 42.44215479 54.4325061 50.7169623 58 59 C53.93671842 63.27042926 49.53213227 66.89389173 44.875 70.5 C44.09020264 71.10875977 43.30540527 71.71751953 42.49682617 72.34472656 C34.6067875 78.40134655 26.44483243 84.01968665 18.17529297 89.54199219 C16.22305257 90.8504972 14.28308201 92.17462645 12.34765625 93.5078125 C-16.97918022 113.58611279 -49.77648218 133.10362525 -83 146 C-81.77331264 139.04312099 -80.0055985 132.47018058 -77.7265625 125.7890625 C-77.40683975 124.83550873 -77.087117 123.88195496 -76.75770569 122.89950562 C-75.71910867 119.80607404 -74.67212113 116.7155554 -73.625 113.625 C-72.89759277 111.46374371 -72.17079244 109.30228307 -71.44458008 107.140625 C-69.98497836 102.79763644 -68.52256738 98.45560977 -67.05810547 94.11425781 C-64.98574386 87.96529789 -62.93564768 81.80913536 -60.89414978 75.64987183 C-58.97901091 69.87228342 -57.04744513 64.10033335 -55.11024475 58.33010864 C-53.64879714 53.96745769 -52.21564792 49.59642996 -50.79875183 45.21911621 C-49.83779145 42.26153066 -48.86106579 39.30929778 -47.8812561 36.35791016 C-47.42743439 34.97901721 -46.98035064 33.59788376 -46.54086304 32.21435547 C-43.94439647 24.05146452 -41.31620722 17.88014167 -35 12 C-34.06414062 11.0925 -33.12828125 10.185 -32.1640625 9.25 C-30.90722656 8.13625 -30.90722656 8.13625 -29.625 7 C-28.77164063 6.236875 -27.91828125 5.47375 -27.0390625 4.6875 C-25 3 -25 3 -24 3 C-24.66979104 10.32150894 -26.01670597 17.37910423 -27.5625 24.5625 C-27.91344727 26.21862305 -27.91344727 26.21862305 -28.27148438 27.90820312 C-28.84381062 30.60631255 -29.42006002 33.30351875 -30 36 C-29.43224854 36.05406006 -28.86449707 36.10812012 -28.27954102 36.16381836 C-23.39822686 36.66178682 -18.71553338 37.40571297 -13.9375 38.5625 C-12.81214844 38.83191406 -11.68679687 39.10132813 -10.52734375 39.37890625 C-9.69332031 39.58386719 -8.85929687 39.78882813 -8 40 C-7.86424561 39.32122803 -7.72849121 38.64245605 -7.58862305 37.94311523 C-5.05908203 25.29541016 -2.52954102 12.64770508 0 0 Z " fill="#91B398" transform="translate(256,129)"/>
</svg>
