<?xml version="1.0" encoding="UTF-8"?>
<svg version="1.1" xmlns="http://www.w3.org/2000/svg" width="512" height="512">
<path d="M0 0 C4.18506899 1.72966724 6.84815031 4.76103893 9.953125 7.9921875 C10.61989258 8.6732959 11.28666016 9.3544043 11.97363281 10.05615234 C16.41747006 14.64567148 20.59416958 19.38034302 24.546875 24.40234375 C26.49649569 26.85702923 28.51850429 29.22896168 30.57714844 31.59228516 C66.27424445 72.77442112 90.62985763 123.46145084 99.703125 177.1171875 C99.82913086 177.84486328 99.95513672 178.57253906 100.08496094 179.32226562 C102.33606987 192.77548046 102.33584522 206.51290547 102.703125 220.1171875 C103.74082031 220.09398437 104.77851563 220.07078125 105.84765625 220.046875 C119.40853668 220.29418589 131.86837433 226.48568085 141.515625 235.77734375 C150.55770551 245.44914058 154.35372631 256.81004018 154.17578125 270.02246094 C153.3914726 287.79728201 145.52507233 302.1698614 132.703125 314.1171875 C118.31710652 324.97743443 101.03138083 327.20879552 83.50244141 324.81689453 C69.01027281 321.947701 53.95017905 313.9092695 45.265625 301.7421875 C44.3691747 300.22471801 43.51419655 298.68195577 42.703125 297.1171875 C42.29191406 296.34375 41.88070312 295.5703125 41.45703125 294.7734375 C36.23394231 283.06215158 37.42887356 268.30238464 41.375 256.39453125 C47.0950811 242.27938995 55.4628131 228.47343723 69.75 221.9296875 C74.95960044 219.76249372 79.32099377 219.02464985 84.9375 219.0703125 C86.01741211 219.07708008 87.09732422 219.08384766 88.20996094 219.09082031 C89.03270508 219.09952148 89.85544922 219.10822266 90.703125 219.1171875 C87.29688182 154.87627189 67.28450685 97.60186499 26.703125 47.1171875 C25.89101563 46.10398438 25.07890625 45.09078125 24.2421875 44.046875 C22.08211785 41.38657869 19.89919685 38.74781773 17.703125 36.1171875 C16.7784829 35.00534382 15.85401204 33.8933577 14.9296875 32.78125 C12.52477077 29.88992687 10.11516432 27.00257065 7.703125 24.1171875 C7.68854248 24.84381592 7.67395996 25.57044434 7.65893555 26.3190918 C5.97431223 102.44858866 -15.26802449 170.10829497 -61.296875 231.1171875 C-60.45125 231.65085937 -59.605625 232.18453125 -58.734375 232.734375 C-46.56154321 240.63764486 -38.19368074 249.87287202 -34.984375 264.3671875 C-32.92794971 277.80873099 -35.83175078 291.15475256 -43.66381836 302.31835938 C-52.5655417 314.1619874 -65.19746381 322.12292924 -79.84765625 324.83203125 C-97.40502793 326.87619095 -113.95076435 322.73062361 -127.984375 311.9296875 C-137.11805816 304.13767531 -143.42630313 294.09234385 -145.296875 282.1171875 C-146.31472674 267.03295851 -143.87517869 254.28011282 -134.296875 242.1171875 C-124.14123504 230.86786324 -110.35879041 225.71995585 -95.42578125 224.90625 C-89.69357048 224.84852381 -84.55749954 225.04149903 -78.984375 226.3671875 C-76.60878894 226.74764457 -76.60878894 226.74764457 -74.296875 226.1171875 C-70.15121243 222.72406011 -67.28836467 218.50340221 -64.296875 214.1171875 C-63.81959961 213.4355957 -63.34232422 212.75400391 -62.85058594 212.05175781 C-28.95796951 163.54226056 -5.38862648 104.22503133 -6.33984375 44.3359375 C-6.36219991 41.92448709 -6.38365873 39.51302822 -6.40429688 37.1015625 C-6.44159017 33.33765627 -6.48504519 29.57418489 -6.54370117 25.81054688 C-6.59793108 22.15227773 -6.62719196 18.49450631 -6.65234375 14.8359375 C-6.68801704 13.13914856 -6.68801704 13.13914856 -6.72441101 11.40808105 C-6.72794083 10.36269165 -6.73147064 9.31730225 -6.73510742 8.24023438 C-6.74700607 7.32077026 -6.75890472 6.40130615 -6.77116394 5.45397949 C-6.296875 3.1171875 -6.296875 3.1171875 -4.41304016 1.30432129 C-2.296875 0.1171875 -2.296875 0.1171875 0 0 Z " fill="#FD9983" transform="translate(251.296875,137.8828125)"/>
<path d="M0 0 C-1.86231976 4.71787674 -5.69051617 7.95416193 -9.27539062 11.40234375 C-10.99412435 13.09649919 -10.99412435 13.09649919 -13 16 C-12.98035716 19.30199378 -12.98035716 19.30199378 -12 22 C-9.85945818 23.05050452 -9.85945818 23.05050452 -7 23 C-1.27911273 19.03938573 2.72169835 13.84565875 6.984375 8.390625 C9 6 9 6 12 4 C24.49771704 11.09125997 34.38586434 19.09760389 38.5 33.57421875 C41.35054303 47.40380643 39.61544825 60.9504918 32 73 C23.4087345 85.79883289 11.4159731 93.34084981 -3.375 97.3125 C-18.28571195 100.06977708 -35.17758267 97.29436897 -48 89 C-59.3858556 81.00770025 -67.16919506 71.30422107 -70.58203125 57.67578125 C-72.85422539 43.12949165 -70.34705717 29.71244774 -61.96875 17.5 C-47.34232634 -1.07323639 -22.15124651 -5.83750496 0 0 Z " fill="#FD9983" transform="translate(177,365)"/>
<path d="M0 0 C-2.15028961 21.65119191 -11.88703886 40.99738819 -28.5078125 55.1328125 C-44.84433229 67.26701209 -65.02446471 68.97441718 -84.64135742 66.22705078 C-93.35235782 64.81456202 -102.5805336 62.4194664 -109 56 C-109.80971088 38.15937038 -101.736071 21.02310445 -89.9921875 8.05078125 C-66.2888457 -16.84161343 -27.99172131 -18.66114754 0 0 Z " fill="#91B398" transform="translate(379,80)"/>
<path d="M0 0 C4.18506899 1.72966724 6.84815031 4.76103893 9.953125 7.9921875 C10.61989258 8.6732959 11.28666016 9.3544043 11.97363281 10.05615234 C16.41747006 14.64567148 20.59416958 19.38034302 24.546875 24.40234375 C26.49649569 26.85702923 28.51850429 29.22896168 30.57714844 31.59228516 C66.27424445 72.77442112 90.62985763 123.46145084 99.703125 177.1171875 C99.82913086 177.84486328 99.95513672 178.57253906 100.08496094 179.32226562 C100.85167706 183.90436139 101.34920289 188.48776864 101.703125 193.1171875 C101.77547363 194.03532227 101.84782227 194.95345703 101.92236328 195.89941406 C102.93689702 209.9155878 102.71882145 223.64253871 101.453125 237.6171875 C101.36232162 238.67643433 101.36232162 238.67643433 101.26968384 239.75708008 C101.09241391 241.7640865 100.89047393 243.76886747 100.6875 245.7734375 C100.57116211 246.92650391 100.45482422 248.07957031 100.33496094 249.26757812 C99.67298605 252.25311556 99.21023068 253.40494306 96.703125 255.1171875 C93.36119808 254.87265626 92.09768943 254.51175193 89.703125 252.1171875 C89.48280334 250.15344238 89.48280334 250.15344238 89.52368164 247.71289062 C89.53336975 246.79501266 89.54305786 245.8771347 89.55303955 244.93144226 C89.57291931 243.93055069 89.59279907 242.92965912 89.61328125 241.8984375 C89.63650193 239.75952874 89.65901705 237.62061223 89.6809082 235.48168945 C89.69546051 234.35977203 89.71001282 233.23785461 89.7250061 232.0819397 C89.9457663 213.25131073 90.11310133 194.70386701 86.703125 176.1171875 C86.52620117 175.13943359 86.34927734 174.16167969 86.16699219 173.15429688 C77.46840338 126.67168244 56.23524753 83.85619474 26.703125 47.1171875 C25.89101563 46.10398438 25.07890625 45.09078125 24.2421875 44.046875 C22.08211785 41.38657869 19.89919685 38.74781773 17.703125 36.1171875 C16.7784829 35.00534382 15.85401204 33.8933577 14.9296875 32.78125 C12.52477077 29.88992687 10.11516432 27.00257065 7.703125 24.1171875 C7.68854248 24.84381592 7.67395996 25.57044434 7.65893555 26.3190918 C6.06966369 98.13957872 -12.34551545 164.75579819 -55.296875 223.1171875 C-55.79477539 223.80490234 -56.29267578 224.49261719 -56.80566406 225.20117188 C-59.72218176 229.18044108 -62.74487861 232.67482063 -66.296875 236.1171875 C-67.35704705 237.2817499 -68.40855923 238.4542317 -69.453125 239.6328125 C-70.27490234 240.54933594 -70.27490234 240.54933594 -71.11328125 241.484375 C-72.2434623 242.74828977 -73.36579281 244.01926499 -74.48046875 245.296875 C-78.60814113 249.86159504 -78.60814113 249.86159504 -82.0546875 251.140625 C-84.296875 251.1171875 -84.296875 251.1171875 -86.671875 249.4921875 C-88.296875 247.1171875 -88.296875 247.1171875 -88.265625 244.875 C-86.87713826 240.92229177 -84.33515434 238.55775752 -81.421875 235.6171875 C-77.84162227 231.95189314 -74.84908518 228.59599646 -72.296875 224.1171875 C-70.7977468 222.14218925 -69.2745579 220.1853396 -67.734375 218.2421875 C-30.08967199 169.92501714 -5.36040381 106.00194391 -6.33984375 44.3359375 C-6.36219991 41.92448709 -6.38365873 39.51302822 -6.40429688 37.1015625 C-6.44159017 33.33765627 -6.48504519 29.57418489 -6.54370117 25.81054688 C-6.59793108 22.15227773 -6.62719196 18.49450631 -6.65234375 14.8359375 C-6.68801704 13.13914856 -6.68801704 13.13914856 -6.72441101 11.40808105 C-6.72794083 10.36269165 -6.73147064 9.31730225 -6.73510742 8.24023438 C-6.74700607 7.32077026 -6.75890472 6.40130615 -6.77116394 5.45397949 C-6.296875 3.1171875 -6.296875 3.1171875 -4.41304016 1.30432129 C-2.296875 0.1171875 -2.296875 0.1171875 0 0 Z " fill="#614D48" transform="translate(251.296875,137.8828125)"/>
</svg>
