<?xml version="1.0" encoding="UTF-8"?>
<svg version="1.1" xmlns="http://www.w3.org/2000/svg" width="512" height="512">
<path d="M0 0 C2.08447797 -0.00966714 4.16795086 -0.04076444 6.25219727 -0.07226562 C18.39789085 -0.16883826 32.22183025 0.26618187 41.41821289 9.24023438 C44.90718785 13.9175523 46.25342987 18.39371552 45.41821289 24.24023438 C43.33855026 30.90815268 39.39572145 34.79691671 33.41821289 38.24023438 C19.79847456 43.84836192 1.81369411 41.34500498 -12.58178711 41.24023438 C-12.05858887 41.45115723 -11.53539062 41.66208008 -10.99633789 41.87939453 C19.06643435 54.06986521 19.06643435 54.06986521 25.41821289 65.24023438 C27.75872588 71.03579034 27.79054258 76.21391704 26.41821289 82.24023438 C24.17056051 86.65526583 21.98549699 89.26799806 17.41821289 91.24023438 C1.19759276 94.93967405 -13.90917899 85.97301369 -27.33178711 77.92773438 C-28.96760742 76.9599707 -28.96760742 76.9599707 -30.63647461 75.97265625 C-33.28908687 74.40203057 -35.93732843 72.82453586 -38.58178711 71.24023438 C-35.92166847 74.61726196 -33.21642474 77.6113994 -30.08178711 80.55273438 C-25.72827305 84.86749312 -21.91143583 89.42125443 -18.20678711 94.30273438 C-17.70727539 94.95089111 -17.20776367 95.59904785 -16.69311523 96.2668457 C-10.80125221 104.18925464 -7.22113569 112.22855104 -7.58178711 122.24023438 C-8.64073628 128.29404999 -10.73262157 132.31471942 -15.58178711 136.24023438 C-16.28303711 136.83835938 -16.98428711 137.43648437 -17.70678711 138.05273438 C-23.36730438 140.39077412 -28.84458143 140.17144868 -34.61303711 138.20898438 C-46.06123158 132.89796632 -53.91943274 124.80734611 -60.58178711 114.24023438 C-60.52120117 115.17480469 -60.46061523 116.109375 -60.39819336 117.07226562 C-60.16878859 120.66862652 -59.94570257 124.26526446 -59.72729492 127.86230469 C-59.63219473 129.41645889 -59.53526724 130.97050264 -59.4362793 132.52441406 C-55.69453887 191.7050025 -64.96536389 250.70416111 -83.58178711 306.86523438 C-83.82705139 307.60856018 -84.07231567 308.35188599 -84.32501221 309.11773682 C-87.94416816 320.03149392 -92.08640753 330.65846993 -96.58178711 341.24023438 C-96.25178711 341.57023437 -95.92178711 341.90023438 -95.58178711 342.24023438 C-95.13488525 341.77762207 -94.6879834 341.31500977 -94.22753906 340.83837891 C-85.1772038 331.51351024 -76.25688873 322.70889521 -65.58178711 315.24023438 C-65.04505371 314.85915527 -64.50832031 314.47807617 -63.95532227 314.08544922 C-49.07822736 303.57602179 -33.01982743 294.7851873 -17.10009766 285.98046875 C9.84812169 271.0610973 34.73121232 253.89237513 58.41821289 234.24023438 C58.74821289 234.90023437 59.07821289 235.56023437 59.41821289 236.24023438 C58.77246094 237.8815918 58.77246094 237.8815918 57.67993164 239.84570312 C57.27742187 240.57394287 56.87491211 241.30218262 56.46020508 242.05249023 C56.01322266 242.8363208 55.56624023 243.62015137 55.10571289 244.42773438 C54.64712891 245.23927979 54.18854492 246.0508252 53.71606445 246.88696289 C42.99565704 265.62566271 30.27528846 283.57277286 15.41821289 299.24023438 C14.30826265 300.54784699 13.20374397 301.86009708 12.10571289 303.17773438 C-1.22169245 318.39577164 -17.98198358 330.46064762 -35.58178711 340.24023438 C-36.25951172 340.61825195 -36.93723633 340.99626953 -37.63549805 341.38574219 C-47.73805126 346.96836576 -58.09527598 351.92434857 -68.58178711 356.74023438 C-100.08488401 369.91982335 -100.08488401 369.91982335 -123.58178711 393.24023438 C-125.49010511 396.19718256 -127.44154501 399.12498847 -129.39428711 402.05273438 C-129.914021 402.83551758 -130.43375488 403.61830078 -130.96923828 404.42480469 C-135.54724982 411.28078463 -140.37163031 417.84926641 -145.58178711 424.24023438 C-146.0295752 424.79098633 -146.47736328 425.34173828 -146.9387207 425.90917969 C-152.80917776 433.07125972 -159.00624519 439.9090339 -165.45678711 446.55273438 C-166.07513428 447.2054834 -166.69348145 447.85823242 -167.33056641 448.53076172 C-170.16726708 451.39392344 -171.96475075 453.0499266 -175.87475586 454.25585938 C-178.58178711 454.24023438 -178.58178711 454.24023438 -181.01928711 452.67773438 C-182.58178711 450.24023438 -182.58178711 450.24023438 -182.42114258 447.35351562 C-181.45950832 443.78668607 -180.38495785 442.49283705 -177.71459961 439.99023438 C-176.91666992 439.22420898 -176.11874023 438.45818359 -175.29663086 437.66894531 C-174.44198242 436.8674707 -173.58733398 436.06599609 -172.70678711 435.24023438 C-165.42344648 428.1868655 -158.79133639 421.11248667 -152.8190918 412.92626953 C-151.54716147 411.19305114 -150.24383786 409.48741053 -148.93334961 407.78320312 C-130.47849635 383.55311326 -104.44876282 346.41231827 -100.58178711 315.24023438 C-106.94548814 303.58355026 -120.27922746 292.86231602 -130.53100586 284.68554688 C-145.4209668 272.45764182 -153.99564859 254.11450848 -156.58178711 235.24023438 C-157.63464623 218.46156246 -156.71073866 197.79555618 -145.58178711 184.24023438 C-145.56760742 185.17480469 -145.55342773 186.109375 -145.53881836 187.07226562 C-144.64067718 211.80755922 -134.81934865 231.69216904 -121.96264648 252.40014648 C-97.58178711 291.85466285 -97.58178711 291.85466285 -97.58178711 306.24023438 C-96.92178711 306.24023438 -96.26178711 306.24023438 -95.58178711 306.24023438 C-95.21633789 304.45939453 -95.21633789 304.45939453 -94.84350586 302.64257812 C-93.6544307 297.28913457 -92.10507716 292.05987075 -90.56103516 286.79980469 C-77.71085058 242.93200352 -70.85195427 198.00075347 -71.58178711 152.24023438 C-72.18635742 153.35527344 -72.79092773 154.4703125 -73.41381836 155.61914062 C-75.49014793 159.44861841 -77.3311858 160.87683396 -81.58178711 162.24023438 C-87.27100632 162.96543108 -91.77167808 162.58639718 -96.58178711 159.24023438 C-112.76999056 145.11629848 -112.89269295 117.00789635 -114.34814453 97.15942383 C-114.54358263 95.02274171 -114.54358263 95.02274171 -115.58178711 92.24023438 C-115.89889648 93.22378906 -116.21600586 94.20734375 -116.54272461 95.22070312 C-122.49324601 113.13799475 -130.33726835 130.02481595 -141.58178711 145.24023438 C-142.48864258 146.48740234 -142.48864258 146.48740234 -143.41381836 147.75976562 C-148.04856432 153.61018266 -153.78875706 157.44257253 -161.23413086 158.68164062 C-166.80117786 158.9411571 -170.32496393 158.08175774 -174.58178711 154.24023438 C-180.16101661 146.54474541 -179.68885169 136.20956199 -178.24780273 127.13769531 C-172.32204757 98.83618138 -151.61285986 75.00232491 -131.58178711 55.24023438 C-129.5484246 53.34235135 -129.5484246 53.34235135 -128.58178711 51.24023438 C-128.82723545 49.22755799 -129.18414448 47.22844751 -129.58178711 45.24023438 C-130.47747884 35.08372989 -128.49561684 27.40565984 -121.95678711 19.49023438 C-113.75897633 10.91359685 -103.42125815 6.38346792 -91.58178711 5.80273438 C-85.33242716 6.00239444 -78.40346074 7.8522421 -73.57397461 11.93945312 C-71.64677481 13.50921213 -71.64677481 13.50921213 -69.25610352 12.91455078 C-66.73195216 12.27809779 -64.27463019 11.56019985 -61.80053711 10.75195312 C-48.86168536 6.61380054 -36.02471829 3.26740018 -22.58178711 1.24023438 C-21.90623779 1.13710938 -21.23068848 1.03398437 -20.53466797 0.92773438 C-13.71910124 0.02915465 -6.86402007 0.01915763 0 0 Z " fill="#FD9A83" transform="translate(314.581787109375,30.759765625)"/>
<path d="M0 0 C2.65723248 1.32861624 2.89941102 2.62563185 4.125 5.3125 C6.61886697 10.53845407 9.75413366 15.03273976 13.23046875 19.65234375 C17.69278738 28.09430195 17.51945018 38.51950454 18.125 47.875 C18.2084668 49.15511963 18.29193359 50.43523926 18.37792969 51.75415039 C21.88681664 108.92394427 11.95817113 166.44970799 -6 220.625 C-6.24526428 221.36832581 -6.49052856 222.11165161 -6.7432251 222.87750244 C-10.36238105 233.79125955 -14.50462042 244.41823556 -19 255 C-18.67 255.33 -18.34 255.66 -18 256 C-17.32964722 255.30608154 -17.32964722 255.30608154 -16.64575195 254.59814453 C-7.59541669 245.27327586 1.32489838 236.46866084 12 229 C12.8051001 228.42838135 12.8051001 228.42838135 13.62646484 227.84521484 C28.50355975 217.33578741 44.56195968 208.54495293 60.48168945 199.74023438 C87.42990879 184.82086292 112.31299943 167.65214076 136 148 C136.33 148.66 136.66 149.32 137 150 C136.35424805 151.64135742 136.35424805 151.64135742 135.26171875 153.60546875 C134.85920898 154.3337085 134.45669922 155.06194824 134.04199219 155.81225586 C133.59500977 156.59608643 133.14802734 157.37991699 132.6875 158.1875 C132.22891602 158.99904541 131.77033203 159.81059082 131.29785156 160.64672852 C120.57744415 179.38542834 107.85707557 197.33253849 93 213 C91.89004976 214.30761261 90.78553108 215.61986271 89.6875 216.9375 C76.36009466 232.15553726 59.59980353 244.22041324 42 254 C41.32227539 254.37801758 40.64455078 254.75603516 39.94628906 255.14550781 C29.84373585 260.72813138 19.48651113 265.6841142 9 270.5 C-22.5030969 283.67958897 -22.5030969 283.67958897 -46 307 C-47.908318 309.95694819 -49.8597579 312.8847541 -51.8125 315.8125 C-52.33223389 316.5952832 -52.85196777 317.37806641 -53.38745117 318.18457031 C-57.96546271 325.04055026 -62.7898432 331.60903203 -68 338 C-68.44778809 338.55075195 -68.89557617 339.10150391 -69.35693359 339.66894531 C-75.22739065 346.83102535 -81.42445809 353.66879953 -87.875 360.3125 C-88.49334717 360.96524902 -89.11169434 361.61799805 -89.7487793 362.29052734 C-92.58547997 365.15368906 -94.38296364 366.80969223 -98.29296875 368.015625 C-101 368 -101 368 -103.4375 366.4375 C-105 364 -105 364 -104.83935547 361.11328125 C-103.87772121 357.5464517 -102.80317074 356.25260267 -100.1328125 353.75 C-99.33488281 352.98397461 -98.53695312 352.21794922 -97.71484375 351.42871094 C-96.86019531 350.62723633 -96.00554687 349.82576172 -95.125 349 C-87.84165937 341.94663112 -81.20954928 334.8722523 -75.23730469 326.68603516 C-73.96537436 324.95281676 -72.66205075 323.24717615 -71.3515625 321.54296875 C-52.89670924 297.31287888 -26.86697571 260.17208389 -23 229 C-29.36370103 217.34331589 -42.69744035 206.62208165 -52.94921875 198.4453125 C-67.83917969 186.21740745 -76.41386148 167.8742741 -79 149 C-80.05285912 132.22132808 -79.12895155 111.55532181 -68 98 C-67.98582031 98.93457031 -67.97164062 99.86914062 -67.95703125 100.83203125 C-67.05889007 125.56732484 -57.23756154 145.45193466 -44.38085938 166.15991211 C-20 205.61442847 -20 205.61442847 -20 220 C-19.34 220 -18.68 220 -18 220 C-17.75636719 218.81277344 -17.51273437 217.62554687 -17.26171875 216.40234375 C-16.07264359 211.04890019 -14.52329005 205.81963637 -12.97924805 200.55957031 C-4.95486127 173.166018 0.64430972 145.35492663 4 117 C4.11714355 116.06784668 4.23428711 115.13569336 4.35498047 114.17529297 C6.26755011 98.40014578 6.20537555 82.55438818 6.25 66.6875 C6.2580365 65.08439972 6.2580365 65.08439972 6.26623535 63.44891357 C6.34834746 41.82979006 4.28340537 21.17226083 0 0 Z " fill="#614D48" transform="translate(237,117)"/>
<path d="M0 0 C0.33 0.66 0.66 1.32 1 2 C0.35424805 3.64135742 0.35424805 3.64135742 -0.73828125 5.60546875 C-1.14079102 6.3337085 -1.54330078 7.06194824 -1.95800781 7.81225586 C-2.40499023 8.59608643 -2.85197266 9.37991699 -3.3125 10.1875 C-4.00037598 11.40481812 -4.00037598 11.40481812 -4.70214844 12.64672852 C-15.42255585 31.38542834 -28.14292443 49.33253849 -43 65 C-44.10995024 66.30761261 -45.21446892 67.61986271 -46.3125 68.9375 C-59.63990534 84.15553726 -76.40019647 96.22041324 -94 106 C-94.67772461 106.37801758 -95.35544922 106.75603516 -96.05371094 107.14550781 C-106.15626415 112.72813138 -116.51348887 117.6841142 -127 122.5 C-142.73834023 129.73408013 -157.93525107 137.18098599 -172.19140625 147.06640625 C-175 149 -175 149 -177 150 C-175.42740271 144.58713751 -172.96715039 139.87554893 -170.3125 134.9375 C-169.90322266 134.16728516 -169.49394531 133.39707031 -169.07226562 132.60351562 C-168.20298601 130.97044501 -167.32632784 129.34128628 -166.44335938 127.71557617 C-165.41498158 125.78075779 -164.42545231 123.82507917 -163.46289062 121.85668945 C-159.34843021 113.66342567 -154.48201315 107.63015055 -147.875 101.3125 C-146.94284668 100.40330811 -146.01069336 99.49411621 -145.05029297 98.55737305 C-138.38694086 92.13608306 -131.64170547 86.24086314 -124 81 C-123.20360107 80.43708252 -123.20360107 80.43708252 -122.39111328 79.86279297 C-107.50926677 69.34489442 -91.44581047 60.54925036 -75.51831055 51.74023438 C-48.57009121 36.82086292 -23.68700057 19.65214076 0 0 Z " fill="#69AB96" transform="translate(373,265)"/>
<path d="M0 0 C0.33 0 0.66 0 1 0 C1.01417969 0.93457031 1.02835938 1.86914062 1.04296875 2.83203125 C1.94110993 27.56732484 11.76243846 47.45193466 24.61914062 68.15991211 C32.87157909 81.5144852 40.40266908 95.32262455 46.1875 109.9375 C46.60696899 110.99191284 46.60696899 110.99191284 47.03491211 112.06762695 C49.08662768 117.54085082 50.85600716 123.26077709 49.0625 129 C48.5365625 129.99 48.5365625 129.99 48 131 C47.34 131 46.68 131 46 131 C44.81821695 129.63034374 43.70603084 128.20049708 42.625 126.75 C34.96338522 116.92920287 25.78030803 108.20553627 16.05078125 100.4453125 C1.16082031 88.21740745 -7.41386148 69.8742741 -10 51 C-11.13404259 32.92756447 -8.41090057 16.24040248 0 0 Z " fill="#69AC96" transform="translate(168,215)"/>
<path d="M0 0 C3.90806872 4.14492137 5.9695611 7.26676277 6.25 13.0625 C4.63649764 21.25656102 -2.58950249 27.36030724 -8.93359375 32.203125 C-19.70027063 39.31557215 -33.62105561 47.11627072 -46.9375 45.1875 C-51.09008823 43.43418497 -53.4107156 40.8874343 -55.9375 37.1875 C-58.34262712 29.68541474 -57.53953147 21.69284905 -54.3203125 14.6015625 C-48.69818111 4.78665515 -40.16982505 -1.41784949 -29.4375 -4.6875 C-18.63281018 -7.22174607 -9.53057974 -5.88057048 0 0 Z " fill="#FECE87" transform="translate(241.9375,42.8125)"/>
</svg>
