<svg id="svg" version="1.1" xmlns="http://www.w3.org/2000/svg" xmlns:xlink="http://www.w3.org/1999/xlink" width="400" height="400" viewBox="0, 0, 400,400"><g id="svgg"><path id="path0" d="M143.820 108.938 C 143.259 109.674,142.804 110.619,142.809 111.038 C 142.814 111.489,143.116 111.142,143.550 110.187 C 143.953 109.300,144.714 108.367,145.241 108.114 C 145.941 107.778,146.017 107.647,145.520 107.627 C 145.147 107.612,144.382 108.202,143.820 108.938 M148.433 107.721 C 148.525 107.788,149.140 108.176,149.800 108.583 L 151.000 109.324 150.238 108.462 C 149.819 107.988,149.204 107.600,148.871 107.600 C 148.539 107.600,148.342 107.654,148.433 107.721 M150.961 112.543 C 150.936 114.376,151.029 115.041,151.221 114.400 C 151.619 113.069,151.660 110.712,151.294 110.143 C 151.132 109.892,150.982 110.972,150.961 112.543 M142.249 113.415 C 142.112 113.773,142.020 114.636,142.044 115.333 C 142.082 116.437,142.133 116.371,142.436 114.825 C 142.793 113.005,142.694 112.257,142.249 113.415 M150.178 117.778 C 150.027 118.581,149.994 119.327,150.104 119.437 C 150.214 119.547,150.427 118.981,150.578 118.178 C 150.728 117.375,150.762 116.628,150.652 116.518 C 150.542 116.408,150.328 116.975,150.178 117.778 M141.476 117.610 C 141.330 118.155,141.228 119.140,141.249 119.800 C 141.280 120.757,141.359 120.636,141.642 119.200 C 142.029 117.233,141.902 116.017,141.476 117.610 M149.378 122.178 C 149.227 122.981,149.194 123.727,149.304 123.837 C 149.414 123.947,149.627 123.381,149.778 122.578 C 149.928 121.775,149.962 121.028,149.852 120.918 C 149.742 120.808,149.528 121.375,149.378 122.178 M140.656 122.084 C 140.521 122.588,140.430 123.540,140.453 124.200 C 140.481 125.028,140.597 124.784,140.826 123.413 C 141.176 121.323,141.074 120.526,140.656 122.084 M148.600 126.400 C 148.446 127.310,148.411 128.144,148.521 128.254 C 148.631 128.364,148.846 127.710,149.000 126.800 C 149.154 125.890,149.189 125.056,149.079 124.946 C 148.969 124.836,148.754 125.490,148.600 126.400 M139.856 126.484 C 139.721 126.988,139.630 127.940,139.653 128.600 C 139.681 129.428,139.797 129.184,140.026 127.813 C 140.376 125.723,140.274 124.926,139.856 126.484 M147.869 130.356 C 147.721 131.095,147.620 132.083,147.644 132.550 C 147.668 133.018,147.847 132.590,148.042 131.600 C 148.237 130.610,148.338 129.623,148.267 129.406 C 148.196 129.190,148.017 129.617,147.869 130.356 M139.002 131.459 C 138.864 132.307,138.596 133.810,138.406 134.800 C 138.216 135.790,137.853 137.770,137.600 139.200 C 137.347 140.630,136.984 142.610,136.794 143.600 C 136.131 147.050,135.930 148.598,136.176 148.355 C 136.313 148.220,136.599 147.095,136.812 145.855 C 137.025 144.615,137.380 142.610,137.600 141.400 C 137.820 140.190,138.180 138.210,138.400 137.000 C 139.336 131.853,139.573 130.240,139.417 130.084 C 139.326 129.993,139.139 130.612,139.002 131.459 M147.069 134.756 C 146.921 135.495,146.820 136.483,146.844 136.950 C 146.868 137.417,147.047 136.990,147.242 136.000 C 147.437 135.010,147.538 134.023,147.467 133.806 C 147.396 133.590,147.217 134.017,147.069 134.756 M146.269 139.156 C 146.121 139.895,146.020 140.883,146.044 141.350 C 146.068 141.817,146.247 141.390,146.442 140.400 C 146.637 139.410,146.738 138.423,146.667 138.206 C 146.596 137.990,146.417 138.417,146.269 139.156 M145.469 143.556 C 145.321 144.295,145.220 145.282,145.244 145.750 C 145.268 146.218,145.447 145.790,145.642 144.800 C 145.837 143.810,145.938 142.823,145.867 142.606 C 145.796 142.390,145.617 142.817,145.469 143.556 M144.493 149.600 C 144.493 150.370,144.575 150.685,144.676 150.300 C 144.776 149.915,144.776 149.285,144.676 148.900 C 144.575 148.515,144.493 148.830,144.493 149.600 M135.454 150.754 C 135.300 151.718,135.258 152.591,135.361 152.694 C 135.630 152.963,136.115 150.145,135.907 149.522 C 135.812 149.236,135.608 149.790,135.454 150.754 M143.455 154.655 C 143.313 155.686,143.274 156.608,143.369 156.702 C 143.463 156.796,143.665 156.039,143.818 155.018 C 143.971 153.998,144.010 153.076,143.904 152.971 C 143.798 152.865,143.596 153.623,143.455 154.655 M134.640 155.240 C 134.493 156.157,134.452 156.985,134.547 157.080 C 134.642 157.176,134.846 156.510,135.000 155.600 C 135.154 154.690,135.196 153.862,135.093 153.760 C 134.990 153.657,134.787 154.323,134.640 155.240 M142.655 159.055 C 142.513 160.086,142.474 161.008,142.569 161.102 C 142.663 161.196,142.865 160.439,143.018 159.418 C 143.171 158.398,143.210 157.476,143.104 157.371 C 142.998 157.265,142.796 158.023,142.655 159.055 M133.840 159.640 C 133.693 160.557,133.652 161.385,133.747 161.480 C 133.842 161.576,134.046 160.910,134.200 160.000 C 134.354 159.090,134.396 158.262,134.293 158.160 C 134.190 158.057,133.987 158.723,133.840 159.640 M142.054 162.400 C 142.019 162.950,141.896 163.850,141.783 164.400 L 141.577 165.400 142.007 164.415 C 142.243 163.874,142.365 162.974,142.278 162.415 L 142.120 161.400 142.054 162.400 M133.018 164.218 C 132.865 165.239,132.822 166.155,132.922 166.255 C 133.022 166.355,133.229 165.602,133.382 164.582 C 133.535 163.561,133.578 162.645,133.478 162.545 C 133.378 162.445,133.171 163.198,133.018 164.218 M141.260 166.850 C 141.227 167.428,141.111 168.508,141.001 169.250 L 140.803 170.600 141.224 169.257 C 141.455 168.519,141.572 167.439,141.482 166.857 L 141.320 165.800 141.260 166.850 M158.884 167.539 C 158.575 167.736,159.128 167.867,160.264 167.867 C 161.551 167.867,161.909 167.769,161.380 167.561 C 160.333 167.152,159.507 167.144,158.884 167.539 M132.272 169.004 C 132.127 169.882,132.030 171.410,132.056 172.400 C 132.093 173.803,132.180 173.539,132.451 171.200 C 132.828 167.953,132.701 166.405,132.272 169.004 M156.922 168.900 C 156.473 169.395,155.986 170.340,155.840 171.000 C 155.647 171.878,155.685 172.039,155.982 171.600 C 156.205 171.270,156.391 170.742,156.394 170.426 C 156.397 170.110,156.791 169.435,157.270 168.926 C 157.748 168.417,158.049 168.000,157.939 168.000 C 157.829 168.000,157.372 168.405,156.922 168.900 M163.194 169.003 C 164.787 170.921,164.921 171.045,164.486 170.196 C 164.259 169.753,163.652 169.034,163.137 168.598 C 162.233 167.834,162.235 167.848,163.194 169.003 M140.540 175.200 C 140.540 177.070,140.609 177.835,140.693 176.900 C 140.777 175.965,140.777 174.435,140.693 173.500 C 140.609 172.565,140.540 173.330,140.540 175.200 M156.046 173.020 C 156.021 173.471,156.176 174.016,156.392 174.232 C 156.607 174.447,157.154 175.338,157.606 176.212 C 158.074 177.115,158.313 177.368,158.162 176.800 C 158.015 176.250,157.580 175.350,157.194 174.800 C 156.809 174.250,156.403 173.440,156.293 173.000 C 156.097 172.216,156.092 172.216,156.046 173.020 M166.463 175.400 C 166.454 175.840,166.595 176.920,166.777 177.800 L 167.108 179.400 167.114 178.000 C 167.117 177.230,166.976 176.150,166.800 175.600 C 166.541 174.791,166.477 174.753,166.463 175.400 M132.040 178.633 C 132.062 179.715,132.229 181.050,132.411 181.600 C 132.612 182.209,132.653 181.504,132.516 179.800 C 132.250 176.495,131.983 175.842,132.040 178.633 M158.514 179.800 C 158.517 180.900,158.595 181.303,158.687 180.695 C 158.779 180.086,158.777 179.186,158.682 178.695 C 158.587 178.203,158.511 178.700,158.514 179.800 M140.834 180.000 C 140.846 180.330,141.011 180.960,141.200 181.400 L 141.544 182.200 141.566 181.400 C 141.578 180.960,141.413 180.330,141.200 180.000 C 140.855 179.467,140.815 179.467,140.834 180.000 M166.655 182.655 C 166.513 183.686,166.474 184.608,166.569 184.702 C 166.663 184.796,166.865 184.039,167.018 183.018 C 167.171 181.998,167.210 181.076,167.104 180.971 C 166.998 180.865,166.796 181.623,166.655 182.655 M141.600 182.724 C 141.600 183.581,144.298 186.630,145.819 187.491 C 149.132 189.368,154.939 188.295,156.858 185.453 L 157.704 184.200 156.427 185.505 C 152.581 189.436,145.971 188.820,142.900 184.246 C 142.185 183.181,141.600 182.496,141.600 182.724 M165.048 187.706 C 163.134 191.780,159.378 194.807,154.445 196.251 C 152.610 196.788,152.608 196.790,154.200 196.559 C 158.336 195.958,163.336 192.080,165.379 187.887 C 165.999 186.614,166.437 185.504,166.351 185.418 C 166.266 185.333,165.680 186.362,165.048 187.706 M133.614 185.800 C 133.585 187.481,138.063 192.861,140.816 194.453 C 141.813 195.030,141.921 195.052,141.200 194.530 C 138.744 192.754,136.011 189.805,134.866 187.695 C 134.182 186.433,133.618 185.580,133.614 185.800 M143.208 195.739 C 143.763 196.064,144.933 196.433,145.808 196.560 L 147.400 196.791 145.600 196.243 C 144.610 195.941,143.440 195.572,143.000 195.422 C 142.502 195.252,142.580 195.372,143.208 195.739 M148.700 197.089 C 149.415 197.178,150.585 197.178,151.300 197.089 C 152.015 197.001,151.430 196.928,150.000 196.928 C 148.570 196.928,147.985 197.001,148.700 197.089 M198.285 276.391 C 175.379 276.631,177.615 276.103,177.606 281.276 C 177.603 283.188,177.455 284.842,177.278 284.952 C 177.101 285.061,176.907 287.900,176.846 291.261 C 176.786 294.621,176.594 297.647,176.418 297.985 C 175.985 298.821,175.985 335.107,176.418 336.247 C 176.608 336.746,176.791 339.325,176.825 341.977 C 176.860 344.630,177.048 346.800,177.244 346.800 C 177.440 346.800,177.600 347.607,177.600 348.594 C 177.600 350.465,178.240 353.699,178.847 354.895 C 179.041 355.277,179.200 355.941,179.200 356.371 C 179.200 356.801,179.380 357.264,179.600 357.400 C 179.820 357.536,180.000 358.087,180.000 358.624 C 180.000 359.161,180.180 359.600,180.400 359.600 C 180.620 359.600,180.800 359.960,180.800 360.400 C 180.800 360.840,180.980 361.200,181.200 361.200 C 181.420 361.200,181.600 361.560,181.600 362.000 C 181.600 362.440,181.780 362.800,182.000 362.800 C 182.220 362.800,182.400 363.048,182.400 363.352 C 182.400 363.655,183.120 364.645,184.000 365.552 C 184.880 366.459,185.600 367.341,185.600 367.512 C 185.600 367.683,185.985 368.088,186.455 368.412 C 186.926 368.735,187.691 369.360,188.155 369.800 C 192.263 373.690,201.245 375.165,206.095 372.746 C 206.477 372.556,207.118 372.400,207.519 372.400 C 207.921 372.400,208.624 372.051,209.082 371.624 C 209.540 371.197,209.998 370.932,210.100 371.034 C 210.202 371.136,210.514 370.945,210.792 370.610 C 211.070 370.274,211.557 370.000,211.873 370.000 C 212.189 370.000,212.336 369.820,212.200 369.600 C 212.064 369.380,212.228 369.200,212.565 369.200 C 213.312 369.200,218.400 364.087,218.400 363.337 C 218.400 363.042,218.535 362.797,218.700 362.794 C 218.865 362.790,219.440 361.890,219.979 360.794 C 220.517 359.697,221.102 358.800,221.279 358.800 C 221.455 358.800,221.600 358.451,221.600 358.024 C 221.600 357.597,221.780 357.136,222.000 357.000 C 222.220 356.864,222.400 356.324,222.400 355.800 C 222.400 355.276,222.559 354.749,222.754 354.629 C 222.949 354.508,223.198 353.913,223.309 353.305 C 223.420 352.697,223.756 351.300,224.055 350.200 C 224.355 349.100,224.594 347.615,224.586 346.900 C 224.579 346.185,224.714 345.600,224.886 345.600 C 225.059 345.600,225.200 344.340,225.200 342.800 C 225.200 341.200,225.371 340.000,225.600 340.000 C 225.838 340.000,226.000 338.493,226.000 336.280 C 226.000 334.234,226.185 332.375,226.410 332.150 C 227.211 331.349,226.382 294.517,225.574 295.016 C 225.355 295.151,225.200 294.074,225.200 292.424 C 225.200 290.871,225.065 289.600,224.900 289.600 C 224.735 289.600,224.612 288.745,224.626 287.700 C 224.640 286.655,224.509 285.273,224.334 284.630 C 224.159 283.986,223.974 282.849,223.924 282.102 C 223.874 281.355,223.690 280.656,223.516 280.548 C 223.342 280.441,223.200 279.683,223.200 278.865 C 223.200 276.865,222.135 275.971,219.895 276.091 C 218.963 276.141,209.238 276.276,198.285 276.391 " stroke="none" fill="#fccc84" fill-rule="evenodd"></path><path id="path1" d="M187.509 26.443 C 187.176 26.629,185.935 26.810,184.752 26.846 C 183.568 26.881,182.411 27.057,182.181 27.237 C 181.950 27.417,181.082 27.610,180.253 27.666 C 179.423 27.722,178.656 27.910,178.548 28.084 C 178.441 28.258,177.733 28.400,176.976 28.400 C 176.219 28.400,175.600 28.580,175.600 28.800 C 175.600 29.020,175.058 29.200,174.395 29.200 C 173.732 29.200,172.832 29.380,172.395 29.600 C 171.958 29.820,171.242 30.180,170.805 30.400 C 170.368 30.620,169.648 30.800,169.205 30.800 C 168.762 30.800,168.400 30.980,168.400 31.200 C 168.400 31.420,167.860 31.600,167.200 31.600 C 166.540 31.600,166.000 31.780,166.000 32.000 C 166.000 32.220,165.640 32.400,165.200 32.400 C 164.760 32.400,164.400 32.580,164.400 32.800 C 164.400 33.020,164.040 33.200,163.600 33.200 C 163.160 33.200,162.800 33.380,162.800 33.600 C 162.800 33.820,162.485 34.004,162.100 34.009 C 161.715 34.014,160.950 34.370,160.400 34.800 C 159.850 35.230,159.175 35.586,158.900 35.591 C 158.625 35.596,158.400 35.780,158.400 36.000 C 158.400 36.220,158.040 36.400,157.600 36.400 C 157.160 36.400,156.800 36.580,156.800 36.800 C 156.800 37.020,156.480 37.200,156.088 37.200 C 155.697 37.200,155.117 37.560,154.800 38.000 C 154.483 38.440,153.903 38.800,153.512 38.800 C 153.120 38.800,152.800 38.980,152.800 39.200 C 152.800 39.420,152.429 39.600,151.976 39.600 C 151.523 39.600,151.264 39.780,151.400 40.000 C 151.536 40.220,151.382 40.400,151.057 40.400 C 150.732 40.400,150.407 40.561,150.333 40.758 C 150.260 40.955,149.648 41.450,148.973 41.858 C 146.871 43.130,143.974 45.336,142.354 46.900 C 141.499 47.724,140.800 48.317,140.800 48.217 C 140.800 48.117,138.370 50.453,135.400 53.407 C 132.430 56.362,130.000 59.042,130.000 59.363 C 130.000 59.684,129.675 60.049,129.278 60.175 C 128.882 60.301,128.052 61.203,127.435 62.180 C 126.817 63.157,125.972 64.263,125.556 64.640 C 125.140 65.016,124.800 65.577,124.800 65.886 C 124.800 66.194,124.620 66.336,124.400 66.200 C 124.180 66.064,124.000 66.284,124.000 66.688 C 124.000 67.093,123.640 67.683,123.200 68.000 C 122.760 68.317,122.400 68.857,122.400 69.200 C 122.400 69.543,122.040 70.083,121.600 70.400 C 121.160 70.717,120.800 71.257,120.800 71.600 C 120.800 71.943,120.440 72.483,120.000 72.800 C 119.560 73.117,119.200 73.620,119.200 73.917 C 119.200 74.214,118.928 74.729,118.596 75.061 C 118.264 75.393,118.112 75.858,118.258 76.094 C 118.404 76.330,118.341 76.411,118.119 76.273 C 117.896 76.136,117.286 76.873,116.762 77.912 C 116.239 78.950,115.718 79.890,115.605 80.000 C 115.130 80.463,114.400 82.034,114.400 82.595 C 114.400 82.928,114.220 83.200,114.000 83.200 C 113.780 83.200,113.600 83.478,113.600 83.817 C 113.600 84.156,113.254 84.804,112.832 85.258 C 112.410 85.711,111.830 86.874,111.545 87.841 C 111.259 88.808,110.885 89.600,110.713 89.600 C 110.541 89.600,110.400 89.930,110.400 90.333 C 110.400 90.737,110.265 91.202,110.100 91.367 C 109.935 91.532,109.789 91.787,109.776 91.933 C 109.762 92.080,109.447 92.897,109.076 93.749 C 108.704 94.601,108.400 95.646,108.400 96.072 C 108.400 96.499,108.220 96.736,108.000 96.600 C 107.767 96.456,107.600 96.863,107.600 97.576 C 107.600 98.249,107.420 98.800,107.200 98.800 C 106.980 98.800,106.800 99.329,106.800 99.976 C 106.800 100.623,106.620 101.264,106.400 101.400 C 106.180 101.536,106.000 102.087,106.000 102.624 C 106.000 103.161,105.820 103.600,105.600 103.600 C 105.380 103.600,105.200 104.129,105.200 104.776 C 105.200 105.423,105.020 106.064,104.800 106.200 C 104.580 106.336,104.400 106.876,104.400 107.400 C 104.400 107.924,104.240 108.452,104.044 108.573 C 103.708 108.780,103.586 109.273,102.968 112.900 C 102.827 113.725,102.552 114.400,102.356 114.400 C 102.160 114.400,102.000 115.120,102.000 116.000 C 102.000 116.880,101.820 117.600,101.600 117.600 C 101.380 117.600,101.200 118.309,101.200 119.176 C 101.200 120.043,101.020 120.864,100.800 121.000 C 100.580 121.136,100.400 122.047,100.400 123.024 C 100.400 124.001,100.237 124.800,100.037 124.800 C 99.698 124.800,99.538 125.826,98.956 131.700 C 98.831 132.965,98.593 134.000,98.428 134.000 C 98.262 134.000,98.088 135.215,98.041 136.700 C 97.994 138.185,97.786 139.460,97.578 139.533 C 97.370 139.607,97.200 141.146,97.200 142.953 C 97.200 144.761,97.031 146.411,96.825 146.620 C 96.395 147.055,96.065 152.623,95.772 164.379 C 95.659 168.877,95.407 172.751,95.210 172.988 C 94.418 173.942,95.259 227.769,96.085 229.037 C 96.241 229.278,96.402 230.673,96.443 232.137 C 96.483 233.602,96.670 234.800,96.858 234.800 C 97.046 234.800,97.200 235.599,97.200 236.576 C 97.200 237.553,97.380 238.464,97.600 238.600 C 97.820 238.736,98.000 239.557,98.000 240.424 C 98.000 241.291,98.180 242.000,98.400 242.000 C 98.620 242.000,98.800 242.630,98.800 243.400 C 98.800 244.170,98.980 244.800,99.200 244.800 C 99.420 244.800,99.600 245.340,99.600 246.000 C 99.600 246.660,99.780 247.200,100.000 247.200 C 100.220 247.200,100.400 247.549,100.400 247.976 C 100.400 248.403,100.580 248.864,100.800 249.000 C 101.020 249.136,101.200 249.687,101.200 250.224 C 101.200 250.761,101.380 251.200,101.600 251.200 C 101.820 251.200,102.000 251.560,102.000 252.000 C 102.000 252.440,102.158 252.800,102.351 252.800 C 102.545 252.800,102.943 253.385,103.237 254.100 C 103.530 254.815,104.092 255.749,104.485 256.175 C 104.878 256.602,105.200 257.147,105.200 257.387 C 105.200 257.627,105.560 258.083,106.000 258.400 C 106.440 258.717,106.800 259.213,106.800 259.503 C 106.800 260.096,107.443 260.850,111.331 264.815 C 112.832 266.347,114.290 267.600,114.569 267.600 C 114.848 267.600,115.402 267.960,115.800 268.400 C 116.198 268.840,116.766 269.200,117.062 269.200 C 117.358 269.200,117.600 269.335,117.600 269.501 C 117.600 269.666,118.455 270.225,119.500 270.743 C 120.545 271.261,121.870 271.931,122.444 272.232 C 123.018 272.533,123.603 272.664,123.744 272.523 C 123.885 272.382,124.000 272.477,124.000 272.733 C 124.000 272.990,124.360 273.200,124.800 273.200 C 125.240 273.200,125.600 273.410,125.600 273.667 C 125.600 273.923,125.709 274.025,125.841 273.892 C 125.974 273.760,126.559 273.836,127.141 274.061 C 128.711 274.669,129.614 274.882,131.500 275.092 C 132.435 275.196,133.200 275.442,133.200 275.640 C 133.200 275.838,134.100 276.000,135.200 276.000 C 136.300 276.000,137.200 276.180,137.200 276.400 C 137.200 276.631,138.459 276.800,140.176 276.800 C 141.813 276.800,143.264 276.980,143.400 277.200 C 143.794 277.838,177.887 277.740,178.100 277.100 C 178.306 276.481,221.628 275.961,222.069 276.573 C 222.413 277.052,226.557 276.878,226.733 276.378 C 226.807 276.170,228.832 276.000,231.233 276.000 C 233.635 276.000,235.600 275.848,235.600 275.662 C 235.600 275.476,238.075 275.183,241.100 275.012 C 248.643 274.584,248.816 274.570,250.400 274.245 C 251.170 274.088,252.700 273.936,253.800 273.909 C 254.900 273.882,255.985 273.722,256.212 273.554 C 256.438 273.386,257.653 273.207,258.912 273.156 C 260.170 273.105,261.200 272.914,261.200 272.732 C 261.200 272.549,261.772 272.400,262.472 272.400 C 263.171 272.400,264.296 272.232,264.972 272.027 C 265.647 271.822,267.010 271.431,268.000 271.158 C 268.990 270.884,269.971 270.512,270.180 270.330 C 270.389 270.149,271.064 270.000,271.680 270.000 C 272.296 270.000,272.800 269.820,272.800 269.600 C 272.800 269.380,273.239 269.200,273.776 269.200 C 274.313 269.200,274.864 269.020,275.000 268.800 C 275.136 268.580,275.597 268.400,276.024 268.400 C 276.451 268.400,276.800 268.220,276.800 268.000 C 276.800 267.780,277.160 267.600,277.600 267.600 C 278.040 267.600,278.400 267.420,278.400 267.200 C 278.400 266.980,278.760 266.800,279.200 266.800 C 279.640 266.800,280.000 266.620,280.000 266.400 C 280.000 266.180,280.225 266.000,280.500 265.999 C 280.775 265.999,281.630 265.459,282.400 264.800 C 283.170 264.141,283.934 263.601,284.097 263.601 C 284.568 263.599,290.800 257.301,290.800 256.827 C 290.800 256.592,290.980 256.400,291.200 256.400 C 291.420 256.400,291.600 256.212,291.600 255.983 C 291.600 255.754,291.960 255.180,292.400 254.708 C 292.840 254.236,293.200 253.613,293.200 253.325 C 293.200 253.036,293.380 252.800,293.600 252.800 C 293.820 252.800,294.000 252.440,294.000 252.000 C 294.000 251.560,294.180 251.200,294.400 251.200 C 294.620 251.200,294.800 250.840,294.800 250.400 C 294.800 249.960,294.980 249.600,295.200 249.600 C 295.420 249.600,295.600 249.240,295.600 248.800 C 295.600 248.360,295.780 248.000,296.000 248.000 C 296.220 248.000,296.400 247.640,296.400 247.200 C 296.400 246.760,296.580 246.400,296.800 246.400 C 297.020 246.400,297.200 245.939,297.200 245.376 C 297.200 244.796,297.373 244.460,297.600 244.600 C 297.833 244.744,298.000 244.337,298.000 243.624 C 298.000 242.951,298.180 242.400,298.400 242.400 C 298.620 242.400,298.800 241.860,298.800 241.200 C 298.800 240.540,298.980 240.000,299.200 240.000 C 299.420 240.000,299.600 239.550,299.600 239.000 C 299.600 238.450,299.780 238.000,300.000 238.000 C 300.220 238.000,300.400 237.291,300.400 236.424 C 300.400 235.557,300.580 234.736,300.800 234.600 C 301.020 234.464,301.200 233.744,301.200 233.000 C 301.200 232.256,301.380 231.536,301.600 231.400 C 301.820 231.264,302.000 230.364,302.000 229.400 C 302.000 228.436,302.180 227.536,302.400 227.400 C 302.620 227.264,302.800 226.184,302.800 225.000 C 302.800 223.816,302.985 222.733,303.211 222.593 C 303.436 222.454,303.595 222.128,303.563 221.870 C 303.343 220.083,303.664 214.792,303.981 214.988 C 304.693 215.428,305.492 172.492,304.796 171.192 C 304.590 170.808,304.403 167.685,304.379 164.251 C 304.355 160.817,304.192 157.919,304.018 157.811 C 303.844 157.704,303.670 155.873,303.630 153.742 C 303.590 151.611,303.387 149.550,303.179 149.160 C 302.970 148.771,302.800 147.307,302.800 145.906 C 302.800 144.506,302.630 143.189,302.423 142.980 C 302.216 142.771,302.007 141.385,301.960 139.900 C 301.913 138.415,301.722 137.200,301.537 137.200 C 301.352 137.200,301.200 136.336,301.200 135.280 C 301.200 134.224,301.037 133.189,300.839 132.980 C 300.640 132.771,300.376 131.790,300.251 130.800 C 299.716 126.534,299.497 125.378,299.159 125.020 C 298.962 124.811,298.800 124.057,298.800 123.344 C 298.800 122.631,298.620 121.936,298.400 121.800 C 298.180 121.664,298.000 120.944,298.000 120.200 C 298.000 119.456,297.820 118.736,297.600 118.600 C 297.380 118.464,297.200 117.823,297.200 117.176 C 297.200 116.529,297.020 116.000,296.800 116.000 C 296.580 116.000,296.400 115.381,296.400 114.624 C 296.400 113.867,296.220 113.136,296.000 113.000 C 295.780 112.864,295.600 112.324,295.600 111.800 C 295.600 111.276,295.420 110.736,295.200 110.600 C 294.980 110.464,294.800 109.913,294.800 109.376 C 294.800 108.839,294.620 108.400,294.400 108.400 C 294.180 108.400,294.000 107.860,294.000 107.200 C 294.000 106.540,293.820 106.000,293.600 106.000 C 293.380 106.000,293.200 105.460,293.200 104.800 C 293.200 104.140,293.020 103.600,292.800 103.600 C 292.580 103.600,292.400 103.060,292.400 102.400 C 292.400 101.740,292.240 101.200,292.045 101.200 C 291.849 101.200,291.573 100.582,291.431 99.826 C 291.290 99.071,290.640 97.275,289.987 95.835 C 289.334 94.395,288.800 92.944,288.800 92.609 C 288.800 92.274,288.665 91.999,288.500 91.997 C 288.141 91.993,287.200 90.056,287.200 89.320 C 287.200 89.034,287.020 88.800,286.800 88.800 C 286.580 88.800,286.400 88.440,286.400 88.000 C 286.400 87.560,286.220 87.200,286.000 87.200 C 285.780 87.200,285.600 86.840,285.600 86.400 C 285.600 85.960,285.465 85.599,285.300 85.597 C 284.989 85.594,284.000 83.697,284.000 83.104 C 284.000 82.918,283.640 82.380,283.200 81.908 C 282.760 81.436,282.400 80.813,282.400 80.525 C 282.400 80.236,282.264 80.000,282.098 80.000 C 281.931 80.000,281.536 79.415,281.220 78.700 C 280.903 77.985,280.320 77.051,279.922 76.625 C 279.525 76.198,279.200 75.653,279.200 75.413 C 279.200 75.173,278.840 74.717,278.400 74.400 C 277.960 74.083,277.600 73.543,277.600 73.200 C 277.600 72.857,277.240 72.317,276.800 72.000 C 276.360 71.683,276.000 71.169,276.000 70.859 C 276.000 70.548,275.667 70.003,275.259 69.647 C 274.852 69.291,274.229 68.438,273.875 67.751 C 273.521 67.064,272.640 65.866,271.916 65.090 C 270.006 63.040,268.830 61.600,269.067 61.600 C 269.181 61.600,268.531 60.925,267.622 60.100 C 266.714 59.275,263.843 56.530,261.242 54.000 C 256.626 49.510,253.507 46.763,252.656 46.439 C 252.423 46.350,251.778 45.855,251.221 45.339 C 250.664 44.822,249.976 44.400,249.692 44.400 C 249.407 44.400,249.072 44.131,248.946 43.802 C 248.819 43.474,248.574 43.293,248.400 43.400 C 248.226 43.507,247.973 43.308,247.839 42.956 C 247.704 42.605,247.353 42.409,247.059 42.522 C 246.765 42.635,246.276 42.384,245.974 41.964 C 245.671 41.544,245.143 41.200,244.800 41.200 C 244.457 41.200,243.917 40.840,243.600 40.400 C 243.283 39.960,242.703 39.600,242.312 39.600 C 241.920 39.600,241.600 39.441,241.600 39.247 C 241.600 39.052,241.285 38.787,240.900 38.658 C 239.589 38.216,237.621 36.913,237.877 36.656 C 238.018 36.515,237.850 36.400,237.504 36.400 C 236.788 36.400,233.469 34.755,233.267 34.300 C 233.193 34.135,232.608 34.000,231.967 34.000 C 231.325 34.000,230.800 33.820,230.800 33.600 C 230.800 33.380,230.440 33.200,230.000 33.200 C 229.560 33.200,229.200 33.053,229.200 32.872 C 229.200 32.692,228.300 32.300,227.200 32.000 C 226.100 31.700,225.200 31.347,225.200 31.215 C 225.200 31.083,224.705 30.934,224.100 30.884 C 223.495 30.834,222.940 30.615,222.867 30.397 C 222.793 30.178,222.219 30.000,221.590 30.000 C 220.962 30.000,220.336 29.820,220.200 29.600 C 220.064 29.380,219.434 29.200,218.800 29.200 C 218.166 29.200,217.536 29.020,217.400 28.800 C 217.264 28.580,216.544 28.400,215.800 28.400 C 215.056 28.400,214.358 28.256,214.249 28.080 C 214.140 27.904,213.279 27.714,212.336 27.658 C 211.393 27.603,210.526 27.413,210.410 27.236 C 210.295 27.059,209.072 26.884,207.694 26.845 C 206.315 26.807,204.738 26.605,204.190 26.396 C 202.966 25.931,188.351 25.972,187.509 26.443 M149.926 108.107 C 151.662 109.541,151.831 111.112,150.828 116.500 C 150.357 119.029,149.802 122.072,149.223 125.300 C 149.016 126.455,148.018 131.900,147.006 137.400 C 144.995 148.325,144.756 149.633,143.182 158.300 C 142.953 159.565,142.591 161.500,142.379 162.600 C 139.085 179.683,141.524 187.971,149.851 187.993 C 157.245 188.013,160.900 180.895,156.683 174.687 C 154.073 170.845,157.850 165.882,161.878 167.860 C 166.159 169.963,168.459 178.683,166.442 185.164 C 161.970 199.534,141.911 201.362,134.671 188.060 C 132.183 183.488,131.253 175.116,132.447 168.046 C 133.217 163.489,136.766 143.620,137.600 139.200 C 137.787 138.210,138.145 136.230,138.396 134.800 C 138.648 133.370,139.011 131.480,139.203 130.600 C 139.396 129.720,139.671 128.280,139.815 127.400 C 139.958 126.520,140.224 124.990,140.404 124.000 C 140.584 123.010,140.942 121.030,141.200 119.600 C 141.458 118.170,141.841 116.100,142.051 115.000 C 142.261 113.900,142.536 112.370,142.662 111.600 C 142.948 109.843,144.514 107.714,145.699 107.471 C 146.922 107.219,149.282 107.574,149.926 108.107 " stroke="none" fill="#fc9c84" fill-rule="evenodd"></path><path id="path2" d="M145.177 108.189 C 143.738 108.971,143.279 110.214,142.154 116.382 C 141.611 119.362,140.994 122.745,140.783 123.900 C 140.572 125.055,140.220 126.990,140.000 128.200 C 139.780 129.410,139.420 131.390,139.200 132.600 C 138.980 133.810,138.620 135.790,138.400 137.000 C 138.180 138.210,137.820 140.190,137.600 141.400 C 137.380 142.610,137.002 144.635,136.760 145.900 C 136.518 147.165,136.176 149.010,136.000 150.000 C 135.824 150.990,135.482 152.835,135.240 154.100 C 134.824 156.275,134.568 157.665,133.583 163.100 C 130.892 177.956,132.316 186.503,138.427 192.160 C 150.399 203.245,169.500 192.983,166.652 176.996 C 165.633 171.274,163.217 167.867,160.179 167.867 C 156.682 167.867,154.962 171.618,157.072 174.645 C 162.331 182.188,154.169 191.767,146.023 187.612 C 139.919 184.497,139.168 178.237,142.641 159.400 C 143.412 155.220,144.213 150.855,144.421 149.700 C 144.629 148.545,144.980 146.610,145.200 145.400 C 145.420 144.190,145.780 142.210,146.000 141.000 C 146.220 139.790,146.580 137.810,146.800 136.600 C 147.020 135.390,147.380 133.410,147.600 132.200 C 147.820 130.990,148.180 129.010,148.400 127.800 C 148.620 126.590,148.998 124.565,149.240 123.300 C 151.596 110.991,151.616 109.686,149.478 108.382 C 147.986 107.472,146.608 107.410,145.177 108.189 " stroke="none" fill="#fcfbfa" fill-rule="evenodd"></path></g></svg>