<svg id="svg" version="1.1" xmlns="http://www.w3.org/2000/svg" xmlns:xlink="http://www.w3.org/1999/xlink" width="400" height="400" viewBox="0, 0, 400,400"><g id="svgg"><path id="path0" d="M93.200 34.400 C 93.200 34.620,92.221 34.800,91.024 34.800 C 89.827 34.800,88.736 34.980,88.600 35.200 C 88.464 35.420,87.654 35.600,86.800 35.600 C 85.946 35.600,85.136 35.780,85.000 36.000 C 84.864 36.220,84.403 36.400,83.976 36.400 C 83.549 36.400,83.200 36.580,83.200 36.800 C 83.200 37.020,82.660 37.200,82.000 37.200 C 81.340 37.200,80.800 37.380,80.800 37.600 C 80.800 37.820,80.476 38.000,80.080 38.000 C 79.186 38.000,77.207 38.894,77.203 39.300 C 77.201 39.465,76.880 39.600,76.488 39.600 C 76.097 39.600,75.517 39.960,75.200 40.400 C 74.883 40.840,74.380 41.200,74.083 41.200 C 73.786 41.200,73.291 41.425,72.984 41.700 C 72.676 41.975,71.521 42.830,70.417 43.600 C 69.312 44.370,68.407 45.255,68.404 45.567 C 68.402 45.878,68.291 46.024,68.158 45.891 C 67.890 45.624,66.000 47.371,66.000 47.886 C 66.000 48.063,65.640 48.432,65.200 48.707 C 64.760 48.982,64.400 49.409,64.400 49.656 C 64.400 49.904,64.072 50.397,63.672 50.753 C 63.271 51.109,62.506 52.210,61.972 53.200 C 61.437 54.190,60.865 55.060,60.700 55.133 C 60.535 55.207,60.400 55.612,60.400 56.033 C 60.400 56.455,60.220 56.800,60.000 56.800 C 59.780 56.800,59.600 57.160,59.600 57.600 C 59.600 58.040,59.409 58.400,59.176 58.400 C 58.943 58.400,58.856 58.568,58.983 58.772 C 59.109 58.977,59.030 59.258,58.807 59.396 C 58.583 59.534,58.400 60.177,58.400 60.824 C 58.400 61.471,58.220 62.000,58.000 62.000 C 57.780 62.000,57.600 62.540,57.600 63.200 C 57.600 63.860,57.420 64.400,57.200 64.400 C 56.980 64.400,56.800 65.120,56.800 66.000 C 56.800 66.880,56.620 67.600,56.400 67.600 C 56.178 67.600,56.000 68.667,56.000 70.000 C 56.000 71.333,55.822 72.400,55.600 72.400 C 55.351 72.400,55.200 74.733,55.200 78.600 C 55.200 82.467,55.351 84.800,55.600 84.800 C 55.820 84.800,56.000 85.779,56.000 86.976 C 56.000 88.173,56.180 89.264,56.400 89.400 C 56.620 89.536,56.800 90.267,56.800 91.024 C 56.800 91.781,56.980 92.400,57.200 92.400 C 57.420 92.400,57.600 92.940,57.600 93.600 C 57.600 94.260,57.780 94.800,58.000 94.800 C 58.220 94.800,58.400 95.148,58.400 95.574 C 58.400 96.532,60.189 100.752,61.683 103.318 C 62.297 104.372,62.800 105.317,62.800 105.418 C 62.800 105.592,63.098 105.950,65.100 108.172 C 65.595 108.722,66.000 109.358,66.000 109.586 C 66.000 109.814,66.180 110.000,66.400 110.000 C 66.620 110.000,66.800 110.189,66.800 110.421 C 66.800 110.933,75.112 119.200,75.627 119.200 C 75.828 119.200,76.490 119.709,77.097 120.332 C 77.703 120.954,78.470 121.583,78.800 121.729 C 79.130 121.876,80.273 122.626,81.341 123.396 C 82.409 124.166,83.444 124.697,83.641 124.575 C 83.838 124.453,84.000 124.543,84.000 124.776 C 84.000 125.009,84.360 125.200,84.800 125.200 C 85.240 125.200,85.600 125.347,85.600 125.526 C 85.600 125.992,88.731 127.600,89.638 127.600 C 90.057 127.600,90.400 127.780,90.400 128.000 C 90.400 128.220,90.760 128.400,91.200 128.400 C 91.640 128.400,92.000 128.580,92.000 128.800 C 92.000 129.020,92.349 129.200,92.776 129.200 C 93.203 129.200,93.664 129.380,93.800 129.600 C 93.936 129.820,94.397 130.000,94.824 130.000 C 95.251 130.000,95.600 130.180,95.600 130.400 C 95.600 130.620,96.241 130.800,97.024 130.800 C 97.871 130.800,98.347 130.962,98.200 131.200 C 98.056 131.433,98.463 131.600,99.176 131.600 C 99.849 131.600,100.400 131.780,100.400 132.000 C 100.400 132.220,101.109 132.400,101.976 132.400 C 102.843 132.400,103.664 132.580,103.800 132.800 C 103.936 133.020,104.847 133.200,105.824 133.200 C 106.801 133.200,107.600 133.380,107.600 133.600 C 107.600 133.825,108.725 134.000,110.176 134.000 C 111.593 134.000,112.858 134.170,112.986 134.377 C 113.317 134.914,136.400 134.946,136.400 134.411 C 136.400 134.162,137.749 134.000,139.824 134.000 C 142.004 134.000,143.157 133.855,143.000 133.600 C 142.844 133.347,143.855 133.200,145.753 133.200 C 147.403 133.200,148.864 133.020,149.000 132.800 C 149.136 132.580,150.227 132.400,151.424 132.400 C 152.621 132.400,153.600 132.251,153.600 132.068 C 153.600 131.886,154.635 131.696,155.900 131.645 C 157.165 131.595,158.371 131.384,158.580 131.177 C 158.789 130.970,159.824 130.800,160.880 130.800 C 161.936 130.800,162.800 130.620,162.800 130.400 C 162.800 130.180,163.520 130.000,164.400 130.000 C 165.280 130.000,166.000 129.820,166.000 129.600 C 166.000 129.380,166.900 129.200,168.000 129.200 C 169.100 129.200,170.000 129.020,170.000 128.800 C 170.000 128.580,170.709 128.400,171.576 128.400 C 172.443 128.400,173.264 128.220,173.400 128.000 C 173.536 127.780,174.357 127.600,175.224 127.600 C 176.091 127.600,176.800 127.420,176.800 127.200 C 176.800 126.980,177.520 126.800,178.400 126.800 C 179.280 126.800,180.000 126.620,180.000 126.400 C 180.000 126.180,180.720 126.000,181.600 126.000 C 182.480 126.000,183.200 125.843,183.200 125.651 C 183.200 125.459,184.145 125.183,185.300 125.038 C 186.455 124.893,187.760 124.705,188.200 124.621 C 188.640 124.536,189.146 124.452,189.324 124.433 C 189.502 124.415,189.564 124.265,189.462 124.100 C 189.359 123.935,189.979 123.827,190.838 123.859 C 191.697 123.892,192.400 123.757,192.400 123.559 C 192.400 123.362,192.904 123.200,193.520 123.200 C 194.136 123.200,194.844 122.996,195.093 122.747 C 195.431 122.409,195.557 124.766,195.586 131.996 C 195.607 137.411,195.796 142.019,196.012 142.423 C 196.226 142.821,196.400 145.129,196.400 147.550 C 196.400 149.972,196.565 152.055,196.766 152.179 C 196.967 152.304,197.247 153.799,197.387 155.503 C 197.527 157.206,197.806 160.220,198.006 162.200 C 198.381 165.902,199.093 182.474,199.364 193.785 L 199.516 200.169 200.764 201.285 C 203.106 203.377,207.328 201.888,207.291 198.983 C 207.283 198.332,207.058 192.310,206.791 185.600 C 206.524 178.890,206.244 170.160,206.170 166.200 C 206.095 162.240,205.989 157.504,205.933 155.676 C 205.861 153.316,205.980 152.260,206.342 152.036 C 206.821 151.740,206.733 148.463,206.225 147.640 C 206.123 147.476,206.011 143.619,205.976 139.071 C 205.941 134.522,205.772 130.800,205.601 130.800 C 205.430 130.800,205.262 128.730,205.227 126.200 L 205.163 121.600 207.981 121.600 C 209.532 121.600,210.800 121.755,210.800 121.944 C 210.800 122.133,212.285 122.323,214.100 122.366 C 215.915 122.409,217.571 122.614,217.780 122.822 C 217.989 123.030,219.283 123.200,220.656 123.200 C 222.029 123.200,223.245 123.349,223.357 123.531 C 223.470 123.713,224.595 123.903,225.857 123.954 C 227.120 124.006,228.333 124.158,228.552 124.294 C 228.979 124.558,229.391 124.605,235.090 125.033 C 237.119 125.185,238.683 125.465,238.566 125.655 C 238.449 125.845,239.433 126.000,240.753 126.000 C 242.073 126.000,243.264 126.180,243.400 126.400 C 243.536 126.620,244.997 126.800,246.647 126.800 C 248.545 126.800,249.556 126.947,249.400 127.200 C 249.243 127.455,250.396 127.600,252.576 127.600 C 254.592 127.600,256.000 127.764,256.000 128.000 C 256.000 128.245,257.925 128.400,260.976 128.400 C 263.863 128.400,266.057 128.568,266.200 128.800 C 266.347 129.038,268.871 129.200,272.424 129.200 C 276.141 129.200,278.400 129.049,278.400 128.800 C 278.400 128.556,280.208 128.400,283.024 128.400 C 286.004 128.400,287.559 128.258,287.400 128.000 C 287.245 127.749,288.129 127.600,289.776 127.600 C 291.259 127.600,292.400 127.426,292.400 127.200 C 292.400 126.980,293.300 126.800,294.400 126.800 C 295.500 126.800,296.400 126.620,296.400 126.400 C 296.400 126.180,297.199 126.000,298.176 126.000 C 299.153 126.000,300.049 125.844,300.167 125.653 C 300.285 125.462,301.151 125.205,302.091 125.082 C 303.031 124.958,304.250 124.734,304.800 124.584 C 305.350 124.434,306.387 124.221,307.104 124.111 C 307.821 124.001,308.506 123.751,308.627 123.556 C 308.748 123.360,309.276 123.200,309.800 123.200 C 310.324 123.200,310.864 123.020,311.000 122.800 C 311.136 122.580,311.687 122.400,312.224 122.400 C 312.761 122.400,313.200 122.220,313.200 122.000 C 313.200 121.780,313.650 121.600,314.200 121.600 C 314.750 121.600,315.200 121.420,315.200 121.200 C 315.200 120.980,315.650 120.800,316.200 120.800 C 316.750 120.800,317.200 120.620,317.200 120.400 C 317.200 120.180,317.456 120.000,317.768 120.000 C 318.441 120.000,322.928 117.610,324.036 116.662 C 324.461 116.298,324.942 116.000,325.105 116.000 C 325.267 115.999,325.918 115.553,326.552 115.008 C 327.186 114.463,327.889 114.131,328.114 114.270 C 328.349 114.416,328.402 114.327,328.238 114.062 C 328.081 113.808,328.142 113.600,328.374 113.600 C 328.889 113.600,336.296 106.249,337.402 104.640 C 339.925 100.970,341.600 97.754,341.600 96.579 C 341.600 96.040,341.780 95.600,342.000 95.600 C 342.220 95.600,342.400 95.240,342.400 94.800 C 342.400 94.360,342.580 94.000,342.800 94.000 C 343.020 94.000,343.200 93.280,343.200 92.400 C 343.200 91.520,343.380 90.800,343.600 90.800 C 343.820 90.800,344.000 89.900,344.000 88.800 C 344.000 87.700,344.180 86.800,344.400 86.800 C 344.646 86.800,344.800 84.800,344.800 81.600 C 344.800 78.400,344.646 76.400,344.400 76.400 C 344.180 76.400,344.000 75.500,344.000 74.400 C 344.000 73.300,343.820 72.400,343.600 72.400 C 343.380 72.400,343.200 71.680,343.200 70.800 C 343.200 69.920,343.020 69.200,342.800 69.200 C 342.580 69.200,342.400 68.838,342.400 68.395 C 342.400 67.952,342.235 67.277,342.033 66.895 C 341.832 66.513,341.450 65.615,341.185 64.900 C 340.920 64.185,340.534 63.600,340.328 63.600 C 340.122 63.600,340.055 63.435,340.180 63.232 C 340.417 62.849,338.251 59.042,337.203 58.000 C 336.872 57.670,336.546 57.149,336.481 56.843 C 336.415 56.536,335.830 55.789,335.181 55.182 C 334.531 54.575,334.000 53.881,334.000 53.640 C 334.000 53.398,333.820 53.200,333.600 53.200 C 333.380 53.200,333.200 53.012,333.200 52.782 C 333.200 52.239,331.361 50.400,330.818 50.400 C 330.588 50.400,330.400 50.220,330.400 50.000 C 330.400 49.780,330.220 49.600,330.000 49.600 C 329.781 49.600,328.859 48.880,327.952 48.000 C 327.045 47.120,326.095 46.400,325.840 46.400 C 325.585 46.400,325.117 46.040,324.800 45.600 C 324.483 45.160,323.905 44.800,323.515 44.800 C 323.126 44.800,322.582 44.440,322.307 44.000 C 322.032 43.560,321.670 43.200,321.502 43.200 C 321.334 43.200,320.263 42.750,319.123 42.200 C 317.983 41.650,316.803 41.200,316.502 41.200 C 316.200 41.200,316.064 41.020,316.200 40.800 C 316.340 40.573,316.004 40.400,315.424 40.400 C 314.861 40.400,314.400 40.220,314.400 40.000 C 314.400 39.780,314.040 39.600,313.600 39.600 C 313.160 39.600,312.800 39.420,312.800 39.200 C 312.800 38.980,312.260 38.800,311.600 38.800 C 310.940 38.800,310.400 38.620,310.400 38.400 C 310.400 38.180,309.939 38.000,309.376 38.000 C 308.813 38.000,308.441 37.857,308.549 37.683 C 308.656 37.509,308.184 37.323,307.499 37.271 C 306.814 37.219,306.045 37.004,305.791 36.793 C 305.538 36.582,304.688 36.363,303.904 36.305 C 303.120 36.247,302.561 36.065,302.663 35.900 C 302.764 35.735,302.117 35.600,301.224 35.600 C 300.331 35.600,299.600 35.420,299.600 35.200 C 299.600 34.978,298.541 34.800,297.224 34.800 C 295.917 34.800,294.736 34.620,294.600 34.400 C 294.447 34.153,290.921 34.000,285.353 34.000 C 279.455 34.000,276.438 34.138,276.600 34.400 C 276.801 34.726,272.530 35.073,271.100 34.847 C 270.935 34.821,270.800 34.980,270.800 35.200 C 270.800 35.420,270.080 35.600,269.200 35.600 C 268.320 35.600,267.600 35.780,267.600 36.000 C 267.600 36.220,266.880 36.400,266.000 36.400 C 265.120 36.400,264.400 36.580,264.400 36.800 C 264.400 37.020,263.881 37.200,263.246 37.200 C 262.611 37.200,261.589 37.461,260.974 37.780 C 260.360 38.098,259.709 38.268,259.529 38.156 C 259.348 38.044,259.200 38.143,259.200 38.376 C 259.200 38.609,258.761 38.800,258.224 38.800 C 257.687 38.800,257.136 38.980,257.000 39.200 C 256.864 39.420,256.403 39.600,255.976 39.600 C 255.549 39.600,255.200 39.780,255.200 40.000 C 255.200 40.220,254.857 40.400,254.438 40.400 C 254.019 40.400,252.984 40.743,252.138 41.163 C 249.673 42.385,247.713 43.200,247.240 43.200 C 246.998 43.200,246.800 43.344,246.800 43.520 C 246.800 43.695,246.170 44.067,245.400 44.346 C 244.630 44.624,244.000 45.020,244.000 45.226 C 244.000 45.432,243.813 45.600,243.584 45.600 C 243.227 45.600,240.999 47.000,240.400 47.601 C 240.290 47.711,239.705 48.056,239.100 48.368 C 238.495 48.680,238.000 49.085,238.000 49.268 C 238.000 49.450,237.712 49.600,237.360 49.600 C 237.009 49.600,236.217 50.140,235.600 50.800 C 234.983 51.460,234.284 52.000,234.045 52.000 C 233.009 52.000,219.200 65.886,219.200 66.928 C 219.200 67.200,218.840 67.683,218.400 68.000 C 217.960 68.317,217.600 68.807,217.600 69.088 C 217.600 69.370,217.420 69.600,217.200 69.600 C 216.980 69.600,216.800 69.830,216.800 70.112 C 216.800 70.393,216.440 70.883,216.000 71.200 C 215.560 71.517,215.200 72.007,215.200 72.288 C 215.200 72.570,215.020 72.800,214.800 72.800 C 214.580 72.800,214.400 73.070,214.400 73.400 C 214.400 73.730,214.220 74.000,214.000 74.000 C 213.780 74.000,213.600 74.188,213.600 74.417 C 213.600 74.646,213.240 75.220,212.800 75.692 C 212.360 76.164,212.000 76.787,212.000 77.075 C 212.000 77.364,211.809 77.600,211.576 77.600 C 211.343 77.600,211.264 77.780,211.400 78.000 C 211.536 78.220,211.488 78.400,211.295 78.400 C 210.971 78.400,209.032 81.851,209.010 82.467 C 209.004 82.613,208.865 82.868,208.700 83.033 C 208.535 83.198,208.400 83.663,208.400 84.067 C 208.400 84.470,208.220 84.800,208.000 84.800 C 207.780 84.800,207.600 85.081,207.600 85.424 C 207.600 85.767,207.420 85.936,207.200 85.800 C 206.964 85.654,206.797 86.097,206.794 86.876 C 206.789 87.878,206.693 88.054,206.400 87.600 C 206.106 87.145,206.011 87.314,206.006 88.300 C 206.003 89.015,205.820 89.600,205.600 89.600 C 205.380 89.600,205.200 89.960,205.200 90.400 C 205.200 90.840,205.020 91.200,204.800 91.200 C 204.580 91.200,204.400 91.571,204.400 92.024 C 204.400 92.477,204.220 92.736,204.000 92.600 C 203.780 92.464,203.600 92.723,203.600 93.176 C 203.600 93.629,203.453 94.000,203.272 94.000 C 203.092 94.000,202.700 94.900,202.400 96.000 C 202.100 97.100,201.708 98.000,201.528 98.000 C 201.347 98.000,201.200 98.349,201.200 98.776 C 201.200 99.203,201.020 99.664,200.800 99.800 C 200.580 99.936,200.400 100.487,200.400 101.024 C 200.400 101.561,200.220 102.000,200.000 102.000 C 199.780 102.000,199.600 101.640,199.600 101.200 C 199.600 100.760,199.420 100.400,199.200 100.400 C 198.980 100.400,198.800 100.040,198.800 99.600 C 198.800 99.160,198.620 98.800,198.400 98.800 C 198.180 98.800,198.000 98.440,198.000 98.000 C 198.000 97.560,197.820 97.200,197.600 97.200 C 197.380 97.200,197.200 96.840,197.200 96.400 C 197.200 95.960,197.020 95.600,196.800 95.600 C 196.580 95.600,196.400 95.240,196.400 94.800 C 196.400 94.360,196.264 94.000,196.098 94.000 C 195.931 94.000,195.540 93.415,195.228 92.700 C 194.916 91.985,194.332 91.109,193.930 90.753 C 193.529 90.397,193.200 89.812,193.200 89.453 C 193.200 89.094,193.020 88.800,192.800 88.800 C 192.580 88.800,192.400 88.519,192.400 88.176 C 192.400 87.833,192.216 87.667,191.990 87.806 C 191.765 87.945,191.630 87.901,191.690 87.708 C 191.834 87.248,190.394 84.440,189.500 83.435 C 189.115 83.003,188.800 82.506,188.800 82.331 C 188.800 82.157,188.364 81.516,187.831 80.907 C 184.578 77.192,184.000 76.456,184.000 76.028 C 184.000 75.767,183.820 75.664,183.600 75.800 C 183.380 75.936,183.200 75.855,183.200 75.619 C 183.200 75.384,181.175 73.153,178.700 70.661 C 176.225 68.170,173.265 65.157,172.123 63.966 C 169.353 61.078,168.392 60.225,167.200 59.599 C 166.650 59.311,165.909 58.743,165.553 58.337 C 165.197 57.932,164.684 57.600,164.414 57.600 C 164.143 57.600,163.417 57.060,162.800 56.400 C 162.183 55.740,161.391 55.200,161.040 55.200 C 160.688 55.200,160.400 55.059,160.400 54.886 C 160.400 54.714,159.855 54.251,159.189 53.857 C 158.523 53.464,157.578 52.750,157.089 52.271 C 156.600 51.792,155.660 51.130,155.000 50.801 C 154.340 50.471,153.710 50.111,153.600 50.001 C 153.490 49.890,153.040 49.603,152.600 49.362 C 150.518 48.224,149.784 47.780,149.600 47.550 C 149.012 46.814,138.733 42.000,137.750 42.000 C 137.448 42.000,137.200 41.820,137.200 41.600 C 137.200 41.380,136.660 41.200,136.000 41.200 C 135.340 41.200,134.800 41.020,134.800 40.800 C 134.800 40.580,134.339 40.400,133.776 40.400 C 133.196 40.400,132.860 40.227,133.000 40.000 C 133.144 39.767,132.745 39.600,132.047 39.600 C 131.387 39.600,130.736 39.420,130.600 39.200 C 130.464 38.980,129.924 38.800,129.400 38.800 C 128.876 38.800,128.336 38.620,128.200 38.400 C 128.064 38.180,127.333 38.000,126.576 38.000 C 125.819 38.000,125.200 37.820,125.200 37.600 C 125.200 37.380,124.660 37.200,124.000 37.200 C 123.340 37.200,122.800 37.039,122.800 36.842 C 122.800 36.506,121.851 36.303,117.700 35.747 C 116.765 35.622,116.000 35.384,116.000 35.218 C 116.000 35.052,114.785 34.883,113.300 34.843 C 111.815 34.803,110.540 34.597,110.467 34.385 C 110.283 33.853,93.200 33.868,93.200 34.400 " stroke="none" fill="#94b49c" fill-rule="evenodd"></path><path id="path1" d="M188.173 151.644 C 188.052 151.840,184.363 152.000,179.976 152.000 C 174.925 152.000,172.000 152.147,172.000 152.400 C 172.000 152.641,170.333 152.800,167.800 152.800 C 165.490 152.800,163.600 152.966,163.600 153.170 C 163.600 153.373,162.205 153.639,160.500 153.760 C 154.180 154.211,152.000 154.477,152.000 154.796 C 152.000 154.976,151.145 155.223,150.100 155.346 C 146.063 155.820,144.586 156.095,144.220 156.441 C 144.011 156.638,143.066 156.800,142.120 156.800 C 141.174 156.800,140.400 156.980,140.400 157.200 C 140.400 157.420,139.781 157.600,139.024 157.600 C 138.267 157.600,137.536 157.780,137.400 158.000 C 137.264 158.220,136.711 158.400,136.171 158.400 C 135.631 158.400,134.877 158.569,134.495 158.776 C 134.113 158.983,133.260 159.283,132.600 159.443 C 131.940 159.604,131.310 159.769,131.200 159.812 C 131.090 159.854,130.411 160.027,129.692 160.196 C 128.972 160.365,128.286 160.660,128.168 160.852 C 128.050 161.043,127.685 161.200,127.357 161.200 C 127.029 161.200,126.016 161.560,125.106 162.000 C 124.195 162.440,123.214 162.800,122.925 162.800 C 122.636 162.800,122.400 162.980,122.400 163.200 C 122.400 163.420,122.166 163.600,121.880 163.600 C 121.144 163.600,119.207 164.541,119.203 164.900 C 119.201 165.065,118.840 165.200,118.400 165.200 C 117.960 165.200,117.600 165.391,117.600 165.624 C 117.600 165.857,117.440 165.949,117.245 165.828 C 117.050 165.707,116.668 165.877,116.396 166.204 C 116.124 166.532,115.564 166.800,115.151 166.800 C 114.738 166.800,114.400 166.958,114.400 167.151 C 114.400 167.345,113.860 167.727,113.200 168.000 C 112.540 168.273,112.000 168.611,112.000 168.751 C 112.000 168.890,111.459 169.244,110.798 169.537 C 110.136 169.830,109.689 170.221,109.804 170.406 C 109.918 170.591,109.630 170.864,109.163 171.012 C 107.861 171.425,103.115 176.432,102.035 178.531 C 101.507 179.559,100.951 180.400,100.801 180.400 C 100.651 180.400,100.288 181.165,99.994 182.100 C 99.701 183.035,99.312 183.971,99.130 184.180 C 98.949 184.389,98.800 184.963,98.800 185.456 C 98.800 185.949,98.620 186.464,98.400 186.600 C 98.180 186.736,98.000 187.431,98.000 188.144 C 98.000 188.857,97.807 189.633,97.571 189.869 C 96.772 190.668,97.551 205.638,98.441 206.580 C 98.638 206.789,98.800 207.464,98.800 208.080 C 98.800 208.696,98.980 209.200,99.200 209.200 C 99.420 209.200,99.600 209.740,99.600 210.400 C 99.600 211.060,99.780 211.600,100.000 211.600 C 100.220 211.600,100.400 211.949,100.400 212.376 C 100.400 212.803,100.580 213.264,100.800 213.400 C 101.020 213.536,101.200 213.930,101.200 214.277 C 101.200 214.886,102.630 216.400,103.206 216.400 C 103.361 216.400,104.265 217.615,105.214 219.100 C 113.455 231.993,131.000 239.805,159.300 243.182 C 161.225 243.412,164.285 243.782,166.100 244.004 C 167.915 244.226,170.570 244.482,172.000 244.574 C 186.891 245.529,192.018 245.741,200.800 245.767 C 219.046 245.821,237.400 244.303,256.000 241.202 C 257.430 240.963,259.500 240.619,260.600 240.436 C 286.278 236.171,301.591 229.237,310.813 217.700 C 311.561 216.765,312.409 216.000,312.699 216.000 C 312.988 216.000,313.328 215.731,313.454 215.402 C 313.581 215.074,313.849 214.907,314.052 215.032 C 314.254 215.157,314.375 215.111,314.321 214.930 C 314.179 214.460,315.335 212.000,315.698 212.000 C 315.864 212.000,316.000 211.764,316.000 211.475 C 316.000 211.186,316.360 210.205,316.800 209.294 C 317.240 208.384,317.600 207.270,317.600 206.819 C 317.600 206.369,317.757 206.000,317.948 206.000 C 318.532 206.000,318.935 202.461,318.951 197.200 C 318.969 191.179,318.650 189.248,317.153 186.305 C 316.959 185.923,316.800 185.248,316.800 184.805 C 316.800 184.362,316.620 184.000,316.400 184.000 C 316.180 184.000,316.000 183.717,316.000 183.371 C 316.000 183.026,315.728 182.471,315.396 182.139 C 315.064 181.807,314.895 181.370,315.020 181.168 C 315.145 180.965,315.087 180.800,314.891 180.800 C 314.695 180.800,314.280 180.305,313.968 179.700 C 313.655 179.095,312.905 178.123,312.300 177.540 C 311.695 176.956,311.200 176.363,311.200 176.220 C 311.200 175.464,303.356 168.420,302.500 168.407 C 302.225 168.403,302.000 168.220,302.000 168.000 C 302.000 167.780,301.730 167.600,301.400 167.600 C 301.070 167.600,300.800 167.420,300.800 167.200 C 300.800 166.980,300.530 166.800,300.200 166.800 C 299.870 166.800,299.600 166.620,299.600 166.400 C 299.600 166.180,299.240 166.000,298.800 166.000 C 298.360 166.000,298.000 165.820,298.000 165.600 C 298.000 165.380,297.640 165.200,297.200 165.200 C 296.760 165.200,296.400 165.020,296.400 164.800 C 296.400 164.580,296.040 164.400,295.600 164.400 C 295.160 164.400,294.800 164.220,294.800 164.000 C 294.800 163.780,294.451 163.600,294.024 163.600 C 293.597 163.600,293.136 163.420,293.000 163.200 C 292.864 162.980,292.401 162.800,291.971 162.800 C 291.541 162.800,290.877 162.628,290.495 162.418 C 288.861 161.521,279.502 159.165,277.164 159.063 C 276.339 159.027,275.530 158.863,275.365 158.699 C 275.201 158.534,274.017 158.400,272.733 158.400 C 271.450 158.400,270.400 158.247,270.400 158.061 C 270.400 157.874,269.109 157.684,267.530 157.637 C 265.952 157.591,264.344 157.384,263.957 157.177 C 263.569 156.970,262.017 156.800,260.506 156.800 C 258.996 156.800,257.589 156.634,257.380 156.430 C 257.171 156.227,255.650 155.959,254.000 155.836 C 246.194 155.251,244.974 155.113,244.620 154.769 C 244.411 154.566,242.566 154.400,240.520 154.400 C 238.307 154.400,236.800 154.238,236.800 154.000 C 236.800 153.759,235.133 153.600,232.600 153.600 C 230.067 153.600,228.400 153.441,228.400 153.200 C 228.400 152.956,226.560 152.800,223.680 152.800 C 220.984 152.800,218.784 152.624,218.549 152.389 C 217.672 151.512,205.788 152.085,205.881 153.000 C 205.926 153.440,205.990 155.420,206.025 157.400 L 206.087 161.000 211.343 161.009 C 218.826 161.023,235.004 162.458,254.200 164.812 C 256.180 165.055,259.150 165.408,260.800 165.596 C 268.679 166.494,273.770 167.268,278.859 168.342 C 318.181 176.640,321.446 212.510,284.155 226.531 C 281.093 227.682,268.614 230.701,261.600 231.988 C 252.528 233.651,252.815 233.604,244.500 234.783 C 238.067 235.694,232.861 236.212,220.200 237.200 C 213.506 237.722,187.938 237.720,181.308 237.197 C 163.437 235.786,155.061 234.771,146.000 232.917 C 141.387 231.974,140.375 231.725,135.800 230.410 C 133.262 229.681,127.341 227.438,126.100 226.735 C 125.385 226.331,124.126 225.618,123.302 225.152 C 108.740 216.906,101.998 198.847,108.436 185.329 C 111.593 178.701,121.749 172.075,135.000 167.999 C 136.540 167.526,138.250 166.989,138.800 166.807 C 139.350 166.625,140.700 166.268,141.800 166.013 C 142.900 165.758,144.430 165.394,145.200 165.205 C 145.970 165.015,147.590 164.672,148.800 164.442 C 150.010 164.212,151.900 163.852,153.000 163.641 C 161.574 162.002,173.909 160.881,187.100 160.542 L 197.600 160.273 197.600 161.603 C 197.600 162.335,197.693 162.841,197.806 162.728 C 198.176 162.357,197.173 152.745,196.680 151.953 C 196.163 151.120,188.665 150.848,188.173 151.644 M206.047 167.433 C 206.072 169.835,206.225 172.970,206.386 174.400 C 206.551 175.859,206.594 174.016,206.484 170.200 C 206.265 162.566,205.975 160.733,206.047 167.433 M198.128 166.400 C 198.128 167.830,198.201 168.415,198.289 167.700 C 198.378 166.985,198.378 165.815,198.289 165.100 C 198.201 164.385,198.128 164.970,198.128 166.400 M198.550 176.200 C 198.551 178.620,198.616 179.558,198.696 178.285 C 198.776 177.012,198.775 175.032,198.694 173.885 C 198.614 172.738,198.549 173.780,198.550 176.200 M198.940 184.400 C 198.940 186.270,199.009 187.035,199.093 186.100 C 199.177 185.165,199.177 183.635,199.093 182.700 C 199.009 181.765,198.940 182.530,198.940 184.400 M206.962 187.400 C 206.962 190.920,207.024 192.306,207.098 190.481 C 207.172 188.656,207.172 185.776,207.097 184.081 C 207.022 182.386,206.961 183.880,206.962 187.400 M207.246 196.076 C 207.221 197.108,207.342 198.041,207.516 198.148 C 207.690 198.256,207.770 197.682,207.693 196.872 C 207.459 194.398,207.295 194.107,207.246 196.076 M199.314 196.600 C 199.317 197.700,199.395 198.103,199.487 197.495 C 199.579 196.886,199.577 195.986,199.482 195.495 C 199.387 195.003,199.311 195.500,199.314 196.600 " stroke="none" fill="#acbcc4" fill-rule="evenodd"></path><path id="path2" d="M207.360 199.416 C 206.458 203.009,200.521 203.133,199.394 199.582 C 199.125 198.732,199.069 198.733,193.000 199.642 C 189.384 200.183,187.326 200.633,181.800 202.087 C 178.667 202.912,177.391 203.303,176.705 203.649 C 176.323 203.842,175.736 204.000,175.400 204.000 C 175.064 204.000,174.477 204.166,174.095 204.368 C 173.713 204.570,172.320 205.128,171.000 205.608 C 169.680 206.087,167.880 206.803,167.000 207.198 C 166.120 207.593,164.680 208.226,163.800 208.603 C 158.100 211.047,148.483 216.326,142.918 220.064 C 141.333 221.129,139.863 222.000,139.651 222.000 C 139.440 222.000,139.207 222.147,139.133 222.328 C 139.060 222.508,137.830 223.439,136.400 224.398 C 134.970 225.356,133.710 226.252,133.600 226.389 C 133.490 226.526,132.791 227.064,132.047 227.585 L 130.693 228.531 132.647 229.315 C 133.721 229.746,135.185 230.257,135.900 230.449 C 136.615 230.642,137.875 230.992,138.700 231.227 C 147.797 233.814,159.860 235.504,181.308 237.197 C 187.938 237.720,213.506 237.722,220.200 237.200 C 232.861 236.212,238.067 235.694,244.500 234.783 C 252.815 233.604,252.528 233.651,261.600 231.988 C 268.527 230.717,279.592 228.088,280.149 227.580 C 280.543 227.221,279.729 226.363,275.996 223.202 C 274.568 221.994,273.310 220.913,273.200 220.801 C 272.897 220.493,268.864 217.524,266.565 215.917 C 261.984 212.715,252.380 207.416,248.600 206.006 C 248.160 205.841,247.260 205.479,246.600 205.200 C 245.940 204.921,245.040 204.546,244.600 204.367 C 243.505 203.920,240.061 202.777,238.600 202.375 C 237.940 202.194,236.680 201.841,235.800 201.592 C 229.557 199.826,219.189 198.421,212.308 198.408 L 207.615 198.400 207.360 199.416 " stroke="none" fill="#c4b49c" fill-rule="evenodd"></path><path id="path3" d="M183.400 161.060 C 166.506 161.748,150.283 163.999,138.800 167.249 C 138.030 167.467,136.860 167.797,136.200 167.982 C 126.114 170.817,114.359 177.467,110.803 182.351 C 101.861 194.629,107.483 215.159,122.200 223.969 C 127.331 227.040,131.200 228.638,131.200 227.686 C 131.200 227.514,131.733 227.057,132.385 226.672 C 133.037 226.287,133.802 225.741,134.085 225.459 C 137.102 222.455,155.257 211.763,163.300 208.254 C 164.125 207.894,165.413 207.329,166.163 206.999 C 174.532 203.307,185.030 200.360,195.528 198.755 L 198.856 198.247 198.622 189.423 C 198.493 184.571,198.202 177.270,197.976 173.200 C 197.750 169.130,197.527 164.720,197.482 163.400 L 197.400 161.000 191.800 160.973 C 188.720 160.958,184.940 160.998,183.400 161.060 M206.552 164.700 C 206.690 166.625,206.971 172.520,207.177 177.800 C 207.382 183.080,207.677 189.664,207.833 192.432 L 208.115 197.464 215.358 197.958 C 219.341 198.230,223.500 198.613,224.600 198.809 C 225.700 199.005,227.770 199.374,229.200 199.629 C 235.260 200.711,243.799 203.268,248.800 205.499 C 254.310 207.956,259.740 210.801,262.062 212.447 C 262.646 212.861,263.229 213.200,263.357 213.200 C 264.204 213.200,275.654 222.017,279.000 225.245 C 281.008 227.182,282.743 227.390,284.259 225.874 C 284.410 225.723,284.777 225.600,285.075 225.600 C 287.705 225.600,297.246 219.670,301.404 215.451 C 312.538 204.152,312.773 190.726,302.023 179.977 C 298.008 175.961,291.083 172.056,285.000 170.376 C 284.340 170.194,283.080 169.841,282.200 169.592 C 279.461 168.817,273.814 167.709,270.000 167.199 C 258.786 165.697,235.721 163.115,227.200 162.407 C 224.230 162.161,219.810 161.788,217.379 161.579 C 214.947 161.371,211.460 161.200,209.629 161.200 L 206.300 161.200 206.552 164.700 M310.361 218.900 C 307.781 221.827,304.995 224.516,303.444 225.577 C 302.980 225.894,302.510 226.276,302.400 226.425 C 301.635 227.464,293.044 232.045,289.000 233.572 C 287.680 234.070,286.240 234.621,285.800 234.795 C 283.438 235.733,275.891 237.759,271.000 238.769 C 267.545 239.483,265.542 239.916,264.400 240.196 C 263.850 240.331,262.320 240.613,261.000 240.822 C 259.680 241.031,257.520 241.388,256.200 241.616 C 222.327 247.461,183.761 247.752,150.400 242.413 C 148.970 242.184,147.170 241.900,146.400 241.782 C 145.630 241.664,144.370 241.406,143.600 241.209 C 142.830 241.012,141.300 240.648,140.200 240.400 C 124.457 236.854,111.470 229.206,105.077 219.715 C 104.155 218.346,103.265 217.220,103.100 217.213 C 102.638 217.193,102.736 228.713,103.200 229.000 C 103.428 229.141,103.600 231.177,103.600 233.744 C 103.600 236.787,103.762 238.414,104.100 238.779 C 104.506 239.216,104.488 239.258,104.000 239.000 C 103.512 238.742,103.494 238.784,103.900 239.221 C 104.246 239.594,104.400 241.333,104.400 244.856 C 104.400 247.823,104.567 250.056,104.800 250.200 C 105.032 250.343,105.200 252.537,105.200 255.424 C 105.200 258.475,105.355 260.400,105.600 260.400 C 105.847 260.400,106.000 262.456,106.000 265.767 C 106.000 268.822,106.165 271.191,106.383 271.267 C 106.595 271.341,106.792 273.672,106.825 276.500 C 106.858 279.305,107.046 281.600,107.243 281.600 C 107.439 281.600,107.600 283.929,107.600 286.776 C 107.600 289.796,107.767 292.056,108.000 292.200 C 108.238 292.347,108.400 294.915,108.400 298.557 C 108.400 301.917,108.525 304.792,108.679 304.945 C 108.832 305.098,108.924 308.143,108.884 311.712 C 108.844 315.280,108.991 319.280,109.210 320.600 C 109.429 321.920,109.700 324.440,109.811 326.200 C 110.115 330.987,110.436 333.356,110.839 333.780 C 111.037 333.989,111.200 334.630,111.200 335.205 C 111.200 335.780,111.560 336.995,112.000 337.906 C 112.440 338.816,112.800 339.840,112.800 340.181 C 112.800 340.521,112.980 340.800,113.200 340.800 C 113.420 340.800,113.600 341.160,113.600 341.600 C 113.600 342.040,113.780 342.400,114.000 342.400 C 114.220 342.400,114.400 342.678,114.400 343.018 C 114.400 343.358,114.850 344.086,115.400 344.636 C 115.950 345.186,116.400 345.793,116.400 345.986 C 116.400 346.440,119.596 349.770,119.612 349.333 C 119.619 349.150,119.808 349.315,120.032 349.700 C 120.256 350.085,120.701 350.400,121.020 350.400 C 121.339 350.400,121.600 350.547,121.600 350.726 C 121.600 350.905,122.365 351.469,123.300 351.979 C 128.276 354.695,129.364 355.200,130.241 355.200 C 130.768 355.200,131.200 355.380,131.200 355.600 C 131.200 355.820,131.729 356.000,132.376 356.000 C 133.023 356.000,133.664 356.180,133.800 356.400 C 133.936 356.620,134.746 356.800,135.600 356.800 C 136.454 356.800,137.269 356.988,137.411 357.218 C 137.553 357.448,138.509 357.624,139.535 357.609 C 140.561 357.594,143.200 357.847,145.400 358.171 C 147.600 358.496,151.245 358.770,153.500 358.781 C 155.954 358.792,157.600 358.961,157.600 359.200 C 157.600 359.447,159.659 359.600,162.976 359.600 C 166.129 359.600,168.455 359.765,168.600 360.000 C 168.749 360.241,171.537 360.400,175.624 360.400 C 179.875 360.400,182.400 360.549,182.400 360.800 C 182.400 361.056,186.125 361.200,192.776 361.200 C 199.263 361.200,203.245 361.350,203.400 361.600 C 203.734 362.140,245.481 362.151,245.667 361.611 C 245.747 361.377,249.334 361.207,254.700 361.184 C 259.900 361.161,263.600 360.990,263.600 360.772 C 263.600 360.568,264.939 360.400,266.576 360.400 C 268.213 360.400,269.664 360.220,269.800 360.000 C 269.936 359.780,270.847 359.600,271.824 359.600 C 272.801 359.600,273.600 359.420,273.600 359.200 C 273.600 358.980,274.188 358.800,274.906 358.800 C 275.624 358.800,277.159 358.454,278.317 358.030 C 279.475 357.607,280.508 357.250,280.613 357.238 C 281.654 357.111,283.094 356.563,283.528 356.129 C 283.823 355.834,284.230 355.695,284.432 355.820 C 284.635 355.945,284.800 355.857,284.800 355.624 C 284.800 355.391,285.171 355.200,285.624 355.200 C 286.077 355.200,286.336 355.020,286.200 354.800 C 286.064 354.580,286.235 354.400,286.580 354.400 C 286.925 354.400,287.516 354.040,287.893 353.600 C 288.270 353.160,288.819 352.800,289.113 352.800 C 289.699 352.800,297.200 345.312,297.200 344.727 C 297.200 344.529,297.560 343.980,298.000 343.508 C 298.440 343.036,298.800 342.413,298.800 342.125 C 298.800 341.836,298.991 341.600,299.224 341.600 C 299.457 341.600,299.544 341.432,299.417 341.228 C 299.291 341.023,299.358 340.749,299.568 340.620 C 300.131 340.272,301.200 337.991,301.200 337.139 C 301.200 336.732,301.380 336.400,301.600 336.400 C 301.820 336.400,302.000 336.040,302.000 335.600 C 302.000 335.160,302.180 334.800,302.400 334.800 C 302.620 334.800,302.800 334.159,302.800 333.376 C 302.800 332.593,302.960 332.052,303.157 332.173 C 303.493 332.381,303.622 331.851,304.247 327.708 C 304.387 326.777,304.622 326.090,304.768 326.180 C 304.914 326.271,305.076 325.797,305.127 325.128 C 305.178 324.459,305.395 323.583,305.610 323.182 C 305.824 322.781,306.000 321.731,306.000 320.850 C 306.000 319.968,306.196 319.126,306.435 318.978 C 306.674 318.831,306.780 318.366,306.670 317.945 C 306.560 317.525,306.664 316.510,306.901 315.690 C 307.137 314.871,307.364 313.300,307.404 312.200 C 307.444 311.100,307.573 309.930,307.692 309.600 C 308.140 308.352,308.808 300.847,308.804 297.100 C 308.802 294.764,308.960 293.200,309.200 293.200 C 309.451 293.200,309.600 290.675,309.600 286.424 C 309.600 282.337,309.759 279.549,310.000 279.400 C 310.247 279.248,310.400 275.863,310.400 270.576 C 310.400 265.125,310.546 262.000,310.800 262.000 C 311.055 262.000,311.200 258.600,311.200 252.600 C 311.200 247.083,311.353 243.200,311.571 243.200 C 311.786 243.200,311.960 239.794,311.983 235.116 C 312.006 230.670,312.178 226.935,312.367 226.816 C 312.556 226.697,312.740 224.362,312.777 221.627 C 312.813 218.891,312.934 216.506,313.045 216.327 C 313.650 215.348,312.626 216.329,310.361 218.900 " stroke="none" fill="#e3ebeb" fill-rule="evenodd"></path><path id="path4" d="M178.800 160.836 C 168.932 161.358,153.046 163.182,152.424 163.864 C 152.301 164.000,153.010 163.998,154.000 163.861 C 168.383 161.867,176.885 161.185,188.697 161.080 C 193.590 161.036,197.595 160.865,197.597 160.700 C 197.601 160.336,186.771 160.414,178.800 160.836 M206.173 161.327 C 206.040 161.672,206.017 162.279,206.120 162.677 C 206.242 163.150,206.323 163.020,206.354 162.300 L 206.400 161.200 209.758 161.200 C 211.604 161.200,214.889 161.368,217.058 161.573 C 223.464 162.179,229.419 162.494,229.142 162.212 C 228.288 161.346,206.488 160.506,206.173 161.327 M236.400 163.247 C 240.250 163.665,243.760 163.950,244.200 163.880 C 244.640 163.809,243.920 163.629,242.600 163.479 C 241.280 163.329,238.751 163.025,236.979 162.803 C 235.208 162.582,232.778 162.419,231.579 162.443 C 230.343 162.467,232.430 162.815,236.400 163.247 M197.716 166.400 C 197.710 168.490,197.832 171.550,197.988 173.200 L 198.271 176.200 198.293 173.000 C 198.305 171.240,198.183 168.180,198.021 166.200 L 197.727 162.600 197.716 166.400 M149.000 164.400 C 147.906 164.870,149.733 164.870,151.200 164.400 C 152.175 164.088,152.170 164.079,151.000 164.068 C 150.340 164.062,149.440 164.211,149.000 164.400 M247.000 164.418 C 248.100 164.590,249.720 164.725,250.600 164.719 L 252.200 164.708 250.600 164.377 C 249.720 164.195,248.100 164.060,247.000 164.076 L 245.000 164.107 247.000 164.418 M145.200 165.200 C 144.442 165.690,145.670 165.690,147.200 165.200 C 148.180 164.886,148.176 164.879,147.000 164.846 C 146.340 164.827,145.530 164.987,145.200 165.200 M254.000 165.220 C 254.990 165.397,256.430 165.533,257.200 165.523 L 258.600 165.505 257.400 165.200 C 256.740 165.032,255.300 164.896,254.200 164.897 L 252.200 164.900 254.000 165.220 M141.800 166.000 L 141.000 166.344 141.800 166.332 C 142.240 166.326,143.050 166.176,143.600 166.000 L 144.600 165.680 143.600 165.668 C 143.050 165.662,142.240 165.811,141.800 166.000 M260.800 166.020 C 261.790 166.197,263.230 166.333,264.000 166.323 L 265.400 166.305 264.200 166.000 C 263.540 165.832,262.100 165.696,261.000 165.697 L 259.000 165.700 260.800 166.020 M138.800 166.800 C 138.303 167.121,138.338 167.188,139.000 167.188 C 139.440 167.188,140.070 167.013,140.400 166.800 C 140.897 166.479,140.862 166.412,140.200 166.412 C 139.760 166.412,139.130 166.587,138.800 166.800 M267.000 166.800 C 267.660 166.968,268.920 167.105,269.800 167.105 C 271.317 167.105,271.338 167.090,270.200 166.800 C 269.540 166.632,268.280 166.495,267.400 166.495 C 265.883 166.495,265.862 166.510,267.000 166.800 M206.698 173.800 C 206.813 177.760,206.973 181.075,207.054 181.167 C 207.331 181.483,207.120 170.994,206.804 168.800 C 206.620 167.516,206.575 169.597,206.698 173.800 M136.200 167.600 L 135.400 167.944 136.200 167.966 C 136.640 167.978,137.270 167.813,137.600 167.600 C 138.395 167.086,137.396 167.086,136.200 167.600 M272.800 167.600 C 273.350 167.776,274.340 167.920,275.000 167.920 C 276.167 167.920,276.172 167.911,275.200 167.600 C 274.650 167.424,273.660 167.280,273.000 167.280 C 271.833 167.280,271.828 167.289,272.800 167.600 M133.400 168.406 C 132.960 168.599,130.890 169.431,128.800 170.254 C 112.850 176.539,105.999 184.313,106.000 196.125 C 106.002 207.990,112.583 218.995,123.402 225.224 C 129.681 228.839,131.471 229.043,133.600 226.389 C 133.710 226.252,134.970 225.356,136.400 224.398 C 137.830 223.439,139.060 222.508,139.133 222.328 C 139.207 222.147,139.440 222.000,139.651 222.000 C 139.863 222.000,141.333 221.129,142.918 220.064 C 148.483 216.326,158.100 211.047,163.800 208.603 C 164.680 208.226,166.120 207.593,167.000 207.198 C 167.880 206.803,169.680 206.087,171.000 205.608 C 172.320 205.128,173.713 204.570,174.095 204.368 C 174.477 204.166,175.064 204.000,175.400 204.000 C 175.736 204.000,176.323 203.842,176.705 203.649 C 177.393 203.302,178.502 202.962,182.000 202.027 C 182.990 201.762,184.340 201.395,185.000 201.211 C 185.660 201.027,186.920 200.746,187.800 200.587 C 188.680 200.428,189.170 200.214,188.889 200.112 C 187.443 199.586,172.973 203.983,166.063 207.046 C 165.258 207.403,163.970 207.968,163.200 208.302 C 155.375 211.694,137.083 222.474,134.085 225.459 C 133.802 225.741,133.037 226.287,132.385 226.672 C 131.733 227.057,131.200 227.514,131.200 227.686 C 131.200 228.638,127.331 227.040,122.200 223.969 C 107.483 215.159,101.861 194.629,110.803 182.351 C 113.829 178.195,123.216 172.433,131.600 169.584 C 134.634 168.553,135.747 168.016,134.800 168.039 C 134.470 168.047,133.840 168.212,133.400 168.406 M277.000 168.400 C 277.440 168.589,278.340 168.738,279.000 168.732 C 280.170 168.721,280.175 168.712,279.200 168.400 C 277.733 167.930,275.906 167.930,277.000 168.400 M281.000 169.185 C 281.440 169.366,282.610 169.735,283.600 170.004 C 309.324 176.990,317.852 198.760,301.404 215.451 C 297.246 219.670,287.705 225.600,285.075 225.600 C 284.777 225.600,284.410 225.723,284.259 225.874 C 282.743 227.390,281.008 227.182,279.000 225.245 C 275.654 222.017,264.204 213.200,263.357 213.200 C 263.229 213.200,262.646 212.861,262.062 212.447 C 258.257 209.750,249.736 205.649,243.240 203.389 C 236.837 201.162,228.685 199.151,226.428 199.241 C 225.306 199.286,226.702 199.668,230.800 200.436 C 232.010 200.663,233.540 200.993,234.200 201.170 C 236.859 201.883,239.119 202.545,241.400 203.280 C 243.749 204.036,244.263 204.224,246.500 205.146 C 247.105 205.396,248.005 205.758,248.500 205.952 C 252.728 207.606,261.964 212.701,266.565 215.917 C 268.864 217.524,272.897 220.493,273.200 220.801 C 273.310 220.913,274.570 221.993,276.000 223.201 C 277.430 224.409,279.099 225.916,279.708 226.549 L 280.816 227.701 283.308 226.820 C 318.130 214.500,319.589 181.395,285.804 170.210 C 281.980 168.945,278.748 168.254,281.000 169.185 M198.663 189.251 L 198.853 198.301 196.526 198.632 C 194.809 198.875,194.505 199.002,195.363 199.114 C 196.003 199.197,197.128 199.152,197.863 199.015 L 199.200 198.764 199.151 193.682 C 199.124 190.887,198.960 186.710,198.787 184.400 C 198.571 181.518,198.532 183.039,198.663 189.251 M207.398 191.282 C 207.562 199.062,207.036 198.413,213.124 198.334 L 218.200 198.267 213.100 197.876 L 208.000 197.484 207.948 194.242 C 207.919 192.459,207.754 189.650,207.580 188.000 C 207.345 185.753,207.299 186.577,207.398 191.282 M220.200 198.818 C 222.988 199.253,225.776 199.241,224.400 198.800 C 223.850 198.624,222.230 198.486,220.800 198.493 L 218.200 198.507 220.200 198.818 M190.400 199.600 C 189.495 199.890,189.533 199.920,190.800 199.920 C 191.570 199.920,192.650 199.776,193.200 199.600 C 194.105 199.310,194.067 199.280,192.800 199.280 C 192.030 199.280,190.950 199.424,190.400 199.600 M102.000 216.437 C 102.000 216.678,102.315 216.961,102.700 217.066 C 103.085 217.171,104.155 218.370,105.077 219.731 C 111.521 229.236,124.472 236.857,140.200 240.400 C 141.300 240.648,142.830 241.012,143.600 241.209 C 144.370 241.406,145.630 241.664,146.400 241.782 C 147.170 241.900,148.970 242.184,150.400 242.413 C 162.621 244.369,181.328 246.037,189.800 245.927 C 194.615 245.864,193.040 245.690,183.000 245.174 C 171.617 244.589,169.923 244.471,166.100 244.004 C 164.285 243.782,161.225 243.412,159.300 243.182 C 131.323 239.843,113.839 232.169,105.577 219.600 C 103.471 216.395,102.000 215.095,102.000 216.437 M310.813 217.700 C 305.561 224.271,297.200 230.095,288.236 233.427 C 287.156 233.829,286.451 234.217,286.670 234.290 C 287.773 234.658,298.860 229.113,302.446 226.400 C 304.208 225.066,306.812 222.802,307.800 221.742 C 310.384 218.972,312.830 216.000,312.526 216.000 C 312.331 216.000,311.561 216.765,310.813 217.700 M284.400 234.800 C 283.912 235.115,283.964 235.189,284.676 235.194 C 285.158 235.197,285.664 235.020,285.800 234.800 C 286.115 234.291,285.188 234.291,284.400 234.800 M278.620 236.444 C 274.895 237.523,265.111 239.691,260.600 240.437 C 259.500 240.619,257.430 240.963,256.000 241.202 C 242.452 243.460,232.801 244.502,219.000 245.196 C 208.583 245.720,207.095 246.039,216.256 245.784 C 227.900 245.461,243.130 243.872,256.200 241.616 C 257.520 241.388,259.680 241.031,261.000 240.822 C 262.320 240.613,263.850 240.331,264.400 240.196 C 265.542 239.916,267.545 239.483,271.000 238.769 C 275.948 237.747,283.600 235.690,283.600 235.381 C 283.600 235.069,282.718 235.257,278.620 236.444 M198.900 246.298 C 200.825 246.371,203.975 246.371,205.900 246.298 C 207.825 246.225,206.250 246.165,202.400 246.165 C 198.550 246.165,196.975 246.225,198.900 246.298 " stroke="none" fill="#cad1c8" fill-rule="evenodd"></path></g></svg>