<svg id="svg" version="1.1" xmlns="http://www.w3.org/2000/svg" xmlns:xlink="http://www.w3.org/1999/xlink" width="400" height="400" viewBox="0, 0, 400,400"><g id="svgg"><path id="path0" d="M132.000 61.692 C 131.450 61.945,130.190 62.512,129.200 62.954 C 128.210 63.395,127.109 64.081,126.753 64.478 C 126.397 64.875,125.900 65.200,125.648 65.200 C 125.120 65.200,117.609 72.635,115.744 75.004 C 115.054 75.882,112.849 78.261,110.844 80.292 C 108.840 82.322,107.200 84.145,107.200 84.342 C 107.200 84.540,105.850 86.078,104.200 87.761 C 102.550 89.443,101.200 91.046,101.200 91.322 C 101.200 91.598,100.840 92.083,100.400 92.400 C 99.960 92.717,99.600 93.297,99.600 93.688 C 99.600 94.080,99.420 94.400,99.200 94.400 C 98.980 94.400,98.800 94.839,98.800 95.376 C 98.800 95.913,98.620 96.464,98.400 96.600 C 97.879 96.922,97.879 102.278,98.400 102.600 C 98.620 102.736,98.800 103.209,98.800 103.652 C 98.800 105.107,102.428 109.600,103.603 109.600 C 103.821 109.600,104.000 109.780,104.000 110.000 C 104.000 110.220,104.270 110.400,104.600 110.400 C 104.930 110.400,105.200 110.580,105.200 110.800 C 105.200 111.020,105.436 111.200,105.725 111.200 C 106.013 111.200,106.636 111.560,107.108 112.000 C 107.580 112.440,108.244 112.800,108.583 112.800 C 108.922 112.800,109.200 112.980,109.200 113.200 C 109.200 113.420,109.560 113.600,110.000 113.600 C 110.440 113.600,110.800 113.780,110.800 114.000 C 110.800 114.220,111.160 114.400,111.600 114.400 C 112.040 114.400,112.400 114.580,112.400 114.800 C 112.400 115.020,112.670 115.200,113.000 115.200 C 113.330 115.200,113.600 115.380,113.600 115.600 C 113.600 115.820,113.960 116.000,114.400 116.000 C 114.840 116.000,115.200 116.180,115.200 116.400 C 115.200 116.620,115.472 116.800,115.805 116.800 C 116.138 116.800,116.768 116.980,117.205 117.200 C 117.642 117.420,118.358 117.780,118.795 118.000 C 119.232 118.220,119.862 118.400,120.195 118.400 C 120.528 118.400,120.800 118.580,120.800 118.800 C 120.800 119.020,121.149 119.200,121.576 119.200 C 122.003 119.200,122.464 119.380,122.600 119.600 C 122.736 119.820,123.276 120.000,123.800 120.000 C 124.324 120.000,124.864 120.180,125.000 120.400 C 125.136 120.620,125.591 120.800,126.011 120.800 C 126.432 120.800,127.417 121.160,128.200 121.600 C 128.983 122.040,129.968 122.400,130.389 122.400 C 130.809 122.400,131.264 122.580,131.400 122.800 C 131.536 123.020,132.256 123.200,133.000 123.200 C 133.744 123.200,134.471 123.392,134.616 123.626 C 134.797 123.918,140.067 124.035,151.340 123.998 C 160.393 123.968,167.995 123.956,168.234 123.972 C 168.540 123.992,168.752 133.540,168.950 156.300 C 169.523 221.896,169.618 230.700,170.004 254.600 C 170.221 268.020,170.403 291.735,170.409 307.301 C 170.415 322.866,170.528 336.141,170.660 336.801 L 170.900 338.000 184.183 338.000 C 191.489 338.000,197.591 338.125,197.744 338.277 C 198.259 338.792,199.601 338.808,199.499 338.297 C 199.422 337.909,202.893 337.777,215.350 337.695 L 231.299 337.591 231.030 330.295 C 230.882 326.283,230.682 283.670,230.585 235.600 C 230.485 185.891,230.235 144.360,230.005 139.295 C 229.358 125.063,229.413 123.253,230.500 123.032 C 230.995 122.932,238.937 122.740,248.149 122.606 L 264.899 122.363 267.949 120.723 C 269.627 119.822,272.080 118.527,273.400 117.846 C 274.720 117.166,276.091 116.292,276.447 115.904 C 276.803 115.517,277.388 115.200,277.747 115.200 C 278.106 115.200,278.400 115.020,278.400 114.800 C 278.400 114.580,278.636 114.400,278.925 114.400 C 279.213 114.400,279.836 114.040,280.308 113.600 C 280.780 113.160,281.327 112.800,281.524 112.800 C 281.721 112.800,282.446 112.260,283.137 111.600 C 283.828 110.940,284.583 110.400,284.815 110.400 C 285.047 110.400,285.660 109.995,286.178 109.500 C 286.696 109.005,287.697 108.159,288.404 107.620 C 290.225 106.230,294.000 102.304,294.000 101.800 C 294.000 101.567,294.360 101.117,294.800 100.800 C 295.240 100.483,295.600 99.903,295.600 99.512 C 295.600 99.120,295.780 98.800,296.000 98.800 C 296.220 98.800,296.400 98.440,296.400 98.000 C 296.400 97.560,296.580 97.200,296.800 97.200 C 297.020 97.200,297.200 96.480,297.200 95.600 C 297.200 94.720,297.380 94.000,297.600 94.000 C 297.820 94.000,298.000 93.550,298.000 93.000 C 298.000 92.450,297.820 92.000,297.600 92.000 C 297.380 92.000,297.200 91.100,297.200 90.000 C 297.200 88.900,297.065 87.999,296.900 87.997 C 296.594 87.994,295.600 86.100,295.600 85.520 C 295.600 85.027,289.735 79.200,289.239 79.200 C 288.997 79.200,288.800 79.047,288.800 78.861 C 288.800 78.674,288.080 78.197,287.200 77.800 C 286.320 77.403,285.600 76.926,285.600 76.739 C 285.600 76.553,285.240 76.400,284.800 76.400 C 284.360 76.400,284.000 76.220,284.000 76.000 C 284.000 75.780,283.719 75.600,283.376 75.600 C 283.033 75.600,282.864 75.420,283.000 75.200 C 283.136 74.980,282.959 74.800,282.607 74.800 C 282.255 74.800,281.580 74.440,281.108 74.000 C 280.636 73.560,280.013 73.200,279.725 73.200 C 279.436 73.200,279.200 73.020,279.200 72.800 C 279.200 72.580,278.880 72.400,278.488 72.400 C 278.097 72.400,277.517 72.040,277.200 71.600 C 276.883 71.160,276.339 70.800,275.992 70.800 C 275.644 70.800,275.189 70.632,274.980 70.427 C 274.350 69.808,269.960 67.600,269.359 67.600 C 269.052 67.600,268.800 67.420,268.800 67.200 C 268.800 66.980,268.249 66.800,267.576 66.800 C 266.863 66.800,266.456 66.633,266.600 66.400 C 266.749 66.159,266.212 66.000,265.247 66.000 C 264.367 66.000,263.536 65.820,263.400 65.600 C 263.261 65.375,261.337 65.200,259.000 65.200 C 256.663 65.200,254.739 65.375,254.600 65.600 C 254.464 65.820,253.823 66.000,253.176 66.000 C 252.529 66.000,252.000 66.180,252.000 66.400 C 252.000 66.620,251.661 66.800,251.246 66.800 C 250.417 66.800,249.466 67.263,246.908 68.910 C 245.977 69.510,245.034 70.000,244.811 70.000 C 244.589 70.000,244.182 70.360,243.907 70.800 C 243.632 71.240,243.131 71.600,242.792 71.600 C 242.454 71.600,241.917 71.960,241.600 72.400 C 241.283 72.840,240.815 73.200,240.560 73.200 C 240.305 73.200,239.355 73.920,238.448 74.800 C 237.541 75.680,236.609 76.400,236.376 76.400 C 236.143 76.400,236.064 76.580,236.200 76.800 C 236.336 77.020,236.161 77.200,235.810 77.200 C 235.460 77.200,234.639 77.746,233.987 78.414 C 233.334 79.081,232.800 79.531,232.800 79.413 C 232.800 79.294,231.585 80.469,230.100 82.024 C 228.615 83.578,226.635 85.644,225.700 86.614 C 224.765 87.585,224.000 88.548,224.000 88.755 C 224.000 88.961,222.920 90.227,221.600 91.568 C 220.280 92.908,219.200 94.112,219.200 94.242 C 219.200 94.372,218.660 94.983,218.000 95.600 C 217.340 96.217,216.800 96.919,216.800 97.160 C 216.800 97.402,216.620 97.600,216.400 97.600 C 216.180 97.600,216.000 97.830,216.000 98.112 C 216.000 98.393,215.640 98.883,215.200 99.200 C 214.760 99.517,214.400 100.007,214.400 100.288 C 214.400 100.570,214.250 100.800,214.067 100.800 C 213.884 100.800,213.126 101.745,212.383 102.900 C 211.640 104.055,210.844 105.219,210.616 105.486 C 209.377 106.935,209.200 107.211,209.200 107.695 C 209.200 107.986,208.840 108.483,208.400 108.800 C 207.960 109.117,207.600 109.607,207.600 109.888 C 207.600 110.170,207.420 110.400,207.200 110.400 C 206.980 110.400,206.800 110.578,206.800 110.795 C 206.800 111.167,206.040 112.215,204.900 113.416 C 204.625 113.706,204.400 114.143,204.400 114.388 C 204.400 114.633,204.040 115.220,203.600 115.692 C 203.160 116.164,202.800 116.787,202.800 117.075 C 202.800 117.364,202.641 117.600,202.447 117.600 C 202.252 117.600,201.993 117.915,201.871 118.300 C 201.607 119.132,200.392 121.167,199.729 121.888 C 198.552 123.166,194.800 122.207,194.800 120.629 C 194.800 120.283,194.620 120.000,194.400 120.000 C 194.180 120.000,194.000 119.640,194.000 119.200 C 194.000 118.760,193.841 118.400,193.647 118.400 C 193.452 118.400,193.190 118.085,193.064 117.700 C 192.938 117.315,192.405 116.280,191.880 115.400 C 191.354 114.520,190.926 113.710,190.928 113.600 C 190.938 113.106,189.356 110.124,188.713 109.425 C 188.321 108.998,188.000 108.413,188.000 108.125 C 188.000 107.836,187.820 107.600,187.600 107.600 C 187.380 107.600,187.200 107.240,187.200 106.800 C 187.200 106.360,187.062 106.000,186.894 106.000 C 186.726 106.000,186.287 105.304,185.918 104.453 C 185.550 103.601,185.009 102.656,184.718 102.353 C 184.427 102.049,183.741 100.945,183.195 99.900 C 182.648 98.855,182.066 98.000,181.901 98.000 C 181.735 98.000,181.600 97.764,181.600 97.475 C 181.600 97.187,181.240 96.564,180.800 96.092 C 180.360 95.620,180.000 95.046,180.000 94.817 C 180.000 94.588,179.820 94.400,179.600 94.400 C 179.380 94.400,179.200 94.157,179.200 93.859 C 179.200 93.562,178.660 92.754,178.000 92.063 C 177.340 91.372,176.800 90.575,176.800 90.292 C 176.800 90.009,176.440 89.517,176.000 89.200 C 175.560 88.883,175.200 88.325,175.200 87.961 C 175.200 87.596,174.901 87.051,174.535 86.749 C 174.170 86.447,173.541 85.660,173.139 85.000 C 171.243 81.888,156.367 66.800,155.195 66.800 C 154.978 66.800,154.800 66.620,154.800 66.400 C 154.800 66.180,154.530 66.000,154.200 66.000 C 153.870 66.000,153.600 65.820,153.600 65.600 C 153.600 65.380,153.240 65.200,152.800 65.200 C 152.360 65.200,152.000 65.020,152.000 64.800 C 152.000 64.580,151.730 64.400,151.400 64.400 C 151.070 64.400,150.800 64.190,150.800 63.933 C 150.800 63.677,150.685 63.582,150.544 63.723 C 150.403 63.864,149.818 63.736,149.244 63.438 C 145.931 61.722,144.772 61.499,138.400 61.355 C 134.927 61.276,132.643 61.396,132.000 61.692 " stroke="none" fill="#fbaca4" fill-rule="evenodd"></path><path id="path1" d="M262.000 122.891 C 261.210 123.122,254.031 123.380,245.533 123.483 L 230.466 123.666 230.676 142.933 C 230.792 153.530,231.002 170.912,231.143 181.561 L 231.400 200.922 281.871 200.833 C 338.250 200.733,333.598 200.490,335.004 203.609 C 335.716 205.188,337.176 205.810,337.800 204.800 C 337.936 204.580,338.442 204.396,338.924 204.391 C 339.406 204.386,340.250 204.030,340.800 203.600 C 341.350 203.170,341.954 202.814,342.142 202.809 C 342.687 202.795,344.587 201.015,344.732 200.383 C 344.805 200.067,344.985 199.716,345.132 199.604 C 345.667 199.197,346.400 197.592,346.400 196.829 C 346.400 196.399,346.580 195.936,346.800 195.800 C 347.035 195.655,347.200 193.329,347.200 190.176 C 347.200 186.859,347.047 184.800,346.800 184.800 C 346.565 184.800,346.400 183.408,346.400 181.424 C 346.400 179.567,346.220 177.936,346.000 177.800 C 345.777 177.662,345.600 175.804,345.600 173.600 C 345.600 171.396,345.423 169.538,345.200 169.400 C 344.980 169.264,344.800 167.554,344.800 165.600 C 344.800 163.646,344.620 161.936,344.400 161.800 C 344.179 161.664,344.000 159.870,344.000 157.800 C 344.000 155.730,343.821 153.936,343.600 153.800 C 343.380 153.664,343.200 152.134,343.200 150.400 C 343.200 148.666,343.020 147.136,342.800 147.000 C 342.580 146.864,342.400 145.503,342.400 143.976 C 342.400 142.449,342.237 141.200,342.039 141.200 C 341.731 141.200,341.307 138.765,341.185 136.300 C 341.166 135.915,341.005 135.600,340.827 135.600 C 340.649 135.600,340.285 134.817,340.017 133.861 C 339.749 132.904,339.141 131.665,338.665 131.106 C 338.189 130.548,337.261 129.441,336.602 128.645 C 335.943 127.850,335.128 127.200,334.791 127.200 C 334.453 127.200,333.917 126.840,333.600 126.400 C 333.283 125.960,332.703 125.600,332.312 125.600 C 331.920 125.600,331.600 125.420,331.600 125.200 C 331.600 124.980,331.060 124.800,330.400 124.800 C 329.740 124.800,329.200 124.620,329.200 124.400 C 329.200 124.180,328.660 124.000,328.000 124.000 C 327.340 124.000,326.800 123.820,326.800 123.600 C 326.800 123.378,325.733 123.200,324.400 123.200 C 323.067 123.200,322.000 123.022,322.000 122.800 C 322.000 122.245,263.907 122.334,262.000 122.891 M102.600 124.057 C 71.467 124.308,66.000 124.484,66.000 125.237 C 66.000 125.437,65.460 125.600,64.800 125.600 C 64.140 125.600,63.600 125.780,63.600 126.000 C 63.600 126.220,63.240 126.400,62.800 126.400 C 62.360 126.400,62.000 126.580,62.000 126.800 C 62.000 127.020,61.774 127.200,61.497 127.200 C 60.809 127.200,58.629 129.635,57.956 131.155 C 57.653 131.840,57.269 132.400,57.102 132.400 C 56.936 132.400,56.800 132.850,56.800 133.400 C 56.800 133.950,56.620 134.400,56.400 134.400 C 56.177 134.400,56.000 135.475,56.000 136.824 C 56.000 138.170,55.839 139.148,55.638 139.023 C 55.428 138.894,55.242 141.378,55.196 144.900 C 55.097 152.479,55.127 152.000,54.751 152.000 C 54.578 152.000,54.339 155.105,54.221 158.900 C 54.103 162.695,53.912 168.680,53.798 172.200 C 53.683 175.720,53.403 178.964,53.176 179.408 C 52.365 180.995,53.130 197.262,54.042 197.826 C 54.239 197.948,54.400 198.407,54.400 198.847 C 54.400 199.287,54.561 199.548,54.757 199.426 C 54.954 199.305,55.224 199.609,55.359 200.103 C 55.713 201.407,57.623 203.341,59.643 204.442 C 60.609 204.969,61.460 205.535,61.533 205.700 C 61.607 205.865,62.181 206.000,62.810 206.000 C 63.438 206.000,64.064 206.180,64.200 206.400 C 64.655 207.137,65.082 206.812,66.044 204.998 C 67.754 201.774,63.595 202.033,119.063 201.699 L 168.600 201.400 168.592 187.800 C 168.588 180.320,168.537 162.995,168.479 149.300 L 168.372 124.400 153.286 124.376 C 144.989 124.363,137.390 124.228,136.400 124.076 C 135.410 123.924,120.200 123.916,102.600 124.057 M286.200 209.222 C 266.400 209.367,245.925 209.511,240.700 209.543 L 231.200 209.600 231.200 261.535 C 231.200 290.099,231.319 319.171,231.465 326.139 L 231.729 338.808 269.465 338.796 C 293.842 338.788,307.200 338.645,307.200 338.392 C 307.200 338.176,307.854 338.000,308.654 338.000 C 309.453 338.000,310.758 337.829,311.554 337.620 C 316.072 336.434,316.800 336.197,316.800 335.913 C 316.800 335.741,317.143 335.600,317.562 335.600 C 318.469 335.600,321.600 333.992,321.600 333.526 C 321.600 333.347,321.825 333.200,322.100 333.200 C 322.375 333.199,323.123 332.749,323.762 332.200 C 324.401 331.650,324.815 331.200,324.682 331.200 C 324.549 331.200,325.511 330.126,326.820 328.812 C 328.129 327.499,329.200 326.149,329.200 325.812 C 329.200 325.476,329.380 325.200,329.600 325.200 C 329.820 325.200,330.000 324.829,330.000 324.376 C 330.000 323.923,330.180 323.664,330.400 323.800 C 330.620 323.936,330.800 323.677,330.800 323.224 C 330.800 322.771,330.980 322.400,331.200 322.400 C 331.420 322.400,331.600 322.076,331.600 321.680 C 331.600 321.284,331.825 320.718,332.100 320.421 C 332.506 319.984,332.488 319.942,332.000 320.200 C 331.512 320.458,331.494 320.416,331.900 319.979 C 332.175 319.682,332.400 319.037,332.400 318.544 C 332.400 318.051,332.560 317.548,332.756 317.427 C 333.118 317.204,333.461 315.635,333.857 312.400 C 333.978 311.410,334.240 310.429,334.439 310.220 C 334.637 310.011,334.800 307.457,334.800 304.544 C 334.800 301.631,334.960 299.148,335.156 299.027 C 335.647 298.724,335.722 264.400,335.231 264.400 C 335.002 264.400,334.834 260.536,334.810 254.700 C 334.765 244.277,334.756 244.086,334.227 243.238 C 333.968 242.823,334.023 242.760,334.438 242.997 C 334.893 243.256,334.904 243.214,334.500 242.779 C 334.142 242.393,334.000 240.358,334.000 235.600 C 334.000 231.835,333.832 228.792,333.611 228.571 C 333.398 228.358,333.201 225.802,333.175 222.893 C 333.149 219.983,332.964 217.502,332.764 217.378 C 332.564 217.254,332.400 215.518,332.400 213.520 C 332.400 208.816,332.385 208.804,326.600 208.892 C 324.180 208.929,306.000 209.077,286.200 209.222 M95.200 210.396 L 69.400 210.600 69.297 233.100 C 69.228 248.026,69.329 255.600,69.597 255.600 C 69.852 255.600,70.000 258.154,70.000 262.576 C 70.000 266.796,70.158 269.650,70.400 269.800 C 70.632 269.943,70.800 272.137,70.800 275.024 C 70.800 278.075,70.955 280.000,71.200 280.000 C 71.437 280.000,71.600 281.459,71.600 283.576 C 71.600 285.543,71.753 287.247,71.939 287.362 C 72.125 287.477,72.316 288.883,72.362 290.486 C 72.408 292.089,72.615 293.571,72.823 293.780 C 73.030 293.989,73.200 295.215,73.200 296.504 C 73.200 297.964,73.351 298.754,73.600 298.600 C 73.841 298.451,74.000 298.988,74.000 299.953 C 74.000 300.833,74.180 301.664,74.400 301.800 C 74.620 301.936,74.800 302.757,74.800 303.624 C 74.800 304.491,74.980 305.200,75.200 305.200 C 75.420 305.200,75.600 305.729,75.600 306.376 C 75.600 307.023,75.780 307.664,76.000 307.800 C 76.220 307.936,76.400 308.397,76.400 308.824 C 76.400 309.251,76.580 309.600,76.800 309.600 C 77.020 309.600,77.200 310.032,77.200 310.559 C 77.200 312.132,80.670 318.477,82.700 320.616 C 82.975 320.906,83.200 321.269,83.200 321.423 C 83.200 321.927,86.575 325.200,87.094 325.200 C 87.372 325.200,87.600 325.380,87.600 325.600 C 87.600 325.820,87.782 326.000,88.004 326.000 C 88.226 326.000,88.972 326.540,89.663 327.200 C 90.354 327.860,91.162 328.400,91.459 328.400 C 91.757 328.400,92.000 328.580,92.000 328.800 C 92.000 329.020,92.300 329.200,92.667 329.200 C 93.033 329.200,93.218 329.315,93.078 329.456 C 92.761 329.772,97.937 332.384,98.900 332.393 C 99.285 332.397,99.600 332.580,99.600 332.800 C 99.600 333.020,99.902 333.200,100.272 333.200 C 101.024 333.200,103.433 333.913,104.495 334.449 C 104.877 334.642,105.721 334.800,106.371 334.800 C 107.021 334.800,107.664 334.980,107.800 335.200 C 107.936 335.420,108.631 335.600,109.344 335.600 C 110.057 335.600,110.811 335.766,111.020 335.969 C 111.451 336.387,115.144 336.737,122.300 337.039 C 124.995 337.153,127.200 337.395,127.200 337.578 C 127.200 337.761,136.830 337.940,148.600 337.975 L 170.000 338.039 169.995 327.720 C 169.989 314.855,169.330 250.498,168.967 227.300 L 168.697 210.000 144.848 210.096 C 131.732 210.148,109.390 210.283,95.200 210.396 " stroke="none" fill="#e3ebeb" fill-rule="evenodd"></path><path id="path2" d="M235.400 201.179 L 231.000 201.400 230.885 205.307 C 230.800 208.208,230.903 209.265,231.285 209.410 C 231.568 209.518,254.120 209.449,281.400 209.256 C 309.506 209.057,331.165 209.055,331.380 209.252 C 332.186 209.990,332.964 209.667,334.819 207.825 C 336.203 206.450,335.491 203.150,333.457 201.509 C 332.595 200.814,248.322 200.530,235.400 201.179 M85.400 201.989 C 66.792 202.223,67.580 202.102,66.071 204.951 C 64.760 207.426,65.656 210.400,67.713 210.400 C 68.054 210.400,68.409 210.625,68.502 210.900 C 68.629 211.277,68.809 211.288,69.235 210.946 C 69.645 210.617,83.291 210.415,119.000 210.211 C 155.526 210.002,168.310 209.809,168.627 209.464 C 168.893 209.175,168.992 207.602,168.888 205.300 L 168.720 201.600 135.460 201.689 C 117.167 201.739,94.640 201.874,85.400 201.989 M201.712 338.695 C 202.764 338.777,204.384 338.776,205.312 338.692 C 206.240 338.608,205.380 338.541,203.400 338.542 C 201.420 338.543,200.660 338.612,201.712 338.695 " stroke="none" fill="#acbcc4" fill-rule="evenodd"></path><path id="path3" d="M241.001 123.190 L 229.802 123.400 229.940 127.800 C 230.120 133.572,230.400 133.734,230.400 128.067 L 230.400 123.600 243.900 123.565 C 251.325 123.546,258.300 123.390,259.400 123.218 C 261.704 122.860,258.914 122.855,241.001 123.190 M157.586 124.297 L 168.372 124.413 168.388 149.475 C 168.396 163.258,168.494 174.627,168.604 174.738 C 168.715 174.849,168.760 163.523,168.703 149.570 L 168.600 124.200 157.700 124.190 L 146.800 124.180 157.586 124.297 M230.567 156.400 C 230.597 177.900,230.899 202.306,231.124 201.400 C 231.263 200.841,231.144 183.470,230.815 156.400 L 230.535 133.400 230.567 156.400 M168.780 199.890 C 168.671 200.819,168.733 201.427,168.920 201.240 C 169.106 201.054,169.196 200.294,169.119 199.551 C 168.983 198.233,168.975 198.242,168.780 199.890 M168.855 209.400 C 168.751 209.853,168.794 214.137,169.180 241.800 L 169.454 261.400 169.473 243.200 C 169.489 227.456,169.137 208.177,168.855 209.400 M230.993 252.200 C 230.993 275.960,231.041 285.621,231.100 273.669 C 231.159 261.717,231.159 242.277,231.100 230.469 C 231.041 218.661,230.993 228.440,230.993 252.200 M169.731 285.200 C 169.720 292.790,169.831 307.820,169.978 318.600 L 170.245 338.200 170.268 319.200 C 170.281 308.750,170.170 293.720,170.022 285.800 L 169.752 271.400 169.731 285.200 M231.200 330.000 L 231.200 338.000 224.176 338.000 C 219.536 338.000,217.238 338.137,217.403 338.405 C 217.559 338.658,220.277 338.785,224.627 338.744 L 231.600 338.677 231.600 330.338 C 231.600 325.752,231.510 322.000,231.400 322.000 C 231.290 322.000,231.200 325.600,231.200 330.000 M202.100 338.294 C 203.145 338.376,204.855 338.376,205.900 338.294 C 206.945 338.212,206.090 338.144,204.000 338.144 C 201.910 338.144,201.055 338.212,202.100 338.294 M208.400 338.400 C 209.205 338.921,216.800 338.921,216.800 338.400 C 216.800 338.157,215.037 338.002,212.300 338.006 C 209.247 338.010,207.993 338.137,208.400 338.400 " stroke="none" fill="#edccc5" fill-rule="evenodd"></path><path id="path4" d="M241.200 122.800 L 230.200 123.019 240.400 123.057 C 246.010 123.077,253.390 122.970,256.800 122.819 L 263.000 122.543 257.600 122.562 C 254.630 122.572,247.250 122.679,241.200 122.800 M166.100 123.876 C 166.485 123.976,167.115 123.976,167.500 123.876 C 167.885 123.775,167.570 123.693,166.800 123.693 C 166.030 123.693,165.715 123.775,166.100 123.876 M141.300 124.294 C 142.345 124.376,144.055 124.376,145.100 124.294 C 146.145 124.212,145.290 124.144,143.200 124.144 C 141.110 124.144,140.255 124.212,141.300 124.294 M229.715 128.600 C 229.704 130.800,229.822 135.030,229.979 138.000 L 230.263 143.400 230.281 138.400 C 230.290 135.650,230.172 131.420,230.017 129.000 L 229.736 124.600 229.715 128.600 M168.949 187.400 C 168.957 198.840,169.071 206.490,169.202 204.400 C 169.332 202.310,169.325 192.950,169.186 183.600 L 168.933 166.600 168.949 187.400 M230.576 191.000 C 230.576 197.160,230.632 199.624,230.699 196.476 C 230.767 193.327,230.767 188.287,230.699 185.276 C 230.631 182.264,230.576 184.840,230.576 191.000 M169.365 216.200 C 169.366 220.160,169.426 221.726,169.498 219.680 C 169.571 217.634,169.571 214.394,169.498 212.480 C 169.424 210.566,169.365 212.240,169.365 216.200 M230.454 254.633 C 230.484 279.695,230.623 305.960,230.763 313.000 C 230.903 320.040,230.944 299.610,230.855 267.600 C 230.766 235.590,230.627 209.325,230.546 209.233 C 230.466 209.142,230.424 229.572,230.454 254.633 M169.731 255.400 C 169.719 262.440,169.830 274.680,169.978 282.600 L 170.248 297.000 170.268 284.600 C 170.280 277.780,170.169 265.540,170.021 257.400 L 169.753 242.600 169.731 255.400 M199.722 337.855 C 199.862 337.996,201.616 338.075,203.618 338.031 C 206.130 337.975,207.459 338.113,207.906 338.475 C 208.383 338.862,208.474 338.868,208.253 338.500 C 208.020 338.112,208.928 338.000,212.296 338.000 C 215.217 338.000,216.816 338.164,217.179 338.500 C 217.588 338.880,217.651 338.882,217.441 338.509 C 217.228 338.132,218.803 337.991,224.282 337.899 C 228.197 337.834,224.215 337.740,215.433 337.690 C 206.652 337.641,199.582 337.715,199.722 337.855 " stroke="none" fill="#f4c4bc" fill-rule="evenodd"></path></g></svg>