<svg id="svg" version="1.1" xmlns="http://www.w3.org/2000/svg" xmlns:xlink="http://www.w3.org/1999/xlink" width="400" height="400" viewBox="0, 0, 400,400"><g id="svgg"><path id="path0" d="M335.400 118.000 C 335.264 118.220,333.734 118.400,332.000 118.400 C 330.266 118.400,328.736 118.580,328.600 118.800 C 328.464 119.020,327.373 119.200,326.176 119.200 C 324.979 119.200,324.000 119.380,324.000 119.600 C 324.000 119.820,323.100 120.000,322.000 120.000 C 320.900 120.000,320.000 120.180,320.000 120.400 C 320.000 120.620,319.280 120.800,318.400 120.800 C 317.520 120.800,316.800 120.980,316.800 121.200 C 316.800 121.420,316.260 121.600,315.600 121.600 C 314.940 121.600,314.400 121.780,314.400 122.000 C 314.400 122.220,313.871 122.400,313.224 122.400 C 312.577 122.400,311.936 122.580,311.800 122.800 C 311.664 123.020,311.203 123.200,310.776 123.200 C 310.349 123.200,310.000 123.380,310.000 123.600 C 310.000 123.820,309.460 124.000,308.800 124.000 C 308.140 124.000,307.600 124.180,307.600 124.400 C 307.600 124.620,307.060 124.800,306.400 124.800 C 305.740 124.800,305.200 124.980,305.200 125.200 C 305.200 125.420,304.840 125.600,304.400 125.600 C 303.960 125.600,303.600 125.780,303.600 126.000 C 303.600 126.220,303.240 126.400,302.800 126.400 C 302.360 126.400,302.000 126.560,302.000 126.755 C 302.000 126.951,301.372 127.229,300.605 127.373 C 298.549 127.758,298.157 128.796,299.111 131.334 C 300.464 134.933,301.060 137.263,301.987 142.567 C 302.519 145.614,302.521 158.643,301.991 162.684 C 301.392 167.241,300.785 171.179,300.402 173.000 C 300.217 173.880,299.843 175.680,299.573 177.000 C 299.087 179.366,297.068 187.311,295.861 191.600 C 295.521 192.810,294.498 195.960,293.589 198.600 C 290.751 206.844,290.667 207.600,292.587 207.600 C 293.144 207.600,293.600 207.769,293.600 207.976 C 293.600 208.182,294.860 208.476,296.400 208.627 C 297.940 208.779,299.200 209.060,299.200 209.252 C 299.200 209.443,300.089 209.600,301.176 209.600 C 302.263 209.600,303.264 209.780,303.400 210.000 C 303.554 210.249,307.271 210.400,313.224 210.400 C 319.341 210.400,322.800 210.256,322.800 210.000 C 322.800 209.780,323.599 209.600,324.576 209.600 C 325.553 209.600,326.452 209.440,326.573 209.244 C 326.694 209.049,327.379 208.801,328.096 208.694 C 329.382 208.503,332.011 207.590,332.400 207.199 C 332.510 207.089,333.095 206.744,333.700 206.432 C 334.305 206.120,334.800 205.715,334.800 205.532 C 334.800 205.350,335.045 205.200,335.345 205.200 C 336.115 205.200,339.325 201.656,339.963 200.100 C 340.257 199.385,340.625 198.800,340.782 198.800 C 342.159 198.800,341.443 185.383,339.991 184.000 C 339.876 183.890,339.467 183.305,339.082 182.700 L 338.382 181.600 339.591 181.600 C 340.256 181.600,340.800 181.420,340.800 181.200 C 340.800 180.980,341.325 180.800,341.967 180.800 C 342.608 180.800,343.193 180.637,343.267 180.438 C 343.340 180.239,343.850 180.014,344.400 179.938 C 344.950 179.862,345.691 179.485,346.047 179.100 C 346.403 178.715,346.902 178.400,347.157 178.400 C 347.730 178.400,351.200 174.976,351.200 174.411 C 351.200 174.185,351.380 174.000,351.600 174.000 C 351.820 174.000,352.000 173.730,352.000 173.400 C 352.000 173.070,352.180 172.800,352.400 172.800 C 352.620 172.800,352.800 172.350,352.800 171.800 C 352.800 171.250,352.963 170.800,353.161 170.800 C 354.212 170.800,354.212 160.525,353.161 159.420 C 352.963 159.211,352.800 158.716,352.800 158.320 C 352.800 157.924,352.620 157.600,352.400 157.600 C 352.180 157.600,352.000 157.240,352.000 156.800 C 352.000 156.360,351.849 156.000,351.664 156.000 C 351.373 156.000,350.400 154.292,350.400 153.781 C 350.400 153.682,351.559 153.600,352.976 153.600 C 354.393 153.600,355.664 153.420,355.800 153.200 C 355.936 152.980,356.926 152.800,358.000 152.800 C 359.074 152.800,360.064 152.620,360.200 152.400 C 360.336 152.180,360.977 152.000,361.624 152.000 C 362.271 152.000,362.800 151.820,362.800 151.600 C 362.800 151.380,363.340 151.200,364.000 151.200 C 364.660 151.200,365.200 151.020,365.200 150.800 C 365.200 150.580,365.560 150.400,366.000 150.400 C 366.440 150.400,366.800 150.220,366.800 150.000 C 366.800 149.780,367.160 149.600,367.600 149.600 C 368.040 149.600,368.400 149.420,368.400 149.200 C 368.400 148.980,368.630 148.800,368.911 148.800 C 369.556 148.800,374.014 144.548,373.700 144.233 C 373.571 144.105,373.665 144.000,373.907 144.000 C 374.150 144.000,374.576 143.370,374.854 142.600 C 375.133 141.830,375.505 141.200,375.680 141.200 C 375.856 141.200,376.000 140.851,376.000 140.424 C 376.000 139.997,376.180 139.536,376.400 139.400 C 376.627 139.260,376.800 137.263,376.800 134.776 C 376.800 132.125,376.642 130.400,376.400 130.400 C 376.180 130.400,376.000 130.158,376.000 129.861 C 376.000 128.372,372.669 124.000,371.534 124.000 C 371.228 124.000,370.717 123.640,370.400 123.200 C 370.083 122.760,369.629 122.400,369.391 122.400 C 368.725 122.400,366.807 121.437,366.803 121.100 C 366.801 120.935,366.271 120.800,365.624 120.800 C 364.977 120.800,364.336 120.620,364.200 120.400 C 364.064 120.180,363.524 120.000,363.000 120.000 C 362.476 120.000,361.936 119.820,361.800 119.600 C 361.664 119.380,360.764 119.200,359.800 119.200 C 358.836 119.200,357.936 119.020,357.800 118.800 C 357.664 118.580,356.044 118.400,354.200 118.400 C 352.356 118.400,350.736 118.220,350.600 118.000 C 350.450 117.757,347.470 117.600,343.000 117.600 C 338.530 117.600,335.550 117.757,335.400 118.000 M51.600 122.800 C 51.600 123.029,50.400 123.200,48.800 123.200 C 47.200 123.200,46.000 123.371,46.000 123.600 C 46.000 123.820,45.100 124.000,44.000 124.000 C 42.900 124.000,42.000 124.180,42.000 124.400 C 42.000 124.620,41.471 124.800,40.824 124.800 C 40.177 124.800,39.536 124.980,39.400 125.200 C 39.264 125.420,38.713 125.600,38.176 125.600 C 37.639 125.600,37.200 125.780,37.200 126.000 C 37.200 126.220,36.660 126.400,36.000 126.400 C 35.340 126.400,34.800 126.580,34.800 126.800 C 34.800 127.020,34.465 127.200,34.056 127.200 C 33.647 127.200,32.649 127.650,31.838 128.200 C 31.028 128.750,30.232 129.200,30.071 129.200 C 29.540 129.200,25.600 133.623,25.600 134.219 C 25.600 134.538,25.420 134.800,25.200 134.800 C 24.980 134.800,24.800 135.070,24.800 135.400 C 24.800 135.730,24.620 136.000,24.400 136.000 C 24.180 136.000,24.000 136.450,24.000 137.000 C 24.000 137.550,23.820 138.000,23.600 138.000 C 23.355 138.000,23.200 139.933,23.200 143.000 C 23.200 146.067,23.355 148.000,23.600 148.000 C 23.820 148.000,24.000 148.349,24.000 148.776 C 24.000 149.203,24.180 149.664,24.400 149.800 C 24.620 149.936,24.800 150.397,24.800 150.824 C 24.800 151.251,24.980 151.600,25.200 151.600 C 25.420 151.600,25.600 151.870,25.600 152.200 C 25.600 152.530,25.780 152.800,26.000 152.800 C 26.220 152.800,26.400 153.070,26.400 153.400 C 26.400 153.730,26.580 154.000,26.800 154.000 C 27.020 154.000,27.200 154.240,27.200 154.534 C 27.200 155.216,30.966 158.800,31.683 158.800 C 31.980 158.800,32.483 159.160,32.800 159.600 C 33.117 160.040,33.697 160.400,34.088 160.400 C 34.480 160.400,34.800 160.580,34.800 160.800 C 34.800 161.020,35.160 161.200,35.600 161.200 C 36.040 161.200,36.400 161.380,36.400 161.600 C 36.400 161.820,36.762 162.000,37.205 162.000 C 37.648 162.000,38.368 162.180,38.805 162.400 C 39.242 162.620,39.958 162.980,40.395 163.200 C 40.832 163.420,41.822 163.600,42.595 163.600 C 43.368 163.600,44.000 163.780,44.000 164.000 C 44.000 164.229,45.200 164.400,46.800 164.400 C 48.400 164.400,49.600 164.571,49.600 164.800 C 49.600 165.023,50.708 165.206,52.100 165.213 C 54.406 165.224,54.538 165.272,53.800 165.820 C 53.360 166.147,52.683 166.682,52.295 167.008 C 51.908 167.333,51.422 167.600,51.216 167.600 C 51.009 167.600,50.337 168.275,49.720 169.100 C 49.104 169.924,48.285 170.948,47.900 171.375 C 47.515 171.802,47.200 172.387,47.200 172.675 C 47.200 172.964,47.040 173.200,46.845 173.200 C 46.504 173.200,46.219 174.224,45.734 177.200 C 45.608 177.970,45.363 178.780,45.188 179.000 C 44.707 179.607,45.438 185.453,46.042 185.826 C 46.239 185.948,46.400 186.363,46.400 186.748 C 46.400 187.134,46.760 187.836,47.200 188.308 C 47.640 188.780,48.000 189.261,48.000 189.376 C 48.000 189.888,50.797 192.400,51.367 192.400 C 51.715 192.400,52.000 192.547,52.000 192.726 C 52.000 193.185,55.125 194.800,56.014 194.800 C 56.420 194.800,56.864 194.980,57.000 195.200 C 57.140 195.427,59.137 195.600,61.624 195.600 C 65.948 195.600,67.428 196.270,65.600 197.400 C 65.380 197.536,65.200 199.167,65.200 201.024 C 65.200 203.008,65.365 204.400,65.600 204.400 C 65.820 204.400,66.000 204.850,66.000 205.400 C 66.000 205.950,66.180 206.400,66.400 206.400 C 66.620 206.400,66.800 206.850,66.800 207.400 C 66.800 207.950,66.980 208.400,67.200 208.400 C 67.420 208.400,67.600 208.586,67.600 208.813 C 67.600 209.412,70.279 212.000,70.898 212.000 C 71.187 212.000,71.683 212.360,72.000 212.800 C 72.317 213.240,72.897 213.600,73.288 213.600 C 73.680 213.600,74.000 213.780,74.000 214.000 C 74.000 214.220,74.540 214.400,75.200 214.400 C 75.860 214.400,76.400 214.580,76.400 214.800 C 76.400 215.020,77.131 215.200,78.024 215.200 C 79.004 215.200,79.549 215.358,79.400 215.600 C 79.239 215.861,81.788 216.000,86.753 216.000 C 91.388 216.000,94.449 215.844,94.600 215.600 C 94.736 215.380,95.737 215.200,96.824 215.200 C 97.911 215.200,98.800 215.020,98.800 214.800 C 98.800 214.580,99.520 214.400,100.400 214.400 C 101.280 214.400,102.000 214.220,102.000 214.000 C 102.000 213.780,102.439 213.600,102.976 213.600 C 103.513 213.600,104.064 213.420,104.200 213.200 C 104.336 212.980,104.876 212.800,105.400 212.800 C 105.924 212.800,106.464 212.620,106.600 212.400 C 106.736 212.180,107.197 212.000,107.624 212.000 C 108.051 212.000,108.400 211.820,108.400 211.600 C 108.400 211.380,108.850 211.200,109.400 211.200 C 109.950 211.200,110.400 211.020,110.400 210.800 C 110.400 210.580,110.760 210.400,111.200 210.400 C 111.640 210.400,112.000 210.220,112.000 210.000 C 112.000 209.780,112.360 209.600,112.800 209.600 C 113.240 209.600,113.600 209.455,113.600 209.277 C 113.600 209.099,114.302 208.644,115.159 208.266 C 117.560 207.207,117.587 206.451,115.406 201.400 C 107.001 181.934,105.798 159.024,112.242 141.159 C 113.333 138.136,113.175 136.400,111.809 136.400 C 111.474 136.400,111.200 136.220,111.200 136.000 C 111.200 135.780,110.922 135.600,110.583 135.600 C 110.244 135.600,109.580 135.240,109.108 134.800 C 108.636 134.360,108.013 134.000,107.725 134.000 C 107.436 134.000,107.200 133.864,107.200 133.698 C 107.200 133.531,106.615 133.160,105.900 132.871 C 105.185 132.583,104.285 132.179,103.900 131.974 C 103.515 131.768,102.840 131.420,102.400 131.200 C 101.960 130.980,101.242 130.620,100.805 130.400 C 100.368 130.180,99.738 130.000,99.405 130.000 C 99.072 130.000,98.800 129.820,98.800 129.600 C 98.800 129.380,98.451 129.200,98.024 129.200 C 97.597 129.200,97.136 129.020,97.000 128.800 C 96.864 128.580,96.313 128.400,95.776 128.400 C 95.239 128.400,94.800 128.250,94.800 128.067 C 94.800 127.883,94.575 127.703,94.300 127.666 C 91.971 127.353,90.759 127.057,90.573 126.756 C 90.452 126.560,89.823 126.400,89.176 126.400 C 88.529 126.400,88.000 126.220,88.000 126.000 C 88.000 125.780,87.381 125.600,86.624 125.600 C 85.867 125.600,85.136 125.420,85.000 125.200 C 84.864 124.980,84.043 124.800,83.176 124.800 C 82.309 124.800,81.600 124.620,81.600 124.400 C 81.600 124.180,80.700 124.000,79.600 124.000 C 78.500 124.000,77.600 123.820,77.600 123.600 C 77.600 123.371,76.400 123.200,74.800 123.200 C 73.200 123.200,72.000 123.029,72.000 122.800 C 72.000 122.544,68.333 122.400,61.800 122.400 C 55.267 122.400,51.600 122.544,51.600 122.800 M142.181 125.946 C 138.052 128.464,131.997 137.750,129.625 145.200 C 125.343 158.652,127.200 179.752,132.830 181.610 C 137.035 182.998,138.795 179.559,137.136 173.200 C 135.715 167.752,135.310 157.140,136.350 152.600 C 138.172 144.648,140.977 139.152,145.884 133.916 C 150.617 128.866,147.697 122.582,142.181 125.946 M137.801 191.024 C 134.894 192.023,134.409 194.643,136.344 198.890 C 136.973 200.270,137.738 202.103,138.044 202.963 C 139.615 207.376,143.935 208.493,146.046 205.032 C 147.117 203.276,147.020 202.628,144.934 197.546 C 142.298 191.123,140.990 189.928,137.801 191.024 " stroke="none" fill="#e5ecec" fill-rule="evenodd"></path><path id="path1" d="M249.200 102.400 C 249.200 102.620,248.491 102.800,247.624 102.800 C 246.757 102.800,245.936 102.980,245.800 103.200 C 245.664 103.420,244.933 103.600,244.176 103.600 C 243.419 103.600,242.800 103.780,242.800 104.000 C 242.800 104.220,242.440 104.400,242.000 104.400 C 241.560 104.400,241.200 104.580,241.200 104.800 C 241.200 105.020,240.660 105.200,240.000 105.200 C 239.340 105.200,238.800 105.380,238.800 105.600 C 238.800 105.820,238.440 106.000,238.000 106.000 C 237.560 106.000,237.200 106.180,237.200 106.400 C 237.200 106.620,236.840 106.800,236.400 106.800 C 235.960 106.800,235.600 106.980,235.600 107.200 C 235.600 107.420,235.280 107.600,234.888 107.600 C 234.497 107.600,233.917 107.960,233.600 108.400 C 233.283 108.840,232.703 109.200,232.312 109.200 C 231.920 109.200,231.600 109.368,231.600 109.573 C 231.600 109.778,231.195 110.074,230.700 110.229 C 229.714 110.540,220.800 119.360,220.800 120.025 C 220.800 120.251,220.364 120.872,219.831 121.405 C 219.298 121.938,218.746 122.740,218.604 123.187 C 218.462 123.634,218.178 124.000,217.973 124.000 C 217.768 124.000,217.600 124.360,217.600 124.800 C 217.600 125.240,217.454 125.600,217.275 125.600 C 217.096 125.600,216.702 126.230,216.400 127.000 C 216.098 127.770,215.704 128.400,215.525 128.400 C 215.346 128.400,215.200 128.760,215.200 129.200 C 215.200 129.640,215.020 130.000,214.800 130.000 C 214.580 130.000,214.400 130.360,214.400 130.800 C 214.400 131.240,214.220 131.600,214.000 131.600 C 213.780 131.600,213.600 131.949,213.600 132.376 C 213.600 132.803,213.420 133.264,213.200 133.400 C 212.980 133.536,212.800 134.076,212.800 134.600 C 212.800 135.124,212.620 135.664,212.400 135.800 C 212.180 135.936,212.000 136.476,212.000 137.000 C 212.000 137.524,211.841 138.051,211.646 138.171 C 211.258 138.412,211.024 139.405,210.225 144.200 C 209.932 145.960,209.672 146.995,209.646 146.500 C 209.621 146.005,209.420 145.600,209.200 145.600 C 208.980 145.600,208.800 145.274,208.800 144.876 C 208.800 144.479,208.536 143.804,208.213 143.376 C 207.890 142.949,207.620 142.285,207.613 141.900 C 207.606 141.515,207.420 141.200,207.200 141.200 C 206.980 141.200,206.800 140.840,206.800 140.400 C 206.800 139.960,206.620 139.600,206.400 139.600 C 206.180 139.600,206.000 139.240,206.000 138.800 C 206.000 138.360,205.820 138.000,205.600 138.000 C 205.380 138.000,205.200 137.655,205.200 137.233 C 205.200 136.812,205.065 136.407,204.900 136.333 C 204.735 136.260,204.167 135.345,203.637 134.300 C 203.108 133.255,202.523 132.400,202.337 132.400 C 202.152 132.400,202.000 132.040,202.000 131.600 C 202.000 131.160,201.820 130.800,201.600 130.800 C 201.380 130.800,201.200 130.564,201.200 130.275 C 201.200 129.987,200.840 129.364,200.400 128.892 C 199.960 128.420,199.600 127.886,199.600 127.705 C 199.600 127.524,199.240 127.117,198.800 126.800 C 198.360 126.483,198.000 125.975,198.000 125.672 C 198.000 125.369,197.460 124.617,196.800 124.000 C 196.140 123.383,195.600 122.698,195.600 122.476 C 195.600 122.042,189.059 115.200,188.644 115.200 C 188.506 115.200,187.828 114.660,187.137 114.000 C 186.446 113.340,185.638 112.800,185.341 112.800 C 185.043 112.800,184.800 112.658,184.800 112.484 C 184.800 112.062,180.699 110.000,179.860 110.000 C 179.497 110.000,179.200 109.820,179.200 109.600 C 179.200 109.380,178.840 109.200,178.400 109.200 C 177.960 109.200,177.600 109.020,177.600 108.800 C 177.600 108.580,177.240 108.400,176.800 108.400 C 176.360 108.400,176.000 108.220,176.000 108.000 C 176.000 107.780,175.460 107.600,174.800 107.600 C 174.140 107.600,173.600 107.420,173.600 107.200 C 173.600 106.980,172.970 106.800,172.200 106.800 C 171.430 106.800,170.800 106.620,170.800 106.400 C 170.800 106.180,170.080 106.000,169.200 106.000 C 168.320 106.000,167.600 105.820,167.600 105.600 C 167.600 105.347,164.675 105.200,159.624 105.200 C 154.737 105.200,151.551 105.355,151.400 105.600 C 151.264 105.820,150.443 106.000,149.576 106.000 C 148.709 106.000,148.000 106.180,148.000 106.400 C 148.000 106.620,147.370 106.800,146.600 106.800 C 145.830 106.800,145.200 106.980,145.200 107.200 C 145.200 107.420,144.660 107.600,144.000 107.600 C 143.340 107.600,142.800 107.780,142.800 108.000 C 142.800 108.220,142.440 108.400,142.000 108.400 C 141.560 108.400,141.200 108.580,141.200 108.800 C 141.200 109.020,140.840 109.200,140.400 109.200 C 139.960 109.200,139.600 109.357,139.600 109.549 C 139.600 109.741,138.880 110.013,138.000 110.154 C 137.120 110.294,136.400 110.587,136.400 110.805 C 136.400 111.022,136.201 111.200,135.958 111.200 C 135.715 111.200,134.716 111.740,133.738 112.400 C 132.760 113.060,131.816 113.600,131.639 113.600 C 131.463 113.600,130.754 114.140,130.063 114.800 C 129.372 115.460,128.713 116.000,128.599 116.000 C 128.180 116.000,120.800 123.603,120.800 124.034 C 120.800 124.279,120.260 124.983,119.600 125.600 C 118.940 126.217,118.400 126.919,118.400 127.160 C 118.400 127.402,118.220 127.600,118.000 127.600 C 117.780 127.600,117.600 127.870,117.600 128.200 C 117.600 128.530,117.454 128.800,117.275 128.800 C 117.096 128.800,116.702 129.430,116.400 130.200 C 116.098 130.970,115.704 131.600,115.525 131.600 C 115.346 131.600,115.200 131.960,115.200 132.400 C 115.200 132.840,115.065 133.201,114.900 133.203 C 114.541 133.207,113.600 135.144,113.600 135.880 C 113.600 136.166,113.400 136.400,113.157 136.400 C 112.881 136.400,112.810 136.786,112.969 137.418 C 113.131 138.063,112.855 139.460,112.215 141.233 C 105.799 159.019,107.016 181.970,115.406 201.400 C 116.943 204.960,117.157 205.717,116.937 206.817 C 116.787 207.567,116.865 208.000,117.150 208.000 C 117.398 208.000,117.600 208.360,117.600 208.800 C 117.600 209.240,117.780 209.600,118.000 209.600 C 118.220 209.600,118.400 209.960,118.400 210.400 C 118.400 210.840,118.580 211.200,118.800 211.200 C 119.020 211.200,119.200 211.560,119.200 212.000 C 119.200 212.440,119.380 212.800,119.600 212.800 C 119.820 212.800,120.000 213.160,120.000 213.600 C 120.000 214.040,120.180 214.400,120.400 214.400 C 120.620 214.400,120.800 214.760,120.800 215.200 C 120.800 215.640,120.980 216.000,121.200 216.000 C 121.420 216.000,121.600 216.236,121.600 216.525 C 121.600 216.813,121.960 217.436,122.400 217.908 C 122.840 218.380,123.200 219.044,123.200 219.383 C 123.200 219.722,123.380 220.000,123.600 220.000 C 123.820 220.000,124.000 220.360,124.000 220.800 C 124.000 221.240,124.180 221.600,124.400 221.600 C 124.620 221.600,124.800 221.870,124.800 222.200 C 124.800 222.530,124.980 222.800,125.200 222.800 C 125.420 222.800,125.600 223.070,125.600 223.400 C 125.600 223.730,125.780 224.000,126.000 224.000 C 126.220 224.000,126.400 224.270,126.400 224.600 C 126.400 224.930,126.562 225.200,126.761 225.200 C 126.959 225.200,127.311 225.695,127.542 226.300 C 128.060 227.657,129.171 229.506,130.100 230.558 C 130.485 230.994,130.800 231.587,130.800 231.875 C 130.800 232.164,130.950 232.400,131.132 232.400 C 131.315 232.400,131.719 232.895,132.030 233.500 C 132.340 234.105,132.911 234.891,133.297 235.247 C 133.684 235.603,134.000 236.071,134.000 236.288 C 134.000 236.504,134.540 237.246,135.200 237.937 C 135.860 238.628,136.400 239.302,136.400 239.436 C 136.400 239.570,137.030 240.310,137.800 241.080 C 138.570 241.850,139.200 242.636,139.200 242.827 C 139.200 243.017,139.830 243.803,140.600 244.573 C 141.370 245.343,142.000 246.159,142.000 246.387 C 142.000 246.614,142.180 246.800,142.400 246.800 C 142.620 246.800,142.800 246.993,142.800 247.229 C 142.800 247.464,143.025 247.906,143.300 248.211 C 143.575 248.516,144.610 249.703,145.600 250.850 C 148.890 254.659,151.391 257.393,152.143 258.000 C 152.552 258.330,155.190 260.850,158.006 263.600 C 164.583 270.025,167.782 272.900,170.021 274.400 C 170.513 274.730,171.514 275.585,172.245 276.300 C 172.975 277.015,173.764 277.600,173.997 277.600 C 174.230 277.600,175.206 278.365,176.165 279.300 C 178.622 281.695,181.336 284.000,181.699 284.000 C 181.869 284.000,182.572 284.540,183.263 285.200 C 183.954 285.860,184.722 286.400,184.971 286.400 C 185.220 286.400,185.683 286.760,186.000 287.200 C 186.317 287.640,186.773 288.000,187.013 288.000 C 187.253 288.000,187.822 288.347,188.277 288.771 C 188.732 289.196,190.071 290.041,191.252 290.651 C 192.434 291.261,193.490 291.873,193.600 292.012 C 193.710 292.151,194.385 292.519,195.100 292.830 C 195.815 293.141,196.400 293.531,196.400 293.698 C 196.400 293.864,196.760 294.000,197.200 294.000 C 197.640 294.000,198.000 294.180,198.000 294.400 C 198.000 294.620,198.349 294.800,198.776 294.800 C 199.203 294.800,199.664 294.980,199.800 295.200 C 199.936 295.420,200.487 295.600,201.024 295.600 C 201.561 295.600,202.000 295.780,202.000 296.000 C 202.000 296.220,202.540 296.400,203.200 296.400 C 203.860 296.400,204.400 296.580,204.400 296.800 C 204.400 297.020,205.120 297.200,206.000 297.200 C 206.880 297.200,207.600 297.380,207.600 297.600 C 207.600 297.847,209.659 298.000,212.976 298.000 C 216.129 298.000,218.455 297.835,218.600 297.600 C 218.736 297.380,219.467 297.200,220.224 297.200 C 220.981 297.200,221.600 297.020,221.600 296.800 C 221.600 296.580,221.949 296.400,222.376 296.400 C 222.803 296.400,223.264 296.220,223.400 296.000 C 223.536 295.780,223.997 295.600,224.424 295.600 C 224.851 295.600,225.200 295.420,225.200 295.200 C 225.200 294.980,225.520 294.800,225.912 294.800 C 226.303 294.800,226.883 294.440,227.200 294.000 C 227.517 293.560,228.097 293.200,228.488 293.200 C 228.880 293.200,229.200 293.041,229.200 292.846 C 229.200 292.651,229.875 292.174,230.700 291.786 C 231.525 291.399,232.290 290.965,232.400 290.822 C 232.510 290.679,233.229 290.121,233.998 289.583 C 235.452 288.567,242.400 281.812,242.400 281.416 C 242.400 281.292,244.065 279.500,246.100 277.434 C 250.237 273.235,254.600 268.465,255.552 267.100 C 255.898 266.605,256.725 265.625,257.390 264.922 C 259.201 263.008,259.600 262.479,259.600 261.986 C 259.600 261.739,260.320 260.846,261.200 260.000 C 262.080 259.154,262.801 258.314,262.802 258.131 C 262.803 257.949,263.343 257.225,264.002 256.522 C 264.661 255.819,265.200 255.093,265.200 254.910 C 265.200 254.727,265.560 254.317,266.000 254.000 C 266.440 253.683,266.800 253.191,266.800 252.908 C 266.800 252.625,267.340 251.828,268.000 251.137 C 268.660 250.446,269.200 249.678,269.200 249.429 C 269.200 249.180,269.560 248.717,270.000 248.400 C 270.440 248.083,270.800 247.586,270.800 247.295 C 270.800 247.004,271.160 246.380,271.600 245.908 C 272.040 245.436,272.400 244.813,272.400 244.525 C 272.400 244.236,272.558 244.000,272.751 244.000 C 272.945 244.000,273.327 243.460,273.600 242.800 C 273.873 242.140,274.241 241.600,274.417 241.600 C 274.593 241.600,274.855 241.060,275.000 240.400 C 275.145 239.740,275.429 239.200,275.632 239.200 C 275.834 239.200,276.000 238.930,276.000 238.600 C 276.000 238.270,276.180 238.000,276.400 238.000 C 276.620 238.000,276.800 237.680,276.800 237.288 C 276.800 236.897,277.160 236.317,277.600 236.000 C 278.040 235.683,278.400 235.103,278.400 234.712 C 278.400 234.320,278.580 234.000,278.800 234.000 C 279.020 234.000,279.200 233.640,279.200 233.200 C 279.200 232.760,279.380 232.400,279.600 232.400 C 279.820 232.400,280.000 232.055,280.000 231.633 C 280.000 231.212,280.135 230.807,280.300 230.733 C 280.676 230.566,281.975 228.436,282.271 227.500 C 282.393 227.115,282.652 226.800,282.847 226.800 C 283.041 226.800,283.200 226.440,283.200 226.000 C 283.200 225.560,283.380 225.200,283.600 225.200 C 283.820 225.200,284.000 224.840,284.000 224.400 C 284.000 223.960,284.180 223.600,284.400 223.600 C 284.620 223.600,284.800 223.251,284.800 222.824 C 284.800 222.397,284.980 221.936,285.200 221.800 C 285.420 221.664,285.600 221.203,285.600 220.776 C 285.600 220.349,285.780 220.000,286.000 220.000 C 286.220 220.000,286.400 219.640,286.400 219.200 C 286.400 218.760,286.580 218.400,286.800 218.400 C 287.020 218.400,287.200 218.040,287.200 217.600 C 287.200 217.160,287.380 216.800,287.600 216.800 C 287.820 216.800,288.000 216.451,288.000 216.024 C 288.000 215.597,288.180 215.136,288.400 215.000 C 288.620 214.864,288.800 214.313,288.800 213.776 C 288.800 213.239,288.980 212.800,289.200 212.800 C 289.420 212.800,289.600 212.564,289.600 212.275 C 289.600 211.986,289.987 210.951,290.460 209.975 C 290.932 208.999,291.297 207.598,291.270 206.862 C 291.243 206.126,291.676 204.236,292.231 202.662 C 292.786 201.088,293.864 197.820,294.625 195.400 C 295.386 192.980,296.181 190.460,296.390 189.800 C 296.947 188.046,299.000 179.786,299.572 177.000 C 299.843 175.680,300.217 173.880,300.402 173.000 C 300.785 171.179,301.392 167.241,301.991 162.684 C 302.944 155.427,302.445 143.539,300.929 137.400 C 299.886 133.175,299.725 132.628,299.070 131.083 C 298.688 130.183,298.523 129.085,298.663 128.383 C 298.813 127.633,298.735 127.200,298.450 127.200 C 298.203 127.200,298.000 126.840,298.000 126.400 C 298.000 125.960,297.820 125.600,297.600 125.600 C 297.380 125.600,297.200 125.280,297.200 124.888 C 297.200 124.497,296.840 123.917,296.400 123.600 C 295.960 123.283,295.600 122.743,295.600 122.400 C 295.600 122.057,295.240 121.517,294.800 121.200 C 294.360 120.883,294.000 120.388,294.000 120.100 C 294.000 119.813,293.458 118.997,292.795 118.289 C 288.641 113.846,287.656 112.878,286.400 112.002 C 285.630 111.465,284.762 110.795,284.471 110.513 C 284.181 110.231,283.635 110.000,283.260 110.000 C 282.884 110.000,282.317 109.640,282.000 109.200 C 281.683 108.760,281.103 108.400,280.712 108.400 C 280.320 108.400,280.000 108.220,280.000 108.000 C 280.000 107.780,279.640 107.600,279.200 107.600 C 278.760 107.600,278.400 107.420,278.400 107.200 C 278.400 106.980,278.040 106.800,277.600 106.800 C 277.160 106.800,276.800 106.620,276.800 106.400 C 276.800 106.180,276.440 106.000,276.000 106.000 C 275.560 106.000,275.200 105.820,275.200 105.600 C 275.200 105.380,274.761 105.200,274.224 105.200 C 273.687 105.200,273.136 105.020,273.000 104.800 C 272.864 104.580,272.313 104.400,271.776 104.400 C 271.239 104.400,270.800 104.220,270.800 104.000 C 270.800 103.780,270.271 103.600,269.624 103.600 C 268.977 103.600,268.336 103.420,268.200 103.200 C 268.064 102.980,267.153 102.800,266.176 102.800 C 265.199 102.800,264.400 102.620,264.400 102.400 C 264.400 102.147,261.600 102.000,256.800 102.000 C 252.000 102.000,249.200 102.147,249.200 102.400 M147.169 126.236 C 149.421 128.130,149.011 130.579,145.884 133.916 C 136.714 143.699,133.364 158.743,137.136 173.200 C 138.516 178.489,138.272 179.846,135.670 181.343 C 128.323 185.572,124.345 161.788,129.625 145.200 C 133.700 132.400,142.802 122.561,147.169 126.236 M142.097 191.940 C 143.176 193.118,146.801 201.604,146.799 202.946 C 146.789 208.246,139.929 208.259,138.044 202.963 C 137.738 202.103,136.973 200.270,136.344 198.890 C 134.409 194.643,134.894 192.023,137.801 191.024 C 139.695 190.373,140.897 190.629,142.097 191.940 " stroke="none" fill="#fc9c84" fill-rule="evenodd"></path></g></svg>