<?xml version="1.0" encoding="UTF-8"?>
<svg version="1.1" xmlns="http://www.w3.org/2000/svg" width="512" height="512">
<path d="M0 0 C1.22847656 0.3403125 2.45695313 0.680625 3.72265625 1.03125 C23.69620897 7.14518134 40.50947738 18.18744681 56 32 C56.71800781 32.63292969 57.43601562 33.26585937 58.17578125 33.91796875 C74.8696797 49.57497909 86.16799197 71.07125002 92 93 C92.17644043 93.65548828 92.35288086 94.31097656 92.53466797 94.98632812 C100.00433569 124.33198009 95.29433691 158.24998531 80.19921875 184.46484375 C65.72559118 208.35125225 43.00240862 224.44692855 16.11767578 231.49609375 C9.80903661 232.99725022 3.40748386 234.02460332 -3 235 C-3.144375 235.598125 -3.28875 236.19625 -3.4375 236.8125 C-3.8872439 238.56150404 -4.42892341 240.28677023 -5 242 C-4.49518329 244.07780007 -4.49518329 244.07780007 -3.56640625 246.2734375 C-3.24736328 247.0984375 -2.92832031 247.9234375 -2.59960938 248.7734375 C-2.25736328 249.63195312 -1.91511719 250.49046875 -1.5625 251.375 C-0.88943762 253.06727112 -0.22381408 254.7625237 0.43359375 256.4609375 C0.73322021 257.21165527 1.03284668 257.96237305 1.34155273 258.73583984 C2.07324617 261.25186687 2.11515259 263.39312912 2 266 C-2.8043208 268.4021604 -7.73103895 268.61122229 -13 269 C-13.20625 270.258125 -13.4125 271.51625 -13.625 272.8125 C-16.57446879 285.78208196 -26.20406996 296.8870754 -34.25390625 307.1796875 C-52.80541514 330.90848695 -62.24153397 354.92864489 -58.71142578 385.49902344 C-56.20336536 401.1802925 -49.39498323 415.682028 -39.4140625 427.94921875 C-37.0905024 430.9082276 -36 432.48311774 -36 436.3125 C-37 439 -37 439 -40 441 C-43.6516592 440.88756605 -45.45811871 440.47000873 -48.23828125 438.05859375 C-67.07205665 414.25922785 -74.52146741 386.87038634 -71.7890625 356.66845703 C-69.17411512 335.03075801 -58.57313305 317.41823618 -45.32226562 300.67871094 C-37.39811285 290.6184313 -30.68648949 280.48703464 -25 269 C-25.7734375 268.96261719 -26.546875 268.92523438 -27.34375 268.88671875 C-33.82241629 268.47779303 -39.05882698 267.62782653 -45 265 C-43.77335559 257.88546244 -41.27140265 251.88847105 -38.14453125 245.4296875 C-36.8298309 241.49007349 -37.11642937 239.01437291 -38 235 C-39.10214844 234.84144531 -40.20429688 234.68289063 -41.33984375 234.51953125 C-77.42969118 229.07776175 -111.38441814 213.54810977 -133.51171875 183.57421875 C-141.46141645 172.40788036 -146.3293568 160.14048588 -150 147 C-150.34160156 145.78570312 -150.68320313 144.57140625 -151.03515625 143.3203125 C-158.26683557 112.03909498 -151.89752996 78.07174694 -135 51 C-125.51284594 36.67179814 -113.33262503 25.34554205 -99 16 C-98.03578125 15.36320312 -97.0715625 14.72640625 -96.078125 14.0703125 C-68.70059045 -2.94611091 -31.08492841 -8.75035442 0 0 Z " fill="#FE9A83" transform="translate(285,40)"/>
<path d="M0 0 C1.01444466 3.03703868 2.00890046 6.08027077 3 9.125 C3.28617187 9.9809375 3.57234375 10.836875 3.8671875 11.71875 C5.3417232 16.28278909 6.38258954 20.13792456 6 25 C5.33355469 25.21914062 4.66710937 25.43828125 3.98046875 25.6640625 C-14.17299869 31.90987088 -26.90177071 42.10598504 -36 59 C-37.56334664 62.61259832 -38.89745324 66.22204257 -40 70 C-45.66241113 68.80791345 -51.27494743 67.45659468 -56.875 66 C-58.78925781 65.505 -58.78925781 65.505 -60.7421875 65 C-64 64 -64 64 -67 62 C-68.61787302 49.75038999 -62.01145419 35.91920966 -54.76757812 26.37646484 C-41.05591226 9.53230473 -21.92863988 -1.0332867 0 0 Z " fill="#FEFDFD" transform="translate(235,66)"/>
<path d="M0 0 C3.96 0 7.92 0 12 0 C10.45840366 15.05435436 -0.22284782 27.6211791 -9.25 39.16796875 C-27.79067685 62.91531087 -37.24321661 86.91407341 -33.71142578 117.49902344 C-31.20336536 133.1802925 -24.39498323 147.682028 -14.4140625 159.94921875 C-12.0905024 162.9082276 -11 164.48311774 -11 168.3125 C-12 171 -12 171 -15 173 C-18.6516592 172.88756605 -20.45811871 172.47000873 -23.23828125 170.05859375 C-42.07205665 146.25922785 -49.52146741 118.87038634 -46.7890625 88.66845703 C-44.17403063 67.03005884 -33.57113385 49.41634223 -20.32226562 32.67431641 C-12.13455528 22.3066433 -5.51631336 12.02840822 0 0 Z " fill="#E0EDED" transform="translate(260,308)"/>
<path d="M0 0 C1.85431641 -0.0299707 1.85431641 -0.0299707 3.74609375 -0.06054688 C4.93332031 -0.05990234 6.12054688 -0.05925781 7.34375 -0.05859375 C8.97086914 -0.06137329 8.97086914 -0.06137329 10.63085938 -0.06420898 C14.1577235 0.55251207 15.33898527 1.63481328 17.5 4.4375 C17.93079437 7.30946245 17.87078245 8.8067446 16.39306641 11.32055664 C15.28642649 13.39330024 15.28642649 13.39330024 15.91552734 15.55639648 C16.2192627 16.29962158 16.52299805 17.04284668 16.8359375 17.80859375 C17.15820312 18.63037109 17.48046875 19.45214844 17.8125 20.29882812 C18.163125 21.14896484 18.51375 21.99910156 18.875 22.875 C19.55698724 24.55817526 20.23172012 26.24431181 20.8984375 27.93359375 C21.35742432 29.05012329 21.35742432 29.05012329 21.82568359 30.18920898 C22.57950111 32.70257087 22.6177536 34.82767818 22.5 37.4375 C9.43529515 43.96985242 -9.96244994 41.04179225 -23.5 37.4375 C-24.8375605 34.39899552 -24.41349369 33.17325717 -23.35546875 29.94140625 C-22.8108234 28.62286093 -22.25440532 27.30912898 -21.6875 26 C-21.41357422 25.34451172 -21.13964844 24.68902344 -20.85742188 24.01367188 C-19.70113552 21.24912153 -18.52948245 18.50065012 -17.26171875 15.78515625 C-16.11394999 12.24767407 -16.93656826 9.32879578 -17.6015625 5.7421875 C-17.5 3.4375 -17.5 3.4375 -15.87841797 1.82055664 C-11.13870199 -0.93560134 -5.34280577 -0.03064174 0 0 Z " fill="#FD9A83" transform="translate(264.5,268.5625)"/>
<path d="M0 0 C5.73124075 2.57905834 10.08244251 6.70394753 12.90625 12.3515625 C13.49521479 17.89624534 14.04106131 23.53987105 10.84375 28.3515625 C7.34460599 32.34918792 3.7554537 34.91287558 -1.5546875 35.73046875 C-7.23774263 35.99499534 -10.7008816 35.22147037 -15.09375 31.3515625 C-20.19494305 25.82527003 -21.52641371 21.17820021 -21.33984375 13.78125 C-20.83250332 8.77226992 -18.74364831 5.73408501 -15.03125 2.5390625 C-10.20936362 -1.05170396 -5.78110971 -1.79041831 0 0 Z " fill="#FEFDFD" transform="translate(177.09375,154.6484375)"/>
<path d="M0 0 C1.85431641 -0.0299707 1.85431641 -0.0299707 3.74609375 -0.06054688 C4.93332031 -0.05990234 6.12054688 -0.05925781 7.34375 -0.05859375 C8.97086914 -0.06137329 8.97086914 -0.06137329 10.63085938 -0.06420898 C14.16008588 0.55292516 15.34193501 1.62835015 17.5 4.4375 C17.875 7.0625 17.875 7.0625 17.5 9.4375 C14.63133116 12.30616884 12.60344387 11.69603358 8.59375 11.703125 C7.57299377 11.70599518 7.57299377 11.70599518 6.53161621 11.70892334 C5.09252554 11.71028463 3.65342256 11.70659205 2.21435547 11.69824219 C0.00850913 11.68754128 -2.19652281 11.69813872 -4.40234375 11.7109375 C-5.79948097 11.70961589 -7.19661768 11.70705348 -8.59375 11.703125 C-9.86927734 11.70086914 -11.14480469 11.69861328 -12.45898438 11.69628906 C-15.5 11.4375 -15.5 11.4375 -17.5 9.4375 C-17.875 6.5 -17.875 6.5 -17.5 3.4375 C-12.80687321 -1.3290443 -6.22230645 -0.0356858 0 0 Z " fill="#E1E9E8" transform="translate(264.5,268.5625)"/>
</svg>
