<?xml version="1.0" encoding="UTF-8"?>
<svg version="1.1" xmlns="http://www.w3.org/2000/svg" width="512" height="512">
<path d="M0 0 C11.98424084 9.82707749 11.98424084 9.82707749 15.5390625 15.08203125 C15.5390625 15.74203125 15.5390625 16.40203125 15.5390625 17.08203125 C16.26867187 16.82808594 16.99828125 16.57414062 17.75 16.3125 C43.10166732 7.95583929 69.26289706 8.3512282 95.55511475 10.67703247 C110.92725766 12.03419853 126.2901675 13.27822422 141.70419312 14.03585815 C164.09999765 15.1371999 185.94573313 17.06372055 207.72094727 22.6706543 C209.5534983 23.15559357 209.5534983 23.15559357 211.5390625 23.08203125 C211.84457031 22.4271875 212.15007812 21.77234375 212.46484375 21.09765625 C220.25917213 5.5529112 233.11062494 -6.00113042 249.5390625 -11.91796875 C269.26584843 -17.89360098 289.09351502 -15.6975625 307.21484375 -6.02734375 C323.28203949 4.1680566 332.99586871 19.78217376 337.5390625 38.08203125 C341.3081952 55.89974947 337.29442608 73.93502749 327.5390625 89.08203125 C321.59060175 97.26832263 314.01304396 103.6043018 305.5390625 109.08203125 C304.23582031 109.93087891 304.23582031 109.93087891 302.90625 110.796875 C300.5390625 112.08203125 300.5390625 112.08203125 297.5390625 112.08203125 C297.77919067 112.86924561 297.77919067 112.86924561 298.02416992 113.67236328 C302.38298717 134.07137997 297.99251873 158.98766971 294.5390625 179.08203125 C294.34650879 180.20641602 294.15395508 181.33080078 293.95556641 182.48925781 C289.61420036 207.14473518 283.83185434 232.36245718 267.5390625 252.08203125 C266.87519531 252.90832031 266.21132813 253.73460937 265.52734375 254.5859375 C243.51910547 280.58088069 209.29797586 291.56985731 176.3359375 294.56640625 C110.00082671 299.51536717 22.97845795 294.60521825 -30.17578125 250.05859375 C-30.92988281 249.40632813 -31.68398437 248.7540625 -32.4609375 248.08203125 C-33.26660156 247.40914063 -34.07226562 246.73625 -34.90234375 246.04296875 C-45.86275454 236.60912534 -54.42267234 225.70288627 -61.4609375 213.08203125 C-62.05519531 212.02886719 -62.64945313 210.97570312 -63.26171875 209.890625 C-71.18452528 195.01120786 -76.08194969 178.73494595 -78.4609375 162.08203125 C-78.65623047 160.80779297 -78.65623047 160.80779297 -78.85546875 159.5078125 C-80.96469866 142.94332697 -79.69154481 125.22447789 -75.4609375 109.08203125 C-76.5334375 109.04078125 -77.6059375 108.99953125 -78.7109375 108.95703125 C-90.81613958 107.35298504 -99.79239067 99.3383283 -107.05078125 90.046875 C-116.53293771 76.01097775 -116.86188987 58.81668833 -115.0703125 42.53125 C-112.32402393 29.80325872 -105.15230218 17.60876227 -96.4609375 8.08203125 C-95.94402344 7.47359375 -95.42710938 6.86515625 -94.89453125 6.23828125 C-70.63438096 -20.51476669 -27.74138889 -21.39933096 0 0 Z " fill="#C7B19A" transform="translate(146.4609375,137.91796875)"/>
<path d="M0 0 C2.0195189 -0.01194964 4.03898636 -0.03177647 6.05844116 -0.05181885 C26.17981802 -0.06957039 45.47374395 5.00221855 60.19833374 19.48773193 C68.40102729 28.16252296 72.28955526 36.69354723 75.32333374 48.17523193 C75.61143921 49.14782959 75.61143921 49.14782959 75.90536499 50.14007568 C78.86250754 64.53887259 74.40729852 80.28003937 67.04598999 92.68695068 C59.06109615 104.22068623 49.2915466 112.02217374 36.32333374 117.17523193 C35.2830603 117.62189209 35.2830603 117.62189209 34.22177124 118.07757568 C7.17306168 128.57331047 -32.64360907 123.09127063 -58.69155884 112.01531982 C-75.52638664 104.4529926 -87.71794067 92.69192833 -95.67666626 76.17523193 C-96.13170532 75.24452881 -96.58674438 74.31382568 -97.05557251 73.35491943 C-101.52766917 62.41620218 -101.88097525 47.38915968 -97.55166626 36.36273193 C-95.11439296 31.54295552 -92.23826557 27.23051827 -88.67666626 23.17523193 C-88.17651001 22.58226318 -87.67635376 21.98929443 -87.16104126 21.37835693 C-73.46814241 6.35605043 -51.08295871 2.71321652 -31.71035767 1.32220459 C-29.83653977 1.18678582 -27.96532045 1.01660119 -26.09463501 0.84320068 C-17.40895646 0.13743049 -8.71033332 0.04859641 0 0 Z " fill="#DECBB1" transform="translate(269.6766662597656,284.82476806640625)"/>
<path d="M0 0 C0.66 0.598125 1.32 1.19625 2 1.8125 C2 2.4725 2 3.1325 2 3.8125 C-0.01432824 5.29416393 -2.04259955 6.68253018 -4.125 8.0625 C-17.65690437 17.4238136 -27.74490724 29.32650769 -37 42.8125 C-44.42716333 42.0429385 -48.74097599 39.61871816 -53.58203125 33.96484375 C-58.75895785 26.93794914 -58.79048654 20.29887271 -58 11.8125 C-55.68470225 4.10868418 -50.75696307 -2.16369402 -43.984375 -6.46875 C-28.67576187 -14.64892495 -13.08214871 -9.53906677 0 0 Z " fill="#DECBB1" transform="translate(124,169.1875)"/>
<path d="M0 0 C5.10945373 5.42879459 5.60006864 10.5593391 5.41015625 17.80078125 C4.53877205 24.86314274 1.5179602 30.10209873 -3.8125 34.75 C-4.864375 35.53375 -5.91625 36.3175 -7 37.125 C-7.4846875 36.50753906 -7.969375 35.89007813 -8.46875 35.25390625 C-10.6262514 32.52798621 -12.80894673 29.82401371 -15 27.125 C-15.60070312 26.3721875 -16.20140625 25.619375 -16.8203125 24.84375 C-24.55705367 15.59985146 -34.60634984 8.15331709 -45 2.125 C-44 -0.875 -44 -0.875 -42.07421875 -2.0078125 C-41.28660156 -2.33523437 -40.49898438 -2.66265625 -39.6875 -3 C-38.90761719 -3.33257812 -38.12773437 -3.66515625 -37.32421875 -4.0078125 C-25.17775896 -8.53976892 -10.86267971 -6.78917482 0 0 Z " fill="#DECBB1" transform="translate(436,175.875)"/>
<path d="M0 0 C4.24261932 2.51175945 7.29143389 5.55514032 9.30859375 10.09375 C10.35685726 16.60296721 9.83262343 21.95674299 5.94140625 27.37109375 C1.45220722 32.10730613 -4.27376011 35.14431931 -10.81640625 35.53125 C-16.62570081 35.45555887 -20.4323077 32.8658586 -24.69140625 29.09375 C-29.41728207 23.86153034 -31.0772248 19.14942235 -30.97265625 12.1171875 C-30.33831146 7.55342916 -27.41545858 4.74716308 -24.12890625 1.78125 C-17.96949338 -2.48295891 -6.98644204 -2.35247395 0 0 Z " fill="#624E49" transform="translate(260.69140625,310.90625)"/>
<path d="M0 0 C3.82354006 2.25936458 5.927959 4.7509733 7.4921875 8.94921875 C9.11823596 15.51595293 8.5955207 21.49410062 5.1953125 27.3671875 C3.37347039 29.85584763 1.91969939 30.98150021 -1 32 C-4.94520706 31.92954987 -7.35099053 31.3835056 -10.75 29.375 C-14.85793502 25.03884636 -16.16833564 20.898 -16.5 15.0625 C-16.30349096 8.61700345 -13.33771503 4.57148653 -9.125 -0.0625 C-5.77339637 -1.54114866 -3.48542048 -0.91721592 0 0 Z " fill="#64504A" transform="translate(318,251)"/>
<path d="M0 0 C3.82811587 2.22564876 5.93547841 4.77115469 7.4921875 8.94921875 C9.13369467 15.5783823 8.55191721 21.45341251 5.1328125 27.37109375 C2.83571479 30.67416183 1.12175756 31.77564849 -2.8125 32.5625 C-7.40556881 31.75195845 -9.97589076 29.47094333 -13 26 C-15.4001955 21.30396533 -15.73179579 16.18581217 -15 11 C-12.48961959 4.07949183 -7.73047438 -1.2884124 0 0 Z " fill="#634F49" transform="translate(190,256)"/>
</svg>
