<?xml version="1.0" encoding="UTF-8"?>
<svg version="1.1" xmlns="http://www.w3.org/2000/svg" width="512" height="512">
<path d="M0 0 C15.42776227 13.2334911 23.9881747 31.2029832 25.8125 51.3125 C26.81912868 72.32319643 20.4064935 91.5974145 6.4375 107.375 C4.96716001 108.92508724 3.48876895 110.46760412 2 112 C1.19175781 112.90105469 1.19175781 112.90105469 0.3671875 113.8203125 C-13.99788505 129.34036576 -35.47167137 138.89060847 -55 146 C-53.97261719 146.4125 -52.94523437 146.825 -51.88671875 147.25 C-29.36185924 156.52991488 -14.20408393 171.54030778 -4.28515625 193.78515625 C3.62627107 213.57574799 2.54795908 234.12635115 -5.43359375 253.7109375 C-15.03380952 273.86899655 -30.51984684 288.21613454 -51 297 C-72.49679993 304.41924953 -94.74646 301.59615886 -115 292 C-125.72199327 286.24572562 -135.82520882 277.90691366 -143 268 C-143 267.34 -143 266.68 -143 266 C-143.66 266 -144.32 266 -145 266 C-145.14695312 266.53367187 -145.29390625 267.06734375 -145.4453125 267.6171875 C-148.45843869 277.62630784 -153.29303754 285.96669066 -162 292 C-167.60307417 294.74192991 -173.66458411 294.9629028 -179.625 293.2421875 C-186.85014876 290.5112533 -191.58972493 287.19869098 -195.75 280.5625 C-196.63945312 279.17224609 -196.63945312 279.17224609 -197.546875 277.75390625 C-198.94951009 275.09568652 -199.5918465 272.95911286 -200 270 C-203.23992663 271.72121102 -205.82988169 273.70972072 -208.5 276.1875 C-230.77249083 295.92524841 -260.13767173 301.61692482 -289 300 C-312.07907346 297.38269774 -332.46523285 284.39249395 -347.50390625 267.125 C-361.97393501 248.71305139 -368.16464801 227.38253634 -365.57421875 204.1875 C-362.1227182 184.1984416 -351.43596563 164.44309766 -334.671875 152.58984375 C-328.14928912 148.16752518 -321.51634739 144.47658451 -314 142 C-315.38058594 141.38125 -315.38058594 141.38125 -316.7890625 140.75 C-329.3195107 135.06374601 -341.48111221 129.00524091 -352 120 C-353.23169922 118.96746094 -353.23169922 118.96746094 -354.48828125 117.9140625 C-371.5268934 103.17656792 -381.72928642 84.20747593 -383.75 61.75 C-384.74282641 43.69861079 -379.13576781 28.152446 -367.5 14.4375 C-351.87305942 -2.15001714 -328.61363105 -10.17485965 -306.2109375 -11.16796875 C-278.57083783 -11.30870246 -252.17011203 -2.75222858 -230 14 C-229.12988281 14.6496875 -228.25976562 15.299375 -227.36328125 15.96875 C-211.57377584 28.32374985 -197.6890958 43.39171348 -188 61 C-187.5875 60.61328125 -187.175 60.2265625 -186.75 59.828125 C-180.50859473 54.19971489 -174.7771825 50.23249059 -166.1015625 50.6796875 C-160.28811246 51.56575238 -156.8673593 54.81907102 -153 59 C-152.00355658 60.00354397 -151.00433207 61.00435092 -150 62 C-149.39414062 60.99582031 -148.78828125 59.99164063 -148.1640625 58.95703125 C-142.61192216 49.8534916 -136.73818413 41.26241838 -130 33 C-129.56042969 32.45746582 -129.12085938 31.91493164 -128.66796875 31.35595703 C-97.35481448 -7.09740857 -45.55107972 -34.26349545 0 0 Z " fill="#FBAFA3" transform="translate(435,113)"/>
<path d="M0 0 C12.71535935 8.38057776 16.90748406 23.96628759 19.87890625 38.13671875 C25.31911323 66.23944541 26.13949423 95.08702006 26.0625 123.625 C26.06126129 125.58203857 26.06126129 125.58203857 26.05999756 127.57861328 C26.032052 146.79809492 25.62311529 165.77911723 22.75 184.8125 C22.60038818 185.81740479 22.45077637 186.82230957 22.29663086 187.85766602 C19.479363 205.76529187 15.74153574 226.44406918 0.87109375 238.35546875 C-4.43696537 242.00170457 -9.96549298 242.63834868 -16.25 241.8125 C-25.85743712 239.0389244 -31.42393425 234.41725287 -36.61328125 225.9296875 C-39.32559783 220.76398671 -40.84584577 215.45536278 -42.25 209.8125 C-42.52585938 208.74515625 -42.80171875 207.6778125 -43.0859375 206.578125 C-53.3282041 163.37806982 -46.75093833 114.63088604 -41.38305664 71.1953125 C-40.93639077 67.55345595 -40.5082323 63.90969816 -40.08007812 60.265625 C-34.74343072 16.16626671 -34.74343072 16.16626671 -21.125 3.625 C-14.57669562 -1.43334602 -7.91674483 -2.89265676 0 0 Z " fill="#FDCE87" transform="translate(274.25,165.1875)"/>
</svg>
