<?xml version="1.0" encoding="UTF-8"?>
<svg version="1.1" xmlns="http://www.w3.org/2000/svg" width="512" height="512">
<path d="M0 0 C8.66309711 4.97418678 12.02824765 12.10227828 14.78271484 21.375 C16.56083821 28.14880331 17.75664213 35.01988419 18.96484375 41.9140625 C19.35259866 44.09954641 19.74267019 46.28455477 20.13728333 48.46881104 C20.48881065 50.4180701 20.83287637 52.36867047 21.17651367 54.31933594 C21.48340116 57.05202681 21.48340116 57.05202681 22.77734375 58.1640625 C23.11765625 57.17148438 23.45796875 56.17890625 23.80859375 55.15625 C29.69692875 38.4540002 38.97935723 17.37360479 55.77734375 9.1640625 C61.52378289 6.76100613 66.77055278 6.79391844 72.77734375 8.1640625 C77.57170383 10.65002699 81.47685372 13.91283742 83.52734375 19.0390625 C86.41013868 43.5428194 65.96672275 73.05350976 53.77734375 93.1640625 C54.62554687 92.73996094 55.47375 92.31585938 56.34765625 91.87890625 C58.1711597 90.96715452 59.99479458 90.05565474 61.82080078 89.14892578 C64.98883996 87.57314199 68.13527765 85.97426123 71.26171875 84.31640625 C86.22538387 76.47254954 102.86605752 70.10233959 119.77734375 75.1640625 C126.84158458 78.72537399 131.30296084 84.74091378 133.77734375 92.1640625 C134.56283158 98.69262525 133.60913138 103.77668347 129.77734375 109.1640625 C118.38144095 122.33759916 99.90961817 124.4853448 83.68359375 125.7578125 C74.7234941 126.40293967 65.7532593 126.81530504 56.77734375 127.1640625 C57.29417725 127.46473633 57.81101074 127.76541016 58.34350586 128.07519531 C74.65869821 137.60815302 90.52675561 147.68569401 104.77734375 160.1640625 C105.44121094 160.74414062 106.10507812 161.32421875 106.7890625 161.921875 C112.87757947 167.60096892 118.05011424 174.82166746 119.015625 183.2421875 C119.2138917 189.04409713 118.29647406 193.45478899 114.77734375 198.1640625 C108.71870025 203.82910503 103.04245 204.54760521 94.92578125 204.4296875 C81.18740719 203.27061872 68.96659706 191.66108985 59.77734375 182.1640625 C57.38525703 179.20790568 55.06805634 176.19924645 52.77734375 173.1640625 C53.04474365 174.02161133 53.31214355 174.87916016 53.58764648 175.76269531 C54.58186513 178.95301135 55.57508201 182.1436357 56.56762695 185.33447266 C56.99691474 186.71382889 57.42659818 188.09306206 57.85668945 189.47216797 C58.47582087 191.45768305 59.09351493 193.44364046 59.7109375 195.4296875 C60.08275146 196.62368164 60.45456543 197.81767578 60.83764648 199.04785156 C63.19171728 206.85438823 64.62715629 215.94467441 61.8359375 223.8203125 C59.53188545 227.69169777 57.03700287 230.48001122 52.77734375 232.1640625 C46.40260153 233.65150235 41.64529749 233.13921799 35.77734375 230.1640625 C24.02816702 222.28032124 16.17405985 207.66808016 12.77734375 194.1640625 C12.77734375 193.1740625 12.77734375 192.1840625 12.77734375 191.1640625 C12.11734375 191.1640625 11.45734375 191.1640625 10.77734375 191.1640625 C10.65149902 192.18846436 10.5256543 193.21286621 10.39599609 194.26831055 C9.42470643 200.38467567 7.37197804 206.12084599 5.40234375 211.9765625 C5.07055115 212.96739334 5.07055115 212.96739334 4.73205566 213.97824097 C-8.27173016 252.62129317 -27.05800631 289.15378302 -48.81469727 323.55004883 C-54.5433214 332.61130887 -59.94698042 341.83330946 -65.22265625 351.1640625 C-65.66432129 351.94442871 -66.10598633 352.72479492 -66.56103516 353.52880859 C-69.12676026 358.06730371 -71.6800905 362.6125559 -74.22265625 367.1640625 C-73.89265625 367.4940625 -73.56265625 367.8240625 -73.22265625 368.1640625 C-72.66320312 367.72835938 -72.10375 367.29265625 -71.52734375 366.84375 C-56.43705176 355.63520515 -38.63866575 351.97400945 -20.63671875 347.88671875 C0.97490393 342.97321025 23.80686787 336.00437295 36.89160156 316.50341797 C40.27022137 310.97348165 42.8470436 305.34287017 44.77734375 299.1640625 C50.64820121 305.03491996 49.70066883 319.37389016 49.77734375 327.1640625 C49.16884252 343.24698097 44.03375455 356.60227422 32.38671875 367.92578125 C15.65913879 382.27443891 -5.41752562 385.34310416 -26.60546875 385.15625 C-27.55093063 385.14843506 -28.49639252 385.14062012 -29.47050476 385.13256836 C-33.41314418 385.09602834 -37.35552228 385.05466209 -41.29785156 384.99267578 C-54.31815192 384.79973427 -66.45583172 385.59125488 -79.22265625 388.1640625 C-81.22130504 388.50540414 -83.22081982 388.84194137 -85.22265625 389.1640625 C-85.35696045 389.89423584 -85.49126465 390.62440918 -85.62963867 391.37670898 C-86.17270582 393.9292811 -86.8678598 396.29508914 -87.7109375 398.76171875 C-93.67467981 416.5724212 -97.45703845 433.59024779 -98.45239258 452.38427734 C-98.51193115 453.35445801 -98.57146973 454.32463867 -98.6328125 455.32421875 C-98.67543213 456.18668213 -98.71805176 457.04914551 -98.76196289 457.93774414 C-99.31597978 460.61505204 -100.03552909 461.55526379 -102.22265625 463.1640625 C-105.28515625 463.4765625 -105.28515625 463.4765625 -108.22265625 463.1640625 C-111.17050562 460.21621313 -110.54153865 457.61257655 -110.60302734 453.57324219 C-110.53747119 415.01430368 -96.2321254 378.39702341 -76.890625 345.4296875 C-76.33294434 344.47731201 -75.77526367 343.52493652 -75.20068359 342.54370117 C-74.11313972 340.70418654 -73.01116355 338.87310725 -71.89306641 337.05200195 C-71.39983887 336.224021 -70.90661133 335.39604004 -70.3984375 334.54296875 C-69.95411377 333.8166626 -69.50979004 333.09035645 -69.05200195 332.34204102 C-67.98007929 329.52702127 -68.3282816 328.01016522 -69.22265625 325.1640625 C-70.51838008 323.13949402 -71.84998805 321.13727303 -73.22265625 319.1640625 C-73.71765625 317.6790625 -73.71765625 317.6790625 -74.22265625 316.1640625 C-76.04683693 315.08605221 -76.04683693 315.08605221 -78.22265625 314.1640625 C-88.90050658 307.76346791 -99.53272736 301.15595803 -108.22265625 292.1640625 C-108.91101563 291.473125 -109.599375 290.7821875 -110.30859375 290.0703125 C-121.42494884 278.31508643 -129.82648279 262.28377484 -132.22265625 246.1640625 C-132.38701172 245.13152344 -132.38701172 245.13152344 -132.5546875 244.078125 C-134.76183836 227.77463732 -132.66332979 211.30128 -126.22265625 196.1640625 C-123.50433591 198.88238284 -123.30623902 201.30983291 -122.41015625 205.0390625 C-117.1794998 225.45808557 -105.39322549 241.16887128 -92.96435547 257.82226562 C-80.14929695 275.05271717 -67.66079027 292.57154681 -63.58984375 314.06640625 C-63.38959595 315.0959845 -63.38959595 315.0959845 -63.18530273 316.1463623 C-62.86068657 317.81820834 -62.54113681 319.49103681 -62.22265625 321.1640625 C-48.83490374 298.88512442 -48.83490374 298.88512442 -36.22265625 276.1640625 C-35.77003418 275.30941406 -35.31741211 274.45476562 -34.85107422 273.57421875 C-28.37092637 261.22273722 -22.5626473 248.64124595 -17.16015625 235.7890625 C-16.74351212 234.80228012 -16.74351212 234.80228012 -16.31845093 233.79556274 C-13.19417853 226.36810211 -10.30734846 218.95919639 -8.22265625 211.1640625 C-8.68800781 211.79352783 -9.15335937 212.42299316 -9.6328125 213.0715332 C-14.86717824 220.09631808 -19.52950012 225.84588753 -28.22265625 228.1640625 C-31.66015625 228.46484375 -31.66015625 228.46484375 -35.22265625 228.4765625 C-36.39828125 228.49332031 -37.57390625 228.51007813 -38.78515625 228.52734375 C-44.12204841 227.96333128 -48.02937086 225.96647773 -51.47265625 221.8515625 C-56.07378432 216.08208515 -56.94733086 210.36405536 -56.22265625 203.1640625 C-52.99815679 185.57588362 -40.10429764 171.51670783 -28.80175781 158.38867188 C-26.78338976 156.04256001 -24.94275833 153.74421563 -23.22265625 151.1640625 C-24.80240234 152.03417969 -24.80240234 152.03417969 -26.4140625 152.921875 C-60.68383183 171.56578077 -60.68383183 171.56578077 -79.421875 166.2578125 C-84.47157107 163.90279729 -87.91291979 161.38607538 -90.22265625 156.1640625 C-91.8625127 149.95108523 -91.46584556 144.74509851 -88.22265625 139.1640625 C-79.00432721 125.26150111 -53.75092906 120.83993867 -38.48657227 117.68457031 C-35.73752789 117.14469252 -32.98329647 116.64090036 -30.22265625 116.1640625 C-32.90705883 113.47965992 -36.08237068 112.45992735 -39.53515625 111.0390625 C-55.56434824 104.21448526 -73.3765653 93.876691 -81.72265625 77.9140625 C-84.22228452 71.54224223 -84.43193843 64.25104826 -82.4921875 57.6953125 C-79.90710271 52.03978005 -75.91160637 48.62302263 -70.22265625 46.1640625 C-67.99609375 45.828125 -67.99609375 45.828125 -65.59765625 45.7890625 C-64.82164062 45.76070312 -64.045625 45.73234375 -63.24609375 45.703125 C-54.84308899 46.98420325 -48.07360523 51.24952292 -41.41015625 56.2890625 C-40.6433252 56.85584717 -39.87649414 57.42263184 -39.08642578 58.0065918 C-36.78790993 59.71216621 -34.50292374 61.43418712 -32.22265625 63.1640625 C-31.53478027 63.68532715 -30.8469043 64.2065918 -30.13818359 64.74365234 C-26.47936596 67.52478986 -22.84174898 70.33145105 -19.22265625 73.1640625 C-19.62097656 72.21789062 -20.01929688 71.27171875 -20.4296875 70.296875 C-27.88587115 51.94301148 -31.57116937 31.06966426 -25.4453125 11.70703125 C-23.21923739 6.71030471 -19.74808373 3.19851387 -15.22265625 0.1640625 C-10.24218243 -1.49609544 -4.98459657 -1.87469888 0 0 Z " fill="#FD9A83" transform="translate(257.22265625,25.8359375)"/>
<path d="M0 0 C4.90082629 9.2938079 3.54936417 19.26886244 0.76416016 28.99365234 C-12.57440875 71.82221085 -32.54970167 112.1822755 -56.21875 150.16796875 C-57.31273054 151.92433559 -58.40647991 153.68084644 -59.5 155.4375 C-60.03689453 156.29923828 -60.57378906 157.16097656 -61.12695312 158.04882812 C-68.8208611 170.46462908 -75.92541353 183.22430969 -83 196 C-82.67 196.33 -82.34 196.66 -82 197 C-81.44054687 196.56429687 -80.88109375 196.12859375 -80.3046875 195.6796875 C-65.21439551 184.47114265 -47.4160095 180.80994695 -29.4140625 176.72265625 C-7.80243982 171.80914775 15.02952412 164.84031045 28.11425781 145.33935547 C31.49287762 139.80941915 34.06969985 134.17880767 36 128 C41.87085746 133.87085746 40.92332508 148.20982766 41 156 C40.39149877 172.08291847 35.2564108 185.43821172 23.609375 196.76171875 C6.88179504 211.11037641 -14.19486937 214.17904166 -35.3828125 213.9921875 C-36.32827438 213.98437256 -37.27373627 213.97655762 -38.24784851 213.96850586 C-42.19048793 213.93196584 -46.13286603 213.89059959 -50.07519531 213.82861328 C-63.09549567 213.63567177 -75.23317547 214.42719238 -88 217 C-89.99864879 217.34134164 -91.99816357 217.67787887 -94 218 C-94.1343042 218.73017334 -94.2686084 219.46034668 -94.40698242 220.21264648 C-94.95004957 222.7652186 -95.64520355 225.13102664 -96.48828125 227.59765625 C-102.45202356 245.4083587 -106.2343822 262.42618529 -107.22973633 281.22021484 C-107.2892749 282.19039551 -107.34881348 283.16057617 -107.41015625 284.16015625 C-107.45277588 285.02261963 -107.49539551 285.88508301 -107.53930664 286.77368164 C-108.09332353 289.45098954 -108.81287284 290.39120129 -111 292 C-114.0625 292.3125 -114.0625 292.3125 -117 292 C-119.94784937 289.05215063 -119.3188824 286.44851405 -119.38037109 282.40917969 C-119.31481494 243.85024118 -105.00946915 207.23296091 -85.66796875 174.265625 C-85.11028809 173.31324951 -84.55260742 172.36087402 -83.97802734 171.37963867 C-82.89048347 169.54012404 -81.7885073 167.70904475 -80.67041016 165.88793945 C-80.17718262 165.0599585 -79.68395508 164.23197754 -79.17578125 163.37890625 C-78.73145752 162.6526001 -78.28713379 161.92629395 -77.8293457 161.17797852 C-76.75742304 158.36295877 -77.10562535 156.84610272 -78 154 C-79.29572383 151.97543152 -80.6273318 149.97321053 -82 148 C-82.33 147.01 -82.66 146.02 -83 145 C-84.82418068 143.92198971 -84.82418068 143.92198971 -87 143 C-97.67785033 136.59940541 -108.31007111 129.99189553 -117 121 C-117.68835938 120.3090625 -118.37671875 119.618125 -119.0859375 118.90625 C-130.20229259 107.15102393 -138.60382654 91.11971234 -141 75 C-141.10957031 74.31164062 -141.21914062 73.62328125 -141.33203125 72.9140625 C-143.53918211 56.61057482 -141.44067354 40.1372175 -135 25 C-132.28167966 27.71832034 -132.08358277 30.14577041 -131.1875 33.875 C-125.95684355 54.29402307 -114.17056924 70.00480878 -101.74169922 86.65820312 C-88.9266407 103.88865467 -76.43813402 121.40748431 -72.3671875 142.90234375 C-72.23368896 143.58872925 -72.10019043 144.27511475 -71.96264648 144.9822998 C-71.63803032 146.65414584 -71.31848056 148.32697431 -71 150 C-57.61224749 127.72106192 -57.61224749 127.72106192 -45 105 C-44.54737793 104.14535156 -44.09475586 103.29070312 -43.62841797 102.41015625 C-32.72263001 81.62318629 -23.12743567 59.98951812 -15.75634766 37.6875 C-11.38441052 24.80633297 -5.51739718 12.42130021 0 0 Z " fill="#604D48" transform="translate(266,197)"/>
<path d="M0 0 C5.87085746 5.87085746 4.92332508 20.20982766 5 28 C4.39149877 44.08291847 -0.7435892 57.43821172 -12.390625 68.76171875 C-29.11820496 83.11037641 -50.19486937 86.17904166 -71.3828125 85.9921875 C-72.32827438 85.98437256 -73.27373627 85.97655762 -74.24784851 85.96850586 C-78.19048793 85.93196584 -82.13286603 85.89059959 -86.07519531 85.82861328 C-99.07952779 85.63590839 -111.25404086 86.36213465 -124 89 C-125.48137451 89.29559814 -125.48137451 89.29559814 -126.99267578 89.59716797 C-127.65509277 89.73010254 -128.31750977 89.86303711 -129 90 C-127.97110213 82.29469814 -125.27730144 75.2174172 -119.6484375 69.69140625 C-116.85573262 67.57834194 -114.02592939 65.7628996 -111 64 C-109.42025391 63.07574219 -109.42025391 63.07574219 -107.80859375 62.1328125 C-96.46701843 56.00862467 -84.44206871 53.2690634 -71.96484375 50.34765625 C-35.35814073 41.8733563 -35.35814073 41.8733563 -7.88574219 17.33935547 C-4.50712238 11.80941915 -1.93030015 6.17880767 0 0 Z " fill="#69AC96" transform="translate(302,325)"/>
<path d="M0 0 C2.71832034 2.71832034 2.91641723 5.14577041 3.8125 8.875 C9.04315645 29.29402307 20.82943076 45.00480878 33.25830078 61.65820312 C44.51096767 76.78794531 55.04496284 91.9347192 61 110 C61.24492187 110.72445312 61.48984375 111.44890625 61.7421875 112.1953125 C63.34612561 117.62233598 63.77320871 123.39873223 63 129 C61 131.6875 61 131.6875 59 133 C58.20724852 131.5839401 57.41584688 130.16712447 56.625 128.75 C56.18414062 127.96109375 55.74328125 127.1721875 55.2890625 126.359375 C54 124 54 124 53.0859375 121.828125 C51.7020222 119.49836831 50.42854331 119.16137216 48 118 C37.32214967 111.59940541 26.68992889 104.99189553 18 96 C17.31164062 95.3090625 16.62328125 94.618125 15.9140625 93.90625 C4.79770741 82.15102393 -3.60382654 66.11971234 -6 50 C-6.10957031 49.31164062 -6.21914062 48.62328125 -6.33203125 47.9140625 C-8.53918211 31.61057482 -6.44067354 15.1372175 0 0 Z " fill="#69AC96" transform="translate(131,222)"/>
<path d="M0 0 C7.76847135 5.20824068 12.9866584 11.39413981 15.75 20.375 C15.8325 21.220625 15.915 22.06625 16 22.9375 C16.06316406 23.57042969 16.12632812 24.20335937 16.19140625 24.85546875 C16.5913516 32.14479527 14.84116983 39.23455354 10.3515625 45.0859375 C3.8644357 51.79968882 -2.97998776 54.93197576 -12.375 55.3125 C-20.67543718 55.14170911 -27.19784143 51.73965857 -33 45.9375 C-38.57163883 38.10410679 -39.92022485 30.3610684 -39 20.9375 C-37.09016757 12.32609987 -33.1209366 6.0835794 -26.296875 0.55859375 C-18.91962491 -4.0441688 -7.60467683 -3.93930086 0 0 Z " fill="#FECE86" transform="translate(287,120.0625)"/>
</svg>
