<?xml version="1.0" encoding="UTF-8"?>
<svg version="1.1" xmlns="http://www.w3.org/2000/svg" width="512" height="512">
<path d="M0 0 C7.03739246 5.05738034 11.91240446 11.80833637 15.6171875 19.59375 C15.98070312 18.70623047 15.98070312 18.70623047 16.3515625 17.80078125 C19.98218355 9.24089392 23.83570853 4.17240914 32.6171875 0.59375 C39.44526598 -1.16143005 45.30495861 -0.51380884 51.6171875 2.59375 C56.95774949 6.08565591 60.32535915 10.67150328 62.6171875 16.59375 C62.75 19.375 62.75 19.375 62.6171875 21.59375 C63.2771875 21.59375 63.9371875 21.59375 64.6171875 21.59375 C64.8028125 20.913125 64.9884375 20.2325 65.1796875 19.53125 C68.600853 12.54017266 74.54811856 8.45211266 81.6171875 5.59375 C88.34151399 3.35230784 96.90414457 3.46114153 103.4921875 6.15625 C111.95362691 10.63861103 118.56441179 17.43542287 121.6171875 26.59375 C122.34421875 25.59794922 122.34421875 25.59794922 123.0859375 24.58203125 C128.65781026 17.2421604 134.1431623 11.70754886 143.41796875 9.8125 C150.88685727 9.06959102 158.53371126 9.93463253 164.6171875 14.59375 C171.76363063 22.20176741 173.18447827 29.37331629 172.92578125 39.5234375 C171.86256511 58.60838785 155.30654771 75.74572746 143.6171875 89.59375 C142.89789063 90.4496875 142.17859375 91.305625 141.4375 92.1875 C123.73837574 112.59503118 99.65559512 125.41323326 72.6171875 127.59375 C70.70322886 127.61472535 68.78906037 127.62039143 66.875 127.61328125 C65.88902832 127.61046143 64.90305664 127.6076416 63.88720703 127.60473633 C62.76354736 127.5992981 62.76354736 127.5992981 61.6171875 127.59375 C61.50238037 128.34019775 61.38757324 129.08664551 61.26928711 129.85571289 C58.1896869 149.64067743 54.3666458 169.1330983 49.6171875 188.59375 C49.16303467 190.45749268 49.16303467 190.45749268 48.69970703 192.35888672 C40.5159994 225.46196245 29.35262011 257.48737027 13.56298828 287.77148438 C12.62706695 289.57471536 11.71289114 291.38775587 10.80078125 293.203125 C-1.25300823 316.85578395 -17.49883563 338.08131344 -35.3828125 357.59375 C-36.34004969 358.64434365 -37.29707144 359.69513362 -38.25390625 360.74609375 C-39.23413487 361.82053162 -40.21460018 362.89475361 -41.1953125 363.96875 C-41.87956299 364.71886353 -41.87956299 364.71886353 -42.57763672 365.48413086 C-45.11656986 368.25468433 -47.70377037 370.95842184 -50.3828125 373.59375 C-34.85203674 365.80914087 -20.70773209 356.77491281 -7.3828125 345.59375 C-6.37992187 344.76359375 -5.37703125 343.9334375 -4.34375 343.078125 C7.35179538 333.34277428 18.4045808 322.97363215 29.10045242 312.15508461 C30.71458926 310.52304493 32.33268061 308.89501212 33.95175171 307.26786804 C38.543923 302.65167117 43.13010615 298.02955869 47.71191406 293.40307617 C50.54304075 290.54488976 53.37925086 287.69182561 56.21845627 284.84166527 C57.28310328 283.77089991 58.3458635 282.69825447 59.40651321 281.62352943 C75.669955 265.14587671 95.74562316 247.29147028 120.1171875 246.28125 C127.36442756 246.47096833 134.02265897 248.99380432 139.6171875 253.59375 C146.12825361 260.47186151 148.67152411 268.02492699 149.0546875 277.40625 C148.70487719 288.76050973 144.71715873 297.88678939 137.6171875 306.59375 C137.03195312 307.34140625 136.44671875 308.0890625 135.84375 308.859375 C98.21371903 354.26945457 20.01316754 375.11832767 -35.43261719 380.37060547 C-38.40995189 380.59580275 -41.37502951 380.72666993 -44.359375 380.81640625 C-45.31199219 380.84565186 -46.26460938 380.87489746 -47.24609375 380.9050293 C-49.02173301 380.94599834 -50.79814299 380.9637127 -52.57421875 380.95239258 C-58.78674911 381.05496981 -61.52992941 382.76732153 -66.3828125 386.59375 C-69.6953125 386.59375 -69.6953125 386.59375 -72.3828125 385.59375 C-74.3828125 382.59375 -74.3828125 382.59375 -74.2578125 379.65625 C-73.3828125 376.59375 -73.3828125 376.59375 -71.3203125 374.71875 C-69.07037008 372.65739544 -69.07037008 372.65739544 -68.9453125 369.28125 C-69.82100871 353.99893866 -75.17594522 339.68193204 -82.01953125 326.15625 C-82.535121 325.13109032 -82.535121 325.13109032 -83.06112671 324.08522034 C-85.60346467 319.0606849 -88.22818143 314.08285716 -90.890625 309.12109375 C-91.26929214 308.41505508 -91.64795929 307.70901642 -92.0381012 306.98158264 C-93.58049395 304.10945441 -95.1241921 301.23812535 -96.67919922 298.37280273 C-108.12659407 277.25037401 -118.44344462 254.73786993 -113.72265625 230.15625 C-111.01404662 221.71383036 -105.27950435 214.70002976 -97.3828125 210.59375 C-89.09005586 207.55860107 -79.77924164 207.92435937 -71.6328125 211.28125 C-59.6665082 217.36142624 -52.18783569 226.87506515 -47.40625 239.390625 C-34.95225246 278.36878525 -40.95713781 321.89205561 -54.3828125 359.59375 C-53.28134727 358.50251685 -52.18138379 357.40976777 -51.08203125 356.31640625 C-50.46932373 355.70804932 -49.85661621 355.09969238 -49.2253418 354.47290039 C-46.86223053 352.06282123 -44.64299545 349.55288058 -42.4453125 346.9921875 C-40.87745044 345.16895397 -39.29404527 343.36610356 -37.6953125 341.5703125 C-29.87317419 332.71413136 -22.95606948 323.40749605 -16.3828125 313.59375 C-15.64828857 312.50199463 -15.64828857 312.50199463 -14.89892578 311.38818359 C21.78199504 256.39703722 37.96656939 190.85305984 49.6171875 126.59375 C48.64652344 126.635 47.67585937 126.67625 46.67578125 126.71875 C23.93900709 126.67310528 -0.83061733 111.06659724 -16.3828125 95.59375 C-17.14078125 94.87058594 -17.89875 94.14742188 -18.6796875 93.40234375 C-35.50271546 76.26025837 -43.52461964 49.73082114 -43.7578125 26.15625 C-43.65052354 16.52272285 -42.45502227 8.49384816 -35.52734375 1.2890625 C-25.35659354 -6.75120269 -10.86827091 -6.41406152 0 0 Z " fill="#69AC96" transform="translate(217.3828125,96.40625)"/>
<path d="M0 0 C7.03739246 5.05738034 11.91240446 11.80833637 15.6171875 19.59375 C15.85953125 19.00207031 16.101875 18.41039063 16.3515625 17.80078125 C19.98218355 9.24089392 23.83570853 4.17240914 32.6171875 0.59375 C39.44526598 -1.16143005 45.30495861 -0.51380884 51.6171875 2.59375 C56.95774949 6.08565591 60.32535915 10.67150328 62.6171875 16.59375 C62.75 19.375 62.75 19.375 62.6171875 21.59375 C63.2771875 21.59375 63.9371875 21.59375 64.6171875 21.59375 C64.895625 20.5728125 64.895625 20.5728125 65.1796875 19.53125 C68.600853 12.54017266 74.54811856 8.45211266 81.6171875 5.59375 C88.34151399 3.35230784 96.90414457 3.46114153 103.4921875 6.15625 C111.95362691 10.63861103 118.56441179 17.43542287 121.6171875 26.59375 C122.34421875 25.59794922 122.34421875 25.59794922 123.0859375 24.58203125 C128.65781026 17.2421604 134.1431623 11.70754886 143.41796875 9.8125 C150.88685727 9.06959102 158.53371126 9.93463253 164.6171875 14.59375 C171.76363063 22.20176741 173.18447827 29.37331629 172.92578125 39.5234375 C171.86256511 58.60838785 155.30654771 75.74572746 143.6171875 89.59375 C142.89789063 90.4496875 142.17859375 91.305625 141.4375 92.1875 C123.75667366 112.57393322 99.64220572 125.44890728 72.6171875 127.59375 C68.61549892 127.66317211 64.61890913 127.65377582 60.6171875 127.59375 C60.2871875 126.27375 59.9571875 124.95375 59.6171875 123.59375 C55.63964622 122.86040571 55.63964622 122.86040571 51.6171875 122.59375 C51.2871875 123.91375 50.9571875 125.23375 50.6171875 126.59375 C44.595114 126.81273449 39.42922776 126.14877062 33.6171875 124.59375 C32.7919458 124.37299805 31.9667041 124.15224609 31.11645508 123.92480469 C13.45831169 118.91208291 -3.42221964 108.48821739 -16.3828125 95.59375 C-17.14078125 94.87058594 -17.89875 94.14742188 -18.6796875 93.40234375 C-35.50271546 76.26025837 -43.52461964 49.73082114 -43.7578125 26.15625 C-43.65052354 16.52272285 -42.45502227 8.49384816 -35.52734375 1.2890625 C-25.35659354 -6.75120269 -10.86827091 -6.41406152 0 0 Z " fill="#FD7D60" transform="translate(217.3828125,96.40625)"/>
<path d="M0 0 C7.53916688 6.19887055 11.05797227 13.52175041 12.12890625 23.16015625 C12.63596591 35.57493951 8.57424188 45.79398527 0.8125 55.3125 C0.22726562 56.06015625 -0.35796875 56.8078125 -0.9609375 57.578125 C-37.92641022 102.1862482 -114.74354303 123.2297991 -169.24609375 128.85546875 C-178.22000395 129.64140745 -187.1907173 129.56792916 -196.1875 129.3125 C-192.07603384 124.63508303 -187.60044926 122.18882401 -182.0625 119.4375 C-153.69981952 104.88250843 -129.98961698 83.41481792 -107.70423508 60.87383461 C-106.09009824 59.24179493 -104.47200689 57.61376212 -102.85293579 55.98661804 C-98.2607645 51.37042117 -93.67458135 46.74830869 -89.09277344 42.12182617 C-86.26164675 39.26363976 -83.42543664 36.41057561 -80.58623123 33.56041527 C-79.52158422 32.48964991 -78.458824 31.41700447 -77.39817429 30.34227943 C-58.18752043 10.87859598 -28.70951533 -15.19915518 0 0 Z " fill="#69AC96" transform="translate(354.1875,347.6875)"/>
<path d="M0 0 C1.85885308 5.32465659 2.08835229 8.787822 1.05078125 14.44921875 C0.92288208 15.16254868 0.79498291 15.8758786 0.66320801 16.61082458 C0.23188337 18.97369424 -0.22574306 21.3303998 -0.6875 23.6875 C-0.92299057 24.92243195 -0.92299057 24.92243195 -1.16323853 26.18231201 C-9.21728286 68.29404769 -20.44623139 109.80017318 -38 149 C-38.33418945 149.76183594 -38.66837891 150.52367187 -39.01269531 151.30859375 C-52.11607718 181.09986924 -70.70074878 208.42198436 -92.62890625 232.40234375 C-94.29990418 234.2330087 -95.95189558 236.08111218 -97.58984375 237.94140625 C-103.08211095 244.1410711 -108.79212006 249.58375062 -115.2734375 254.74609375 C-118.02434932 257.02012831 -120.48024814 259.4760345 -123 262 C-126 264 -126 264 -129.0625 263.8125 C-132 263 -132 263 -134 260 C-133.85070546 256.4915783 -133.45837479 254.57296849 -131.25 251.8125 C-129 250 -129 250 -126.60693359 248.61987305 C-124.05047767 247.03136536 -122.15447616 245.39849504 -120.0390625 243.26953125 C-119.31976563 242.54830078 -118.60046875 241.82707031 -117.859375 241.08398438 C-117.12203125 240.33439453 -116.3846875 239.58480469 -115.625 238.8125 C-114.89539063 238.08224609 -114.16578125 237.35199219 -113.4140625 236.59960938 C-108.74381077 231.89182884 -104.32376573 227.02536038 -100 222 C-99.03938474 220.91652644 -98.0772229 219.83442147 -97.11328125 218.75390625 C-89.36264033 209.97157741 -82.51584033 200.7280241 -76 191 C-75.26547607 189.90824463 -75.26547607 189.90824463 -74.51611328 188.79443359 C-39.21571707 135.8729362 -22.05985496 72.26620964 -11.24121094 10.18920898 C-9.93145232 2.87127778 -9.93145232 2.87127778 -8 0 C-5.13822943 -1.43088528 -3.06624227 -0.59991697 0 0 Z " fill="#604C47" transform="translate(277,219)"/>
<path d="M0 0 C5.07967491 2.38590791 7.96606001 5.63265801 10.6875 10.53125 C12.42260507 16.89330194 12.08991322 22.62515496 8.84375 28.421875 C5.48976968 32.85658231 0.95885658 36.29218809 -4.5625 37.28125 C-10.44541185 37.67344412 -15.39318394 37.32516545 -20.5625 34.28125 C-24.99248661 30.31190359 -28.21925016 25.98834824 -28.77734375 19.9609375 C-28.97567188 14.64574355 -28.71181495 10.75124542 -25.5625 6.28125 C-18.12330881 -1.03739874 -10.43598212 -2.92716572 0 0 Z " fill="#FECF87" transform="translate(334.5625,41.71875)"/>
<path d="M0 0 C3.61071197 2.80732856 5.75432517 5.72781927 7.1875 10.02734375 C7.96287297 16.26861754 7.70676991 21.78155108 4.53125 27.3046875 C1.52389756 31.16004339 -2.21980149 33.49644425 -6.8125 35.02734375 C-14.76665914 35.75044913 -19.95616551 34.59823341 -26.625 30.15234375 C-29.71346296 27.15212259 -30.7197967 25.09177489 -30.9140625 20.765625 C-30.64579367 14.02795008 -28.64564911 9.71008366 -23.8125 5.02734375 C-16.74855324 -0.58226103 -8.81414314 -4.73000354 0 0 Z " fill="#FECF87" transform="translate(412.8125,56.97265625)"/>
<path d="M0 0 C3.39053 1.66481114 5.43446444 3.85914453 7.12890625 7.27734375 C8.92701993 12.89745692 9.03389595 19.59871731 7.3125 25.26171875 C4.62419009 30.42551403 0.39781047 33.20072984 -5 35 C-11.3521282 35.53831595 -15.70224682 34.64147114 -21 31 C-25.32658619 26.45153759 -26.44765626 22.54218776 -26.328125 16.40625 C-25.59895988 11.0590391 -22.88098552 7.58665865 -18.828125 4.16796875 C-12.81929792 0.08234906 -7.20564035 -1.5157862 0 0 Z " fill="#FECF87" transform="translate(266,36)"/>
<path d="M0 0 C4.81352784 4.45251325 6.11440293 8.31235151 6.5546875 14.75390625 C6.43130787 20.52631024 4.52038476 24.68641966 0.4375 28.75 C-3.85115075 32.05244203 -8.16494871 32.80586681 -13.5 32.3125 C-19.44668325 30.62380772 -23.00987827 27.28327944 -26.5 22.3125 C-28.29910157 16.91519529 -28.19468904 12.21201716 -25.875 7.0625 C-20.79937054 -2.1314338 -9.06483705 -4.37054644 0 0 Z " fill="#FECE87" transform="translate(195.5,40.6875)"/>
</svg>
