<svg id="svg" version="1.1" xmlns="http://www.w3.org/2000/svg" xmlns:xlink="http://www.w3.org/1999/xlink" width="400" height="400" viewBox="0, 0, 400,400"><g id="svgg"><path id="path0" d="M221.490 59.031 C 221.319 59.209,219.699 59.494,217.890 59.665 C 212.984 60.127,211.043 60.442,210.620 60.841 C 210.411 61.038,209.736 61.200,209.120 61.200 C 208.504 61.200,208.000 61.380,208.000 61.600 C 208.000 61.820,207.370 62.000,206.600 62.000 C 205.830 62.000,205.200 62.147,205.200 62.328 C 205.200 62.508,204.300 62.900,203.200 63.200 C 202.100 63.500,201.200 63.892,201.200 64.072 C 201.200 64.253,200.840 64.400,200.400 64.400 C 199.960 64.400,199.600 64.580,199.600 64.800 C 199.600 65.020,199.240 65.200,198.800 65.200 C 198.360 65.200,198.000 65.380,198.000 65.600 C 198.000 65.820,197.640 66.000,197.200 66.000 C 196.760 66.000,196.400 66.180,196.400 66.400 C 196.400 66.620,196.040 66.800,195.600 66.800 C 195.160 66.800,194.800 66.980,194.800 67.200 C 194.800 67.420,194.530 67.600,194.200 67.600 C 193.870 67.600,193.600 67.738,193.600 67.906 C 193.600 68.074,192.880 68.656,192.000 69.200 C 191.120 69.744,190.400 70.326,190.400 70.494 C 190.400 70.662,190.148 70.800,189.841 70.800 C 189.533 70.800,188.362 71.700,187.239 72.800 C 186.115 73.900,185.039 74.800,184.846 74.800 C 184.145 74.800,177.765 81.599,177.103 83.053 C 176.866 83.574,176.548 84.000,176.397 84.000 C 176.245 84.000,175.797 84.720,175.400 85.600 C 175.003 86.480,174.526 87.200,174.339 87.200 C 174.153 87.200,174.000 87.560,174.000 88.000 C 174.000 88.440,173.820 88.800,173.600 88.800 C 173.380 88.800,173.200 89.160,173.200 89.600 C 173.200 90.040,173.020 90.400,172.800 90.400 C 172.580 90.400,172.400 90.760,172.400 91.200 C 172.400 91.640,172.220 92.000,172.000 92.000 C 171.780 92.000,171.600 92.270,171.600 92.600 C 171.600 92.930,171.420 93.200,171.200 93.200 C 170.980 93.200,170.800 93.472,170.800 93.805 C 170.800 94.138,170.641 94.723,170.447 95.105 C 170.252 95.487,169.871 96.340,169.600 97.000 C 169.329 97.660,168.948 98.513,168.753 98.895 C 168.559 99.277,168.400 99.941,168.400 100.371 C 168.400 100.801,168.220 101.264,168.000 101.400 C 167.780 101.536,167.600 102.267,167.600 103.024 C 167.600 103.781,167.420 104.400,167.200 104.400 C 166.980 104.400,166.800 105.120,166.800 106.000 C 166.800 106.880,166.620 107.600,166.400 107.600 C 166.180 107.600,166.000 108.590,166.000 109.800 C 166.000 111.010,165.820 112.000,165.600 112.000 C 165.367 112.000,165.200 113.325,165.200 115.176 C 165.200 116.923,165.035 118.455,164.833 118.580 C 164.309 118.904,164.264 133.068,164.786 133.391 C 165.021 133.537,165.200 135.188,165.200 137.224 C 165.200 139.341,165.363 140.800,165.600 140.800 C 165.829 140.800,166.000 142.000,166.000 143.600 C 166.000 145.200,166.171 146.400,166.400 146.400 C 166.620 146.400,166.800 147.300,166.800 148.400 C 166.800 149.500,166.980 150.400,167.200 150.400 C 167.420 150.400,167.600 151.199,167.600 152.176 C 167.600 153.153,167.780 154.064,168.000 154.200 C 168.220 154.336,168.400 155.056,168.400 155.800 C 168.400 156.544,168.580 157.264,168.800 157.400 C 169.020 157.536,169.200 158.252,169.200 158.990 C 169.200 159.729,169.394 160.398,169.632 160.477 C 169.870 160.557,170.005 161.247,169.932 162.011 L 169.800 163.400 169.054 161.900 C 168.644 161.075,168.149 160.400,167.954 160.400 C 167.759 160.400,167.600 160.170,167.600 159.888 C 167.600 159.607,167.240 159.117,166.800 158.800 C 166.360 158.483,166.000 158.015,166.000 157.760 C 166.000 157.505,165.280 156.555,164.400 155.648 C 163.520 154.741,162.800 153.836,162.800 153.636 C 162.800 153.145,154.594 144.879,152.629 143.390 C 151.765 142.735,150.833 141.975,150.558 141.700 C 150.282 141.425,149.863 141.200,149.625 141.200 C 149.387 141.200,148.628 140.660,147.937 140.000 C 147.246 139.340,146.478 138.800,146.229 138.800 C 145.980 138.800,145.517 138.440,145.200 138.000 C 144.883 137.560,144.343 137.200,144.000 137.200 C 143.657 137.200,143.117 136.840,142.800 136.400 C 142.483 135.960,141.903 135.600,141.512 135.600 C 141.120 135.600,140.800 135.420,140.800 135.200 C 140.800 134.980,140.530 134.800,140.200 134.800 C 139.870 134.800,139.600 134.620,139.600 134.400 C 139.600 134.180,139.276 134.000,138.880 134.000 C 138.484 134.000,137.989 133.832,137.780 133.627 C 137.150 133.008,132.760 130.800,132.159 130.800 C 131.852 130.800,131.600 130.620,131.600 130.400 C 131.600 130.180,131.240 130.000,130.800 130.000 C 130.360 130.000,130.000 129.809,130.000 129.576 C 130.000 129.343,129.852 129.244,129.671 129.356 C 129.491 129.468,128.906 129.337,128.371 129.067 C 127.837 128.796,126.590 128.324,125.600 128.017 C 124.610 127.711,123.629 127.312,123.420 127.130 C 123.211 126.949,122.446 126.800,121.720 126.800 C 120.994 126.800,120.400 126.644,120.400 126.453 C 120.400 126.262,119.725 125.995,118.900 125.861 C 118.075 125.727,116.590 125.441,115.600 125.226 C 114.610 125.011,112.855 124.827,111.700 124.817 C 110.545 124.808,109.600 124.620,109.600 124.400 C 109.600 124.143,105.600 124.000,98.400 124.000 C 92.240 124.000,87.200 124.153,87.200 124.341 C 87.200 124.528,85.805 124.801,84.100 124.948 C 81.128 125.204,78.541 125.788,76.400 126.686 C 75.850 126.917,75.265 127.027,75.100 126.929 C 74.935 126.832,74.800 126.943,74.800 127.176 C 74.800 127.409,74.457 127.600,74.038 127.600 C 73.619 127.600,72.584 127.946,71.738 128.370 C 70.892 128.793,69.615 129.377,68.900 129.667 C 68.185 129.958,67.600 130.331,67.600 130.498 C 67.600 130.664,67.240 130.800,66.800 130.800 C 66.360 130.800,66.000 130.980,66.000 131.200 C 66.000 131.420,65.680 131.600,65.288 131.600 C 64.897 131.600,64.317 131.960,64.000 132.400 C 63.683 132.840,63.143 133.200,62.800 133.200 C 62.457 133.200,61.917 133.560,61.600 134.000 C 61.283 134.440,60.881 134.800,60.707 134.800 C 60.240 134.800,52.800 142.320,52.800 142.791 C 52.800 143.012,52.440 143.418,52.000 143.693 C 51.560 143.968,51.200 144.469,51.200 144.808 C 51.200 145.146,50.840 145.683,50.400 146.000 C 49.960 146.317,49.600 146.897,49.600 147.288 C 49.600 147.680,49.420 148.000,49.200 148.000 C 48.980 148.000,48.800 148.360,48.800 148.800 C 48.800 149.240,48.620 149.600,48.400 149.600 C 48.180 149.600,48.000 149.960,48.000 150.400 C 48.000 150.840,47.820 151.200,47.600 151.200 C 47.380 151.200,47.200 151.560,47.200 152.000 C 47.200 152.440,47.059 152.800,46.887 152.800 C 46.715 152.800,46.343 153.655,46.061 154.700 C 45.778 155.745,45.379 156.913,45.173 157.295 C 44.968 157.677,44.800 158.406,44.800 158.915 C 44.800 159.424,44.638 160.011,44.441 160.220 C 43.251 161.480,42.562 176.499,43.424 182.400 C 43.539 183.188,44.297 187.000,44.339 187.000 C 44.344 187.000,44.425 187.270,44.518 187.600 C 44.611 187.930,44.873 188.830,45.101 189.600 C 45.329 190.370,45.753 191.855,46.045 192.900 C 46.336 193.945,46.715 194.800,46.887 194.800 C 47.059 194.800,47.200 195.239,47.200 195.776 C 47.200 196.313,47.380 196.864,47.600 197.000 C 47.820 197.136,48.000 197.597,48.000 198.024 C 48.000 198.451,48.180 198.800,48.400 198.800 C 48.620 198.800,48.800 199.145,48.800 199.567 C 48.800 199.988,48.935 200.393,49.100 200.467 C 49.476 200.634,50.775 202.764,51.071 203.700 C 51.193 204.085,51.452 204.400,51.647 204.400 C 51.841 204.400,52.000 204.670,52.000 205.000 C 52.000 205.330,52.180 205.600,52.400 205.600 C 52.620 205.600,52.800 205.870,52.800 206.200 C 52.800 206.530,52.980 206.800,53.200 206.800 C 53.420 206.800,53.600 206.980,53.600 207.200 C 53.600 207.419,54.320 208.341,55.200 209.248 C 56.080 210.155,56.800 211.049,56.800 211.235 C 56.800 211.905,64.988 220.400,65.634 220.400 C 65.815 220.400,66.405 220.842,66.945 221.382 C 68.010 222.446,72.155 225.200,72.692 225.200 C 72.874 225.200,73.283 225.560,73.600 226.000 C 73.917 226.440,74.497 226.800,74.888 226.800 C 75.280 226.800,75.600 226.980,75.600 227.200 C 75.600 227.420,75.870 227.600,76.200 227.600 C 76.530 227.600,76.800 227.780,76.800 228.000 C 76.800 228.220,77.070 228.400,77.400 228.400 C 77.730 228.400,78.000 228.580,78.000 228.800 C 78.000 229.020,78.270 229.200,78.600 229.200 C 78.930 229.200,79.200 229.380,79.200 229.600 C 79.200 229.820,79.560 230.000,80.000 230.000 C 80.440 230.000,80.800 230.180,80.800 230.400 C 80.800 230.620,81.034 230.800,81.320 230.800 C 82.056 230.800,83.993 231.741,83.997 232.100 C 83.999 232.265,84.349 232.400,84.776 232.400 C 85.203 232.400,85.664 232.580,85.800 232.800 C 85.936 233.020,86.487 233.200,87.024 233.200 C 87.561 233.200,88.000 233.380,88.000 233.600 C 88.000 233.820,88.360 234.000,88.800 234.000 C 89.240 234.000,89.600 234.160,89.600 234.356 C 89.600 234.891,92.377 235.109,92.794 234.608 C 92.992 234.368,93.635 232.828,94.221 231.186 C 100.215 214.390,112.542 199.693,133.201 184.712 C 134.961 183.436,141.164 179.600,141.468 179.600 C 141.583 179.600,142.185 179.238,142.807 178.795 C 144.780 177.390,157.226 170.988,163.000 168.408 C 168.613 165.900,170.000 165.193,170.000 164.840 C 170.000 164.627,170.513 164.468,171.140 164.486 C 171.767 164.504,172.875 164.222,173.602 163.859 C 174.328 163.497,175.077 163.200,175.266 163.200 C 175.454 163.200,176.372 162.861,177.304 162.446 C 178.237 162.031,180.080 161.294,181.400 160.807 C 182.720 160.320,184.160 159.767,184.600 159.579 C 186.323 158.839,197.584 155.266,200.800 154.439 C 202.670 153.958,204.785 153.392,205.500 153.182 C 210.483 151.717,215.817 150.300,219.000 149.597 C 219.880 149.403,222.130 148.885,224.000 148.448 C 225.870 148.010,227.850 147.570,228.400 147.470 C 228.950 147.370,231.200 146.921,233.400 146.471 C 245.185 144.062,258.944 142.372,271.400 141.802 C 278.447 141.480,279.200 141.343,279.200 140.382 C 279.200 139.952,279.380 139.600,279.600 139.600 C 279.820 139.600,280.000 139.150,280.000 138.600 C 280.000 138.050,280.180 137.600,280.400 137.600 C 280.620 137.600,280.800 136.970,280.800 136.200 C 280.800 135.430,280.980 134.800,281.200 134.800 C 281.420 134.800,281.600 134.080,281.600 133.200 C 281.600 132.320,281.780 131.600,282.000 131.600 C 282.220 131.600,282.400 130.700,282.400 129.600 C 282.400 128.500,282.580 127.600,282.800 127.600 C 283.055 127.600,283.200 124.208,283.200 118.224 C 283.200 112.404,283.048 108.753,282.800 108.600 C 282.580 108.464,282.400 107.463,282.400 106.376 C 282.400 105.289,282.220 104.400,282.000 104.400 C 281.780 104.400,281.600 103.680,281.600 102.800 C 281.600 101.920,281.420 101.200,281.200 101.200 C 280.980 101.200,280.800 100.660,280.800 100.000 C 280.800 99.340,280.620 98.800,280.400 98.800 C 280.180 98.800,280.000 98.260,280.000 97.600 C 280.000 96.940,279.820 96.400,279.600 96.400 C 279.380 96.400,279.200 95.950,279.200 95.400 C 279.200 94.850,279.065 94.399,278.900 94.397 C 278.541 94.393,277.600 92.456,277.600 91.720 C 277.600 91.434,277.465 91.199,277.300 91.197 C 276.979 91.194,276.000 89.288,276.000 88.667 C 276.000 88.462,275.628 87.971,275.174 87.577 C 274.719 87.183,274.357 86.712,274.369 86.530 C 274.410 85.900,273.945 84.800,273.637 84.800 C 273.467 84.800,273.130 84.364,272.887 83.832 C 272.098 82.100,263.606 73.200,262.742 73.200 C 262.511 73.200,261.817 72.660,261.200 72.000 C 260.583 71.340,259.831 70.800,259.528 70.800 C 259.225 70.800,258.717 70.440,258.400 70.000 C 258.083 69.560,257.676 69.200,257.495 69.200 C 257.314 69.200,256.780 68.840,256.308 68.400 C 255.836 67.960,255.213 67.600,254.925 67.600 C 254.636 67.600,254.400 67.420,254.400 67.200 C 254.400 66.980,254.122 66.800,253.783 66.800 C 253.444 66.800,252.780 66.440,252.308 66.000 C 251.836 65.560,251.134 65.200,250.748 65.200 C 250.363 65.200,249.936 65.020,249.800 64.800 C 249.664 64.580,249.203 64.400,248.776 64.400 C 248.349 64.400,248.000 64.220,248.000 64.000 C 248.000 63.780,247.640 63.600,247.200 63.600 C 246.760 63.600,246.400 63.459,246.400 63.287 C 246.400 63.115,245.905 62.934,245.300 62.884 C 244.695 62.834,244.140 62.615,244.067 62.397 C 243.993 62.178,243.408 62.000,242.767 62.000 C 242.125 62.000,241.600 61.840,241.600 61.644 C 241.600 61.448,241.015 61.188,240.300 61.066 C 239.585 60.944,238.100 60.642,237.000 60.394 C 232.692 59.424,222.013 58.485,221.490 59.031 M66.800 293.070 L 65.800 294.092 66.900 293.400 C 67.505 293.019,68.000 292.549,68.000 292.354 C 68.000 291.870,67.940 291.905,66.800 293.070 M63.742 295.293 C 63.357 295.918,63.829 296.013,64.582 295.463 C 65.230 294.989,65.236 294.933,64.635 294.933 C 64.267 294.933,63.865 295.095,63.742 295.293 M191.100 341.093 C 192.035 341.177,193.565 341.177,194.500 341.093 C 195.435 341.009,194.670 340.940,192.800 340.940 C 190.930 340.940,190.165 341.009,191.100 341.093 " stroke="none" fill="#e2eaea" fill-rule="evenodd"></path><path id="path1" d="M273.000 141.630 C 257.069 142.594,243.909 144.225,232.400 146.663 C 230.750 147.013,228.950 147.378,228.400 147.475 C 227.850 147.572,225.870 148.010,224.000 148.448 C 222.130 148.885,219.880 149.403,219.000 149.597 C 216.903 150.061,215.991 150.289,212.400 151.251 C 209.509 152.026,208.296 152.365,205.500 153.178 C 204.785 153.386,203.001 153.888,201.534 154.293 C 198.873 155.029,198.870 155.032,199.435 156.015 C 199.924 156.867,201.761 160.835,203.873 165.600 C 204.214 166.370,205.032 168.170,205.691 169.600 C 206.349 171.030,207.298 173.100,207.799 174.200 C 208.301 175.300,209.991 178.857,211.555 182.105 C 213.120 185.352,214.400 188.082,214.400 188.171 C 214.400 188.509,224.273 208.669,229.694 219.400 C 232.806 225.560,236.439 232.760,237.767 235.400 C 239.095 238.040,240.277 240.290,240.393 240.400 C 240.510 240.510,241.157 241.680,241.832 243.000 C 244.522 248.258,248.500 255.697,253.600 265.000 C 254.324 266.320,255.402 268.300,255.997 269.400 C 257.015 271.283,257.901 272.883,260.153 276.900 C 260.677 277.835,262.837 281.641,264.953 285.357 C 267.069 289.074,268.800 292.160,268.800 292.216 C 268.800 292.272,269.520 293.503,270.400 294.952 C 271.280 296.400,272.000 297.696,272.000 297.831 C 272.000 297.966,272.339 298.554,272.753 299.138 C 273.456 300.129,273.833 300.767,276.043 304.700 C 276.506 305.525,277.027 306.380,277.200 306.600 C 277.373 306.820,277.868 307.630,278.300 308.400 C 278.732 309.170,280.011 311.363,281.143 313.274 C 282.274 315.184,283.200 316.939,283.200 317.174 C 283.200 317.408,283.380 317.600,283.600 317.600 C 283.820 317.600,284.000 317.420,284.000 317.200 C 284.000 316.980,284.360 316.800,284.800 316.800 C 285.240 316.800,285.600 316.620,285.600 316.400 C 285.600 316.180,285.960 316.000,286.400 316.000 C 286.840 316.000,287.200 315.854,287.200 315.675 C 287.200 315.496,287.830 315.102,288.600 314.800 C 289.370 314.498,290.000 314.104,290.000 313.925 C 290.000 313.746,290.278 313.600,290.617 313.600 C 290.956 313.600,291.620 313.240,292.092 312.800 C 292.564 312.360,293.187 312.000,293.475 312.000 C 293.764 312.000,294.000 311.820,294.000 311.600 C 294.000 311.380,294.360 311.200,294.800 311.200 C 295.240 311.200,295.600 311.020,295.600 310.800 C 295.600 310.580,295.836 310.400,296.125 310.400 C 296.413 310.400,297.036 310.040,297.508 309.600 C 297.980 309.160,298.644 308.800,298.983 308.800 C 299.322 308.800,299.600 308.632,299.600 308.427 C 299.600 308.222,299.968 307.937,300.417 307.795 C 301.695 307.389,308.520 302.696,310.000 301.204 C 310.330 300.872,310.851 300.546,311.157 300.481 C 311.464 300.415,312.211 299.830,312.818 299.181 C 313.425 298.531,314.130 298.000,314.386 298.000 C 314.642 298.000,315.729 297.100,316.800 296.000 C 317.871 294.900,318.940 294.000,319.174 294.000 C 319.408 294.000,319.600 293.820,319.600 293.600 C 319.600 293.380,319.770 293.200,319.977 293.200 C 320.465 293.200,332.400 281.259,332.400 280.771 C 332.400 280.567,333.120 279.659,334.000 278.752 C 334.880 277.845,335.600 276.927,335.600 276.712 C 335.600 276.497,336.100 275.844,336.711 275.260 C 337.322 274.677,338.496 273.173,339.321 271.918 C 340.145 270.662,340.995 269.527,341.210 269.394 C 341.424 269.261,341.600 268.803,341.600 268.376 C 341.600 267.949,341.780 267.600,342.000 267.600 C 342.220 267.600,342.400 267.330,342.400 267.000 C 342.400 266.670,342.580 266.400,342.800 266.400 C 343.020 266.400,343.200 266.130,343.200 265.800 C 343.200 265.470,343.380 265.200,343.600 265.200 C 343.820 265.200,344.000 264.922,344.000 264.583 C 344.000 264.244,344.360 263.580,344.800 263.108 C 345.240 262.636,345.600 262.013,345.600 261.725 C 345.600 261.436,345.780 261.200,346.000 261.200 C 346.220 261.200,346.400 260.840,346.400 260.400 C 346.400 259.960,346.580 259.600,346.800 259.600 C 347.020 259.600,347.200 259.240,347.200 258.800 C 347.200 258.360,347.380 258.000,347.600 258.000 C 347.820 258.000,348.000 257.640,348.000 257.200 C 348.000 256.760,348.180 256.400,348.400 256.400 C 348.620 256.400,348.800 256.051,348.800 255.624 C 348.800 255.197,348.980 254.736,349.200 254.600 C 349.420 254.464,349.600 254.003,349.600 253.576 C 349.600 253.149,349.780 252.800,350.000 252.800 C 350.220 252.800,350.400 252.438,350.400 251.995 C 350.400 251.552,350.580 250.832,350.800 250.395 C 351.020 249.958,351.380 249.242,351.600 248.805 C 351.820 248.368,352.000 247.659,352.000 247.229 C 352.000 246.799,352.180 246.336,352.400 246.200 C 352.620 246.064,352.800 245.513,352.800 244.976 C 352.800 244.439,352.980 244.000,353.200 244.000 C 353.420 244.000,353.600 243.280,353.600 242.400 C 353.600 241.520,353.780 240.800,354.000 240.800 C 354.220 240.800,354.400 240.181,354.400 239.424 C 354.400 238.667,354.580 237.936,354.800 237.800 C 355.020 237.664,355.200 236.789,355.200 235.856 C 355.200 234.923,355.364 233.989,355.565 233.780 C 357.188 232.089,357.226 203.044,355.609 199.400 C 355.257 198.605,354.956 197.176,354.535 194.300 C 354.415 193.475,354.155 192.800,353.958 192.800 C 353.761 192.800,353.600 192.260,353.600 191.600 C 353.600 190.940,353.420 190.400,353.200 190.400 C 352.980 190.400,352.800 189.860,352.800 189.200 C 352.800 188.540,352.620 188.000,352.400 188.000 C 352.180 188.000,352.000 187.460,352.000 186.800 C 352.000 186.140,351.820 185.600,351.600 185.600 C 351.380 185.600,351.200 185.240,351.200 184.800 C 351.200 184.360,351.020 184.000,350.800 184.000 C 350.580 184.000,350.400 183.640,350.400 183.200 C 350.400 182.760,350.220 182.400,350.000 182.400 C 349.780 182.400,349.600 181.950,349.600 181.400 C 349.600 180.850,349.420 180.400,349.200 180.400 C 348.980 180.400,348.800 180.040,348.800 179.600 C 348.800 179.160,348.620 178.800,348.400 178.800 C 348.180 178.800,348.000 178.530,348.000 178.200 C 348.000 177.870,347.820 177.600,347.600 177.600 C 347.380 177.600,347.200 177.240,347.200 176.800 C 347.200 176.360,347.020 176.000,346.800 176.000 C 346.580 176.000,346.400 175.770,346.400 175.488 C 346.400 175.207,346.040 174.717,345.600 174.400 C 345.160 174.083,344.800 173.543,344.800 173.200 C 344.800 172.857,344.440 172.317,344.000 172.000 C 343.560 171.683,343.200 171.191,343.200 170.908 C 343.200 170.625,342.660 169.828,342.000 169.137 C 341.340 168.446,340.800 167.729,340.800 167.544 C 340.800 166.736,334.398 160.356,332.320 159.093 C 331.594 158.652,330.709 157.955,330.353 157.545 C 329.997 157.135,329.547 156.800,329.353 156.799 C 329.159 156.799,328.370 156.259,327.600 155.600 C 326.830 154.941,326.041 154.401,325.847 154.401 C 325.653 154.400,325.203 154.082,324.847 153.693 C 324.491 153.304,323.300 152.539,322.200 151.993 C 321.100 151.447,320.140 150.865,320.067 150.700 C 319.993 150.535,319.588 150.400,319.167 150.400 C 318.745 150.400,318.400 150.220,318.400 150.000 C 318.400 149.780,318.040 149.600,317.600 149.600 C 317.160 149.600,316.800 149.420,316.800 149.200 C 316.800 148.980,316.528 148.800,316.195 148.800 C 315.862 148.800,315.277 148.641,314.895 148.447 C 314.513 148.252,313.660 147.871,313.000 147.600 C 312.340 147.329,311.487 146.948,311.105 146.753 C 310.723 146.559,310.048 146.400,309.605 146.400 C 309.162 146.400,308.800 146.240,308.800 146.045 C 308.800 145.850,308.305 145.595,307.700 145.478 C 307.095 145.361,305.880 145.059,305.000 144.806 C 302.705 144.147,300.385 143.582,299.000 143.346 C 298.340 143.233,297.530 143.036,297.200 142.909 C 296.474 142.628,296.027 142.561,291.279 142.010 C 289.233 141.773,287.400 141.676,287.207 141.796 C 287.013 141.915,286.742 141.830,286.604 141.607 C 286.319 141.145,280.865 141.155,273.000 141.630 M291.349 168.604 C 302.587 171.531,304.049 187.905,293.500 192.700 C 292.895 192.975,291.940 193.416,291.377 193.680 C 288.559 195.002,281.419 193.876,279.322 191.780 C 279.013 191.471,278.526 191.079,278.240 190.909 C 275.397 189.222,273.115 181.703,274.404 178.272 C 277.542 169.924,283.458 166.548,291.349 168.604 M126.742 189.604 C 111.708 200.807,99.484 216.438,94.216 231.198 C 93.628 232.847,92.923 234.467,92.651 234.798 C 91.806 235.823,91.200 237.577,91.200 238.995 C 91.200 239.742,91.020 240.464,90.800 240.600 C 90.580 240.736,90.400 241.726,90.400 242.800 C 90.400 243.874,90.220 244.864,90.000 245.000 C 89.753 245.153,89.600 248.604,89.600 254.024 C 89.600 259.608,89.745 262.800,90.000 262.800 C 90.222 262.800,90.400 263.867,90.400 265.200 C 90.400 266.533,90.578 267.600,90.800 267.600 C 91.020 267.600,91.200 268.489,91.200 269.576 C 91.200 270.663,91.380 271.664,91.600 271.800 C 91.820 271.936,92.000 272.397,92.000 272.824 C 92.000 273.251,92.144 273.600,92.320 273.600 C 92.495 273.600,92.869 274.275,93.149 275.100 C 95.246 281.268,98.516 288.458,101.059 292.492 C 101.577 293.313,102.000 294.222,102.000 294.512 C 102.000 295.254,102.939 297.193,103.300 297.197 C 103.465 297.199,103.600 297.443,103.600 297.741 C 103.600 298.038,104.140 298.846,104.800 299.537 C 105.460 300.228,106.000 301.075,106.000 301.420 C 106.000 301.765,106.180 301.936,106.400 301.800 C 106.620 301.664,106.800 301.767,106.800 302.029 C 106.800 302.292,107.117 302.797,107.504 303.153 C 107.892 303.509,108.723 304.491,109.352 305.336 C 110.821 307.309,120.302 316.800,120.805 316.800 C 121.014 316.800,122.031 317.610,123.065 318.600 C 124.098 319.590,125.083 320.400,125.253 320.400 C 125.424 320.400,126.014 320.850,126.564 321.400 C 127.114 321.950,127.676 322.400,127.814 322.400 C 127.952 322.400,129.014 323.030,130.174 323.800 C 131.334 324.570,132.489 325.200,132.741 325.200 C 132.994 325.200,133.200 325.380,133.200 325.600 C 133.200 325.820,133.478 326.000,133.817 326.000 C 134.156 326.000,134.820 326.360,135.292 326.800 C 135.764 327.240,136.387 327.600,136.675 327.600 C 136.964 327.600,137.200 327.780,137.200 328.000 C 137.200 328.220,137.560 328.400,138.000 328.400 C 138.440 328.400,138.800 328.580,138.800 328.800 C 138.800 329.020,139.160 329.200,139.600 329.200 C 140.040 329.200,140.400 329.380,140.400 329.600 C 140.400 329.820,140.760 330.000,141.200 330.000 C 141.640 330.000,142.000 330.180,142.000 330.400 C 142.000 330.620,142.360 330.800,142.800 330.800 C 143.240 330.800,143.600 330.980,143.600 331.200 C 143.600 331.420,144.050 331.600,144.600 331.600 C 145.150 331.600,145.600 331.780,145.600 332.000 C 145.600 332.220,145.960 332.400,146.400 332.400 C 146.840 332.400,147.200 332.580,147.200 332.800 C 147.200 333.020,147.740 333.200,148.400 333.200 C 149.060 333.200,149.600 333.380,149.600 333.600 C 149.600 333.820,150.140 334.000,150.800 334.000 C 151.460 334.000,152.000 334.180,152.000 334.400 C 152.000 334.620,152.540 334.800,153.200 334.800 C 153.860 334.800,154.400 334.980,154.400 335.200 C 154.400 335.420,154.940 335.600,155.600 335.600 C 156.260 335.600,156.800 335.780,156.800 336.000 C 156.800 336.220,157.520 336.400,158.400 336.400 C 159.280 336.400,160.000 336.580,160.000 336.800 C 160.000 337.020,160.619 337.200,161.376 337.200 C 162.133 337.200,162.852 337.361,162.974 337.558 C 163.189 337.906,164.706 338.206,168.400 338.634 C 169.390 338.748,170.560 339.005,171.000 339.204 C 174.123 340.619,205.125 341.327,206.524 340.015 C 206.872 339.690,206.515 338.996,203.123 333.400 C 200.729 329.452,197.102 323.341,195.940 321.300 C 195.533 320.585,194.840 319.370,194.400 318.600 C 193.960 317.830,193.240 316.570,192.800 315.800 C 192.360 315.030,191.612 313.725,191.138 312.900 C 190.664 312.075,189.787 310.500,189.190 309.400 C 188.592 308.300,187.301 305.960,186.322 304.200 C 185.342 302.440,183.578 299.200,182.402 297.000 C 181.227 294.800,179.735 292.010,179.089 290.800 C 172.562 278.589,159.203 251.661,154.681 241.600 C 154.137 240.390,153.156 238.230,152.501 236.800 C 151.845 235.370,150.723 232.850,150.007 231.200 C 149.292 229.550,148.348 227.390,147.911 226.400 C 147.473 225.410,146.865 224.015,146.558 223.300 C 146.251 222.585,145.709 221.325,145.353 220.500 C 144.996 219.675,144.478 218.460,144.200 217.800 C 143.922 217.140,143.382 215.880,143.000 215.000 C 142.618 214.120,142.056 212.815,141.753 212.100 C 141.449 211.385,140.930 210.170,140.600 209.400 C 139.137 205.985,138.698 204.949,138.400 204.200 C 138.225 203.760,137.807 202.770,137.471 202.000 C 137.135 201.230,135.666 197.540,134.207 193.800 C 132.747 190.060,131.428 186.873,131.274 186.718 C 131.121 186.562,129.081 187.861,126.742 189.604 " stroke="none" fill="#fbcb84" fill-rule="evenodd"></path><path id="path2" d="M197.014 155.977 C 196.870 156.210,196.401 156.400,195.971 156.400 C 195.541 156.400,194.877 156.562,194.495 156.761 C 194.113 156.960,192.990 157.351,192.000 157.631 C 191.010 157.910,190.029 158.288,189.820 158.470 C 189.611 158.651,189.062 158.800,188.600 158.800 C 188.138 158.800,187.589 158.943,187.380 159.118 C 187.171 159.293,186.280 159.665,185.400 159.945 C 184.520 160.224,183.395 160.621,182.900 160.826 C 181.127 161.562,180.138 161.948,175.800 163.598 C 173.380 164.519,170.466 165.705,169.325 166.236 C 168.184 166.766,167.167 167.200,167.065 167.200 C 166.550 167.200,150.994 174.719,148.200 176.319 C 147.540 176.696,145.740 177.712,144.200 178.576 C 141.063 180.335,132.792 185.475,132.246 186.004 C 131.951 186.290,134.409 193.155,136.612 198.200 C 136.900 198.860,137.705 200.840,138.400 202.600 C 139.095 204.360,139.920 206.385,140.232 207.100 C 140.545 207.815,141.070 209.030,141.400 209.800 C 141.730 210.570,142.270 211.830,142.600 212.600 C 142.930 213.370,143.452 214.585,143.760 215.300 C 144.068 216.015,145.672 219.750,147.323 223.600 C 148.974 227.450,150.863 231.770,151.520 233.200 C 152.177 234.630,153.113 236.700,153.600 237.800 C 154.711 240.311,156.623 244.436,159.532 250.600 C 162.346 256.564,175.756 283.395,178.224 288.000 C 179.226 289.870,181.057 293.290,182.292 295.600 C 183.528 297.910,184.895 300.430,185.331 301.200 C 185.767 301.970,186.608 303.500,187.200 304.600 C 187.791 305.700,188.756 307.410,189.343 308.400 C 189.929 309.390,190.720 310.875,191.099 311.700 C 191.478 312.525,191.926 313.200,192.094 313.200 C 192.262 313.200,192.400 313.369,192.400 313.576 C 192.400 313.973,197.768 323.388,202.545 331.369 C 204.115 333.992,205.775 336.782,206.233 337.569 C 206.837 338.606,207.387 339.036,208.233 339.131 C 208.875 339.203,209.558 339.415,209.751 339.602 C 209.944 339.789,210.510 339.786,211.010 339.596 C 211.509 339.406,212.041 339.375,212.192 339.526 C 212.343 339.676,212.407 339.530,212.333 339.200 C 212.223 338.703,212.696 338.617,215.101 338.702 C 217.256 338.777,217.975 338.675,217.901 338.302 C 217.828 337.938,218.419 337.827,220.057 337.900 C 221.834 337.978,222.368 337.861,222.564 337.350 C 222.762 336.834,223.147 336.753,224.427 336.958 C 225.595 337.145,226.205 337.052,226.636 336.621 C 227.030 336.227,227.634 336.107,228.426 336.265 C 229.242 336.428,229.852 336.296,230.346 335.849 C 230.855 335.388,231.445 335.269,232.335 335.447 C 233.155 335.611,233.600 335.542,233.600 335.250 C 233.600 334.992,234.281 334.800,235.200 334.800 C 236.105 334.800,236.800 334.607,236.800 334.356 C 236.800 334.085,237.343 333.976,238.200 334.076 C 239.165 334.189,239.600 334.078,239.600 333.720 C 239.600 333.392,240.118 333.200,241.000 333.200 C 241.770 333.200,242.400 333.020,242.400 332.800 C 242.400 332.580,243.030 332.400,243.800 332.400 C 244.570 332.400,245.200 332.220,245.200 332.000 C 245.200 331.780,245.740 331.600,246.400 331.600 C 247.060 331.600,247.600 331.420,247.600 331.200 C 247.600 330.980,248.140 330.800,248.800 330.800 C 249.460 330.800,250.000 330.620,250.000 330.400 C 250.000 330.180,250.641 330.000,251.424 330.000 C 252.383 330.000,252.756 329.852,252.567 329.546 C 252.373 329.232,252.673 329.149,253.543 329.277 C 254.413 329.405,254.800 329.298,254.800 328.931 C 254.800 328.608,255.270 328.400,256.000 328.400 C 256.660 328.400,257.200 328.220,257.200 328.000 C 257.200 327.780,257.650 327.600,258.200 327.600 C 258.750 327.600,259.200 327.420,259.200 327.200 C 259.200 326.980,259.650 326.800,260.200 326.800 C 260.750 326.800,261.200 326.620,261.200 326.400 C 261.200 326.180,261.740 326.000,262.400 326.000 C 263.060 326.000,263.600 325.820,263.600 325.600 C 263.600 325.380,263.960 325.200,264.400 325.200 C 264.840 325.200,265.200 325.020,265.200 324.800 C 265.200 324.580,265.661 324.400,266.224 324.400 C 266.895 324.400,267.149 324.559,266.962 324.862 C 266.789 325.141,266.852 325.215,267.121 325.049 C 267.365 324.898,267.464 324.510,267.340 324.187 C 267.177 323.763,267.405 323.600,268.157 323.600 C 268.731 323.600,269.200 323.399,269.200 323.153 C 269.200 322.895,269.613 322.786,270.180 322.894 C 270.754 323.004,271.127 322.903,271.080 322.650 C 271.036 322.413,271.405 322.157,271.900 322.082 C 272.395 322.006,272.800 321.777,272.800 321.572 C 272.800 321.367,273.160 321.200,273.600 321.200 C 274.040 321.200,274.400 320.999,274.400 320.753 C 274.400 320.493,274.816 320.386,275.400 320.498 C 275.950 320.603,276.400 320.534,276.400 320.345 C 276.400 320.155,276.741 320.000,277.157 320.000 C 277.574 320.000,278.025 319.711,278.161 319.358 C 278.301 318.992,278.663 318.815,279.003 318.946 C 279.332 319.072,279.600 318.980,279.600 318.741 C 279.600 318.502,279.960 318.401,280.400 318.516 C 280.941 318.657,281.200 318.528,281.200 318.116 C 281.200 317.707,281.459 317.574,281.988 317.713 C 282.934 317.960,282.335 316.170,280.582 313.509 C 280.042 312.688,279.600 311.942,279.600 311.849 C 279.600 311.757,278.863 310.469,277.963 308.988 C 276.417 306.442,276.012 305.748,273.953 302.100 C 273.487 301.275,272.767 300.122,272.353 299.538 C 271.939 298.954,271.600 298.397,271.600 298.301 C 271.600 298.204,270.104 295.532,268.275 292.362 C 266.446 289.193,264.402 285.610,263.734 284.400 C 262.586 282.322,261.988 281.267,259.938 277.700 C 259.464 276.875,258.592 275.300,258.000 274.200 C 257.408 273.100,256.565 271.570,256.127 270.800 C 255.689 270.030,254.464 267.780,253.406 265.800 C 252.347 263.820,251.353 262.020,251.197 261.800 C 250.859 261.325,248.501 256.953,245.588 251.400 C 244.434 249.200,242.770 246.050,241.890 244.400 C 235.999 233.359,221.659 204.882,216.510 194.000 C 215.313 191.470,213.628 187.915,212.767 186.100 C 208.999 178.163,206.464 172.734,204.782 169.000 C 204.287 167.900,202.746 164.480,201.358 161.400 C 198.898 155.942,197.847 154.629,197.014 155.977 M283.200 169.281 C 282.650 169.516,281.626 169.957,280.925 170.261 C 275.492 172.616,273.008 181.700,276.233 187.427 C 283.887 201.025,305.081 190.290,299.198 175.795 C 297.011 170.407,288.590 166.978,283.200 169.281 " stroke="none" fill="#644c4c" fill-rule="evenodd"></path><path id="path3" d="M196.200 155.696 C 195.540 155.922,194.640 156.238,194.200 156.398 C 193.760 156.558,192.680 156.906,191.800 157.171 C 190.920 157.436,189.840 157.812,189.400 158.006 C 188.960 158.201,187.790 158.629,186.800 158.958 C 183.325 160.112,180.795 161.072,180.532 161.335 C 180.386 161.481,180.025 161.600,179.729 161.600 C 179.433 161.600,178.428 161.938,177.496 162.350 C 173.949 163.919,171.499 164.785,171.174 164.584 C 170.989 164.470,170.509 164.657,170.107 165.001 C 169.705 165.346,167.041 166.672,164.188 167.949 C 156.989 171.172,144.905 177.251,143.400 178.407 C 143.180 178.576,142.370 179.070,141.600 179.504 C 140.390 180.186,135.695 183.057,132.908 184.819 C 132.417 185.129,131.926 185.616,131.817 185.900 C 131.708 186.185,132.649 185.724,133.909 184.876 C 136.254 183.299,143.263 179.069,147.200 176.856 C 150.989 174.726,166.473 167.200,167.065 167.200 C 167.167 167.200,168.184 166.766,169.325 166.236 C 170.466 165.705,173.380 164.519,175.800 163.598 C 180.138 161.948,181.127 161.562,182.900 160.826 C 183.395 160.621,184.520 160.224,185.400 159.945 C 186.280 159.665,187.171 159.293,187.380 159.118 C 187.589 158.943,188.138 158.800,188.600 158.800 C 189.062 158.800,189.611 158.651,189.820 158.470 C 190.029 158.288,191.010 157.910,192.000 157.631 C 192.990 157.351,194.113 156.960,194.495 156.761 C 194.877 156.562,195.541 156.400,195.971 156.400 C 196.401 156.400,196.875 156.203,197.023 155.962 C 197.172 155.722,197.717 155.606,198.235 155.705 C 198.752 155.803,199.081 155.730,198.964 155.542 C 198.699 155.113,197.748 155.166,196.200 155.696 M287.105 168.683 C 287.602 168.779,288.322 168.775,288.705 168.675 C 289.087 168.575,288.680 168.496,287.800 168.501 C 286.920 168.505,286.607 168.587,287.105 168.683 M278.280 171.965 C 277.502 172.825,276.666 173.950,276.421 174.465 C 276.003 175.344,276.019 175.341,276.688 174.404 C 277.080 173.856,278.006 172.731,278.747 171.904 C 279.487 171.077,280.003 170.400,279.893 170.400 C 279.783 170.400,279.057 171.104,278.280 171.965 M296.000 171.325 C 296.000 171.394,296.585 171.979,297.300 172.625 L 298.600 173.800 297.425 172.500 C 296.330 171.288,296.000 171.016,296.000 171.325 M300.124 180.600 C 300.126 181.920,300.201 182.412,300.290 181.693 C 300.379 180.974,300.377 179.894,300.286 179.293 C 300.195 178.692,300.122 179.280,300.124 180.600 M274.456 183.200 C 274.456 183.530,274.611 184.160,274.800 184.600 C 275.017 185.104,275.144 185.178,275.144 184.800 C 275.144 184.470,274.989 183.840,274.800 183.400 C 274.583 182.896,274.456 182.822,274.456 183.200 M276.364 188.333 C 276.580 188.736,277.071 189.321,277.455 189.633 C 277.887 189.984,277.790 189.704,277.201 188.900 C 276.151 187.465,275.757 187.198,276.364 188.333 M296.175 190.100 L 295.000 191.400 296.300 190.225 C 297.015 189.579,297.600 188.994,297.600 188.925 C 297.600 188.616,297.270 188.888,296.175 190.100 M286.105 193.887 C 286.714 193.979,287.614 193.977,288.105 193.882 C 288.597 193.787,288.100 193.711,287.000 193.714 C 285.900 193.717,285.497 193.795,286.105 193.887 M145.228 219.400 C 145.228 219.620,145.486 220.250,145.800 220.800 C 146.114 221.350,146.372 221.620,146.372 221.400 C 146.372 221.180,146.114 220.550,145.800 220.000 C 145.486 219.450,145.228 219.180,145.228 219.400 M237.600 236.400 C 238.049 237.280,238.506 238.000,238.616 238.000 C 238.726 238.000,238.449 237.280,238.000 236.400 C 237.551 235.520,237.094 234.800,236.984 234.800 C 236.874 234.800,237.151 235.520,237.600 236.400 M160.828 253.800 C 160.828 254.020,161.086 254.650,161.400 255.200 C 161.714 255.750,161.972 256.020,161.972 255.800 C 161.972 255.580,161.714 254.950,161.400 254.400 C 161.086 253.850,160.828 253.580,160.828 253.800 M92.007 273.926 C 91.681 274.037,91.172 274.371,90.875 274.668 C 90.578 274.965,90.142 275.088,89.906 274.942 C 89.651 274.785,89.593 274.864,89.762 275.138 C 89.919 275.392,89.844 275.600,89.595 275.600 C 89.346 275.600,88.908 275.825,88.620 276.100 C 88.333 276.375,87.694 276.870,87.200 277.200 C 86.706 277.530,86.075 278.016,85.799 278.281 C 85.522 278.545,85.184 278.650,85.048 278.514 C 84.911 278.378,84.800 278.477,84.800 278.733 C 84.800 279.377,83.247 280.876,82.840 280.625 C 82.659 280.513,81.941 281.046,81.245 281.810 C 80.550 282.575,79.794 283.200,79.567 283.200 C 79.339 283.200,79.263 283.378,79.397 283.595 C 79.537 283.822,79.377 283.889,79.021 283.753 C 78.678 283.621,78.400 283.724,78.400 283.981 C 78.400 284.237,78.233 284.344,78.029 284.218 C 77.825 284.092,77.543 284.351,77.402 284.794 C 77.261 285.237,76.888 285.600,76.573 285.600 C 76.258 285.600,76.045 285.825,76.100 286.100 C 76.155 286.375,75.995 286.562,75.744 286.515 C 75.493 286.468,74.730 286.963,74.048 287.615 C 73.365 288.267,72.635 288.800,72.424 288.800 C 72.212 288.800,71.856 289.115,71.632 289.500 C 71.408 289.885,71.219 290.067,71.212 289.904 C 71.205 289.741,70.686 290.146,70.057 290.804 C 69.428 291.462,68.798 292.000,68.657 292.000 C 68.516 292.000,68.033 292.367,67.585 292.815 C 67.137 293.263,66.570 293.505,66.324 293.353 C 66.052 293.185,65.988 293.257,66.162 293.538 C 66.331 293.812,66.193 294.000,65.824 294.000 C 65.481 294.000,65.200 294.264,65.200 294.586 C 65.200 294.908,64.840 295.365,64.400 295.600 C 63.960 295.835,63.600 295.932,63.600 295.814 C 63.600 295.573,62.689 296.339,60.520 298.400 C 59.710 299.170,59.185 299.530,59.354 299.200 C 59.523 298.870,59.303 299.005,58.866 299.500 C 58.429 299.995,57.890 300.400,57.667 300.400 C 57.054 300.400,53.733 303.851,53.733 304.488 C 53.733 304.838,54.242 305.080,55.099 305.137 C 55.960 305.195,56.371 305.076,56.209 304.815 C 55.936 304.372,56.360 304.274,58.068 304.384 C 58.655 304.422,59.645 304.196,60.268 303.882 C 60.891 303.567,61.628 303.391,61.906 303.490 C 62.185 303.590,63.175 303.428,64.106 303.130 C 65.038 302.833,66.385 302.598,67.100 302.608 C 67.815 302.619,68.400 302.486,68.400 302.314 C 68.400 302.141,68.928 302.000,69.574 302.000 C 70.220 302.000,71.178 301.837,71.703 301.637 C 72.229 301.437,73.366 301.218,74.229 301.151 C 75.093 301.084,75.908 300.876,76.039 300.690 C 76.171 300.503,76.891 300.337,77.639 300.322 C 78.388 300.306,79.305 300.137,79.677 299.945 C 80.050 299.753,81.130 299.572,82.077 299.542 C 83.025 299.512,83.989 299.341,84.219 299.162 C 84.450 298.983,85.350 298.797,86.219 298.750 C 87.089 298.702,87.980 298.534,88.200 298.375 C 88.420 298.216,89.320 297.987,90.200 297.866 C 91.080 297.745,92.475 297.475,93.300 297.265 C 94.125 297.056,94.803 297.000,94.806 297.142 C 94.809 297.284,94.952 297.180,95.123 296.910 C 95.295 296.641,96.365 296.388,97.502 296.347 C 98.639 296.307,99.476 296.123,99.361 295.937 C 99.247 295.752,99.328 295.600,99.543 295.600 C 99.758 295.600,100.024 295.825,100.135 296.100 C 100.296 296.500,100.343 296.500,100.368 296.100 C 100.386 295.825,100.760 295.600,101.200 295.600 C 102.385 295.600,102.194 294.672,100.363 291.537 C 98.500 288.347,95.560 282.178,94.769 279.800 C 94.476 278.920,94.093 278.029,93.918 277.820 C 93.743 277.611,93.600 277.062,93.600 276.600 C 93.600 276.138,93.437 275.589,93.239 275.380 C 93.040 275.171,92.815 274.713,92.739 274.361 C 92.660 273.999,92.344 273.810,92.007 273.926 M271.615 298.200 C 271.617 298.420,271.986 299.050,272.436 299.600 C 272.979 300.264,273.115 300.331,272.840 299.800 C 272.166 298.495,271.612 297.772,271.615 298.200 M282.269 316.742 C 282.430 317.358,282.311 317.600,281.847 317.600 C 281.491 317.600,281.200 317.780,281.200 318.000 C 281.200 318.220,281.458 318.400,281.773 318.400 C 282.504 318.400,283.012 316.852,282.462 316.302 C 282.172 316.012,282.113 316.147,282.269 316.742 M279.600 318.800 C 279.600 319.020,279.870 319.200,280.200 319.200 C 280.530 319.200,280.800 319.020,280.800 318.800 C 280.800 318.580,280.530 318.400,280.200 318.400 C 279.870 318.400,279.600 318.580,279.600 318.800 M278.267 319.067 C 277.884 319.449,277.938 320.000,278.357 320.000 C 278.554 320.000,278.818 319.730,278.945 319.400 C 279.179 318.790,278.753 318.581,278.267 319.067 M276.400 320.400 C 276.400 320.620,276.670 320.800,277.000 320.800 C 277.330 320.800,277.600 320.620,277.600 320.400 C 277.600 320.180,277.330 320.000,277.000 320.000 C 276.670 320.000,276.400 320.180,276.400 320.400 M274.400 320.800 C 274.400 321.020,274.040 321.200,273.600 321.200 C 273.160 321.200,272.800 321.380,272.800 321.600 C 272.800 321.820,272.451 322.000,272.024 322.000 C 271.597 322.000,271.136 322.180,271.000 322.400 C 270.864 322.620,270.403 322.800,269.976 322.800 C 269.549 322.800,269.200 322.980,269.200 323.200 C 269.200 323.420,268.750 323.600,268.200 323.600 C 267.650 323.600,267.200 323.780,267.200 324.000 C 267.200 324.220,266.750 324.400,266.200 324.400 C 265.650 324.400,265.200 324.580,265.200 324.800 C 265.200 325.253,266.521 325.346,266.944 324.923 C 267.096 324.771,267.607 324.587,268.079 324.515 C 268.551 324.443,269.176 324.186,269.469 323.943 C 269.761 323.701,270.005 323.659,270.012 323.851 C 270.019 324.043,270.210 323.881,270.437 323.492 C 270.664 323.102,271.011 322.883,271.210 323.006 C 271.408 323.128,272.455 322.780,273.536 322.232 C 274.618 321.684,275.584 321.318,275.685 321.418 C 275.785 321.518,275.867 321.330,275.867 321.000 C 275.867 320.670,275.537 320.400,275.133 320.400 C 274.730 320.400,274.400 320.580,274.400 320.800 M263.600 325.575 C 263.600 325.781,263.948 325.924,264.372 325.892 C 264.797 325.860,265.056 325.691,264.949 325.517 C 264.675 325.073,263.600 325.120,263.600 325.575 M261.200 326.400 C 261.200 326.620,261.560 326.800,262.000 326.800 C 262.440 326.800,262.800 326.620,262.800 326.400 C 262.800 326.180,262.440 326.000,262.000 326.000 C 261.560 326.000,261.200 326.180,261.200 326.400 M259.200 327.200 C 259.200 327.420,259.459 327.600,259.776 327.600 C 260.093 327.600,260.464 327.420,260.600 327.200 C 260.736 326.980,260.477 326.800,260.024 326.800 C 259.571 326.800,259.200 326.980,259.200 327.200 M257.200 328.025 C 257.200 328.480,258.275 328.527,258.549 328.083 C 258.656 327.909,258.397 327.740,257.972 327.708 C 257.548 327.676,257.200 327.819,257.200 328.025 M254.800 328.800 C 254.800 329.020,255.160 329.200,255.600 329.200 C 256.040 329.200,256.400 329.020,256.400 328.800 C 256.400 328.580,256.040 328.400,255.600 328.400 C 255.160 328.400,254.800 328.580,254.800 328.800 M252.600 329.600 C 252.736 329.820,253.197 330.000,253.624 330.000 C 254.051 330.000,254.400 329.820,254.400 329.600 C 254.400 329.380,253.939 329.200,253.376 329.200 C 252.796 329.200,252.460 329.373,252.600 329.600 M250.000 330.400 C 250.000 330.620,250.270 330.800,250.600 330.800 C 250.930 330.800,251.200 330.620,251.200 330.400 C 251.200 330.180,250.930 330.000,250.600 330.000 C 250.270 330.000,250.000 330.180,250.000 330.400 M247.600 331.200 C 247.600 331.420,247.949 331.600,248.376 331.600 C 248.803 331.600,249.264 331.420,249.400 331.200 C 249.540 330.973,249.204 330.800,248.624 330.800 C 248.061 330.800,247.600 330.980,247.600 331.200 M245.200 332.000 C 245.200 332.220,245.470 332.400,245.800 332.400 C 246.130 332.400,246.400 332.220,246.400 332.000 C 246.400 331.780,246.130 331.600,245.800 331.600 C 245.470 331.600,245.200 331.780,245.200 332.000 M242.400 332.800 C 242.400 333.020,242.760 333.200,243.200 333.200 C 243.640 333.200,244.000 333.020,244.000 332.800 C 244.000 332.580,243.640 332.400,243.200 332.400 C 242.760 332.400,242.400 332.580,242.400 332.800 M239.600 333.600 C 239.600 333.820,240.050 334.000,240.600 334.000 C 241.150 334.000,241.600 333.820,241.600 333.600 C 241.600 333.380,241.150 333.200,240.600 333.200 C 240.050 333.200,239.600 333.380,239.600 333.600 M236.800 334.400 C 236.800 334.620,237.351 334.800,238.024 334.800 C 238.737 334.800,239.144 334.633,239.000 334.400 C 238.864 334.180,238.313 334.000,237.776 334.000 C 237.239 334.000,236.800 334.180,236.800 334.400 M233.600 335.200 C 233.600 335.678,234.688 335.678,235.800 335.200 C 236.442 334.924,236.303 334.851,235.100 334.828 C 234.275 334.813,233.600 334.980,233.600 335.200 M230.400 335.800 C 229.980 336.306,230.057 336.400,230.884 336.400 C 231.491 336.400,231.867 336.170,231.867 335.800 C 231.867 335.470,231.649 335.200,231.382 335.200 C 231.116 335.200,230.674 335.470,230.400 335.800 M226.900 336.265 C 225.880 336.676,226.447 337.200,227.900 337.187 C 229.306 337.175,229.351 337.138,228.624 336.587 C 227.802 335.966,227.692 335.945,226.900 336.265 M222.667 337.067 C 222.067 337.666,222.474 338.008,223.700 337.937 C 225.364 337.839,225.826 337.589,225.143 337.156 C 224.494 336.745,223.041 336.693,222.667 337.067 M217.798 338.003 C 217.413 338.626,218.648 338.919,220.303 338.596 C 221.570 338.349,221.677 338.254,221.000 337.980 C 219.857 337.517,218.091 337.530,217.798 338.003 M206.887 339.272 C 207.209 339.954,207.671 340.287,208.249 340.252 C 208.730 340.224,209.021 340.034,208.896 339.832 C 208.770 339.628,208.975 339.582,209.355 339.727 C 209.763 339.884,209.942 339.830,209.797 339.595 C 209.663 339.378,209.059 339.200,208.456 339.200 C 207.853 339.200,207.144 338.984,206.880 338.720 C 206.513 338.353,206.515 338.484,206.887 339.272 M212.061 338.926 C 211.713 339.345,211.987 339.471,213.413 339.544 C 214.507 339.601,215.200 339.465,215.200 339.195 C 215.200 338.952,215.408 338.881,215.662 339.038 C 215.948 339.215,216.015 339.148,215.838 338.862 C 215.447 338.229,212.600 338.277,212.061 338.926 " stroke="none" fill="#a0907c" fill-rule="evenodd"></path><path id="path4" d="M200.018 157.651 C 199.980 158.180,201.257 160.876,201.452 160.681 C 201.565 160.568,201.293 159.784,200.847 158.938 C 200.400 158.092,200.027 157.513,200.018 157.651 M284.600 168.374 C 282.178 168.790,279.538 170.140,278.201 171.648 L 277.002 173.000 278.401 171.725 C 280.838 169.503,283.266 168.713,287.800 168.666 C 290.149 168.642,291.305 168.515,290.600 168.360 C 289.062 168.020,286.633 168.026,284.600 168.374 M293.600 169.678 C 294.590 170.171,296.259 171.431,297.308 172.477 C 298.358 173.523,299.048 174.068,298.843 173.689 C 298.031 172.193,294.522 169.494,292.800 169.043 C 292.250 168.898,292.610 169.184,293.600 169.678 M205.617 170.300 C 205.639 170.701,207.162 173.470,207.183 173.149 C 207.211 172.735,206.005 170.000,205.795 170.000 C 205.688 170.000,205.608 170.135,205.617 170.300 M207.807 175.079 C 208.482 176.693,208.800 177.158,208.800 176.528 C 208.800 176.031,207.609 173.600,207.365 173.600 C 207.268 173.600,207.467 174.266,207.807 175.079 M300.200 180.600 C 300.200 182.716,300.317 184.032,300.460 183.524 C 300.603 183.016,300.720 181.700,300.720 180.600 C 300.720 179.500,300.603 178.184,300.460 177.676 C 300.317 177.168,300.200 178.484,300.200 180.600 M274.243 178.633 C 273.903 179.517,273.950 183.703,274.306 184.260 C 274.468 184.513,274.600 183.208,274.600 181.360 C 274.600 177.710,274.599 177.704,274.243 178.633 M209.894 179.500 C 210.041 179.885,210.731 181.370,211.426 182.800 C 212.122 184.230,213.080 186.255,213.555 187.300 C 214.520 189.420,215.126 189.939,214.256 187.900 C 212.385 183.517,208.748 176.514,209.894 179.500 M299.007 186.493 C 298.132 188.477,295.173 191.537,293.200 192.499 C 292.430 192.875,292.038 193.186,292.328 193.191 C 293.909 193.218,298.435 188.971,299.473 186.486 C 300.305 184.497,299.885 184.503,299.007 186.493 M274.840 185.800 C 274.828 186.240,275.185 187.050,275.633 187.600 L 276.448 188.600 275.879 187.400 C 275.566 186.740,275.209 185.930,275.086 185.600 C 274.927 185.171,274.857 185.228,274.840 185.800 M131.402 185.997 C 131.267 186.215,131.342 186.710,131.568 187.097 C 131.916 187.690,131.968 187.628,131.903 186.700 C 131.818 185.489,131.763 185.412,131.402 185.997 M277.081 189.762 C 277.477 190.291,278.160 190.942,278.600 191.210 C 279.040 191.478,278.780 191.045,278.022 190.248 C 276.431 188.577,276.048 188.379,277.081 189.762 M215.619 191.252 C 215.582 191.736,217.684 196.049,217.868 195.866 C 217.970 195.764,217.510 194.627,216.846 193.340 C 216.182 192.053,215.630 191.113,215.619 191.252 M280.400 192.600 C 280.950 192.914,281.580 193.172,281.800 193.172 C 282.020 193.172,281.750 192.914,281.200 192.600 C 280.650 192.286,280.020 192.028,279.800 192.028 C 279.580 192.028,279.850 192.286,280.400 192.600 M282.604 193.606 C 282.738 193.823,283.407 194.000,284.090 194.000 C 285.601 194.000,285.449 193.800,283.680 193.463 C 282.855 193.306,282.452 193.360,282.604 193.606 M290.000 193.600 L 288.600 193.895 289.876 193.947 C 290.578 193.976,291.264 193.820,291.400 193.600 C 291.536 193.380,291.592 193.224,291.524 193.253 C 291.456 193.282,290.770 193.438,290.000 193.600 M134.400 194.131 C 134.400 194.605,137.309 201.790,137.659 202.180 C 137.847 202.389,138.000 202.873,138.000 203.256 C 138.000 203.639,138.178 204.063,138.395 204.197 C 138.823 204.461,138.644 203.753,137.789 201.800 C 137.501 201.140,136.694 199.160,135.997 197.400 C 134.787 194.342,134.400 193.551,134.400 194.131 M286.305 194.283 C 286.802 194.379,287.522 194.375,287.905 194.275 C 288.287 194.175,287.880 194.096,287.000 194.101 C 286.120 194.105,285.807 194.187,286.305 194.283 M220.420 201.433 C 220.446 201.902,224.352 209.492,224.380 209.127 C 224.402 208.825,220.928 201.594,220.604 201.271 C 220.492 201.159,220.409 201.232,220.420 201.433 M138.812 205.025 C 138.805 205.259,139.160 206.195,139.600 207.106 C 140.040 208.016,140.400 208.939,140.400 209.157 C 140.400 209.375,140.582 209.665,140.805 209.803 C 141.027 209.940,140.835 209.103,140.377 207.942 C 139.420 205.513,138.830 204.413,138.812 205.025 M142.000 212.484 C 142.000 212.916,143.215 215.600,143.411 215.600 C 143.521 215.600,143.333 214.934,142.993 214.121 C 142.393 212.686,142.000 212.038,142.000 212.484 M227.921 216.700 C 228.697 218.543,234.031 228.800,234.213 228.800 C 234.327 228.800,232.966 225.920,231.188 222.400 C 229.410 218.880,227.881 216.000,227.790 216.000 C 227.700 216.000,227.758 216.315,227.921 216.700 M149.217 229.500 C 149.239 229.901,150.762 232.670,150.783 232.349 C 150.811 231.935,149.605 229.200,149.395 229.200 C 149.288 229.200,149.208 229.335,149.217 229.500 M150.800 232.953 C 150.800 233.063,151.536 234.738,152.435 236.676 C 153.335 238.614,154.434 241.010,154.877 242.000 C 156.689 246.046,158.052 248.800,158.244 248.800 C 158.356 248.800,158.377 248.665,158.291 248.500 C 158.205 248.335,157.848 247.570,157.498 246.800 C 157.148 246.030,156.196 243.960,155.383 242.200 C 152.063 235.016,151.600 233.964,151.600 233.614 C 151.600 233.412,151.420 233.136,151.200 233.000 C 150.980 232.864,150.800 232.843,150.800 232.953 M240.656 241.588 C 241.042 242.241,241.411 242.723,241.475 242.659 C 241.688 242.445,240.606 240.406,240.277 240.403 C 240.100 240.401,240.270 240.934,240.656 241.588 M244.594 249.000 C 245.856 251.420,247.071 253.580,247.294 253.800 C 247.517 254.020,246.667 252.220,245.406 249.800 C 244.144 247.380,242.929 245.220,242.706 245.000 C 242.483 244.780,243.333 246.580,244.594 249.000 M159.218 251.039 C 159.193 251.657,160.444 254.089,160.671 253.863 C 160.774 253.760,160.493 252.984,160.047 252.138 C 159.600 251.292,159.227 250.797,159.218 251.039 M248.400 256.150 C 248.400 256.441,250.471 260.000,250.641 260.000 C 250.736 260.000,250.357 259.100,249.800 258.000 C 248.931 256.286,248.400 255.583,248.400 256.150 M250.800 260.550 C 250.800 260.841,252.871 264.400,253.041 264.400 C 253.136 264.400,252.757 263.500,252.200 262.400 C 251.331 260.686,250.800 259.983,250.800 260.550 M164.038 261.000 C 164.038 261.220,164.561 262.390,165.200 263.600 C 165.839 264.810,166.362 265.620,166.362 265.400 C 166.362 265.180,165.839 264.010,165.200 262.800 C 164.561 261.590,164.038 260.780,164.038 261.000 M254.586 267.500 C 254.935 268.215,255.306 268.800,255.410 268.800 C 255.808 268.800,255.552 268.163,254.767 267.200 L 253.952 266.200 254.586 267.500 M256.986 271.900 C 257.335 272.615,257.706 273.200,257.810 273.200 C 258.208 273.200,257.952 272.563,257.167 271.600 L 256.352 270.600 256.986 271.900 M169.920 273.100 C 170.616 274.760,173.627 280.400,173.816 280.400 C 173.931 280.400,173.104 278.600,171.981 276.400 C 170.172 272.860,169.095 271.135,169.920 273.100 M259.040 275.602 C 259.639 276.703,260.193 277.540,260.271 277.463 C 260.443 277.290,258.408 273.600,258.141 273.600 C 258.036 273.600,258.440 274.501,259.040 275.602 M261.111 279.200 C 261.546 279.970,262.390 281.500,262.987 282.600 C 263.585 283.700,264.262 284.780,264.492 285.000 C 265.101 285.582,261.935 279.773,261.060 278.704 C 260.410 277.909,260.416 277.969,261.111 279.200 M175.600 284.175 C 175.600 284.486,178.094 288.986,178.496 289.400 C 178.709 289.620,178.232 288.495,177.437 286.900 C 176.182 284.385,175.600 283.522,175.600 284.175 M264.809 285.900 C 264.814 286.065,265.185 286.650,265.633 287.200 L 266.448 288.200 265.814 286.900 C 265.211 285.665,264.789 285.245,264.809 285.900 M266.409 288.700 C 266.414 288.865,266.785 289.450,267.233 290.000 L 268.048 291.000 267.414 289.700 C 266.811 288.465,266.389 288.045,266.409 288.700 M269.707 294.500 C 270.248 295.435,270.909 296.620,271.177 297.134 C 271.446 297.648,271.748 297.986,271.849 297.884 C 272.060 297.673,269.275 292.800,268.943 292.800 C 268.822 292.800,269.166 293.565,269.707 294.500 M181.000 294.400 C 181.341 295.060,181.711 295.600,181.821 295.600 C 181.931 295.600,181.741 295.060,181.400 294.400 C 181.059 293.740,180.689 293.200,180.579 293.200 C 180.469 293.200,180.659 293.740,181.000 294.400 M185.042 301.837 C 186.339 304.277,187.720 306.707,188.111 307.237 C 188.502 307.767,188.301 307.210,187.664 306.000 C 184.865 300.684,183.464 298.172,183.088 297.800 C 182.866 297.580,183.746 299.397,185.042 301.837 M273.386 300.700 C 273.735 301.415,274.106 302.000,274.210 302.000 C 274.608 302.000,274.352 301.363,273.567 300.400 L 272.752 299.400 273.386 300.700 M274.760 303.000 C 275.434 304.305,275.988 305.028,275.985 304.600 C 275.983 304.380,275.614 303.750,275.164 303.200 C 274.621 302.536,274.485 302.469,274.760 303.000 M276.545 306.074 C 276.897 306.665,277.524 307.745,277.938 308.474 C 280.023 312.145,281.659 314.800,281.836 314.800 C 282.029 314.800,280.500 312.002,279.214 310.000 C 278.860 309.450,278.345 308.550,278.068 308.000 C 277.791 307.450,277.191 306.550,276.735 306.000 L 275.905 305.000 276.545 306.074 M188.800 308.499 C 188.800 308.651,189.160 309.411,189.600 310.188 C 190.040 310.965,190.777 312.275,191.238 313.100 C 191.698 313.925,192.267 314.780,192.500 315.000 C 192.734 315.220,192.239 314.140,191.400 312.600 C 189.735 309.542,188.800 308.068,188.800 308.499 M282.013 315.254 C 282.006 315.394,282.269 316.024,282.598 316.654 C 282.926 317.284,283.196 317.519,283.198 317.176 C 283.200 316.590,282.040 314.708,282.013 315.254 M192.809 315.900 C 192.814 316.065,193.185 316.650,193.633 317.200 L 194.448 318.200 193.814 316.900 C 193.211 315.665,192.789 315.245,192.809 315.900 M194.409 318.700 C 194.414 318.865,194.785 319.450,195.233 320.000 L 196.048 321.000 195.414 319.700 C 194.811 318.465,194.389 318.045,194.409 318.700 M196.009 321.500 C 196.014 321.665,196.385 322.250,196.833 322.800 L 197.648 323.800 197.014 322.500 C 196.411 321.265,195.989 320.845,196.009 321.500 M198.150 325.000 C 198.474 325.660,199.031 326.560,199.389 327.000 C 199.997 327.748,200.001 327.722,199.450 326.600 C 199.126 325.940,198.569 325.040,198.211 324.600 C 197.603 323.852,197.599 323.878,198.150 325.000 M200.523 329.020 C 201.469 330.898,205.214 336.951,205.707 337.400 C 205.949 337.620,205.869 337.350,205.530 336.800 C 205.191 336.250,203.956 334.180,202.787 332.200 C 200.602 328.499,199.434 326.859,200.523 329.020 M206.000 338.300 C 206.000 338.549,206.192 338.872,206.427 339.017 C 206.662 339.162,206.758 339.533,206.640 339.840 C 206.522 340.148,206.599 340.400,206.813 340.400 C 207.026 340.400,207.194 340.175,207.187 339.900 C 207.171 339.267,206.000 337.688,206.000 338.300 " stroke="none" fill="#bc976e" fill-rule="evenodd"></path></g></svg>