<?xml version="1.0" encoding="UTF-8"?>
<svg version="1.1" xmlns="http://www.w3.org/2000/svg" width="512" height="512">
<path d="M0 0 C13.49611373 9.73600244 15.76058148 23.82886944 18.29589844 39.40039062 C22.30619488 66.02235851 24.78184013 97.97729415 8 121 C-5.19430883 138.6838657 -24.52206642 152.44139014 -46.84228516 155.76855469 C-69.80381219 158.23150192 -88.38207341 154.1715962 -106.625 139.75 C-125.75365694 123.31393993 -145.08925377 100.81092513 -149 75 C-149.59021374 65.99198376 -150.17167552 56.84418941 -145 49 C-140.32411464 43.67744964 -135.71245575 40.47730661 -128.5703125 39.75390625 C-118.67504577 39.29137962 -110.53283594 42.30823304 -102.75390625 48.33984375 C-100.59132725 50.38682833 -98.81436076 52.64332482 -97 55 C-97.09539062 54.02160156 -97.19078125 53.04320312 -97.2890625 52.03515625 C-98.20407656 41.21458302 -98.29369203 33.16994656 -91.76953125 24.07421875 C-85.81453139 17.09385468 -78.26125616 13.22590273 -69.1875 12.125 C-60.54158488 11.61768663 -53.69004249 13.72197167 -46.95703125 19.1796875 C-38.45708955 27.0858209 -38.45708955 27.0858209 -36 32 C-35.97421875 30.96101563 -35.9484375 29.92203125 -35.921875 28.8515625 C-35.27774962 10.78785784 -35.27774962 10.78785784 -29.1328125 3.91015625 C-20.81193987 -3.76702624 -10.16752314 -5.90308625 0 0 Z " fill="#FE9A83" transform="translate(294,111)"/>
<path d="M0 0 C2.9375 0.75 2.9375 0.75 4.9375 2.75 C6.16996235 6.7822495 6.94490972 10.93820683 7.8125 15.0625 C8.20731567 16.92261719 8.20731567 16.92261719 8.61010742 18.8203125 C12.95135361 39.91052896 16.08038511 61.45640901 16.10546875 83.015625 C16.10879715 84.05152771 16.11212555 85.08743042 16.11555481 86.15472412 C16.12058134 88.33621788 16.12296447 90.51771921 16.12280273 92.69921875 C16.12496715 95.95065859 16.14310845 99.2017459 16.16210938 102.453125 C16.19965588 116.97825807 15.39201688 131.29895637 13.9375 145.75 C14.43805908 145.09547852 14.93861816 144.44095703 15.4543457 143.76660156 C30.65660244 124.04810676 50.83418652 109.47879627 75.9375 105.75 C89.52703825 104.11815837 104.24238607 103.5376222 115.9375 111.75 C120.25658079 115.7631459 123.66979859 119.92696694 124.23828125 125.921875 C124.27640393 137.56200056 122.81094783 143.76141301 114.703125 152.30078125 C109.66185795 156.76529317 103.93996869 159.80574137 97.9375 162.75 C97.31456055 163.06066406 96.69162109 163.37132812 96.04980469 163.69140625 C85.41033146 168.91551329 74.49427514 172.2117278 62.9375 174.75 C62.24027832 174.90452637 61.54305664 175.05905273 60.82470703 175.21826172 C43.06093276 178.99896445 24.05949566 180.00579364 5.9375 179.75 C5.81375 180.36875 5.69 180.9875 5.5625 181.625 C4.9375 183.75 4.9375 183.75 2.9375 185.75 C-0.5625 185.625 -0.5625 185.625 -4.0625 184.75 C-5.28125 182.6953125 -5.28125 182.6953125 -6.0625 180.75 C-7.15788086 180.70512451 -8.25326172 180.66024902 -9.38183594 180.61401367 C-68.83944923 178.13577749 -68.83944923 178.13577749 -95.0625 171.75 C-95.81595703 171.56711426 -96.56941406 171.38422852 -97.34570312 171.19580078 C-112.32615078 167.44422621 -126.18175707 161.87310573 -135.4296875 148.8203125 C-139.94809443 140.87187404 -140.95446525 131.23907521 -138.9453125 122.4140625 C-135.78655317 112.88187727 -129.80325156 106.01721968 -121.15234375 101.09375 C-102.09204444 91.64465872 -82.93096459 92.25429249 -63.00341797 98.38330078 C-37.60368624 107.17931683 -20.41534168 128.59601747 -8.92333984 151.93505859 C-6.77694673 156.46038088 -4.87100693 161.08092201 -3.0625 165.75 C6.56044737 116.01042777 7.21839165 64.00769146 -5.57543945 14.67407227 C-6.73119131 10.08099734 -7.58197847 6.40205257 -6.0625 1.75 C-3.0625 -0.25 -3.0625 -0.25 0 0 Z " fill="#91B398" transform="translate(265.0625,269.25)"/>
</svg>
