<svg id="svg" version="1.1" xmlns="http://www.w3.org/2000/svg" xmlns:xlink="http://www.w3.org/1999/xlink" width="400" height="400" viewBox="0, 0, 400,400"><g id="svgg"><path id="path0" d="M204.000 23.561 C 204.000 23.760,203.145 24.017,202.100 24.132 C 201.055 24.248,199.120 24.547,197.800 24.798 C 196.480 25.049,195.130 25.305,194.800 25.367 C 193.204 25.669,190.918 26.124,190.200 26.281 C 189.760 26.378,188.590 26.558,187.600 26.681 C 186.610 26.804,185.611 27.053,185.381 27.234 C 185.150 27.416,184.295 27.609,183.481 27.664 C 182.666 27.719,182.000 27.907,182.000 28.082 C 182.000 28.257,181.094 28.400,179.987 28.400 C 178.571 28.400,177.907 28.577,177.746 28.998 C 177.619 29.326,177.393 29.519,177.242 29.426 C 177.091 29.332,176.974 29.783,176.983 30.428 C 176.991 31.073,177.134 31.600,177.299 31.600 C 177.465 31.600,177.600 32.014,177.600 32.520 C 177.600 33.026,177.768 33.611,177.974 33.820 C 178.179 34.029,178.417 34.963,178.502 35.895 C 178.587 36.827,178.779 37.712,178.928 37.862 C 179.078 38.011,179.200 38.733,179.200 39.467 C 179.200 40.200,179.363 40.800,179.563 40.800 C 179.763 40.800,180.033 41.790,180.163 43.000 C 180.293 44.210,180.507 46.190,180.637 47.400 C 180.767 48.610,181.037 49.600,181.237 49.600 C 181.437 49.600,181.600 50.770,181.600 52.200 C 181.600 53.667,181.774 54.800,182.000 54.800 C 182.231 54.800,182.400 56.067,182.400 57.800 C 182.400 59.533,182.569 60.800,182.800 60.800 C 183.044 60.800,183.200 62.659,183.200 65.576 C 183.200 68.329,183.369 70.458,183.600 70.600 C 183.839 70.748,184.000 73.337,184.000 77.024 C 184.000 80.875,183.849 83.200,183.600 83.200 C 183.369 83.200,183.200 84.476,183.200 86.229 C 183.200 89.659,182.775 90.400,180.805 90.400 C 180.116 90.400,179.651 90.559,179.771 90.752 C 179.890 90.946,178.956 91.205,177.694 91.327 C 176.432 91.449,174.500 91.751,173.400 91.998 C 172.300 92.244,170.910 92.490,170.311 92.545 C 169.713 92.599,169.098 92.769,168.945 92.922 C 168.792 93.075,168.077 93.200,167.357 93.200 C 166.637 93.200,165.936 93.380,165.800 93.600 C 165.664 93.820,164.753 94.000,163.776 94.000 C 162.799 94.000,162.000 94.180,162.000 94.400 C 162.000 94.620,161.291 94.800,160.424 94.800 C 159.557 94.800,158.748 94.960,158.627 95.156 C 158.506 95.351,157.821 95.612,157.104 95.734 C 156.387 95.856,154.900 96.148,153.800 96.384 C 152.700 96.620,151.031 96.924,150.091 97.059 C 149.151 97.195,148.285 97.462,148.167 97.653 C 148.049 97.844,147.333 98.000,146.576 98.000 C 145.819 98.000,145.200 98.180,145.200 98.400 C 145.200 98.620,144.581 98.800,143.824 98.800 C 143.067 98.800,142.336 98.980,142.200 99.200 C 142.064 99.420,141.344 99.600,140.600 99.600 C 139.856 99.600,139.136 99.780,139.000 100.000 C 138.864 100.220,138.054 100.400,137.200 100.400 C 136.346 100.400,135.536 100.580,135.400 100.800 C 135.264 101.020,134.368 101.200,133.410 101.200 C 132.451 101.200,131.607 101.372,131.533 101.582 C 131.460 101.793,130.725 102.010,129.900 102.064 C 129.075 102.119,128.400 102.307,128.400 102.482 C 128.400 102.657,127.770 102.800,127.000 102.800 C 126.230 102.800,125.600 102.980,125.600 103.200 C 125.600 103.420,124.880 103.600,124.000 103.600 C 123.120 103.600,122.400 103.780,122.400 104.000 C 122.400 104.220,121.489 104.400,120.376 104.400 C 119.129 104.400,118.448 104.553,118.600 104.800 C 118.749 105.042,118.204 105.200,117.224 105.200 C 116.331 105.200,115.600 105.380,115.600 105.600 C 115.600 105.820,114.880 106.000,114.000 106.000 C 113.120 106.000,112.400 106.162,112.400 106.360 C 112.400 106.558,111.635 106.822,110.700 106.947 C 106.549 107.503,105.600 107.706,105.600 108.042 C 105.600 108.239,104.610 108.400,103.400 108.400 C 102.190 108.400,101.200 108.568,101.200 108.773 C 101.200 108.978,100.705 109.089,100.100 109.020 C 99.495 108.951,98.820 109.034,98.600 109.204 C 98.217 109.501,96.838 109.748,92.700 110.265 C 91.655 110.395,90.800 110.642,90.800 110.812 C 90.800 110.983,89.945 111.217,88.900 111.333 C 86.178 111.634,84.231 112.063,84.000 112.414 C 83.890 112.581,83.350 112.781,82.800 112.859 C 82.250 112.936,81.591 113.180,81.336 113.400 C 81.080 113.620,80.135 114.410,79.236 115.156 C 78.336 115.902,77.600 116.817,77.600 117.190 C 77.600 117.562,77.465 118.002,77.300 118.166 C 76.771 118.695,76.885 122.557,77.454 123.427 C 77.756 123.887,77.902 124.364,77.779 124.487 C 77.656 124.610,78.020 125.212,78.588 125.825 C 79.156 126.438,80.021 127.446,80.510 128.066 C 81.000 128.686,81.625 129.194,81.900 129.196 C 82.175 129.198,82.400 129.380,82.400 129.600 C 82.400 129.820,82.760 130.000,83.200 130.000 C 83.640 130.000,84.000 130.180,84.000 130.400 C 84.000 130.620,84.360 130.800,84.800 130.800 C 85.240 130.800,85.600 130.980,85.600 131.200 C 85.600 131.420,86.320 131.600,87.200 131.600 C 88.080 131.600,88.800 131.780,88.800 132.000 C 88.800 132.220,89.689 132.400,90.776 132.400 C 91.863 132.400,92.864 132.580,93.000 132.800 C 93.136 133.020,94.281 133.200,95.544 133.200 C 96.807 133.200,98.031 133.391,98.265 133.625 C 99.259 134.619,128.240 132.330,133.800 130.818 C 134.460 130.639,136.080 130.272,137.400 130.004 C 138.720 129.736,140.160 129.376,140.600 129.204 C 141.040 129.032,142.210 128.666,143.200 128.392 C 146.496 127.477,147.796 127.040,148.180 126.718 C 148.389 126.543,148.886 126.400,149.285 126.400 C 149.684 126.400,150.323 126.241,150.705 126.047 C 151.405 125.691,152.834 125.092,154.500 124.457 C 154.995 124.268,156.182 123.728,157.138 123.257 C 158.094 122.786,159.114 122.400,159.404 122.400 C 159.695 122.400,159.993 122.265,160.067 122.100 C 160.321 121.527,167.961 117.828,168.265 118.131 C 168.432 118.299,167.290 120.993,165.725 124.118 C 162.480 130.601,160.386 135.130,159.213 138.200 C 159.045 138.640,158.727 139.450,158.507 140.000 C 158.287 140.550,157.927 141.450,157.707 142.000 C 156.928 143.948,156.302 145.409,155.953 146.095 C 155.759 146.477,155.600 147.064,155.600 147.400 C 155.600 147.736,155.421 148.323,155.202 148.705 C 150.970 156.094,148.194 172.427,150.417 176.864 C 155.111 186.235,163.231 184.513,172.409 172.200 C 173.393 170.880,174.304 169.710,174.433 169.600 C 176.400 167.924,184.428 153.345,186.768 147.200 C 187.480 145.330,188.228 143.487,188.431 143.105 C 188.634 142.723,188.800 142.059,188.800 141.629 C 188.800 141.199,188.959 140.749,189.154 140.629 C 189.349 140.508,189.604 139.913,189.721 139.305 C 189.838 138.697,190.141 137.480,190.394 136.600 C 191.424 133.013,192.152 129.648,192.775 125.600 C 193.723 119.436,193.786 119.360,195.843 121.904 C 199.369 126.267,209.342 136.289,213.454 139.601 C 218.385 143.575,220.546 145.271,222.400 146.625 C 225.803 149.110,232.756 153.600,233.201 153.600 C 233.420 153.600,233.601 153.735,233.603 153.900 C 233.605 154.065,234.010 154.398,234.503 154.640 C 236.314 155.529,239.006 157.006,239.200 157.217 C 240.105 158.199,251.666 163.429,254.720 164.238 C 267.262 167.562,272.879 158.021,264.935 146.888 C 261.527 142.112,252.369 133.473,246.600 129.592 C 245.500 128.852,244.540 128.101,244.467 127.923 C 244.393 127.745,244.158 127.600,243.945 127.600 C 243.731 127.600,242.531 126.909,241.278 126.064 C 239.185 124.652,229.335 119.600,228.676 119.600 C 228.519 119.600,227.628 119.259,226.696 118.843 C 225.763 118.427,224.640 117.952,224.200 117.788 C 222.524 117.163,225.257 116.970,228.564 117.480 C 230.344 117.755,232.970 118.157,234.400 118.373 C 235.830 118.589,238.170 118.962,239.600 119.201 C 241.030 119.440,243.325 119.807,244.700 120.018 C 246.075 120.228,248.415 120.595,249.900 120.834 C 254.934 121.644,256.994 121.973,259.800 122.414 C 262.826 122.889,265.762 123.363,269.700 124.012 C 271.075 124.238,273.280 124.593,274.600 124.800 C 275.920 125.007,278.080 125.349,279.400 125.560 C 280.720 125.770,282.700 126.054,283.800 126.190 C 286.421 126.513,288.845 127.212,289.631 127.871 C 289.979 128.162,290.823 128.400,291.508 128.400 C 292.193 128.400,292.864 128.580,293.000 128.800 C 293.142 129.031,295.271 129.200,298.024 129.200 C 300.941 129.200,302.800 129.044,302.800 128.800 C 302.800 128.580,303.340 128.400,304.000 128.400 C 304.660 128.400,305.200 128.264,305.200 128.098 C 305.200 127.931,305.783 127.537,306.496 127.222 C 308.284 126.430,311.200 123.469,311.200 122.444 C 311.200 121.980,311.380 121.600,311.600 121.600 C 311.826 121.600,312.000 120.467,312.000 119.000 C 312.000 117.533,311.826 116.400,311.600 116.400 C 311.380 116.400,311.200 116.061,311.200 115.646 C 311.200 114.580,310.201 112.332,309.873 112.660 C 309.723 112.810,309.600 112.635,309.600 112.270 C 309.600 111.905,309.240 111.382,308.800 111.107 C 308.360 110.832,308.000 110.414,308.000 110.178 C 308.000 109.942,307.340 109.400,306.533 108.974 C 305.725 108.548,304.735 108.022,304.333 107.805 C 303.930 107.588,303.600 107.273,303.600 107.105 C 303.600 106.937,303.071 106.800,302.424 106.800 C 301.777 106.800,301.136 106.620,301.000 106.400 C 300.864 106.180,300.403 106.000,299.976 106.000 C 299.549 106.000,299.200 105.820,299.200 105.600 C 299.200 105.380,298.761 105.200,298.224 105.200 C 297.687 105.200,297.136 105.020,297.000 104.800 C 296.864 104.580,296.313 104.400,295.776 104.400 C 295.239 104.400,294.800 104.220,294.800 104.000 C 294.800 103.780,294.260 103.600,293.600 103.600 C 292.940 103.600,292.400 103.420,292.400 103.200 C 292.400 102.980,291.860 102.800,291.200 102.800 C 290.540 102.800,290.000 102.620,290.000 102.400 C 290.000 102.180,289.460 102.000,288.800 102.000 C 288.140 102.000,287.600 101.820,287.600 101.600 C 287.600 101.380,287.150 101.200,286.600 101.200 C 286.050 101.200,285.600 101.020,285.600 100.800 C 285.600 100.580,285.060 100.400,284.400 100.400 C 283.740 100.400,283.200 100.220,283.200 100.000 C 283.200 99.780,282.660 99.600,282.000 99.600 C 281.340 99.600,280.800 99.459,280.800 99.287 C 280.800 99.115,280.305 98.937,279.700 98.891 C 279.095 98.846,278.240 98.650,277.800 98.458 C 275.112 97.280,272.406 96.400,271.472 96.400 C 271.102 96.400,270.800 96.220,270.800 96.000 C 270.800 95.780,270.449 95.600,270.020 95.600 C 269.590 95.600,268.195 95.314,266.920 94.965 C 264.609 94.333,261.941 93.651,260.800 93.402 C 260.470 93.330,259.680 93.070,259.045 92.824 C 258.409 92.579,257.814 92.452,257.723 92.543 C 257.632 92.635,256.262 92.373,254.679 91.961 C 253.095 91.550,251.125 91.211,250.300 91.207 C 249.475 91.203,248.800 91.020,248.800 90.800 C 248.800 90.578,247.733 90.400,246.400 90.400 C 245.080 90.400,244.000 90.235,244.000 90.033 C 244.000 89.644,240.883 89.310,234.000 88.962 C 231.690 88.845,229.629 88.581,229.420 88.375 C 228.985 87.945,212.680 87.854,212.255 88.278 C 211.857 88.676,211.085 88.753,206.700 88.830 C 204.555 88.868,202.800 89.056,202.800 89.249 C 202.800 89.442,202.620 89.600,202.400 89.600 C 202.174 89.600,202.000 88.459,202.000 86.976 C 202.000 85.329,202.149 84.445,202.400 84.600 C 202.652 84.756,202.800 83.812,202.800 82.047 C 202.800 80.507,202.980 79.136,203.200 79.000 C 203.420 78.864,203.600 77.413,203.600 75.776 C 203.600 74.139,203.753 72.800,203.939 72.800 C 204.126 72.800,204.316 71.526,204.361 69.968 C 204.407 68.410,204.614 66.689,204.822 66.142 C 205.030 65.595,205.200 63.540,205.200 61.574 C 205.200 59.608,205.345 58.000,205.522 58.000 C 205.699 58.000,205.893 55.350,205.953 52.112 C 206.013 48.873,206.181 46.038,206.327 45.812 C 206.716 45.209,206.718 30.400,206.329 30.400 C 206.148 30.400,206.000 28.889,206.000 27.043 C 206.000 24.350,205.875 23.638,205.367 23.443 C 204.474 23.100,204.000 23.141,204.000 23.561 " stroke="none" fill="#94b49b" fill-rule="evenodd"></path><path id="path1" d="M232.435 179.900 C 225.837 188.678,227.395 198.397,235.400 198.397 C 242.339 198.397,243.891 189.773,238.496 181.200 C 235.472 176.394,235.125 176.319,232.435 179.900 M128.077 189.359 C 117.033 208.077,117.999 227.476,129.843 224.825 C 136.017 223.444,137.998 219.309,136.370 211.200 C 135.175 205.247,134.325 202.043,132.227 195.580 C 129.585 187.440,129.386 187.141,128.077 189.359 M178.944 229.924 C 173.316 237.660,172.581 244.811,176.980 249.038 C 181.712 253.585,188.400 251.123,188.400 244.833 C 188.400 242.173,182.303 228.105,181.000 227.756 C 180.780 227.697,179.855 228.673,178.944 229.924 M231.240 261.700 C 225.401 273.877,226.688 282.806,234.280 282.799 C 241.386 282.792,242.391 273.587,236.463 262.800 C 233.615 257.617,233.237 257.537,231.240 261.700 M174.917 298.274 C 171.073 299.719,165.499 313.881,166.998 318.393 C 169.827 326.912,181.200 323.786,181.200 314.488 C 181.200 309.681,176.543 297.662,174.917 298.274 " stroke="none" fill="#fcf9f9" fill-rule="evenodd"></path><path id="path2" d="M227.761 118.338 C 227.919 118.592,228.230 118.800,228.453 118.800 C 228.676 118.800,231.051 119.877,233.729 121.193 C 254.814 131.554,271.474 149.122,269.200 158.599 C 266.890 168.231,255.962 167.788,238.000 157.334 C 237.010 156.758,235.660 155.977,235.000 155.599 C 221.357 147.783,206.373 135.382,196.380 123.639 L 194.200 121.078 193.918 123.039 C 192.952 129.740,191.468 136.081,189.431 142.200 C 186.898 149.813,179.276 165.043,176.690 167.660 C 176.396 167.957,175.700 168.873,175.144 169.696 C 171.196 175.531,165.086 181.768,162.089 183.020 C 155.664 185.705,148.400 179.371,148.400 171.085 C 148.400 166.793,151.697 155.033,155.602 145.400 C 155.781 144.960,156.408 143.340,156.997 141.800 C 157.586 140.260,158.344 138.370,158.681 137.600 C 159.019 136.830,159.525 135.660,159.805 135.000 C 161.486 131.048,162.312 129.283,164.646 124.654 C 166.073 121.823,167.169 119.436,167.082 119.349 C 166.995 119.262,164.511 120.385,161.562 121.846 C 158.613 123.307,155.795 124.659,155.300 124.851 C 153.850 125.413,152.465 125.972,151.500 126.385 C 142.325 130.307,128.693 132.994,115.128 133.554 L 107.256 133.879 104.628 136.586 C 103.183 138.075,102.000 139.466,102.000 139.678 C 102.000 139.890,101.319 140.724,100.486 141.531 C 99.653 142.339,98.348 143.896,97.586 144.991 C 96.824 146.085,95.885 147.334,95.500 147.766 C 95.115 148.198,94.800 148.709,94.800 148.903 C 94.800 149.097,94.270 150.026,93.623 150.967 C 92.976 151.907,92.331 153.137,92.190 153.699 C 92.049 154.261,91.588 155.091,91.167 155.544 C 90.745 155.996,90.400 156.745,90.400 157.207 C 90.400 157.669,90.257 157.959,90.083 157.851 C 89.909 157.744,89.737 158.045,89.701 158.522 C 89.665 158.998,89.448 159.451,89.218 159.527 C 88.988 159.604,88.800 160.012,88.800 160.433 C 88.800 160.855,88.620 161.200,88.400 161.200 C 88.180 161.200,88.000 161.549,88.000 161.976 C 88.000 162.403,87.820 162.864,87.600 163.000 C 87.380 163.136,87.200 163.687,87.200 164.224 C 87.200 164.761,87.020 165.200,86.800 165.200 C 86.580 165.200,86.400 165.549,86.400 165.976 C 86.400 166.403,86.220 166.864,86.000 167.000 C 85.780 167.136,85.600 167.687,85.600 168.224 C 85.600 168.761,85.420 169.200,85.200 169.200 C 84.980 169.200,84.800 169.729,84.800 170.376 C 84.800 171.023,84.620 171.664,84.400 171.800 C 84.180 171.936,84.000 172.667,84.000 173.424 C 84.000 174.181,83.820 174.800,83.600 174.800 C 83.380 174.800,83.200 175.419,83.200 176.176 C 83.200 176.933,83.020 177.664,82.800 177.800 C 82.580 177.936,82.400 178.757,82.400 179.624 C 82.400 180.491,82.220 181.200,82.000 181.200 C 81.780 181.200,81.600 182.190,81.600 183.400 C 81.600 184.610,81.420 185.600,81.200 185.600 C 80.963 185.600,80.800 187.059,80.800 189.176 C 80.800 191.204,80.621 192.863,80.387 193.008 C 79.880 193.321,79.893 210.400,80.400 210.400 C 80.589 210.400,80.838 211.975,80.954 213.900 C 81.280 219.307,81.636 222.164,82.035 222.580 C 82.236 222.789,82.400 223.824,82.400 224.880 C 82.400 225.936,82.580 226.800,82.800 226.800 C 83.020 226.800,83.200 227.610,83.200 228.600 C 83.200 229.590,83.380 230.400,83.600 230.400 C 83.820 230.400,84.000 231.210,84.000 232.200 C 84.000 233.190,84.180 234.000,84.400 234.000 C 84.620 234.000,84.800 234.540,84.800 235.200 C 84.800 235.860,84.980 236.400,85.200 236.400 C 85.420 236.400,85.600 237.019,85.600 237.776 C 85.600 238.533,85.780 239.264,86.000 239.400 C 86.220 239.536,86.400 240.087,86.400 240.624 C 86.400 241.161,86.580 241.600,86.800 241.600 C 87.020 241.600,87.200 242.140,87.200 242.800 C 87.200 243.460,87.380 244.000,87.600 244.000 C 87.820 244.000,88.000 244.540,88.000 245.200 C 88.000 245.860,88.180 246.400,88.400 246.400 C 88.620 246.400,88.800 246.940,88.800 247.600 C 88.800 248.260,88.947 248.800,89.128 248.800 C 89.308 248.800,89.700 249.700,90.000 250.800 C 90.300 251.900,90.692 252.800,90.872 252.800 C 91.053 252.800,91.200 253.325,91.200 253.967 C 91.200 254.608,91.339 255.193,91.508 255.267 C 91.863 255.420,94.000 260.774,94.000 261.510 C 94.000 261.779,94.180 262.000,94.400 262.000 C 94.620 262.000,94.800 262.360,94.800 262.800 C 94.800 263.240,94.941 263.600,95.113 263.600 C 95.285 263.600,95.665 264.410,95.957 265.400 C 96.249 266.390,96.648 267.200,96.844 267.200 C 97.040 267.200,97.200 267.549,97.200 267.976 C 97.200 268.403,97.380 268.864,97.600 269.000 C 97.820 269.136,98.000 269.597,98.000 270.024 C 98.000 270.451,98.180 270.800,98.400 270.800 C 98.620 270.800,98.800 271.070,98.800 271.400 C 98.800 271.730,98.980 272.000,99.200 272.000 C 99.420 272.000,99.600 272.345,99.600 272.767 C 99.600 273.188,99.735 273.593,99.900 273.667 C 100.300 273.845,102.000 277.149,102.000 277.749 C 102.000 278.010,102.360 278.483,102.800 278.800 C 103.240 279.117,103.600 279.697,103.600 280.088 C 103.600 280.480,103.780 280.800,104.000 280.800 C 104.220 280.800,104.400 281.160,104.400 281.600 C 104.400 282.040,104.580 282.400,104.800 282.400 C 105.020 282.400,105.200 282.760,105.200 283.200 C 105.200 283.640,105.380 284.000,105.600 284.000 C 105.820 284.000,106.000 284.371,106.000 284.824 C 106.000 285.277,106.180 285.536,106.400 285.400 C 106.620 285.264,106.800 285.433,106.800 285.776 C 106.800 286.119,106.980 286.400,107.200 286.400 C 107.420 286.400,107.600 286.760,107.600 287.200 C 107.600 287.640,107.780 288.000,108.000 288.000 C 108.220 288.000,108.400 288.360,108.400 288.800 C 108.400 289.240,108.535 289.601,108.700 289.603 C 109.102 289.606,110.400 291.919,110.400 292.632 C 110.400 292.945,110.580 293.200,110.800 293.200 C 111.020 293.200,111.200 293.470,111.200 293.800 C 111.200 294.130,111.380 294.400,111.600 294.400 C 111.820 294.400,112.000 294.670,112.000 295.000 C 112.000 295.330,112.135 295.603,112.300 295.606 C 112.465 295.610,113.040 296.510,113.579 297.606 C 114.117 298.703,114.702 299.600,114.879 299.600 C 115.055 299.600,115.200 299.894,115.200 300.253 C 115.200 300.612,115.516 301.197,115.903 301.553 C 116.289 301.909,116.874 302.740,117.203 303.400 C 117.531 304.060,118.115 304.949,118.500 305.375 C 118.885 305.802,119.200 306.347,119.200 306.587 C 119.200 306.827,119.560 307.283,120.000 307.600 C 120.440 307.917,120.800 308.457,120.800 308.800 C 120.800 309.143,121.160 309.683,121.600 310.000 C 122.040 310.317,122.400 310.897,122.400 311.288 C 122.400 311.680,122.580 312.000,122.800 312.000 C 123.020 312.000,123.200 312.236,123.200 312.525 C 123.200 312.813,123.560 313.436,124.000 313.908 C 124.440 314.380,124.800 314.962,124.800 315.200 C 124.800 315.438,125.167 316.027,125.615 316.509 C 126.064 316.990,126.534 317.793,126.659 318.292 C 126.784 318.791,127.047 319.200,127.243 319.200 C 127.440 319.200,127.600 319.470,127.600 319.800 C 127.600 320.130,127.780 320.400,128.000 320.400 C 128.220 320.400,128.400 320.670,128.400 321.000 C 128.400 321.330,128.580 321.600,128.800 321.600 C 129.020 321.600,129.200 321.842,129.200 322.138 C 129.200 322.434,129.560 323.002,130.000 323.400 C 130.440 323.798,130.800 324.326,130.800 324.574 C 130.800 324.821,131.160 325.283,131.600 325.600 C 132.040 325.917,132.400 326.457,132.400 326.800 C 132.400 327.143,132.760 327.683,133.200 328.000 C 133.640 328.317,134.000 328.857,134.000 329.200 C 134.000 329.543,134.360 330.083,134.800 330.400 C 135.240 330.717,135.600 331.162,135.601 331.388 C 135.601 331.615,136.141 332.430,136.800 333.200 C 137.459 333.970,137.999 334.743,137.999 334.918 C 138.000 335.093,138.450 335.686,139.000 336.236 C 139.550 336.786,140.000 337.365,140.000 337.522 C 140.000 337.680,140.405 338.256,140.900 338.804 C 141.395 339.352,142.338 340.520,142.996 341.400 C 144.534 343.458,152.095 350.963,152.787 351.119 C 153.077 351.185,153.811 351.770,154.418 352.419 C 155.025 353.069,155.743 353.600,156.014 353.600 C 156.284 353.600,156.797 353.915,157.153 354.300 C 157.750 354.946,158.546 355.417,162.400 357.411 C 164.833 358.670,165.170 358.800,165.995 358.800 C 166.438 358.800,166.800 358.980,166.800 359.200 C 166.800 359.420,167.340 359.600,168.000 359.600 C 168.660 359.600,169.200 359.780,169.200 360.000 C 169.200 360.220,169.729 360.400,170.376 360.400 C 171.023 360.400,171.664 360.580,171.800 360.800 C 171.936 361.020,172.847 361.200,173.824 361.200 C 174.801 361.200,175.600 361.380,175.600 361.600 C 175.600 361.835,176.992 362.000,178.976 362.000 C 180.833 362.000,182.464 362.180,182.600 362.400 C 182.736 362.620,184.176 362.800,185.800 362.800 C 187.424 362.800,188.864 362.620,189.000 362.400 C 189.136 362.180,190.857 362.000,192.824 362.000 C 194.941 362.000,196.400 361.837,196.400 361.600 C 196.400 361.380,197.300 361.200,198.400 361.200 C 199.500 361.200,200.400 361.020,200.400 360.800 C 200.400 360.580,201.120 360.400,202.000 360.400 C 202.880 360.400,203.600 360.220,203.600 360.000 C 203.600 359.780,204.129 359.600,204.776 359.600 C 205.423 359.600,206.064 359.420,206.200 359.200 C 206.336 358.980,206.889 358.800,207.429 358.800 C 207.969 358.800,208.723 358.626,209.105 358.413 C 210.189 357.810,215.009 356.000,215.531 356.000 C 215.789 356.000,216.001 355.865,216.003 355.700 C 216.007 355.341,217.944 354.400,218.680 354.400 C 218.966 354.400,219.200 354.220,219.200 354.000 C 219.200 353.780,219.470 353.600,219.800 353.600 C 220.130 353.600,220.400 353.420,220.400 353.200 C 220.400 352.980,220.670 352.800,221.000 352.800 C 221.330 352.800,221.600 352.664,221.600 352.498 C 221.600 352.331,222.185 351.938,222.900 351.625 C 223.615 351.311,224.677 350.547,225.260 349.927 C 225.844 349.307,226.543 348.800,226.814 348.800 C 227.084 348.800,227.609 348.451,227.978 348.025 C 228.348 347.599,228.902 347.194,229.209 347.125 C 229.517 347.056,230.800 345.965,232.062 344.700 C 233.324 343.435,234.546 342.400,234.778 342.400 C 235.010 342.400,235.200 342.220,235.200 342.000 C 235.200 341.780,235.397 341.600,235.639 341.600 C 236.107 341.600,241.185 336.398,241.194 335.909 C 241.197 335.748,242.190 334.627,243.400 333.417 C 244.610 332.207,245.600 331.016,245.600 330.769 C 245.600 330.523,246.140 329.817,246.800 329.200 C 247.460 328.583,248.000 327.863,248.000 327.600 C 248.000 327.337,248.540 326.617,249.200 326.000 C 249.860 325.383,250.400 324.681,250.400 324.440 C 250.400 324.198,250.580 324.000,250.800 324.000 C 251.020 324.000,251.200 323.730,251.200 323.400 C 251.200 323.070,251.380 322.800,251.600 322.800 C 251.820 322.800,252.000 322.570,252.000 322.288 C 252.000 322.007,252.360 321.517,252.800 321.200 C 253.240 320.883,253.600 320.427,253.600 320.187 C 253.600 319.947,253.915 319.401,254.300 318.973 C 254.685 318.545,255.440 317.387,255.978 316.398 C 256.515 315.409,257.190 314.362,257.478 314.071 C 257.765 313.781,258.000 313.196,258.000 312.771 C 258.000 312.347,258.180 312.000,258.400 312.000 C 258.620 312.000,258.800 311.680,258.800 311.288 C 258.800 310.897,259.160 310.317,259.600 310.000 C 260.040 309.683,260.400 309.103,260.400 308.712 C 260.400 308.320,260.580 308.000,260.800 308.000 C 261.020 308.000,261.200 307.730,261.200 307.400 C 261.200 307.070,261.380 306.800,261.600 306.800 C 261.820 306.800,262.000 306.530,262.000 306.200 C 262.000 305.870,262.180 305.600,262.400 305.600 C 262.620 305.600,262.800 305.330,262.800 305.000 C 262.800 304.670,262.980 304.400,263.200 304.400 C 263.420 304.400,263.600 304.040,263.600 303.600 C 263.600 303.160,263.780 302.800,264.000 302.800 C 264.220 302.800,264.400 302.440,264.400 302.000 C 264.400 301.560,264.580 301.200,264.800 301.200 C 265.020 301.200,265.200 300.906,265.200 300.547 C 265.200 300.188,265.572 299.571,266.026 299.177 C 266.481 298.783,266.846 298.312,266.837 298.130 C 266.810 297.553,267.783 295.600,268.098 295.600 C 268.264 295.600,268.400 295.240,268.400 294.800 C 268.400 294.360,268.580 294.000,268.800 294.000 C 269.020 294.000,269.200 293.640,269.200 293.200 C 269.200 292.760,269.335 292.399,269.500 292.399 C 269.665 292.398,270.250 291.408,270.800 290.200 C 271.350 288.992,271.935 288.002,272.100 288.001 C 272.265 288.001,272.400 287.764,272.400 287.475 C 272.400 287.186,272.876 285.971,273.459 284.775 C 274.041 283.579,274.521 282.375,274.526 282.100 C 274.530 281.825,274.683 281.600,274.867 281.600 C 275.050 281.600,275.200 281.240,275.200 280.800 C 275.200 280.360,275.380 280.000,275.600 280.000 C 275.820 280.000,276.000 279.747,276.000 279.438 C 276.000 278.953,276.552 277.680,278.050 274.705 C 278.243 274.323,278.400 273.728,278.400 273.382 C 278.400 273.036,278.580 272.864,278.800 273.000 C 279.020 273.136,279.200 272.887,279.200 272.447 C 279.200 272.007,279.380 271.536,279.600 271.400 C 279.820 271.264,280.000 270.713,280.000 270.176 C 280.000 269.639,280.180 269.200,280.400 269.200 C 280.620 269.200,280.800 268.840,280.800 268.400 C 280.800 267.960,280.980 267.600,281.200 267.600 C 281.420 267.600,281.600 267.161,281.600 266.624 C 281.600 266.087,281.780 265.536,282.000 265.400 C 282.220 265.264,282.400 264.803,282.400 264.376 C 282.400 263.949,282.580 263.600,282.800 263.600 C 283.020 263.600,283.200 263.240,283.200 262.800 C 283.200 262.360,283.341 262.000,283.513 262.000 C 283.685 262.000,283.866 261.505,283.916 260.900 C 283.966 260.295,284.185 259.740,284.403 259.667 C 284.622 259.593,284.800 259.194,284.800 258.779 C 284.800 258.364,285.160 257.383,285.600 256.600 C 286.040 255.817,286.400 254.821,286.400 254.388 C 286.400 253.955,286.558 253.600,286.750 253.600 C 286.943 253.600,287.100 253.113,287.100 252.517 C 287.100 251.921,287.303 251.366,287.550 251.283 C 287.798 251.201,288.000 250.698,288.000 250.167 C 288.000 249.635,288.180 249.200,288.400 249.200 C 288.620 249.200,288.800 248.838,288.800 248.395 C 288.800 247.952,288.964 247.277,289.164 246.895 C 289.840 245.607,291.600 239.362,291.600 238.253 C 291.600 237.621,291.770 237.258,292.000 237.400 C 292.238 237.547,292.400 237.071,292.400 236.224 C 292.400 235.441,292.580 234.800,292.800 234.800 C 293.020 234.800,293.200 234.260,293.200 233.600 C 293.200 232.940,293.380 232.400,293.600 232.400 C 293.820 232.400,294.000 231.680,294.000 230.800 C 294.000 229.920,294.180 229.200,294.400 229.200 C 294.620 229.200,294.800 228.660,294.800 228.000 C 294.800 227.340,294.980 226.800,295.200 226.800 C 295.420 226.800,295.600 226.181,295.600 225.424 C 295.600 224.667,295.780 223.936,296.000 223.800 C 296.220 223.664,296.400 222.933,296.400 222.176 C 296.400 221.419,296.580 220.800,296.800 220.800 C 297.020 220.800,297.200 220.080,297.200 219.200 C 297.200 218.320,297.380 217.600,297.600 217.600 C 297.820 217.600,298.000 216.880,298.000 216.000 C 298.000 215.120,298.180 214.400,298.400 214.400 C 298.620 214.400,298.800 213.691,298.800 212.824 C 298.800 211.957,298.980 211.136,299.200 211.000 C 299.420 210.864,299.600 209.953,299.600 208.976 C 299.600 207.999,299.780 207.200,300.000 207.200 C 300.220 207.200,300.400 206.401,300.400 205.424 C 300.400 204.447,300.580 203.536,300.800 203.400 C 301.020 203.264,301.200 202.368,301.200 201.410 C 301.200 200.451,301.370 199.607,301.578 199.533 C 301.785 199.460,301.996 198.365,302.046 197.100 C 302.096 195.835,302.286 194.800,302.468 194.800 C 302.651 194.800,302.800 193.846,302.800 192.680 C 302.800 191.514,302.964 190.389,303.165 190.180 C 303.536 189.794,303.811 187.626,304.242 181.700 C 304.374 179.885,304.644 178.400,304.841 178.400 C 305.349 178.400,305.309 158.114,304.800 157.800 C 304.580 157.664,304.400 156.483,304.400 155.176 C 304.400 153.859,304.222 152.800,304.000 152.800 C 303.780 152.800,303.600 152.181,303.600 151.424 C 303.600 150.667,303.420 149.936,303.200 149.800 C 302.980 149.664,302.800 149.124,302.800 148.600 C 302.800 148.076,302.620 147.536,302.400 147.400 C 302.180 147.264,302.000 146.724,302.000 146.200 C 302.000 145.676,301.820 145.136,301.600 145.000 C 301.380 144.864,301.200 144.403,301.200 143.976 C 301.200 143.549,301.020 143.200,300.800 143.200 C 300.580 143.200,300.400 142.930,300.400 142.600 C 300.400 142.270,300.220 142.000,300.000 142.000 C 299.780 142.000,299.600 141.640,299.600 141.200 C 299.600 140.760,299.420 140.400,299.200 140.400 C 298.980 140.400,298.800 140.040,298.800 139.600 C 298.800 139.160,298.620 138.800,298.400 138.800 C 298.180 138.800,298.000 138.480,298.000 138.088 C 298.000 137.697,297.640 137.117,297.200 136.800 C 296.760 136.483,296.400 135.985,296.400 135.694 C 296.400 135.402,295.950 134.714,295.400 134.164 C 294.850 133.614,294.400 133.004,294.400 132.808 C 294.400 132.196,290.482 128.400,289.850 128.400 C 289.518 128.400,289.152 128.246,289.035 128.057 C 288.919 127.869,287.873 127.580,286.712 127.416 C 285.550 127.251,283.610 126.958,282.400 126.764 C 281.190 126.570,279.030 126.226,277.600 126.000 C 276.170 125.774,273.920 125.414,272.600 125.200 C 271.280 124.986,269.030 124.626,267.600 124.400 C 266.170 124.174,263.920 123.814,262.600 123.600 C 260.115 123.197,256.211 122.586,252.400 122.005 C 251.190 121.820,248.940 121.458,247.400 121.200 C 245.860 120.942,243.610 120.582,242.400 120.400 C 240.214 120.071,237.197 119.592,232.600 118.845 C 231.280 118.630,229.587 118.324,228.838 118.165 C 227.851 117.955,227.554 118.002,227.761 118.338 M236.286 178.100 C 243.844 186.339,243.318 198.397,235.400 198.397 C 227.395 198.397,225.837 188.678,232.435 179.900 C 234.653 176.948,235.056 176.759,236.286 178.100 M130.185 189.680 C 130.555 190.604,131.474 193.259,132.227 195.580 C 138.969 216.349,138.435 222.903,129.843 224.825 C 118.877 227.279,116.998 212.478,125.886 193.659 C 128.796 187.498,129.173 187.149,130.185 189.680 M183.262 231.525 C 188.134 241.109,189.268 245.171,187.838 247.920 C 185.710 252.009,180.618 252.534,176.980 249.038 C 172.581 244.811,173.316 237.660,178.944 229.924 C 181.008 227.088,181.005 227.087,183.262 231.525 M234.490 259.700 C 237.864 264.156,241.242 273.748,240.576 276.987 C 239.395 282.734,233.064 284.681,229.465 280.404 C 226.280 276.619,226.821 270.916,231.240 261.700 C 233.029 257.970,233.132 257.907,234.490 259.700 M177.604 301.800 C 182.975 313.418,181.977 321.401,174.933 323.175 C 165.315 325.597,163.901 312.875,172.483 301.128 C 175.290 297.284,175.530 297.315,177.604 301.800 " stroke="none" fill="#fb9c84" fill-rule="evenodd"></path><path id="path3" d="M223.800 117.600 C 223.936 117.820,224.317 118.000,224.647 118.000 C 224.977 118.000,225.136 117.820,225.000 117.600 C 224.864 117.380,224.483 117.200,224.153 117.200 C 223.823 117.200,223.664 117.380,223.800 117.600 M227.200 117.578 C 229.176 118.043,233.243 118.435,232.000 118.041 C 231.450 117.867,229.830 117.617,228.400 117.487 C 226.644 117.326,226.255 117.356,227.200 117.578 M163.718 119.924 C 161.693 120.956,160.028 121.951,160.018 122.135 C 160.008 122.319,161.683 121.562,163.739 120.453 C 166.562 118.932,167.591 118.551,167.939 118.899 C 168.287 119.247,168.400 119.193,168.400 118.680 C 168.400 117.686,167.798 117.846,163.718 119.924 M235.800 118.976 C 239.385 119.621,243.602 120.086,241.600 119.615 C 238.767 118.948,235.320 118.401,234.176 118.436 C 233.529 118.456,234.260 118.699,235.800 118.976 M167.253 120.301 C 164.438 125.561,162.451 129.682,162.991 129.143 C 163.380 128.753,168.000 119.600,167.808 119.600 C 167.709 119.600,167.459 119.916,167.253 120.301 M193.824 120.361 C 193.657 120.632,193.628 120.961,193.760 121.093 C 193.892 121.225,194.000 121.094,194.000 120.802 C 194.000 120.510,194.585 120.968,195.300 121.819 C 200.119 127.557,210.896 138.400,211.780 138.400 C 211.917 138.400,210.905 137.365,209.531 136.100 C 204.583 131.545,199.305 126.032,195.107 121.034 C 194.413 120.207,194.040 120.012,193.824 120.361 M243.233 120.144 C 243.325 120.224,244.480 120.389,245.800 120.512 C 247.291 120.651,247.821 120.611,247.200 120.407 C 246.212 120.084,242.911 119.865,243.233 120.144 M248.433 120.946 C 248.525 121.026,249.590 121.200,250.800 121.332 C 252.237 121.488,252.722 121.448,252.200 121.214 C 251.443 120.875,248.079 120.636,248.433 120.946 M232.833 121.349 C 233.245 121.717,235.600 122.800,235.600 122.621 C 235.600 122.390,233.382 121.200,232.953 121.200 C 232.796 121.200,232.742 121.267,232.833 121.349 M253.233 121.746 C 253.325 121.826,254.390 122.010,255.600 122.155 C 257.133 122.339,257.618 122.297,257.200 122.016 C 256.662 121.654,252.830 121.393,253.233 121.746 M193.076 123.210 C 192.930 123.755,192.827 124.650,192.846 125.200 C 192.871 125.918,192.984 125.757,193.249 124.627 C 193.655 122.895,193.500 121.625,193.076 123.210 M258.433 122.546 C 258.525 122.626,259.590 122.800,260.800 122.932 C 262.237 123.088,262.722 123.048,262.200 122.814 C 261.443 122.475,258.079 122.236,258.433 122.546 M263.633 123.349 C 263.725 123.431,264.700 123.618,265.800 123.765 C 267.220 123.955,267.626 123.914,267.200 123.623 C 266.661 123.254,263.232 122.990,263.633 123.349 M268.833 124.144 C 268.925 124.224,269.810 124.406,270.800 124.550 C 272.058 124.733,272.419 124.691,272.000 124.412 C 271.460 124.053,268.432 123.797,268.833 124.144 M239.200 124.497 C 239.200 124.814,243.662 127.671,243.855 127.479 C 243.953 127.380,243.426 126.940,242.683 126.502 C 241.939 126.063,240.851 125.390,240.265 125.006 C 239.679 124.622,239.200 124.393,239.200 124.497 M275.000 125.200 C 276.876 125.677,277.939 125.677,277.200 125.200 C 276.870 124.987,275.970 124.831,275.200 124.853 L 273.800 124.895 275.000 125.200 M280.200 126.000 C 280.860 126.168,281.760 126.314,282.200 126.325 L 283.000 126.344 282.200 126.000 C 281.760 125.811,280.860 125.665,280.200 125.675 L 279.000 125.695 280.200 126.000 M285.200 126.800 C 286.730 127.290,287.958 127.290,287.200 126.800 C 286.870 126.587,286.060 126.427,285.400 126.446 C 284.224 126.479,284.220 126.486,285.200 126.800 M192.249 128.215 C 192.112 128.573,192.016 129.256,192.036 129.733 C 192.062 130.347,192.185 130.208,192.459 129.256 C 192.857 127.872,192.694 127.058,192.249 128.215 M244.401 127.878 C 244.401 128.055,245.248 128.735,246.282 129.388 C 247.316 130.041,249.656 131.797,251.481 133.289 C 253.307 134.781,254.792 135.867,254.782 135.701 C 254.745 135.097,244.399 127.301,244.401 127.878 M143.200 128.400 C 142.667 128.745,142.667 128.788,143.200 128.788 C 143.530 128.788,144.070 128.613,144.400 128.400 C 144.933 128.055,144.933 128.012,144.400 128.012 C 144.070 128.012,143.530 128.187,143.200 128.400 M137.400 130.000 C 136.896 130.217,136.822 130.344,137.200 130.344 C 137.530 130.344,138.160 130.189,138.600 130.000 C 139.104 129.783,139.178 129.656,138.800 129.656 C 138.470 129.656,137.840 129.811,137.400 130.000 M162.400 129.684 C 162.400 129.804,162.128 130.554,161.795 131.351 C 161.462 132.148,161.273 132.800,161.376 132.800 C 161.731 132.800,162.904 129.970,162.652 129.719 C 162.514 129.580,162.400 129.565,162.400 129.684 M133.800 130.800 L 133.000 131.144 133.800 131.144 C 134.240 131.144,134.960 130.989,135.400 130.800 L 136.200 130.456 135.400 130.456 C 134.960 130.456,134.240 130.611,133.800 130.800 M129.200 131.600 C 127.843 131.886,127.837 131.895,129.000 131.907 C 129.660 131.915,130.650 131.776,131.200 131.600 C 132.512 131.180,131.196 131.180,129.200 131.600 M191.473 132.153 C 191.323 132.545,191.211 133.166,191.225 133.533 C 191.242 133.975,191.381 133.874,191.637 133.234 C 191.849 132.703,191.961 132.082,191.885 131.854 C 191.809 131.627,191.624 131.761,191.473 132.153 M123.000 132.400 L 121.000 132.674 123.000 132.690 C 124.100 132.698,125.540 132.568,126.200 132.400 L 127.400 132.095 126.200 132.110 C 125.540 132.119,124.100 132.249,123.000 132.400 M111.532 133.169 C 109.624 133.296,107.969 133.495,107.853 133.612 C 107.609 133.858,111.907 133.670,116.800 133.220 C 121.110 132.825,117.266 132.787,111.532 133.169 M160.800 133.284 C 160.800 133.404,160.528 134.154,160.195 134.951 C 159.862 135.748,159.679 136.400,159.789 136.400 C 160.106 136.400,161.233 133.500,161.005 133.272 C 160.892 133.159,160.800 133.165,160.800 133.284 M190.649 135.415 C 190.512 135.773,190.415 136.366,190.434 136.733 C 190.453 137.100,190.627 136.869,190.821 136.220 C 191.198 134.958,191.065 134.333,190.649 135.415 M256.000 136.874 C 256.000 137.217,261.269 142.465,261.441 142.293 C 261.516 142.218,260.322 140.911,258.789 139.389 C 257.255 137.867,256.000 136.735,256.000 136.874 M189.849 138.215 C 189.712 138.573,189.615 139.166,189.634 139.533 C 189.653 139.900,189.827 139.669,190.021 139.020 C 190.398 137.758,190.265 137.133,189.849 138.215 M189.067 140.667 C 188.920 140.813,188.811 141.308,188.825 141.767 C 188.849 142.533,188.882 142.523,189.234 141.642 C 189.626 140.663,189.544 140.189,189.067 140.667 M214.782 140.956 C 215.417 141.746,220.000 145.357,220.000 145.068 C 220.000 144.970,218.695 143.842,217.100 142.562 C 215.505 141.281,214.462 140.559,214.782 140.956 M188.171 143.443 C 187.151 146.565,184.909 151.832,182.978 155.644 C 182.433 156.720,182.083 157.600,182.200 157.600 C 182.824 157.600,189.062 143.329,188.628 142.894 C 188.513 142.779,188.308 143.026,188.171 143.443 M264.411 146.200 C 270.092 153.718,270.005 161.075,264.200 164.135 C 263.540 164.483,263.147 164.775,263.326 164.784 C 264.597 164.846,267.441 162.323,268.267 160.400 C 270.128 156.066,267.652 148.156,263.196 144.200 C 262.701 143.760,263.247 144.660,264.411 146.200 M221.744 146.309 C 222.060 146.821,224.400 148.553,224.400 148.275 C 224.400 148.176,223.739 147.591,222.932 146.975 C 222.124 146.359,221.589 146.059,221.744 146.309 M154.200 150.000 C 154.050 150.473,154.017 150.950,154.127 151.060 C 154.237 151.170,154.450 150.873,154.600 150.400 C 154.750 149.927,154.783 149.450,154.673 149.340 C 154.563 149.230,154.350 149.527,154.200 150.000 M227.200 150.120 C 227.200 150.267,228.872 151.421,232.500 153.777 C 233.148 154.199,233.600 154.309,233.600 154.046 C 233.600 153.801,233.410 153.600,233.178 153.600 C 232.946 153.600,231.731 152.911,230.478 152.070 C 227.694 150.199,227.200 149.906,227.200 150.120 M153.400 152.400 C 153.250 152.873,153.217 153.350,153.327 153.460 C 153.437 153.570,153.650 153.273,153.800 152.800 C 153.950 152.327,153.983 151.850,153.873 151.740 C 153.763 151.630,153.550 151.927,153.400 152.400 M152.600 154.800 C 152.450 155.273,152.417 155.750,152.527 155.860 C 152.637 155.970,152.850 155.673,153.000 155.200 C 153.150 154.727,153.183 154.250,153.073 154.140 C 152.963 154.030,152.750 154.327,152.600 154.800 M234.400 154.820 C 235.787 155.761,236.578 156.035,235.600 155.236 C 235.050 154.786,234.420 154.417,234.200 154.415 C 233.980 154.413,234.070 154.596,234.400 154.820 M236.800 156.156 C 236.800 156.279,237.340 156.659,238.000 157.000 C 238.660 157.341,239.200 157.457,239.200 157.257 C 239.200 157.057,238.885 156.782,238.500 156.646 C 238.115 156.511,237.575 156.295,237.300 156.166 C 237.025 156.038,236.800 156.034,236.800 156.156 M180.620 159.960 C 180.052 161.082,179.664 162.000,179.759 162.000 C 180.051 162.000,182.023 158.290,181.833 158.099 C 181.734 158.001,181.189 158.838,180.620 159.960 M150.273 161.753 C 150.123 162.145,150.011 162.766,150.025 163.133 C 150.042 163.575,150.181 163.474,150.437 162.834 C 150.649 162.303,150.761 161.682,150.685 161.454 C 150.609 161.227,150.424 161.361,150.273 161.753 M176.655 166.400 C 175.631 167.940,174.878 169.200,174.982 169.200 C 175.085 169.200,175.866 168.165,176.715 166.900 C 178.598 164.099,178.895 163.600,178.682 163.600 C 178.592 163.600,177.680 164.860,176.655 166.400 M149.443 164.900 C 149.306 165.395,149.115 167.510,149.019 169.600 L 148.845 173.400 149.188 169.910 C 149.377 167.991,149.652 165.876,149.798 165.210 C 150.105 163.812,149.816 163.559,149.443 164.900 M254.000 164.400 C 254.330 164.613,254.960 164.778,255.400 164.766 L 256.200 164.744 255.400 164.400 C 254.204 163.886,253.205 163.886,254.000 164.400 M258.100 165.234 C 258.969 165.439,260.231 165.439,261.100 165.234 C 262.401 164.927,262.202 164.880,259.600 164.880 C 256.998 164.880,256.799 164.927,258.100 165.234 M173.317 170.905 C 172.831 171.617,172.050 172.740,171.581 173.400 C 170.874 174.397,170.944 174.363,171.994 173.200 C 173.749 171.257,174.917 169.599,174.527 169.605 C 174.347 169.608,173.802 170.193,173.317 170.905 M149.241 174.281 C 149.114 177.014,153.820 182.856,156.091 182.784 C 156.371 182.775,156.060 182.484,155.400 182.137 C 152.718 180.728,150.313 177.615,149.575 174.600 C 149.350 173.679,149.272 173.605,149.241 174.281 M167.212 178.193 L 164.225 181.400 167.394 178.315 C 169.137 176.618,170.482 175.175,170.382 175.108 C 170.282 175.041,168.856 176.429,167.212 178.193 M157.700 183.087 C 158.305 183.178,159.295 183.178,159.900 183.087 C 160.505 182.995,160.010 182.920,158.800 182.920 C 157.590 182.920,157.095 182.995,157.700 183.087 " stroke="none" fill="#b3ac92" fill-rule="evenodd"></path><path id="path4" d="M224.800 117.324 C 224.800 117.559,227.149 118.800,227.595 118.800 C 227.744 118.800,227.867 118.530,227.867 118.200 C 227.867 117.870,227.582 117.598,227.233 117.595 C 226.885 117.592,226.195 117.481,225.700 117.348 C 225.205 117.215,224.800 117.205,224.800 117.324 M230.000 118.400 C 230.550 118.576,231.540 118.717,232.200 118.713 L 233.400 118.705 232.200 118.400 C 231.540 118.232,230.550 118.091,230.000 118.087 L 229.000 118.080 230.000 118.400 M165.862 119.261 C 165.016 119.699,164.416 120.149,164.528 120.261 C 164.639 120.373,165.202 120.155,165.778 119.778 C 167.219 118.833,167.404 119.232,166.420 121.161 C 165.275 123.406,165.689 123.234,166.976 120.931 C 168.236 118.676,167.916 118.197,165.862 119.261 M228.600 119.200 C 228.736 119.420,229.069 119.600,229.341 119.600 C 229.612 119.600,232.167 120.771,235.017 122.203 C 237.868 123.635,239.840 124.519,239.400 124.168 C 237.656 122.776,228.091 118.377,228.600 119.200 M234.800 119.200 C 235.350 119.376,236.340 119.517,237.000 119.513 L 238.200 119.505 237.000 119.200 C 236.340 119.032,235.350 118.891,234.800 118.887 L 233.800 118.880 234.800 119.200 M239.800 120.000 C 240.240 120.189,241.230 120.335,242.000 120.325 L 243.400 120.305 242.200 120.000 C 240.403 119.543,238.736 119.543,239.800 120.000 M193.830 121.272 C 193.279 123.836,192.423 129.757,192.581 129.914 C 192.680 130.013,192.841 129.668,192.939 129.147 C 193.753 124.808,194.002 123.191,194.012 122.176 L 194.023 121.000 195.240 122.338 C 195.909 123.074,196.521 123.612,196.599 123.534 C 196.677 123.456,196.131 122.706,195.385 121.868 C 194.075 120.396,194.022 120.376,193.830 121.272 M245.000 120.800 C 245.440 120.989,246.430 121.135,247.200 121.125 L 248.600 121.105 247.400 120.800 C 245.603 120.343,243.936 120.343,245.000 120.800 M249.800 121.600 C 250.240 121.789,251.230 121.935,252.000 121.925 L 253.400 121.905 252.200 121.600 C 250.403 121.143,248.736 121.143,249.800 121.600 M255.000 122.380 C 255.761 122.726,258.717 122.964,258.367 122.651 C 258.275 122.569,257.300 122.393,256.200 122.259 C 254.854 122.095,254.461 122.135,255.000 122.380 M157.400 123.578 C 156.520 123.995,155.997 124.350,156.239 124.368 C 156.728 124.404,159.200 123.238,159.200 122.971 C 159.200 122.730,159.176 122.738,157.400 123.578 M260.200 123.180 C 260.961 123.526,263.917 123.764,263.567 123.451 C 263.475 123.369,262.500 123.193,261.400 123.059 C 260.054 122.895,259.661 122.935,260.200 123.180 M265.000 123.986 C 265.757 124.325,269.121 124.564,268.767 124.254 C 268.675 124.174,267.610 124.000,266.400 123.868 C 264.963 123.712,264.478 123.752,265.000 123.986 M198.730 126.200 C 200.787 128.652,207.615 135.426,209.830 137.210 C 210.506 137.754,209.442 136.653,207.467 134.763 C 205.491 132.873,202.264 129.633,200.296 127.563 C 198.280 125.442,197.596 124.847,198.730 126.200 M270.200 124.786 C 270.957 125.125,274.321 125.364,273.967 125.054 C 273.875 124.974,272.810 124.800,271.600 124.668 C 270.163 124.512,269.678 124.552,270.200 124.786 M240.437 124.970 C 240.531 125.064,242.364 126.315,244.511 127.751 C 252.195 132.888,262.203 142.107,265.523 147.106 C 266.292 148.264,267.004 149.129,267.106 149.028 C 268.400 147.733,253.150 133.042,244.515 127.265 C 241.435 125.204,239.688 124.221,240.437 124.970 M275.000 125.592 C 275.757 125.925,279.521 126.163,279.167 125.856 C 279.075 125.776,277.920 125.605,276.600 125.476 C 275.076 125.326,274.492 125.369,275.000 125.592 M147.200 127.415 C 141.389 129.327,140.979 129.448,137.690 130.225 C 136.089 130.604,134.857 130.990,134.952 131.085 C 135.368 131.502,150.472 127.135,151.380 126.335 C 151.910 125.867,151.889 125.873,147.200 127.415 M279.675 126.209 C 279.917 126.451,282.437 126.868,286.800 127.388 C 288.244 127.560,288.126 127.495,286.200 127.057 C 283.154 126.364,279.334 125.867,279.675 126.209 M162.223 129.406 C 161.360 131.472,161.474 131.706,162.447 129.862 C 162.893 129.016,163.165 128.232,163.052 128.119 C 162.939 128.006,162.566 128.585,162.223 129.406 M192.060 131.267 C 192.027 131.854,191.896 132.664,191.770 133.067 C 191.552 133.760,191.565 133.761,191.995 133.090 C 192.246 132.699,192.377 131.889,192.286 131.290 L 192.120 130.200 192.060 131.267 M131.200 131.600 L 130.200 131.920 131.200 131.913 C 131.750 131.909,132.740 131.768,133.400 131.600 L 134.600 131.295 133.400 131.287 C 132.740 131.283,131.750 131.424,131.200 131.600 M160.623 133.006 C 159.760 135.072,159.874 135.306,160.847 133.462 C 161.293 132.616,161.565 131.832,161.452 131.719 C 161.339 131.606,160.966 132.185,160.623 133.006 M126.200 132.400 C 124.434 132.849,126.445 132.869,128.600 132.423 L 130.200 132.092 128.800 132.093 C 128.030 132.094,126.860 132.232,126.200 132.400 M117.600 133.200 L 115.000 133.462 117.600 133.496 C 119.030 133.515,121.100 133.390,122.200 133.218 L 124.200 132.907 122.200 132.922 C 121.100 132.931,119.030 133.056,117.600 133.200 M191.249 134.400 C 191.216 134.730,191.089 135.450,190.967 136.000 C 190.775 136.864,190.807 136.903,191.199 136.288 C 191.448 135.897,191.575 135.177,191.481 134.688 C 191.386 134.200,191.282 134.070,191.249 134.400 M158.436 138.100 C 158.247 138.595,157.621 140.156,157.046 141.569 C 156.471 142.982,156.010 144.332,156.022 144.569 C 156.034 144.806,156.376 144.190,156.782 143.200 C 158.587 138.799,159.174 137.200,158.984 137.200 C 158.872 137.200,158.625 137.605,158.436 138.100 M190.229 138.229 C 190.081 138.815,190.051 139.384,190.161 139.494 C 190.271 139.604,190.481 139.215,190.629 138.629 C 190.776 138.042,190.806 137.473,190.696 137.363 C 190.586 137.253,190.376 137.642,190.229 138.229 M211.600 138.580 C 211.600 139.553,227.667 151.615,231.600 153.595 C 233.330 154.465,231.949 153.404,227.499 150.443 C 222.190 146.910,217.386 143.337,214.100 140.478 C 212.725 139.281,211.600 138.427,211.600 138.580 M155.370 145.843 C 155.234 146.259,154.850 147.320,154.518 148.200 C 153.438 151.062,152.389 154.523,152.552 154.686 C 152.640 154.773,153.072 153.710,153.512 152.322 C 153.953 150.935,154.699 148.832,155.171 147.648 C 155.643 146.464,155.937 145.404,155.824 145.291 C 155.711 145.178,155.507 145.426,155.370 145.843 M182.994 156.317 C 181.897 158.441,179.885 161.939,178.522 164.090 C 177.160 166.240,176.185 168.000,176.356 168.000 C 176.978 168.000,185.517 152.983,185.120 152.587 C 185.047 152.514,184.090 154.192,182.994 156.317 M268.906 156.400 C 268.900 158.313,269.013 159.110,269.220 158.600 C 269.632 157.582,269.637 155.239,269.230 154.200 C 269.034 153.700,268.912 154.526,268.906 156.400 M233.600 154.767 C 234.563 155.552,235.200 155.808,235.200 155.410 C 235.200 155.306,234.615 154.935,233.900 154.586 L 232.600 153.952 233.600 154.767 M236.400 156.364 C 236.950 156.814,237.580 157.183,237.800 157.185 C 238.228 157.188,237.505 156.634,236.200 155.960 C 235.669 155.685,235.736 155.821,236.400 156.364 M238.584 157.574 C 239.156 158.500,253.768 165.166,254.224 164.709 C 254.338 164.595,253.479 164.195,252.316 163.818 C 251.152 163.442,247.540 161.808,244.289 160.187 C 241.038 158.567,238.470 157.390,238.584 157.574 M266.770 162.637 C 265.512 163.981,264.638 164.441,262.200 165.040 C 260.630 165.426,260.458 165.537,261.400 165.557 C 263.028 165.591,265.550 164.367,266.975 162.850 C 267.621 162.163,268.057 161.600,267.945 161.600 C 267.832 161.600,267.303 162.067,266.770 162.637 M149.400 163.600 C 149.248 164.291,149.214 164.947,149.324 165.057 C 149.434 165.167,149.648 164.691,149.800 164.000 C 149.952 163.309,149.986 162.653,149.876 162.543 C 149.766 162.433,149.552 162.909,149.400 163.600 M255.600 165.200 C 256.150 165.376,257.140 165.517,257.800 165.513 L 259.000 165.505 257.800 165.200 C 257.140 165.032,256.150 164.891,255.600 164.887 L 254.600 164.880 255.600 165.200 M148.650 167.250 C 148.326 168.869,148.377 173.601,148.728 174.485 C 148.878 174.862,149.000 173.107,149.000 170.585 C 149.000 165.489,149.001 165.496,148.650 167.250 M173.621 171.210 C 170.923 174.837,165.530 180.531,163.748 181.632 C 162.984 182.105,162.453 182.586,162.568 182.702 C 163.345 183.479,171.078 175.550,174.859 170.100 C 176.741 167.387,175.908 168.134,173.621 171.210 M150.622 178.600 C 151.601 180.317,152.563 181.297,154.076 182.117 C 155.331 182.798,155.348 182.798,154.400 182.121 C 153.139 181.222,151.605 179.693,150.665 178.400 C 149.947 177.411,149.946 177.413,150.622 178.600 M156.138 183.294 C 156.392 183.456,157.590 183.588,158.800 183.588 C 160.010 183.588,161.208 183.456,161.462 183.294 C 161.716 183.132,160.518 183.000,158.800 183.000 C 157.082 183.000,155.884 183.132,156.138 183.294 " stroke="none" fill="#cea48c" fill-rule="evenodd"></path></g></svg>