<svg id="svg" version="1.1" xmlns="http://www.w3.org/2000/svg" xmlns:xlink="http://www.w3.org/1999/xlink" width="400" height="400" viewBox="0, 0, 400,400"><g id="svgg"><path id="path0" d="M181.193 161.581 C 153.046 165.193,131.824 190.147,125.049 227.600 C 123.798 234.511,121.658 253.467,122.091 253.799 C 122.151 253.845,123.370 254.534,124.800 255.330 C 133.714 260.291,139.200 268.954,139.200 278.069 C 139.200 278.948,139.335 279.605,139.500 279.529 C 139.665 279.454,140.675 278.975,141.745 278.466 C 144.311 277.243,149.669 276.255,152.277 276.524 C 155.959 276.903,156.000 276.859,156.000 272.577 C 156.000 270.526,156.154 268.752,156.341 268.636 C 156.529 268.520,156.719 267.039,156.764 265.344 C 156.809 263.649,156.986 261.978,157.157 261.631 C 157.328 261.284,157.511 260.100,157.563 259.000 C 157.615 257.900,157.843 256.280,158.069 255.400 C 158.296 254.520,158.571 253.080,158.682 252.200 C 158.792 251.320,159.044 250.429,159.241 250.220 C 159.438 250.011,159.600 249.246,159.600 248.520 C 159.600 247.794,159.780 247.200,160.000 247.200 C 160.220 247.200,160.400 246.660,160.400 246.000 C 160.400 245.340,160.580 244.800,160.800 244.800 C 161.020 244.800,161.200 244.528,161.200 244.195 C 161.200 243.862,161.408 243.187,161.662 242.695 C 162.636 240.810,162.800 240.392,162.800 239.782 C 162.800 239.436,162.980 239.264,163.200 239.400 C 163.420 239.536,163.600 239.402,163.600 239.103 C 163.600 238.349,164.535 236.407,164.900 236.403 C 165.065 236.401,165.200 236.080,165.200 235.688 C 165.200 235.297,165.560 234.717,166.000 234.400 C 166.440 234.083,166.800 233.543,166.800 233.200 C 166.800 232.857,167.160 232.317,167.600 232.000 C 168.040 231.683,168.400 231.179,168.400 230.880 C 168.400 230.582,169.113 229.631,169.984 228.769 C 170.856 227.906,171.441 227.194,171.284 227.187 C 171.128 227.179,171.425 226.819,171.944 226.387 C 172.464 225.954,172.765 225.600,172.614 225.600 C 172.462 225.600,172.937 225.108,173.669 224.506 C 174.401 223.905,175.132 223.230,175.294 223.006 C 175.456 222.783,175.591 222.754,175.594 222.942 C 175.597 223.131,176.095 222.771,176.700 222.142 C 177.305 221.514,178.295 220.745,178.900 220.432 C 179.505 220.120,180.000 219.715,180.000 219.532 C 180.000 219.350,180.360 219.200,180.800 219.200 C 181.240 219.200,181.600 219.020,181.600 218.800 C 181.600 218.580,181.960 218.400,182.400 218.400 C 182.840 218.400,183.200 218.220,183.200 218.000 C 183.200 217.780,183.560 217.600,184.000 217.600 C 184.440 217.600,184.800 217.420,184.800 217.200 C 184.800 216.980,185.149 216.800,185.576 216.800 C 186.003 216.800,186.464 216.620,186.600 216.400 C 186.736 216.180,187.377 216.000,188.024 216.000 C 188.671 216.000,189.200 215.820,189.200 215.600 C 189.200 215.380,190.100 215.200,191.200 215.200 C 192.300 215.200,193.200 215.020,193.200 214.800 C 193.200 214.286,200.104 214.265,200.620 214.777 C 200.829 214.985,201.945 215.197,203.100 215.249 C 204.255 215.301,205.200 215.491,205.200 215.671 C 205.200 215.852,205.740 216.000,206.400 216.000 C 207.060 216.000,207.600 216.180,207.600 216.400 C 207.600 216.620,208.125 216.800,208.767 216.800 C 209.408 216.800,209.993 216.935,210.067 217.100 C 210.183 217.361,211.284 217.933,215.100 219.715 C 215.595 219.946,216.000 220.285,216.000 220.468 C 216.000 220.650,216.360 220.800,216.800 220.800 C 217.240 220.800,217.600 220.968,217.600 221.173 C 217.600 221.378,217.966 221.662,218.413 221.804 C 218.860 221.946,219.651 222.487,220.170 223.007 C 220.690 223.526,221.224 223.842,221.358 223.709 C 221.491 223.576,221.600 223.677,221.600 223.933 C 221.600 224.190,221.860 224.400,222.177 224.400 C 222.495 224.400,223.440 225.125,224.277 226.012 C 225.115 226.899,226.835 228.710,228.100 230.037 C 229.365 231.365,230.400 232.611,230.400 232.807 C 230.400 233.003,230.850 233.614,231.400 234.164 C 231.950 234.714,232.400 235.402,232.400 235.694 C 232.400 235.985,232.760 236.483,233.200 236.800 C 233.640 237.117,234.000 237.697,234.000 238.088 C 234.000 238.480,234.180 238.800,234.400 238.800 C 234.620 238.800,234.800 239.070,234.800 239.400 C 234.800 239.730,234.980 240.000,235.200 240.000 C 235.420 240.000,235.600 240.281,235.600 240.624 C 235.600 240.967,235.780 241.136,236.000 241.000 C 236.226 240.860,236.400 241.188,236.400 241.753 C 236.400 242.303,236.580 242.864,236.800 243.000 C 237.020 243.136,237.200 243.597,237.200 244.024 C 237.200 244.451,237.380 244.800,237.600 244.800 C 237.820 244.800,238.000 245.160,238.000 245.600 C 238.000 246.040,238.180 246.400,238.400 246.400 C 238.620 246.400,238.800 246.760,238.800 247.200 C 238.800 247.640,238.980 248.000,239.200 248.000 C 239.420 248.000,239.600 248.540,239.600 249.200 C 239.600 249.860,239.780 250.400,240.000 250.400 C 240.220 250.400,240.400 250.940,240.400 251.600 C 240.400 252.260,240.560 252.800,240.756 252.800 C 240.952 252.800,241.208 253.385,241.324 254.100 C 241.498 255.175,242.647 260.369,242.782 260.696 C 243.170 261.633,243.575 264.136,243.866 267.400 C 243.984 268.720,244.232 269.894,244.417 270.009 C 244.602 270.125,244.790 271.700,244.833 273.509 C 244.877 275.319,245.067 276.800,245.256 276.800 C 245.445 276.800,245.600 277.689,245.600 278.776 C 245.600 281.397,245.650 281.406,250.233 279.614 C 254.650 277.887,259.005 276.877,263.786 276.471 C 267.315 276.171,267.019 276.419,268.872 272.200 C 269.355 271.100,270.418 269.120,271.234 267.800 L 272.718 265.400 271.969 261.000 C 271.151 256.200,270.566 253.078,270.018 250.600 C 269.824 249.720,269.442 247.920,269.169 246.600 C 268.694 244.299,267.109 237.913,266.389 235.400 C 266.200 234.740,265.873 233.570,265.663 232.800 C 262.315 220.530,254.791 204.558,247.721 194.718 C 234.615 176.473,219.131 166.202,198.400 162.001 C 195.537 161.421,184.536 161.153,181.193 161.581 " stroke="none" fill="#94b49b" fill-rule="evenodd"></path><path id="path1" d="M95.800 251.254 C 80.924 253.927,73.127 258.747,68.406 268.188 C 67.468 270.065,66.582 271.600,66.437 271.600 C 65.373 271.600,64.728 281.018,65.747 281.678 C 65.983 281.831,66.039 282.094,65.870 282.263 C 65.702 282.432,65.214 282.352,64.787 282.085 C 64.360 281.818,63.558 281.600,63.005 281.600 C 62.452 281.600,62.000 281.420,62.000 281.200 C 62.000 280.955,60.067 280.800,57.000 280.800 C 53.933 280.800,52.000 280.955,52.000 281.200 C 52.000 281.420,51.280 281.600,50.400 281.600 C 49.520 281.600,48.800 281.780,48.800 282.000 C 48.800 282.220,48.440 282.400,48.000 282.400 C 47.560 282.400,47.200 282.580,47.200 282.800 C 47.200 283.020,46.966 283.200,46.680 283.200 C 45.944 283.200,44.007 284.141,44.003 284.500 C 44.001 284.665,43.719 284.800,43.376 284.800 C 43.033 284.800,42.864 284.980,43.000 285.200 C 43.136 285.420,43.053 285.600,42.815 285.600 C 42.169 285.600,38.000 289.893,38.000 290.558 C 38.000 290.874,37.865 291.193,37.700 291.267 C 37.134 291.518,35.600 294.875,35.600 295.861 C 35.600 296.417,35.425 296.739,35.200 296.600 C 34.958 296.451,34.800 296.996,34.800 297.976 C 34.800 298.869,34.620 299.600,34.400 299.600 C 34.149 299.600,34.000 302.075,34.000 306.224 C 34.000 310.537,34.139 312.761,34.400 312.600 C 34.638 312.453,34.800 312.921,34.800 313.753 C 34.800 314.523,34.980 315.264,35.200 315.400 C 35.420 315.536,35.600 316.087,35.600 316.624 C 35.600 317.161,35.780 317.600,36.000 317.600 C 36.220 317.600,36.400 317.960,36.400 318.400 C 36.400 318.840,36.580 319.200,36.800 319.200 C 37.020 319.200,37.200 319.470,37.200 319.800 C 37.200 320.130,37.380 320.400,37.600 320.400 C 37.820 320.400,38.000 320.598,38.000 320.840 C 38.000 321.532,40.282 323.485,42.226 324.456 C 43.202 324.943,44.000 325.490,44.000 325.671 C 44.000 325.852,44.439 326.000,44.976 326.000 C 45.513 326.000,46.064 326.180,46.200 326.400 C 46.336 326.620,46.977 326.800,47.624 326.800 C 48.271 326.800,48.800 326.980,48.800 327.200 C 48.800 327.420,49.700 327.600,50.800 327.600 C 51.900 327.600,52.800 327.780,52.800 328.000 C 52.800 328.243,54.600 328.400,57.400 328.400 C 60.200 328.400,62.000 328.243,62.000 328.000 C 62.000 327.778,63.067 327.600,64.400 327.600 C 65.733 327.600,66.800 327.422,66.800 327.200 C 66.800 326.980,67.329 326.800,67.976 326.800 C 68.623 326.800,69.264 326.620,69.400 326.400 C 69.536 326.180,70.097 326.000,70.647 326.000 C 71.212 326.000,71.540 325.826,71.400 325.600 C 70.610 324.321,73.780 325.323,75.200 326.800 C 76.046 327.680,76.931 328.400,77.169 328.400 C 77.406 328.400,77.600 328.580,77.600 328.800 C 77.600 329.020,77.960 329.200,78.400 329.200 C 78.840 329.200,79.200 329.380,79.200 329.600 C 79.200 329.820,79.472 330.000,79.805 330.000 C 80.138 330.000,80.768 330.180,81.205 330.400 C 81.642 330.620,82.358 330.980,82.795 331.200 C 83.232 331.420,84.042 331.600,84.595 331.600 C 85.148 331.600,85.600 331.780,85.600 332.000 C 85.600 332.229,86.800 332.400,88.400 332.400 C 90.000 332.400,91.200 332.571,91.200 332.800 C 91.200 333.051,93.667 333.200,97.800 333.200 C 101.933 333.200,104.400 333.051,104.400 332.800 C 104.400 332.561,105.941 332.400,108.224 332.400 C 110.671 332.400,111.958 332.256,111.800 332.000 C 111.649 331.756,112.263 331.600,113.376 331.600 C 114.379 331.600,115.200 331.420,115.200 331.200 C 115.200 330.980,115.920 330.800,116.800 330.800 C 117.680 330.800,118.400 330.620,118.400 330.400 C 118.400 330.180,118.940 330.000,119.600 330.000 C 120.260 330.000,120.800 329.820,120.800 329.600 C 120.800 329.380,121.160 329.200,121.600 329.200 C 122.040 329.200,122.400 329.020,122.400 328.800 C 122.400 328.580,122.835 328.400,123.367 328.400 C 123.898 328.400,124.393 328.265,124.467 328.100 C 124.631 327.731,127.927 326.000,128.466 326.000 C 128.681 326.000,129.108 325.775,129.415 325.500 C 130.416 324.602,131.022 324.202,131.558 324.086 C 131.848 324.023,132.349 323.708,132.671 323.386 C 132.994 323.064,133.385 322.800,133.542 322.800 C 133.698 322.800,135.038 321.658,136.519 320.262 C 139.167 317.766,139.236 317.731,140.606 318.159 C 141.373 318.399,142.000 318.732,142.000 318.898 C 142.000 319.064,142.360 319.200,142.800 319.200 C 143.240 319.200,143.600 319.380,143.600 319.600 C 143.600 319.820,144.399 320.000,145.376 320.000 C 146.353 320.000,147.264 320.180,147.400 320.400 C 147.536 320.620,149.077 320.800,150.824 320.800 C 152.675 320.800,154.000 320.633,154.000 320.400 C 154.000 320.180,154.900 320.000,156.000 320.000 C 157.100 320.000,158.000 319.820,158.000 319.600 C 158.000 319.380,158.463 319.200,159.029 319.200 C 159.594 319.200,160.329 318.928,160.661 318.596 C 160.993 318.264,161.430 318.095,161.632 318.220 C 161.835 318.345,162.000 318.257,162.000 318.024 C 162.000 317.791,162.320 317.600,162.712 317.600 C 163.103 317.600,163.683 317.240,164.000 316.800 C 164.317 316.360,164.798 316.000,165.068 316.000 C 165.339 316.000,165.744 315.685,165.968 315.300 C 166.192 314.915,166.381 314.758,166.388 314.950 C 166.405 315.452,169.200 312.331,169.200 311.810 C 169.200 311.572,169.560 311.117,170.000 310.800 C 170.440 310.483,170.800 309.903,170.800 309.512 C 170.800 309.120,170.980 308.800,171.200 308.800 C 171.420 308.800,171.600 308.528,171.600 308.195 C 171.600 307.862,171.758 307.277,171.951 306.895 C 172.938 304.940,173.244 302.773,173.240 297.748 C 173.237 294.483,173.067 292.107,172.818 291.858 C 172.588 291.628,172.400 291.114,172.400 290.715 C 172.400 290.316,172.243 289.677,172.050 289.295 C 170.336 285.890,169.758 284.913,169.128 284.353 C 168.728 283.997,168.400 283.536,168.400 283.328 C 168.400 282.870,166.291 280.800,165.825 280.800 C 165.643 280.800,165.203 280.484,164.847 280.098 C 164.152 279.343,160.808 277.600,160.056 277.600 C 159.805 277.600,159.600 277.420,159.600 277.200 C 159.600 276.980,159.075 276.800,158.433 276.800 C 157.792 276.800,157.197 276.590,157.111 276.334 C 156.995 275.986,156.637 275.979,155.696 276.307 C 155.003 276.548,153.483 276.648,152.318 276.528 C 149.668 276.255,144.333 277.233,141.745 278.466 C 140.675 278.975,139.665 279.454,139.500 279.529 C 139.335 279.605,139.200 278.948,139.200 278.069 C 139.200 266.496,130.013 255.559,117.600 252.355 C 111.638 250.816,101.178 250.288,95.800 251.254 M294.155 251.573 C 282.958 254.287,273.219 262.231,268.867 272.200 C 267.027 276.413,267.315 276.171,263.786 276.471 C 259.030 276.875,254.655 277.885,250.320 279.580 C 247.941 280.510,246.046 281.021,245.420 280.902 C 244.819 280.787,244.400 280.890,244.400 281.153 C 244.400 281.399,244.130 281.600,243.800 281.600 C 243.470 281.600,243.200 281.780,243.200 282.000 C 243.200 282.220,242.970 282.400,242.688 282.400 C 242.407 282.400,241.917 282.760,241.600 283.200 C 241.283 283.640,240.833 284.000,240.600 284.000 C 239.955 284.000,234.800 289.041,234.800 289.671 C 234.800 289.975,234.440 290.483,234.000 290.800 C 233.560 291.117,233.200 291.573,233.200 291.813 C 233.200 292.053,232.885 292.598,232.500 293.025 C 232.115 293.451,231.554 294.340,231.253 295.000 C 230.953 295.660,230.548 296.513,230.353 296.895 C 230.159 297.277,230.000 297.941,230.000 298.371 C 230.000 298.801,229.820 299.264,229.600 299.400 C 229.380 299.536,229.200 300.346,229.200 301.200 C 229.200 302.054,229.036 302.854,228.836 302.978 C 228.362 303.271,228.362 309.929,228.836 310.222 C 229.036 310.346,229.200 310.979,229.200 311.630 C 229.200 313.055,230.074 316.000,230.497 316.000 C 230.664 316.000,230.800 316.234,230.800 316.520 C 230.800 317.256,231.741 319.193,232.100 319.197 C 232.265 319.199,232.400 319.571,232.400 320.024 C 232.400 320.477,232.580 320.736,232.800 320.600 C 233.020 320.464,233.200 320.563,233.200 320.819 C 233.200 321.467,237.145 325.109,238.493 325.705 C 239.102 325.975,239.600 326.331,239.600 326.498 C 239.600 326.664,239.960 326.800,240.400 326.800 C 240.840 326.800,241.200 326.980,241.200 327.200 C 241.200 327.420,241.639 327.600,242.176 327.600 C 242.713 327.600,243.264 327.780,243.400 328.000 C 243.546 328.237,245.996 328.400,249.400 328.400 C 252.804 328.400,255.254 328.237,255.400 328.000 C 255.536 327.780,256.537 327.600,257.624 327.600 C 258.711 327.600,259.600 327.420,259.600 327.200 C 259.600 326.978,260.667 326.800,262.000 326.800 C 263.333 326.800,264.400 326.622,264.400 326.400 C 264.400 326.178,265.467 326.000,266.800 326.000 C 268.133 326.000,269.200 326.178,269.200 326.400 C 269.200 326.620,270.100 326.800,271.200 326.800 C 272.300 326.800,273.200 326.980,273.200 327.200 C 273.200 327.420,273.740 327.600,274.400 327.600 C 275.060 327.600,275.600 327.780,275.600 328.000 C 275.600 328.220,276.050 328.400,276.600 328.400 C 277.150 328.400,277.600 328.580,277.600 328.800 C 277.600 329.020,278.039 329.200,278.576 329.200 C 279.113 329.200,279.664 329.380,279.800 329.600 C 279.936 329.820,280.397 330.000,280.824 330.000 C 281.251 330.000,281.600 330.180,281.600 330.400 C 281.600 330.620,282.140 330.800,282.800 330.800 C 283.460 330.800,284.000 330.980,284.000 331.200 C 284.000 331.420,284.529 331.600,285.176 331.600 C 285.823 331.600,286.464 331.780,286.600 332.000 C 286.736 332.220,287.636 332.400,288.600 332.400 C 289.564 332.400,290.464 332.580,290.600 332.800 C 290.736 333.020,292.356 333.200,294.200 333.200 C 296.044 333.200,297.664 333.020,297.800 332.800 C 297.936 332.580,298.937 332.400,300.024 332.400 C 301.111 332.400,302.000 332.220,302.000 332.000 C 302.000 331.780,302.720 331.600,303.600 331.600 C 304.480 331.600,305.200 331.420,305.200 331.200 C 305.200 330.980,305.650 330.800,306.200 330.800 C 306.750 330.800,307.200 330.620,307.200 330.400 C 307.200 330.180,307.560 330.000,308.000 330.000 C 308.440 330.000,308.800 329.820,308.800 329.600 C 308.800 329.380,309.160 329.200,309.600 329.200 C 310.040 329.200,310.400 329.020,310.400 328.800 C 310.400 328.580,310.720 328.400,311.112 328.400 C 311.503 328.400,312.083 328.040,312.400 327.600 C 312.717 327.160,313.215 326.800,313.506 326.800 C 313.798 326.800,314.472 326.364,315.005 325.831 C 315.538 325.298,316.343 324.745,316.793 324.602 C 317.243 324.459,317.508 324.175,317.382 323.971 C 317.256 323.767,317.420 323.600,317.747 323.600 C 318.074 323.600,318.881 322.946,319.539 322.147 C 320.591 320.872,320.874 320.734,321.868 321.015 C 323.665 321.524,340.060 321.700,340.544 321.216 C 340.773 320.987,341.644 320.800,342.480 320.800 C 343.316 320.800,344.000 320.620,344.000 320.400 C 344.000 320.180,344.525 320.000,345.167 320.000 C 345.808 320.000,346.393 319.822,346.467 319.603 C 346.540 319.385,347.082 319.167,347.671 319.119 C 348.260 319.070,348.655 318.888,348.548 318.715 C 348.440 318.542,348.813 318.400,349.376 318.400 C 349.939 318.400,350.400 318.220,350.400 318.000 C 350.400 317.780,350.771 317.600,351.224 317.600 C 351.677 317.600,351.936 317.420,351.800 317.200 C 351.664 316.980,351.878 316.797,352.276 316.793 C 353.555 316.780,361.200 309.807,361.200 308.654 C 361.200 308.400,361.560 307.968,362.000 307.693 C 362.440 307.418,362.800 306.925,362.800 306.597 C 362.800 306.268,362.980 306.000,363.200 306.000 C 363.420 306.000,363.600 305.640,363.600 305.200 C 363.600 304.760,363.780 304.400,364.000 304.400 C 364.220 304.400,364.400 304.051,364.400 303.624 C 364.400 303.197,364.580 302.736,364.800 302.600 C 365.020 302.464,365.200 301.733,365.200 300.976 C 365.200 300.219,365.380 299.600,365.600 299.600 C 365.847 299.600,366.000 297.533,366.000 294.200 C 366.000 290.867,365.847 288.800,365.600 288.800 C 365.380 288.800,365.200 288.285,365.200 287.656 C 365.200 286.451,362.904 281.600,362.333 281.600 C 362.150 281.600,362.000 281.229,362.000 280.776 C 362.000 280.323,361.820 280.064,361.600 280.200 C 361.380 280.336,361.200 280.248,361.200 280.005 C 361.200 278.430,354.913 274.833,352.124 274.813 C 351.202 274.806,350.336 274.620,350.200 274.400 C 349.898 273.911,344.532 273.862,344.233 274.346 C 344.116 274.536,343.332 274.784,342.492 274.897 C 341.652 275.010,340.217 275.463,339.303 275.905 C 337.480 276.785,337.200 276.713,337.200 275.357 C 337.200 274.857,337.020 274.336,336.800 274.200 C 336.580 274.064,336.400 273.603,336.400 273.176 C 336.400 272.749,336.220 272.400,336.000 272.400 C 335.780 272.400,335.600 272.040,335.600 271.600 C 335.600 271.160,335.420 270.800,335.200 270.800 C 334.980 270.800,334.800 270.440,334.800 270.000 C 334.800 269.560,334.620 269.200,334.400 269.200 C 334.180 269.200,334.000 268.840,334.000 268.400 C 334.000 267.960,333.850 267.600,333.668 267.600 C 333.485 267.600,333.081 267.105,332.770 266.500 C 332.158 265.307,330.884 264.000,330.335 264.000 C 330.146 264.000,328.668 262.772,327.049 261.271 C 317.533 252.447,305.357 248.858,294.155 251.573 " stroke="none" fill="#e3ebeb" fill-rule="evenodd"></path><path id="path2" d="M178.400 113.384 C 169.007 114.866,160.232 117.894,153.400 122.013 C 152.300 122.676,151.130 123.334,150.800 123.476 C 150.094 123.780,146.690 126.036,146.400 126.393 C 146.290 126.528,145.570 127.077,144.800 127.614 C 143.081 128.811,142.322 129.439,138.230 133.051 C 134.428 136.406,132.844 138.084,128.648 143.200 C 124.290 148.514,124.400 148.370,124.400 148.771 C 124.400 148.970,124.255 149.193,124.077 149.267 C 122.841 149.776,115.427 162.796,112.384 169.800 C 111.907 170.900,111.279 172.340,110.991 173.000 C 110.702 173.660,110.235 174.920,109.952 175.800 C 109.668 176.680,109.293 177.571,109.118 177.780 C 108.943 177.989,108.800 178.538,108.800 179.000 C 108.800 179.462,108.651 180.011,108.470 180.220 C 108.288 180.429,107.910 181.410,107.631 182.400 C 107.351 183.390,106.960 184.513,106.761 184.895 C 106.562 185.277,106.400 186.031,106.400 186.571 C 106.400 187.111,106.240 187.652,106.044 187.773 C 105.849 187.894,105.592 188.579,105.473 189.296 C 105.355 190.013,105.056 191.410,104.809 192.400 C 104.387 194.088,103.974 195.996,103.207 199.800 C 102.812 201.755,101.740 208.069,101.203 211.600 C 100.150 218.521,99.054 232.317,98.589 244.500 L 98.348 250.800 104.274 250.800 C 110.665 250.800,116.312 251.638,120.126 253.153 C 120.745 253.399,121.305 253.600,121.370 253.600 C 121.544 253.600,122.005 249.605,122.408 244.600 C 123.213 234.610,125.052 223.671,127.151 216.400 C 127.373 215.630,127.723 214.370,127.929 213.600 C 128.631 210.975,130.469 205.801,130.835 205.420 C 131.036 205.211,131.200 204.808,131.200 204.525 C 131.200 202.898,139.219 188.081,140.793 186.800 C 140.928 186.690,141.477 185.970,142.012 185.200 C 147.765 176.926,159.328 167.856,168.600 164.343 C 181.095 159.610,194.644 159.659,209.400 164.493 C 215.060 166.347,227.068 172.590,228.400 174.371 C 228.510 174.518,229.230 175.077,230.000 175.612 C 232.637 177.446,240.125 184.561,242.827 187.800 C 247.061 192.877,251.919 199.989,254.438 204.800 C 255.187 206.230,255.890 207.490,256.000 207.600 C 256.478 208.078,257.200 209.639,257.200 210.195 C 257.200 210.528,257.380 210.800,257.600 210.800 C 257.820 210.800,258.000 211.045,258.000 211.344 C 258.000 211.643,258.564 213.038,259.253 214.444 C 259.942 215.850,260.662 217.405,260.853 217.900 C 261.044 218.395,261.363 219.205,261.563 219.700 C 264.261 226.394,267.730 237.928,269.171 245.000 C 269.440 246.320,269.819 248.030,270.013 248.800 C 270.208 249.570,270.471 250.830,270.599 251.600 C 270.726 252.370,271.003 253.900,271.213 255.000 C 271.876 258.459,272.436 261.739,272.660 263.474 L 272.876 265.148 275.272 262.586 C 279.249 258.336,284.740 254.723,290.400 252.633 L 292.200 251.968 291.913 248.284 C 291.165 238.689,290.397 231.030,289.637 225.600 C 289.305 223.225,289.056 221.688,288.051 215.800 C 287.144 210.488,285.313 202.784,283.391 196.200 C 281.671 190.305,280.465 186.838,278.346 181.700 C 278.097 181.095,277.751 180.240,277.578 179.800 C 277.127 178.657,271.299 166.833,270.480 165.400 C 267.964 160.998,263.366 153.974,261.429 151.571 C 260.973 151.006,260.150 149.942,259.600 149.209 C 256.486 145.056,248.035 136.487,243.195 132.576 C 239.855 129.877,233.041 125.200,232.449 125.200 C 232.239 125.200,232.007 125.065,231.933 124.900 C 231.860 124.735,230.990 124.168,230.000 123.641 C 219.073 117.816,211.061 115.206,197.967 113.203 C 194.496 112.672,182.195 112.786,178.400 113.384 " stroke="none" fill="#fbcc84" fill-rule="evenodd"></path><path id="path3" d="M186.600 67.200 C 186.464 67.420,184.743 67.600,182.776 67.600 C 180.659 67.600,179.200 67.763,179.200 68.000 C 179.200 68.220,178.210 68.400,177.000 68.400 C 175.790 68.400,174.800 68.580,174.800 68.800 C 174.800 69.020,174.026 69.200,173.080 69.200 C 172.134 69.200,171.189 69.371,170.979 69.581 C 170.770 69.790,169.924 70.007,169.099 70.063 C 168.275 70.118,167.600 70.307,167.600 70.482 C 167.600 70.657,167.208 70.800,166.728 70.800 C 165.808 70.800,163.472 71.460,162.305 72.049 C 161.923 72.242,161.248 72.400,160.805 72.400 C 160.362 72.400,160.000 72.580,160.000 72.800 C 160.000 73.020,159.460 73.200,158.800 73.200 C 158.140 73.200,157.600 73.380,157.600 73.600 C 157.600 73.820,157.060 74.000,156.400 74.000 C 155.740 74.000,155.200 74.160,155.200 74.357 C 155.200 74.553,154.705 74.853,154.100 75.024 C 152.694 75.421,152.795 75.386,151.474 75.934 C 150.855 76.190,150.244 76.400,150.118 76.400 C 149.592 76.400,146.400 78.167,146.400 78.458 C 146.400 78.632,146.130 78.671,145.800 78.545 C 145.470 78.418,145.200 78.514,145.200 78.757 C 145.200 79.001,144.840 79.200,144.400 79.200 C 143.960 79.200,143.600 79.346,143.600 79.525 C 143.600 79.704,142.978 80.095,142.218 80.393 C 141.458 80.691,140.906 81.047,140.990 81.185 C 141.075 81.322,140.755 81.463,140.278 81.499 C 139.802 81.535,139.349 81.752,139.273 81.982 C 139.196 82.212,138.893 82.400,138.600 82.400 C 138.307 82.400,138.007 82.567,137.933 82.770 C 137.860 82.974,137.530 83.199,137.200 83.270 C 136.870 83.342,136.327 83.670,135.994 84.000 C 135.196 84.791,134.053 85.520,132.700 86.102 C 132.095 86.362,131.600 86.716,131.600 86.888 C 131.600 87.059,131.357 87.200,131.059 87.200 C 130.762 87.200,129.954 87.740,129.263 88.400 C 128.572 89.060,127.906 89.600,127.782 89.600 C 127.658 89.600,126.981 90.139,126.278 90.798 C 125.575 91.457,124.775 91.997,124.500 91.998 C 124.225 91.999,124.000 92.210,124.000 92.467 C 124.000 92.723,123.886 92.820,123.747 92.681 C 123.608 92.542,123.023 92.924,122.447 93.529 C 121.871 94.135,120.770 95.068,120.000 95.602 C 118.137 96.895,117.587 97.454,117.886 97.752 C 118.022 97.889,117.939 98.000,117.701 98.000 C 116.938 98.000,105.200 110.023,105.200 110.803 C 105.200 111.047,105.020 111.136,104.800 111.000 C 104.580 110.864,104.400 110.958,104.400 111.208 C 104.400 111.458,103.680 112.354,102.800 113.200 C 101.920 114.046,101.200 114.977,101.200 115.270 C 101.200 115.563,100.660 116.312,100.000 116.935 C 99.340 117.558,98.800 118.241,98.800 118.452 C 98.800 118.663,98.350 119.286,97.800 119.836 C 97.250 120.386,96.800 121.000,96.800 121.200 C 96.800 121.400,96.395 121.985,95.900 122.500 C 95.405 123.015,94.951 123.665,94.891 123.944 C 94.832 124.224,94.427 124.834,93.991 125.301 C 93.556 125.769,93.200 126.387,93.200 126.675 C 93.200 126.964,93.034 127.200,92.832 127.200 C 92.629 127.200,92.345 127.742,92.199 128.403 C 92.054 129.065,91.770 129.505,91.567 129.380 C 91.365 129.255,91.200 129.523,91.200 129.976 C 91.200 130.429,91.042 130.800,90.849 130.800 C 90.655 130.800,90.273 131.340,90.000 132.000 C 89.727 132.660,89.345 133.200,89.151 133.200 C 88.958 133.200,88.800 133.560,88.800 134.000 C 88.800 134.440,88.620 134.800,88.400 134.800 C 88.180 134.800,88.000 135.160,88.000 135.600 C 88.000 136.040,87.820 136.400,87.600 136.400 C 87.380 136.400,87.200 136.760,87.200 137.200 C 87.200 137.640,87.020 138.000,86.800 138.000 C 86.580 138.000,86.400 138.360,86.400 138.800 C 86.400 139.240,86.220 139.600,86.000 139.600 C 85.780 139.600,85.600 139.960,85.600 140.400 C 85.600 140.840,85.420 141.200,85.200 141.200 C 84.980 141.200,84.800 141.470,84.800 141.800 C 84.800 142.130,84.620 142.400,84.400 142.400 C 84.180 142.400,84.000 142.627,84.000 142.904 C 84.000 143.182,83.285 144.847,82.410 146.604 C 81.536 148.362,80.816 150.115,80.810 150.500 C 80.805 150.885,80.620 151.200,80.400 151.200 C 80.180 151.200,80.000 151.549,80.000 151.976 C 80.000 152.403,79.820 152.864,79.600 153.000 C 79.380 153.136,79.200 153.687,79.200 154.224 C 79.200 154.761,79.020 155.200,78.800 155.200 C 78.580 155.200,78.400 155.549,78.400 155.976 C 78.400 156.403,78.220 156.864,78.000 157.000 C 77.780 157.136,77.600 157.676,77.600 158.200 C 77.600 158.724,77.443 159.250,77.252 159.368 C 77.060 159.486,76.765 160.172,76.596 160.892 C 76.188 162.627,76.246 162.465,75.618 163.600 C 75.314 164.150,75.112 164.600,75.169 164.600 C 75.434 164.600,74.668 167.634,74.355 167.828 C 74.160 167.949,74.000 168.656,74.000 169.400 C 74.000 170.144,73.820 170.864,73.600 171.000 C 73.380 171.136,73.200 171.676,73.200 172.200 C 73.200 172.724,73.020 173.264,72.800 173.400 C 72.580 173.536,72.400 174.267,72.400 175.024 C 72.400 175.781,72.220 176.400,72.000 176.400 C 71.780 176.400,71.600 177.019,71.600 177.776 C 71.600 178.533,71.420 179.264,71.200 179.400 C 70.980 179.536,70.800 180.267,70.800 181.024 C 70.800 181.781,70.620 182.400,70.400 182.400 C 70.180 182.400,70.000 183.300,70.000 184.400 C 70.000 185.500,69.820 186.400,69.600 186.400 C 69.380 186.400,69.200 187.300,69.200 188.400 C 69.200 189.500,69.020 190.400,68.800 190.400 C 68.580 190.400,68.400 191.289,68.400 192.376 C 68.400 193.463,68.220 194.464,68.000 194.600 C 67.780 194.736,67.600 195.726,67.600 196.800 C 67.600 197.874,67.401 198.876,67.157 199.026 C 66.849 199.217,66.879 199.404,67.257 199.644 C 67.657 199.897,67.668 199.989,67.300 199.994 C 66.952 199.998,66.800 200.790,66.800 202.600 C 66.800 204.067,66.626 205.200,66.400 205.200 C 66.162 205.200,66.000 206.725,66.000 208.976 C 66.000 211.053,65.839 212.852,65.642 212.974 C 65.444 213.096,65.256 215.576,65.223 218.486 C 65.186 221.737,64.998 223.877,64.736 224.039 C 64.456 224.213,64.496 224.377,64.855 224.520 C 65.257 224.680,65.267 224.745,64.891 224.768 C 64.261 224.807,64.191 253.023,64.819 253.412 C 65.032 253.543,65.200 256.189,65.200 259.400 C 65.200 262.804,65.363 265.254,65.600 265.400 C 65.820 265.536,66.000 266.777,66.000 268.157 C 66.000 271.630,66.227 271.599,68.140 267.866 C 73.124 258.147,82.930 252.278,96.800 250.713 L 97.800 250.600 98.096 243.200 C 99.435 209.678,104.324 185.046,113.281 166.687 C 114.117 164.975,114.800 163.499,114.800 163.407 C 114.800 162.962,120.770 153.022,122.732 150.200 C 136.355 130.604,154.852 117.426,174.000 113.677 C 175.210 113.440,177.222 113.046,178.470 112.801 C 181.434 112.220,195.838 112.220,199.190 112.802 C 206.242 114.025,206.887 114.167,212.000 115.628 C 217.911 117.317,226.413 120.949,231.205 123.832 C 232.638 124.695,234.274 125.640,234.840 125.933 C 236.486 126.784,243.417 132.082,247.226 135.401 C 261.098 147.486,273.075 165.739,280.610 186.280 C 282.573 191.632,282.628 191.796,283.614 195.200 C 284.092 196.850,284.630 198.650,284.810 199.200 C 285.306 200.718,287.167 208.630,287.961 212.600 C 290.116 223.366,292.402 242.081,292.401 248.946 L 292.400 251.292 294.700 250.946 C 302.681 249.745,311.637 250.935,317.325 253.951 C 320.315 255.537,322.569 256.854,322.800 257.149 C 322.910 257.289,323.652 257.890,324.448 258.483 C 325.245 259.076,326.814 260.484,327.936 261.612 C 329.058 262.740,330.161 263.548,330.388 263.408 C 330.916 263.081,330.925 261.324,330.400 261.000 C 330.152 260.846,330.000 257.156,330.000 251.256 C 330.000 245.854,329.838 241.596,329.623 241.380 C 329.416 241.171,329.149 238.840,329.029 236.200 C 328.572 226.126,328.335 223.200,327.973 223.200 C 327.768 223.200,327.600 221.760,327.600 220.000 C 327.600 218.133,327.433 216.800,327.200 216.800 C 326.971 216.800,326.800 215.600,326.800 214.000 C 326.800 212.400,326.629 211.200,326.400 211.200 C 326.178 211.200,326.000 210.141,326.000 208.824 C 326.000 207.517,325.845 206.351,325.656 206.234 C 325.466 206.117,325.189 204.802,325.039 203.311 C 324.755 200.473,324.680 199.980,323.986 196.400 C 323.751 195.190,323.459 193.524,323.337 192.697 C 323.215 191.871,322.955 191.095,322.758 190.974 C 322.561 190.852,322.400 190.144,322.400 189.400 C 322.400 188.656,322.220 187.936,322.000 187.800 C 321.780 187.664,321.600 186.879,321.600 186.056 C 321.600 185.233,321.451 184.389,321.270 184.180 C 320.841 183.687,319.970 180.856,319.891 179.700 C 319.857 179.205,319.688 178.800,319.515 178.800 C 319.342 178.800,319.200 178.206,319.200 177.480 C 319.200 176.754,319.051 175.989,318.870 175.780 C 318.688 175.571,318.310 174.590,318.031 173.600 C 317.751 172.610,317.360 171.487,317.161 171.105 C 316.962 170.723,316.800 170.136,316.800 169.800 C 316.800 169.464,316.592 168.787,316.338 168.295 C 315.342 166.369,315.200 165.983,315.200 165.205 C 315.200 164.762,315.020 164.400,314.800 164.400 C 314.580 164.400,314.400 163.961,314.400 163.424 C 314.400 162.887,314.220 162.336,314.000 162.200 C 313.780 162.064,313.600 161.513,313.600 160.976 C 313.600 160.439,313.420 160.000,313.200 160.000 C 312.980 160.000,312.800 159.640,312.800 159.200 C 312.800 158.760,312.620 158.400,312.400 158.400 C 312.180 158.400,312.000 157.961,312.000 157.424 C 312.000 156.887,311.820 156.336,311.600 156.200 C 311.380 156.064,311.200 155.603,311.200 155.176 C 311.200 154.749,311.020 154.400,310.800 154.400 C 310.580 154.400,310.400 154.040,310.400 153.600 C 310.400 153.160,310.220 152.800,310.000 152.800 C 309.780 152.800,309.600 152.457,309.600 152.038 C 309.600 151.619,309.257 150.584,308.837 149.738 C 308.418 148.892,307.776 147.480,307.410 146.600 C 306.346 144.036,305.834 143.036,305.296 142.468 C 305.019 142.175,304.885 141.785,304.999 141.602 C 305.112 141.418,305.037 141.208,304.832 141.134 C 304.628 141.060,304.401 140.737,304.330 140.416 C 304.258 140.094,303.885 139.475,303.500 139.040 C 303.115 138.605,302.800 138.013,302.800 137.725 C 302.800 137.436,302.620 137.200,302.400 137.200 C 302.180 137.200,302.000 136.840,302.000 136.400 C 302.000 135.960,301.820 135.600,301.600 135.600 C 301.380 135.600,301.200 135.364,301.200 135.075 C 301.200 134.787,300.840 134.164,300.400 133.692 C 299.960 133.220,299.600 132.556,299.600 132.217 C 299.600 131.878,299.420 131.600,299.200 131.600 C 298.980 131.600,298.800 131.319,298.800 130.976 C 298.800 130.633,298.620 130.464,298.400 130.600 C 298.040 130.822,297.827 130.297,297.953 129.500 C 297.979 129.335,297.820 129.200,297.600 129.200 C 297.380 129.200,297.200 128.930,297.200 128.600 C 297.200 128.270,297.020 128.000,296.800 128.000 C 296.580 128.000,296.400 127.730,296.400 127.400 C 296.400 127.070,296.220 126.800,296.000 126.800 C 295.780 126.800,295.600 126.612,295.600 126.382 C 295.600 126.152,295.147 125.510,294.592 124.956 C 294.038 124.402,293.706 123.752,293.854 123.512 C 294.015 123.251,293.938 123.191,293.662 123.362 C 293.401 123.523,293.200 123.415,293.200 123.112 C 293.200 122.817,292.840 122.317,292.400 122.000 C 291.960 121.683,291.599 121.148,291.598 120.812 C 291.597 120.475,290.801 119.361,289.829 118.335 C 288.858 117.309,288.142 116.391,288.239 116.295 C 288.335 116.198,287.601 115.306,286.607 114.312 C 285.613 113.318,284.800 112.384,284.800 112.236 C 284.800 112.088,282.370 109.535,279.400 106.564 C 276.430 103.592,274.000 100.989,274.000 100.780 C 274.000 100.571,273.700 100.400,273.333 100.400 C 272.967 100.400,272.776 100.291,272.909 100.158 C 273.175 99.892,271.431 98.001,270.918 97.998 C 270.743 97.997,269.443 96.917,268.028 95.598 C 266.613 94.279,265.261 93.200,265.024 93.200 C 264.786 93.200,264.107 92.750,263.513 92.200 C 262.920 91.650,262.236 91.200,261.994 91.200 C 261.751 91.200,261.681 90.992,261.838 90.738 C 262.014 90.453,261.948 90.385,261.665 90.560 C 261.412 90.716,260.750 90.386,260.185 89.822 C 259.623 89.260,258.945 88.800,258.678 88.800 C 258.411 88.800,257.968 88.440,257.693 88.000 C 257.418 87.560,256.824 87.200,256.373 87.200 C 255.922 87.200,255.664 87.020,255.800 86.800 C 255.936 86.580,255.767 86.400,255.424 86.400 C 255.081 86.400,254.800 86.220,254.800 86.000 C 254.800 85.780,254.530 85.600,254.200 85.600 C 253.870 85.600,253.600 85.450,253.600 85.268 C 253.600 85.085,253.105 84.680,252.500 84.368 C 251.895 84.055,251.051 83.485,250.625 83.100 C 250.198 82.715,249.613 82.400,249.325 82.400 C 249.036 82.400,248.800 82.220,248.800 82.000 C 248.800 81.780,248.440 81.600,248.000 81.600 C 247.560 81.600,247.200 81.420,247.200 81.200 C 247.200 80.980,246.840 80.800,246.400 80.800 C 245.960 80.800,245.600 80.620,245.600 80.400 C 245.600 80.180,245.240 80.000,244.800 80.000 C 244.360 80.000,244.000 79.820,244.000 79.600 C 244.000 79.380,243.640 79.200,243.200 79.200 C 242.760 79.200,242.400 79.020,242.400 78.800 C 242.400 78.580,242.055 78.400,241.633 78.400 C 241.212 78.400,240.807 78.265,240.733 78.100 C 240.543 77.671,237.376 76.195,234.800 75.335 C 233.590 74.931,232.540 74.465,232.467 74.300 C 232.393 74.135,231.808 74.000,231.167 74.000 C 230.525 74.000,230.000 73.820,230.000 73.600 C 230.000 73.380,229.460 73.200,228.800 73.200 C 228.140 73.200,227.600 73.020,227.600 72.800 C 227.600 72.580,227.060 72.400,226.400 72.400 C 225.740 72.400,225.200 72.220,225.200 72.000 C 225.200 71.780,224.750 71.600,224.200 71.600 C 223.650 71.600,223.200 71.420,223.200 71.200 C 223.200 70.980,222.480 70.800,221.600 70.800 C 220.720 70.800,220.000 70.620,220.000 70.400 C 220.000 70.180,219.280 70.000,218.400 70.000 C 217.520 70.000,216.800 69.820,216.800 69.600 C 216.800 69.380,215.979 69.200,214.976 69.200 C 213.973 69.200,213.245 69.050,213.358 68.868 C 213.471 68.685,212.541 68.494,211.290 68.443 C 210.040 68.393,208.923 68.207,208.809 68.031 C 208.694 67.854,206.980 67.674,205.000 67.630 C 203.020 67.586,201.229 67.382,201.020 67.175 C 200.501 66.662,186.918 66.686,186.600 67.200 " stroke="none" fill="#fc9c84" fill-rule="evenodd"></path><path id="path4" d="M183.600 112.450 C 170.908 113.140,159.232 117.204,147.800 124.910 C 138.740 131.018,129.790 140.047,122.732 150.200 C 120.770 153.022,114.800 162.962,114.800 163.407 C 114.800 163.499,114.117 164.975,113.281 166.687 C 109.464 174.510,103.494 192.425,104.131 194.142 C 104.225 194.394,104.420 194.060,104.565 193.400 C 104.709 192.740,105.002 191.647,105.214 190.972 C 105.426 190.296,105.600 189.362,105.600 188.895 C 105.600 188.429,105.780 187.936,106.000 187.800 C 106.220 187.664,106.400 187.111,106.400 186.571 C 106.400 186.031,106.562 185.277,106.761 184.895 C 106.960 184.513,107.351 183.390,107.631 182.400 C 107.910 181.410,108.288 180.429,108.470 180.220 C 108.651 180.011,108.800 179.462,108.800 179.000 C 108.800 178.538,108.943 177.989,109.118 177.780 C 109.293 177.571,109.668 176.680,109.952 175.800 C 110.235 174.920,110.702 173.660,110.991 173.000 C 111.279 172.340,111.907 170.900,112.384 169.800 C 115.427 162.796,122.841 149.776,124.077 149.267 C 124.255 149.193,124.400 148.970,124.400 148.771 C 124.400 148.370,124.290 148.514,128.648 143.200 C 132.844 138.084,134.428 136.406,138.230 133.051 C 142.322 129.439,143.081 128.811,144.800 127.614 C 145.570 127.077,146.290 126.531,146.400 126.400 C 146.729 126.008,148.897 124.552,150.500 123.647 C 151.325 123.181,152.675 122.412,153.500 121.938 C 166.254 114.610,184.166 111.092,197.967 113.203 C 211.061 115.206,219.073 117.816,230.000 123.641 C 230.990 124.168,231.860 124.735,231.933 124.900 C 232.007 125.065,232.239 125.200,232.449 125.200 C 233.041 125.200,239.855 129.877,243.195 132.576 C 248.035 136.487,256.486 145.056,259.600 149.209 C 260.150 149.942,260.973 151.006,261.429 151.571 C 263.366 153.974,267.964 160.998,270.480 165.400 C 271.282 166.803,277.090 178.579,277.631 179.900 C 277.834 180.395,278.156 181.205,278.346 181.700 C 278.537 182.195,278.880 183.050,279.109 183.600 C 282.300 191.265,286.355 205.866,288.051 215.800 C 289.060 221.709,289.305 223.226,289.634 225.600 C 290.503 231.861,291.234 239.208,291.834 247.710 C 292.156 252.272,292.022 252.106,294.821 251.398 L 297.000 250.847 294.700 251.070 L 292.400 251.292 292.401 248.946 C 292.402 242.081,290.116 223.366,287.961 212.600 C 287.167 208.630,285.306 200.718,284.810 199.200 C 284.630 198.650,284.092 196.850,283.614 195.200 C 282.628 191.796,282.573 191.632,280.610 186.280 C 273.075 165.739,261.098 147.486,247.226 135.401 C 243.417 132.082,236.486 126.784,234.840 125.933 C 234.274 125.640,232.638 124.695,231.205 123.832 C 226.413 120.949,217.911 117.317,212.000 115.628 C 201.647 112.671,194.420 111.862,183.600 112.450 M181.677 161.140 C 181.170 161.283,184.220 161.400,188.455 161.400 C 192.691 161.400,195.626 161.286,194.978 161.147 C 193.421 160.813,182.856 160.807,181.677 161.140 M176.800 162.021 C 176.370 162.314,176.654 162.354,177.800 162.162 C 179.784 161.830,180.104 161.598,178.567 161.606 C 177.925 161.609,177.130 161.796,176.800 162.021 M198.200 162.000 C 198.860 162.168,199.760 162.314,200.200 162.325 L 201.000 162.344 200.200 162.000 C 199.760 161.811,198.860 161.665,198.200 161.675 L 197.000 161.695 198.200 162.000 M173.200 162.800 C 172.413 163.309,173.816 163.309,175.000 162.800 C 175.733 162.485,175.716 162.454,174.800 162.434 C 174.250 162.422,173.530 162.587,173.200 162.800 M202.200 162.800 C 203.384 163.309,204.787 163.309,204.000 162.800 C 203.670 162.587,202.950 162.422,202.400 162.434 C 201.484 162.454,201.467 162.485,202.200 162.800 M170.800 163.600 C 170.267 163.945,170.267 163.988,170.800 163.988 C 171.130 163.988,171.670 163.813,172.000 163.600 C 172.533 163.255,172.533 163.212,172.000 163.212 C 171.670 163.212,171.130 163.387,170.800 163.600 M205.400 163.600 C 206.596 164.114,207.595 164.114,206.800 163.600 C 206.470 163.387,205.840 163.222,205.400 163.234 L 204.600 163.256 205.400 163.600 M208.000 164.400 C 208.330 164.613,208.870 164.788,209.200 164.788 C 209.733 164.788,209.733 164.745,209.200 164.400 C 208.870 164.187,208.330 164.012,208.000 164.012 C 207.467 164.012,207.467 164.055,208.000 164.400 M162.932 166.980 C 155.314 171.038,146.760 178.467,142.066 185.100 C 140.497 187.317,141.425 186.530,143.513 183.873 C 149.273 176.543,157.293 169.994,164.960 166.359 C 166.742 165.513,167.930 164.820,167.600 164.817 C 167.270 164.814,165.169 165.787,162.932 166.980 M210.000 164.937 C 210.000 165.012,211.305 165.582,212.900 166.202 C 216.777 167.711,222.824 170.888,225.900 173.031 C 227.275 173.989,228.398 174.644,228.395 174.487 C 228.371 173.185,210.000 163.648,210.000 164.937 M229.000 175.084 C 229.220 175.311,231.341 177.150,233.713 179.172 C 238.374 183.143,243.965 189.406,248.041 195.222 C 250.934 199.349,251.814 200.509,251.360 199.600 C 250.465 197.807,245.852 191.428,242.827 187.800 C 241.573 186.297,234.206 178.946,232.597 177.593 C 231.212 176.428,228.406 174.470,229.000 175.084 M139.021 189.258 C 136.344 193.412,132.626 200.359,132.921 200.654 C 133.016 200.749,133.600 199.786,134.219 198.513 C 135.646 195.583,139.030 189.800,140.313 188.100 C 140.853 187.385,141.139 186.802,140.947 186.803 C 140.756 186.805,139.889 187.910,139.021 189.258 M103.029 198.314 C 102.626 200.357,102.397 202.131,102.522 202.255 C 102.646 202.380,102.859 201.788,102.995 200.941 C 103.130 200.093,103.429 198.657,103.659 197.748 C 103.889 196.839,104.007 195.759,103.920 195.348 C 103.834 194.937,103.433 196.271,103.029 198.314 M252.507 202.100 C 253.048 203.035,253.709 204.220,253.977 204.734 C 254.246 205.248,254.548 205.586,254.649 205.484 C 254.860 205.273,252.075 200.400,251.743 200.400 C 251.622 200.400,251.966 201.165,252.507 202.100 M131.872 202.619 C 131.502 203.393,131.213 204.246,131.228 204.514 C 131.244 204.781,131.608 204.209,132.037 203.242 C 132.971 201.137,132.831 200.608,131.872 202.619 M102.000 203.081 C 102.000 203.309,101.752 205.004,101.448 206.848 C 99.756 217.120,98.676 228.842,98.098 243.200 L 97.800 250.600 96.800 250.713 C 87.039 251.814,78.496 255.467,73.200 260.804 C 70.559 263.465,69.989 264.262,68.140 267.866 C 67.219 269.663,66.361 271.028,66.233 270.900 C 66.105 270.771,66.000 270.877,66.000 271.133 C 66.000 272.343,66.847 271.306,68.406 268.188 C 73.024 258.952,82.753 252.901,95.419 251.388 C 98.422 251.030,98.326 251.241,98.591 244.391 C 99.061 232.272,100.181 218.142,101.176 211.800 C 101.383 210.480,101.769 208.001,102.034 206.291 C 102.299 204.582,102.400 203.067,102.258 202.925 C 102.116 202.783,102.000 202.853,102.000 203.081 M130.223 206.606 C 129.322 208.764,129.511 209.328,130.437 207.242 C 130.866 206.275,131.134 205.400,131.032 205.298 C 130.930 205.197,130.566 205.785,130.223 206.606 M256.278 208.995 C 256.644 209.762,257.021 210.313,257.115 210.218 C 257.360 209.974,256.266 207.600,255.909 207.600 C 255.746 207.600,255.912 208.228,256.278 208.995 M129.000 210.000 C 128.850 210.473,128.817 210.950,128.927 211.060 C 129.037 211.170,129.250 210.873,129.400 210.400 C 129.550 209.927,129.583 209.450,129.473 209.340 C 129.363 209.230,129.150 209.527,129.000 210.000 M128.273 212.153 C 128.123 212.545,128.011 213.166,128.025 213.533 C 128.042 213.975,128.181 213.874,128.437 213.234 C 128.649 212.703,128.761 212.082,128.685 211.854 C 128.609 211.627,128.424 211.761,128.273 212.153 M258.925 214.500 C 261.942 221.653,264.933 229.871,265.803 233.400 C 265.965 234.060,266.173 234.400,266.264 234.156 C 266.474 233.592,263.340 223.996,261.509 219.600 C 261.280 219.050,260.955 218.240,260.787 217.800 C 260.036 215.834,259.144 214.000,258.938 214.000 C 258.815 214.000,258.809 214.225,258.925 214.500 M127.473 214.953 C 127.323 215.345,127.211 215.966,127.225 216.333 C 127.242 216.775,127.381 216.674,127.637 216.034 C 127.849 215.503,127.961 214.882,127.885 214.654 C 127.809 214.427,127.624 214.561,127.473 214.953 M126.649 217.815 C 126.512 218.173,126.416 218.856,126.436 219.333 C 126.462 219.947,126.585 219.808,126.859 218.856 C 127.257 217.472,127.094 216.658,126.649 217.815 M125.849 221.015 C 125.712 221.373,125.618 222.146,125.640 222.733 C 125.673 223.591,125.752 223.495,126.046 222.240 C 126.422 220.639,126.295 219.853,125.849 221.015 M125.073 224.553 C 124.923 224.945,124.818 225.836,124.840 226.533 C 124.879 227.767,124.890 227.759,125.249 226.227 C 125.645 224.537,125.524 223.379,125.073 224.553 M124.273 228.953 C 124.123 229.345,124.020 230.326,124.044 231.133 L 124.088 232.600 124.442 230.800 C 124.822 228.870,124.722 227.783,124.273 228.953 M123.476 234.010 C 123.330 234.555,123.231 235.900,123.256 237.000 L 123.301 239.000 123.644 236.400 C 124.007 233.641,123.917 232.360,123.476 234.010 M266.434 235.400 C 266.422 235.840,266.587 236.470,266.800 236.800 C 267.314 237.595,267.314 236.596,266.800 235.400 L 266.456 234.600 266.434 235.400 M267.268 238.200 C 267.262 238.640,267.411 239.360,267.600 239.800 C 268.038 240.819,268.038 239.768,267.600 238.400 C 267.343 237.596,267.277 237.557,267.268 238.200 M122.653 240.436 C 122.514 241.131,122.425 242.982,122.456 244.550 C 122.511 247.354,122.517 247.335,122.840 243.417 C 123.175 239.342,123.103 238.187,122.653 240.436 M268.056 241.400 C 268.056 241.840,268.211 242.560,268.400 243.000 L 268.744 243.800 268.744 243.000 C 268.744 242.560,268.589 241.840,268.400 241.400 L 268.056 240.600 268.056 241.400 M268.856 245.000 C 268.856 245.440,269.011 246.160,269.200 246.600 L 269.544 247.400 269.544 246.600 C 269.544 246.160,269.389 245.440,269.200 245.000 L 268.856 244.200 268.856 245.000 M121.820 250.518 C 121.645 252.013,121.600 253.333,121.718 253.452 C 122.011 253.744,122.522 249.495,122.308 248.553 C 122.213 248.139,121.994 249.023,121.820 250.518 M269.634 249.000 C 269.672 250.366,270.338 251.642,270.366 250.400 C 270.378 249.850,270.213 249.130,270.000 248.800 C 269.680 248.305,269.616 248.340,269.634 249.000 M299.516 250.697 C 300.899 250.775,303.059 250.774,304.316 250.695 C 305.572 250.616,304.440 250.552,301.800 250.553 C 299.160 250.553,298.132 250.618,299.516 250.697 M309.000 251.396 C 316.151 253.213,321.535 256.159,327.049 261.271 C 329.895 263.910,330.800 264.466,330.800 263.576 C 330.800 263.343,330.614 263.267,330.388 263.408 C 330.161 263.548,329.058 262.740,327.936 261.612 C 326.814 260.484,325.245 259.076,324.448 258.483 C 323.652 257.890,322.910 257.289,322.800 257.149 C 322.569 256.854,320.315 255.537,317.325 253.951 C 314.914 252.672,309.160 250.780,307.879 250.844 C 307.396 250.869,307.900 251.117,309.000 251.396 M270.446 252.800 C 270.465 253.130,270.624 253.850,270.800 254.400 L 271.120 255.400 271.154 254.400 C 271.173 253.850,271.013 253.130,270.800 252.800 C 270.455 252.267,270.416 252.267,270.446 252.800 M271.275 257.000 C 271.286 257.440,271.432 258.340,271.600 259.000 L 271.905 260.200 271.925 259.000 C 271.935 258.340,271.789 257.440,271.600 257.000 L 271.256 256.200 271.275 257.000 M272.053 261.800 C 272.076 262.240,272.232 263.140,272.400 263.800 L 272.705 265.000 272.747 263.600 C 272.769 262.830,272.613 261.930,272.400 261.600 C 272.081 261.106,272.020 261.142,272.053 261.800 " stroke="none" fill="#f8be85" fill-rule="evenodd"></path></g></svg>