<svg id="svg" version="1.1" xmlns="http://www.w3.org/2000/svg" xmlns:xlink="http://www.w3.org/1999/xlink" width="400" height="400" viewBox="0, 0, 400,400"><g id="svgg"><path id="path0" d="M199.206 85.900 C 199.203 86.175,198.739 86.400,198.176 86.400 C 197.505 86.400,197.251 86.559,197.438 86.862 C 197.634 87.178,197.547 87.213,197.162 86.973 C 196.302 86.436,195.601 86.420,195.594 86.935 C 195.590 87.230,195.480 87.254,195.294 87.000 C 194.822 86.358,193.446 86.539,192.864 87.319 C 192.502 87.805,192.177 87.913,191.863 87.652 C 191.556 87.397,191.058 87.468,190.399 87.861 C 189.710 88.271,189.648 88.377,190.200 88.204 C 190.827 88.007,190.896 88.058,190.517 88.439 C 190.147 88.812,189.902 88.816,189.470 88.458 C 189.031 88.094,188.791 88.129,188.389 88.613 C 188.105 88.956,187.636 89.146,187.349 89.036 C 187.061 88.925,186.729 88.992,186.610 89.183 C 186.492 89.375,186.621 89.623,186.898 89.734 C 187.174 89.846,187.006 89.951,186.524 89.968 C 186.042 89.986,185.536 90.180,185.400 90.400 C 185.264 90.620,184.843 90.800,184.465 90.800 C 184.086 90.800,183.517 91.160,183.201 91.599 C 182.822 92.125,182.364 92.316,181.862 92.156 C 181.362 91.998,181.194 92.067,181.374 92.357 C 181.618 92.753,181.126 92.978,180.300 92.847 C 180.135 92.821,180.045 93.025,180.100 93.300 C 180.156 93.579,179.891 93.748,179.500 93.682 C 179.115 93.618,178.800 93.760,178.800 93.999 C 178.800 94.238,178.429 94.831,177.975 95.317 C 177.212 96.134,177.172 96.140,177.439 95.400 C 177.598 94.960,177.603 94.711,177.451 94.846 C 177.299 94.981,177.095 95.508,176.997 96.016 C 176.800 97.041,176.045 97.675,175.457 97.312 C 175.248 97.182,175.206 97.285,175.364 97.541 C 175.524 97.801,175.375 98.111,175.025 98.246 C 174.681 98.378,174.400 98.826,174.400 99.243 C 174.400 99.659,174.209 100.000,173.976 100.000 C 173.743 100.000,173.654 100.163,173.777 100.363 C 173.900 100.562,173.620 100.626,173.155 100.504 C 172.448 100.319,172.351 100.417,172.568 101.099 C 172.863 102.029,171.795 103.367,171.100 102.938 C 170.826 102.769,170.755 102.905,170.908 103.305 C 171.172 103.993,170.406 105.992,169.876 105.997 C 169.698 105.999,169.664 106.180,169.800 106.400 C 169.936 106.620,169.837 106.800,169.581 106.800 C 169.324 106.800,169.216 107.064,169.340 107.387 C 169.464 107.710,169.415 108.067,169.231 108.181 C 169.047 108.294,168.943 108.927,168.999 109.587 C 169.055 110.246,168.948 110.692,168.762 110.577 C 168.327 110.308,167.842 112.210,168.144 112.999 C 168.271 113.330,168.231 113.600,168.054 113.600 C 167.878 113.600,167.733 113.870,167.733 114.200 C 167.733 114.530,167.875 114.800,168.047 114.800 C 168.220 114.800,168.022 115.557,167.608 116.482 C 167.193 117.408,166.944 118.309,167.053 118.485 C 167.235 118.780,167.492 120.838,167.793 124.400 C 167.858 125.170,167.931 126.036,167.955 126.324 C 167.980 126.612,168.180 126.736,168.400 126.600 C 168.620 126.464,168.815 126.498,168.833 126.676 C 168.852 126.854,168.911 127.397,168.965 127.881 C 169.019 128.366,168.914 128.671,168.732 128.558 C 168.549 128.445,168.400 128.653,168.400 129.019 C 168.400 129.426,168.618 129.602,168.961 129.470 C 169.294 129.343,169.603 129.569,169.723 130.028 C 169.834 130.453,169.762 130.700,169.563 130.577 C 169.363 130.454,169.200 130.653,169.200 131.019 C 169.200 131.447,169.415 131.603,169.800 131.455 C 170.221 131.294,170.404 131.491,170.412 132.113 C 170.428 133.239,172.162 136.097,172.589 135.699 C 172.765 135.535,172.821 135.890,172.712 136.488 C 172.604 137.086,172.640 137.499,172.791 137.405 C 172.943 137.311,173.502 137.784,174.034 138.455 C 174.565 139.126,175.442 140.154,175.982 140.738 C 176.522 141.322,176.972 141.890,176.982 142.000 C 176.992 142.110,177.135 142.155,177.300 142.100 C 177.465 142.045,177.600 142.281,177.600 142.624 C 177.600 142.967,177.780 143.136,178.000 143.000 C 178.220 142.864,178.400 143.002,178.400 143.307 C 178.400 144.150,180.138 145.600,181.149 145.600 C 181.643 145.600,181.942 145.771,181.812 145.980 C 181.683 146.189,181.948 146.558,182.400 146.800 C 182.852 147.042,183.127 147.394,183.011 147.583 C 182.894 147.771,183.134 147.838,183.544 147.730 C 184.006 147.610,184.389 147.793,184.550 148.213 C 184.761 148.763,184.921 148.797,185.405 148.396 C 185.890 147.993,186.000 148.022,186.000 148.551 C 186.000 149.135,186.458 149.380,187.300 149.247 C 187.465 149.221,187.600 149.391,187.600 149.624 C 187.600 149.857,187.761 149.948,187.958 149.826 C 188.155 149.704,188.427 149.894,188.563 150.248 C 188.719 150.655,189.101 150.815,189.605 150.683 C 190.042 150.568,190.400 150.626,190.400 150.810 C 190.400 151.162,191.982 151.816,192.500 151.679 C 192.965 151.557,192.854 152.719,192.373 153.017 C 192.138 153.162,192.038 153.521,192.150 153.815 C 192.263 154.108,192.177 154.408,191.960 154.480 C 191.742 154.553,191.534 155.019,191.496 155.516 C 191.455 156.071,191.230 156.344,190.914 156.222 C 190.594 156.100,190.400 156.348,190.400 156.881 C 190.400 157.352,190.131 158.035,189.801 158.399 C 189.472 158.762,189.163 159.542,189.114 160.130 C 189.065 160.719,188.885 161.200,188.713 161.200 C 188.541 161.200,188.397 161.605,188.394 162.100 C 188.389 162.828,188.314 162.885,188.000 162.400 C 187.742 162.000,187.610 161.967,187.606 162.300 C 187.595 163.213,187.498 163.396,186.746 163.923 C 186.336 164.210,186.000 164.885,186.000 165.423 C 186.000 165.996,185.767 166.400,185.437 166.400 C 185.072 166.400,184.948 166.680,185.084 167.200 C 185.234 167.774,185.096 168.000,184.598 168.000 C 183.995 168.000,183.975 168.090,184.451 168.677 C 184.753 169.049,184.790 169.227,184.533 169.073 C 184.233 168.894,183.970 169.227,183.800 170.000 C 183.654 170.664,183.370 171.105,183.167 170.980 C 182.965 170.855,182.800 171.194,182.800 171.734 C 182.800 172.273,182.519 172.822,182.175 172.954 C 181.831 173.086,181.662 173.377,181.800 173.600 C 181.938 173.823,181.781 174.109,181.451 174.236 C 181.121 174.363,180.948 174.721,181.068 175.033 C 181.188 175.345,181.074 175.600,180.816 175.600 C 180.528 175.600,180.444 175.910,180.600 176.400 C 180.780 176.968,180.672 177.200,180.227 177.200 C 179.682 177.200,179.397 177.917,179.553 178.900 C 179.579 179.065,179.347 179.200,179.037 179.200 C 178.658 179.200,178.548 179.481,178.700 180.063 C 178.854 180.649,178.779 180.834,178.468 180.642 C 178.170 180.458,178.093 180.577,178.247 180.979 C 178.379 181.322,178.276 181.600,178.019 181.600 C 177.763 181.600,177.664 181.780,177.800 182.000 C 177.936 182.220,177.869 182.400,177.651 182.400 C 177.248 182.400,176.572 183.941,176.724 184.511 C 176.770 184.682,176.536 184.927,176.204 185.054 C 175.872 185.181,175.600 185.586,175.600 185.954 C 175.600 186.321,175.351 186.977,175.047 187.411 C 174.743 187.845,174.485 188.290,174.473 188.400 C 174.396 189.118,173.863 189.963,173.593 189.796 C 173.415 189.686,173.319 190.042,173.379 190.587 C 173.439 191.132,173.347 191.491,173.176 191.385 C 173.005 191.279,172.652 191.837,172.392 192.624 C 172.132 193.412,171.694 194.142,171.419 194.248 C 171.118 194.363,170.998 194.855,171.117 195.479 C 171.251 196.180,171.171 196.429,170.870 196.243 C 170.602 196.078,170.321 196.374,170.169 196.981 C 170.029 197.538,169.736 197.884,169.517 197.749 C 169.299 197.614,169.336 197.907,169.600 198.400 C 169.864 198.893,169.902 199.187,169.685 199.053 C 169.227 198.769,168.285 199.751,168.658 200.124 C 168.796 200.262,168.576 200.876,168.170 201.488 C 167.764 202.099,167.393 202.840,167.346 203.134 C 167.299 203.427,166.932 203.935,166.530 204.263 C 166.129 204.591,166.038 204.737,166.330 204.588 C 166.734 204.380,166.769 204.492,166.476 205.058 C 166.266 205.466,165.856 206.340,165.565 207.000 C 165.274 207.660,164.674 208.614,164.230 209.120 C 163.787 209.625,163.419 210.435,163.412 210.920 C 163.405 211.435,163.180 211.754,162.870 211.690 C 162.579 211.630,162.459 211.773,162.605 212.008 C 162.951 212.568,162.031 213.666,161.493 213.334 C 161.260 213.190,161.195 213.268,161.345 213.511 C 161.492 213.749,161.418 214.065,161.179 214.213 C 160.941 214.360,160.850 214.753,160.977 215.085 C 161.140 215.510,161.025 215.619,160.591 215.452 C 160.111 215.268,159.998 215.461,160.086 216.307 C 160.158 216.997,160.021 217.365,159.714 217.305 C 159.435 217.250,159.325 217.461,159.456 217.801 C 159.582 218.131,159.410 218.498,159.067 218.630 C 158.726 218.761,158.551 219.129,158.676 219.453 C 158.800 219.776,158.473 220.496,157.951 221.053 C 157.428 221.609,157.058 222.095,157.128 222.132 C 157.199 222.170,157.051 222.740,156.800 223.400 C 156.549 224.060,156.373 224.674,156.408 224.764 C 156.443 224.854,156.186 225.088,155.836 225.284 C 155.486 225.480,155.200 225.963,155.200 226.358 C 155.200 226.753,154.852 227.391,154.427 227.776 C 154.002 228.160,153.742 228.705,153.850 228.986 C 153.958 229.267,153.769 229.603,153.430 229.733 C 153.074 229.870,152.913 230.229,153.050 230.585 C 153.182 230.930,153.073 231.200,152.800 231.200 C 152.533 231.200,152.418 231.470,152.545 231.800 C 152.671 232.130,152.592 232.400,152.368 232.400 C 152.144 232.400,151.725 232.963,151.436 233.651 C 151.082 234.491,150.810 234.740,150.605 234.408 C 150.366 234.021,150.230 234.028,149.977 234.436 C 149.750 234.805,149.575 234.641,149.384 233.879 C 149.235 233.286,148.942 232.800,148.733 232.800 C 148.524 232.800,148.463 232.622,148.597 232.405 C 148.743 232.169,148.562 232.116,148.151 232.274 C 147.599 232.486,147.519 232.387,147.752 231.782 C 147.912 231.365,147.914 231.152,147.758 231.309 C 147.382 231.685,146.346 230.811,146.628 230.355 C 146.749 230.160,146.610 230.000,146.319 230.000 C 146.029 230.000,145.359 229.477,144.831 228.837 C 144.303 228.198,143.646 227.761,143.371 227.866 C 143.097 227.972,142.753 227.682,142.607 227.223 C 142.462 226.764,142.207 226.472,142.043 226.574 C 141.625 226.831,140.404 225.336,140.733 224.970 C 140.880 224.806,140.787 224.794,140.527 224.943 C 140.247 225.103,139.768 224.730,139.353 224.029 C 138.968 223.377,138.494 222.942,138.300 223.062 C 138.105 223.182,137.847 222.902,137.726 222.440 C 137.606 221.978,137.354 221.600,137.167 221.600 C 136.677 221.600,134.600 219.499,134.289 218.689 C 134.144 218.310,133.760 218.000,133.436 218.000 C 133.112 218.000,132.719 217.792,132.562 217.538 C 132.373 217.233,132.454 217.186,132.800 217.400 C 133.122 217.599,133.226 217.566,133.071 217.315 C 132.933 217.091,132.373 216.993,131.828 217.097 C 131.020 217.251,130.788 217.093,130.574 216.240 C 130.422 215.633,129.950 215.102,129.450 214.977 C 128.976 214.858,128.182 214.168,127.686 213.443 C 127.190 212.719,126.331 211.884,125.778 211.588 C 125.131 211.242,124.856 210.831,125.007 210.437 C 125.136 210.100,125.124 209.943,124.979 210.088 C 124.834 210.232,124.309 209.912,123.812 209.375 C 123.315 208.839,122.659 208.397,122.354 208.394 C 121.913 208.389,121.922 208.309,122.400 208.000 C 122.932 207.656,122.406 207.389,121.808 207.700 C 121.702 207.755,121.330 207.392,120.980 206.893 C 120.631 206.395,120.147 206.109,119.905 206.259 C 119.624 206.433,119.554 206.297,119.712 205.886 C 119.894 205.411,119.789 205.306,119.314 205.488 C 118.959 205.625,118.752 205.570,118.854 205.368 C 119.071 204.936,116.945 202.789,116.620 203.113 C 116.499 203.234,116.400 203.113,116.400 202.843 C 116.400 202.573,116.216 202.467,115.990 202.606 C 115.765 202.745,115.613 202.711,115.653 202.530 C 115.692 202.348,115.528 201.750,115.288 201.200 C 115.047 200.650,114.839 200.453,114.825 200.762 C 114.805 201.211,114.653 201.191,114.068 200.661 C 113.665 200.297,113.186 200.134,113.003 200.299 C 112.821 200.465,112.791 200.391,112.937 200.136 C 113.283 199.532,112.823 198.339,112.355 198.628 C 112.157 198.750,111.887 198.570,111.755 198.228 C 111.624 197.885,111.324 197.723,111.090 197.868 C 110.818 198.036,110.762 197.875,110.937 197.421 C 111.136 196.901,111.053 196.771,110.625 196.935 C 110.233 197.085,110.114 196.969,110.263 196.580 C 110.461 196.065,109.992 195.812,109.100 195.953 C 108.935 195.979,108.800 195.820,108.800 195.600 C 108.800 195.380,108.534 195.200,108.209 195.200 C 107.884 195.200,107.299 194.709,106.909 194.109 C 105.993 192.701,103.942 190.827,103.300 190.812 C 103.025 190.805,102.842 190.665,102.894 190.500 C 102.946 190.335,102.406 189.609,101.694 188.886 C 100.982 188.164,100.400 187.369,100.400 187.120 C 100.400 186.870,100.286 186.780,100.147 186.919 C 99.761 187.306,98.400 186.445,98.400 185.814 C 98.400 185.507,98.000 185.198,97.510 185.128 C 97.021 185.058,96.393 184.550,96.116 184.000 C 95.839 183.450,95.609 183.134,95.606 183.297 C 95.603 183.461,95.156 183.209,94.614 182.737 C 94.071 182.265,93.739 181.699,93.875 181.478 C 94.016 181.251,93.923 181.200,93.662 181.362 C 93.408 181.519,93.200 181.457,93.200 181.224 C 93.200 180.991,92.930 180.800,92.600 180.800 C 92.270 180.800,92.044 180.665,92.097 180.500 C 92.258 180.003,89.913 177.600,89.267 177.600 C 88.937 177.600,88.772 177.495,88.900 177.367 C 89.211 177.056,87.735 175.602,87.100 175.594 C 86.726 175.589,86.734 175.503,87.134 175.250 C 87.644 174.926,86.689 174.180,85.946 174.321 C 85.450 174.415,82.789 171.541,83.022 171.164 C 83.153 170.953,83.079 170.830,82.858 170.890 C 82.637 170.951,82.160 170.640,81.799 170.200 C 81.437 169.760,81.257 169.670,81.400 170.000 C 81.543 170.330,81.376 170.251,81.030 169.824 C 80.683 169.396,80.397 168.856,80.394 168.624 C 80.391 168.391,80.223 168.461,80.021 168.779 C 79.734 169.233,79.597 169.126,79.385 168.282 C 79.230 167.665,78.919 167.302,78.657 167.432 C 78.406 167.556,78.740 167.196,79.400 166.631 C 80.060 166.066,80.844 165.603,81.143 165.602 C 81.494 165.601,81.592 165.353,81.419 164.900 C 81.215 164.363,81.263 164.309,81.626 164.670 C 82.151 165.191,82.583 164.944,84.128 163.236 C 86.734 160.355,89.567 157.600,89.921 157.600 C 90.143 157.600,90.235 157.255,90.125 156.834 C 89.995 156.337,90.206 155.918,90.726 155.639 C 91.272 155.347,91.459 154.948,91.313 154.388 C 91.178 153.872,91.274 153.610,91.571 153.683 C 92.164 153.829,94.043 149.376,93.731 148.565 C 93.595 148.209,93.704 148.014,94.001 148.084 C 94.275 148.148,94.591 147.950,94.702 147.644 C 94.832 147.287,94.732 147.195,94.422 147.386 C 94.084 147.595,94.097 147.433,94.467 146.842 C 94.756 146.379,95.174 145.997,95.396 145.994 C 95.618 145.991,95.568 145.841,95.284 145.661 C 94.900 145.417,94.872 145.063,95.175 144.267 C 95.461 143.513,95.452 143.200,95.141 143.200 C 94.848 143.200,94.832 143.034,95.094 142.700 C 95.504 142.175,95.469 138.136,95.050 137.717 C 94.916 137.583,95.030 137.197,95.303 136.860 C 95.700 136.371,95.699 136.307,95.300 136.547 C 94.976 136.741,94.789 136.592,94.768 136.124 C 94.659 133.716,94.515 133.038,94.081 132.894 C 93.814 132.805,93.693 132.574,93.812 132.381 C 93.931 132.188,93.570 131.303,93.009 130.415 C 92.449 129.527,92.127 128.797,92.295 128.794 C 92.463 128.791,92.343 128.625,92.028 128.426 C 91.714 128.227,91.412 127.761,91.357 127.390 C 91.303 127.020,90.885 126.455,90.429 126.135 C 89.973 125.816,89.600 125.224,89.600 124.820 C 89.600 124.416,89.330 123.982,89.000 123.855 C 88.670 123.729,88.400 123.360,88.400 123.036 C 88.400 122.712,88.192 122.319,87.938 122.162 C 87.633 121.973,87.586 122.054,87.800 122.400 C 88.014 122.746,87.967 122.827,87.662 122.638 C 87.408 122.481,87.200 122.106,87.200 121.803 C 87.200 121.501,86.867 121.148,86.461 121.019 C 86.054 120.890,85.513 120.328,85.259 119.770 C 85.005 119.212,84.634 118.855,84.435 118.978 C 84.236 119.101,83.652 119.033,83.137 118.826 C 82.622 118.620,82.425 118.439,82.700 118.425 C 82.975 118.411,83.200 118.209,83.200 117.976 C 83.200 117.743,83.036 117.654,82.836 117.778 C 82.257 118.136,81.177 117.563,81.479 117.058 C 81.630 116.806,81.449 116.847,81.077 117.149 C 80.403 117.695,80.166 117.403,80.363 116.270 C 80.394 116.089,80.223 116.062,79.983 116.210 C 79.743 116.359,79.294 116.147,78.986 115.740 C 78.678 115.333,78.420 115.124,78.413 115.276 C 78.406 115.428,77.905 115.295,77.300 114.981 C 76.643 114.640,76.146 114.569,76.067 114.805 C 75.912 115.262,74.403 115.348,74.394 114.900 C 74.375 113.956,73.648 113.462,73.030 113.975 C 72.684 114.262,72.400 114.326,72.400 114.116 C 72.400 113.905,72.138 113.733,71.818 113.733 C 71.497 113.733,71.328 113.883,71.441 114.067 C 71.739 114.549,71.145 114.452,70.039 113.839 C 69.511 113.546,68.718 113.401,68.277 113.516 C 67.704 113.666,67.564 113.583,67.786 113.223 C 68.029 112.829,67.915 112.817,67.256 113.170 C 66.794 113.417,65.955 113.504,65.392 113.362 C 64.683 113.184,64.105 113.335,63.515 113.853 C 62.966 114.334,62.785 114.387,63.008 114.000 C 63.291 113.508,63.246 113.487,62.756 113.883 C 62.427 114.149,61.781 114.268,61.320 114.147 C 60.859 114.027,60.058 114.168,59.541 114.462 C 59.023 114.756,58.420 115.009,58.200 115.025 C 56.926 115.115,55.189 115.732,54.763 116.245 C 54.488 116.575,54.167 116.671,54.035 116.462 C 53.684 115.900,50.400 117.579,50.400 118.321 C 50.400 118.833,50.285 118.806,49.794 118.176 C 49.375 117.639,49.221 117.585,49.294 118.000 C 49.352 118.330,49.175 118.555,48.900 118.500 C 48.625 118.445,48.445 118.621,48.500 118.891 C 48.555 119.160,48.197 119.443,47.704 119.518 C 47.210 119.593,46.580 119.968,46.304 120.352 C 45.711 121.172,44.517 121.982,44.962 121.262 C 45.704 120.060,44.485 120.988,43.671 122.243 C 43.161 123.031,42.646 123.580,42.529 123.462 C 42.165 123.099,41.288 124.165,41.499 124.714 C 41.612 125.008,41.460 125.182,41.149 125.116 C 40.847 125.052,40.649 125.238,40.710 125.530 C 40.770 125.821,40.641 125.949,40.423 125.814 C 40.205 125.679,39.797 125.936,39.517 126.384 C 39.237 126.833,38.787 127.200,38.516 127.200 C 38.221 127.200,38.128 127.467,38.282 127.869 C 38.471 128.363,38.375 128.476,37.915 128.299 C 37.438 128.116,37.342 128.257,37.510 128.897 C 37.684 129.564,37.589 129.681,37.044 129.472 C 36.665 129.327,36.460 129.374,36.586 129.577 C 36.711 129.779,36.618 130.065,36.379 130.213 C 36.141 130.360,36.046 130.742,36.168 131.061 C 36.291 131.380,36.258 131.561,36.095 131.463 C 35.933 131.364,35.568 131.535,35.284 131.842 C 35.001 132.149,34.902 132.400,35.064 132.400 C 35.227 132.400,35.144 132.616,34.880 132.880 C 34.616 133.144,34.400 133.774,34.400 134.280 C 34.400 134.831,34.159 135.200,33.800 135.200 C 33.095 135.200,33.023 135.663,33.633 136.273 C 33.944 136.584,33.810 136.945,33.158 137.553 C 32.658 138.019,32.467 138.400,32.734 138.400 C 33.077 138.400,33.039 138.674,32.605 139.335 C 32.034 140.208,31.882 141.084,31.422 146.144 C 31.325 147.213,31.152 148.181,31.037 148.296 C 30.736 148.598,31.584 150.057,31.934 149.841 C 32.096 149.741,32.229 150.006,32.229 150.429 C 32.229 150.853,32.042 151.203,31.814 151.206 C 31.586 151.209,31.670 151.384,32.000 151.594 C 32.485 151.903,32.508 152.124,32.119 152.752 C 31.727 153.385,31.750 153.572,32.244 153.762 C 32.578 153.890,32.739 154.176,32.602 154.397 C 32.465 154.619,32.565 154.800,32.825 154.800 C 33.165 154.800,33.147 154.997,32.762 155.500 C 32.467 155.885,32.384 156.067,32.576 155.903 C 33.256 155.328,34.020 156.415,33.552 157.290 C 33.300 157.760,33.285 157.995,33.515 157.853 C 33.732 157.719,34.132 157.877,34.404 158.204 C 34.676 158.532,34.758 158.800,34.587 158.800 C 34.416 158.800,34.592 159.149,34.977 159.575 C 35.363 160.001,35.573 160.520,35.444 160.729 C 35.315 160.938,35.580 161.206,36.034 161.325 C 36.488 161.444,36.954 161.902,37.069 162.343 C 37.207 162.871,37.492 163.063,37.905 162.904 C 38.318 162.746,38.433 162.823,38.242 163.132 C 38.083 163.389,38.156 163.600,38.403 163.600 C 38.665 163.600,38.752 163.921,38.611 164.367 C 38.409 165.001,38.519 165.094,39.246 164.904 C 39.851 164.746,40.036 164.819,39.839 165.137 C 39.671 165.409,39.799 165.600,40.149 165.600 C 40.478 165.600,40.861 165.963,41.002 166.406 C 41.143 166.849,41.412 167.116,41.600 167.000 C 41.788 166.884,42.055 167.142,42.192 167.574 C 42.343 168.050,42.669 168.272,43.020 168.137 C 43.339 168.014,43.600 168.135,43.600 168.404 C 43.600 168.696,43.922 168.809,44.401 168.684 C 44.841 168.569,45.114 168.616,45.007 168.789 C 44.900 168.961,45.362 169.212,46.033 169.347 C 46.826 169.505,47.152 169.754,46.964 170.058 C 46.765 170.380,46.940 170.457,47.524 170.304 C 48.045 170.168,48.339 170.259,48.286 170.541 C 48.239 170.793,48.740 171.053,49.400 171.117 C 50.060 171.182,50.870 171.346,51.200 171.483 C 51.530 171.619,52.475 171.769,53.300 171.815 C 55.540 171.942,55.665 171.972,55.443 172.331 C 55.330 172.513,56.625 172.645,58.319 172.625 C 60.014 172.605,61.660 172.771,61.977 172.994 C 62.398 173.290,62.475 173.270,62.264 172.917 C 62.062 172.581,62.311 172.460,63.087 172.517 C 63.797 172.570,64.164 172.419,64.100 172.100 C 63.980 171.501,64.649 171.432,65.004 172.007 C 65.142 172.230,65.468 172.280,65.728 172.118 C 66.534 171.614,67.672 171.560,67.376 172.039 C 67.183 172.350,67.352 172.347,67.952 172.026 C 68.418 171.776,68.800 171.443,68.800 171.286 C 68.801 170.497,70.745 170.960,71.148 171.845 C 71.387 172.370,71.426 172.800,71.235 172.800 C 70.845 172.800,71.123 175.580,71.575 176.200 C 71.735 176.420,71.845 177.565,71.819 178.745 C 71.788 180.106,71.950 180.959,72.260 181.078 C 72.529 181.182,72.652 181.521,72.532 181.833 C 72.412 182.145,72.524 182.400,72.781 182.400 C 73.037 182.400,73.122 182.603,72.969 182.850 C 72.447 183.695,72.485 186.408,73.023 186.709 C 73.309 186.869,73.556 187.135,73.572 187.300 C 73.587 187.465,73.611 187.645,73.626 187.700 C 73.871 188.661,73.818 190.400,73.543 190.400 C 73.343 190.400,73.439 190.903,73.757 191.517 C 74.075 192.132,74.294 193.437,74.244 194.417 C 74.188 195.518,74.378 196.469,74.741 196.902 C 75.064 197.289,75.226 197.707,75.101 197.833 C 74.976 197.958,75.019 198.568,75.197 199.190 C 75.390 199.861,75.360 200.480,75.123 200.717 C 74.860 200.980,74.923 201.432,75.311 202.057 C 75.840 202.909,75.962 205.546,75.550 207.200 C 75.458 207.566,75.643 207.761,76.023 207.700 C 76.530 207.619,76.635 208.014,76.589 209.814 C 76.557 211.031,76.742 212.314,76.998 212.665 C 77.279 213.049,77.402 214.245,77.306 215.661 C 77.191 217.347,77.282 217.987,77.623 217.909 C 77.893 217.847,78.128 218.278,78.163 218.900 C 78.198 219.505,78.063 220.000,77.864 220.000 C 77.665 220.000,77.712 220.252,77.968 220.561 C 78.325 220.992,78.313 221.170,77.917 221.330 C 77.499 221.497,77.500 221.543,77.924 221.568 C 78.212 221.586,78.339 221.775,78.207 221.989 C 78.075 222.202,78.213 222.787,78.515 223.289 C 78.816 223.790,79.049 225.010,79.032 226.000 C 79.014 226.990,79.143 227.906,79.318 228.035 C 79.778 228.375,79.926 232.000,79.479 232.000 C 79.272 232.000,79.324 232.268,79.596 232.596 C 79.868 232.923,80.209 233.118,80.354 233.028 C 80.690 232.821,80.628 236.507,80.287 237.059 C 80.147 237.286,80.394 238.147,80.836 238.972 C 81.278 239.797,81.476 240.370,81.275 240.246 C 80.629 239.847,81.158 243.691,81.855 244.461 C 82.289 244.940,82.353 245.200,82.038 245.200 C 81.771 245.200,81.659 245.372,81.789 245.582 C 81.918 245.791,82.106 246.826,82.205 247.882 C 82.468 250.667,82.597 251.349,82.981 251.969 C 83.234 252.379,83.178 252.436,82.762 252.185 C 82.304 251.909,82.291 251.958,82.690 252.453 C 83.066 252.917,83.071 253.169,82.710 253.530 C 82.420 253.820,82.399 254.000,82.656 254.000 C 82.884 254.000,83.277 254.450,83.527 255.000 C 83.778 255.550,83.852 256.000,83.691 256.000 C 83.531 256.001,83.419 256.676,83.442 257.500 C 83.514 260.071,83.589 260.454,83.972 260.217 C 84.177 260.091,84.475 260.198,84.634 260.455 C 84.802 260.727,84.751 260.817,84.513 260.670 C 84.252 260.509,84.120 261.071,84.151 262.205 C 84.178 263.190,84.314 263.996,84.453 263.998 C 84.739 264.000,85.319 265.614,85.226 266.151 C 84.985 267.554,84.932 270.434,85.153 270.075 C 85.332 269.786,85.598 269.905,85.917 270.416 C 86.194 270.860,86.237 271.200,86.016 271.200 C 85.800 271.200,85.648 271.823,85.676 272.584 C 85.705 273.345,85.879 273.875,86.063 273.761 C 86.247 273.647,86.228 274.001,86.020 274.546 C 85.678 275.448,86.312 276.755,86.837 276.230 C 86.927 276.140,87.000 276.682,87.000 277.433 C 87.000 278.185,86.877 278.800,86.727 278.800 C 86.577 278.800,86.520 279.295,86.600 279.900 C 86.680 280.505,86.757 281.146,86.772 281.324 C 86.788 281.502,86.960 281.549,87.155 281.428 C 87.350 281.308,87.603 281.567,87.717 282.005 C 87.842 282.481,87.763 282.701,87.523 282.552 C 87.283 282.404,87.298 282.636,87.561 283.127 C 87.851 283.668,87.865 284.036,87.603 284.198 C 87.346 284.357,87.394 284.831,87.737 285.523 C 88.031 286.115,88.254 287.455,88.232 288.500 C 88.210 289.545,88.324 290.400,88.484 290.400 C 88.644 290.400,88.671 290.670,88.545 291.000 C 88.418 291.330,88.524 291.600,88.781 291.600 C 89.037 291.600,89.152 291.754,89.035 291.943 C 88.919 292.132,88.985 292.852,89.184 293.543 C 89.416 294.353,89.402 294.800,89.145 294.800 C 88.648 294.800,89.138 296.488,89.754 296.894 C 89.999 297.056,90.059 297.191,89.886 297.194 C 89.713 297.197,89.757 297.545,89.983 297.968 C 90.274 298.512,90.261 298.780,89.939 298.887 C 89.604 298.999,89.608 299.268,89.957 299.919 C 90.329 300.614,90.320 300.803,89.914 300.812 C 89.596 300.820,89.656 300.974,90.072 301.216 C 90.617 301.534,90.723 302.129,90.635 304.367 C 90.561 306.237,90.667 307.073,90.963 306.959 C 91.254 306.848,91.398 307.729,91.393 309.589 C 91.389 311.462,91.552 312.449,91.887 312.578 C 92.162 312.683,92.280 313.047,92.150 313.385 C 91.907 314.020,92.409 314.170,94.400 314.056 C 94.950 314.025,96.000 314.006,96.733 314.014 C 97.666 314.025,97.977 313.886,97.770 313.552 C 97.563 313.217,97.733 313.141,98.337 313.300 C 98.852 313.434,99.202 313.339,99.206 313.063 C 99.210 312.773,99.341 312.802,99.556 313.143 C 99.797 313.522,99.982 313.552,100.175 313.241 C 100.325 312.997,100.843 312.887,101.325 312.996 C 103.041 313.387,112.000 313.508,112.000 313.141 C 112.000 312.938,112.378 312.974,112.841 313.222 C 113.336 313.487,114.444 313.571,115.541 313.427 C 116.563 313.293,117.580 313.164,117.800 313.141 C 118.020 313.118,118.722 313.238,119.360 313.408 C 120.130 313.613,120.433 313.577,120.262 313.301 C 120.093 313.026,120.445 312.979,121.303 313.160 C 122.839 313.485,126.080 313.424,128.179 313.030 C 129.362 312.808,129.612 312.860,129.363 313.274 C 129.103 313.706,129.163 313.705,129.698 313.272 C 130.154 312.902,130.567 312.861,131.080 313.136 C 131.578 313.402,132.014 313.379,132.446 313.064 C 132.844 312.772,134.887 312.600,137.940 312.600 C 140.613 312.600,142.800 312.477,142.800 312.326 C 142.800 312.027,144.707 312.296,145.334 312.683 C 145.566 312.826,145.593 312.712,145.400 312.400 C 145.189 312.058,145.233 311.973,145.527 312.155 C 146.198 312.569,148.800 312.842,148.800 312.498 C 148.800 312.334,149.610 312.200,150.600 312.200 C 151.590 312.200,152.400 312.341,152.400 312.514 C 152.400 312.687,152.749 312.641,153.176 312.413 C 153.602 312.185,154.042 312.144,154.152 312.323 C 154.263 312.501,155.364 312.536,156.600 312.400 C 157.836 312.264,158.937 312.299,159.048 312.477 C 159.158 312.656,159.574 312.628,159.972 312.415 C 160.369 312.202,160.819 312.153,160.971 312.305 C 161.399 312.733,165.541 312.650,165.466 312.215 C 165.428 311.992,166.918 311.825,169.000 311.820 C 170.980 311.814,172.732 311.628,172.894 311.405 C 173.087 311.139,173.190 311.138,173.194 311.400 C 173.198 311.634,174.684 311.812,176.780 311.829 C 178.748 311.844,180.268 311.710,180.157 311.530 C 180.045 311.350,180.406 311.374,180.959 311.584 C 181.945 311.959,184.272 311.861,184.706 311.427 C 184.827 311.306,185.156 311.398,185.438 311.631 C 185.798 311.930,186.185 311.929,186.750 311.627 C 187.239 311.365,187.642 311.344,187.784 311.573 C 188.070 312.037,189.629 311.988,190.282 311.495 C 190.548 311.295,190.998 311.276,191.282 311.454 C 192.132 311.983,197.731 311.937,198.400 311.396 C 198.743 311.118,200.029 310.934,201.400 310.966 C 202.720 310.996,204.060 310.837,204.377 310.611 C 204.788 310.318,204.876 310.329,204.684 310.651 C 204.385 311.150,213.263 311.056,214.079 310.551 C 214.335 310.393,214.412 310.457,214.261 310.702 C 213.989 311.141,220.241 311.031,221.689 310.572 C 222.080 310.448,222.400 310.519,222.400 310.730 C 222.400 311.142,226.570 311.164,226.980 310.754 C 227.115 310.619,228.057 310.663,229.073 310.853 C 230.262 311.075,231.097 311.052,231.416 310.786 C 231.689 310.560,232.472 310.335,233.155 310.287 C 233.839 310.239,234.399 310.054,234.399 309.876 C 234.400 309.698,234.625 309.694,234.900 309.866 C 235.661 310.343,243.751 310.298,244.100 309.815 C 244.302 309.535,244.501 309.556,244.710 309.878 C 245.022 310.359,246.160 310.374,246.632 309.902 C 246.772 309.762,247.227 309.860,247.643 310.120 C 248.230 310.486,248.580 310.480,249.200 310.093 C 249.640 309.818,250.000 309.730,250.001 309.897 C 250.001 310.321,261.274 310.255,261.962 309.827 C 262.346 309.587,262.434 309.622,262.238 309.938 C 262.081 310.192,262.143 310.400,262.376 310.400 C 262.609 310.400,262.800 310.198,262.800 309.951 C 262.800 309.631,262.964 309.638,263.372 309.976 C 263.815 310.344,264.332 310.327,265.672 309.899 C 266.850 309.524,269.209 309.366,273.082 309.406 C 276.206 309.438,278.671 309.315,278.559 309.133 C 278.446 308.951,278.770 308.952,279.277 309.135 C 280.430 309.551,296.019 309.487,296.700 309.064 C 296.988 308.885,297.200 308.944,297.200 309.203 C 297.200 309.659,298.798 309.359,299.200 308.828 C 299.310 308.682,303.180 308.588,307.800 308.618 C 316.965 308.677,316.976 308.676,316.420 307.637 C 316.163 307.157,316.189 306.771,316.499 306.461 C 316.764 306.196,316.790 306.000,316.561 306.000 C 316.342 306.000,316.171 305.190,316.181 304.200 C 316.191 303.211,316.346 302.401,316.524 302.400 C 316.702 302.400,316.736 302.220,316.600 302.000 C 316.464 301.780,316.563 301.600,316.819 301.600 C 317.076 301.600,317.184 301.336,317.060 301.013 C 316.936 300.690,316.983 300.334,317.164 300.223 C 317.493 300.019,317.464 299.210,317.050 297.030 C 316.928 296.386,317.007 295.126,317.227 294.230 C 317.447 293.333,317.683 292.223,317.752 291.762 C 317.820 291.301,318.005 290.716,318.162 290.462 C 318.319 290.208,318.302 290.000,318.124 290.000 C 317.614 290.000,317.814 284.694,318.362 283.671 C 318.633 283.164,318.836 282.266,318.814 281.675 C 318.737 279.679,318.731 279.003,318.784 278.200 C 318.813 277.760,318.762 276.830,318.670 276.132 C 318.551 275.224,318.647 274.920,319.011 275.060 C 319.682 275.317,320.147 274.538,319.545 274.166 C 319.233 273.973,319.184 274.051,319.400 274.400 C 319.619 274.755,319.568 274.827,319.240 274.625 C 318.873 274.398,318.909 274.094,319.387 273.363 C 319.735 272.833,319.879 272.400,319.709 272.400 C 319.329 272.400,319.390 267.064,319.777 266.438 C 319.930 266.190,320.193 266.072,320.361 266.176 C 320.529 266.280,320.667 266.103,320.667 265.782 C 320.667 265.462,320.555 265.200,320.418 265.200 C 320.060 265.200,320.219 262.216,320.611 261.582 C 320.810 261.260,320.755 260.985,320.471 260.890 C 319.807 260.669,319.885 258.305,320.587 257.376 C 321.312 256.418,321.369 255.851,320.700 256.253 C 320.317 256.483,320.306 256.418,320.650 255.977 C 320.906 255.649,321.092 253.959,321.082 252.066 C 321.071 250.223,321.244 248.613,321.470 248.466 C 321.705 248.312,321.861 246.526,321.838 244.229 C 321.816 241.920,321.977 240.078,322.223 239.829 C 322.480 239.568,322.608 237.717,322.550 235.100 C 322.476 231.820,322.575 230.800,322.966 230.800 C 323.347 230.800,323.459 229.977,323.400 227.600 C 323.357 225.840,323.480 224.400,323.675 224.400 C 323.869 224.400,323.829 224.028,323.586 223.574 C 323.263 222.971,323.264 222.605,323.590 222.213 C 323.848 221.901,324.069 219.731,324.117 217.039 C 324.172 213.987,324.350 212.401,324.639 212.401 C 324.936 212.400,325.051 211.036,324.994 208.200 C 324.933 205.166,325.042 204.000,325.387 204.000 C 325.964 204.000,325.976 201.529,325.400 201.106 C 325.141 200.916,325.153 200.810,325.435 200.806 C 325.717 200.802,325.815 199.941,325.715 198.353 C 325.611 196.710,325.735 195.692,326.092 195.253 C 326.470 194.788,326.609 193.315,326.575 190.137 C 326.541 187.057,326.662 185.725,326.963 185.841 C 327.262 185.955,327.398 184.683,327.393 181.811 C 327.388 178.608,327.517 177.564,327.938 177.402 C 328.380 177.233,328.392 177.072,327.996 176.595 C 327.724 176.268,327.667 176.000,327.869 176.000 C 328.070 176.000,328.227 174.335,328.218 172.300 C 328.208 170.265,328.361 168.240,328.559 167.800 C 328.990 166.838,328.984 160.628,328.552 159.908 C 328.335 159.547,328.442 159.559,328.923 159.949 C 329.295 160.251,329.605 160.341,329.612 160.149 C 329.619 159.957,329.810 160.119,330.037 160.508 C 330.264 160.898,330.627 161.107,330.845 160.972 C 331.266 160.712,336.512 160.700,339.721 160.951 C 341.027 161.053,341.826 160.917,342.218 160.525 C 342.535 160.208,342.975 160.061,343.197 160.198 C 343.419 160.335,343.600 160.250,343.600 160.010 C 343.600 159.703,343.829 159.694,344.360 159.979 C 344.939 160.289,345.176 160.240,345.355 159.774 C 345.484 159.438,345.907 159.216,346.295 159.281 C 346.683 159.347,346.963 159.198,346.917 158.950 C 346.871 158.703,347.585 158.400,348.503 158.277 C 349.421 158.154,350.359 157.816,350.587 157.527 C 350.816 157.237,351.272 156.947,351.601 156.883 C 351.931 156.819,352.510 156.400,352.889 155.952 C 353.268 155.505,353.763 155.253,353.989 155.393 C 354.215 155.533,354.400 155.427,354.400 155.157 C 354.400 154.887,354.519 154.786,354.665 154.932 C 354.811 155.078,355.256 154.662,355.654 154.007 C 356.126 153.231,356.591 152.898,356.989 153.051 C 357.369 153.197,357.600 153.060,357.600 152.687 C 357.600 152.358,357.915 152.114,358.300 152.144 C 358.738 152.179,358.979 151.939,358.945 151.504 C 358.915 151.122,359.035 150.898,359.211 151.007 C 359.387 151.116,359.949 150.529,360.458 149.702 C 360.967 148.876,361.893 147.771,362.514 147.246 C 363.186 146.679,363.552 146.052,363.417 145.701 C 363.259 145.289,363.379 145.183,363.816 145.351 C 364.161 145.483,364.336 145.421,364.207 145.212 C 363.932 144.767,364.770 143.146,365.522 142.668 C 365.910 142.421,365.930 142.198,365.601 141.801 C 365.263 141.394,365.329 141.213,365.879 141.038 C 366.276 140.912,366.616 140.403,366.636 139.905 C 366.700 138.337,367.153 136.686,367.644 136.235 C 367.996 135.911,368.035 135.944,367.797 136.362 C 367.592 136.722,367.630 136.828,367.905 136.659 C 368.198 136.478,368.212 135.954,367.951 135.008 C 367.658 133.945,367.716 133.336,368.201 132.399 C 368.548 131.727,368.732 131.014,368.610 130.816 C 368.487 130.618,368.557 130.350,368.766 130.221 C 369.256 129.918,368.911 127.919,368.279 127.400 C 368.012 127.180,367.803 126.190,367.816 125.200 C 367.829 124.210,367.680 123.183,367.485 122.918 C 367.290 122.652,367.264 122.219,367.427 121.956 C 367.611 121.659,367.554 121.581,367.278 121.752 C 366.972 121.941,366.890 121.580,367.017 120.589 C 367.149 119.558,367.069 119.234,366.733 119.442 C 366.421 119.634,366.346 119.517,366.510 119.091 C 366.645 118.740,366.558 118.386,366.317 118.306 C 366.075 118.225,365.850 117.785,365.817 117.328 C 365.783 116.871,365.446 116.025,365.069 115.449 C 364.691 114.872,364.476 114.400,364.591 114.400 C 364.706 114.400,364.426 114.026,363.969 113.569 C 363.512 113.112,363.236 112.484,363.355 112.174 C 363.474 111.864,363.443 111.652,363.286 111.705 C 363.129 111.757,363.000 111.680,363.000 111.532 C 363.000 111.015,361.080 109.227,360.746 109.433 C 360.561 109.548,360.528 109.333,360.673 108.955 C 360.865 108.455,360.794 108.357,360.410 108.594 C 360.010 108.841,359.933 108.663,360.087 107.856 C 360.263 106.935,360.207 106.860,359.668 107.297 C 359.326 107.573,359.165 107.603,359.309 107.361 C 359.584 106.901,355.889 102.800,355.199 102.800 C 354.979 102.800,354.800 102.519,354.800 102.176 C 354.800 101.833,354.620 101.664,354.400 101.800 C 354.180 101.936,354.000 101.846,354.000 101.600 C 354.000 101.354,353.829 101.259,353.619 101.388 C 353.409 101.518,352.967 101.123,352.635 100.512 C 352.303 99.900,352.025 99.625,352.016 99.900 C 352.007 100.175,351.809 100.400,351.576 100.400 C 351.343 100.400,351.288 100.175,351.453 99.900 C 351.628 99.609,351.439 99.650,351.000 100.000 C 350.586 100.330,350.374 100.387,350.530 100.128 C 350.686 99.868,350.627 99.540,350.400 99.400 C 350.173 99.260,350.109 98.947,350.259 98.704 C 350.434 98.421,350.294 98.355,349.866 98.519 C 349.052 98.832,347.923 98.449,348.223 97.963 C 348.343 97.768,348.185 97.707,347.872 97.828 C 347.559 97.948,347.023 97.766,346.680 97.423 C 346.337 97.080,345.594 96.800,345.029 96.800 C 344.463 96.800,344.000 96.630,344.000 96.422 C 344.000 96.214,343.235 96.094,342.300 96.155 C 341.365 96.217,340.218 96.130,339.751 95.963 C 339.239 95.779,338.713 95.845,338.427 96.129 C 338.062 96.491,338.017 96.432,338.230 95.872 C 338.488 95.193,338.417 95.182,337.153 95.705 C 336.409 96.014,334.900 96.235,333.800 96.197 C 332.700 96.159,331.620 96.253,331.400 96.406 C 330.616 96.952,329.196 97.118,328.935 96.694 C 328.777 96.439,328.534 96.625,328.341 97.149 C 328.066 97.892,327.883 97.965,327.206 97.603 C 326.514 97.233,326.400 97.294,326.400 98.035 C 326.400 98.795,326.319 98.833,325.723 98.349 C 325.263 97.976,325.143 97.960,325.347 98.300 C 325.621 98.756,324.903 99.017,323.870 98.837 C 323.689 98.806,323.655 98.965,323.794 99.190 C 323.933 99.416,323.756 99.600,323.400 99.600 C 323.044 99.600,322.863 99.778,322.997 99.995 C 323.137 100.222,322.977 100.289,322.624 100.154 C 322.254 100.012,321.903 100.187,321.748 100.592 C 321.559 101.084,321.407 101.135,321.187 100.779 C 320.974 100.434,320.753 100.541,320.429 101.146 C 320.178 101.616,319.708 102.000,319.386 102.000 C 319.064 102.000,318.800 102.180,318.800 102.400 C 318.800 102.620,318.596 102.800,318.346 102.800 C 317.812 102.800,316.000 104.670,316.000 105.221 C 316.000 105.429,315.814 105.600,315.588 105.600 C 315.057 105.600,310.400 110.232,310.400 110.760 C 310.400 110.979,309.950 111.644,309.400 112.238 C 308.850 112.831,308.400 113.561,308.400 113.858 C 308.400 114.156,308.248 114.400,308.063 114.400 C 307.878 114.400,307.511 115.120,307.247 116.000 C 306.984 116.880,306.595 117.600,306.384 117.600 C 306.173 117.600,306.000 117.870,306.000 118.200 C 306.000 118.530,305.865 118.800,305.700 118.800 C 305.535 118.800,305.373 119.274,305.339 119.853 C 305.306 120.431,305.126 121.016,304.939 121.152 C 304.478 121.489,304.308 123.304,304.763 123.023 C 304.962 122.900,305.034 123.147,304.923 123.572 C 304.812 123.997,304.514 124.265,304.261 124.168 C 303.739 123.968,303.708 131.640,304.225 132.946 C 304.388 133.356,304.555 134.166,304.598 134.746 C 304.765 137.039,304.811 137.240,305.121 137.049 C 305.298 136.940,305.406 137.373,305.362 138.012 C 305.318 138.650,305.398 139.134,305.541 139.086 C 305.683 139.039,305.858 139.180,305.929 139.400 C 305.999 139.620,306.332 140.104,306.668 140.475 C 307.004 140.846,307.172 141.322,307.041 141.533 C 306.911 141.744,307.086 142.024,307.430 142.156 C 307.863 142.322,307.971 142.661,307.781 143.259 C 307.564 143.945,307.640 144.070,308.154 143.873 C 308.601 143.701,308.800 143.847,308.800 144.346 C 308.800 144.742,308.933 145.199,309.095 145.362 C 309.257 145.524,309.392 145.959,309.395 146.328 C 309.398 146.698,309.647 146.948,309.949 146.884 C 310.298 146.810,310.412 146.991,310.262 147.384 C 310.098 147.810,310.268 148.000,310.813 148.000 C 311.332 148.000,311.600 148.271,311.600 148.797 C 311.600 149.562,312.924 151.053,315.243 152.900 C 315.847 153.380,316.236 153.942,316.108 154.148 C 315.981 154.355,316.078 154.399,316.325 154.246 C 317.207 153.701,319.260 156.165,318.636 157.018 C 318.335 157.430,318.188 158.044,318.308 158.383 C 318.429 158.722,318.394 158.880,318.230 158.733 C 318.066 158.586,317.572 158.766,317.133 159.133 C 315.012 160.902,314.697 161.200,314.955 161.200 C 315.107 161.200,314.999 161.451,314.716 161.758 C 314.432 162.065,314.037 162.217,313.838 162.096 C 313.639 161.975,313.606 162.085,313.764 162.341 C 313.926 162.604,313.765 162.915,313.392 163.058 C 312.865 163.261,312.840 163.379,313.266 163.650 C 313.666 163.903,313.674 163.989,313.300 163.994 C 313.025 163.997,312.800 164.289,312.800 164.643 C 312.800 165.044,312.579 165.201,312.213 165.060 C 311.890 164.936,311.529 164.992,311.410 165.183 C 311.292 165.375,311.421 165.623,311.698 165.734 C 312.020 165.864,311.967 165.948,311.549 165.968 C 311.191 165.986,310.676 166.268,310.404 166.596 C 310.132 166.923,309.745 167.090,309.545 166.966 C 309.344 166.842,309.206 166.889,309.237 167.070 C 309.378 167.877,309.167 168.427,308.805 168.203 C 308.581 168.065,308.509 168.218,308.638 168.555 C 308.773 168.906,308.524 169.366,308.033 169.672 C 307.575 169.958,307.200 170.430,307.200 170.720 C 307.200 171.010,307.020 171.136,306.800 171.000 C 306.580 170.864,306.400 171.033,306.400 171.376 C 306.400 171.719,306.204 172.000,305.964 172.000 C 305.481 172.000,304.034 173.597,304.013 174.153 C 304.006 174.347,303.623 174.833,303.163 175.232 C 302.702 175.632,302.454 176.165,302.612 176.419 C 302.821 176.757,302.661 176.754,302.010 176.406 C 301.191 175.967,301.146 176.001,301.412 176.866 C 301.570 177.380,301.563 177.671,301.396 177.513 C 301.089 177.222,298.800 179.817,298.800 180.455 C 298.800 180.645,298.533 180.800,298.208 180.800 C 297.882 180.800,297.502 181.250,297.364 181.800 C 297.226 182.350,296.938 182.800,296.723 182.800 C 296.007 182.800,293.538 185.662,293.759 186.237 C 293.886 186.570,293.725 186.800,293.364 186.800 C 293.028 186.800,292.847 186.953,292.963 187.140 C 293.078 187.327,292.723 187.720,292.172 188.015 C 291.572 188.336,291.259 188.778,291.391 189.120 C 291.535 189.495,291.413 189.614,291.034 189.468 C 290.305 189.189,289.534 190.099,289.458 191.328 C 289.417 191.996,289.206 192.222,288.739 192.100 C 288.314 191.989,287.974 192.251,287.790 192.833 C 287.632 193.331,287.138 194.112,286.692 194.569 C 286.247 195.026,286.008 195.177,286.162 194.905 C 286.345 194.579,286.241 194.486,285.857 194.634 C 285.535 194.757,285.161 195.302,285.024 195.845 C 284.888 196.388,284.602 196.725,284.388 196.593 C 284.175 196.461,284.000 196.606,284.000 196.915 C 284.000 197.637,282.652 199.200,282.029 199.200 C 281.767 199.200,281.664 199.380,281.800 199.600 C 281.936 199.820,281.722 200.003,281.324 200.006 C 280.710 200.011,280.691 200.071,281.200 200.400 C 281.722 200.737,281.715 200.789,281.147 200.794 C 280.787 200.797,280.382 201.205,280.247 201.700 C 280.041 202.451,279.935 202.501,279.606 202.000 C 279.256 201.467,279.205 201.467,279.145 202.000 C 279.108 202.330,279.036 202.780,278.985 203.000 C 278.934 203.220,278.869 203.670,278.840 204.000 C 278.804 204.408,278.694 204.454,278.494 204.144 C 278.243 203.755,277.074 204.440,277.217 204.892 C 277.349 205.305,276.647 206.352,276.358 206.174 C 276.161 206.052,276.000 206.190,276.000 206.480 C 276.000 206.770,275.640 207.232,275.200 207.507 C 274.760 207.782,274.400 208.376,274.400 208.827 C 274.400 209.278,274.239 209.548,274.042 209.426 C 273.845 209.304,273.576 209.485,273.445 209.828 C 273.313 210.170,273.024 210.339,272.803 210.202 C 272.581 210.065,272.400 210.215,272.400 210.535 C 272.400 210.855,271.770 211.670,271.000 212.346 C 270.230 213.022,269.600 213.851,269.600 214.188 C 269.600 214.525,269.420 214.800,269.200 214.800 C 268.980 214.800,268.800 215.064,268.800 215.387 C 268.800 215.711,268.575 215.897,268.300 215.801 C 268.025 215.706,267.425 216.206,266.968 216.914 C 266.510 217.621,265.880 218.140,265.568 218.067 C 265.255 217.993,265.130 218.063,265.288 218.222 C 265.447 218.380,265.227 219.000,264.800 219.600 C 264.373 220.200,264.138 220.805,264.278 220.945 C 264.513 221.180,263.811 221.360,263.100 221.247 C 262.838 221.206,262.639 222.093,262.739 222.859 C 262.757 223.001,262.411 223.023,261.969 222.908 C 261.527 222.792,261.195 222.856,261.230 223.049 C 261.370 223.811,261.183 224.437,260.873 224.245 C 260.693 224.134,260.293 224.393,259.985 224.821 C 259.423 225.601,258.134 225.953,258.600 225.200 C 258.736 224.980,258.572 224.800,258.236 224.800 C 257.877 224.800,257.714 224.569,257.840 224.240 C 258.051 223.691,257.389 223.028,256.600 222.996 C 256.380 222.988,256.231 222.634,256.269 222.210 C 256.307 221.787,256.003 221.150,255.594 220.795 C 255.185 220.440,254.794 219.895,254.725 219.584 C 254.656 219.274,254.193 218.686,253.696 218.278 C 253.199 217.870,252.856 217.415,252.933 217.268 C 253.146 216.861,251.709 215.628,251.377 215.933 C 251.218 216.080,251.206 215.705,251.351 215.100 C 251.551 214.267,251.468 214.000,251.008 214.000 C 250.673 214.000,250.400 213.730,250.400 213.400 C 250.400 213.070,250.241 212.800,250.047 212.800 C 249.709 212.800,249.071 211.313,249.152 210.714 C 249.173 210.556,248.743 209.979,248.195 209.432 C 247.648 208.884,247.200 208.158,247.200 207.818 C 247.200 207.478,246.910 207.200,246.557 207.200 C 246.065 207.200,245.974 206.957,246.173 206.166 C 246.315 205.598,246.281 205.226,246.097 205.340 C 245.913 205.454,245.500 205.382,245.181 205.180 C 244.861 204.978,244.795 204.809,245.033 204.806 C 245.272 204.803,245.467 204.530,245.467 204.200 C 245.467 203.870,245.376 203.690,245.266 203.801 C 244.953 204.113,243.600 202.743,243.600 202.114 C 243.600 201.806,243.420 201.664,243.200 201.800 C 242.980 201.936,242.800 201.767,242.800 201.424 C 242.800 201.081,242.601 200.800,242.357 200.800 C 242.114 200.800,242.020 200.526,242.148 200.191 C 242.277 199.856,242.071 199.253,241.691 198.851 C 240.382 197.466,239.600 196.390,239.600 195.972 C 239.600 195.741,239.389 195.683,239.132 195.842 C 238.822 196.034,238.746 195.917,238.908 195.495 C 239.043 195.145,238.906 194.654,238.604 194.403 C 238.303 194.153,238.121 193.610,238.201 193.197 C 238.307 192.647,238.175 192.512,237.707 192.691 C 237.286 192.852,237.166 192.778,237.355 192.473 C 237.544 192.167,237.424 192.093,237.000 192.255 C 236.472 192.458,236.408 192.307,236.638 191.391 C 236.836 190.604,236.783 190.363,236.458 190.564 C 236.186 190.732,236.000 190.585,236.000 190.200 C 236.000 189.808,235.816 189.667,235.532 189.842 C 235.217 190.036,235.148 189.913,235.319 189.466 C 235.486 189.031,235.371 188.800,234.987 188.800 C 234.664 188.800,234.421 188.665,234.447 188.500 C 234.573 187.703,234.360 187.178,234.000 187.400 C 233.655 187.613,233.417 187.036,233.700 186.671 C 233.890 186.427,232.455 185.200,231.980 185.200 C 231.617 185.200,231.621 185.057,231.996 184.605 C 232.396 184.123,232.367 183.962,231.845 183.762 C 231.490 183.626,231.200 183.157,231.200 182.720 C 231.200 182.271,230.864 181.837,230.428 181.723 C 229.993 181.609,229.744 181.290,229.859 180.992 C 229.970 180.700,229.643 180.043,229.131 179.531 C 228.619 179.019,228.200 178.471,228.200 178.313 C 228.200 178.155,227.885 177.658,227.500 177.208 C 227.115 176.759,226.800 176.235,226.800 176.044 C 226.800 175.854,226.530 175.474,226.200 175.200 C 225.870 174.926,225.600 174.376,225.600 173.978 C 225.600 173.580,225.237 173.139,224.794 172.998 C 224.351 172.857,224.101 172.561,224.238 172.339 C 224.375 172.117,224.035 171.455,223.483 170.867 C 222.930 170.280,222.405 169.440,222.315 169.000 C 222.226 168.560,221.951 168.241,221.704 168.291 C 221.458 168.341,221.045 167.743,220.788 166.963 C 220.530 166.182,220.068 165.447,219.760 165.329 C 219.452 165.211,219.200 164.943,219.200 164.734 C 219.200 164.524,219.408 164.481,219.662 164.638 C 219.948 164.815,220.015 164.748,219.838 164.462 C 219.681 164.208,219.248 163.997,218.876 163.994 C 218.304 163.989,218.290 163.931,218.789 163.615 C 219.291 163.298,219.272 163.203,218.666 162.970 C 218.274 162.820,218.041 162.470,218.147 162.194 C 218.275 161.860,218.079 161.759,217.564 161.893 C 216.988 162.044,216.849 161.938,217.024 161.481 C 217.314 160.725,216.065 158.713,215.516 159.052 C 215.298 159.186,215.326 158.912,215.577 158.443 C 215.836 157.959,215.866 157.634,215.645 157.694 C 215.431 157.752,214.960 157.440,214.599 157.000 C 214.237 156.560,214.055 156.425,214.194 156.700 C 214.333 156.975,214.257 157.200,214.024 157.200 C 213.791 157.200,213.600 156.930,213.600 156.600 C 213.600 156.270,213.787 156.000,214.016 156.000 C 214.256 156.000,214.214 155.763,213.916 155.438 C 213.632 155.129,213.310 154.904,213.200 154.938 C 213.090 154.972,213.000 154.902,213.000 154.782 C 213.000 154.663,212.661 154.048,212.247 153.416 C 211.536 152.330,211.532 152.239,212.187 151.760 C 212.568 151.481,212.790 151.106,212.679 150.927 C 212.569 150.747,213.013 150.580,213.665 150.556 C 214.318 150.532,215.367 150.132,215.996 149.666 C 216.810 149.065,217.197 148.962,217.338 149.310 C 217.452 149.591,217.550 149.501,217.568 149.100 C 217.586 148.715,217.738 148.445,217.908 148.500 C 218.077 148.555,218.656 148.191,219.194 147.690 C 219.732 147.190,220.394 146.866,220.665 146.970 C 220.937 147.074,221.265 146.824,221.395 146.415 C 221.525 146.006,222.080 145.378,222.628 145.018 C 223.180 144.657,223.503 144.166,223.351 143.921 C 223.189 143.659,223.258 143.589,223.518 143.749 C 223.761 143.900,224.155 143.657,224.394 143.211 C 224.633 142.765,225.102 142.400,225.438 142.400 C 225.773 142.400,225.944 142.232,225.817 142.028 C 225.691 141.823,225.770 141.542,225.993 141.404 C 226.217 141.266,226.400 140.784,226.400 140.334 C 226.400 139.745,226.581 139.584,227.045 139.762 C 227.511 139.941,227.623 139.838,227.451 139.389 C 227.315 139.035,227.466 138.673,227.804 138.543 C 228.129 138.418,228.303 138.166,228.189 137.983 C 228.076 137.799,228.302 137.464,228.692 137.237 C 229.186 136.949,229.231 136.821,228.839 136.812 C 228.436 136.803,228.498 136.602,229.057 136.100 C 229.485 135.715,229.765 135.064,229.679 134.653 C 229.586 134.207,229.691 134.009,229.941 134.163 C 230.191 134.318,230.298 134.108,230.207 133.636 C 230.124 133.205,230.313 132.638,230.628 132.377 C 230.943 132.116,231.200 131.294,231.200 130.551 C 231.200 129.808,231.400 129.200,231.645 129.200 C 231.913 129.200,232.020 128.720,231.915 128.000 C 231.818 127.340,231.882 126.800,232.056 126.800 C 232.231 126.800,232.222 126.395,232.037 125.900 C 231.789 125.239,231.920 124.689,232.528 123.828 C 233.024 123.127,233.124 122.796,232.779 123.005 C 232.283 123.304,232.279 123.257,232.749 122.677 C 233.051 122.305,233.137 122.000,232.939 122.000 C 232.742 122.000,232.603 121.026,232.630 119.836 C 232.663 118.409,232.530 117.729,232.240 117.840 C 231.950 117.951,231.807 117.221,231.819 115.704 C 231.830 114.437,231.706 113.215,231.545 112.990 C 231.383 112.764,231.305 112.085,231.371 111.480 C 231.438 110.875,231.309 110.267,231.084 110.128 C 230.834 109.974,230.801 110.078,231.000 110.400 C 231.209 110.739,231.167 110.827,230.880 110.649 C 230.636 110.498,230.483 109.769,230.542 109.029 C 230.624 107.983,230.517 107.734,230.058 107.910 C 229.677 108.056,229.571 107.971,229.758 107.668 C 229.917 107.411,229.846 107.200,229.600 107.200 C 229.354 107.200,229.256 107.032,229.383 106.828 C 229.509 106.623,229.418 106.335,229.179 106.187 C 228.941 106.040,228.845 105.660,228.966 105.344 C 229.087 105.028,228.921 104.668,228.596 104.543 C 228.271 104.418,228.104 104.155,228.226 103.958 C 228.348 103.761,228.257 103.600,228.024 103.600 C 227.791 103.600,227.600 103.343,227.600 103.029 C 227.600 102.714,227.319 102.176,226.974 101.832 C 226.630 101.488,226.460 101.027,226.595 100.808 C 226.739 100.575,226.576 100.511,226.204 100.654 C 225.854 100.788,225.604 100.741,225.648 100.549 C 225.818 99.817,224.793 98.000,224.210 98.000 C 223.874 98.000,223.600 97.734,223.600 97.409 C 223.600 97.084,223.111 96.499,222.513 96.109 C 221.098 95.186,217.781 91.883,217.899 91.514 C 217.949 91.357,217.732 91.328,217.416 91.449 C 217.088 91.575,216.271 91.098,215.504 90.330 C 214.707 89.533,213.767 88.993,213.182 88.996 C 212.637 88.998,212.241 88.789,212.292 88.525 C 212.386 88.039,211.195 88.109,210.337 88.639 C 210.060 88.810,209.985 88.748,210.149 88.482 C 210.300 88.239,210.057 87.845,209.611 87.606 C 209.008 87.283,208.800 87.294,208.800 87.647 C 208.800 87.909,208.440 87.707,208.000 87.200 C 207.560 86.693,207.200 86.494,207.200 86.759 C 207.200 87.090,206.993 87.124,206.534 86.867 C 206.167 86.662,205.132 86.577,204.234 86.679 C 203.132 86.804,202.776 86.740,203.141 86.483 C 203.543 86.200,203.369 86.057,202.462 85.924 C 201.791 85.825,201.333 85.892,201.445 86.072 C 201.556 86.253,201.457 86.400,201.224 86.400 C 200.991 86.400,200.797 86.175,200.794 85.900 C 200.790 85.566,200.657 85.599,200.394 86.000 C 200.044 86.533,199.956 86.533,199.606 86.000 C 199.343 85.599,199.210 85.566,199.206 85.900 " stroke="none" fill="#fccc84" fill-rule="evenodd"></path><path id="path1" d="M216.000 89.794 C 216.000 90.403,217.866 91.999,218.572 91.994 C 219.231 91.989,219.281 91.913,218.819 91.620 C 218.500 91.418,218.095 91.342,217.919 91.450 C 217.744 91.558,217.600 91.410,217.600 91.120 C 217.600 90.830,217.240 90.368,216.800 90.093 C 216.360 89.818,216.000 89.683,216.000 89.794 M220.813 93.222 C 220.777 93.843,222.724 95.975,222.902 95.511 C 223.011 95.228,222.852 94.765,222.550 94.482 C 222.247 94.200,222.000 94.100,222.000 94.261 C 222.000 94.421,221.736 94.204,221.413 93.776 C 221.090 93.349,220.820 93.100,220.813 93.222 M333.200 95.166 L 332.200 95.452 333.300 95.671 C 333.905 95.791,334.400 95.723,334.400 95.521 C 334.400 95.318,334.580 95.264,334.800 95.400 C 335.020 95.536,335.200 95.457,335.200 95.224 C 335.200 94.753,334.692 94.739,333.200 95.166 M340.871 95.486 C 341.106 95.769,341.426 96.000,341.582 96.000 C 341.739 96.000,341.867 95.769,341.867 95.486 C 341.867 95.203,341.547 94.971,341.155 94.971 C 340.621 94.971,340.551 95.099,340.871 95.486 M224.238 97.000 C 224.773 98.497,226.000 99.472,226.000 98.400 C 226.000 98.180,225.783 98.045,225.518 98.100 C 225.253 98.155,225.028 97.984,225.018 97.720 C 225.008 97.456,224.764 97.006,224.476 96.720 C 224.046 96.292,224.003 96.342,224.238 97.000 M358.702 105.466 C 358.979 105.577,359.100 105.837,358.973 106.044 C 358.845 106.251,358.971 106.370,359.252 106.310 C 359.533 106.249,359.772 106.410,359.782 106.667 C 359.792 106.923,359.921 107.255,360.070 107.403 C 360.218 107.552,360.301 107.405,360.252 107.077 C 360.133 106.265,359.203 105.193,358.651 105.232 C 358.370 105.251,358.389 105.340,358.702 105.466 M366.000 116.576 C 366.000 117.467,366.626 117.644,366.692 116.772 C 366.724 116.348,366.581 116.000,366.375 116.000 C 366.169 116.000,366.000 116.259,366.000 116.576 M46.800 118.800 C 46.800 119.020,47.059 119.200,47.376 119.200 C 47.693 119.200,48.064 119.020,48.200 118.800 C 48.336 118.580,48.077 118.400,47.624 118.400 C 47.171 118.400,46.800 118.580,46.800 118.800 M304.643 119.833 C 304.267 120.811,304.349 120.908,305.000 120.257 C 305.680 119.577,305.767 119.200,305.243 119.200 C 305.046 119.200,304.776 119.485,304.643 119.833 M86.060 120.380 C 86.232 120.896,86.781 120.988,86.830 120.510 C 86.847 120.351,86.644 120.148,86.380 120.060 C 86.116 119.972,85.972 120.116,86.060 120.380 M87.705 121.876 C 88.077 122.248,88.515 122.418,88.679 122.254 C 88.843 122.091,88.712 121.789,88.388 121.584 C 87.415 120.969,86.982 121.153,87.705 121.876 M228.204 137.593 C 228.066 137.817,228.098 138.003,228.276 138.006 C 228.454 138.009,228.335 138.180,228.012 138.384 C 227.688 138.589,227.524 138.857,227.647 138.981 C 227.771 139.104,228.182 138.862,228.562 138.442 C 228.977 137.984,229.093 137.581,228.854 137.433 C 228.635 137.298,228.342 137.370,228.204 137.593 M366.908 140.028 C 366.876 140.452,367.019 140.800,367.225 140.800 C 367.680 140.800,367.727 139.725,367.283 139.451 C 367.109 139.344,366.940 139.603,366.908 140.028 M94.179 149.166 C 94.303 149.367,94.188 149.604,93.923 149.692 C 93.594 149.802,93.631 149.926,94.038 150.083 C 94.431 150.233,94.656 150.052,94.693 149.556 C 94.725 149.140,94.571 148.800,94.352 148.800 C 94.132 148.800,94.055 148.965,94.179 149.166 M216.800 149.562 C 215.823 149.839,215.820 149.851,216.674 150.078 C 217.226 150.226,217.627 150.107,217.762 149.756 C 217.879 149.450,217.936 149.218,217.887 149.240 C 217.839 149.262,217.350 149.407,216.800 149.562 M215.039 150.338 C 214.900 150.561,214.982 150.865,215.220 151.012 C 215.835 151.393,216.232 150.872,215.718 150.358 C 215.431 150.071,215.207 150.064,215.039 150.338 M312.400 151.151 C 312.400 151.412,312.669 151.728,312.998 151.854 C 313.326 151.981,313.496 152.245,313.374 152.442 C 313.252 152.639,313.343 152.800,313.576 152.800 C 314.239 152.800,314.076 152.193,313.200 151.400 C 312.723 150.968,312.400 150.868,312.400 151.151 M316.162 154.862 C 315.992 155.136,316.051 155.215,316.308 155.057 C 316.545 154.910,316.822 155.107,316.923 155.495 C 317.063 156.032,317.118 155.985,317.154 155.300 C 317.203 154.343,316.637 154.093,316.162 154.862 M90.651 156.113 C 89.989 156.597,89.992 156.629,90.708 156.683 C 91.125 156.715,91.467 156.484,91.467 156.170 C 91.467 155.481,91.512 155.484,90.651 156.113 M217.017 159.572 C 216.891 159.777,216.973 160.060,217.200 160.200 C 217.427 160.340,217.511 160.621,217.386 160.823 C 217.261 161.025,217.458 161.076,217.823 160.936 C 218.435 160.701,218.436 160.652,217.835 160.316 C 217.477 160.115,217.288 159.782,217.415 159.575 C 217.543 159.369,217.557 159.200,217.447 159.200 C 217.337 159.200,217.144 159.368,217.017 159.572 M331.810 161.184 C 331.471 161.733,331.771 162.145,332.362 161.942 C 332.604 161.858,332.635 161.576,332.437 161.257 C 332.187 160.855,332.025 160.836,331.810 161.184 M35.600 161.755 C 35.600 161.908,35.960 162.420,36.400 162.892 C 36.840 163.364,37.200 163.565,37.200 163.337 C 37.200 163.110,36.840 162.598,36.400 162.200 C 35.960 161.802,35.600 161.601,35.600 161.755 M311.600 164.091 C 311.600 164.449,311.285 164.824,310.900 164.924 C 310.404 165.054,310.375 165.119,310.800 165.147 C 311.889 165.221,312.661 164.501,312.097 163.937 C 311.701 163.541,311.600 163.572,311.600 164.091 M221.753 167.430 C 221.999 167.960,222.318 168.395,222.463 168.397 C 222.919 168.402,222.344 166.864,221.814 166.661 C 221.416 166.508,221.403 166.675,221.753 167.430 M308.607 167.611 C 308.747 167.837,308.442 168.398,307.931 168.856 L 307.000 169.690 308.000 169.097 C 309.045 168.478,309.588 167.200,308.806 167.200 C 308.557 167.200,308.467 167.385,308.607 167.611 M299.867 177.067 C 299.460 177.473,299.549 178.000,300.024 178.000 C 300.257 178.000,300.344 177.833,300.218 177.629 C 300.091 177.424,300.396 177.179,300.894 177.083 C 301.728 176.923,301.734 176.905,300.967 176.854 C 300.508 176.825,300.013 176.920,299.867 177.067 M178.294 178.732 C 177.740 179.842,177.747 179.855,178.652 179.432 C 179.159 179.194,179.392 178.937,179.170 178.861 C 178.914 178.773,178.936 178.518,179.232 178.161 C 179.533 177.799,179.549 177.600,179.278 177.600 C 179.047 177.600,178.605 178.109,178.294 178.732 M298.901 178.203 C 299.066 178.386,298.931 178.835,298.599 179.201 C 298.089 179.764,298.085 179.867,298.569 179.867 C 299.291 179.867,299.683 178.491,299.062 178.136 C 298.808 177.991,298.735 178.021,298.901 178.203 M176.886 182.011 C 176.290 182.966,176.277 183.200,176.824 183.200 C 177.057 183.200,177.144 183.034,177.019 182.830 C 176.893 182.627,177.058 182.402,177.385 182.330 C 177.738 182.253,177.856 182.004,177.676 181.716 C 177.457 181.367,177.236 181.450,176.886 182.011 M234.426 187.431 C 234.954 188.068,235.600 188.186,235.600 187.647 C 235.600 187.452,235.230 187.196,234.777 187.078 C 234.102 186.902,234.039 186.965,234.426 187.431 M72.413 188.524 C 72.406 188.922,72.580 189.136,72.800 189.000 C 73.020 188.864,73.200 189.123,73.200 189.576 C 73.200 190.029,73.380 190.400,73.600 190.400 C 74.220 190.400,74.075 189.779,73.213 188.744 C 72.532 187.927,72.425 187.897,72.413 188.524 M102.394 188.633 C 102.389 189.275,102.324 189.302,102.000 188.800 C 101.767 188.439,101.610 188.390,101.606 188.676 C 101.596 189.454,102.385 189.704,102.652 189.008 C 102.788 188.655,102.787 188.253,102.649 188.116 C 102.512 187.979,102.397 188.212,102.394 188.633 M103.200 190.187 C 103.200 190.544,103.435 190.685,103.798 190.546 C 104.126 190.419,104.296 190.155,104.174 189.958 C 103.825 189.393,103.200 189.540,103.200 190.187 M242.706 200.623 C 242.853 201.388,243.000 201.528,243.248 201.137 C 243.512 200.719,243.589 200.750,243.594 201.276 C 243.597 201.648,243.763 202.054,243.963 202.177 C 244.595 202.568,243.951 200.880,243.213 200.212 C 242.551 199.613,242.518 199.639,242.706 200.623 M325.074 206.700 C 324.978 206.865,325.045 207.360,325.222 207.800 C 325.579 208.687,325.658 208.618,325.796 207.300 C 325.887 206.440,325.439 206.068,325.074 206.700 M123.178 208.359 C 123.725 209.380,124.400 209.801,124.400 209.120 C 124.400 208.830,124.029 208.361,123.576 208.078 C 122.819 207.605,122.787 207.628,123.178 208.359 M272.082 209.450 C 271.521 210.051,271.782 210.108,272.971 209.642 C 273.566 209.408,273.611 209.290,273.169 209.120 C 272.854 208.999,272.365 209.148,272.082 209.450 M130.000 214.625 C 130.000 215.091,131.155 215.997,131.349 215.683 C 131.458 215.505,131.200 215.143,130.774 214.877 C 130.348 214.611,130.000 214.498,130.000 214.625 M266.000 216.587 C 266.000 216.944,266.235 217.085,266.598 216.946 C 266.926 216.819,267.096 216.555,266.974 216.358 C 266.625 215.793,266.000 215.940,266.000 216.587 M254.281 218.267 C 254.393 218.560,254.646 218.800,254.843 218.800 C 255.039 218.800,255.200 218.560,255.200 218.267 C 255.200 217.973,254.947 217.733,254.638 217.733 C 254.329 217.733,254.168 217.973,254.281 218.267 M264.460 218.380 C 264.632 218.896,265.181 218.988,265.230 218.510 C 265.247 218.350,265.044 218.148,264.780 218.060 C 264.516 217.972,264.372 218.116,264.460 218.380 M76.852 218.800 C 76.789 219.716,77.255 221.200,77.604 221.200 C 77.775 221.200,77.889 220.767,77.858 220.238 C 77.826 219.709,77.679 219.352,77.530 219.443 C 77.382 219.535,77.178 219.293,77.077 218.905 C 76.948 218.410,76.881 218.379,76.852 218.800 M324.302 219.800 C 324.197 220.350,324.266 220.800,324.455 220.800 C 324.645 220.800,324.800 220.350,324.800 219.800 C 324.800 219.250,324.731 218.800,324.647 218.800 C 324.562 218.800,324.407 219.250,324.302 219.800 M256.306 221.018 C 256.530 222.191,257.029 222.601,257.434 221.945 C 257.615 221.652,257.550 221.584,257.262 221.762 C 256.972 221.941,256.800 221.750,256.800 221.247 C 256.800 220.807,256.646 220.352,256.458 220.236 C 256.270 220.119,256.201 220.471,256.306 221.018 M324.188 223.522 C 323.713 223.862,323.677 225.403,324.133 225.864 C 324.317 226.049,324.416 226.020,324.354 225.800 C 324.292 225.580,324.384 224.981,324.557 224.470 C 324.908 223.437,324.777 223.100,324.188 223.522 M323.484 228.400 C 323.369 228.839,323.438 229.300,323.638 229.423 C 323.837 229.546,324.000 229.187,324.000 228.624 C 324.000 227.398,323.772 227.299,323.484 228.400 M79.700 234.665 C 79.070 234.919,79.051 235.860,79.668 236.242 C 79.975 236.432,80.055 236.319,79.899 235.914 C 79.769 235.575,79.864 235.096,80.111 234.849 C 80.586 234.374,80.508 234.339,79.700 234.665 M81.110 244.223 C 80.818 244.516,81.210 246.000,81.580 246.000 C 81.899 246.000,81.868 244.534,81.541 244.208 C 81.427 244.094,81.233 244.100,81.110 244.223 M321.481 251.333 C 321.368 251.627,321.529 251.867,321.838 251.867 C 322.147 251.867,322.400 251.627,322.400 251.333 C 322.400 251.040,322.239 250.800,322.043 250.800 C 321.846 250.800,321.593 251.040,321.481 251.333 M83.232 260.300 C 83.196 261.327,83.796 261.509,84.153 260.579 C 84.284 260.238,84.228 260.059,84.030 260.182 C 83.831 260.305,83.577 260.179,83.466 259.902 C 83.354 259.626,83.249 259.805,83.232 260.300 M321.092 260.642 C 320.931 260.802,320.800 261.209,320.800 261.547 C 320.800 261.997,320.918 262.042,321.245 261.715 C 321.490 261.470,321.621 261.063,321.537 260.810 C 321.452 260.557,321.252 260.481,321.092 260.642 M320.122 269.154 C 319.875 269.549,319.813 270.097,319.983 270.373 C 320.188 270.704,320.367 270.488,320.511 269.737 C 320.779 268.344,320.701 268.227,320.122 269.154 M85.600 276.751 C 85.600 276.998,85.825 277.203,86.100 277.206 C 86.433 277.210,86.400 277.342,86.000 277.600 C 85.639 277.833,85.590 277.990,85.876 277.994 C 86.655 278.004,86.835 277.327,86.196 276.796 C 85.782 276.453,85.600 276.439,85.600 276.751 M88.032 293.676 C 87.989 294.587,88.657 294.950,88.954 294.177 C 89.084 293.837,89.028 293.659,88.830 293.782 C 88.631 293.905,88.377 293.779,88.266 293.502 C 88.140 293.190,88.051 293.256,88.032 293.676 M317.102 305.000 C 317.207 305.550,317.362 306.000,317.447 306.000 C 317.531 306.000,317.600 305.550,317.600 305.000 C 317.600 304.450,317.445 304.000,317.255 304.000 C 317.066 304.000,316.997 304.450,317.102 305.000 M90.517 309.077 C 90.596 309.669,90.917 310.223,91.231 310.307 C 91.604 310.408,91.648 310.347,91.361 310.130 C 91.119 309.949,90.954 309.395,90.994 308.900 C 91.034 308.405,90.910 308.000,90.719 308.000 C 90.529 308.000,90.438 308.485,90.517 309.077 M312.800 309.261 C 312.800 309.723,314.695 309.693,314.984 309.227 C 315.111 309.021,314.671 308.869,314.007 308.887 C 313.343 308.906,312.800 309.074,312.800 309.261 M212.400 311.450 C 212.400 312.187,214.898 312.014,215.044 311.267 C 215.097 310.999,215.054 310.949,214.948 311.156 C 214.834 311.379,214.277 311.394,213.578 311.194 C 212.651 310.928,212.400 310.982,212.400 311.450 M205.141 311.701 C 205.343 311.903,205.933 312.001,206.454 311.919 C 207.255 311.793,207.198 311.737,206.087 311.552 C 205.293 311.421,204.919 311.479,205.141 311.701 M209.539 311.638 C 209.326 311.770,209.700 311.892,210.369 311.911 C 211.038 311.931,211.678 311.797,211.790 311.616 C 212.019 311.246,210.145 311.265,209.539 311.638 M178.611 312.383 C 178.525 312.521,179.018 312.677,179.707 312.729 C 180.395 312.782,180.829 312.696,180.671 312.538 C 180.300 312.167,178.813 312.055,178.611 312.383 M143.733 313.086 C 143.733 313.369,143.954 313.600,144.224 313.600 C 144.494 313.600,144.803 313.369,144.912 313.086 C 145.025 312.790,144.817 312.571,144.421 312.571 C 144.043 312.571,143.733 312.803,143.733 313.086 M103.600 313.581 C 102.886 313.764,102.772 313.902,103.200 314.063 C 103.898 314.326,105.528 313.838,104.973 313.532 C 104.768 313.419,104.150 313.441,103.600 313.581 " stroke="none" fill="#fcd484" fill-rule="evenodd"></path><path id="path2" d="M195.200 86.087 C 195.200 86.471,195.558 86.448,196.600 85.998 C 197.290 85.700,197.249 85.661,196.300 85.713 C 195.695 85.747,195.200 85.915,195.200 86.087 M219.452 92.591 C 219.580 92.926,219.936 93.200,220.243 93.200 C 221.024 93.200,220.936 92.901,220.009 92.405 C 219.364 92.059,219.261 92.094,219.452 92.591 M174.681 97.441 C 173.813 98.600,174.101 98.699,175.185 97.615 C 175.617 97.183,175.842 96.751,175.685 96.656 C 175.528 96.560,175.077 96.914,174.681 97.441 M346.400 96.733 C 346.400 97.307,346.854 97.554,347.473 97.317 C 347.957 97.131,347.968 97.026,347.534 96.750 C 346.850 96.317,346.400 96.310,346.400 96.733 M323.604 98.596 C 323.332 98.923,322.922 99.075,322.693 98.934 C 322.454 98.786,322.396 98.870,322.557 99.130 C 322.854 99.611,324.400 98.918,324.400 98.304 C 324.400 97.845,324.151 97.936,323.604 98.596 M318.077 102.026 C 317.509 102.935,317.812 103.045,318.632 102.226 C 318.948 101.910,319.061 101.561,318.883 101.451 C 318.705 101.342,318.343 101.600,318.077 102.026 M169.200 106.200 C 169.200 106.530,169.391 106.800,169.624 106.800 C 169.857 106.800,169.945 106.635,169.821 106.434 C 169.697 106.233,169.821 105.977,170.098 105.866 C 170.401 105.744,170.322 105.651,169.900 105.632 C 169.515 105.614,169.200 105.870,169.200 106.200 M308.767 110.900 C 308.351 112.148,308.593 112.749,309.267 112.140 C 310.175 111.318,310.192 111.151,309.334 111.481 C 308.887 111.652,308.764 111.583,308.958 111.268 C 309.117 111.011,309.147 110.800,309.024 110.800 C 308.901 110.800,308.785 110.845,308.767 110.900 M55.050 114.914 C 54.393 115.394,54.401 115.429,55.173 115.429 C 55.628 115.429,56.000 115.197,56.000 114.914 C 56.000 114.631,55.944 114.400,55.876 114.400 C 55.809 114.400,55.436 114.631,55.050 114.914 M232.217 115.572 C 231.944 116.014,232.575 116.492,232.944 116.122 C 233.325 115.742,233.254 115.200,232.824 115.200 C 232.617 115.200,232.344 115.368,232.217 115.572 M81.866 117.427 C 82.135 118.129,82.192 118.132,82.731 117.484 C 83.054 117.094,82.973 116.953,82.402 116.910 C 81.898 116.872,81.719 117.044,81.866 117.427 M89.219 123.000 C 89.209 123.594,89.923 124.610,90.174 124.359 C 90.294 124.240,90.129 123.795,89.809 123.371 C 89.488 122.947,89.222 122.780,89.219 123.000 M231.953 129.900 C 231.927 130.065,231.927 130.335,231.953 130.500 C 231.979 130.665,231.820 130.800,231.600 130.800 C 231.380 130.800,231.200 131.016,231.200 131.280 C 231.200 131.651,231.308 131.652,231.676 131.284 C 232.140 130.820,232.494 129.600,232.165 129.600 C 232.074 129.600,231.979 129.735,231.953 129.900 M169.844 133.200 C 170.711 134.988,170.978 135.267,170.607 134.000 C 170.446 133.450,170.056 132.730,169.740 132.400 C 169.323 131.965,169.352 132.184,169.844 133.200 M94.680 133.983 C 94.941 134.984,95.600 135.477,95.600 134.673 C 95.600 134.357,95.344 133.886,95.031 133.626 C 94.565 133.239,94.502 133.303,94.680 133.983 M230.240 133.721 C 229.592 134.195,229.586 134.290,230.164 134.770 C 230.532 135.075,230.800 135.123,230.800 134.882 C 230.800 134.654,230.575 134.376,230.300 134.265 C 229.992 134.141,230.060 134.051,230.476 134.032 C 230.848 134.014,231.264 133.820,231.400 133.600 C 231.750 133.034,231.085 133.104,230.240 133.721 M95.948 141.300 C 95.723 141.738,95.830 143.600,96.081 143.600 C 96.257 143.600,96.400 143.060,96.400 142.400 C 96.400 141.408,96.175 140.861,95.948 141.300 M31.172 142.500 C 30.974 143.220,30.902 144.831,31.076 144.657 C 31.350 144.383,31.603 142.400,31.365 142.400 C 31.274 142.400,31.188 142.445,31.172 142.500 M222.395 145.421 C 221.848 145.724,221.580 145.981,221.800 145.992 C 222.020 146.003,221.960 146.164,221.666 146.350 C 221.239 146.621,221.264 146.739,221.787 146.940 C 222.170 147.086,222.340 147.027,222.197 146.795 C 222.063 146.578,222.244 146.400,222.600 146.400 C 222.956 146.400,223.144 146.234,223.019 146.030 C 222.893 145.827,223.107 145.598,223.495 145.521 C 223.883 145.444,224.018 145.266,223.795 145.126 C 223.572 144.985,222.942 145.118,222.395 145.421 M189.200 151.200 C 189.976 151.701,190.400 151.701,190.400 151.200 C 190.400 150.980,189.995 150.803,189.500 150.806 C 188.772 150.811,188.715 150.886,189.200 151.200 M191.403 151.930 C 191.295 152.038,191.394 152.352,191.623 152.628 C 191.911 152.975,191.910 153.208,191.619 153.388 C 191.055 153.737,191.086 154.400,191.667 154.400 C 191.923 154.400,192.015 154.282,191.870 154.137 C 191.725 153.992,191.807 153.632,192.052 153.337 C 192.297 153.042,192.364 152.800,192.200 152.800 C 192.036 152.800,192.101 152.560,192.345 152.267 C 192.777 151.745,191.902 151.432,191.403 151.930 M357.544 153.186 C 356.752 153.838,355.982 154.249,355.831 154.098 C 355.681 153.948,355.675 154.131,355.819 154.506 C 356.060 155.133,356.135 155.126,356.741 154.413 C 357.103 153.987,357.850 153.276,358.400 152.833 C 358.950 152.389,359.306 152.021,359.191 152.013 C 359.076 152.006,358.335 152.534,357.544 153.186 M213.855 154.711 C 213.749 154.882,214.021 155.467,214.458 156.011 L 215.254 157.000 214.742 156.000 C 214.460 155.450,214.268 154.865,214.315 154.700 C 214.427 154.306,214.101 154.314,213.855 154.711 M32.657 156.596 C 32.501 157.002,32.539 157.499,32.742 157.702 C 33.258 158.218,33.555 157.552,33.220 156.629 C 32.951 155.890,32.928 155.889,32.657 156.596 M220.400 165.505 C 220.400 166.210,221.327 167.600,221.798 167.600 C 221.931 167.600,220.833 165.188,220.538 164.833 C 220.462 164.742,220.400 165.044,220.400 165.505 M41.384 167.227 C 41.239 167.461,41.183 167.692,41.260 167.740 C 41.337 167.787,41.760 168.087,42.200 168.406 C 42.977 168.970,42.980 168.963,42.299 168.161 C 41.914 167.707,41.719 167.215,41.866 167.068 C 42.013 166.920,42.024 166.800,41.890 166.800 C 41.757 166.800,41.529 166.992,41.384 167.227 M68.414 171.783 C 68.111 172.148,68.072 172.400,68.318 172.400 C 68.546 172.400,68.828 172.175,68.943 171.900 C 69.094 171.542,69.279 171.599,69.597 172.100 C 69.840 172.485,70.256 172.797,70.520 172.794 C 70.852 172.790,70.836 172.684,70.466 172.449 C 70.172 172.263,69.957 171.951,69.987 171.755 C 70.085 171.126,68.943 171.146,68.414 171.783 M56.400 172.770 C 56.400 172.935,57.055 173.095,57.857 173.125 C 58.658 173.155,59.243 173.111,59.157 173.028 C 58.830 172.710,56.400 172.483,56.400 172.770 M87.194 175.212 C 86.692 175.530,86.708 175.589,87.300 175.594 C 87.685 175.597,88.000 175.810,88.000 176.067 C 88.000 176.323,88.106 176.427,88.237 176.297 C 88.735 175.798,87.802 174.828,87.194 175.212 M180.126 175.500 C 179.989 175.885,179.801 176.380,179.709 176.600 C 179.616 176.820,179.824 176.651,180.170 176.224 C 180.799 175.448,180.989 174.800,180.587 174.800 C 180.471 174.800,180.263 175.115,180.126 175.500 M91.600 179.013 C 91.600 179.349,91.869 179.728,92.198 179.854 C 92.526 179.981,92.697 180.243,92.577 180.437 C 92.457 180.632,92.637 180.684,92.977 180.554 C 93.718 180.269,93.407 179.600,92.534 179.600 C 92.148 179.600,92.001 179.374,92.145 179.000 C 92.271 178.670,92.201 178.400,91.987 178.400 C 91.774 178.400,91.600 178.676,91.600 179.013 M177.632 180.533 C 177.595 181.372,178.471 181.243,178.705 180.375 C 178.834 179.900,178.795 179.895,178.479 180.345 C 178.156 180.806,178.063 180.806,177.880 180.345 C 177.734 179.978,177.653 180.040,177.632 180.533 M94.800 182.000 C 95.475 182.660,96.156 183.194,96.314 183.187 C 96.471 183.180,96.251 182.910,95.824 182.587 C 95.396 182.264,95.206 182.000,95.400 182.000 C 95.825 182.000,94.335 180.831,93.886 180.813 C 93.714 180.806,94.125 181.340,94.800 182.000 M294.852 182.937 C 294.239 183.676,294.764 184.093,295.448 183.410 C 295.751 183.106,296.000 182.754,296.000 182.629 C 296.000 182.207,295.303 182.394,294.852 182.937 M236.133 189.821 C 236.133 190.120,236.343 190.446,236.600 190.545 C 236.857 190.643,237.067 190.479,237.067 190.179 C 237.067 189.880,236.857 189.554,236.600 189.455 C 236.343 189.357,236.133 189.521,236.133 189.821 M106.406 192.700 C 106.422 193.499,107.090 194.065,107.317 193.473 C 107.442 193.146,107.437 192.771,107.306 192.639 C 106.969 192.303,106.399 192.341,106.406 192.700 M286.504 192.994 C 286.231 193.304,286.150 193.646,286.324 193.753 C 286.498 193.860,286.857 193.600,287.123 193.174 C 287.680 192.283,287.242 192.156,286.504 192.994 M239.205 194.809 C 239.438 195.244,239.847 195.586,240.114 195.568 C 240.478 195.545,240.474 195.486,240.098 195.334 C 239.821 195.223,239.685 194.986,239.795 194.808 C 239.905 194.630,239.722 194.379,239.388 194.251 C 238.894 194.061,238.860 194.164,239.205 194.809 M168.117 199.615 C 167.871 200.267,167.814 200.800,167.991 200.800 C 168.320 200.800,168.951 198.817,168.701 198.568 C 168.626 198.492,168.363 198.964,168.117 199.615 M166.178 202.435 C 166.031 202.674,166.136 203.079,166.414 203.335 C 166.800 203.691,166.851 203.683,166.635 203.300 C 166.480 203.025,166.543 202.800,166.776 202.800 C 167.009 202.800,167.200 202.620,167.200 202.400 C 167.200 201.866,166.516 201.889,166.178 202.435 M276.030 204.964 C 275.735 205.320,275.706 205.619,275.953 205.771 C 276.168 205.904,276.458 205.830,276.596 205.607 C 276.734 205.383,276.702 205.197,276.524 205.194 C 276.346 205.191,276.470 205.013,276.800 204.800 C 277.130 204.587,277.197 204.409,276.949 204.406 C 276.701 204.403,276.287 204.654,276.030 204.964 M126.133 211.378 C 126.133 211.696,126.238 211.944,126.367 211.930 C 127.124 211.849,127.618 212.048,127.426 212.358 C 127.304 212.555,127.474 212.819,127.802 212.946 C 128.642 213.268,128.545 212.707,127.584 211.675 C 126.640 210.661,126.133 210.558,126.133 211.378 M269.889 212.005 C 269.510 212.447,269.200 213.117,269.200 213.494 C 269.200 214.265,270.023 213.272,270.521 211.900 C 270.848 210.999,270.733 211.018,269.889 212.005 M250.909 213.212 C 250.879 213.610,251.112 214.034,251.427 214.155 C 251.798 214.297,252.000 214.112,252.000 213.630 C 252.000 212.652,250.981 212.261,250.909 213.212 M324.400 216.310 C 324.400 216.773,324.581 217.264,324.801 217.401 C 325.031 217.543,325.149 217.301,325.078 216.835 C 324.903 215.686,324.400 215.297,324.400 216.310 M159.200 217.200 C 159.726 217.540,159.722 217.589,159.167 217.594 C 158.818 217.597,158.533 217.870,158.533 218.200 C 158.533 219.017,158.911 218.954,159.480 218.043 C 159.966 217.265,159.796 216.795,159.033 216.806 C 158.795 216.809,158.870 216.987,159.200 217.200 M156.370 222.500 C 156.080 223.475,156.082 224.396,156.373 224.216 C 156.580 224.089,156.722 223.628,156.689 223.192 C 156.639 222.517,156.472 222.157,156.370 222.500 M258.666 224.733 C 258.740 225.026,258.800 225.351,258.800 225.456 C 258.800 225.561,258.980 225.536,259.200 225.400 C 259.420 225.264,259.600 224.973,259.600 224.753 C 259.600 224.533,259.435 224.455,259.234 224.579 C 259.033 224.703,258.792 224.669,258.700 224.502 C 258.607 224.336,258.592 224.440,258.666 224.733 M78.515 229.934 C 78.570 230.690,78.779 231.029,79.110 230.902 C 79.465 230.766,79.496 230.557,79.214 230.216 C 78.990 229.947,78.907 229.626,79.030 229.503 C 79.153 229.381,79.068 229.166,78.842 229.026 C 78.589 228.870,78.463 229.222,78.515 229.934 M146.231 229.484 C 146.688 229.887,146.988 230.437,146.897 230.708 C 146.807 230.979,147.013 231.200,147.354 231.200 C 148.246 231.200,147.740 230.174,146.466 229.400 C 145.420 228.765,145.415 228.766,146.231 229.484 M149.300 232.676 C 149.685 232.776,150.000 233.025,150.000 233.229 C 150.000 233.433,150.202 233.600,150.449 233.600 C 150.759 233.600,150.744 233.415,150.400 233.000 C 150.126 232.670,149.609 232.421,149.251 232.446 C 148.702 232.486,148.709 232.521,149.300 232.676 M323.006 233.590 C 322.869 233.812,322.920 234.286,323.120 234.642 C 323.436 235.208,323.511 235.182,323.704 234.446 C 323.939 233.546,323.424 232.914,323.006 233.590 M81.600 251.533 C 81.600 252.364,82.187 252.493,82.206 251.667 C 82.209 251.520,82.337 251.205,82.489 250.967 C 82.641 250.727,82.504 250.533,82.182 250.533 C 81.828 250.533,81.600 250.925,81.600 251.533 M319.400 276.000 C 319.536 276.220,319.457 276.400,319.224 276.400 C 318.991 276.400,318.800 276.591,318.800 276.824 C 318.800 277.057,318.965 277.145,319.166 277.021 C 319.367 276.897,319.623 277.021,319.734 277.298 C 319.846 277.574,319.951 277.305,319.968 276.700 C 319.986 276.095,319.809 275.600,319.576 275.600 C 319.343 275.600,319.264 275.780,319.400 276.000 M319.400 278.306 C 318.920 278.659,318.760 280.000,319.198 280.000 C 319.368 280.000,319.593 279.550,319.698 279.000 C 319.803 278.450,319.869 278.003,319.845 278.006 C 319.820 278.009,319.620 278.144,319.400 278.306 M318.708 285.983 C 318.431 286.967,318.597 287.537,319.032 287.101 C 319.160 286.973,319.201 286.448,319.124 285.934 L 318.984 285.000 318.708 285.983 M308.100 309.476 C 308.485 309.576,309.115 309.576,309.500 309.476 C 309.885 309.375,309.570 309.293,308.800 309.293 C 308.030 309.293,307.715 309.375,308.100 309.476 M278.400 310.093 C 278.400 310.270,278.895 310.296,279.500 310.151 C 281.081 309.772,281.160 309.560,279.679 309.673 C 278.976 309.726,278.400 309.915,278.400 310.093 M207.331 311.712 C 207.225 311.884,207.857 311.974,208.735 311.912 C 209.613 311.850,210.242 311.710,210.133 311.600 C 209.813 311.279,207.542 311.370,207.331 311.712 M177.000 312.400 C 176.286 312.707,176.315 312.747,177.276 312.772 C 177.868 312.787,178.464 312.620,178.600 312.400 C 178.895 311.922,178.111 311.922,177.000 312.400 M139.800 313.200 L 138.600 313.505 139.676 313.553 C 140.268 313.579,140.864 313.420,141.000 313.200 C 141.136 312.980,141.192 312.821,141.124 312.847 C 141.056 312.873,140.460 313.032,139.800 313.200 M108.400 313.915 C 108.400 314.088,108.985 314.259,109.700 314.294 C 110.760 314.346,110.852 314.293,110.200 314.007 C 109.169 313.555,108.400 313.516,108.400 313.915 " stroke="none" fill="#fccc8c" fill-rule="evenodd"></path><path id="path3" d="" stroke="none" fill="#100cc84" fill-rule="evenodd"></path><path id="path4" d="" stroke="none" fill="#100cc84" fill-rule="evenodd"></path></g></svg>