<svg id="svg" version="1.1" xmlns="http://www.w3.org/2000/svg" xmlns:xlink="http://www.w3.org/1999/xlink" width="400" height="400" viewBox="0, 0, 400,400"><g id="svgg"><path id="path0" d="M261.600 82.000 C 261.270 82.213,260.055 82.391,258.900 82.394 C 257.745 82.397,256.800 82.580,256.800 82.800 C 256.800 83.020,256.001 83.200,255.024 83.200 C 254.047 83.200,253.136 83.380,253.000 83.600 C 252.864 83.820,251.863 84.000,250.776 84.000 C 249.689 84.000,248.800 84.180,248.800 84.400 C 248.800 84.620,248.080 84.800,247.200 84.800 C 246.320 84.800,245.600 84.980,245.600 85.200 C 245.600 85.420,244.970 85.600,244.200 85.600 C 243.430 85.600,242.800 85.780,242.800 86.000 C 242.800 86.220,242.181 86.400,241.424 86.400 C 240.667 86.400,239.936 86.580,239.800 86.800 C 239.664 87.020,239.023 87.200,238.376 87.200 C 237.729 87.200,237.200 87.380,237.200 87.600 C 237.200 87.820,236.660 88.000,236.000 88.000 C 235.340 88.000,234.800 88.180,234.800 88.400 C 234.800 88.620,234.260 88.800,233.600 88.800 C 232.940 88.800,232.400 88.980,232.400 89.200 C 232.400 89.420,231.860 89.600,231.200 89.600 C 230.540 89.600,230.000 89.780,230.000 90.000 C 230.000 90.220,229.561 90.400,229.024 90.400 C 228.487 90.400,227.936 90.580,227.800 90.800 C 227.664 91.020,227.203 91.200,226.776 91.200 C 226.349 91.200,226.000 91.391,226.000 91.624 C 226.000 91.857,225.852 91.956,225.671 91.844 C 225.491 91.732,224.840 91.902,224.226 92.220 C 223.611 92.539,222.871 92.800,222.580 92.800 C 222.290 92.800,221.545 93.008,220.926 93.261 C 220.307 93.515,219.620 93.763,219.400 93.812 C 219.180 93.861,218.157 94.297,217.127 94.782 C 216.097 95.266,215.017 95.700,214.727 95.746 C 214.437 95.791,213.587 96.137,212.839 96.514 C 212.090 96.891,211.224 97.200,210.915 97.200 C 210.606 97.200,210.464 97.380,210.600 97.600 C 210.736 97.820,210.607 98.000,210.313 98.000 C 210.020 98.000,208.704 98.534,207.390 99.187 C 206.075 99.841,204.685 100.381,204.300 100.387 C 203.915 100.394,203.599 100.535,203.597 100.700 C 203.593 101.051,201.663 102.000,200.954 102.000 C 200.686 102.000,200.407 102.135,200.333 102.300 C 200.138 102.740,196.822 104.400,196.139 104.400 C 195.816 104.400,195.664 104.580,195.800 104.800 C 195.936 105.020,195.767 105.200,195.424 105.200 C 195.081 105.200,194.800 105.342,194.800 105.515 C 194.800 105.688,194.438 105.857,193.996 105.890 C 193.554 105.924,192.923 106.220,192.594 106.549 C 192.265 106.878,191.636 107.262,191.198 107.401 C 190.759 107.540,190.400 107.822,190.400 108.027 C 190.400 108.232,190.040 108.400,189.600 108.400 C 189.160 108.400,188.800 108.580,188.800 108.800 C 188.800 109.020,188.521 109.200,188.180 109.200 C 187.558 109.200,185.175 110.298,184.800 110.756 C 184.690 110.891,184.060 111.265,183.400 111.588 C 182.740 111.911,181.448 112.676,180.528 113.288 C 179.608 113.899,178.743 114.400,178.606 114.400 C 178.219 114.400,173.417 117.703,173.267 118.072 C 173.193 118.253,172.788 118.400,172.367 118.400 C 171.945 118.400,171.600 118.580,171.600 118.800 C 171.600 119.020,171.364 119.200,171.075 119.200 C 170.787 119.200,170.164 119.560,169.692 120.000 C 169.220 120.440,168.622 120.800,168.364 120.800 C 168.105 120.800,167.603 121.116,167.247 121.503 C 166.891 121.889,166.105 122.460,165.500 122.770 C 164.895 123.081,164.400 123.485,164.400 123.668 C 164.400 123.850,164.164 124.000,163.875 124.000 C 163.587 124.000,163.002 124.315,162.575 124.700 C 162.149 125.085,161.121 125.758,160.290 126.196 C 159.460 126.634,158.200 127.489,157.490 128.095 C 156.781 128.702,156.015 129.199,155.788 129.199 C 155.562 129.200,155.117 129.560,154.800 130.000 C 154.483 130.440,154.038 130.800,153.812 130.801 C 153.585 130.801,152.770 131.341,152.000 132.000 C 151.230 132.659,150.441 133.199,150.247 133.199 C 150.053 133.200,149.591 133.549,149.222 133.975 C 148.852 134.401,148.292 134.806,147.978 134.875 C 147.665 134.944,146.929 135.495,146.343 136.100 C 145.758 136.705,145.146 137.200,144.983 137.200 C 144.820 137.200,144.171 137.740,143.540 138.400 C 142.909 139.060,142.209 139.600,141.983 139.600 C 141.758 139.600,140.939 140.234,140.164 141.009 C 139.389 141.785,138.613 142.332,138.441 142.225 C 138.268 142.118,137.523 142.654,136.785 143.416 C 136.047 144.177,135.298 144.800,135.122 144.800 C 134.945 144.800,134.485 145.079,134.100 145.421 C 131.307 147.897,130.672 148.400,130.342 148.400 C 129.779 148.400,131.139 149.682,133.612 151.484 C 136.540 153.617,142.501 159.507,145.267 163.000 C 147.492 165.811,152.400 172.967,152.400 173.402 C 152.400 173.529,152.591 173.851,152.824 174.117 C 153.057 174.383,153.594 175.185,154.018 175.900 C 155.002 177.561,155.356 177.536,158.351 175.600 C 159.713 174.720,161.001 174.000,161.213 174.000 C 161.426 174.000,161.600 173.850,161.600 173.668 C 161.600 173.485,162.095 173.085,162.700 172.780 C 163.305 172.474,164.552 171.724,165.472 171.112 C 166.392 170.501,167.264 170.000,167.410 170.000 C 167.557 170.000,168.163 169.653,168.759 169.230 C 170.039 168.318,179.407 162.927,183.400 160.804 C 184.940 159.985,187.460 158.636,189.000 157.806 C 193.944 155.141,201.308 151.420,204.600 149.922 C 206.360 149.122,209.420 147.723,211.400 146.814 C 213.380 145.905,215.360 145.013,215.800 144.831 C 216.240 144.650,217.500 144.096,218.600 143.600 C 219.700 143.104,220.960 142.560,221.400 142.390 C 222.228 142.071,223.839 141.394,226.600 140.207 C 232.626 137.615,244.426 133.395,254.000 130.408 C 256.970 129.482,259.813 128.561,260.319 128.362 C 260.824 128.163,261.669 128.000,262.195 128.000 C 262.722 128.000,263.251 127.841,263.371 127.646 C 263.492 127.451,264.087 127.193,264.695 127.071 C 265.303 126.949,266.565 126.658,267.500 126.425 C 268.435 126.191,269.920 125.820,270.800 125.600 C 276.274 124.231,277.617 123.919,281.200 123.182 C 282.410 122.933,284.210 122.556,285.200 122.344 C 288.218 121.696,294.532 120.648,299.200 120.018 C 304.361 119.323,304.394 119.307,304.451 117.450 C 304.584 113.154,303.927 108.400,303.200 108.400 C 303.076 108.400,302.934 107.905,302.884 107.300 C 302.834 106.695,302.615 106.140,302.397 106.067 C 302.178 105.993,302.000 105.588,302.000 105.167 C 302.000 104.745,301.820 104.400,301.600 104.400 C 301.380 104.400,301.200 104.080,301.200 103.688 C 301.200 103.297,300.840 102.717,300.400 102.400 C 299.960 102.083,299.600 101.543,299.600 101.200 C 299.600 100.857,299.240 100.317,298.800 100.000 C 298.360 99.683,298.000 99.196,298.000 98.918 C 298.000 98.641,297.325 97.677,296.500 96.777 C 293.105 93.073,291.265 91.200,291.021 91.200 C 290.880 91.200,290.344 90.795,289.832 90.300 C 288.307 88.826,287.216 88.000,286.795 88.000 C 286.578 88.000,286.400 87.820,286.400 87.600 C 286.400 87.380,286.119 87.200,285.776 87.200 C 285.433 87.200,285.264 87.020,285.400 86.800 C 285.536 86.580,285.402 86.400,285.103 86.400 C 284.349 86.400,282.407 85.465,282.403 85.100 C 282.401 84.935,282.040 84.800,281.600 84.800 C 281.160 84.800,280.800 84.620,280.800 84.400 C 280.800 84.180,280.350 84.000,279.800 84.000 C 279.250 84.000,278.800 83.820,278.800 83.600 C 278.800 83.380,278.350 83.200,277.800 83.200 C 277.250 83.200,276.800 83.020,276.800 82.800 C 276.800 82.580,276.181 82.400,275.424 82.400 C 274.667 82.400,273.936 82.220,273.800 82.000 C 273.479 81.480,262.404 81.480,261.600 82.000 " stroke="none" fill="#9cbbdb" fill-rule="evenodd"></path><path id="path1" d="M336.396 194.050 C 334.418 195.897,326.395 201.600,325.775 201.600 C 325.637 201.600,324.989 201.981,324.336 202.446 C 319.267 206.055,298.156 215.008,284.200 219.468 C 282.440 220.030,280.640 220.632,280.200 220.805 C 279.760 220.977,278.050 221.509,276.400 221.987 C 274.750 222.464,272.950 223.001,272.400 223.181 C 271.850 223.360,270.680 223.706,269.800 223.948 C 268.920 224.191,266.310 224.918,264.000 225.564 C 260.185 226.631,253.656 228.252,246.800 229.835 C 245.370 230.165,243.480 230.604,242.600 230.811 C 241.720 231.017,239.560 231.482,237.800 231.843 C 234.667 232.486,233.354 232.737,228.700 233.582 C 227.435 233.812,225.365 234.191,224.100 234.423 C 218.363 235.479,207.690 236.941,201.000 237.587 C 193.098 238.350,193.418 238.147,195.426 241.128 C 196.931 243.363,200.498 250.200,201.731 253.213 C 202.133 254.196,202.619 255.360,202.811 255.800 C 205.737 262.512,207.809 274.344,206.803 278.600 C 206.279 280.817,206.599 281.600,208.027 281.600 C 208.672 281.600,209.200 281.420,209.200 281.200 C 209.200 280.951,211.440 280.800,215.120 280.800 C 218.376 280.800,221.211 280.630,221.420 280.421 C 221.629 280.213,223.559 280.010,225.708 279.970 C 227.857 279.930,229.713 279.741,229.832 279.549 C 229.950 279.357,231.286 279.200,232.800 279.200 C 234.314 279.200,235.664 279.020,235.800 278.800 C 235.936 278.580,237.117 278.400,238.424 278.400 C 239.741 278.400,240.800 278.222,240.800 278.000 C 240.800 277.778,241.867 277.600,243.200 277.600 C 244.533 277.600,245.600 277.422,245.600 277.200 C 245.600 276.980,246.579 276.800,247.776 276.800 C 248.973 276.800,250.064 276.620,250.200 276.400 C 250.336 276.180,251.236 276.000,252.200 276.000 C 253.164 276.000,254.048 275.845,254.165 275.657 C 254.282 275.468,255.417 275.198,256.689 275.058 C 259.962 274.697,260.856 274.531,262.059 274.063 C 262.641 273.837,263.201 273.735,263.303 273.837 C 263.406 273.939,263.935 273.853,264.481 273.645 C 265.594 273.222,267.464 272.818,269.703 272.517 C 270.529 272.406,271.305 272.155,271.426 271.958 C 271.548 271.761,272.267 271.600,273.024 271.600 C 273.781 271.600,274.400 271.420,274.400 271.200 C 274.400 270.980,275.019 270.800,275.776 270.800 C 276.533 270.800,277.264 270.620,277.400 270.400 C 277.536 270.180,278.177 270.000,278.824 270.000 C 279.471 270.000,280.000 269.820,280.000 269.600 C 280.000 269.380,280.720 269.200,281.600 269.200 C 282.480 269.200,283.200 269.020,283.200 268.800 C 283.200 268.580,283.740 268.400,284.400 268.400 C 285.060 268.400,285.600 268.240,285.600 268.044 C 285.600 267.848,286.185 267.586,286.900 267.463 C 289.912 266.942,290.800 266.690,290.800 266.355 C 290.800 266.160,291.340 266.000,292.000 266.000 C 292.660 266.000,293.200 265.820,293.200 265.600 C 293.200 265.380,293.740 265.200,294.400 265.200 C 295.060 265.200,295.600 265.020,295.600 264.800 C 295.600 264.580,296.140 264.400,296.800 264.400 C 297.460 264.400,298.000 264.220,298.000 264.000 C 298.000 263.780,298.439 263.600,298.976 263.600 C 299.513 263.600,300.064 263.420,300.200 263.200 C 300.336 262.980,300.977 262.800,301.624 262.800 C 302.271 262.800,302.800 262.620,302.800 262.400 C 302.800 262.180,303.250 262.000,303.800 262.000 C 304.350 262.000,304.800 261.820,304.800 261.600 C 304.800 261.380,305.261 261.200,305.824 261.200 C 306.404 261.200,306.740 261.027,306.600 260.800 C 306.456 260.567,306.863 260.400,307.576 260.400 C 308.249 260.400,308.800 260.220,308.800 260.000 C 308.800 259.780,309.160 259.600,309.600 259.600 C 310.040 259.600,310.400 259.420,310.400 259.200 C 310.400 258.980,310.814 258.800,311.320 258.800 C 312.348 258.800,314.392 257.951,314.397 257.523 C 314.399 257.371,314.760 257.315,315.200 257.400 C 315.640 257.485,316.000 257.384,316.000 257.177 C 316.000 256.970,316.236 256.800,316.525 256.800 C 316.814 256.800,317.759 256.466,318.625 256.059 C 319.491 255.651,320.785 255.067,321.500 254.761 C 322.215 254.455,322.800 254.069,322.800 253.902 C 322.800 253.736,323.160 253.600,323.600 253.600 C 324.040 253.600,324.400 253.420,324.400 253.200 C 324.400 252.980,324.760 252.800,325.200 252.800 C 325.640 252.800,326.000 252.620,326.000 252.400 C 326.000 252.180,326.360 252.000,326.800 252.000 C 327.240 252.000,327.600 251.854,327.600 251.675 C 327.600 251.496,328.230 251.102,329.000 250.800 C 329.770 250.498,330.400 250.104,330.400 249.925 C 330.400 249.746,330.670 249.600,331.000 249.600 C 331.330 249.600,331.600 249.420,331.600 249.200 C 331.600 248.980,331.920 248.800,332.312 248.800 C 332.703 248.800,333.283 248.440,333.600 248.000 C 333.917 247.560,334.507 247.200,334.912 247.200 C 335.316 247.200,335.536 247.020,335.400 246.800 C 335.264 246.580,335.433 246.400,335.776 246.400 C 336.119 246.400,336.400 246.242,336.400 246.049 C 336.400 245.855,336.946 245.471,337.613 245.195 C 338.280 244.918,338.728 244.595,338.610 244.476 C 338.491 244.357,338.890 243.933,339.497 243.533 C 340.104 243.133,340.446 242.804,340.258 242.803 C 340.069 242.801,340.474 242.278,341.158 241.640 C 341.841 241.001,342.400 240.283,342.400 240.043 C 342.400 239.803,342.760 239.382,343.200 239.107 C 343.640 238.832,344.000 238.381,344.000 238.104 C 344.000 237.827,344.180 237.600,344.400 237.600 C 344.620 237.600,344.800 237.370,344.800 237.088 C 344.800 236.807,345.160 236.317,345.600 236.000 C 346.040 235.683,346.400 235.103,346.400 234.712 C 346.400 234.320,346.541 234.000,346.713 234.000 C 346.885 234.000,347.265 233.190,347.557 232.200 C 347.849 231.210,348.248 230.400,348.444 230.400 C 348.640 230.400,348.800 229.860,348.800 229.200 C 348.800 228.540,348.980 228.000,349.200 228.000 C 349.420 228.000,349.600 227.381,349.600 226.624 C 349.600 225.867,349.780 225.136,350.000 225.000 C 350.240 224.852,350.400 222.196,350.400 218.376 C 350.400 214.392,350.250 212.000,350.000 212.000 C 349.780 212.000,349.600 211.291,349.600 210.424 C 349.600 209.557,349.420 208.736,349.200 208.600 C 348.980 208.464,348.800 207.924,348.800 207.400 C 348.800 206.876,348.620 206.336,348.400 206.200 C 348.180 206.064,348.000 205.603,348.000 205.176 C 348.000 204.749,347.820 204.400,347.600 204.400 C 347.380 204.400,347.200 204.040,347.200 203.600 C 347.200 203.160,347.020 202.800,346.800 202.800 C 346.580 202.800,346.400 202.455,346.400 202.033 C 346.400 201.612,346.265 201.207,346.100 201.133 C 345.935 201.060,345.367 200.145,344.837 199.100 C 344.308 198.055,343.723 197.200,343.537 197.200 C 343.352 197.200,343.200 196.829,343.200 196.376 C 343.200 195.923,343.020 195.664,342.800 195.800 C 342.580 195.936,342.400 195.863,342.400 195.637 C 342.400 195.076,339.535 192.000,339.013 192.000 C 338.781 192.000,337.604 192.923,336.396 194.050 " stroke="none" fill="#94b39b" fill-rule="evenodd"></path><path id="path2" d="M303.200 119.800 C 302.650 120.114,301.645 120.378,300.967 120.386 C 300.288 120.394,298.758 120.567,297.567 120.771 C 296.375 120.975,294.140 121.346,292.600 121.595 C 291.060 121.844,288.990 122.201,288.000 122.388 C 283.752 123.190,281.311 123.681,280.000 123.996 C 279.230 124.181,275.866 124.983,272.524 125.779 C 261.622 128.373,244.199 133.793,235.800 137.203 C 235.360 137.381,232.840 138.369,230.200 139.398 C 227.560 140.427,224.860 141.501,224.200 141.787 C 214.916 145.798,210.713 147.653,207.000 149.379 C 202.866 151.301,194.050 155.722,188.800 158.506 C 181.770 162.233,171.818 167.848,169.728 169.266 C 168.808 169.890,167.941 170.400,167.800 170.400 C 167.659 170.400,166.759 170.940,165.800 171.600 C 164.841 172.260,163.948 172.800,163.815 172.800 C 163.683 172.800,162.367 173.610,160.892 174.600 C 157.751 176.707,158.156 176.801,163.696 175.253 C 198.802 165.446,224.908 181.028,216.214 206.600 C 213.273 215.248,208.281 221.157,196.557 229.866 C 190.092 234.668,190.316 234.327,192.167 236.586 L 193.534 238.255 196.067 237.943 C 197.460 237.772,200.670 237.432,203.200 237.187 C 205.730 236.942,208.700 236.592,209.800 236.408 C 210.900 236.224,213.420 235.862,215.400 235.604 C 217.380 235.346,219.810 234.983,220.800 234.797 C 221.790 234.612,223.770 234.259,225.200 234.012 C 228.285 233.480,230.672 233.026,235.000 232.149 C 236.760 231.793,238.650 231.424,239.200 231.329 C 242.007 230.845,255.607 227.589,262.400 225.775 C 273.344 222.851,289.879 217.616,295.800 215.199 C 296.240 215.019,298.684 214.059,301.232 213.064 C 315.921 207.330,330.749 199.223,336.200 193.946 C 337.300 192.881,338.513 192.008,338.895 192.005 C 339.640 192.000,341.600 189.231,341.600 188.184 C 341.600 187.837,341.780 187.664,342.000 187.800 C 342.220 187.936,342.400 187.677,342.400 187.224 C 342.400 186.771,342.547 186.400,342.728 186.400 C 342.908 186.400,343.300 185.500,343.600 184.400 C 343.900 183.300,344.292 182.400,344.472 182.400 C 344.653 182.400,344.800 181.871,344.800 181.224 C 344.800 180.577,344.980 179.936,345.200 179.800 C 345.420 179.664,345.600 178.573,345.600 177.376 C 345.600 176.179,345.780 175.200,346.000 175.200 C 346.249 175.200,346.400 172.941,346.400 169.224 C 346.400 165.671,346.238 163.147,346.000 163.000 C 345.780 162.864,345.600 161.773,345.600 160.576 C 345.600 159.379,345.420 158.400,345.200 158.400 C 344.980 158.400,344.800 157.680,344.800 156.800 C 344.800 155.920,344.620 155.200,344.400 155.200 C 344.180 155.200,344.000 154.480,344.000 153.600 C 344.000 152.720,343.820 152.000,343.600 152.000 C 343.380 152.000,343.200 151.561,343.200 151.024 C 343.200 150.487,343.020 149.936,342.800 149.800 C 342.580 149.664,342.400 149.203,342.400 148.776 C 342.400 148.349,342.220 148.000,342.000 148.000 C 341.780 148.000,341.600 147.628,341.600 147.174 C 341.600 146.719,341.384 145.954,341.119 145.474 C 340.855 144.993,340.602 144.381,340.557 144.114 C 340.512 143.847,340.098 143.100,339.638 142.453 C 339.177 141.806,338.800 141.079,338.800 140.838 C 338.800 140.597,338.620 140.400,338.400 140.400 C 338.180 140.400,338.000 140.164,338.000 139.875 C 338.000 139.587,337.644 138.969,337.209 138.501 C 336.773 138.034,336.368 137.415,336.309 137.126 C 336.249 136.837,335.921 136.330,335.581 136.000 C 335.241 135.670,334.524 134.770,333.989 134.000 C 332.602 132.005,326.983 126.512,326.015 126.205 C 325.567 126.062,325.200 125.768,325.200 125.549 C 325.200 125.331,325.020 125.264,324.800 125.400 C 324.580 125.536,324.400 125.457,324.400 125.224 C 324.400 124.991,324.130 124.800,323.800 124.800 C 323.470 124.800,323.200 124.620,323.200 124.400 C 323.200 124.180,322.945 124.000,322.633 124.000 C 322.322 124.000,322.007 123.865,321.933 123.700 C 321.712 123.201,318.378 121.600,317.562 121.600 C 317.143 121.600,316.800 121.420,316.800 121.200 C 316.800 120.980,316.260 120.800,315.600 120.800 C 314.940 120.800,314.400 120.620,314.400 120.400 C 314.400 120.180,313.680 120.000,312.800 120.000 C 311.920 120.000,311.200 119.820,311.200 119.600 C 311.200 118.958,304.374 119.129,303.200 119.800 " stroke="none" fill="#fb9c84" fill-rule="evenodd"></path><path id="path3" d="M112.580 143.566 C 112.371 143.768,111.120 144.026,109.800 144.140 C 106.335 144.440,104.400 144.836,104.400 145.244 C 104.400 145.440,103.950 145.600,103.400 145.600 C 102.850 145.600,102.400 145.780,102.400 146.000 C 102.400 146.220,102.130 146.400,101.800 146.400 C 101.470 146.400,101.200 146.580,101.200 146.800 C 101.200 147.020,100.880 147.200,100.488 147.200 C 100.097 147.200,99.517 147.560,99.200 148.000 C 98.883 148.440,98.426 148.800,98.184 148.800 C 97.942 148.800,97.369 149.231,96.911 149.758 C 96.453 150.286,95.825 150.871,95.517 151.058 C 95.208 151.246,94.546 152.075,94.045 152.900 C 93.545 153.725,93.004 154.400,92.844 154.400 C 92.685 154.400,92.236 155.120,91.848 156.000 C 91.460 156.880,90.975 157.600,90.771 157.600 C 90.567 157.600,90.400 157.960,90.400 158.400 C 90.400 158.840,90.220 159.200,90.000 159.200 C 89.780 159.200,89.600 159.571,89.600 160.024 C 89.600 160.477,89.420 160.736,89.200 160.600 C 88.980 160.464,88.800 160.713,88.800 161.153 C 88.800 161.593,88.620 162.064,88.400 162.200 C 88.180 162.336,88.000 162.797,88.000 163.224 C 88.000 163.651,87.820 164.000,87.600 164.000 C 87.380 164.000,87.200 164.439,87.200 164.976 C 87.200 165.513,87.020 166.064,86.800 166.200 C 86.580 166.336,86.400 166.887,86.400 167.424 C 86.400 167.961,86.220 168.400,86.000 168.400 C 85.780 168.400,85.600 169.030,85.600 169.800 C 85.600 170.570,85.420 171.200,85.200 171.200 C 84.980 171.200,84.800 171.830,84.800 172.600 C 84.800 173.370,84.620 174.000,84.400 174.000 C 84.180 174.000,84.000 174.619,84.000 175.376 C 84.000 176.133,83.820 176.864,83.600 177.000 C 83.380 177.136,83.200 177.766,83.200 178.400 C 83.200 179.034,83.020 179.664,82.800 179.800 C 82.580 179.936,82.400 180.757,82.400 181.624 C 82.400 182.491,82.220 183.200,82.000 183.200 C 81.780 183.200,81.600 183.909,81.600 184.776 C 81.600 185.643,81.420 186.464,81.200 186.600 C 80.980 186.736,80.800 187.636,80.800 188.600 C 80.800 189.564,80.620 190.464,80.400 190.600 C 80.180 190.736,80.000 191.377,80.000 192.024 C 80.000 192.921,79.816 193.200,79.224 193.200 C 78.797 193.200,78.357 193.346,78.247 193.524 C 78.137 193.702,77.196 193.892,76.156 193.946 C 75.116 194.000,73.948 194.214,73.559 194.422 C 73.171 194.630,72.109 194.800,71.200 194.800 C 70.291 194.800,69.221 194.975,68.822 195.188 C 68.423 195.402,67.078 195.610,65.833 195.650 C 64.589 195.691,63.476 195.876,63.362 196.062 C 63.247 196.248,62.544 196.400,61.800 196.400 C 61.056 196.400,60.336 196.580,60.200 196.800 C 60.064 197.020,59.243 197.200,58.376 197.200 C 57.509 197.200,56.800 197.343,56.800 197.518 C 56.800 197.693,56.125 197.881,55.300 197.936 C 54.475 197.990,53.740 198.207,53.667 198.418 C 53.593 198.628,53.109 198.800,52.590 198.800 C 52.072 198.800,51.536 198.980,51.400 199.200 C 51.264 199.420,50.803 199.600,50.376 199.600 C 49.949 199.600,49.600 199.759,49.600 199.953 C 49.600 200.148,49.285 200.407,48.900 200.529 C 47.731 200.899,45.876 202.138,44.747 203.300 C 44.160 203.905,43.567 204.400,43.429 204.400 C 43.130 204.400,39.600 207.889,39.600 208.185 C 39.600 208.393,38.621 209.646,37.700 210.616 C 37.425 210.906,37.200 211.336,37.200 211.571 C 37.200 211.807,37.020 212.000,36.800 212.000 C 36.580 212.000,36.400 212.360,36.400 212.800 C 36.400 213.240,36.220 213.600,36.000 213.600 C 35.780 213.600,35.600 213.960,35.600 214.400 C 35.600 214.840,35.420 215.200,35.200 215.200 C 34.980 215.200,34.800 215.549,34.800 215.976 C 34.800 216.403,34.620 216.864,34.400 217.000 C 34.180 217.136,34.000 218.047,34.000 219.024 C 34.000 220.001,33.820 220.800,33.600 220.800 C 33.361 220.800,33.200 222.333,33.200 224.600 C 33.200 226.867,33.361 228.400,33.600 228.400 C 33.820 228.400,34.000 229.109,34.000 229.976 C 34.000 230.843,34.180 231.664,34.400 231.800 C 34.620 231.936,34.800 232.472,34.800 232.990 C 34.800 233.509,34.978 233.993,35.197 234.067 C 35.415 234.140,35.633 234.682,35.681 235.271 C 35.730 235.860,35.912 236.255,36.085 236.148 C 36.258 236.040,36.400 236.241,36.400 236.593 C 36.400 236.945,36.760 237.620,37.200 238.092 C 37.640 238.564,38.000 239.187,38.000 239.475 C 38.000 239.764,38.180 240.000,38.400 240.000 C 38.620 240.000,38.800 240.281,38.800 240.624 C 38.800 240.967,38.980 241.136,39.200 241.000 C 39.420 240.864,39.600 241.010,39.600 241.325 C 39.600 241.640,40.770 243.120,42.200 244.615 C 43.630 246.110,44.800 247.471,44.800 247.639 C 44.800 247.808,45.174 248.065,45.630 248.210 C 46.087 248.355,47.093 249.087,47.865 249.837 C 48.637 250.586,49.523 251.200,49.834 251.200 C 50.145 251.200,50.400 251.345,50.400 251.521 C 50.400 251.698,51.297 252.283,52.394 252.821 C 53.490 253.360,54.390 253.935,54.394 254.100 C 54.397 254.265,54.639 254.400,54.932 254.400 C 55.225 254.400,56.336 254.841,57.402 255.381 C 58.467 255.920,59.488 256.269,59.669 256.157 C 59.851 256.045,60.000 256.098,60.000 256.276 C 60.000 256.455,61.125 256.933,62.500 257.340 C 63.875 257.747,65.313 258.242,65.695 258.440 C 66.077 258.638,66.842 258.800,67.395 258.800 C 67.948 258.800,68.400 258.980,68.400 259.200 C 68.400 259.420,68.940 259.600,69.600 259.600 C 70.260 259.600,70.800 259.780,70.800 260.000 C 70.800 260.220,71.340 260.400,72.000 260.400 C 72.660 260.400,73.200 260.580,73.200 260.800 C 73.200 261.020,73.746 261.200,74.413 261.200 C 75.998 261.200,76.240 261.947,75.445 264.380 C 75.090 265.464,74.800 266.811,74.800 267.375 C 74.800 267.939,74.620 268.400,74.400 268.400 C 74.180 268.400,74.000 269.109,74.000 269.976 C 74.000 270.843,73.820 271.664,73.600 271.800 C 73.380 271.936,73.200 272.937,73.200 274.024 C 73.200 275.111,73.020 276.000,72.800 276.000 C 72.571 276.000,72.400 277.200,72.400 278.800 C 72.400 280.400,72.229 281.600,72.000 281.600 C 71.746 281.600,71.600 284.733,71.600 290.200 C 71.600 295.667,71.746 298.800,72.000 298.800 C 72.220 298.800,72.400 299.430,72.400 300.200 C 72.400 300.970,72.580 301.600,72.800 301.600 C 73.020 301.600,73.200 302.129,73.200 302.776 C 73.200 303.423,73.380 304.064,73.600 304.200 C 73.820 304.336,74.000 304.797,74.000 305.224 C 74.000 305.651,74.159 306.000,74.353 306.000 C 74.681 306.000,75.325 307.470,75.256 308.062 C 75.239 308.206,75.490 308.543,75.813 308.811 C 76.136 309.079,76.400 309.464,76.400 309.666 C 76.400 310.479,81.835 316.000,82.635 316.000 C 82.946 316.000,83.201 316.135,83.203 316.300 C 83.207 316.659,85.144 317.600,85.880 317.600 C 86.166 317.600,86.400 317.780,86.400 318.000 C 86.400 318.220,86.850 318.400,87.400 318.400 C 87.950 318.400,88.400 318.563,88.400 318.763 C 88.400 319.915,102.574 319.916,103.780 318.763 C 103.989 318.563,104.653 318.400,105.256 318.400 C 105.859 318.400,106.464 318.220,106.600 318.000 C 106.736 317.780,107.287 317.600,107.824 317.600 C 108.361 317.600,108.800 317.420,108.800 317.200 C 108.800 316.980,109.239 316.800,109.776 316.800 C 110.313 316.800,110.864 316.620,111.000 316.400 C 111.136 316.180,111.582 316.000,111.990 316.000 C 112.399 316.000,112.793 315.865,112.867 315.700 C 112.940 315.535,113.855 314.967,114.900 314.437 C 115.945 313.908,116.800 313.323,116.800 313.137 C 116.800 312.952,117.160 312.800,117.600 312.800 C 118.040 312.800,118.400 312.650,118.400 312.468 C 118.400 312.285,118.895 311.881,119.500 311.570 C 120.105 311.260,120.891 310.689,121.247 310.303 C 121.603 309.916,122.014 309.600,122.161 309.600 C 122.722 309.600,129.168 303.323,130.665 301.319 C 131.289 300.483,132.019 299.568,132.286 299.285 C 132.553 299.002,133.087 298.237,133.472 297.585 C 133.857 296.933,134.314 296.400,134.486 296.400 C 134.659 296.400,134.800 296.029,134.800 295.576 C 134.800 295.123,134.942 294.840,135.115 294.948 C 135.288 295.055,135.679 294.570,135.983 293.871 C 136.287 293.172,136.650 292.510,136.789 292.400 C 137.097 292.156,138.093 290.024,139.030 287.600 C 139.413 286.610,139.857 285.620,140.017 285.400 C 140.177 285.180,140.435 284.406,140.590 283.680 C 140.860 282.420,140.902 282.393,141.536 283.092 C 143.293 285.029,151.881 290.800,153.006 290.800 C 153.333 290.800,153.600 290.980,153.600 291.200 C 153.600 291.420,153.960 291.600,154.400 291.600 C 154.840 291.600,155.200 291.780,155.200 292.000 C 155.200 292.220,155.560 292.400,156.000 292.400 C 156.440 292.400,156.800 292.580,156.800 292.800 C 156.800 293.020,157.160 293.200,157.600 293.200 C 158.040 293.200,158.400 293.380,158.400 293.600 C 158.400 293.820,158.760 294.000,159.200 294.000 C 159.640 294.000,160.000 294.180,160.000 294.400 C 160.000 294.620,160.439 294.800,160.976 294.800 C 161.513 294.800,162.064 294.980,162.200 295.200 C 162.336 295.420,162.876 295.600,163.400 295.600 C 163.924 295.600,164.464 295.780,164.600 296.000 C 164.736 296.220,165.467 296.400,166.224 296.400 C 166.981 296.400,167.600 296.580,167.600 296.800 C 167.600 297.020,168.500 297.200,169.600 297.200 C 170.700 297.200,171.600 297.380,171.600 297.600 C 171.600 297.854,174.659 298.000,179.976 298.000 C 185.129 298.000,188.448 297.846,188.600 297.600 C 188.736 297.380,189.467 297.200,190.224 297.200 C 190.981 297.200,191.600 297.020,191.600 296.800 C 191.600 296.580,192.140 296.400,192.800 296.400 C 193.460 296.400,194.000 296.220,194.000 296.000 C 194.000 295.780,194.540 295.600,195.200 295.600 C 195.860 295.600,196.400 295.420,196.400 295.200 C 196.400 294.980,196.760 294.800,197.200 294.800 C 197.640 294.800,198.000 294.650,198.000 294.468 C 198.000 294.285,198.493 293.880,199.095 293.568 C 200.398 292.892,203.600 289.795,203.600 289.211 C 203.600 288.985,203.735 288.798,203.900 288.795 C 204.065 288.793,204.545 288.028,204.967 287.095 C 205.389 286.163,205.939 284.947,206.189 284.394 C 207.122 282.334,206.662 269.931,205.485 265.400 C 202.900 255.446,199.341 247.199,194.752 240.530 C 194.118 239.609,193.600 238.739,193.600 238.595 C 193.600 238.452,192.970 237.566,192.200 236.626 C 190.311 234.321,190.081 234.677,196.557 229.866 C 210.179 219.747,215.433 212.635,217.439 201.600 C 221.842 177.379,191.408 164.753,157.800 176.859 C 154.878 177.912,154.517 177.828,153.316 175.817 C 146.900 165.075,139.674 156.497,132.919 151.602 C 131.554 150.613,130.336 149.398,130.211 148.902 C 130.072 148.346,129.681 148.000,129.192 148.000 C 128.757 148.000,128.400 147.820,128.400 147.600 C 128.400 147.380,128.040 147.200,127.600 147.200 C 127.160 147.200,126.800 147.020,126.800 146.800 C 126.800 146.580,126.523 146.400,126.184 146.400 C 125.845 146.400,124.862 146.040,124.000 145.600 C 123.138 145.160,121.975 144.800,121.416 144.800 C 120.857 144.800,120.400 144.620,120.400 144.400 C 120.400 144.165,119.027 144.000,117.080 144.000 C 115.254 144.000,113.580 143.820,113.360 143.600 C 113.117 143.357,112.810 143.344,112.580 143.566 " stroke="none" fill="#fccb84" fill-rule="evenodd"></path><path id="path4" d="M302.720 119.413 C 302.602 119.531,301.177 119.794,299.553 119.999 C 294.938 120.580,288.662 121.607,284.800 122.412 C 278.176 123.793,275.812 124.332,270.900 125.582 C 267.941 126.335,265.781 126.853,264.695 127.071 C 264.087 127.193,263.492 127.451,263.371 127.646 C 263.251 127.841,262.722 128.000,262.195 128.000 C 261.669 128.000,260.824 128.163,260.319 128.362 C 259.813 128.561,256.970 129.482,254.000 130.408 C 244.542 133.359,232.810 137.549,226.700 140.159 C 225.875 140.512,224.525 141.088,223.700 141.441 C 222.875 141.793,221.840 142.220,221.400 142.390 C 220.960 142.560,219.700 143.104,218.600 143.600 C 217.500 144.096,216.240 144.650,215.800 144.831 C 215.360 145.013,213.380 145.905,211.400 146.814 C 209.420 147.723,206.360 149.122,204.600 149.922 C 201.308 151.420,193.944 155.141,189.000 157.806 C 187.460 158.636,184.940 159.985,183.400 160.804 C 179.407 162.927,170.039 168.318,168.759 169.230 C 168.163 169.653,167.557 170.000,167.410 170.000 C 167.264 170.000,166.392 170.501,165.472 171.112 C 164.552 171.724,163.305 172.474,162.700 172.780 C 162.095 173.085,161.600 173.485,161.600 173.668 C 161.600 173.850,161.426 174.000,161.213 174.000 C 161.001 174.000,159.713 174.720,158.351 175.600 C 155.356 177.536,155.002 177.561,154.018 175.900 C 153.594 175.185,153.057 174.383,152.824 174.117 C 152.591 173.851,152.400 173.529,152.400 173.402 C 152.400 172.967,147.492 165.811,145.267 163.000 C 142.487 159.489,136.524 153.602,133.612 151.494 C 132.396 150.613,131.175 149.612,130.900 149.270 C 130.486 148.755,130.401 148.747,130.404 149.224 C 130.406 149.541,131.531 150.610,132.904 151.600 C 139.632 156.452,146.896 165.066,153.290 175.774 C 154.747 178.215,155.471 178.153,159.967 175.200 C 161.978 173.880,163.720 172.800,163.839 172.800 C 163.958 172.800,164.841 172.260,165.800 171.600 C 166.759 170.940,167.659 170.400,167.800 170.400 C 167.941 170.400,168.808 169.890,169.728 169.266 C 171.818 167.848,181.770 162.233,188.800 158.506 C 199.935 152.602,208.131 148.705,221.500 142.959 C 222.215 142.651,223.385 142.145,224.100 141.834 C 224.815 141.523,227.560 140.427,230.200 139.398 C 232.840 138.369,235.360 137.381,235.800 137.203 C 244.199 133.793,261.622 128.373,272.524 125.779 C 275.866 124.983,279.230 124.181,280.000 123.996 C 281.311 123.681,283.752 123.190,288.000 122.388 C 288.990 122.201,291.060 121.844,292.600 121.595 C 294.140 121.346,296.375 120.975,297.567 120.771 C 298.758 120.567,300.288 120.394,300.967 120.386 C 302.244 120.371,304.753 119.241,303.567 119.214 C 303.218 119.206,302.837 119.296,302.720 119.413 M196.900 237.876 C 197.285 237.976,197.915 237.976,198.300 237.876 C 198.685 237.775,198.370 237.693,197.600 237.693 C 196.830 237.693,196.515 237.775,196.900 237.876 M193.778 238.435 C 193.631 238.674,193.721 239.079,193.979 239.335 C 194.336 239.689,194.387 239.641,194.193 239.132 C 194.009 238.648,194.195 238.415,194.869 238.286 C 195.766 238.115,195.768 238.107,194.924 238.054 C 194.442 238.025,193.926 238.196,193.778 238.435 M206.934 274.800 C 206.934 276.450,207.005 277.125,207.091 276.300 C 207.178 275.475,207.178 274.125,207.091 273.300 C 207.005 272.475,206.934 273.150,206.934 274.800 " stroke="none" fill="#c4b4bc" fill-rule="evenodd"></path></g></svg>