<svg id="svg" version="1.1" xmlns="http://www.w3.org/2000/svg" xmlns:xlink="http://www.w3.org/1999/xlink" width="400" height="400" viewBox="0, 0, 400,400"><g id="svgg"><path id="path0" d="M155.149 277.949 C 150.007 279.045,144.452 283.458,135.891 293.244 C 124.393 306.388,116.215 310.712,106.427 308.823 C 105.452 308.635,104.417 308.572,104.127 308.683 C 103.511 308.920,103.392 312.000,104.000 312.000 C 104.223 312.000,104.400 313.075,104.400 314.424 C 104.400 315.937,104.550 316.754,104.800 316.600 C 105.051 316.445,105.200 317.321,105.200 318.953 C 105.200 320.383,105.380 321.664,105.600 321.800 C 105.820 321.936,106.000 323.117,106.000 324.424 C 106.000 325.741,106.178 326.800,106.400 326.800 C 106.629 326.800,106.800 328.000,106.800 329.600 C 106.800 331.200,106.971 332.400,107.200 332.400 C 107.426 332.400,107.600 333.533,107.600 335.000 C 107.600 336.467,107.774 337.600,108.000 337.600 C 108.222 337.600,108.400 338.667,108.400 340.000 C 108.400 341.320,108.555 342.400,108.744 342.400 C 108.933 342.400,109.022 343.249,108.942 344.288 C 108.861 345.326,108.998 346.787,109.244 347.534 C 109.491 348.282,109.683 349.632,109.670 350.535 C 109.658 351.437,109.799 352.361,109.984 352.588 C 110.299 352.974,110.472 354.210,111.046 360.200 C 111.173 361.520,111.433 362.792,111.626 363.026 C 111.818 363.260,112.008 364.482,112.050 365.741 C 112.091 367.000,112.276 368.124,112.462 368.238 C 112.648 368.353,112.800 368.797,112.800 369.224 C 112.800 369.990,113.950 370.000,199.968 370.000 L 287.137 370.000 287.377 366.900 C 287.509 365.195,287.716 362.135,287.836 360.100 C 287.956 358.065,288.197 356.400,288.371 356.400 C 288.545 356.400,288.723 354.929,288.766 353.132 C 288.809 351.334,288.986 349.579,289.158 349.232 C 289.330 348.884,289.508 347.287,289.552 345.682 C 289.597 344.077,289.774 342.367,289.946 341.882 C 290.117 341.397,290.294 339.740,290.337 338.200 C 290.381 336.660,290.583 334.860,290.786 334.200 C 290.989 333.540,291.166 332.010,291.180 330.800 C 291.228 326.375,291.713 320.000,292.002 320.000 C 292.165 320.000,292.330 318.245,292.369 316.100 C 292.408 313.955,292.611 312.140,292.820 312.067 C 293.029 311.993,293.200 310.328,293.200 308.367 C 293.200 306.143,293.358 304.800,293.620 304.800 C 293.878 304.800,293.994 303.916,293.920 302.500 L 293.800 300.200 289.800 299.963 C 283.152 299.569,280.717 298.486,270.836 291.526 C 251.463 277.879,245.052 278.984,227.410 299.006 C 216.598 311.277,212.233 314.160,204.559 314.105 C 196.699 314.049,190.930 309.420,181.994 296.000 C 174.878 285.313,170.473 280.957,164.227 278.426 C 162.764 277.833,157.090 277.535,155.149 277.949 M160.536 308.021 C 161.904 309.097,162.263 310.625,162.787 317.600 C 163.441 326.313,163.990 332.954,164.417 337.314 C 164.932 342.573,164.881 346.465,164.287 347.218 C 162.772 349.141,160.801 349.635,158.792 348.596 C 156.726 347.527,156.666 347.188,155.210 328.200 C 154.957 324.900,154.582 320.542,154.375 318.516 C 153.677 311.661,153.830 309.709,155.169 308.369 C 156.623 306.916,158.940 306.766,160.536 308.021 M245.741 308.753 C 247.397 310.195,247.689 311.437,247.241 315.138 C 247.011 317.042,246.626 320.670,246.386 323.200 C 246.146 325.730,245.789 329.420,245.591 331.400 C 245.394 333.380,245.012 337.321,244.742 340.158 C 244.073 347.177,242.204 349.273,238.276 347.409 C 235.620 346.149,235.634 346.365,237.204 331.000 C 237.406 329.020,237.769 325.330,238.011 322.800 C 239.276 309.548,239.363 309.205,241.730 308.193 C 243.156 307.584,244.636 307.791,245.741 308.753 " stroke="none" fill="#e3ebeb" fill-rule="evenodd"></path><path id="path1" d="M243.794 133.377 C 243.492 133.610,242.853 134.970,242.373 136.400 C 237.295 151.553,223.947 158.900,202.632 158.276 C 180.768 157.636,166.944 152.312,161.519 142.440 C 160.905 141.324,159.200 140.642,159.200 141.513 C 159.200 141.685,158.345 142.068,157.300 142.365 C 154.981 143.024,153.549 143.613,149.354 145.635 C 147.569 146.496,145.904 147.200,145.654 147.200 C 145.404 147.200,145.200 147.380,145.200 147.600 C 145.200 147.820,144.855 148.000,144.433 148.000 C 144.012 148.000,143.607 148.135,143.533 148.300 C 143.341 148.732,140.028 150.400,139.362 150.400 C 139.053 150.400,138.800 150.580,138.800 150.800 C 138.800 151.020,138.530 151.200,138.200 151.200 C 137.870 151.200,137.600 151.346,137.600 151.525 C 137.600 151.704,136.970 152.098,136.200 152.400 C 135.430 152.702,134.800 153.075,134.800 153.228 C 134.800 153.381,134.485 153.607,134.100 153.729 C 133.220 154.008,131.261 155.201,130.310 156.036 C 129.912 156.386,129.095 156.926,128.493 157.236 C 127.892 157.546,127.051 158.115,126.625 158.500 C 126.198 158.885,125.705 159.200,125.528 159.200 C 125.266 159.200,122.965 160.787,121.000 162.323 C 120.780 162.495,119.978 163.078,119.217 163.618 C 118.456 164.158,117.425 164.993,116.926 165.473 C 116.427 165.953,115.341 166.853,114.514 167.473 C 113.686 168.093,112.017 169.652,110.804 170.938 C 109.592 172.224,107.115 174.770,105.300 176.595 C 103.485 178.419,102.000 180.086,102.000 180.298 C 102.000 180.510,101.487 181.115,100.859 181.642 C 100.232 182.169,99.485 183.044,99.199 183.586 C 98.914 184.128,98.168 185.118,97.542 185.786 C 96.916 186.454,96.403 187.225,96.402 187.500 C 96.401 187.775,96.220 188.000,96.000 188.000 C 95.780 188.000,95.600 188.270,95.600 188.600 C 95.600 188.930,95.420 189.200,95.200 189.200 C 94.980 189.200,94.800 189.455,94.800 189.767 C 94.800 190.078,94.651 190.393,94.469 190.467 C 93.965 190.669,91.200 195.558,91.200 196.245 C 91.200 196.576,91.046 196.752,90.857 196.635 C 90.668 196.519,90.083 197.273,89.557 198.312 C 89.031 199.350,88.465 200.260,88.300 200.333 C 88.135 200.407,88.000 200.812,88.000 201.233 C 88.000 201.655,87.820 202.000,87.600 202.000 C 87.380 202.000,87.200 202.360,87.200 202.800 C 87.200 203.240,87.020 203.600,86.800 203.600 C 86.580 203.600,86.400 203.960,86.400 204.400 C 86.400 204.840,86.220 205.200,86.000 205.200 C 85.780 205.200,85.600 205.650,85.600 206.200 C 85.600 206.750,85.464 207.200,85.298 207.200 C 85.131 207.200,84.760 207.785,84.471 208.500 C 84.183 209.215,83.779 210.113,83.574 210.495 C 83.368 210.877,83.200 211.541,83.200 211.971 C 83.200 212.401,83.020 212.864,82.800 213.000 C 82.580 213.136,82.400 213.597,82.400 214.024 C 82.400 214.451,82.220 214.800,82.000 214.800 C 81.780 214.800,81.600 215.239,81.600 215.776 C 81.600 216.313,81.420 216.864,81.200 217.000 C 80.980 217.136,80.800 217.687,80.800 218.224 C 80.800 218.761,80.620 219.200,80.400 219.200 C 80.180 219.200,80.000 219.729,80.000 220.376 C 80.000 221.023,79.820 221.664,79.600 221.800 C 79.380 221.936,79.200 222.667,79.200 223.424 C 79.200 224.181,79.020 224.800,78.800 224.800 C 78.580 224.800,78.400 225.329,78.400 225.976 C 78.400 226.623,78.259 227.240,78.087 227.346 C 77.915 227.452,77.734 228.138,77.683 228.870 C 77.633 229.601,77.426 230.650,77.225 231.200 C 76.907 232.066,76.387 234.913,76.201 236.800 C 76.168 237.130,76.019 238.390,75.870 239.600 C 75.720 240.810,75.547 242.827,75.484 244.081 C 75.422 245.336,75.242 246.491,75.085 246.648 C 74.728 247.005,74.705 262.971,75.061 263.327 C 75.204 263.471,75.383 264.896,75.458 266.494 C 75.579 269.074,75.817 271.272,76.251 273.800 C 76.326 274.240,76.499 275.410,76.635 276.400 C 76.771 277.390,77.044 278.371,77.241 278.580 C 77.438 278.789,77.600 279.453,77.600 280.056 C 77.600 280.659,77.780 281.264,78.000 281.400 C 78.220 281.536,78.400 282.177,78.400 282.824 C 78.400 283.471,78.580 284.000,78.800 284.000 C 79.020 284.000,79.200 284.343,79.200 284.762 C 79.200 285.181,79.546 286.216,79.970 287.062 C 80.393 287.908,80.977 289.185,81.267 289.900 C 81.558 290.615,81.898 291.200,82.023 291.200 C 82.148 291.200,82.498 291.830,82.800 292.600 C 83.102 293.370,83.496 294.000,83.675 294.000 C 83.854 294.000,84.000 294.243,84.000 294.541 C 84.000 294.838,84.540 295.646,85.200 296.337 C 85.860 297.028,86.400 297.746,86.400 297.933 C 86.400 298.387,89.997 302.180,90.012 301.742 C 90.019 301.554,90.208 301.715,90.432 302.100 C 90.656 302.485,91.021 302.800,91.242 302.800 C 91.463 302.800,92.219 303.340,92.922 303.999 C 94.223 305.219,98.125 307.333,99.076 307.333 C 99.364 307.333,99.600 307.483,99.600 307.667 C 99.600 307.850,100.039 308.000,100.576 308.000 C 101.113 308.000,101.668 308.186,101.809 308.414 C 101.949 308.641,102.815 308.799,103.732 308.763 C 104.649 308.728,106.773 308.836,108.451 309.004 C 117.654 309.925,124.981 305.717,135.891 293.244 C 146.452 281.171,151.345 277.847,158.600 277.817 C 161.045 277.806,163.144 278.010,164.000 278.341 C 170.295 280.774,174.799 285.195,181.994 296.000 C 190.930 309.420,196.699 314.049,204.559 314.105 C 212.233 314.160,216.598 311.277,227.410 299.006 C 245.052 278.984,251.463 277.879,270.836 291.526 C 278.265 296.759,281.353 298.457,285.400 299.535 C 287.710 300.150,297.474 300.527,297.792 300.013 C 297.932 299.786,298.476 299.600,299.000 299.600 C 299.524 299.600,300.064 299.420,300.200 299.200 C 300.336 298.980,300.797 298.800,301.224 298.800 C 301.651 298.800,302.000 298.620,302.000 298.400 C 302.000 298.180,302.270 298.000,302.600 298.000 C 302.930 298.000,303.200 297.820,303.200 297.600 C 303.200 297.380,303.560 297.200,304.000 297.200 C 304.440 297.200,304.800 297.020,304.800 296.800 C 304.800 296.580,305.070 296.400,305.400 296.400 C 305.730 296.400,306.000 296.220,306.000 296.000 C 306.000 295.780,306.178 295.600,306.395 295.600 C 306.932 295.600,314.400 288.220,314.400 287.689 C 314.400 287.457,314.535 287.207,314.700 287.133 C 315.076 286.966,316.375 284.836,316.671 283.900 C 316.793 283.515,317.052 283.200,317.247 283.200 C 317.441 283.200,317.600 282.966,317.600 282.680 C 317.600 281.944,318.541 280.007,318.900 280.003 C 319.065 280.001,319.200 279.460,319.200 278.800 C 319.200 278.140,319.341 277.600,319.513 277.600 C 319.685 277.600,320.057 276.745,320.339 275.700 C 320.622 274.655,321.021 273.487,321.227 273.105 C 321.432 272.723,321.600 271.969,321.600 271.429 C 321.600 270.889,321.780 270.336,322.000 270.200 C 322.220 270.064,322.400 269.435,322.400 268.803 C 322.400 268.170,322.673 266.355,323.006 264.770 C 323.340 263.184,323.681 261.237,323.764 260.443 C 324.020 258.003,324.370 254.360,324.689 250.800 C 325.055 246.727,325.062 229.187,324.699 225.800 C 324.557 224.480,324.316 222.050,324.162 220.400 C 324.008 218.750,323.834 217.040,323.775 216.600 C 323.336 213.336,323.114 212.021,322.796 210.800 C 321.578 206.119,321.085 204.051,320.909 202.896 C 320.801 202.179,320.551 201.494,320.356 201.373 C 320.160 201.252,320.000 200.724,320.000 200.200 C 320.000 199.676,319.820 199.136,319.600 199.000 C 319.380 198.864,319.200 198.223,319.200 197.576 C 319.200 196.929,319.020 196.400,318.800 196.400 C 318.580 196.400,318.400 195.950,318.400 195.400 C 318.400 194.850,318.253 194.400,318.072 194.400 C 317.892 194.400,317.500 193.500,317.200 192.400 C 316.900 191.300,316.508 190.400,316.328 190.400 C 316.147 190.400,316.000 190.040,316.000 189.600 C 316.000 189.160,315.859 188.800,315.687 188.800 C 315.515 188.800,315.136 187.991,314.844 187.003 C 314.552 186.015,314.190 185.282,314.040 185.375 C 313.889 185.468,313.740 185.195,313.708 184.769 C 313.675 184.342,313.278 183.471,312.825 182.835 C 312.371 182.198,312.000 181.479,312.000 181.238 C 312.000 180.997,311.820 180.800,311.600 180.800 C 311.380 180.800,311.200 180.522,311.200 180.183 C 311.200 179.844,310.840 179.180,310.400 178.708 C 309.960 178.236,309.376 177.344,309.103 176.725 C 308.829 176.106,308.490 175.600,308.351 175.600 C 308.211 175.600,307.873 175.060,307.600 174.400 C 307.327 173.740,306.915 173.200,306.685 173.200 C 306.455 173.200,306.376 173.091,306.509 172.957 C 306.643 172.824,306.579 172.509,306.369 172.257 C 305.330 171.018,304.544 169.990,304.000 169.155 C 302.671 167.118,297.504 161.783,292.141 156.909 C 287.935 153.086,287.101 152.387,285.906 151.681 C 285.298 151.322,284.800 150.886,284.800 150.714 C 284.800 150.541,284.575 150.400,284.300 150.399 C 284.025 150.399,283.170 149.859,282.400 149.200 C 281.630 148.541,280.775 148.001,280.500 148.001 C 280.225 148.000,280.000 147.865,280.000 147.699 C 280.000 147.534,279.145 146.953,278.100 146.409 C 277.055 145.865,276.068 145.235,275.906 145.010 C 275.744 144.784,275.609 144.763,275.606 144.962 C 275.603 145.161,275.240 144.998,274.800 144.600 C 274.360 144.202,274.000 144.022,274.000 144.200 C 274.000 144.378,273.685 144.243,273.300 143.899 C 272.915 143.555,271.520 142.791,270.200 142.202 C 268.880 141.613,267.487 140.967,267.105 140.766 C 266.723 140.565,266.138 140.400,265.805 140.400 C 265.472 140.400,265.200 140.220,265.200 140.000 C 265.200 139.780,264.840 139.600,264.400 139.600 C 263.960 139.600,263.600 139.420,263.600 139.200 C 263.600 138.980,263.251 138.800,262.824 138.800 C 262.397 138.800,261.936 138.620,261.800 138.400 C 261.664 138.180,261.113 138.000,260.576 138.000 C 260.039 138.000,259.600 137.820,259.600 137.600 C 259.600 137.380,259.060 137.200,258.400 137.200 C 257.740 137.200,257.200 137.020,257.200 136.800 C 257.200 136.580,256.761 136.400,256.224 136.400 C 255.687 136.400,255.136 136.220,255.000 136.000 C 254.864 135.780,254.313 135.600,253.776 135.600 C 253.239 135.600,252.800 135.440,252.800 135.244 C 252.800 135.048,252.125 134.773,251.300 134.632 C 247.675 134.015,247.200 133.895,247.200 133.600 C 247.200 133.097,244.395 132.914,243.794 133.377 " stroke="none" fill="#fcaca3" fill-rule="evenodd"></path><path id="path2" d="M171.017 43.724 C 169.605 44.583,169.200 45.128,169.200 46.171 C 169.200 46.737,169.020 47.200,168.800 47.200 C 168.580 47.200,168.400 47.639,168.400 48.176 C 168.400 48.713,168.580 49.264,168.800 49.400 C 169.020 49.536,169.200 50.987,169.200 52.624 C 169.200 54.341,169.369 55.600,169.600 55.600 C 169.829 55.600,170.000 56.800,170.000 58.400 C 170.000 60.000,170.171 61.200,170.400 61.200 C 170.622 61.200,170.800 62.267,170.800 63.600 C 170.800 64.933,170.978 66.000,171.200 66.000 C 171.422 66.000,171.600 67.067,171.600 68.400 C 171.600 69.733,171.778 70.800,172.000 70.800 C 172.220 70.800,172.400 71.610,172.400 72.600 C 172.400 73.590,172.580 74.400,172.800 74.400 C 173.020 74.400,173.200 75.300,173.200 76.400 C 173.200 77.500,173.380 78.400,173.600 78.400 C 173.820 78.400,174.000 79.120,174.000 80.000 C 174.000 80.880,174.180 81.600,174.400 81.600 C 174.620 81.600,174.800 82.029,174.800 82.554 C 174.800 83.578,175.840 87.353,176.437 88.495 C 176.637 88.877,176.800 89.552,176.800 89.995 C 176.800 90.438,176.980 90.800,177.200 90.800 C 177.420 90.800,177.600 91.340,177.600 92.000 C 177.600 92.660,177.780 93.200,178.000 93.200 C 178.220 93.200,178.400 93.560,178.400 94.000 C 178.400 94.440,178.580 94.800,178.800 94.800 C 179.020 94.800,179.200 95.160,179.200 95.600 C 179.200 96.040,179.380 96.400,179.600 96.400 C 179.820 96.400,180.000 96.839,180.000 97.376 C 180.000 97.913,180.180 98.464,180.400 98.600 C 180.620 98.736,180.801 99.152,180.803 99.524 C 180.804 99.896,181.347 100.508,182.009 100.885 C 182.672 101.262,183.335 101.892,183.482 102.285 C 184.004 103.678,188.956 111.762,190.008 112.939 C 191.493 114.601,194.324 114.658,195.924 113.058 C 197.833 111.148,197.469 109.409,193.987 103.800 C 192.061 100.698,190.985 98.544,190.945 97.712 C 190.911 97.003,190.415 95.483,189.842 94.333 C 189.269 93.184,188.800 92.008,188.800 91.721 C 188.800 91.435,188.620 91.200,188.400 91.200 C 188.180 91.200,188.000 90.840,188.000 90.400 C 188.000 89.960,187.820 89.600,187.600 89.600 C 187.380 89.600,187.200 89.060,187.200 88.400 C 187.200 87.740,187.020 87.200,186.800 87.200 C 186.580 87.200,186.400 86.761,186.400 86.224 C 186.400 85.687,186.220 85.136,186.000 85.000 C 185.780 84.864,185.600 84.324,185.600 83.800 C 185.600 83.276,185.420 82.736,185.200 82.600 C 184.980 82.464,184.800 81.823,184.800 81.176 C 184.800 80.529,184.620 80.000,184.400 80.000 C 184.180 80.000,184.000 79.381,184.000 78.624 C 184.000 77.867,183.820 77.136,183.600 77.000 C 183.380 76.864,183.200 76.133,183.200 75.376 C 183.200 74.619,183.020 74.000,182.800 74.000 C 182.580 74.000,182.400 73.100,182.400 72.000 C 182.400 70.900,182.220 70.000,182.000 70.000 C 181.780 70.000,181.600 69.100,181.600 68.000 C 181.600 66.900,181.420 66.000,181.200 66.000 C 180.978 66.000,180.800 64.933,180.800 63.600 C 180.800 62.267,180.622 61.200,180.400 61.200 C 180.174 61.200,180.000 60.067,180.000 58.600 C 180.000 57.133,179.826 56.000,179.600 56.000 C 179.369 56.000,179.200 54.741,179.200 53.024 C 179.200 51.387,179.020 49.936,178.800 49.800 C 178.580 49.664,178.400 48.747,178.400 47.763 C 178.400 44.259,174.050 41.878,171.017 43.724 " stroke="none" fill="#644c4c" fill-rule="evenodd"></path><path id="path3" d="M155.169 308.369 C 153.830 309.709,153.677 311.661,154.375 318.516 C 154.582 320.542,154.957 324.900,155.210 328.200 C 156.666 347.188,156.726 347.527,158.792 348.596 C 160.801 349.635,162.772 349.141,164.287 347.218 C 164.881 346.465,164.932 342.573,164.417 337.314 C 163.990 332.954,163.441 326.313,162.787 317.600 C 162.547 314.410,162.178 311.135,161.966 310.321 C 161.146 307.175,157.431 306.108,155.169 308.369 M241.730 308.193 C 239.363 309.205,239.276 309.548,238.011 322.800 C 237.769 325.330,237.406 329.020,237.204 331.000 C 235.634 346.365,235.620 346.149,238.276 347.409 C 242.204 349.273,244.073 347.177,244.742 340.158 C 245.012 337.321,245.394 333.380,245.591 331.400 C 245.789 329.420,246.146 325.730,246.386 323.200 C 246.626 320.670,247.011 317.042,247.241 315.138 C 247.908 309.626,245.495 306.585,241.730 308.193 " stroke="none" fill="#acbcc4" fill-rule="evenodd"></path><path id="path4" d="M202.400 94.385 C 202.070 94.606,200.855 94.791,199.700 94.794 C 198.545 94.797,197.600 94.980,197.600 95.200 C 197.600 95.420,196.779 95.600,195.776 95.600 C 194.663 95.600,194.049 95.756,194.200 96.000 C 194.349 96.241,193.807 96.400,192.831 96.400 C 189.996 96.400,190.159 97.562,193.831 103.522 C 197.473 109.432,197.847 111.135,195.924 113.058 C 194.324 114.658,191.493 114.601,190.008 112.939 C 188.867 111.662,183.600 103.012,183.600 102.415 C 183.600 101.830,181.434 100.298,181.276 100.771 C 181.198 101.007,180.698 101.200,180.167 101.200 C 179.635 101.200,179.200 101.336,179.200 101.502 C 179.200 101.669,178.615 102.060,177.900 102.372 C 177.185 102.684,176.309 103.268,175.953 103.670 C 175.597 104.071,175.052 104.400,174.741 104.400 C 174.431 104.400,173.917 104.760,173.600 105.200 C 173.283 105.640,172.787 106.000,172.498 106.000 C 172.210 106.000,171.358 106.615,170.607 107.367 C 169.855 108.118,168.871 108.851,168.420 108.994 C 167.969 109.137,167.600 109.410,167.600 109.602 C 167.600 109.793,166.520 111.067,165.200 112.433 C 163.880 113.798,162.800 115.160,162.800 115.458 C 162.800 115.756,162.664 116.000,162.498 116.000 C 162.162 116.000,160.400 119.659,160.400 120.357 C 160.400 120.601,160.243 120.800,160.051 120.800 C 159.859 120.800,159.559 121.565,159.384 122.500 C 159.209 123.435,158.984 124.560,158.883 125.000 C 157.778 129.822,158.820 140.903,160.418 141.321 C 160.810 141.423,161.443 142.113,161.825 142.854 C 166.623 152.172,181.109 157.646,202.632 158.276 C 224.019 158.902,237.336 151.534,242.422 136.262 C 242.923 134.756,243.554 133.439,243.823 133.336 C 244.092 133.233,244.220 132.800,244.109 132.374 C 243.998 131.948,244.108 131.600,244.353 131.600 C 244.936 131.600,244.981 119.359,244.400 119.000 C 244.180 118.864,244.000 118.054,244.000 117.200 C 244.000 116.346,243.820 115.536,243.600 115.400 C 243.380 115.264,243.200 114.623,243.200 113.976 C 243.200 113.329,243.020 112.800,242.800 112.800 C 242.580 112.800,242.400 112.455,242.400 112.033 C 242.400 111.612,242.265 111.207,242.100 111.133 C 241.935 111.060,241.278 109.956,240.641 108.680 C 239.425 106.248,234.634 101.031,232.700 100.032 C 232.095 99.720,231.600 99.315,231.600 99.132 C 231.600 98.950,231.240 98.800,230.800 98.800 C 230.360 98.800,230.000 98.620,230.000 98.400 C 230.000 98.180,229.640 98.000,229.200 98.000 C 228.760 98.000,228.400 97.859,228.400 97.687 C 228.400 97.515,227.545 97.126,226.500 96.822 C 225.455 96.518,224.505 96.127,224.388 95.953 C 224.271 95.779,223.506 95.592,222.688 95.537 C 221.870 95.482,221.200 95.311,221.200 95.159 C 221.200 94.377,203.496 93.649,202.400 94.385 " stroke="none" fill="#fb9b84" fill-rule="evenodd"></path></g></svg>