<svg id="svg" version="1.1" xmlns="http://www.w3.org/2000/svg" xmlns:xlink="http://www.w3.org/1999/xlink" width="400" height="400" viewBox="0, 0, 400,400"><g id="svgg"><path id="path0" d="M192.325 101.614 C 192.256 101.813,189.015 101.996,185.123 102.020 C 181.231 102.043,177.991 102.220,177.923 102.413 C 177.855 102.606,175.640 102.791,173.000 102.824 C 170.360 102.857,168.013 103.035,167.786 103.220 C 167.558 103.405,165.668 103.587,163.586 103.625 C 161.503 103.663,159.611 103.845,159.380 104.030 C 159.149 104.214,157.398 104.396,155.488 104.434 C 153.578 104.471,152.113 104.659,152.232 104.851 C 152.396 105.117,147.245 105.367,145.745 105.166 C 145.604 105.147,145.377 105.313,145.240 105.535 C 145.103 105.757,143.495 105.990,141.668 106.052 C 139.840 106.115,138.257 106.308,138.149 106.483 C 138.041 106.657,136.703 106.800,135.176 106.800 C 133.649 106.800,132.400 106.955,132.400 107.144 C 132.400 107.333,130.915 107.522,129.100 107.565 C 127.285 107.607,125.740 107.813,125.667 108.021 C 125.593 108.229,123.928 108.400,121.967 108.400 C 119.856 108.400,118.400 108.563,118.400 108.800 C 118.400 109.026,117.267 109.200,115.800 109.200 C 114.370 109.200,113.200 109.354,113.200 109.542 C 113.200 109.731,111.895 110.001,110.300 110.143 C 106.388 110.492,104.827 110.736,104.269 111.084 C 104.011 111.244,103.385 111.322,102.879 111.256 C 102.372 111.191,101.691 111.359,101.365 111.629 C 101.039 111.900,100.242 112.106,99.593 112.087 C 98.945 112.069,98.310 112.222,98.183 112.427 C 98.057 112.632,97.348 112.800,96.610 112.800 C 95.871 112.800,95.207 112.978,95.133 113.197 C 95.060 113.415,94.505 113.634,93.900 113.684 C 93.295 113.734,92.800 113.915,92.800 114.087 C 92.800 114.259,92.260 114.400,91.600 114.400 C 90.940 114.400,90.400 114.580,90.400 114.800 C 90.400 115.020,89.849 115.200,89.176 115.200 C 88.463 115.200,88.056 115.367,88.200 115.600 C 88.344 115.833,87.937 116.000,87.224 116.000 C 86.551 116.000,86.000 116.180,86.000 116.400 C 86.000 116.620,85.764 116.800,85.475 116.800 C 85.186 116.800,84.205 117.160,83.294 117.600 C 82.384 118.040,81.450 118.400,81.219 118.400 C 80.989 118.400,80.800 118.591,80.800 118.824 C 80.800 119.057,80.632 119.144,80.428 119.017 C 80.223 118.891,79.940 118.973,79.800 119.200 C 79.660 119.427,79.377 119.509,79.172 119.383 C 78.968 119.256,78.799 119.298,78.797 119.476 C 78.793 119.854,76.880 120.800,76.120 120.800 C 75.834 120.800,75.600 120.980,75.600 121.200 C 75.600 121.420,75.364 121.600,75.075 121.600 C 74.787 121.600,74.164 121.960,73.692 122.400 C 73.220 122.840,72.556 123.200,72.217 123.200 C 71.878 123.200,71.600 123.350,71.600 123.532 C 71.600 123.715,71.105 124.119,70.500 124.430 C 69.487 124.950,68.000 126.294,68.000 126.690 C 68.000 126.924,68.668 127.532,71.199 129.602 C 72.408 130.591,73.938 131.872,74.599 132.450 C 75.259 133.027,78.410 135.697,81.600 138.384 C 84.790 141.070,87.852 143.658,88.404 144.134 C 88.956 144.610,90.396 145.808,91.604 146.795 C 92.812 147.781,93.890 148.691,94.000 148.815 C 94.110 148.940,96.359 150.832,98.997 153.021 C 101.635 155.209,104.176 157.360,104.644 157.800 C 105.112 158.240,106.261 159.221,107.198 159.979 C 108.135 160.738,109.103 161.548,109.351 161.781 C 109.598 162.013,110.790 163.010,112.000 163.996 C 113.210 164.982,114.290 165.881,114.400 165.995 C 114.510 166.108,115.680 167.096,117.000 168.191 C 118.320 169.286,119.490 170.279,119.600 170.397 C 119.710 170.515,120.789 171.419,121.999 172.405 C 123.208 173.392,124.579 174.560,125.046 175.000 C 125.513 175.440,126.593 176.365,127.447 177.057 C 128.301 177.748,131.070 180.064,133.600 182.203 C 136.130 184.342,139.280 186.992,140.600 188.091 C 141.920 189.191,143.452 190.475,144.004 190.945 C 144.556 191.415,145.994 192.610,147.200 193.600 C 148.406 194.590,149.844 195.787,150.396 196.261 C 150.948 196.735,152.930 198.424,154.800 200.014 C 156.670 201.605,158.743 203.378,159.406 203.953 C 160.070 204.529,161.460 205.683,162.496 206.519 C 163.532 207.354,164.610 208.261,164.890 208.534 C 166.202 209.811,172.065 214.400,172.385 214.400 C 172.584 214.400,172.849 214.074,172.976 213.677 C 173.102 213.279,174.045 212.089,175.072 211.033 C 181.515 204.404,190.259 207.383,197.924 218.819 C 199.501 221.171,199.688 221.218,200.336 219.426 C 205.241 205.861,221.406 201.230,227.303 211.700 C 227.767 212.525,228.305 213.200,228.498 213.200 C 229.259 213.200,253.141 196.782,255.400 194.707 C 256.060 194.100,256.825 193.603,257.100 193.602 C 257.375 193.601,257.600 193.459,257.600 193.286 C 257.600 193.114,258.095 192.677,258.700 192.315 C 259.305 191.953,260.340 191.214,261.000 190.672 C 261.660 190.130,264.900 187.573,268.200 184.988 C 273.301 180.994,280.522 175.107,281.200 174.390 C 281.310 174.274,282.570 173.196,284.000 171.995 C 296.675 161.347,315.754 142.802,328.200 129.032 C 332.600 124.163,333.199 123.449,333.200 123.071 C 333.200 122.497,327.244 116.800,326.643 116.800 C 326.326 116.800,326.007 116.665,325.933 116.500 C 325.731 116.045,323.290 114.400,322.816 114.400 C 322.587 114.400,322.400 114.209,322.400 113.976 C 322.400 113.743,322.241 113.651,322.047 113.771 C 321.853 113.891,321.058 113.557,320.280 113.028 C 319.502 112.500,318.762 112.172,318.635 112.298 C 318.508 112.425,318.044 112.202,317.602 111.802 C 317.161 111.403,316.800 111.230,316.800 111.418 C 316.800 111.606,316.598 111.558,316.351 111.311 C 316.104 111.064,315.654 110.958,315.351 111.074 C 315.048 111.190,314.800 111.092,314.800 110.855 C 314.800 110.619,314.530 110.529,314.200 110.655 C 313.870 110.782,313.600 110.686,313.600 110.443 C 313.600 110.199,312.959 110.000,312.176 110.000 C 311.329 110.000,310.853 109.838,311.000 109.600 C 311.151 109.356,310.537 109.200,309.424 109.200 C 308.421 109.200,307.600 109.020,307.600 108.800 C 307.600 108.580,306.959 108.400,306.176 108.400 C 305.329 108.400,304.853 108.238,305.000 108.000 C 305.205 107.668,302.752 107.355,301.500 107.553 C 301.335 107.579,301.200 107.438,301.200 107.240 C 301.200 106.893,299.737 106.623,295.300 106.150 C 294.145 106.027,293.200 105.795,293.200 105.634 C 293.200 105.474,292.255 105.301,291.100 105.249 C 289.945 105.197,288.829 104.985,288.620 104.777 C 288.411 104.570,287.106 104.400,285.720 104.400 C 284.334 104.400,283.200 104.244,283.200 104.054 C 283.200 103.864,281.629 103.674,279.710 103.632 C 277.790 103.590,276.108 103.376,275.973 103.156 C 275.838 102.937,275.563 102.789,275.363 102.826 C 273.889 103.104,266.692 102.728,267.200 102.400 C 267.599 102.142,265.298 102.010,260.324 102.006 C 255.643 102.002,252.752 101.846,252.593 101.589 C 252.267 101.061,192.507 101.085,192.325 101.614 M337.541 131.933 C 337.370 132.391,334.834 135.169,327.652 142.766 C 316.370 154.699,304.343 166.245,292.617 176.400 C 291.728 177.170,290.910 177.890,290.800 178.000 C 289.232 179.572,280.914 186.443,274.814 191.206 C 273.832 191.972,272.674 192.914,272.241 193.298 C 271.808 193.682,270.052 195.032,268.338 196.298 C 266.624 197.564,265.217 198.823,265.211 199.096 C 265.201 199.540,271.016 208.708,271.619 209.200 C 271.754 209.310,272.825 210.840,274.000 212.600 C 275.175 214.360,276.254 215.890,276.398 216.000 C 276.542 216.110,277.447 217.370,278.410 218.800 C 279.372 220.230,281.685 223.470,283.549 226.000 C 285.414 228.530,287.728 231.680,288.692 233.000 C 289.656 234.320,290.662 235.670,290.928 236.000 C 291.194 236.330,291.850 237.230,292.386 238.000 C 292.923 238.770,293.469 239.490,293.600 239.600 C 293.731 239.710,294.277 240.430,294.814 241.200 C 295.350 241.970,296.011 242.870,296.283 243.200 C 296.555 243.530,298.856 246.500,301.397 249.800 C 303.937 253.100,306.239 256.070,306.513 256.400 C 306.787 256.730,307.639 257.810,308.406 258.800 C 309.172 259.790,309.897 260.690,310.015 260.800 C 310.133 260.910,312.199 263.430,314.606 266.400 C 319.105 271.951,322.157 275.649,324.843 278.800 C 325.687 279.790,326.755 281.050,327.217 281.600 C 327.679 282.150,328.449 283.052,328.928 283.604 C 329.408 284.157,330.880 285.865,332.200 287.400 C 336.170 292.017,337.705 293.600,338.212 293.600 C 338.689 293.600,340.147 289.346,340.200 287.800 C 340.215 287.360,340.431 286.635,340.680 286.189 C 340.929 285.743,341.092 284.788,341.042 284.066 C 340.992 283.344,341.097 282.664,341.275 282.553 C 341.454 282.443,341.600 280.923,341.600 279.176 C 341.600 277.325,341.767 276.000,342.000 276.000 C 342.246 276.000,342.400 274.011,342.400 270.833 C 342.400 267.074,342.536 265.612,342.900 265.465 C 343.300 265.304,343.300 265.257,342.900 265.232 C 342.625 265.214,342.400 265.009,342.400 264.776 C 342.400 264.543,342.580 264.464,342.800 264.600 C 343.065 264.764,343.200 257.545,343.200 243.247 C 343.200 230.527,343.351 221.554,343.568 221.420 C 344.492 220.849,343.707 146.396,342.766 145.420 C 342.565 145.211,342.400 144.191,342.400 143.153 C 342.400 142.116,342.240 141.207,342.044 141.133 C 341.849 141.060,341.574 140.190,341.435 139.200 C 341.098 136.809,340.993 136.310,340.676 135.600 C 340.530 135.270,340.165 134.280,339.867 133.400 C 339.349 131.875,337.903 130.962,337.541 131.933 M58.600 134.257 C 57.720 135.250,56.942 136.318,56.871 136.631 C 56.800 136.944,56.479 137.200,56.158 137.200 C 55.837 137.200,55.455 137.515,55.308 137.900 C 55.161 138.285,54.716 138.949,54.320 139.375 C 53.924 139.802,53.600 140.398,53.600 140.699 C 53.600 141.001,53.420 141.136,53.200 141.000 C 52.980 140.864,52.800 140.956,52.800 141.205 C 52.800 141.454,52.575 141.894,52.300 142.184 C 51.063 143.487,50.400 144.450,50.400 144.943 C 50.400 145.236,50.040 145.802,49.600 146.200 C 49.160 146.598,48.800 147.222,48.800 147.587 C 48.800 147.951,48.485 148.605,48.100 149.040 C 47.715 149.475,47.341 150.094,47.270 150.416 C 47.198 150.737,46.972 151.060,46.768 151.134 C 46.563 151.208,46.488 151.418,46.601 151.602 C 46.715 151.785,46.564 152.179,46.267 152.476 C 45.969 152.773,45.772 153.328,45.828 153.708 C 45.884 154.089,45.710 154.535,45.441 154.700 C 44.845 155.066,44.122 156.886,43.772 158.900 C 43.628 159.725,43.351 160.400,43.155 160.400 C 42.960 160.400,42.800 161.030,42.800 161.800 C 42.800 162.570,42.620 163.200,42.400 163.200 C 42.180 163.200,42.000 163.650,42.000 164.200 C 42.000 164.750,41.857 165.200,41.682 165.200 C 41.507 165.200,41.318 165.870,41.263 166.688 C 41.208 167.506,41.013 168.271,40.830 168.388 C 40.647 168.505,40.395 169.320,40.269 170.200 C 40.143 171.080,39.856 172.790,39.630 174.000 C 39.404 175.210,39.099 177.150,38.953 178.312 C 38.806 179.473,38.531 180.519,38.343 180.635 C 38.154 180.752,38.000 182.266,38.000 184.000 C 38.000 185.734,37.827 187.260,37.615 187.391 C 37.378 187.537,37.222 194.703,37.208 206.042 C 37.193 218.436,37.319 224.374,37.593 224.204 C 37.860 224.039,38.000 225.606,38.000 228.776 C 38.000 231.429,38.161 233.600,38.357 233.600 C 38.553 233.600,38.752 235.715,38.799 238.300 C 38.908 244.330,38.879 243.998,39.267 243.759 C 39.450 243.645,39.600 245.507,39.600 247.896 C 39.600 250.285,39.770 252.411,39.978 252.620 C 40.187 252.829,40.390 254.665,40.431 256.700 C 40.472 258.735,40.661 260.400,40.853 260.400 C 41.044 260.400,41.200 261.919,41.200 263.776 C 41.200 265.633,41.380 267.264,41.600 267.400 C 41.820 267.536,42.000 268.796,42.000 270.200 C 42.000 271.604,42.180 272.864,42.400 273.000 C 42.620 273.136,42.800 274.227,42.800 275.424 C 42.800 276.621,42.955 277.600,43.144 277.600 C 43.451 277.600,43.984 280.872,44.122 283.600 C 44.150 284.150,44.337 284.715,44.537 284.855 C 44.737 284.995,44.923 285.760,44.950 286.554 C 44.978 287.349,45.097 287.999,45.215 287.999 C 45.333 288.000,45.473 288.573,45.527 289.273 C 45.580 289.974,45.793 290.751,46.000 291.000 C 46.207 291.249,46.419 292.014,46.471 292.699 C 46.523 293.384,46.709 293.856,46.883 293.749 C 47.180 293.565,47.376 294.778,47.230 295.900 C 47.194 296.175,47.353 296.400,47.582 296.400 C 47.812 296.400,48.000 296.940,48.000 297.600 C 48.000 298.260,48.159 298.800,48.353 298.800 C 48.671 298.800,48.858 299.204,49.465 301.200 C 49.565 301.530,49.666 302.025,49.690 302.300 C 49.714 302.575,49.883 302.800,50.067 302.800 C 50.250 302.800,50.400 303.160,50.400 303.600 C 50.400 304.040,50.580 304.400,50.800 304.400 C 51.020 304.400,51.200 304.773,51.200 305.229 C 51.200 305.684,51.472 306.329,51.804 306.661 C 52.136 306.993,52.305 307.430,52.180 307.632 C 52.055 307.835,52.143 308.000,52.376 308.000 C 52.609 308.000,52.803 308.405,52.806 308.900 C 52.811 309.628,52.886 309.685,53.200 309.200 C 53.514 308.715,53.589 308.772,53.594 309.500 C 53.597 309.995,53.780 310.400,54.000 310.400 C 54.220 310.400,54.400 310.760,54.400 311.200 C 54.400 311.640,54.580 312.000,54.800 312.000 C 55.020 312.000,55.200 312.320,55.200 312.712 C 55.200 313.103,55.560 313.683,56.000 314.000 C 56.440 314.317,56.800 314.857,56.800 315.200 C 56.800 315.543,57.160 316.083,57.600 316.400 C 58.040 316.717,58.400 317.123,58.400 317.303 C 58.400 317.482,58.758 318.027,59.195 318.514 C 59.633 319.001,60.551 320.075,61.237 320.900 C 63.263 323.339,63.403 323.200,67.920 314.300 C 70.181 309.845,72.916 304.580,73.998 302.600 C 75.079 300.620,76.459 298.010,77.063 296.800 C 77.668 295.590,78.263 294.510,78.387 294.400 C 78.510 294.290,79.058 293.301,79.605 292.202 C 80.152 291.104,82.445 286.993,84.700 283.067 C 86.955 279.141,88.800 275.842,88.800 275.736 C 88.800 275.631,89.340 274.759,90.000 273.800 C 90.660 272.841,91.200 271.941,91.200 271.800 C 91.200 271.659,91.740 270.759,92.400 269.800 C 93.060 268.841,93.600 267.941,93.600 267.800 C 93.600 267.659,94.140 266.759,94.800 265.800 C 95.460 264.841,96.000 263.972,96.000 263.869 C 96.000 263.476,101.684 254.319,106.656 246.703 C 108.055 244.560,109.200 242.625,109.200 242.403 C 109.200 242.181,109.358 242.000,109.551 242.000 C 109.745 242.000,110.127 241.460,110.400 240.800 C 110.673 240.140,111.055 239.600,111.249 239.600 C 111.442 239.600,111.600 239.330,111.600 239.000 C 111.600 238.670,111.750 238.400,111.932 238.400 C 112.115 238.400,112.519 237.905,112.829 237.300 C 113.139 236.695,114.000 235.318,114.742 234.240 C 115.483 233.162,117.510 230.192,119.246 227.640 C 123.946 220.728,125.933 217.880,126.601 217.095 C 126.930 216.708,127.200 216.228,127.200 216.029 C 127.200 215.830,127.347 215.607,127.528 215.533 C 127.708 215.460,128.639 214.230,129.598 212.800 C 130.556 211.370,131.452 210.110,131.589 210.000 C 131.726 209.890,132.272 209.170,132.802 208.400 C 133.331 207.630,135.092 205.220,136.713 203.045 C 139.102 199.841,139.561 199.001,139.131 198.619 C 138.839 198.360,137.433 197.170,136.007 195.974 C 133.336 193.735,131.422 192.101,130.644 191.398 C 130.400 191.177,129.210 190.190,128.000 189.204 C 126.790 188.218,125.710 187.319,125.600 187.205 C 125.490 187.092,123.240 185.203,120.600 183.006 C 117.960 180.809,115.710 178.919,115.600 178.806 C 115.490 178.693,114.230 177.615,112.800 176.410 C 111.370 175.206,110.110 174.124,110.000 174.005 C 109.890 173.886,108.810 172.984,107.600 172.000 C 106.390 171.016,105.310 170.119,105.200 170.005 C 105.090 169.892,103.920 168.904,102.600 167.809 C 101.280 166.714,100.110 165.721,100.000 165.603 C 99.890 165.485,98.810 164.584,97.600 163.600 C 96.390 162.616,95.310 161.716,95.200 161.600 C 95.090 161.484,94.011 160.581,92.801 159.595 C 91.592 158.608,90.220 157.440,89.752 157.000 C 89.284 156.560,88.563 155.928,88.150 155.595 C 86.543 154.299,74.989 144.626,74.800 144.419 C 74.690 144.297,72.980 142.849,71.000 141.200 C 69.020 139.551,67.310 138.111,67.200 138.001 C 66.433 137.230,62.013 133.616,61.200 133.094 C 60.221 132.465,60.167 132.489,58.600 134.257 M256.742 204.908 C 256.444 205.203,255.030 206.232,253.600 207.194 C 252.170 208.157,250.940 209.092,250.867 209.272 C 250.793 209.453,250.493 209.600,250.200 209.600 C 249.907 209.600,249.607 209.761,249.533 209.957 C 249.371 210.393,232.222 221.648,230.755 222.281 C 229.808 222.690,229.684 223.008,229.431 225.666 C 228.569 234.736,223.814 243.353,217.000 248.197 C 198.024 261.684,172.971 249.777,170.547 226.118 C 170.406 224.733,170.122 223.600,169.917 223.600 C 169.094 223.600,165.789 221.081,158.600 214.975 C 157.500 214.041,154.355 211.395,151.611 209.095 L 146.622 204.914 145.611 206.195 C 145.055 206.900,144.211 207.999,143.735 208.638 C 143.259 209.277,142.266 210.610,141.528 211.600 C 139.191 214.735,135.301 220.234,132.032 225.024 C 130.840 226.771,129.735 228.290,129.577 228.400 C 128.908 228.864,108.296 260.567,108.071 261.478 C 108.000 261.765,107.775 262.000,107.571 262.000 C 107.367 262.000,107.200 262.197,107.200 262.438 C 107.200 262.679,106.861 263.354,106.447 263.938 C 106.033 264.522,105.334 265.630,104.894 266.400 C 104.454 267.170,102.574 270.320,100.716 273.400 C 98.858 276.480,96.793 279.990,96.127 281.200 C 95.462 282.410,94.323 284.390,93.597 285.600 C 92.871 286.810,91.792 288.700,91.200 289.800 C 90.608 290.900,89.710 292.520,89.205 293.400 C 87.708 296.009,86.649 297.953,84.195 302.600 C 82.917 305.020,81.418 307.810,80.863 308.800 C 78.770 312.535,70.801 328.622,70.800 329.113 C 70.800 329.394,71.115 329.742,71.500 329.886 C 72.384 330.215,74.557 331.702,74.733 332.100 C 74.807 332.265,75.064 332.400,75.305 332.400 C 76.036 332.400,79.600 334.119,79.600 334.471 C 79.600 334.652,79.930 334.800,80.333 334.800 C 80.737 334.800,81.191 334.925,81.344 335.077 C 81.496 335.229,82.013 335.414,82.493 335.487 C 82.973 335.560,83.463 335.751,83.583 335.910 C 83.702 336.070,84.160 336.263,84.600 336.340 C 85.040 336.417,85.490 336.597,85.600 336.740 C 85.826 337.034,86.393 337.175,87.818 337.293 C 88.358 337.338,88.800 337.515,88.800 337.687 C 88.800 337.859,88.935 337.979,89.100 337.953 C 90.172 337.783,91.608 338.063,91.400 338.400 C 91.251 338.640,91.774 338.800,92.710 338.800 C 93.566 338.800,94.389 338.922,94.538 339.072 C 94.688 339.221,95.573 339.407,96.505 339.485 C 97.437 339.563,98.470 339.738,98.800 339.874 C 99.130 340.009,100.655 340.192,102.189 340.280 C 103.722 340.368,105.072 340.586,105.189 340.764 C 105.793 341.691,176.965 341.631,177.629 340.703 C 177.755 340.527,180.545 340.337,183.829 340.281 C 187.113 340.225,189.996 340.056,190.235 339.906 C 190.474 339.756,192.769 339.606,195.335 339.574 C 197.901 339.541,200.000 339.380,200.000 339.215 C 200.000 339.051,201.395 338.867,203.100 338.805 C 208.344 338.616,208.587 338.596,209.034 338.311 C 209.273 338.159,210.983 338.003,212.834 337.966 C 214.685 337.928,216.294 337.751,216.410 337.571 C 216.525 337.392,218.186 337.211,220.100 337.168 C 222.014 337.126,223.484 336.936,223.367 336.746 C 223.191 336.461,225.714 336.253,229.280 336.258 C 229.654 336.259,229.869 336.111,229.757 335.930 C 229.644 335.748,230.993 335.600,232.753 335.600 C 234.513 335.600,236.064 335.420,236.200 335.200 C 236.336 334.980,237.506 334.800,238.800 334.800 C 240.094 334.800,241.264 334.620,241.400 334.400 C 241.536 334.180,242.897 334.000,244.424 334.000 C 246.008 334.000,247.200 333.828,247.200 333.600 C 247.200 333.380,248.154 333.200,249.320 333.200 C 250.486 333.200,251.682 332.975,251.979 332.700 C 252.416 332.294,252.458 332.312,252.200 332.800 C 251.942 333.288,251.984 333.306,252.421 332.900 C 252.718 332.625,253.813 332.400,254.856 332.400 C 255.899 332.400,256.864 332.220,257.000 332.000 C 257.136 331.780,258.302 331.600,259.590 331.600 C 260.879 331.600,261.993 331.430,262.067 331.222 C 262.140 331.015,263.235 330.804,264.500 330.754 C 265.765 330.704,266.800 330.514,266.800 330.332 C 266.800 330.149,267.664 330.000,268.720 330.000 C 269.776 330.000,270.811 329.830,271.020 329.622 C 271.229 329.415,272.255 329.201,273.300 329.148 C 274.345 329.094,275.200 328.904,275.200 328.725 C 275.200 328.546,276.100 328.400,277.200 328.400 C 278.300 328.400,279.200 328.220,279.200 328.000 C 279.200 327.780,280.089 327.600,281.176 327.600 C 282.263 327.600,283.264 327.420,283.400 327.200 C 283.536 326.980,284.447 326.800,285.424 326.800 C 286.401 326.800,287.200 326.638,287.200 326.440 C 287.200 326.242,287.965 325.981,288.900 325.859 C 289.835 325.737,291.680 325.446,293.000 325.212 C 294.320 324.978,295.957 324.745,296.638 324.694 C 297.319 324.642,298.129 324.400,298.438 324.155 C 298.747 323.910,299.450 323.751,300.000 323.803 C 300.550 323.855,301.497 323.645,302.104 323.336 C 302.711 323.028,303.971 322.670,304.904 322.541 C 305.837 322.412,306.690 322.192,306.800 322.053 C 306.976 321.831,307.418 321.712,309.000 321.463 C 309.220 321.428,309.500 321.266,309.622 321.102 C 309.745 320.938,310.330 320.764,310.922 320.715 C 311.515 320.666,312.000 320.485,312.000 320.313 C 312.000 320.141,312.360 320.000,312.800 320.000 C 313.240 320.000,313.600 319.850,313.600 319.667 C 313.600 319.483,313.825 319.326,314.100 319.318 C 314.810 319.295,315.765 319.035,316.000 318.800 C 316.411 318.389,318.005 317.600,318.423 317.600 C 318.662 317.600,319.129 317.328,319.461 316.996 C 319.793 316.664,320.230 316.495,320.432 316.620 C 320.635 316.745,320.800 316.695,320.800 316.510 C 320.800 316.324,321.345 315.851,322.011 315.457 C 322.677 315.064,323.659 314.305,324.193 313.771 C 324.727 313.237,325.272 312.800,325.404 312.800 C 325.536 312.800,326.694 311.730,327.978 310.422 C 329.261 309.115,330.402 308.135,330.512 308.245 C 330.622 308.356,330.950 307.909,331.241 307.252 C 331.532 306.595,331.912 306.145,332.085 306.252 C 332.258 306.360,332.400 306.167,332.400 305.824 C 332.400 305.481,332.580 305.200,332.800 305.200 C 333.020 305.200,333.200 304.930,333.200 304.600 C 333.200 304.270,333.380 304.000,333.600 304.000 C 334.717 304.000,333.931 302.966,326.000 294.000 C 324.735 292.570,323.183 290.770,322.550 290.000 C 321.918 289.231,320.926 288.061,320.347 287.400 C 319.310 286.218,315.733 281.970,312.600 278.200 C 311.720 277.141,310.740 275.898,310.422 275.437 C 310.105 274.977,309.563 274.330,309.218 274.000 C 308.873 273.670,308.101 272.741,307.502 271.935 C 306.902 271.129,306.184 270.227,305.906 269.931 C 305.082 269.054,300.711 263.603,298.583 260.800 C 297.498 259.370,296.391 257.930,296.123 257.600 C 295.856 257.270,294.720 255.830,293.600 254.400 C 292.480 252.970,291.346 251.530,291.081 251.200 C 290.034 249.895,278.897 234.914,277.997 233.600 C 277.470 232.830,276.928 232.110,276.793 232.000 C 276.658 231.890,275.937 230.904,275.192 229.809 C 274.446 228.714,273.611 227.544,273.336 227.209 C 272.515 226.210,266.915 218.195,262.851 212.200 C 260.762 209.120,258.907 206.540,258.727 206.467 C 258.547 206.393,258.400 206.100,258.400 205.816 C 258.400 204.879,257.352 204.306,256.742 204.908 " stroke="none" fill="#e3ebeb" fill-rule="evenodd"></path><path id="path1" d="M333.828 123.100 C 333.704 123.485,333.107 124.341,332.501 125.002 C 331.895 125.663,329.780 127.999,327.800 130.192 C 316.655 142.539,301.935 156.898,285.598 171.359 C 284.302 172.505,278.084 177.737,276.210 179.257 C 270.289 184.061,265.886 187.517,261.684 190.662 C 258.888 192.755,256.281 194.723,255.891 195.037 C 253.654 196.837,244.337 203.473,242.464 204.600 C 242.099 204.820,241.710 205.113,241.600 205.252 C 241.490 205.390,238.475 207.425,234.900 209.775 C 231.325 212.125,228.400 214.115,228.400 214.198 C 228.400 214.280,228.596 214.855,228.836 215.474 C 229.076 216.093,229.392 217.770,229.540 219.200 C 229.777 221.503,229.898 221.785,230.604 221.670 C 231.349 221.548,249.168 209.835,254.715 205.820 C 257.714 203.650,257.699 203.652,258.748 205.300 C 259.203 206.015,259.886 207.050,260.266 207.600 C 260.646 208.150,262.942 211.480,265.368 215.000 C 267.793 218.520,270.323 222.141,270.989 223.047 C 271.655 223.953,273.370 226.340,274.800 228.352 C 277.648 232.359,283.725 240.647,284.514 241.600 C 284.788 241.930,285.450 242.830,285.986 243.600 C 286.523 244.370,287.066 245.090,287.193 245.200 C 287.320 245.310,288.286 246.570,289.339 248.000 C 292.493 252.283,308.408 272.465,309.464 273.521 C 309.766 273.823,310.504 274.727,311.106 275.532 C 311.708 276.337,312.672 277.536,313.250 278.197 C 313.827 278.859,316.497 282.010,319.184 285.200 C 324.712 291.765,324.379 291.377,329.901 297.673 C 332.156 300.244,334.000 302.519,334.000 302.731 C 334.000 302.942,334.285 303.224,334.633 303.357 C 335.625 303.738,337.200 303.642,337.200 303.200 C 337.200 302.980,337.478 302.800,337.818 302.800 C 338.158 302.800,338.917 302.320,339.504 301.732 C 341.487 299.749,340.535 294.000,338.224 294.000 C 337.541 294.000,336.601 293.229,334.934 291.300 C 333.650 289.815,332.505 288.510,332.390 288.400 C 332.211 288.230,328.820 284.290,325.849 280.800 C 324.177 278.836,316.975 270.158,315.600 268.451 C 314.830 267.495,313.160 265.458,311.888 263.926 C 310.617 262.393,308.097 259.237,306.288 256.912 C 304.480 254.587,302.142 251.586,301.093 250.243 C 298.007 246.290,285.580 229.707,282.780 225.805 C 281.361 223.828,279.984 221.938,279.719 221.605 C 277.220 218.458,264.397 199.545,264.412 199.028 C 264.419 198.793,265.274 197.972,266.312 197.205 C 268.169 195.834,281.609 185.210,282.000 184.805 C 282.110 184.692,283.820 183.249,285.800 181.600 C 287.780 179.951,289.490 178.511,289.600 178.400 C 289.710 178.290,291.150 177.029,292.799 175.600 C 297.950 171.135,303.460 166.104,308.344 161.403 C 318.109 152.006,327.968 141.955,334.369 134.871 C 336.788 132.195,337.941 131.196,338.455 131.330 C 338.915 131.451,339.259 131.246,339.413 130.759 C 339.546 130.342,339.822 130.000,340.027 130.000 C 340.232 130.000,340.400 128.921,340.400 127.603 C 340.400 125.141,339.398 123.200,338.128 123.200 C 337.838 123.200,337.600 123.020,337.600 122.800 C 337.600 122.046,334.078 122.326,333.828 123.100 M62.800 125.200 C 62.800 125.420,62.506 125.600,62.147 125.600 C 60.035 125.600,58.882 132.026,60.900 132.544 C 61.712 132.753,63.703 134.310,70.380 139.957 C 73.364 142.481,75.760 144.555,76.000 144.823 C 76.110 144.946,76.609 145.326,77.109 145.667 C 77.608 146.008,78.688 146.898,79.509 147.644 C 80.329 148.390,83.160 150.791,85.800 152.979 C 88.440 155.168,90.690 157.058,90.800 157.180 C 90.910 157.302,92.620 158.751,94.600 160.400 C 96.580 162.049,98.290 163.492,98.400 163.606 C 98.510 163.720,101.390 166.143,104.800 168.991 C 108.210 171.839,111.090 174.267,111.200 174.385 C 111.310 174.504,113.020 175.951,115.000 177.600 C 116.980 179.249,118.690 180.697,118.800 180.818 C 119.137 181.188,135.970 195.299,138.048 196.954 C 140.119 198.603,140.350 199.165,139.420 200.295 C 138.158 201.829,131.570 210.864,128.405 215.400 C 126.563 218.040,124.394 221.100,123.586 222.200 C 120.809 225.979,104.000 251.397,104.000 251.818 C 104.000 251.942,103.298 253.078,102.440 254.341 C 100.653 256.973,94.375 267.316,91.938 271.645 C 91.642 272.170,91.310 272.690,91.200 272.800 C 91.090 272.910,90.758 273.430,90.462 273.955 C 89.635 275.425,88.482 277.456,87.600 279.000 C 80.440 291.531,75.426 300.801,68.996 313.400 C 66.180 318.918,64.202 322.341,63.691 322.578 C 61.028 323.816,62.435 330.000,65.379 330.000 C 65.695 330.000,66.064 330.180,66.200 330.400 C 66.336 330.620,66.797 330.800,67.224 330.800 C 67.651 330.800,68.000 330.620,68.000 330.400 C 68.000 330.180,68.540 330.000,69.200 330.000 C 70.189 330.000,70.400 329.837,70.400 329.070 C 70.400 327.585,89.992 289.781,92.411 286.600 C 92.578 286.380,93.094 285.525,93.557 284.700 C 94.021 283.875,94.760 282.570,95.200 281.800 C 95.640 281.030,96.334 279.815,96.742 279.100 C 98.050 276.807,106.032 263.450,106.961 262.000 C 107.454 261.230,108.879 259.027,110.129 257.104 C 111.378 255.181,112.400 253.521,112.400 253.416 C 112.400 253.151,127.249 230.649,127.588 230.400 C 127.737 230.290,128.643 229.030,129.599 227.600 C 133.491 221.784,143.853 207.406,145.294 205.825 C 145.682 205.398,146.000 204.903,146.000 204.725 C 146.000 203.900,147.229 204.760,153.100 209.693 C 156.565 212.605,159.760 215.289,160.200 215.659 C 166.947 221.330,169.420 223.200,170.174 223.200 C 170.298 223.200,170.402 222.705,170.405 222.100 C 170.407 221.495,170.697 220.010,171.047 218.800 C 172.106 215.149,172.151 215.252,168.000 211.789 C 165.910 210.045,164.110 208.522,164.000 208.404 C 163.890 208.286,162.812 207.381,161.604 206.395 C 160.396 205.408,158.956 204.214,158.404 203.743 C 157.852 203.272,155.432 201.202,153.027 199.143 C 150.621 197.084,147.636 194.570,146.394 193.556 C 145.151 192.541,143.699 191.342,143.167 190.892 C 142.635 190.441,139.680 187.965,136.600 185.390 C 133.520 182.815,130.460 180.234,129.800 179.654 C 129.140 179.074,125.900 176.354,122.600 173.608 C 119.300 170.862,116.510 168.517,116.400 168.396 C 116.290 168.275,114.490 166.747,112.400 165.000 C 110.310 163.253,108.510 161.728,108.400 161.611 C 108.290 161.494,106.580 160.049,104.600 158.400 C 102.620 156.751,100.910 155.309,100.800 155.195 C 100.690 155.082,99.610 154.184,98.400 153.200 C 97.190 152.216,96.110 151.311,96.000 151.189 C 95.890 151.067,93.640 149.151,91.000 146.932 C 88.360 144.713,85.811 142.561,85.336 142.149 C 84.861 141.737,83.713 140.779,82.785 140.021 C 81.858 139.262,80.897 138.452,80.649 138.221 C 80.402 137.989,78.580 136.453,76.600 134.806 C 69.770 129.126,67.600 127.085,67.600 126.342 C 67.600 125.867,67.312 125.600,66.800 125.600 C 66.360 125.600,66.000 125.420,66.000 125.200 C 66.000 124.980,65.280 124.800,64.400 124.800 C 63.520 124.800,62.800 124.980,62.800 125.200 " stroke="none" fill="#acbcc4" fill-rule="evenodd"></path><path id="path2" d="M213.200 206.790 C 212.870 206.979,211.960 207.410,211.178 207.749 C 207.859 209.184,204.115 213.212,201.593 218.061 C 199.825 221.458,199.268 221.792,198.193 220.100 C 193.382 212.527,187.539 208.000,182.577 208.000 C 178.027 208.000,173.248 212.269,171.344 218.035 C 169.297 224.230,172.595 236.608,177.996 242.995 C 191.470 258.931,215.918 255.823,225.632 236.939 C 226.494 235.262,227.200 233.565,227.200 233.168 C 227.200 232.772,227.380 232.336,227.600 232.200 C 227.820 232.064,228.000 231.344,228.000 230.600 C 228.000 229.856,228.180 229.136,228.400 229.000 C 228.620 228.864,228.799 228.088,228.797 227.276 C 228.796 226.464,229.006 224.411,229.264 222.714 C 229.791 219.257,229.280 215.901,227.930 213.938 C 227.529 213.354,227.200 212.699,227.200 212.482 C 227.200 211.836,223.574 208.000,222.963 208.000 C 222.653 208.000,222.400 207.820,222.400 207.600 C 222.400 207.380,222.051 207.200,221.624 207.200 C 221.197 207.200,220.736 207.020,220.600 206.800 C 220.301 206.315,214.044 206.307,213.200 206.790 " stroke="none" fill="#fbaca4" fill-rule="evenodd"></path><path id="path3" d="M332.358 124.351 C 322.841 135.780,298.144 160.113,284.000 171.995 C 282.570 173.196,281.310 174.274,281.200 174.390 C 280.522 175.107,273.301 180.994,268.200 184.988 C 264.900 187.573,261.660 190.130,261.000 190.672 C 260.340 191.214,259.305 191.953,258.700 192.315 C 258.095 192.677,257.600 193.114,257.600 193.286 C 257.600 193.459,257.375 193.601,257.100 193.602 C 256.825 193.603,256.060 194.100,255.400 194.707 C 253.853 196.129,246.681 201.181,236.600 207.952 C 227.460 214.091,228.217 213.552,228.433 213.763 C 228.591 213.917,241.178 205.780,241.600 205.251 C 241.710 205.113,242.099 204.820,242.464 204.600 C 244.337 203.473,253.654 196.837,255.891 195.037 C 256.281 194.723,258.888 192.755,261.684 190.662 C 265.886 187.517,270.289 184.061,276.210 179.257 C 278.084 177.737,284.302 172.505,285.598 171.359 C 301.935 156.898,316.655 142.539,327.800 130.192 C 329.780 127.999,331.894 125.663,332.498 125.002 C 333.476 123.931,333.866 123.200,333.458 123.200 C 333.380 123.200,332.885 123.718,332.358 124.351 M67.600 126.681 C 67.600 127.106,70.625 129.837,76.600 134.806 C 78.580 136.453,80.402 137.989,80.649 138.221 C 80.897 138.452,81.858 139.262,82.785 140.021 C 83.713 140.779,84.861 141.737,85.336 142.149 C 85.811 142.561,88.360 144.713,91.000 146.932 C 93.640 149.151,95.890 151.067,96.000 151.189 C 96.110 151.311,97.190 152.216,98.400 153.200 C 99.610 154.184,100.690 155.082,100.800 155.195 C 100.910 155.309,102.620 156.751,104.600 158.400 C 106.580 160.049,108.290 161.494,108.400 161.611 C 108.510 161.728,110.310 163.253,112.400 165.000 C 114.490 166.747,116.290 168.275,116.400 168.396 C 116.510 168.517,119.300 170.862,122.600 173.608 C 125.900 176.354,129.140 179.074,129.800 179.654 C 130.460 180.234,133.520 182.815,136.600 185.390 C 139.680 187.965,142.635 190.441,143.167 190.892 C 143.699 191.342,145.151 192.541,146.394 193.556 C 147.636 194.570,150.621 197.084,153.027 199.143 C 155.432 201.202,157.852 203.272,158.404 203.743 C 158.956 204.214,160.396 205.408,161.604 206.395 C 162.812 207.381,163.890 208.282,164.000 208.395 C 164.273 208.677,170.814 214.083,171.765 214.813 C 172.186 215.136,172.456 215.203,172.365 214.961 C 172.274 214.720,170.670 213.287,168.800 211.777 C 166.930 210.266,165.171 208.807,164.890 208.534 C 164.610 208.261,163.532 207.354,162.496 206.519 C 161.460 205.683,160.070 204.529,159.406 203.953 C 158.743 203.378,156.670 201.605,154.800 200.014 C 152.930 198.424,150.948 196.735,150.396 196.261 C 149.844 195.787,148.406 194.590,147.200 193.600 C 145.994 192.610,144.556 191.415,144.004 190.945 C 143.452 190.475,141.920 189.191,140.600 188.091 C 139.280 186.992,136.130 184.342,133.600 182.203 C 131.070 180.064,128.301 177.748,127.447 177.057 C 126.593 176.365,125.513 175.440,125.046 175.000 C 124.579 174.560,123.208 173.392,121.999 172.405 C 120.789 171.419,119.710 170.515,119.600 170.397 C 119.490 170.279,118.320 169.286,117.000 168.191 C 115.680 167.096,114.510 166.108,114.400 165.995 C 114.290 165.881,113.210 164.982,112.000 163.996 C 110.790 163.010,109.598 162.013,109.351 161.781 C 109.103 161.548,108.135 160.738,107.198 159.979 C 106.261 159.221,105.112 158.240,104.644 157.800 C 104.176 157.360,101.635 155.209,98.997 153.021 C 96.359 150.832,94.110 148.940,94.000 148.815 C 93.890 148.691,92.812 147.781,91.604 146.795 C 90.396 145.808,88.956 144.610,88.404 144.134 C 87.852 143.658,84.790 141.070,81.600 138.384 C 78.410 135.697,75.259 133.027,74.599 132.450 C 73.938 131.872,72.408 130.593,71.199 129.607 C 69.989 128.621,68.685 127.469,68.300 127.046 C 67.915 126.623,67.600 126.459,67.600 126.681 M334.343 134.900 C 323.025 147.426,305.531 164.565,292.799 175.600 C 291.150 177.029,289.710 178.290,289.600 178.400 C 289.490 178.511,287.780 179.951,285.800 181.600 C 283.820 183.249,282.110 184.692,282.000 184.805 C 281.609 185.210,268.169 195.834,266.312 197.205 C 265.274 197.972,264.419 198.793,264.412 199.028 C 264.397 199.545,277.220 218.458,279.719 221.605 C 279.984 221.938,281.361 223.828,282.780 225.805 C 285.580 229.707,298.007 246.290,301.093 250.243 C 302.142 251.586,304.480 254.587,306.288 256.912 C 308.097 259.237,310.617 262.393,311.888 263.926 C 313.160 265.458,314.830 267.495,315.600 268.451 C 316.975 270.158,324.177 278.836,325.849 280.800 C 328.820 284.290,332.211 288.230,332.390 288.400 C 332.505 288.510,333.650 289.815,334.934 291.300 C 336.521 293.136,337.545 293.992,338.134 293.975 C 338.970 293.950,338.973 293.938,338.200 293.621 C 337.376 293.282,336.339 292.207,332.200 287.397 C 330.880 285.863,329.408 284.157,328.928 283.604 C 328.449 283.052,327.679 282.150,327.217 281.600 C 326.755 281.050,325.687 279.790,324.843 278.800 C 322.157 275.649,319.105 271.951,314.606 266.400 C 312.199 263.430,310.133 260.910,310.015 260.800 C 309.897 260.690,309.172 259.790,308.406 258.800 C 307.639 257.810,306.787 256.730,306.513 256.400 C 306.239 256.070,303.937 253.100,301.397 249.800 C 298.856 246.500,296.555 243.530,296.283 243.200 C 296.011 242.870,295.350 241.970,294.814 241.200 C 294.277 240.430,293.731 239.710,293.600 239.600 C 293.469 239.490,292.923 238.770,292.386 238.000 C 291.850 237.230,291.194 236.330,290.928 236.000 C 290.662 235.670,289.656 234.320,288.692 233.000 C 287.728 231.680,285.414 228.530,283.549 226.000 C 281.685 223.470,279.372 220.230,278.410 218.800 C 277.447 217.370,276.542 216.110,276.398 216.000 C 276.254 215.890,275.175 214.360,274.000 212.600 C 272.825 210.840,271.754 209.310,271.619 209.200 C 271.016 208.708,265.201 199.540,265.211 199.096 C 265.217 198.823,266.624 197.564,268.338 196.298 C 270.052 195.032,271.808 193.682,272.241 193.298 C 272.674 192.914,273.832 191.972,274.814 191.206 C 280.914 186.443,289.232 179.572,290.800 178.000 C 290.910 177.890,291.728 177.170,292.617 176.400 C 305.644 165.119,326.130 145.132,333.884 136.139 C 335.946 133.747,337.992 131.666,338.468 131.476 C 338.843 131.326,338.806 131.254,338.343 131.232 C 337.982 131.214,336.182 132.865,334.343 134.900 M61.211 133.077 C 62.046 133.649,66.572 137.370,67.200 138.001 C 67.310 138.111,69.020 139.551,71.000 141.200 C 72.980 142.849,74.690 144.297,74.800 144.419 C 74.989 144.626,86.543 154.299,88.150 155.595 C 88.563 155.928,89.284 156.560,89.752 157.000 C 90.220 157.440,91.592 158.608,92.801 159.595 C 94.011 160.581,95.090 161.484,95.200 161.600 C 95.310 161.716,96.390 162.616,97.600 163.600 C 98.810 164.584,99.890 165.485,100.000 165.603 C 100.110 165.721,101.280 166.714,102.600 167.809 C 103.920 168.904,105.090 169.892,105.200 170.005 C 105.310 170.119,106.390 171.016,107.600 172.000 C 108.810 172.984,109.890 173.886,110.000 174.005 C 110.110 174.124,111.370 175.206,112.800 176.410 C 114.230 177.615,115.490 178.693,115.600 178.806 C 115.710 178.919,117.960 180.809,120.600 183.006 C 123.240 185.203,125.490 187.092,125.600 187.205 C 125.710 187.319,126.790 188.218,128.000 189.204 C 129.210 190.190,130.400 191.177,130.644 191.398 C 131.422 192.101,133.336 193.735,136.007 195.974 C 137.433 197.170,138.839 198.360,139.131 198.619 C 139.561 199.001,139.102 199.841,136.713 203.045 C 135.092 205.220,133.331 207.630,132.802 208.400 C 132.272 209.170,131.726 209.890,131.589 210.000 C 131.452 210.110,130.556 211.370,129.598 212.800 C 128.639 214.230,127.708 215.460,127.528 215.533 C 127.347 215.607,127.200 215.830,127.200 216.029 C 127.200 216.228,126.930 216.708,126.601 217.095 C 125.933 217.880,123.946 220.728,119.246 227.640 C 117.510 230.192,115.483 233.162,114.742 234.240 C 114.000 235.318,113.139 236.695,112.829 237.300 C 112.519 237.905,112.115 238.400,111.932 238.400 C 111.750 238.400,111.600 238.670,111.600 239.000 C 111.600 239.330,111.442 239.600,111.249 239.600 C 111.055 239.600,110.673 240.140,110.400 240.800 C 110.127 241.460,109.745 242.000,109.551 242.000 C 109.358 242.000,109.200 242.181,109.200 242.403 C 109.200 242.625,108.055 244.560,106.656 246.703 C 101.684 254.319,96.000 263.476,96.000 263.869 C 96.000 263.972,95.460 264.841,94.800 265.800 C 94.140 266.759,93.600 267.659,93.600 267.800 C 93.600 267.941,93.060 268.841,92.400 269.800 C 91.740 270.759,91.200 271.659,91.200 271.800 C 91.200 271.941,90.660 272.841,90.000 273.800 C 89.340 274.759,88.800 275.631,88.800 275.736 C 88.800 275.842,86.955 279.141,84.700 283.067 C 82.445 286.993,80.152 291.104,79.605 292.202 C 79.058 293.301,78.510 294.290,78.387 294.400 C 78.263 294.510,77.668 295.590,77.063 296.800 C 76.459 298.010,75.079 300.620,73.998 302.600 C 72.916 304.580,70.184 309.840,67.926 314.288 C 65.668 318.736,63.546 322.450,63.211 322.541 C 62.698 322.680,62.705 322.715,63.251 322.754 C 64.173 322.819,64.229 322.727,69.096 313.200 C 74.588 302.445,76.313 299.200,81.321 290.200 C 85.250 283.137,85.990 281.818,87.600 279.000 C 88.482 277.456,89.635 275.425,90.462 273.955 C 90.758 273.430,91.090 272.910,91.200 272.800 C 91.310 272.690,91.642 272.170,91.938 271.645 C 94.375 267.316,100.653 256.973,102.440 254.341 C 103.298 253.078,104.000 251.942,104.000 251.818 C 104.000 251.397,120.809 225.979,123.586 222.200 C 124.394 221.100,126.563 218.040,128.405 215.400 C 131.570 210.864,138.158 201.829,139.420 200.295 C 140.350 199.165,140.119 198.603,138.048 196.954 C 135.970 195.299,119.137 181.188,118.800 180.818 C 118.690 180.697,116.980 179.249,115.000 177.600 C 113.020 175.951,111.310 174.504,111.200 174.385 C 111.090 174.267,108.210 171.839,104.800 168.991 C 101.390 166.143,98.510 163.720,98.400 163.606 C 98.290 163.492,96.580 162.049,94.600 160.400 C 92.620 158.751,90.910 157.302,90.800 157.180 C 90.690 157.058,88.440 155.168,85.800 152.979 C 83.160 150.791,80.329 148.390,79.509 147.644 C 78.688 146.898,77.608 146.008,77.109 145.667 C 76.609 145.326,76.110 144.941,76.000 144.813 C 75.890 144.684,74.630 143.594,73.200 142.390 C 71.770 141.185,70.510 140.105,70.400 139.990 C 68.726 138.228,61.217 132.400,60.622 132.400 C 60.402 132.400,60.667 132.705,61.211 133.077 M254.600 205.853 C 249.367 209.748,231.237 221.647,230.444 221.707 C 229.980 221.742,229.600 221.998,229.600 222.277 C 229.600 223.201,249.085 211.159,249.533 209.957 C 249.607 209.761,249.907 209.600,250.200 209.600 C 250.493 209.600,250.793 209.453,250.867 209.272 C 250.940 209.092,252.170 208.157,253.600 207.194 C 255.030 206.232,256.444 205.203,256.742 204.908 C 257.352 204.306,258.400 204.879,258.400 205.816 C 258.400 206.100,258.547 206.393,258.727 206.467 C 258.907 206.540,260.762 209.120,262.851 212.200 C 266.915 218.195,272.515 226.210,273.336 227.209 C 273.611 227.544,274.446 228.714,275.192 229.809 C 275.937 230.904,276.658 231.890,276.793 232.000 C 276.928 232.110,277.470 232.830,277.997 233.600 C 278.897 234.914,290.034 249.895,291.081 251.200 C 291.346 251.530,292.480 252.970,293.600 254.400 C 294.720 255.830,295.856 257.270,296.123 257.600 C 296.391 257.930,297.498 259.370,298.583 260.800 C 300.711 263.603,305.082 269.054,305.906 269.931 C 306.184 270.227,306.902 271.129,307.502 271.935 C 308.101 272.741,308.873 273.670,309.218 274.000 C 309.563 274.330,310.105 274.977,310.422 275.437 C 310.740 275.898,311.720 277.141,312.600 278.200 C 315.733 281.970,319.310 286.218,320.347 287.400 C 320.926 288.061,321.918 289.231,322.550 290.000 C 323.183 290.770,324.737 292.570,326.005 294.000 C 327.273 295.430,329.521 298.004,331.001 299.721 C 332.481 301.437,333.781 302.753,333.889 302.644 C 333.998 302.535,332.223 300.321,329.945 297.723 C 324.374 291.371,324.718 291.772,319.184 285.200 C 316.497 282.010,313.827 278.859,313.250 278.197 C 312.672 277.536,311.708 276.337,311.106 275.532 C 310.504 274.727,309.766 273.823,309.464 273.521 C 308.408 272.465,292.493 252.283,289.339 248.000 C 288.286 246.570,287.320 245.310,287.193 245.200 C 287.066 245.090,286.523 244.370,285.986 243.600 C 285.450 242.830,284.788 241.930,284.514 241.600 C 283.725 240.647,277.648 232.359,274.800 228.352 C 273.370 226.340,271.655 223.953,270.989 223.047 C 270.323 222.141,267.793 218.520,265.368 215.000 C 262.942 211.480,260.646 208.150,260.266 207.600 C 259.886 207.050,259.203 206.015,258.748 205.300 C 257.705 203.660,257.512 203.685,254.600 205.853 M146.000 204.725 C 146.000 204.903,145.682 205.398,145.294 205.825 C 143.853 207.406,133.491 221.784,129.599 227.600 C 128.643 229.030,127.737 230.290,127.588 230.400 C 127.249 230.649,112.400 253.151,112.400 253.416 C 112.400 253.521,111.378 255.181,110.129 257.104 C 108.879 259.027,107.454 261.230,106.961 262.000 C 106.032 263.450,98.050 276.807,96.742 279.100 C 96.334 279.815,95.640 281.030,95.200 281.800 C 94.760 282.570,94.021 283.875,93.557 284.700 C 93.094 285.525,92.578 286.380,92.411 286.600 C 90.333 289.333,70.396 327.537,70.404 328.770 C 70.406 329.117,72.532 325.170,75.129 320.000 C 77.726 314.830,80.305 309.790,80.861 308.800 C 81.417 307.810,82.917 305.020,84.195 302.600 C 86.649 297.953,87.708 296.009,89.205 293.400 C 89.710 292.520,90.608 290.900,91.200 289.800 C 91.792 288.700,92.871 286.810,93.597 285.600 C 94.323 284.390,95.462 282.410,96.127 281.200 C 96.793 279.990,98.858 276.480,100.716 273.400 C 102.574 270.320,104.454 267.170,104.894 266.400 C 105.334 265.630,106.033 264.522,106.447 263.938 C 106.861 263.354,107.200 262.679,107.200 262.438 C 107.200 262.197,107.367 262.000,107.571 262.000 C 107.775 262.000,108.000 261.765,108.071 261.478 C 108.296 260.567,128.908 228.864,129.577 228.400 C 129.735 228.290,130.840 226.771,132.032 225.024 C 135.301 220.234,139.191 214.735,141.528 211.600 C 142.266 210.610,143.259 209.277,143.735 208.638 C 144.211 207.999,145.055 206.900,145.611 206.195 L 146.622 204.914 151.611 209.095 C 154.355 211.395,157.500 214.041,158.600 214.975 C 166.205 221.434,169.109 223.613,170.072 223.584 C 170.362 223.575,170.060 223.279,169.400 222.926 C 168.410 222.396,165.174 219.840,160.200 215.659 C 146.208 203.899,146.000 203.739,146.000 204.725 " stroke="none" fill="#c8d7d9" fill-rule="evenodd"></path><path id="path4" d="M213.800 206.169 C 208.517 207.657,202.422 213.659,200.336 219.426 C 199.688 221.218,199.501 221.171,197.924 218.819 C 189.282 205.925,178.019 203.814,172.752 214.100 C 171.685 216.184,172.077 215.974,173.557 213.668 C 179.601 204.248,189.815 206.914,198.193 220.100 C 199.268 221.792,199.825 221.458,201.593 218.061 C 204.115 213.212,207.859 209.185,211.178 207.748 C 211.960 207.410,212.913 206.968,213.295 206.766 C 214.234 206.271,220.290 206.299,220.600 206.800 C 220.736 207.020,221.197 207.200,221.624 207.200 C 222.051 207.200,222.400 207.380,222.400 207.600 C 222.400 207.820,222.647 208.000,222.949 208.000 C 223.719 208.000,226.561 211.176,227.430 213.007 C 227.829 213.847,228.223 214.332,228.305 214.085 C 228.534 213.399,226.506 210.176,225.031 208.881 C 221.912 206.143,217.596 205.100,213.800 206.169 M229.054 223.856 C 228.914 224.877,228.800 226.396,228.800 227.232 C 228.800 228.069,228.620 228.864,228.400 229.000 C 228.180 229.136,228.000 229.856,228.000 230.600 C 228.000 231.344,227.820 232.064,227.600 232.200 C 227.380 232.336,227.200 232.772,227.200 233.168 C 227.200 233.565,226.494 235.262,225.632 236.939 C 213.480 260.562,179.345 257.649,172.438 232.400 C 172.167 231.410,171.778 230.047,171.573 229.372 C 171.368 228.696,171.182 227.436,171.160 226.572 C 171.138 225.707,170.961 224.550,170.766 224.000 C 170.050 221.978,170.793 228.606,171.618 231.600 C 180.653 264.381,226.625 259.373,229.442 225.300 C 229.735 221.762,229.474 220.792,229.054 223.856 " stroke="none" fill="#f4c4c4" fill-rule="evenodd"></path></g></svg>