<svg id="svg" version="1.1" xmlns="http://www.w3.org/2000/svg" xmlns:xlink="http://www.w3.org/1999/xlink" width="400" height="400" viewBox="0, 0, 400,400"><g id="svgg"><path id="path0" d="M331.775 123.511 C 329.878 125.249,323.166 130.821,320.800 132.621 C 319.370 133.710,318.110 134.702,318.000 134.826 C 317.890 134.951,316.900 135.660,315.800 136.402 C 314.700 137.144,313.170 138.245,312.400 138.850 C 307.433 142.747,291.066 151.931,281.900 155.964 C 280.855 156.424,279.220 157.151,278.268 157.579 C 272.672 160.096,257.240 165.600,255.779 165.600 C 255.010 165.600,253.334 167.284,253.900 167.487 C 254.175 167.586,254.400 168.012,254.400 168.433 C 254.400 168.855,254.580 169.200,254.800 169.200 C 255.020 169.200,255.200 169.549,255.200 169.976 C 255.200 170.403,255.380 170.864,255.600 171.000 C 255.820 171.136,256.000 171.597,256.000 172.024 C 256.000 172.451,256.180 172.800,256.400 172.800 C 256.620 172.800,256.800 173.160,256.800 173.600 C 256.800 174.040,256.980 174.400,257.200 174.400 C 257.420 174.400,257.600 174.760,257.600 175.200 C 257.600 175.640,257.780 176.000,258.000 176.000 C 258.220 176.000,258.400 176.345,258.400 176.767 C 258.400 177.189,258.754 178.359,259.186 179.367 C 259.618 180.375,259.843 181.203,259.686 181.206 C 259.529 181.209,259.580 181.344,259.800 181.506 C 260.318 181.887,261.200 183.467,261.200 184.014 C 261.200 184.248,261.560 185.184,262.000 186.094 C 262.440 187.005,262.800 187.986,262.800 188.275 C 262.800 188.564,262.980 188.800,263.200 188.800 C 263.420 188.800,263.600 189.160,263.600 189.600 C 263.600 190.040,263.780 190.400,264.000 190.400 C 264.220 190.400,264.400 190.749,264.400 191.176 C 264.400 191.603,264.580 192.064,264.800 192.200 C 265.020 192.336,265.200 192.797,265.200 193.224 C 265.200 193.651,265.380 194.000,265.600 194.000 C 265.820 194.000,266.000 194.360,266.000 194.800 C 266.000 195.240,266.180 195.600,266.400 195.600 C 266.620 195.600,266.800 195.955,266.800 196.388 C 266.800 196.821,267.160 197.817,267.600 198.600 C 268.040 199.383,268.400 200.289,268.400 200.612 C 268.400 200.935,268.580 201.200,268.800 201.200 C 269.020 201.200,269.200 201.560,269.200 202.000 C 269.200 202.440,269.380 202.800,269.600 202.800 C 269.820 202.800,270.000 203.250,270.000 203.800 C 270.000 204.350,270.180 204.800,270.400 204.800 C 270.620 204.800,270.804 205.115,270.809 205.500 C 270.814 205.885,271.170 206.650,271.600 207.200 C 272.030 207.750,272.386 208.515,272.391 208.900 C 272.396 209.285,272.580 209.600,272.800 209.600 C 273.020 209.600,273.206 210.005,273.213 210.500 C 273.220 210.995,273.484 211.742,273.800 212.159 C 274.116 212.576,274.280 213.071,274.164 213.259 C 274.048 213.447,274.143 213.600,274.376 213.600 C 274.609 213.600,274.800 213.924,274.800 214.320 C 274.800 214.716,275.016 215.256,275.280 215.520 C 275.544 215.784,275.612 216.000,275.431 216.000 C 275.250 216.000,275.341 216.288,275.632 216.639 C 275.924 216.990,276.220 217.656,276.291 218.119 C 276.412 218.913,277.811 222.147,279.026 224.444 C 279.330 225.018,279.464 225.603,279.323 225.744 C 279.182 225.885,279.277 226.000,279.533 226.000 C 279.790 226.000,280.000 226.371,280.000 226.824 C 280.000 227.277,280.180 227.536,280.400 227.400 C 280.627 227.260,280.800 227.596,280.800 228.176 C 280.800 228.739,280.980 229.200,281.200 229.200 C 281.420 229.200,281.600 229.560,281.600 230.000 C 281.600 230.440,281.780 230.800,282.000 230.800 C 282.220 230.800,282.400 231.340,282.400 232.000 C 282.400 232.660,282.580 233.200,282.800 233.200 C 283.020 233.200,283.200 233.560,283.200 234.000 C 283.200 234.440,283.380 234.800,283.600 234.800 C 283.820 234.800,284.000 235.160,284.000 235.600 C 284.000 236.040,284.180 236.400,284.400 236.400 C 284.620 236.400,284.800 236.850,284.800 237.400 C 284.800 237.950,284.937 238.400,285.104 238.400 C 285.271 238.400,285.644 238.779,285.933 239.242 C 286.222 239.705,286.283 239.975,286.067 239.841 C 285.851 239.708,285.883 240.048,286.137 240.596 C 286.392 241.145,286.735 241.595,286.900 241.597 C 287.065 241.599,287.200 241.960,287.200 242.400 C 287.200 242.840,287.380 243.200,287.600 243.200 C 287.820 243.200,288.000 243.639,288.000 244.176 C 288.000 244.713,288.180 245.264,288.400 245.400 C 288.620 245.536,288.800 245.997,288.800 246.424 C 288.800 246.851,288.980 247.200,289.200 247.200 C 289.420 247.200,289.600 247.560,289.600 248.000 C 289.600 248.440,289.780 248.800,290.000 248.800 C 290.220 248.800,290.400 249.160,290.400 249.600 C 290.400 250.040,290.580 250.400,290.800 250.400 C 291.020 250.400,291.200 250.940,291.200 251.600 C 291.200 252.260,291.366 252.800,291.568 252.800 C 291.771 252.800,292.062 253.372,292.215 254.070 C 292.369 254.769,292.929 256.119,293.460 257.070 C 293.991 258.022,294.333 258.800,294.220 258.800 C 294.106 258.800,294.371 259.435,294.807 260.212 C 295.243 260.989,295.600 261.874,295.600 262.179 C 295.600 262.484,295.735 262.793,295.900 262.867 C 296.259 263.026,298.000 267.206,298.000 267.908 C 298.000 268.178,298.180 268.400,298.400 268.400 C 298.620 268.400,298.800 268.760,298.800 269.200 C 298.800 269.640,298.958 270.000,299.151 270.000 C 299.345 270.000,299.727 270.540,300.000 271.200 C 300.273 271.860,300.655 272.400,300.849 272.400 C 301.042 272.400,301.200 272.636,301.200 272.925 C 301.200 273.214,301.740 273.968,302.400 274.600 C 303.060 275.232,303.600 275.904,303.600 276.093 C 303.600 276.571,305.318 278.173,305.993 278.325 C 306.299 278.394,306.852 278.799,307.222 279.225 C 307.591 279.651,308.378 280.000,308.971 280.000 C 309.586 280.000,309.941 280.171,309.800 280.400 C 309.643 280.654,310.729 280.800,312.776 280.800 C 314.659 280.800,316.000 280.634,316.000 280.400 C 316.000 280.180,316.460 280.000,317.023 280.000 C 318.237 280.000,321.679 276.614,322.701 274.415 C 323.062 273.637,323.458 272.910,323.579 272.800 C 323.973 272.443,326.000 266.121,326.000 265.248 C 326.000 264.782,326.180 264.400,326.400 264.400 C 326.620 264.400,326.800 263.860,326.800 263.200 C 326.800 262.540,326.980 262.000,327.200 262.000 C 327.420 262.000,327.600 261.359,327.600 260.576 C 327.600 259.793,327.744 259.242,327.920 259.351 C 328.096 259.459,328.284 258.885,328.337 258.074 C 328.391 257.263,328.607 256.540,328.818 256.467 C 329.028 256.393,329.200 255.909,329.200 255.390 C 329.200 254.872,329.380 254.336,329.600 254.200 C 329.820 254.064,330.000 253.413,330.000 252.753 C 330.000 252.055,330.167 251.656,330.400 251.800 C 330.633 251.944,330.800 251.537,330.800 250.824 C 330.800 250.151,330.980 249.600,331.200 249.600 C 331.420 249.600,331.600 249.240,331.600 248.800 C 331.600 248.360,331.780 248.000,332.000 248.000 C 332.220 248.000,332.400 247.640,332.400 247.200 C 332.400 246.760,332.580 246.400,332.800 246.400 C 333.020 246.400,333.200 246.130,333.200 245.800 C 333.200 245.470,333.380 245.200,333.600 245.200 C 333.820 245.200,334.000 245.002,334.000 244.760 C 334.000 244.280,337.537 240.802,337.947 240.879 C 338.086 240.905,338.560 240.792,339.000 240.626 C 339.440 240.460,340.254 240.157,340.810 239.951 C 341.863 239.561,343.380 239.647,343.856 240.123 C 344.009 240.275,344.418 240.401,344.767 240.402 C 345.115 240.404,345.916 240.674,346.546 241.002 C 347.176 241.331,347.941 241.600,348.246 241.600 C 348.551 241.600,348.800 241.768,348.800 241.973 C 348.800 242.178,349.146 242.456,349.568 242.590 C 349.991 242.724,351.016 243.456,351.846 244.217 C 352.677 244.978,353.515 245.600,353.710 245.600 C 353.904 245.600,354.754 246.320,355.600 247.200 C 356.446 248.080,357.376 248.802,357.669 248.804 C 357.961 248.806,358.625 249.346,359.145 250.004 C 359.665 250.662,360.340 251.200,360.645 251.200 C 360.950 251.200,361.200 251.380,361.200 251.600 C 361.200 251.820,361.470 252.000,361.800 252.000 C 362.130 252.000,362.400 252.136,362.400 252.302 C 362.400 252.469,362.985 252.859,363.700 253.170 C 364.415 253.481,365.090 253.840,365.200 253.968 C 366.289 255.232,376.000 256.771,376.000 255.679 C 376.000 255.471,376.510 255.198,377.133 255.073 C 378.455 254.809,380.800 252.756,380.800 251.863 C 380.800 251.524,380.980 251.136,381.200 251.000 C 381.427 250.860,381.600 248.863,381.600 246.376 C 381.600 243.725,381.442 242.000,381.200 242.000 C 380.980 242.000,380.800 241.381,380.800 240.624 C 380.800 239.867,380.620 239.136,380.400 239.000 C 380.180 238.864,380.000 238.223,380.000 237.576 C 380.000 236.929,379.820 236.400,379.600 236.400 C 379.380 236.400,379.200 235.860,379.200 235.200 C 379.200 234.540,379.020 234.000,378.800 234.000 C 378.580 234.000,378.400 233.460,378.400 232.800 C 378.400 232.140,378.220 231.600,378.000 231.600 C 377.780 231.600,377.600 231.049,377.600 230.376 C 377.600 229.663,377.433 229.256,377.200 229.400 C 376.967 229.544,376.800 229.145,376.800 228.447 C 376.800 227.787,376.620 227.136,376.400 227.000 C 376.180 226.864,376.000 226.313,376.000 225.776 C 376.000 225.239,375.840 224.800,375.645 224.800 C 375.450 224.800,375.193 224.305,375.074 223.700 C 374.484 220.696,373.860 218.575,373.500 218.345 C 373.280 218.206,373.100 217.621,373.100 217.045 C 373.100 216.470,372.975 216.000,372.822 216.000 C 372.670 216.000,372.296 215.089,371.993 213.975 C 371.690 212.861,371.297 211.860,371.121 211.751 C 370.944 211.642,370.800 211.203,370.800 210.776 C 370.800 210.349,370.620 210.000,370.400 210.000 C 370.180 210.000,370.000 209.460,370.000 208.800 C 370.000 208.140,369.820 207.600,369.600 207.600 C 369.380 207.600,369.200 207.251,369.200 206.824 C 369.200 206.397,369.020 205.936,368.800 205.800 C 368.580 205.664,368.400 205.113,368.400 204.576 C 368.400 204.039,368.220 203.600,368.000 203.600 C 367.780 203.600,367.600 203.251,367.600 202.824 C 367.600 202.397,367.420 201.936,367.200 201.800 C 366.980 201.664,366.800 201.113,366.800 200.576 C 366.800 200.039,366.620 199.600,366.400 199.600 C 366.180 199.600,366.000 199.328,366.000 198.995 C 366.000 198.662,365.841 198.077,365.647 197.695 C 365.452 197.313,365.071 196.460,364.800 195.800 C 364.529 195.140,364.148 194.287,363.953 193.905 C 363.759 193.523,363.600 192.938,363.600 192.605 C 363.600 192.272,363.420 192.000,363.200 192.000 C 362.980 192.000,362.800 191.460,362.800 190.800 C 362.800 190.140,362.620 189.600,362.400 189.600 C 362.180 189.600,362.000 189.240,362.000 188.800 C 362.000 188.360,361.820 188.000,361.600 188.000 C 361.380 188.000,361.200 187.640,361.200 187.200 C 361.200 186.760,361.020 186.400,360.800 186.400 C 360.580 186.400,360.400 185.961,360.400 185.424 C 360.400 184.887,360.220 184.336,360.000 184.200 C 359.780 184.064,359.600 183.603,359.600 183.176 C 359.600 182.749,359.420 182.400,359.200 182.400 C 358.980 182.400,358.800 181.961,358.800 181.424 C 358.800 180.887,358.634 180.345,358.431 180.219 C 358.228 180.094,357.938 179.408,357.786 178.695 C 357.635 177.983,357.233 177.085,356.893 176.700 C 356.554 176.315,356.383 176.000,356.514 176.000 C 356.645 176.000,356.502 175.518,356.197 174.929 C 355.891 174.339,355.732 173.709,355.844 173.529 C 355.956 173.348,355.857 173.200,355.624 173.200 C 355.391 173.200,355.200 172.840,355.200 172.400 C 355.200 171.960,355.020 171.600,354.800 171.600 C 354.580 171.600,354.400 171.240,354.400 170.800 C 354.400 170.360,354.264 170.000,354.098 170.000 C 353.932 170.000,353.593 169.415,353.346 168.700 C 352.580 166.487,351.810 164.609,351.583 164.400 C 351.464 164.290,351.120 163.435,350.819 162.500 C 350.518 161.565,350.121 160.800,349.936 160.800 C 349.751 160.800,349.600 160.566,349.600 160.280 C 349.600 159.544,348.659 157.607,348.300 157.603 C 348.135 157.601,348.000 157.161,348.000 156.624 C 348.000 156.087,347.820 155.536,347.600 155.400 C 347.380 155.264,347.200 154.803,347.200 154.376 C 347.200 153.949,347.020 153.600,346.800 153.600 C 346.580 153.600,346.400 153.240,346.400 152.800 C 346.400 152.360,346.220 152.000,346.000 152.000 C 345.780 152.000,345.600 151.640,345.600 151.200 C 345.600 150.760,345.420 150.400,345.200 150.400 C 344.980 150.400,344.800 149.860,344.800 149.200 C 344.800 148.540,344.620 148.000,344.400 148.000 C 344.180 148.000,344.000 147.640,344.000 147.200 C 344.000 146.760,343.820 146.400,343.600 146.400 C 343.380 146.400,343.200 146.029,343.200 145.576 C 343.200 145.123,343.020 144.864,342.800 145.000 C 342.566 145.145,342.400 144.730,342.400 144.000 C 342.400 143.270,342.234 142.855,342.000 143.000 C 341.780 143.136,341.600 142.897,341.600 142.469 C 341.600 142.041,341.331 141.176,341.002 140.546 C 340.674 139.916,340.404 139.100,340.402 138.733 C 340.401 138.367,340.210 138.003,339.978 137.926 C 339.746 137.849,339.503 137.519,339.439 137.193 C 339.279 136.388,338.819 135.145,338.371 134.305 C 338.167 133.923,338.000 133.338,338.000 133.005 C 338.000 132.672,337.865 132.399,337.700 132.397 C 337.349 132.393,336.400 130.463,336.400 129.754 C 336.400 129.486,336.225 129.207,336.012 129.133 C 335.798 129.060,335.546 128.640,335.452 128.200 C 335.102 126.561,334.696 125.600,334.353 125.600 C 334.159 125.600,334.000 125.240,334.000 124.800 C 334.000 124.360,333.820 124.000,333.600 124.000 C 333.380 124.000,333.200 123.730,333.200 123.400 C 333.200 122.605,332.723 122.642,331.775 123.511 " stroke="none" fill="#fc9c84" fill-rule="evenodd"></path><path id="path1" d="M54.100 123.865 C 53.825 123.976,53.600 124.592,53.600 125.233 C 53.600 125.875,53.420 126.400,53.200 126.400 C 52.980 126.400,52.800 126.839,52.800 127.376 C 52.800 127.913,52.620 128.464,52.400 128.600 C 52.180 128.736,52.000 129.366,52.000 130.000 C 52.000 130.634,51.820 131.264,51.600 131.400 C 51.380 131.536,51.200 132.076,51.200 132.600 C 51.200 133.124,51.020 133.664,50.800 133.800 C 50.580 133.936,50.400 134.497,50.400 135.047 C 50.400 135.612,50.226 135.940,50.000 135.800 C 49.778 135.663,49.597 135.964,49.594 136.476 C 49.587 137.471,48.723 140.210,48.274 140.659 C 48.123 140.810,48.000 141.353,48.000 141.867 C 48.000 142.380,47.820 142.800,47.600 142.800 C 47.380 142.800,47.200 143.073,47.200 143.406 C 47.200 144.239,46.255 147.200,45.990 147.200 C 45.871 147.200,45.734 147.687,45.685 148.282 C 45.636 148.878,45.416 149.544,45.198 149.762 C 44.979 149.981,44.800 150.538,44.800 151.000 C 44.800 151.462,44.625 152.015,44.411 152.229 C 44.198 152.442,43.955 152.973,43.872 153.409 C 43.788 153.844,43.586 154.560,43.421 155.000 C 43.256 155.440,42.869 156.479,42.561 157.308 C 42.252 158.138,42.000 159.173,42.000 159.608 C 42.000 160.044,41.820 160.400,41.600 160.400 C 41.380 160.400,41.200 160.940,41.200 161.600 C 41.200 162.260,41.020 162.800,40.800 162.800 C 40.580 162.800,40.400 163.340,40.400 164.000 C 40.400 164.660,40.220 165.200,40.000 165.200 C 39.780 165.200,39.600 165.740,39.600 166.400 C 39.600 167.060,39.420 167.600,39.200 167.600 C 38.980 167.600,38.800 167.949,38.800 168.376 C 38.800 168.803,38.620 169.264,38.400 169.400 C 38.180 169.536,38.000 170.087,38.000 170.624 C 38.000 171.161,37.820 171.600,37.600 171.600 C 37.380 171.600,37.200 172.129,37.200 172.776 C 37.200 173.423,37.020 174.064,36.800 174.200 C 36.580 174.336,36.400 174.887,36.400 175.424 C 36.400 175.961,36.220 176.400,36.000 176.400 C 35.780 176.400,35.600 176.940,35.600 177.600 C 35.600 178.260,35.420 178.800,35.200 178.800 C 34.980 178.800,34.800 179.340,34.800 180.000 C 34.800 180.660,34.620 181.200,34.400 181.200 C 34.180 181.200,34.000 181.639,34.000 182.176 C 34.000 182.713,33.820 183.264,33.600 183.400 C 33.380 183.536,33.200 184.087,33.200 184.624 C 33.200 185.161,33.020 185.600,32.800 185.600 C 32.580 185.600,32.400 186.140,32.400 186.800 C 32.400 187.460,32.220 188.000,32.000 188.000 C 31.780 188.000,31.600 188.540,31.600 189.200 C 31.600 189.860,31.420 190.400,31.200 190.400 C 30.980 190.400,30.800 190.929,30.800 191.576 C 30.800 192.223,30.620 192.864,30.400 193.000 C 30.180 193.136,30.000 193.676,30.000 194.200 C 30.000 194.724,29.820 195.264,29.600 195.400 C 29.380 195.536,29.200 196.087,29.200 196.624 C 29.200 197.161,29.059 197.600,28.887 197.600 C 28.715 197.600,28.534 198.087,28.485 198.682 C 28.436 199.278,28.216 199.944,27.998 200.162 C 27.779 200.381,27.600 201.064,27.600 201.680 C 27.600 202.296,27.420 202.800,27.200 202.800 C 26.980 202.800,26.800 203.329,26.800 203.976 C 26.800 204.623,26.644 205.249,26.453 205.368 C 26.097 205.587,25.458 208.442,25.482 209.700 C 25.490 210.085,25.339 210.400,25.148 210.400 C 24.957 210.400,24.800 211.030,24.800 211.800 C 24.800 212.570,24.620 213.200,24.400 213.200 C 24.180 213.200,24.000 213.830,24.000 214.600 C 24.000 215.370,23.820 216.000,23.600 216.000 C 23.380 216.000,23.200 216.529,23.200 217.176 C 23.200 217.823,23.020 218.464,22.800 218.600 C 22.580 218.736,22.400 219.456,22.400 220.200 C 22.400 220.944,22.220 221.664,22.000 221.800 C 21.780 221.936,21.600 222.667,21.600 223.424 C 21.600 224.181,21.420 224.800,21.200 224.800 C 20.980 224.800,20.800 225.509,20.800 226.376 C 20.800 227.243,20.620 228.064,20.400 228.200 C 20.180 228.336,20.000 229.157,20.000 230.024 C 20.000 230.891,19.820 231.600,19.600 231.600 C 19.380 231.600,19.200 232.489,19.200 233.576 C 19.200 234.663,19.020 235.664,18.800 235.800 C 18.262 236.132,18.262 249.868,18.800 250.200 C 19.020 250.336,19.200 250.797,19.200 251.224 C 19.200 251.651,19.380 252.000,19.600 252.000 C 19.820 252.000,20.000 252.283,20.000 252.629 C 20.000 254.774,27.507 257.368,28.600 255.600 C 28.736 255.380,29.272 255.200,29.790 255.200 C 30.309 255.200,30.793 255.022,30.867 254.803 C 30.940 254.585,31.495 254.366,32.100 254.316 C 32.705 254.266,33.200 254.085,33.200 253.913 C 33.200 253.741,33.470 253.600,33.800 253.600 C 34.130 253.600,34.400 253.420,34.400 253.200 C 34.400 252.980,34.670 252.800,35.000 252.800 C 35.330 252.800,35.603 252.665,35.606 252.500 C 35.610 252.335,36.501 251.764,37.587 251.231 C 38.673 250.698,39.486 250.140,39.395 249.991 C 39.303 249.842,39.716 249.468,40.314 249.160 C 40.911 248.852,42.243 247.745,43.274 246.700 C 44.305 245.655,45.318 244.800,45.526 244.800 C 45.734 244.800,46.645 244.080,47.552 243.200 C 48.459 242.320,49.431 241.600,49.711 241.600 C 49.992 241.600,50.638 241.309,51.146 240.953 C 53.444 239.343,59.200 238.091,59.200 239.200 C 59.200 239.420,59.339 239.555,59.508 239.500 C 60.064 239.319,63.183 240.903,62.965 241.256 C 62.849 241.445,63.039 241.600,63.389 241.600 C 63.739 241.600,64.146 241.915,64.293 242.299 C 64.441 242.683,64.961 243.398,65.450 243.886 C 65.938 244.375,66.454 245.140,66.596 245.587 C 66.738 246.034,67.022 246.400,67.227 246.400 C 67.432 246.400,67.600 246.760,67.600 247.200 C 67.600 247.640,67.780 248.000,68.000 248.000 C 68.220 248.000,68.400 248.439,68.400 248.976 C 68.400 249.513,68.580 250.064,68.800 250.200 C 69.020 250.336,69.200 250.797,69.200 251.224 C 69.200 251.651,69.380 252.000,69.600 252.000 C 69.820 252.000,70.000 252.540,70.000 253.200 C 70.000 253.860,70.180 254.400,70.400 254.400 C 70.620 254.400,70.800 255.030,70.800 255.800 C 70.800 256.570,70.980 257.200,71.200 257.200 C 71.420 257.200,71.600 257.920,71.600 258.800 C 71.600 259.680,71.780 260.400,72.000 260.400 C 72.220 260.400,72.400 261.120,72.400 262.000 C 72.400 262.880,72.580 263.600,72.800 263.600 C 73.020 263.600,73.200 264.219,73.200 264.976 C 73.200 265.733,73.380 266.464,73.600 266.600 C 73.820 266.736,74.000 267.377,74.000 268.024 C 74.000 268.671,74.180 269.200,74.400 269.200 C 74.620 269.200,74.800 269.524,74.800 269.920 C 74.800 270.316,75.016 270.856,75.280 271.120 C 75.544 271.384,75.622 271.600,75.453 271.600 C 75.284 271.600,75.512 272.115,75.961 272.745 C 76.409 273.375,76.695 273.971,76.596 274.070 C 76.497 274.169,77.028 274.899,77.775 275.691 C 78.523 276.484,79.029 277.238,78.901 277.366 C 78.772 277.495,78.977 277.600,79.357 277.600 C 79.737 277.600,79.936 277.780,79.800 278.000 C 79.664 278.220,79.833 278.400,80.176 278.400 C 80.519 278.400,80.800 278.580,80.800 278.800 C 80.800 279.020,81.070 279.200,81.400 279.200 C 81.730 279.200,82.000 279.380,82.000 279.600 C 82.000 279.820,82.439 280.000,82.976 280.000 C 83.513 280.000,84.064 280.180,84.200 280.400 C 84.521 280.920,89.892 280.923,90.067 280.403 C 90.140 280.185,90.682 279.967,91.271 279.919 C 91.860 279.870,92.255 279.688,92.148 279.515 C 92.040 279.342,92.141 279.200,92.372 279.200 C 93.068 279.200,94.697 277.765,97.774 274.441 C 98.338 273.832,98.800 273.123,98.800 272.867 C 98.800 272.610,98.980 272.400,99.200 272.400 C 99.420 272.400,99.600 272.029,99.600 271.576 C 99.600 271.123,99.780 270.864,100.000 271.000 C 100.220 271.136,100.404 270.922,100.409 270.524 C 100.414 270.126,100.770 269.350,101.200 268.800 C 101.630 268.250,101.986 267.395,101.991 266.900 C 101.996 266.405,102.180 266.000,102.400 266.000 C 102.620 266.000,102.800 265.550,102.800 265.000 C 102.800 264.450,102.980 264.000,103.200 264.000 C 103.420 264.000,103.600 263.550,103.600 263.000 C 103.600 262.450,103.741 262.000,103.913 262.000 C 104.085 262.000,104.266 261.513,104.315 260.918 C 104.364 260.322,104.584 259.656,104.802 259.438 C 105.021 259.219,105.200 258.662,105.200 258.200 C 105.200 257.738,105.349 257.189,105.530 256.980 C 105.712 256.771,106.104 255.790,106.401 254.800 C 106.698 253.810,107.040 252.820,107.160 252.600 C 107.280 252.380,107.398 252.020,107.422 251.800 C 107.562 250.517,108.150 248.800,108.450 248.800 C 108.642 248.800,108.800 248.260,108.800 247.600 C 108.800 246.940,108.980 246.400,109.200 246.400 C 109.420 246.400,109.600 245.860,109.600 245.200 C 109.600 244.540,109.780 244.000,110.000 244.000 C 110.220 244.000,110.400 243.460,110.400 242.800 C 110.400 242.140,110.580 241.600,110.800 241.600 C 111.020 241.600,111.200 241.251,111.200 240.824 C 111.200 240.397,111.380 239.936,111.600 239.800 C 111.820 239.664,112.000 239.113,112.000 238.576 C 112.000 238.039,112.180 237.600,112.400 237.600 C 112.620 237.600,112.800 237.150,112.800 236.600 C 112.800 236.050,112.980 235.600,113.200 235.600 C 113.420 235.600,113.600 235.240,113.600 234.800 C 113.600 234.360,113.780 234.000,114.000 234.000 C 114.220 234.000,114.400 233.471,114.400 232.824 C 114.400 232.177,114.580 231.536,114.800 231.400 C 115.020 231.264,115.200 230.713,115.200 230.176 C 115.200 229.639,115.380 229.200,115.600 229.200 C 115.820 229.200,116.000 228.851,116.000 228.424 C 116.000 227.997,116.180 227.536,116.400 227.400 C 116.620 227.264,116.800 226.713,116.800 226.176 C 116.800 225.639,116.980 225.200,117.200 225.200 C 117.420 225.200,117.600 224.838,117.600 224.395 C 117.600 223.952,117.759 223.277,117.953 222.895 C 118.148 222.513,118.529 221.660,118.800 221.000 C 119.071 220.340,119.452 219.487,119.647 219.105 C 119.841 218.723,120.000 218.174,120.000 217.885 C 120.000 217.145,120.939 215.207,121.300 215.203 C 121.465 215.201,121.600 214.748,121.600 214.195 C 121.600 213.642,121.759 212.877,121.953 212.495 C 122.735 210.958,123.664 208.496,123.872 207.409 C 123.955 206.973,124.184 206.456,124.380 206.260 C 124.577 206.063,124.649 205.673,124.541 205.392 C 124.434 205.111,124.538 204.762,124.773 204.617 C 125.008 204.472,125.200 204.003,125.200 203.576 C 125.200 203.149,125.380 202.800,125.600 202.800 C 125.820 202.800,126.000 202.260,126.000 201.600 C 126.000 200.940,126.180 200.400,126.400 200.400 C 126.620 200.400,126.800 200.051,126.800 199.624 C 126.800 199.197,126.980 198.736,127.200 198.600 C 127.420 198.464,127.600 197.913,127.600 197.376 C 127.600 196.839,127.780 196.400,128.000 196.400 C 128.220 196.400,128.400 195.860,128.400 195.200 C 128.400 194.540,128.580 194.000,128.800 194.000 C 129.020 194.000,129.200 193.651,129.200 193.224 C 129.200 192.797,129.380 192.336,129.600 192.200 C 129.820 192.064,130.000 191.513,130.000 190.976 C 130.000 190.439,130.180 190.000,130.400 190.000 C 130.620 190.000,130.800 189.539,130.800 188.976 C 130.800 188.396,130.973 188.060,131.200 188.200 C 131.434 188.345,131.600 187.930,131.600 187.200 C 131.600 186.514,131.742 186.040,131.915 186.148 C 132.088 186.255,132.270 185.868,132.317 185.289 C 132.365 184.709,132.584 184.056,132.802 183.838 C 133.021 183.619,133.200 183.026,133.200 182.520 C 133.200 182.014,133.380 181.600,133.600 181.600 C 133.820 181.600,134.000 181.161,134.000 180.624 C 134.000 180.087,134.144 179.558,134.321 179.449 C 134.497 179.340,134.890 178.339,135.193 177.225 C 135.496 176.111,135.892 175.200,136.072 175.200 C 136.253 175.200,136.400 174.671,136.400 174.024 C 136.400 173.377,136.580 172.736,136.800 172.600 C 137.020 172.464,137.200 172.003,137.200 171.576 C 137.200 171.149,137.380 170.800,137.600 170.800 C 138.062 170.800,138.129 169.206,137.694 168.570 C 137.532 168.334,136.500 167.912,135.400 167.632 C 134.300 167.352,132.950 166.979,132.400 166.803 C 131.850 166.627,130.050 166.092,128.400 165.614 C 124.945 164.614,125.230 164.710,117.600 161.972 C 96.420 154.373,75.392 141.972,60.600 128.359 C 55.274 123.458,55.213 123.416,54.100 123.865 M329.178 125.500 L 327.800 127.000 329.396 125.600 C 330.273 124.830,331.068 124.155,331.162 124.100 C 331.256 124.045,331.159 124.000,330.945 124.000 C 330.732 124.000,329.937 124.675,329.178 125.500 M323.200 130.454 L 321.400 132.085 323.094 130.813 C 324.568 129.707,325.514 128.774,325.124 128.812 C 325.056 128.819,324.190 129.558,323.200 130.454 M311.331 139.165 C 307.834 141.694,307.378 142.047,308.000 141.749 C 309.093 141.224,313.146 138.411,313.399 138.002 C 313.751 137.433,313.640 137.495,311.331 139.165 M302.500 144.846 C 301.137 145.719,300.695 146.306,301.900 145.643 C 302.818 145.139,304.256 144.027,304.000 144.019 C 303.890 144.016,303.215 144.388,302.500 144.846 " stroke="none" fill="#fbcc84" fill-rule="evenodd"></path><path id="path2" d="M345.298 96.053 C 345.134 96.213,344.730 96.401,344.400 96.471 C 343.752 96.610,342.400 97.931,342.400 98.425 C 342.400 98.592,341.410 99.758,340.200 101.018 C 338.990 102.277,338.000 103.463,338.000 103.654 C 338.000 104.057,323.601 118.400,323.196 118.400 C 323.047 118.400,321.818 119.480,320.465 120.800 C 319.112 122.120,317.824 123.200,317.603 123.200 C 317.382 123.200,316.437 123.920,315.503 124.800 C 314.569 125.680,313.613 126.400,313.378 126.400 C 313.144 126.400,312.378 126.961,311.676 127.647 C 310.974 128.334,310.400 128.777,310.400 128.632 C 310.400 128.487,310.006 128.736,309.525 129.184 C 309.043 129.633,308.402 130.000,308.101 130.000 C 307.799 130.000,307.664 130.180,307.800 130.400 C 307.936 130.620,307.767 130.800,307.424 130.800 C 307.081 130.800,306.800 130.980,306.800 131.200 C 306.800 131.420,306.564 131.600,306.275 131.600 C 305.987 131.600,305.402 131.915,304.975 132.300 C 304.549 132.685,303.705 133.255,303.100 133.568 C 302.495 133.880,302.000 134.285,302.000 134.468 C 302.000 134.650,301.680 134.800,301.288 134.800 C 300.897 134.800,300.317 135.160,300.000 135.600 C 299.683 136.040,299.103 136.400,298.712 136.400 C 298.320 136.400,298.000 136.580,298.000 136.800 C 298.000 137.020,297.764 137.200,297.475 137.200 C 297.187 137.200,296.564 137.560,296.092 138.000 C 295.620 138.440,294.956 138.800,294.617 138.800 C 294.278 138.800,294.000 138.980,294.000 139.200 C 294.000 139.420,293.730 139.600,293.400 139.600 C 293.070 139.600,292.800 139.780,292.800 140.000 C 292.800 140.220,292.440 140.400,292.000 140.400 C 291.560 140.400,291.200 140.559,291.200 140.754 C 291.200 141.076,288.572 142.548,287.933 142.585 C 287.787 142.593,287.532 142.735,287.367 142.900 C 287.202 143.065,286.752 143.200,286.367 143.200 C 285.982 143.200,285.607 143.366,285.533 143.570 C 285.460 143.773,285.134 143.998,284.810 144.070 C 284.485 144.141,283.975 144.427,283.677 144.704 C 283.379 144.981,282.970 145.105,282.768 144.980 C 282.565 144.855,282.400 144.943,282.400 145.176 C 282.400 145.409,282.040 145.600,281.600 145.600 C 281.160 145.600,280.800 145.736,280.800 145.902 C 280.800 146.069,280.215 146.442,279.500 146.733 C 278.785 147.023,277.508 147.607,276.662 148.030 C 275.816 148.454,274.871 148.800,274.562 148.800 C 274.253 148.800,274.000 148.980,274.000 149.200 C 274.000 149.420,273.645 149.600,273.212 149.600 C 272.779 149.600,271.783 149.960,271.000 150.400 C 270.217 150.840,269.232 151.200,268.811 151.200 C 268.391 151.200,267.936 151.380,267.800 151.600 C 267.664 151.820,267.203 152.000,266.776 152.000 C 266.349 152.000,266.000 152.180,266.000 152.400 C 266.000 152.620,265.460 152.800,264.800 152.800 C 264.140 152.800,263.600 152.980,263.600 153.200 C 263.600 153.420,263.161 153.600,262.624 153.600 C 262.087 153.600,261.536 153.780,261.400 154.000 C 261.264 154.220,260.728 154.400,260.210 154.400 C 259.691 154.400,259.207 154.578,259.133 154.797 C 259.060 155.015,258.518 155.233,257.929 155.281 C 257.340 155.330,256.945 155.512,257.052 155.685 C 257.160 155.858,256.607 156.000,255.824 156.000 C 255.041 156.000,254.400 156.180,254.400 156.400 C 254.400 156.620,253.860 156.800,253.200 156.800 C 252.540 156.800,252.000 156.980,252.000 157.200 C 252.000 157.420,251.280 157.600,250.400 157.600 C 249.520 157.600,248.800 157.780,248.800 158.000 C 248.800 158.220,248.290 158.400,247.667 158.400 C 247.043 158.400,246.414 158.519,246.269 158.664 C 246.124 158.810,245.509 158.984,244.902 159.052 C 241.995 159.377,240.375 159.716,240.174 160.042 C 240.052 160.239,239.254 160.400,238.400 160.400 C 237.546 160.400,236.736 160.580,236.600 160.800 C 236.464 161.020,235.564 161.200,234.600 161.200 C 233.636 161.200,232.736 161.380,232.600 161.600 C 232.464 161.820,231.564 162.000,230.600 162.000 C 229.636 162.000,228.736 162.180,228.600 162.400 C 228.464 162.620,227.294 162.800,226.000 162.800 C 224.706 162.800,223.536 162.980,223.400 163.200 C 223.264 163.420,221.903 163.600,220.376 163.600 C 218.792 163.600,217.600 163.772,217.600 164.000 C 217.600 164.231,216.325 164.400,214.574 164.400 C 212.909 164.400,211.226 164.572,210.833 164.783 C 210.440 164.993,206.760 165.193,202.655 165.227 C 198.550 165.261,195.093 165.449,194.972 165.645 C 194.687 166.107,187.600 166.110,187.600 165.648 C 187.600 165.454,184.405 165.265,180.500 165.228 C 176.595 165.190,173.229 164.989,173.020 164.780 C 172.811 164.571,171.182 164.400,169.400 164.400 C 167.618 164.400,165.989 164.238,165.780 164.041 C 165.571 163.843,164.140 163.572,162.600 163.438 C 157.082 162.960,155.394 162.721,155.020 162.363 C 154.811 162.163,153.776 162.000,152.720 162.000 C 151.664 162.000,150.800 161.820,150.800 161.600 C 150.800 161.380,150.001 161.200,149.024 161.200 C 148.047 161.200,147.148 161.039,147.026 160.842 C 146.905 160.645,146.129 160.382,145.303 160.258 C 144.476 160.133,143.080 159.921,142.200 159.788 C 141.320 159.655,140.330 159.440,140.000 159.312 C 139.036 158.938,138.308 158.775,136.500 158.528 C 135.565 158.400,134.800 158.139,134.800 157.948 C 134.800 157.757,134.271 157.600,133.624 157.600 C 132.977 157.600,132.336 157.420,132.200 157.200 C 132.064 156.980,131.333 156.800,130.576 156.800 C 129.819 156.800,129.200 156.620,129.200 156.400 C 129.200 156.180,128.660 156.000,128.000 156.000 C 127.340 156.000,126.800 155.820,126.800 155.600 C 126.800 155.380,126.260 155.200,125.600 155.200 C 124.940 155.200,124.400 155.020,124.400 154.800 C 124.400 154.580,123.950 154.400,123.400 154.400 C 122.850 154.400,122.400 154.220,122.400 154.000 C 122.400 153.780,121.950 153.600,121.400 153.600 C 120.850 153.600,120.400 153.420,120.400 153.200 C 120.400 152.980,119.849 152.800,119.176 152.800 C 118.463 152.800,118.056 152.633,118.200 152.400 C 118.344 152.167,117.937 152.000,117.224 152.000 C 116.551 152.000,116.000 151.820,116.000 151.600 C 116.000 151.380,115.539 151.200,114.976 151.200 C 114.396 151.200,114.060 151.027,114.200 150.800 C 114.336 150.580,114.074 150.400,113.618 150.400 C 113.162 150.400,112.477 150.232,112.095 150.026 C 111.713 149.821,110.815 149.417,110.100 149.129 C 109.385 148.840,108.800 148.469,108.800 148.302 C 108.800 148.136,108.440 148.000,108.000 148.000 C 107.560 148.000,107.200 147.820,107.200 147.600 C 107.200 147.380,106.851 147.200,106.424 147.200 C 105.997 147.200,105.536 147.020,105.400 146.800 C 105.264 146.580,104.803 146.400,104.376 146.400 C 103.949 146.400,103.600 146.220,103.600 146.000 C 103.600 145.780,103.366 145.600,103.080 145.600 C 102.344 145.600,100.407 144.659,100.403 144.300 C 100.401 144.135,100.040 144.000,99.600 144.000 C 99.160 144.000,98.800 143.809,98.800 143.576 C 98.800 143.343,98.620 143.264,98.400 143.400 C 98.180 143.536,98.000 143.464,98.000 143.240 C 98.000 143.016,97.280 142.616,96.400 142.353 C 95.520 142.089,94.800 141.722,94.800 141.537 C 94.800 141.352,94.480 141.200,94.088 141.200 C 93.697 141.200,93.117 140.840,92.800 140.400 C 92.483 139.960,91.903 139.600,91.512 139.600 C 91.120 139.600,90.800 139.420,90.800 139.200 C 90.800 138.980,90.530 138.800,90.200 138.800 C 89.870 138.800,89.600 138.620,89.600 138.400 C 89.600 138.180,89.330 138.000,89.000 138.000 C 88.670 138.000,88.400 137.820,88.400 137.600 C 88.400 137.380,88.130 137.200,87.800 137.200 C 87.470 137.200,87.200 137.020,87.200 136.800 C 87.200 136.580,86.922 136.400,86.583 136.400 C 86.244 136.400,85.580 136.040,85.108 135.600 C 84.636 135.160,84.013 134.800,83.725 134.800 C 83.436 134.800,83.200 134.659,83.200 134.486 C 83.200 134.314,82.705 133.879,82.100 133.521 C 81.495 133.163,80.460 132.404,79.800 131.835 C 79.140 131.266,78.415 130.801,78.188 130.800 C 77.962 130.800,77.517 130.440,77.200 130.000 C 76.883 129.560,76.484 129.200,76.315 129.200 C 76.044 129.200,74.814 128.251,73.447 126.987 C 73.201 126.760,72.370 126.132,71.600 125.592 C 70.830 125.052,68.951 123.393,67.424 121.905 C 65.898 120.417,64.500 119.200,64.318 119.200 C 63.846 119.200,58.000 113.293,58.000 112.816 C 58.000 112.597,57.550 112.124,57.000 111.763 C 56.450 111.403,56.000 110.961,56.000 110.781 C 56.000 110.601,55.100 109.529,54.000 108.400 C 52.900 107.271,52.000 106.180,52.000 105.977 C 52.000 105.773,51.494 105.110,50.876 104.503 C 50.258 103.897,49.316 102.770,48.783 102.000 C 46.337 98.468,42.511 96.603,41.400 98.400 C 41.264 98.620,40.834 98.800,40.444 98.800 C 37.777 98.800,38.088 105.171,40.900 108.152 C 41.505 108.794,42.000 109.518,42.000 109.761 C 42.000 110.005,42.720 110.969,43.600 111.903 C 44.480 112.837,45.200 113.751,45.200 113.934 C 45.200 114.508,54.193 123.600,54.761 123.600 C 55.289 123.600,56.508 124.594,60.600 128.359 C 75.392 141.972,96.420 154.373,117.600 161.972 C 125.230 164.710,124.945 164.614,128.400 165.614 C 130.050 166.092,131.850 166.627,132.400 166.803 C 132.950 166.979,134.300 167.352,135.400 167.631 C 136.500 167.910,137.544 168.378,137.720 168.669 C 137.896 168.961,138.491 169.200,139.043 169.200 C 139.611 169.200,139.940 169.374,139.800 169.600 C 139.651 169.841,140.188 170.000,141.153 170.000 C 142.033 170.000,142.870 170.189,143.013 170.421 C 143.166 170.669,144.450 170.799,146.137 170.738 C 147.711 170.680,150.170 170.859,151.600 171.136 C 177.969 176.234,209.932 175.843,237.200 170.089 C 239.950 169.508,243.325 169.045,244.700 169.058 C 246.075 169.071,247.200 168.929,247.200 168.741 C 247.200 168.553,247.920 168.400,248.800 168.400 C 249.680 168.400,250.400 168.220,250.400 168.000 C 250.400 167.780,250.914 167.600,251.542 167.600 C 252.175 167.600,253.121 167.195,253.666 166.689 C 254.207 166.188,255.448 165.532,256.425 165.232 C 284.506 156.600,309.034 143.134,329.600 125.058 C 331.284 123.577,332.453 122.836,332.917 122.953 C 333.338 123.059,333.832 122.817,334.113 122.367 C 334.377 121.945,334.739 121.600,334.918 121.600 C 335.497 121.600,344.800 111.726,344.800 111.112 C 344.800 110.931,345.785 109.752,346.989 108.491 C 350.909 104.388,351.200 104.039,351.200 103.439 C 351.200 103.114,351.380 102.736,351.600 102.600 C 351.820 102.464,352.000 101.553,352.000 100.576 C 352.000 99.599,351.820 98.800,351.600 98.800 C 351.380 98.800,351.200 98.440,351.200 98.000 C 351.200 97.542,350.933 97.200,350.576 97.200 C 350.233 97.200,350.064 97.020,350.200 96.800 C 350.336 96.580,350.087 96.400,349.647 96.400 C 349.207 96.400,348.733 96.215,348.594 95.989 C 348.316 95.540,345.776 95.589,345.298 96.053 " stroke="none" fill="#e3ebeb" fill-rule="evenodd"></path><path id="path3" d="M242.353 168.980 C 242.130 169.204,233.516 170.927,228.400 171.771 C 203.582 175.869,175.763 175.646,151.600 171.155 C 150.170 170.890,148.460 170.656,147.800 170.636 L 146.600 170.600 146.535 187.498 C 146.499 197.048,146.626 204.492,146.828 204.617 C 147.033 204.744,147.189 221.166,147.196 243.203 C 147.203 267.535,147.353 281.949,147.604 282.610 C 147.822 283.183,148.000 284.810,148.000 286.226 C 148.000 287.675,148.175 288.800,148.400 288.800 C 148.620 288.800,148.800 289.256,148.800 289.814 C 148.800 290.372,149.091 291.272,149.446 291.814 C 149.801 292.356,149.977 292.800,149.837 292.800 C 149.697 292.800,150.573 293.790,151.783 295.000 C 152.993 296.210,154.257 297.200,154.591 297.200 C 154.926 297.200,155.200 297.380,155.200 297.600 C 155.200 297.841,156.867 298.000,159.400 298.000 C 161.933 298.000,163.600 297.841,163.600 297.600 C 163.600 297.380,164.140 297.200,164.800 297.200 C 165.460 297.200,166.000 297.020,166.000 296.800 C 166.000 296.580,166.320 296.400,166.712 296.400 C 167.103 296.400,167.683 296.040,168.000 295.600 C 168.317 295.160,168.780 294.800,169.029 294.800 C 169.278 294.800,170.046 294.260,170.737 293.600 C 171.428 292.940,172.185 292.400,172.420 292.400 C 172.655 292.400,172.736 292.220,172.600 292.000 C 172.464 291.780,172.633 291.600,172.976 291.600 C 173.319 291.600,173.600 291.452,173.600 291.270 C 173.600 291.089,174.815 289.685,176.300 288.150 C 177.785 286.616,179.504 284.694,180.120 283.880 C 180.737 283.066,181.410 282.400,181.617 282.400 C 182.077 282.400,184.400 280.014,184.400 279.541 C 184.400 279.353,184.598 279.200,184.840 279.200 C 185.081 279.200,185.783 278.660,186.400 278.000 C 187.017 277.340,187.685 276.800,187.885 276.800 C 188.085 276.800,188.598 276.479,189.025 276.087 C 191.085 274.192,195.858 273.318,198.500 274.350 C 199.105 274.587,199.600 274.659,199.600 274.510 C 199.600 274.362,199.816 274.456,200.080 274.720 C 200.344 274.984,200.812 275.200,201.120 275.200 C 201.427 275.200,202.183 275.740,202.800 276.400 C 203.417 277.060,204.130 277.600,204.386 277.600 C 204.900 277.600,208.800 281.463,208.800 281.972 C 208.800 282.148,209.337 282.901,209.994 283.646 C 210.650 284.391,211.190 285.225,211.194 285.500 C 211.197 285.775,211.380 286.000,211.600 286.000 C 211.820 286.000,212.000 286.230,212.000 286.512 C 212.000 286.793,212.360 287.283,212.800 287.600 C 213.240 287.917,213.600 288.316,213.600 288.486 C 213.600 288.657,214.500 289.715,215.600 290.839 C 216.700 291.962,217.600 293.102,217.600 293.373 C 217.600 293.643,218.095 294.120,218.700 294.432 C 219.305 294.745,220.434 295.630,221.209 296.400 C 221.984 297.170,222.884 297.859,223.209 297.930 C 223.534 298.002,223.860 298.227,223.933 298.430 C 224.007 298.634,224.592 298.800,225.233 298.800 C 225.875 298.800,226.400 298.980,226.400 299.200 C 226.400 299.442,228.133 299.600,230.800 299.600 C 233.467 299.600,235.200 299.442,235.200 299.200 C 235.200 298.980,235.515 298.796,235.900 298.791 C 237.244 298.773,241.291 294.378,240.922 293.337 C 240.832 293.082,240.947 292.756,241.179 292.613 C 241.410 292.470,241.600 291.384,241.600 290.200 C 241.600 289.016,241.780 287.936,242.000 287.800 C 242.252 287.644,242.400 283.129,242.400 275.576 C 242.400 267.859,242.542 263.600,242.800 263.600 C 243.060 263.600,243.200 258.067,243.200 247.800 C 243.200 237.533,243.340 232.000,243.600 232.000 C 243.860 232.000,244.000 226.400,244.000 216.000 C 244.000 205.600,244.140 200.000,244.400 200.000 C 244.659 200.000,244.800 195.022,244.800 185.867 C 244.800 178.093,244.925 171.609,245.077 171.456 C 245.598 170.936,245.618 169.458,245.108 169.135 C 244.564 168.789,242.651 168.682,242.353 168.980 " stroke="none" fill="#9cbcdc" fill-rule="evenodd"></path></g></svg>