<?xml version="1.0" encoding="UTF-8"?>
<svg version="1.1" xmlns="http://www.w3.org/2000/svg" width="512" height="512">
<path d="M0 0 C1.23105469 0.42152344 2.46210938 0.84304687 3.73046875 1.27734375 C39.16815801 13.75781488 87.71943241 37.54939595 106.9375 71.875 C109.2889667 77.00119741 110.19788515 81.4359103 109 87 C106.19273664 93.84930046 101.51453511 98.81564659 96.21875 103.85546875 C94.20261631 105.80416135 92.37663941 107.80246329 90.5625 109.9375 C87.12563389 113.94850616 83.40799257 117.62905986 79.625 121.3125 C77.64505633 123.33958518 75.81077193 125.3683217 73.97631836 127.51928711 C69.46022986 132.69715477 64.61570659 137.52776723 59.75390625 142.37890625 C58.77401947 143.35946881 57.79428099 144.34017959 56.81468201 145.32102966 C54.7731736 147.36400213 52.72989434 149.40518169 50.68530273 151.44506836 C48.08547596 154.03919866 45.49016627 156.63779434 42.89618015 159.2377634 C40.87750604 161.26007825 38.85642267 163.2799719 36.8346386 165.29917717 C35.41767676 166.71516246 34.00270183 168.13313515 32.58778381 169.55116272 C28.07688479 174.04586201 23.51991537 178.41806118 18.67999268 182.55812073 C16.11501011 184.75955603 13.66084843 187.07115377 11.1875 189.375 C6.59575319 193.61186417 1.89045886 197.65405883 -2.98046875 201.5703125 C-5.2066716 203.36164261 -7.41488116 205.16738303 -9.61328125 206.9921875 C-19.43282682 215.11326375 -29.56065582 222.69504307 -40 230 C-41.03125 230.73605469 -42.0625 231.47210938 -43.125 232.23046875 C-51.93369194 238.23523113 -63.1455994 243.03410415 -74 241 C-79.79973029 238.95204893 -84.81026475 236.44913105 -88 231 C-93.13002976 218.06176318 -89.75474917 203.19487303 -87.40625 189.9609375 C-87.207966 188.82504464 -87.207966 188.82504464 -87.00567627 187.66620445 C-84.13808088 171.2409635 -80.86803945 154.90328128 -77.47144699 138.58038712 C-76.98991458 136.26398427 -76.51044468 133.94716279 -76.03152466 131.63021851 C-71.42385172 109.34668577 -66.71484241 87.08491507 -61.87988281 64.84957504 C-61.44499289 62.84700309 -61.01195068 60.84403957 -60.5793457 58.8409729 C-57.89485748 46.4428708 -55.1428009 34.07641461 -51.84765625 21.82421875 C-51.61976913 20.96907181 -51.39188202 20.11392487 -51.15708923 19.23286438 C-45.98547191 0.55632294 -45.98547191 0.55632294 -38 -4 C-25.67132601 -9.18721117 -11.87453005 -4.19050236 0 0 Z " fill="#FECE86" transform="translate(189,231)"/>
<path d="M0 0 C10.69621989 8.50835673 19.58330347 19.3003433 28 30 C28.46986328 30.59200195 28.93972656 31.18400391 29.42382812 31.79394531 C56.02867691 65.41527083 77.88437846 103.46864939 92 144 C88.21325596 148.52068692 84.31429259 152.84988537 80.125 157 C79.33911499 157.78189697 79.33911499 157.78189697 78.53735352 158.57958984 C75.15996159 161.91596502 71.70448357 165.11951506 68.08984375 168.19921875 C65.34771206 170.56206494 62.67418866 172.99850335 60 175.4375 C59.05125 176.30246094 58.1025 177.16742188 57.125 178.05859375 C56.42375 178.69925781 55.7225 179.33992187 55 180 C52.976632 176.964948 51.4997389 173.96299839 49.9453125 170.6640625 C49.33102031 169.36921206 48.71616987 168.07462636 48.10083008 166.78027344 C47.77885651 166.10218628 47.45688293 165.42409912 47.12515259 164.72546387 C40.65212213 151.1311716 33.83014667 137.87378302 26 125 C25.50935059 124.19175781 25.01870117 123.38351562 24.51318359 122.55078125 C15.94824273 108.53491705 6.69991237 95.02171242 -3.3125 82 C-4.10914063 80.96101563 -4.90578125 79.92203125 -5.7265625 78.8515625 C-7.16376016 77.0488919 -8.65382716 75.28610391 -10.2109375 73.5859375 C-14.86626249 68.37859769 -14.86626249 68.37859769 -15.20751953 64.86083984 C-14.24707545 56.07018309 -12.28280544 47.51027998 -10.29907227 38.90429688 C-9.6923866 36.27120843 -9.09626154 33.63590659 -8.50195312 31 C-1.90147417 1.90147417 -1.90147417 1.90147417 0 0 Z " fill="#FE9A83" transform="translate(140,245)"/>
<path d="M0 0 C7.34349238 1.39694294 13.96291342 3.74225337 20.875 6.5625 C21.97489258 7.00940186 23.07478516 7.45630371 24.20800781 7.91674805 C53.98254369 20.13831727 80.04601641 36.49013744 104 58 C104.79277344 58.70769531 105.58554687 59.41539062 106.40234375 60.14453125 C113.21924593 66.56890547 119.92611166 74.90810797 120.4375 84.5625 C120.31388988 93.06687631 115.35889067 98.83853466 109.5625 104.625 C108.78777344 105.36234375 108.01304687 106.0996875 107.21484375 106.859375 C105.22009082 108.78728436 103.41705154 110.76063704 101.625 112.875 C98.60748524 116.38241715 95.43665224 119.70863727 92.1875 123 C91.46651123 123.74032471 91.46651123 123.74032471 90.73095703 124.49560547 C89.52618598 125.70379795 88.26686779 126.85708776 87 128 C86.34 128 85.68 128 85 128 C84.70456299 127.33806641 84.40912598 126.67613281 84.10473633 125.99414062 C70.75198579 96.22004274 55.58671538 67.62713354 35.43359375 41.83496094 C33.98717944 39.98359004 32.55528367 38.12166309 31.125 36.2578125 C26.32300225 30.03450288 21.3798141 24.02769825 16.0546875 18.23828125 C14.11897397 16.12960473 12.24180024 13.98213672 10.375 11.8125 C7.4948547 8.49392509 4.44666505 5.39799112 1.28515625 2.34765625 C0 1 0 1 0 0 Z " fill="#FE9A83" transform="translate(178,228)"/>
<path d="M0 0 C3.47902482 3.29568193 6.17523129 6.51281891 8.6796875 10.59375 C9.35378662 11.69187012 10.02788574 12.78999023 10.72241211 13.92138672 C11.44099362 15.11362426 12.15849473 16.30651354 12.875 17.5 C13.24416534 18.11103577 13.61333069 18.72207153 13.99368286 19.35162354 C26.5120473 40.12140755 37.30849001 61.77390509 47 84 C37.28452199 94.69964331 22.20224821 102.62403816 7.8125 103.5625 C1.07037257 103.25453986 -4.72184545 100.22120068 -9.5 95.5625 C-23.34983395 71.902367 -5.54520047 25.06222854 0 0 Z " fill="#FE9A83" transform="translate(112,369)"/>
<path d="M0 0 C4.22893411 1.60407846 4.54576849 2.32058737 6.4375 6.25 C9.68460652 14.48526028 10.95767504 22.55911136 10.625 31.375 C11.285 31.375 11.945 31.375 12.625 31.375 C25.00652046 45.15935282 26.48312371 64.30902602 25.77734375 82.00292969 C25.07057648 93.0076586 22.17110183 103.33671569 17.625 113.375 C17.36170898 113.97070801 17.09841797 114.56641602 16.82714844 115.18017578 C13.20073843 123.23674399 13.20073843 123.23674399 10.625 126.375 C4.61536375 127.9181027 4.61536375 127.9181027 1.6875 126.3125 C0.13360393 123.4789248 0.33507712 121.59427351 0.625 118.375 C1.79466565 115.81422715 3.00403872 113.44421603 4.375 111 C15.06436274 90.52855068 15.20942423 68.27408952 8.625 46.375 C7.965 46.375 7.305 46.375 6.625 46.375 C6.439375 47.07625 6.25375 47.7775 6.0625 48.5 C4.0926027 52.4397946 1.20257949 54.85714896 -2.375 57.375 C-6.73462456 58.82820819 -10.93392177 59.19197376 -15.3125 57.7265625 C-19.16469993 55.78385823 -21.7549887 53.38333448 -23.71484375 49.4296875 C-25.21536288 44.75943271 -25.29319679 39.95773534 -23.64453125 35.3203125 C-21.02421101 30.33635645 -17.64142173 27.38229855 -12.5625 25.125 C-8.68213147 24.21197211 -5.35434752 24.23778112 -1.375 24.375 C-1.7359375 23.36179687 -2.096875 22.34859375 -2.46875 21.3046875 C-2.93798419 19.95329303 -3.40670716 18.60172096 -3.875 17.25 C-4.11347656 16.58484375 -4.35195312 15.9196875 -4.59765625 15.234375 C-5.99674782 11.15702243 -6.74523919 7.74642064 -6.375 3.375 C-4.69112053 0.30439626 -3.50122569 0.38902508 0 0 Z M-13.375 41.375 C-12.715 43.025 -12.055 44.675 -11.375 46.375 C-9.00266389 46.33719702 -9.00266389 46.33719702 -6.375 45.375 C-3.10421532 41.34720108 -3.10421532 41.34720108 -2.375 36.375 C-7.95623677 35.72601898 -9.79897174 37.16790793 -13.375 41.375 Z " fill="#91B398" transform="translate(210.375,76.625)"/>
<path d="M0 0 C4.55383223 2.26710182 7.25784506 5.61579113 8.875 10.33984375 C9.125 14.27734375 9.125 14.27734375 8.875 17.33984375 C17.5057725 13.30164933 17.5057725 13.30164933 25.3125 7.90234375 C28.53067885 5.33984375 28.53067885 5.33984375 31.75 5.33984375 C33.875 6.33984375 33.875 6.33984375 35.875 8.33984375 C36.51176687 11.38217434 36.48902873 13.3663291 34.80078125 16.04296875 C28.77333452 22.7839923 18.87955955 27.95827493 9.9375 29.27734375 C5.26280581 30.06220938 3.45486494 32.64424235 0.60546875 36.25 C-8.84594055 47.66423019 -24.9115555 50.98925849 -38.47460938 54.85742188 C-49.08615498 58.00798586 -58.75488154 61.85195604 -65.125 71.33984375 C-66.56780172 74.2254472 -67.30447726 76.9732929 -68.1875 80.08984375 C-69.125 83.33984375 -69.125 83.33984375 -70.125 84.33984375 C-73.5625 84.52734375 -73.5625 84.52734375 -77.125 84.33984375 C-79.56426741 81.90057634 -79.44740519 81.13815189 -79.5 77.77734375 C-79.29610102 69.44147382 -75.78620178 63.24971556 -70.15625 57.25 C-59.43770629 47.1704464 -46.18798006 43.46855146 -32.36767578 39.57006836 C-24.29370696 37.24974931 -16.96749815 34.25240653 -10.125 29.33984375 C-11.011875 28.80359375 -11.89875 28.26734375 -12.8125 27.71484375 C-17.05308365 24.82079614 -20.41656827 22.00841481 -21.76171875 16.94140625 C-22.50539159 11.61574917 -22.42971561 7.81720039 -19.125 3.33984375 C-13.7703318 -1.74709104 -6.89225714 -2.14116077 0 0 Z M-9.125 10.33984375 C-9.455 11.65984375 -9.785 12.97984375 -10.125 14.33984375 C-6.63716486 17.58700437 -6.63716486 17.58700437 -2.125 18.33984375 C-2.39156572 15.40540973 -2.39156572 15.40540973 -3.125 12.33984375 C-5.94009993 10.06249365 -5.94009993 10.06249365 -9.125 10.33984375 Z " fill="#FE9A83" transform="translate(360.125,153.66015625)"/>
<path d="M0 0 C1.9375 1.0625 1.9375 1.0625 3 3 C3.32093933 7.09197643 2.92120763 8.90411643 0.26953125 12.05859375 C-10.94808916 22.56146313 -24.28176811 25.18479394 -38.8984375 27.92578125 C-55.42673383 30.93452957 -55.42673383 30.93452957 -68.625 40.75 C-71.15151363 44.561804 -71.91560604 48.29153098 -72.3828125 52.80078125 C-73.2037354 55.72596856 -74.38871373 56.53234275 -77 58 C-80.125 57.9375 -80.125 57.9375 -83 57 C-85.57900058 53.17391691 -85.09921575 49.98767203 -84.53125 45.5859375 C-82.82033879 37.25782557 -77.45310195 30.40254621 -70.78125 25.3046875 C-59.71081982 18.15203943 -46.85897296 16.21197705 -34.10913086 13.92553711 C-25.26980765 12.27771522 -16.65968859 10.45781364 -10.25 3.75 C-6.83033577 0.17370992 -4.96462286 -0.52294933 0 0 Z " fill="#9CBBDB" transform="translate(351,110)"/>
<path d="M0 0 C4.31808498 3.72925521 7.6675151 7.36619802 8.3984375 13.15625 C8.39070313 14.2596875 8.38296875 15.363125 8.375 16.5 C8.38660156 18.15515625 8.38660156 18.15515625 8.3984375 19.84375 C7.95660372 23.34376664 7.09447639 25.18769837 5 28 C-1.26455686 32.69841765 -6.31450459 33.81978618 -14 33 C-20.37299823 31.00233105 -24.01610794 27.57100571 -27.25 21.75 C-28.66520774 16.56090495 -28.63597872 11.83727184 -26.875 6.75 C-20.11794774 -3.16034332 -10.53716767 -5.65884931 0 0 Z M-14.8125 10.125 C-16.55198782 12.87155972 -16.39769128 14.81846974 -16 18 C-15.06402685 20.01951062 -15.06402685 20.01951062 -13 21 C-8.29012346 21.50676487 -8.29012346 21.50676487 -4 19.8125 C-2.79484181 17.98907661 -2.79484181 17.98907661 -3.0625 15.5625 C-4.20364808 12.44336191 -5.34401978 10.99198516 -8 9 C-10.90697947 8.50368643 -12.30201593 8.56676851 -14.8125 10.125 Z " fill="#91B398" transform="translate(410,59)"/>
<path d="M0 0 C4.37386327 3.7906815 6.71062415 6.49207594 7.375 12.25 C6.83334012 17.66659883 5.35804189 21.84422807 1.26953125 25.58203125 C-4.12356278 29.31736783 -9.63852877 30.76545016 -16.13671875 29.625 C-21.57007755 27.96911922 -24.91383359 24.69866166 -28 20 C-29.55417619 15.33747142 -29.54448802 11.51246673 -27.875 6.875 C-21.21981377 -3.32961889 -10.56189376 -5.67212813 0 0 Z M-15.4375 10.4375 C-15.953125 10.953125 -16.46875 11.46875 -17 12 C-16.42655063 14.86724686 -16.1385485 15.8614515 -14 18 C-10.85657817 17.79935605 -8.68939046 17.46700644 -6.0625 15.6875 C-4.75677084 14.01736032 -4.75677084 14.01736032 -5.3125 11.8125 C-5.539375 11.214375 -5.76625 10.61625 -6 10 C-10.89895217 8.81503452 -10.89895217 8.81503452 -15.4375 10.4375 Z " fill="#9DBCDB" transform="translate(261,41)"/>
<path d="M0 0 C1.78125 1.65234375 1.78125 1.65234375 3.5 3.9375 C4.18707031 4.84371094 4.87414062 5.74992187 5.58203125 6.68359375 C6.39009421 7.78754784 7.19589904 8.89315674 8 10 C8.46970215 10.64211426 8.9394043 11.28422852 9.42333984 11.94580078 C12.14529404 15.67291823 14.84206214 19.41659284 17.51953125 23.17578125 C19.8751275 26.47119931 22.29175115 29.70745775 24.76171875 32.91796875 C25.66917847 34.11679688 25.66917847 34.11679688 26.5949707 35.33984375 C27.7562128 36.87139004 28.93256553 38.39162961 30.12573242 39.8984375 C32.89651198 43.59224126 34.00472427 45.20238646 33.9765625 49.95703125 C33.49316406 51.46330078 33.49316406 51.46330078 33 53 C30.14590877 54.42704561 28.15966484 54.33923992 25 54 C22.90234375 52.2265625 22.90234375 52.2265625 20.9375 49.625 C20.16921875 48.62082031 19.4009375 47.61664063 18.609375 46.58203125 C17.73657435 45.39021858 16.86699672 44.19604143 16 43 C15.26620117 41.99525635 15.26620117 41.99525635 14.51757812 40.97021484 C12.34348191 37.9879574 10.17713604 35.00093292 8.03808594 31.9934082 C5.27084722 28.10456848 2.46170315 24.27478978 -0.5 20.53125 C-1.05647217 19.82057373 -1.61294434 19.10989746 -2.1862793 18.37768555 C-3.24165134 17.03743752 -4.3101766 15.70740455 -5.39379883 14.38989258 C-7.96897433 11.09693773 -8.9500656 9.44532407 -9.4296875 5.16796875 C-9 2 -9 2 -7.3125 0 C-4.34477973 -1.2833385 -3.06055946 -0.96135934 0 0 Z " fill="#FECF87" transform="translate(128,122)"/>
<path d="M0 0 C3.07867209 3.17196518 4.36474435 5.95134465 4.5 10.375 C4.33507974 15.65244834 2.74633027 19.33403373 -0.9375 23.125 C-6.67937421 27.18272243 -11.95468343 29.07182259 -18.9375 28.125 C-22.64933275 26.77524263 -24.34432413 24.8762655 -26.3125 21.5625 C-28.53632443 16.65381437 -28.27650074 12.27367382 -26.9375 7.125 C-24.17515312 1.60030624 -20.40350105 -1.56354014 -14.625 -3.75 C-9.25463133 -3.99978459 -4.53118141 -2.89224345 0 0 Z M-14.1875 9.8125 C-16.33979511 12.17326643 -16.33979511 12.17326643 -15.9375 16.125 C-13.19601328 15.75452882 -11.35156801 15.43912056 -9.125 13.75 C-7.64249171 12.05674698 -7.64249171 12.05674698 -7.9375 9.125 C-10.88818318 7.86042149 -11.54416391 7.82999793 -14.1875 9.8125 Z " fill="#FECF88" transform="translate(420.9375,194.875)"/>
<path d="M0 0 C5.83618661 0.067527 11.34925355 0.79097392 17.07427979 1.8976593 C17.98192078 2.06811264 18.88956177 2.23856598 19.82470703 2.41418457 C21.72801644 2.77410986 23.63054141 3.13820633 25.5322876 3.50630188 C28.43712838 4.06629769 31.34516035 4.60673866 34.25396729 5.14570618 C36.11096129 5.49935403 37.96774039 5.85413261 39.82427979 6.2101593 C40.6889386 6.36966568 41.55359741 6.52917206 42.44445801 6.69351196 C46.8480058 7.56147116 50.59612995 8.37797801 54.18365479 11.25312805 C54.71449232 14.43815329 54.72490538 16.29797994 53.12115479 19.12812805 C47.85992596 22.18303511 40.17028947 19.67928125 34.48834229 18.57344055 C33.5778714 18.40061554 32.66740051 18.22779053 31.7293396 18.04972839 C29.81426338 17.68460879 27.89978964 17.31631636 25.98590088 16.94502258 C23.06252341 16.37887726 20.13700083 15.82505947 17.21099854 15.2726593 C15.34497283 14.91531819 13.47908248 14.55726936 11.61334229 14.19844055 C10.74240936 14.03377289 9.87147644 13.86910522 8.97415161 13.69944763 C0.82579652 12.10529367 0.82579652 12.10529367 -2.81634521 10.25312805 C-4.19759539 7.4906277 -4.00713828 5.30581706 -3.81634521 2.25312805 C-1.81634521 0.25312805 -1.81634521 0.25312805 0 0 Z " fill="#FECE87" transform="translate(354.81634521484375,264.7468719482422)"/>
<path d="M0 0 C5.8411158 0.83444511 8.19442566 4.23037611 11.9375 8.5625 C12.78441406 9.51576172 12.78441406 9.51576172 13.6484375 10.48828125 C14.77660497 11.76740071 15.89616726 13.05415199 17.0078125 14.34765625 C20.1699631 17.97708821 23.44412645 21.50448527 26.703125 25.046875 C31.84910404 30.84059965 31.84910404 30.84059965 32.3125 34.625 C31.9375 37.5625 31.9375 37.5625 30.875 39.5 C28.47962651 40.81359191 26.63778393 41.03450866 23.953125 40.515625 C19.2425541 38.28814574 16.18432586 33.49804649 12.9375 29.5625 C11.44497888 27.90988145 9.94507531 26.2638972 8.4375 24.625 C6.93651264 22.93837817 5.43654709 21.25084655 3.9375 19.5625 C3.07898438 18.62921875 2.22046875 17.6959375 1.3359375 16.734375 C0.50320313 15.79078125 -0.32953125 14.8471875 -1.1875 13.875 C-1.95320313 13.02550781 -2.71890625 12.17601562 -3.5078125 11.30078125 C-5.57548263 7.65898035 -5.0549049 5.54657209 -4.0625 1.5625 C-3.0625 0.5625 -3.0625 0.5625 0 0 Z " fill="#FECF88" transform="translate(332.0625,288.4375)"/>
<path d="M0 0 C7.50136509 0.06965252 14.87254569 0.72776917 22.31152344 1.68896484 C24.32996858 1.94416206 26.35051388 2.16866601 28.37255859 2.39331055 C29.66033203 2.55766602 30.94810547 2.72202148 32.27490234 2.89135742 C33.43554199 3.03275146 34.59618164 3.17414551 35.79199219 3.31982422 C39.68798145 4.47713554 41.41075446 6.11470704 43.93896484 9.25463867 C43.85882157 12.70079924 43.38335445 13.81024907 40.93896484 16.25463867 C33.86047969 16.79378619 26.85387377 15.61037124 19.84765625 14.65551758 C17.81269528 14.37946645 15.77641777 14.11539155 13.73974609 13.85229492 C11.79261719 13.59125977 11.79261719 13.59125977 9.80615234 13.32495117 C8.63165527 13.16784668 7.4571582 13.01074219 6.24707031 12.84887695 C2.97297539 12.26074802 0.02544141 11.49483795 -3.06103516 10.25463867 C-4.44228533 7.49213832 -4.25182822 5.30732768 -4.06103516 2.25463867 C-2.06103516 0.25463867 -2.06103516 0.25463867 0 0 Z " fill="#FECE87" transform="translate(97.06103515625,188.745361328125)"/>
<path d="M0 0 C4.85609174 4.57860078 6.66667402 10.41672366 7.5 16.875 C7.22159989 23.29085715 3.81217253 29.67856385 -0.8125 34.0625 C-4.88191159 36.53606391 -7.24588703 37 -12 37 C-14 35.9375 -14 35.9375 -15 34 C-15.6875 31.1875 -15.6875 31.1875 -15 28 C-13.0683965 26.18429271 -11.06302438 24.75034404 -8.84765625 23.296875 C-6.86321762 22.12240266 -6.86321762 22.12240266 -6 20 C-5.43761799 14.15122709 -6.71359727 11.72420393 -10 7 C-10.5 4.3125 -10.5 4.3125 -10 2 C-6.91047944 -1.56483142 -4.32365427 -1.44121809 0 0 Z " fill="#A8B7C2" transform="translate(173,49)"/>
<path d="M0 0 C2 3 2 3 1.875 6.3125 C0.27706731 13.04664489 -3.4374584 17.04203771 -9 21 C-15.16023567 24.19514298 -21.12185303 25.1803056 -27.875 23.125 C-30 22 -30 22 -32 20 C-32.55406559 14.79178349 -32.55406559 14.79178349 -30.81640625 12.30859375 C-28.30677864 10.50058246 -26.67700674 10.7993201 -23.625 11 C-17.77350922 11.15216616 -17.77350922 11.15216616 -13 8 C-11.60271447 5.95938946 -10.32543325 3.8980018 -9.11328125 1.7421875 C-6.72018992 -2.00279051 -3.885122 -0.9712805 0 0 Z " fill="#A8B8C2" transform="translate(326,72)"/>
<path d="M0 0 C2 2 2 2 2.25 5.5 C2 9 2 9 0 11 C-1.98828125 11.23828125 -1.98828125 11.23828125 -4.3125 11.3125 C-7.81633463 11.65049048 -8.94161761 11.95900811 -11.9375 14.0625 C-14.51689612 17.73618539 -15.06801115 20.62682154 -16 25 C-18 27 -18 27 -21.5 27.3125 C-22.655 27.209375 -23.81 27.10625 -25 27 C-27.72267372 22.91598942 -27.61468809 19.79301092 -27 15 C-25.14434851 8.86634958 -21.42019524 4.36692372 -16 1 C-10.56539626 -1.36334471 -5.72617995 -1.18472689 0 0 Z " fill="#A8B8C2" transform="translate(265,202)"/>
</svg>
