<svg id="svg" version="1.1" xmlns="http://www.w3.org/2000/svg" xmlns:xlink="http://www.w3.org/1999/xlink" width="400" height="400" viewBox="0, 0, 400,400"><g id="svgg"><path id="path0" d="M188.357 272.556 C 181.500 274.536,177.928 278.613,173.350 289.685 C 167.061 304.898,162.899 309.449,154.846 309.915 C 143.840 310.552,134.612 302.403,129.794 287.792 C 125.079 273.494,113.962 270.776,102.684 281.162 C 94.828 288.397,91.118 289.418,81.684 286.941 L 80.767 286.700 80.827 291.350 C 80.859 293.908,81.035 296.000,81.217 296.000 C 81.399 296.000,81.648 299.105,81.770 302.900 C 82.102 313.278,82.412 317.759,82.827 318.180 C 83.032 318.389,83.200 319.795,83.200 321.304 C 83.200 323.031,83.348 323.956,83.600 323.800 C 83.850 323.646,84.000 324.451,84.000 325.943 C 84.000 327.258,84.170 328.393,84.379 328.467 C 84.587 328.540,84.800 329.445,84.852 330.478 C 84.904 331.511,85.094 332.265,85.274 332.155 C 85.453 332.044,85.600 332.593,85.600 333.376 C 85.600 334.159,85.780 334.800,86.000 334.800 C 86.220 334.800,86.400 335.239,86.400 335.776 C 86.400 336.313,86.580 336.864,86.800 337.000 C 87.020 337.136,87.200 337.687,87.200 338.224 C 87.200 338.761,87.380 339.200,87.600 339.200 C 87.820 339.200,88.000 339.560,88.000 340.000 C 88.000 340.440,88.180 340.800,88.400 340.800 C 88.620 340.800,88.800 341.120,88.800 341.512 C 88.800 341.903,89.160 342.483,89.600 342.800 C 90.040 343.117,90.400 343.615,90.400 343.906 C 90.400 344.450,92.148 346.400,92.635 346.400 C 92.784 346.400,93.242 346.788,93.653 347.261 C 94.064 347.735,94.400 348.004,94.400 347.860 C 94.400 347.537,98.547 349.681,98.733 350.100 C 98.807 350.265,99.492 350.400,100.257 350.400 C 101.082 350.400,101.547 350.563,101.400 350.800 C 101.247 351.047,101.937 351.200,103.200 351.200 C 104.345 351.200,105.147 351.362,105.020 351.568 C 104.771 351.971,108.088 352.285,116.300 352.636 C 119.215 352.760,121.600 353.001,121.600 353.171 C 121.600 353.342,124.330 353.517,127.666 353.562 C 131.003 353.606,134.021 353.797,134.373 353.985 C 134.724 354.174,138.154 354.352,141.993 354.381 C 146.958 354.419,149.063 354.574,149.281 354.917 C 149.509 355.276,149.589 355.259,149.594 354.851 C 149.598 354.468,149.751 354.421,150.100 354.697 C 150.386 354.923,154.287 355.126,159.226 355.171 C 163.970 355.215,168.517 355.401,169.330 355.584 C 170.143 355.768,176.696 355.945,183.893 355.979 C 191.089 356.012,197.072 356.184,197.189 356.361 C 197.497 356.828,295.200 356.923,295.200 356.456 C 295.200 356.248,296.055 355.977,297.100 355.854 C 300.996 355.397,302.400 355.106,302.400 354.758 C 302.400 354.561,302.850 354.400,303.400 354.400 C 303.950 354.400,304.400 354.254,304.400 354.075 C 304.400 353.896,305.030 353.502,305.800 353.200 C 306.570 352.898,307.200 352.504,307.200 352.325 C 307.200 352.146,307.477 352.000,307.815 352.000 C 308.577 352.000,312.000 348.534,312.000 347.763 C 312.000 347.453,312.147 347.200,312.326 347.200 C 312.792 347.200,314.400 344.069,314.400 343.162 C 314.400 342.743,314.580 342.400,314.800 342.400 C 315.020 342.400,315.200 341.781,315.200 341.024 C 315.200 340.267,315.380 339.536,315.600 339.400 C 315.820 339.264,316.000 338.209,316.000 337.056 C 316.000 335.903,316.168 334.789,316.373 334.580 C 316.964 333.979,317.233 327.491,317.432 309.100 C 317.636 290.252,317.749 291.038,315.129 293.198 C 308.905 298.328,300.175 296.818,290.913 289.010 C 282.325 281.769,277.352 279.635,269.000 279.608 C 261.688 279.584,257.059 281.738,246.200 290.220 C 234.736 299.174,228.284 300.174,219.600 294.345 C 217.480 292.921,211.140 286.707,208.434 283.400 C 200.739 273.994,194.690 270.727,188.357 272.556 " stroke="none" fill="#fbcb84" fill-rule="evenodd"></path><path id="path1" d="M200.580 114.777 C 200.371 114.984,198.992 115.193,197.515 115.240 C 196.038 115.287,194.924 115.477,195.039 115.663 C 195.153 115.848,194.702 116.000,194.036 116.000 C 193.369 116.000,192.183 116.360,191.400 116.800 C 190.617 117.240,189.711 117.600,189.388 117.600 C 189.065 117.600,188.800 117.780,188.800 118.000 C 188.800 118.220,188.548 118.400,188.241 118.400 C 187.934 118.400,186.301 119.750,184.613 121.400 C 182.925 123.050,181.638 124.400,181.753 124.400 C 181.868 124.400,181.520 124.876,180.981 125.458 C 180.441 126.041,180.000 126.761,180.000 127.058 C 180.000 127.356,179.820 127.600,179.600 127.600 C 179.380 127.600,179.200 127.960,179.200 128.400 C 179.200 128.840,179.009 129.200,178.776 129.200 C 178.543 129.200,178.455 129.365,178.580 129.568 C 178.705 129.770,178.558 130.185,178.252 130.490 C 177.947 130.796,177.564 131.665,177.401 132.423 C 177.237 133.180,176.844 134.307,176.528 134.927 C 176.211 135.547,176.028 136.267,176.122 136.527 C 176.215 136.787,176.127 137.320,175.925 137.712 C 175.460 138.616,175.177 140.294,174.916 143.700 C 174.803 145.185,174.550 146.400,174.355 146.400 C 174.160 146.400,174.000 148.560,174.000 151.200 C 174.000 154.223,173.848 156.000,173.588 156.000 C 173.319 156.000,173.191 158.757,173.217 164.000 C 173.240 168.626,173.414 172.000,173.629 172.000 C 173.833 172.000,174.000 172.820,174.000 173.823 C 174.000 174.825,174.179 176.400,174.398 177.323 C 174.617 178.245,174.965 181.790,175.172 185.200 C 176.191 201.996,181.457 206.718,200.000 207.463 C 212.863 207.981,223.200 204.224,223.200 199.032 C 223.200 198.710,223.380 198.336,223.600 198.200 C 224.160 197.854,224.110 185.913,223.529 181.555 C 223.104 178.358,223.125 177.946,223.752 177.253 C 224.342 176.601,224.394 176.108,224.105 173.944 C 223.917 172.545,223.813 169.915,223.873 168.100 C 223.933 166.285,223.832 164.800,223.649 164.800 C 223.466 164.800,223.279 162.240,223.233 159.111 C 223.187 155.981,222.997 153.236,222.812 153.011 C 222.626 152.785,222.362 150.170,222.226 147.200 C 221.778 137.426,221.548 134.605,221.172 134.220 C 220.967 134.011,220.800 133.167,220.800 132.344 C 220.800 131.521,220.620 130.736,220.400 130.600 C 220.180 130.464,220.000 129.911,220.000 129.371 C 220.000 128.831,219.840 128.077,219.644 127.695 C 219.448 127.313,218.880 126.145,218.381 125.100 C 217.882 124.055,217.323 123.200,217.137 123.200 C 216.952 123.200,216.800 122.926,216.800 122.591 C 216.800 121.130,210.453 116.000,208.646 116.000 C 208.290 116.000,208.000 115.848,208.000 115.663 C 208.000 115.478,206.785 115.288,205.300 115.241 C 203.815 115.194,202.540 114.986,202.467 114.778 C 202.294 114.290,201.071 114.289,200.580 114.777 M92.742 227.078 C 85.763 231.409,97.846 238.606,119.200 242.838 C 120.410 243.078,122.210 243.437,123.200 243.635 C 148.274 248.667,196.281 251.050,231.200 248.997 C 257.756 247.436,275.801 245.016,290.600 241.031 C 293.490 240.253,293.918 240.105,298.949 238.141 C 303.986 236.175,305.200 235.114,305.200 232.675 C 305.200 229.308,302.412 227.987,298.800 229.642 C 294.759 231.493,289.466 233.242,284.400 234.399 C 279.254 235.575,278.567 235.712,272.400 236.783 C 262.136 238.567,251.880 239.666,234.200 240.879 C 223.917 241.584,178.599 241.589,168.200 240.886 C 155.947 240.058,151.123 239.620,141.000 238.414 C 134.841 237.681,125.366 236.149,121.400 235.245 C 120.520 235.045,118.900 234.685,117.800 234.445 C 116.700 234.206,115.170 233.838,114.400 233.628 C 113.630 233.417,112.370 233.081,111.600 232.881 C 108.180 231.992,102.320 229.764,99.166 228.154 C 95.441 226.252,94.364 226.071,92.742 227.078 " stroke="none" fill="#ebf0f0" fill-rule="evenodd"></path><path id="path2" d="M163.123 176.460 C 162.395 176.603,160.090 176.824,158.000 176.951 C 155.910 177.079,153.750 177.272,153.200 177.380 C 152.650 177.488,151.210 177.673,150.000 177.789 C 145.330 178.240,142.583 178.624,142.176 178.883 C 141.944 179.031,140.720 179.194,139.457 179.246 C 138.195 179.297,137.070 179.487,136.957 179.669 C 136.845 179.851,135.863 180.000,134.776 180.000 C 133.689 180.000,132.800 180.180,132.800 180.400 C 132.800 180.620,131.900 180.800,130.800 180.800 C 129.700 180.800,128.800 180.962,128.800 181.160 C 128.800 181.358,128.035 181.611,127.100 181.724 C 126.165 181.836,124.590 182.141,123.600 182.400 C 122.610 182.659,121.035 182.964,120.100 183.076 C 119.165 183.189,118.400 183.422,118.400 183.595 C 118.400 183.912,117.063 184.261,114.300 184.665 C 113.475 184.785,112.800 185.045,112.800 185.242 C 112.800 185.439,112.271 185.600,111.624 185.600 C 110.977 185.600,110.336 185.780,110.200 186.000 C 110.064 186.220,109.511 186.400,108.971 186.400 C 108.025 186.400,107.659 186.528,105.705 187.538 C 105.213 187.792,104.358 188.000,103.805 188.000 C 103.252 188.000,102.800 188.180,102.800 188.400 C 102.800 188.620,102.438 188.800,101.995 188.800 C 101.217 188.800,100.831 188.942,98.905 189.938 C 98.413 190.192,97.648 190.400,97.205 190.400 C 96.762 190.400,96.400 190.580,96.400 190.800 C 96.400 191.020,96.040 191.200,95.600 191.200 C 95.160 191.200,94.800 191.380,94.800 191.600 C 94.800 191.820,94.543 192.000,94.229 192.000 C 93.915 192.000,92.449 192.630,90.972 193.400 C 89.495 194.170,88.057 194.800,87.776 194.800 C 87.496 194.800,87.207 194.942,87.133 195.115 C 87.060 195.288,86.190 195.926,85.200 196.534 C 80.578 199.368,72.400 207.031,72.400 208.527 C 72.400 208.800,72.040 209.283,71.600 209.600 C 71.160 209.917,70.800 210.497,70.800 210.888 C 70.800 211.280,70.620 211.600,70.400 211.600 C 70.180 211.600,70.000 211.960,70.000 212.400 C 70.000 212.840,69.820 213.200,69.600 213.200 C 69.380 213.200,69.200 213.560,69.200 214.000 C 69.200 214.440,69.020 214.800,68.800 214.800 C 68.580 214.800,68.400 215.329,68.400 215.976 C 68.400 216.623,68.220 217.264,68.000 217.400 C 67.780 217.536,67.600 218.076,67.600 218.600 C 67.600 219.124,67.420 219.664,67.200 219.800 C 66.980 219.936,66.800 220.656,66.800 221.400 C 66.800 222.144,66.620 222.864,66.400 223.000 C 66.180 223.136,66.000 224.147,66.000 225.247 C 66.000 226.479,65.846 227.152,65.600 227.000 C 65.343 226.841,65.200 228.196,65.200 230.776 C 65.200 232.989,65.037 234.800,64.837 234.800 C 63.933 234.800,65.247 252.063,66.801 260.600 C 67.041 261.920,67.329 263.810,67.440 264.800 C 67.551 265.790,67.799 266.960,67.991 267.400 C 68.316 268.146,68.512 268.927,69.070 271.700 C 69.191 272.305,69.450 272.800,69.645 272.800 C 69.840 272.800,70.000 273.340,70.000 274.000 C 70.000 274.660,70.180 275.200,70.400 275.200 C 70.620 275.200,70.800 275.560,70.800 276.000 C 70.800 276.440,70.980 276.800,71.200 276.800 C 71.420 276.800,71.600 277.160,71.600 277.600 C 71.600 278.040,71.780 278.400,72.000 278.400 C 72.220 278.400,72.400 278.643,72.400 278.941 C 72.400 279.238,72.940 280.046,73.600 280.737 C 74.260 281.428,74.800 282.083,74.800 282.193 C 74.800 282.456,77.006 284.557,78.707 285.913 C 79.450 286.505,80.629 287.023,81.329 287.065 C 82.028 287.106,83.986 287.461,85.681 287.854 C 91.337 289.165,95.977 287.338,102.684 281.162 C 113.962 270.776,125.079 273.494,129.794 287.792 C 134.612 302.403,143.840 310.552,154.846 309.915 C 162.899 309.449,167.061 304.898,173.350 289.685 C 177.275 280.192,179.857 276.646,184.695 274.107 C 192.931 269.784,199.350 272.297,208.434 283.400 C 222.345 300.402,231.132 301.989,246.200 290.220 C 257.059 281.738,261.688 279.584,269.000 279.608 C 277.352 279.635,282.325 281.769,290.913 289.010 C 300.175 296.818,308.905 298.328,315.129 293.198 C 315.928 292.539,316.792 292.000,317.049 292.000 C 317.684 292.000,319.589 290.123,320.802 288.303 C 321.351 287.479,321.915 286.804,322.057 286.803 C 322.198 286.801,322.426 286.350,322.564 285.800 C 322.702 285.250,322.992 284.800,323.208 284.800 C 323.423 284.800,323.600 284.440,323.600 284.000 C 323.600 283.560,323.735 283.199,323.900 283.197 C 324.259 283.193,325.200 281.256,325.200 280.520 C 325.200 280.234,325.335 279.999,325.500 279.997 C 325.859 279.993,326.800 278.056,326.800 277.320 C 326.800 277.034,326.980 276.800,327.200 276.800 C 327.420 276.800,327.600 276.350,327.600 275.800 C 327.600 275.250,327.780 274.800,328.000 274.800 C 328.220 274.800,328.400 274.350,328.400 273.800 C 328.400 273.250,328.580 272.800,328.800 272.800 C 329.020 272.800,329.200 272.350,329.200 271.800 C 329.200 271.250,329.380 270.800,329.600 270.800 C 329.820 270.800,330.000 270.350,330.000 269.800 C 330.000 269.250,330.180 268.800,330.400 268.800 C 330.620 268.800,330.800 268.258,330.800 267.595 C 330.800 266.932,330.958 266.077,331.151 265.695 C 331.785 264.440,332.400 262.163,332.400 261.072 C 332.400 260.482,332.580 260.000,332.800 260.000 C 333.020 260.000,333.200 259.190,333.200 258.200 C 333.200 257.210,333.348 256.400,333.529 256.400 C 333.709 256.400,333.899 255.455,333.951 254.300 C 334.003 253.145,334.215 252.029,334.423 251.820 C 334.630 251.611,334.800 249.597,334.800 247.344 C 334.800 245.091,334.942 243.160,335.115 243.052 C 335.590 242.759,335.671 237.500,335.230 235.529 C 335.018 234.578,334.809 232.320,334.766 230.511 C 334.723 228.702,334.551 227.307,334.384 227.410 C 334.217 227.513,333.981 226.833,333.859 225.899 C 333.420 222.537,333.106 221.200,332.756 221.200 C 332.560 221.200,332.400 220.750,332.400 220.200 C 332.400 219.650,332.220 219.200,332.000 219.200 C 331.780 219.200,331.599 218.885,331.599 218.500 C 331.598 218.115,331.238 217.211,330.799 216.490 C 330.359 215.770,330.000 214.915,330.000 214.590 C 330.000 214.266,329.820 214.000,329.600 214.000 C 329.380 214.000,329.200 213.812,329.200 213.583 C 329.200 213.354,328.840 212.780,328.400 212.308 C 327.960 211.836,327.600 211.213,327.600 210.925 C 327.600 210.636,327.420 210.400,327.200 210.400 C 326.980 210.400,326.800 210.170,326.800 209.888 C 326.800 209.607,326.440 209.117,326.000 208.800 C 325.560 208.483,325.200 207.987,325.200 207.698 C 325.200 207.410,324.557 206.504,323.772 205.687 C 319.464 201.204,316.614 198.400,316.366 198.400 C 316.211 198.400,315.516 197.869,314.822 197.220 C 314.127 196.572,313.208 195.930,312.780 195.794 C 312.351 195.657,312.000 195.390,312.000 195.200 C 312.000 195.010,311.605 194.729,311.122 194.575 C 310.639 194.422,309.404 193.780,308.378 193.148 C 307.351 192.517,306.216 192.000,305.856 192.000 C 305.495 192.000,305.200 191.849,305.200 191.664 C 305.200 191.479,304.480 191.090,303.600 190.800 C 302.720 190.510,302.000 190.121,302.000 189.936 C 302.000 189.751,301.561 189.600,301.024 189.600 C 300.487 189.600,299.936 189.420,299.800 189.200 C 299.664 188.980,299.203 188.800,298.776 188.800 C 298.349 188.800,298.000 188.620,298.000 188.400 C 298.000 188.180,297.638 188.000,297.195 188.000 C 296.752 188.000,296.077 187.841,295.695 187.647 C 293.766 186.665,290.422 185.600,289.272 185.600 C 288.792 185.600,288.400 185.420,288.400 185.200 C 288.400 184.980,287.691 184.800,286.824 184.800 C 285.957 184.800,285.136 184.620,285.000 184.400 C 284.864 184.180,284.054 184.000,283.200 184.000 C 282.346 184.000,281.536 183.820,281.400 183.600 C 281.264 183.380,280.353 183.200,279.376 183.200 C 278.399 183.200,277.600 183.020,277.600 182.800 C 277.600 182.580,276.646 182.400,275.480 182.400 C 274.314 182.400,273.189 182.235,272.980 182.034 C 272.612 181.679,270.582 181.422,264.500 180.958 C 262.905 180.836,261.600 180.596,261.600 180.425 C 261.600 180.253,260.126 180.077,258.325 180.034 C 256.524 179.990,254.859 179.830,254.625 179.677 C 254.195 179.397,250.376 179.007,243.816 178.575 C 241.845 178.445,239.955 178.202,239.616 178.035 C 239.277 177.869,237.414 177.687,235.476 177.631 C 233.538 177.576,231.468 177.406,230.876 177.254 C 230.284 177.103,228.540 176.983,227.000 176.989 L 224.200 177.000 224.239 179.400 C 224.260 180.720,224.349 185.400,224.437 189.800 C 224.684 202.164,222.387 205.163,210.800 207.607 C 208.204 208.155,193.982 207.913,191.200 207.274 C 187.504 206.425,186.442 206.079,184.291 205.027 C 177.177 201.546,174.000 193.262,174.000 178.191 L 174.000 175.997 169.223 176.099 C 166.596 176.154,163.851 176.317,163.123 176.460 M96.719 226.341 C 97.534 226.748,98.920 227.451,99.800 227.903 C 105.666 230.917,116.113 233.923,127.200 235.788 C 134.381 236.996,135.409 237.153,139.000 237.598 C 140.980 237.843,143.230 238.134,144.000 238.243 C 165.695 241.330,214.522 241.984,244.600 239.592 C 268.735 237.673,288.207 233.954,298.306 229.334 C 301.015 228.095,303.211 228.229,304.707 229.725 C 306.096 231.114,306.117 234.323,304.746 235.683 C 303.460 236.960,299.876 238.623,295.400 240.019 C 293.860 240.499,292.287 241.051,291.905 241.246 C 291.523 241.441,290.769 241.600,290.229 241.600 C 289.689 241.600,289.148 241.760,289.027 241.956 C 288.906 242.151,288.221 242.412,287.504 242.534 C 286.787 242.656,285.390 242.930,284.400 243.143 C 274.328 245.308,268.274 246.241,255.400 247.611 C 222.494 251.112,174.636 250.944,143.400 247.217 C 141.640 247.007,139.300 246.729,138.200 246.600 C 137.100 246.470,135.210 246.203,134.000 246.007 C 132.790 245.811,130.450 245.445,128.800 245.194 C 127.150 244.944,125.080 244.587,124.200 244.402 C 123.320 244.217,121.520 243.857,120.200 243.603 C 117.937 243.167,117.104 242.976,113.200 242.000 C 108.374 240.794,103.837 239.402,102.705 238.781 C 102.323 238.571,101.833 238.400,101.615 238.400 C 101.398 238.400,100.041 237.860,98.600 237.200 C 97.159 236.540,95.898 236.000,95.798 236.000 C 95.077 236.000,91.271 233.075,90.883 232.222 C 89.138 228.392,93.013 224.487,96.719 226.341 " stroke="none" fill="#fcaca3" fill-rule="evenodd"></path><path id="path3" d="M190.910 43.782 C 190.676 44.012,189.970 44.668,189.342 45.240 C 188.714 45.811,187.930 46.801,187.600 47.440 C 187.270 48.078,186.685 48.949,186.300 49.375 C 185.915 49.802,185.600 50.556,185.600 51.052 C 185.600 51.547,185.420 52.064,185.200 52.200 C 184.980 52.336,184.800 52.887,184.800 53.424 C 184.800 53.961,184.620 54.400,184.400 54.400 C 184.180 54.400,184.000 54.760,184.000 55.200 C 184.000 55.640,183.775 56.003,183.500 56.006 C 183.167 56.010,183.200 56.142,183.600 56.400 C 184.000 56.658,184.033 56.790,183.700 56.794 C 183.415 56.797,183.200 57.305,183.200 57.976 C 183.200 58.623,183.020 59.264,182.800 59.400 C 182.580 59.536,182.400 60.252,182.400 60.990 C 182.400 61.729,182.230 62.393,182.022 62.467 C 181.815 62.540,181.605 63.725,181.557 65.100 C 181.508 66.475,181.309 67.600,181.114 67.600 C 180.920 67.600,180.792 69.310,180.831 71.400 C 180.870 73.490,181.059 75.200,181.251 75.200 C 181.443 75.200,181.600 76.100,181.600 77.200 C 181.600 78.300,181.780 79.200,182.000 79.200 C 182.220 79.200,182.400 79.740,182.400 80.400 C 182.400 81.060,182.580 81.600,182.800 81.600 C 183.020 81.600,183.200 81.960,183.200 82.400 C 183.200 82.840,183.425 83.203,183.700 83.206 C 184.033 83.210,184.000 83.342,183.600 83.600 C 183.270 83.813,183.203 83.991,183.451 83.994 C 183.700 83.997,184.127 84.540,184.400 85.200 C 184.673 85.860,185.055 86.400,185.249 86.400 C 185.442 86.400,185.600 86.683,185.600 87.029 C 185.600 87.774,186.597 88.869,186.952 88.514 C 187.089 88.378,187.200 88.597,187.200 89.000 C 187.200 89.403,187.304 89.629,187.431 89.503 C 187.558 89.376,188.162 89.796,188.774 90.436 C 189.386 91.076,190.182 91.600,190.543 91.600 C 190.904 91.600,191.200 91.780,191.200 92.000 C 191.200 92.220,191.481 92.400,191.824 92.400 C 192.167 92.400,192.336 92.580,192.200 92.800 C 192.060 93.027,192.396 93.200,192.976 93.200 C 193.539 93.200,194.000 93.380,194.000 93.600 C 194.000 93.820,194.821 94.000,195.824 94.000 C 196.937 94.000,197.551 94.156,197.400 94.400 C 197.247 94.647,197.937 94.800,199.200 94.800 C 200.463 94.800,201.153 94.647,201.000 94.400 C 200.851 94.158,201.396 94.000,202.376 94.000 C 203.269 94.000,204.000 93.820,204.000 93.600 C 204.000 93.380,204.332 93.200,204.738 93.200 C 205.144 93.200,205.802 92.840,206.200 92.400 C 206.598 91.960,207.089 91.600,207.291 91.600 C 207.792 91.600,208.800 90.553,208.800 90.032 C 208.800 89.798,209.160 89.382,209.600 89.107 C 210.040 88.832,210.400 88.291,210.400 87.904 C 210.400 87.517,210.580 87.200,210.800 87.200 C 211.020 87.200,211.200 86.851,211.200 86.424 C 211.200 85.997,211.380 85.536,211.600 85.400 C 211.820 85.264,212.000 84.724,212.000 84.200 C 212.000 83.676,212.180 83.136,212.400 83.000 C 212.632 82.857,212.800 80.670,212.800 77.800 C 212.800 74.930,212.632 72.743,212.400 72.600 C 212.180 72.464,212.000 71.643,212.000 70.776 C 212.000 69.909,211.820 69.200,211.600 69.200 C 211.380 69.200,211.200 68.845,211.200 68.412 C 211.200 67.979,210.840 66.983,210.400 66.200 C 209.960 65.417,209.600 64.511,209.600 64.188 C 209.600 63.865,209.420 63.600,209.200 63.600 C 208.980 63.600,208.800 63.240,208.800 62.800 C 208.800 62.360,208.620 62.000,208.400 62.000 C 208.180 62.000,208.000 61.702,208.000 61.338 C 208.000 60.975,207.370 59.550,206.600 58.173 C 205.830 56.797,205.200 55.384,205.200 55.035 C 205.200 54.686,205.020 54.400,204.800 54.400 C 204.580 54.400,204.400 54.040,204.400 53.600 C 204.400 53.160,204.265 52.799,204.100 52.797 C 203.741 52.793,202.800 50.856,202.800 50.120 C 202.800 49.834,202.648 49.600,202.463 49.600 C 202.277 49.600,201.696 48.745,201.170 47.700 C 200.130 45.633,198.992 44.400,198.126 44.400 C 197.823 44.400,197.467 44.119,197.335 43.775 C 197.054 43.044,191.657 43.050,190.910 43.782 M200.705 356.683 C 201.202 356.779,201.922 356.775,202.305 356.675 C 202.687 356.575,202.280 356.496,201.400 356.501 C 200.520 356.505,200.207 356.587,200.705 356.683 M204.500 356.676 C 204.885 356.776,205.515 356.776,205.900 356.676 C 206.285 356.575,205.970 356.493,205.200 356.493 C 204.430 356.493,204.115 356.575,204.500 356.676 " stroke="none" fill="#fc9c84" fill-rule="evenodd"></path><path id="path4" d="M174.036 178.292 C 173.789 192.636,177.213 201.564,184.291 205.027 C 186.442 206.079,187.504 206.425,191.200 207.274 C 193.982 207.913,208.204 208.155,210.800 207.607 C 222.445 205.151,224.688 202.186,224.426 189.600 C 224.331 185.090,224.242 180.371,224.227 179.114 C 224.204 177.129,224.125 176.904,223.626 177.402 C 223.141 177.887,223.126 178.526,223.526 181.533 C 224.109 185.908,224.162 197.853,223.600 198.200 C 223.380 198.336,223.200 198.710,223.200 199.032 C 223.200 204.224,212.863 207.981,200.000 207.463 C 181.390 206.715,176.207 202.030,175.150 185.000 C 174.723 178.132,174.103 174.397,174.036 178.292 M93.118 226.256 C 90.787 227.485,89.856 229.969,90.883 232.222 C 91.271 233.075,95.077 236.000,95.798 236.000 C 95.898 236.000,97.159 236.540,98.600 237.200 C 100.041 237.860,101.398 238.400,101.615 238.400 C 101.833 238.400,102.323 238.571,102.705 238.781 C 103.837 239.402,108.374 240.794,113.200 242.000 C 117.104 242.976,117.937 243.167,120.200 243.603 C 121.520 243.857,123.320 244.217,124.200 244.402 C 125.080 244.587,127.150 244.944,128.800 245.194 C 130.450 245.445,132.790 245.808,134.000 246.002 C 146.897 248.061,166.702 249.554,184.200 249.786 L 196.200 249.945 182.400 249.400 C 156.763 248.388,137.576 246.520,123.200 243.635 C 122.210 243.437,120.410 243.078,119.200 242.838 C 100.784 239.189,89.688 233.782,91.201 229.197 C 92.250 226.018,94.424 225.733,99.166 228.152 C 102.862 230.038,110.908 232.964,111.685 232.705 C 111.947 232.618,110.549 232.032,108.580 231.404 C 104.785 230.193,102.408 229.245,99.800 227.904 C 94.704 225.283,94.880 225.326,93.118 226.256 M298.148 229.366 C 277.788 239.111,212.281 243.902,158.000 239.617 C 143.057 238.437,127.813 236.250,117.265 233.771 C 113.002 232.770,112.097 232.630,112.502 233.035 C 112.740 233.274,114.194 233.661,117.800 234.445 C 118.900 234.685,120.520 235.045,121.400 235.245 C 131.404 237.524,147.939 239.517,168.200 240.886 C 178.599 241.589,223.917 241.584,234.200 240.879 C 251.880 239.666,262.136 238.567,272.400 236.783 C 278.567 235.712,279.254 235.575,284.400 234.399 C 289.466 233.242,294.759 231.493,298.800 229.642 C 302.412 227.987,305.200 229.308,305.200 232.675 C 305.200 235.472,303.146 236.822,294.000 240.034 C 287.331 242.376,271.264 245.402,258.000 246.815 C 242.000 248.520,238.499 248.716,204.078 249.838 C 199.831 249.976,196.424 250.157,196.507 250.241 C 197.348 251.081,241.179 249.124,255.400 247.611 C 268.275 246.241,274.329 245.308,284.400 243.143 C 285.390 242.930,286.787 242.656,287.504 242.534 C 288.221 242.412,288.906 242.151,289.027 241.956 C 289.148 241.760,289.689 241.600,290.229 241.600 C 290.769 241.600,291.523 241.441,291.905 241.246 C 292.287 241.051,293.860 240.499,295.400 240.019 C 299.876 238.623,303.460 236.960,304.746 235.683 C 306.124 234.315,306.096 231.114,304.693 229.711 C 303.228 228.246,300.760 228.116,298.148 229.366 M207.500 356.682 C 207.995 356.778,208.805 356.778,209.300 356.682 C 209.795 356.587,209.390 356.509,208.400 356.509 C 207.410 356.509,207.005 356.587,207.500 356.682 " stroke="none" fill="#fad4cc" fill-rule="evenodd"></path></g></svg>